<svg width="918" height="194" xmlns="http://www.w3.org/2000/svg">
  <defs>
    <linearGradient x1="-4.646%" y1="68.548%" x2="108.222%" y2="37.735%" id="a">
      <stop stop-color="#55F3DE" offset="0%"/>
      <stop stop-color="#55B9F3" offset="51.68%"/>
      <stop stop-color="#556AF3" offset="100%"/>
    </linearGradient>
    <linearGradient x1="107.742%" y1="44.205%" x2="91.726%" y2="46.077%" id="b">
      <stop stop-color="#55B9F3" offset="0%"/>
      <stop stop-color="#55B9F3" stop-opacity="0" offset="100%"/>
    </linearGradient>
    <linearGradient x1="75.379%" y1="-.121%" x2="62.848%" y2="24.633%" id="c">
      <stop stop-color="#55F3DE" offset="0%"/>
      <stop stop-color="#55F3DE" stop-opacity="0" offset="100%"/>
    </linearGradient>
    <linearGradient x1="97.226%" y1=".941%" x2="49.152%" y2="56.084%" id="d">
      <stop stop-color="#55B9F3" offset="0%"/>
      <stop stop-color="#55B9F3" stop-opacity="0" offset="100%"/>
    </linearGradient>
    <linearGradient x1="103.585%" y1="-1.647%" x2="44.54%" y2="55.261%" id="e">
      <stop stop-color="#55B9F3" offset="0%"/>
      <stop stop-color="#55B9F3" stop-opacity="0" offset="100%"/>
    </linearGradient>
  </defs>
  <g fill="none" fill-rule="evenodd">
    <path d="M358.595 147.94v-40.926c0-6.915 1.98-12.41 5.943-16.483 3.963-4.074 9.246-6.11 15.85-6.11 5.66 0 9.811 1.539 12.453 4.618 2.641 3.079 3.962 7.934 3.962 14.565v44.335h11.463v-44.903c0-18.852-8.538-28.278-25.614-28.278-6.038 0-11.368 1.492-15.991 4.476-3.655 2.36-6.485 5.592-8.488 9.7l-.171.355-1.106-12.826H346c.472 3.315.778 6.655.92 10.018.141 3.363.212 6.702.212 10.018v51.44h11.463zm99.8 1.06c6.704 0 12.548-1.517 17.53-4.551 4.981-3.034 8.846-7.325 11.593-12.872s4.12-12.113 4.12-19.698c0-7.49-1.373-14.033-4.12-19.628-2.747-5.594-6.612-9.908-11.593-12.942-4.982-3.034-10.826-4.551-17.53-4.551-6.705 0-12.548 1.517-17.53 4.55-4.982 3.035-8.846 7.35-11.593 12.943-2.747 5.595-4.12 12.137-4.12 19.628 0 7.585 1.373 14.151 4.12 19.698 2.747 5.547 6.611 9.838 11.593 12.872 4.982 3.034 10.825 4.551 17.53 4.551zm.07-9.545c-6.957 0-12.314-2.307-16.07-6.92-3.757-4.611-5.635-11.344-5.635-20.196 0-8.666 1.925-15.328 5.774-19.987 3.85-4.659 9.16-6.988 15.93-6.988 6.771 0 12.058 2.33 15.861 6.988 3.803 4.66 5.705 11.321 5.705 19.987 0 8.852-1.879 15.585-5.635 20.197-3.757 4.612-9.067 6.919-15.93 6.919zm76.88 9.545c1.874 0 3.583-.118 5.129-.353a35.383 35.383 0 004.706-1.06v-9.75c-1.405.47-2.67.8-3.793.989-1.124.188-2.389.282-3.793.282-2.342 0-4.45-.4-6.323-1.2-1.873-.801-3.348-2.238-4.425-4.31-1.078-2.073-1.616-4.993-1.616-8.762v-38.86h20.231v-9.043H525.23V54.606l-11.38 4.098v18.229H500.08v9.044h13.769v40.414c0 7.397 1.872 12.978 5.616 16.745l.214.212c3.887 3.768 9.11 5.652 15.666 5.652zm36.5-89.09V47.181h-13.72v12.727h13.72zm-1.055 86.969v-71.06h-11.61v71.06h11.61zm77.04 0v-9.042h-45.989l44.432-53.684v-8.335h-57.04v9.042h43.27l-44.828 54.107v7.912h60.155zm30.605 1.06v-14.848h-14.774v14.848h14.774zm44.01 1.061c6.467 0 11.949-1.602 16.447-4.805 3.169-2.257 5.617-5.192 7.344-8.805l.106-.225v12.846h11.245V44H746.2v44.836l-.134-.274c-1.66-3.306-3.95-6.05-6.87-8.231l-.305-.224c-4.498-3.25-9.98-4.876-16.446-4.876-6.279 0-11.784 1.508-16.517 4.523-4.732 3.015-8.387 7.254-10.964 12.718-2.577 5.465-3.865 11.918-3.865 19.361 0 7.443 1.312 13.967 3.935 19.573 2.624 5.605 6.302 9.94 11.035 13.001 4.732 3.062 10.19 4.593 16.376 4.593zm3.162-9.545c-6.864 0-12.22-2.4-16.07-7.199-3.849-4.798-5.773-11.53-5.773-20.196 0-8.48 1.924-15.049 5.774-19.708 3.849-4.659 9.205-6.988 16.07-6.988 6.863 0 12.15 2.352 15.86 7.058 3.71 4.706 5.565 11.345 5.565 19.917 0 8.666-1.878 15.352-5.635 20.057-3.756 4.706-9.02 7.059-15.79 7.059zM811.964 149c5.055 0 9.992-.853 14.813-2.56 4.82-1.707 8.775-4.03 11.863-6.97l-3.79-8.39c-3.464 2.844-7.09 4.954-10.882 6.329-3.79 1.374-7.745 2.062-11.863 2.062-7.863 0-13.83-2.37-17.902-7.112-3.928-4.574-5.962-11.267-6.1-20.08l-.005-.4h51.806v-2.134c0-7.3-1.193-13.559-3.58-18.774-2.387-5.215-5.827-9.22-10.32-12.018-4.493-2.797-9.875-4.195-16.146-4.195-6.552 0-12.332 1.564-17.34 4.693-5.007 3.13-8.915 7.49-11.723 13.085-2.808 5.594-4.212 12.09-4.212 19.485 0 7.68 1.427 14.294 4.282 19.84 2.855 5.548 6.927 9.79 12.215 12.73 5.289 2.94 11.583 4.409 18.884 4.409zm16.331-44.545h-41.158l.03-.203c.79-5.034 2.494-9.209 5.112-12.525l.214-.267c3.892-4.771 9.262-7.157 16.108-7.157 6.565 0 11.56 2.177 14.983 6.532 2.648 3.369 4.216 7.874 4.703 13.516l.008.104zm59.05 43.484L918 76.88h-11.443l-24.288 58.596-24.025-58.596h-12.008l30.231 71.06h10.878z" fill="#55B9F3" fill-rule="nonzero"/>
    <g fill-rule="nonzero">
      <path d="M99.772 121.712c.018.013.036.031.058.045l.185-.539c-.085.177-.166.344-.243.494zm0 0c.018.013.036.031.058.045l.185-.539c-.085.177-.166.344-.243.494zm129.351-57.657a64.735 64.735 0 00-17.955 2.01c-.081.023-.167.042-.248.064-.542-17.58-7.721-33.479-19.11-45.253-.231-.24-.47-.48-.705-.71a34.688 34.688 0 00-.713-.703 21.506 21.506 0 00-.659-.625c-.239-.23-.491-.461-.735-.688a52.702 52.702 0 00-.745-.675c-.32-.285-.645-.566-.965-.846-.298-.254-.596-.508-.898-.757-.42-.348-.849-.693-1.277-1.032a90.67 90.67 0 00-1.3-1.006 68.07 68.07 0 00-.695-.511c-.415-.308-.835-.603-1.254-.897-.055-.04-.113-.077-.167-.118-.411-.29-.826-.566-1.241-.842a64.857 64.857 0 00-2.793-1.748 19.38 19.38 0 00-.714-.417A66.248 66.248 0 00151.68.774c-.573-.068-1.141-.135-1.719-.194a59.95 59.95 0 00-1.814-.159c-.5-.04-1.002-.068-1.498-.1a77.464 77.464 0 00-1.024-.045c-.438-.013-.876-.027-1.314-.036a64.35 64.35 0 00-1.322-.014c-33.149.1-60.684 24.083-66.456 55.696l-.577-.054a69.087 69.087 0 00-6.602-.317c-38.059 0-68.91 30.965-68.91 69.154 0 3.614.279 7.164.811 10.628 2.442 15.868 17.23 24.02 31.295 21.551a28.745 28.745 0 008.2-2.744 6.19 6.19 0 01-1.558-4.46 6.193 6.193 0 012.044-4.275l6.007-5.362a1.527 1.527 0 011.105-.39c.086.005.176.018.262.041h.004c.298.068.573.227.795.476l14.868 16.65c.185.205.303.445.357.698a1.537 1.537 0 01-.474 1.481l-5.947 5.411c-2.469 2.22-6.517 1.993-8.719-.47l-1.223-1.373a19.426 19.426 0 00-3.262 6.825c-2.748 10.728 4.039 22.656 16.782 24.05.144.019.289.032.429.046-.027.23-.041.367-.041.367h165.109c35.937 0 65.03-29.404 64.691-65.545-.325-34.716-28.257-63.286-62.855-64.255zm-160.393 90.8a1.51 1.51 0 01-1.114.399h-.005a1.505 1.505 0 01-1.06-.512l-5.357-5.995h-.004l-6.557-7.346-2.915-3.265a1.55 1.55 0 01.122-2.191l33.415-29.83c.018-.013.045-.018.063-.036.077-.063.167-.104.257-.154.032-.013.06-.031.095-.045a.876.876 0 01.19-.077c.022-.009.045-.027.072-.036l9.503-2.174 12.392-2.835a1.54 1.54 0 011.49.475c.373.417.49 1.015.31 1.545l-4.147 12.068-3.073 8.93-.113.322a1.517 1.517 0 01-.392.589c-.014.013-.014.04-.032.054l-33.14 30.114zm-28.185-20.613a2.057 2.057 0 01.456-2.455l6.078-5.465c5.14-4.629 11.308-5.942 15.437-2.034l-.297.263-11.638 10.474c-2.004-.34-5.135-.276-7.802.295a2.047 2.047 0 01-2.234-1.078zm28.668 32.07a2.048 2.048 0 01-.907-2.001c.005-.005.005-.005 0-.01.018-.112.045-.226.081-.339.849-2.595 1.25-5.71 1.133-7.748l11.633-10.465.302-.277c3.425 4.542 1.454 10.556-3.69 15.184l-6.075 5.466a2.031 2.031 0 01-2.477.19zm30.622-44.555l.185-.539c-.086.177-.171.344-.244.494.018.013.036.031.059.045zm-.063-.045c.018.013.036.031.058.045l.185-.539c-.085.177-.166.344-.243.494zm0 0c.018.013.036.031.058.045l.185-.539c-.085.177-.166.344-.243.494z" fill="url(#a)"/>
      <path d="M62.219 124.55L50.58 135.026c-2.004-.34-5.135-.276-7.802.295-.1.018-.194.031-.294.036.37.167.79.222 1.214.136 2.559-.54 5.56-.603 7.482-.281l11.448-10.298a6.19 6.19 0 00-.41-.362zm2.093 31.582l-14.264-15.967a1.455 1.455 0 00-1.444-.453c.298.068.573.227.795.476l14.868 16.65c.185.205.303.445.357.698.144-.475.04-1.01-.312-1.404zm16.841-10.383c-.117-.177-.23-.349-.36-.517l-11.445 10.303c.113 1.951-.275 4.94-1.087 7.43-.149.45-.122.92.04 1.332.019-.113.046-.226.082-.34.848-2.594 1.25-5.71 1.132-7.748l11.638-10.46zm18.619-24.037c.018.013.036.031.058.045l.185-.539c-.085.177-.166.344-.243.494z" fill="url(#b)"/>
      <path d="M99.772 121.712c.018.013.036.031.058.045l.185-.539c-.085.177-.166.344-.243.494zm0 0c.018.013.036.031.058.045l.185-.539c-.085.177-.166.344-.243.494zm-23.84-65.763a68.056 68.056 0 00-6.552-.312C31.34 55.637.505 86.58.505 124.755l32.03 32.143a28.745 28.745 0 008.2-2.744 6.19 6.19 0 01-1.557-4.461 6.193 6.193 0 012.044-4.275l6.006-5.362a1.527 1.527 0 011.106-.389c.085.004.176.018.261.04h.005c.298.069.573.227.794.476l14.869 16.651c.185.204.302.444.356.698a1.537 1.537 0 01-.474 1.48l-5.947 5.412c-2.468 2.219-6.516 1.993-8.718-.47l-1.223-1.373a19.426 19.426 0 00-3.263 6.824l24.377 24.463c33.898 0 62.074-24.571 67.81-56.932a69.935 69.935 0 001.065-12.186c.013-35.951-27.346-65.49-62.314-68.8zm-35.387 78.293a2.057 2.057 0 01.456-2.455l6.078-5.465c5.14-4.629 11.308-5.942 15.437-2.034l-.297.263-11.638 10.474c-2.004-.34-5.135-.276-7.802.295a2.047 2.047 0 01-2.234-1.078zm37.22 26.414l-6.075 5.466a2.045 2.045 0 01-3.389-1.811c.005-.005.005-.005 0-.01.019-.112.046-.226.082-.339.848-2.595 1.25-5.71 1.132-7.748l11.634-10.465.302-.277c3.43 4.547 1.458 10.556-3.687 15.184zm24.534-36.567a1.517 1.517 0 01-.393.589c-.013.013-.013.04-.031.054l-33.14 30.123a1.51 1.51 0 01-1.115.399h-.004a1.505 1.505 0 01-1.06-.512l-5.357-5.995h-.005l-6.556-7.346-2.916-3.265a1.55 1.55 0 01.122-2.191l33.416-29.83c.018-.013.045-.018.063-.036.076-.063.167-.104.257-.154.032-.013.059-.031.095-.045a.876.876 0 01.19-.077c.022-.009.044-.027.071-.036l9.504-2.174 12.391-2.835a1.54 1.54 0 011.49.475c.374.417.491 1.015.31 1.545l-4.146 12.068-3.073 8.93-.113.313zm-2.464-2.332l.185-.539c-.086.177-.171.344-.244.494.018.013.036.031.059.045zm-.063-.045c.018.013.036.031.058.045l.185-.539c-.085.177-.166.344-.243.494zm0 0c.018.013.036.031.058.045l.185-.539c-.085.177-.166.344-.243.494z" fill="url(#c)"/>
      <path d="M100.02 121.218l-.185.539c-.023-.014-.04-.032-.059-.045.073-.15.154-.317.244-.494z" fill="url(#d)"/>
      <path d="M211.217 68.71c0 37.818-30.55 68.475-68.238 68.475-1.95 0-3.88-.081-5.785-.24-12.969-1.091-24.9-5.823-34.787-13.173l3.073-8.93 4.147-12.068c.18-.53.063-1.124-.311-1.545a1.54 1.54 0 00-1.49-.475l-12.39 2.835-9.504 2.173c-.027.01-.05.027-.072.037a.876.876 0 00-.19.077C78.757 95.17 74.75 82.409 74.75 68.71c0-4.36.406-8.626 1.187-12.76.004-.023.004-.046.013-.069C81.93 24.196 109.672.24 142.984.24c.437 0 .884.005 1.322.014a77.462 77.462 0 012.337.082c.501.026 1.002.053 1.498.099.605.04 1.214.1 1.815.158.573.06 1.141.127 1.719.195a67.558 67.558 0 0125.27 8.527c.235.136.478.276.713.417a64.86 64.86 0 012.793 1.748c.415.276.83.552 1.241.842.054.036.113.072.167.118.42.294.84.588 1.255.896.23.168.464.34.694.512a70.688 70.688 0 012.577 2.038c.302.249.6.503.898.756.325.28.65.562.966.847.248.222.5.444.744.675.244.226.497.457.736.688.221.204.438.412.659.625.239.226.478.466.713.702.234.23.473.47.704.71 11.439 11.757 18.7 27.624 19.358 45.19.036.87.054 1.748.054 2.631z" fill="url(#e)"/>
    </g>
  </g>
</svg>
