<svg xmlns="http://www.w3.org/2000/svg" width="611.749" height="419.199" viewBox="0 0 611.749 419.199"><path fill="#6B6957" d="M414.686 199.82l-3.76 2.76c0 .25-.252.75-.502 1.002v.5l.25 1.255c0 .5.252 1.003.252 1.504 0 .753.25 1.505.752 2.257.752 1.755 1.504 4.262 2.256 6.268-.25 2.256-.752 4.262-1.003 6.268l2.508 20.56c5.265-12.286 8.023-25.825 8.023-40.116 0-3.01-.25-5.767-.5-8.775l-8.274 6.52zm-60.173-47.384s0 .25 0 0zm1.505 1.002c-.752.25 3.01 2.507 2.758.752h-.25c-.754 0-2.006.25-2.508-.752zm-.752-4.262c.5.5 3.01 2.006 3.76 1.254-1.002-.5-1.754-1.003-2.757-1.254h-1.004zm6.268 5.265c0 .252 0-.25 0 0zm.25 1.004c.753-.5-.5-.5-.5-.752s.25-.25.25-.5c0-1.004-2.005.25-1.253 1.002h.252c-.25.25-.5.5-.25.752.25.5 1.253.5 1.754 0 .752-.5-.5-.5-.5-.752-.002.5-.002.5.25.25zm9.527-1.755c-.25 0-.25.25-.5.25 0-.25-.25-.25-.25-.5l.5-.502h-.5v-1.254c-.502.25-3.26-.5-2.508-1.003-1.003-.25-1.003-.25-1.504-.25.25-.752.5-1.254.25-1.254.252-.752.502-1.254-.5-1.003-1.504.5-1.254 3.26-3.01 3.76.252.502.753.252 0 .753-.5.5-.25.752.252.752 0 0-.25 0-.25.25-.753.502 0 1.004.5.753 1.504-.25 3.26.252 4.764.502-.25.25-.5.25-.5.5 0 .502 1.503-.75 1.503-.75.25.25 1.003 1.253 1.003 1.503.25.5.752.25 1.003-.25 0-.252 0-.502-.25-.753 0 0 0-.25.25-.25.25-.75-.252-.75-.252-1.253zm-76.468-37.107c-.5-.5-4.262 1.504-3.76-.5-.502.25-1.756 0-2.257.75-1.254.252-3.01.753-3.26 1.255.502 0 1.004-.25 1.505-.25-.752.25-1.254.5-1.504.75-.752 0-1.755-.25-2.256 0-.5 0-1.003.252-1.504.502 0 .25.25.25.25.25s-.5.252-.75.502c-.252 0-.502 0-.753.25.5-.25.752-.75 1.003-1.002l-.25-.25c.25 0 .5-.252.5-.502s-2.758.752-3.26 1.003c-1.002.252-2.005 1.505-3.008 2.007-.25.25-2.006.752-2.256 1.504h.25c.753-.25 2.76-.5 3.26-1.002.25 0 1.504-1.003 1.755-.752.25.25.5.25 1.003 0-.5.5-1.003.752 0 .5-.5.252-1.003.502.25.252 1.255-.25 2.76-1.003 4.012-.752-.25 0-1.003 0-1.254.5 0 .252 4.262-.75 5.014-1.002 1.003-.25 2.256-.5 3.26-.752.25 0 4.26-1.003 3.258-1.504-.25-.25-2.758.5-3.51.25h.25c.252 0 2.76-1.002 3.26-1.503h1.003c.25 0 .5 0 .752-.25.25 0-.25 0-1.003-.252.252.25.252 0 0 0zm-15.794 3.51c-.25 0-.5.25-.5.25.25-.25.75-.5.5-.25zm9.778-2.507h1.003-1.505.5zm.752.25c-.25 0-.25 0 0 0-.25 0-.25 0-.752.252.25-.25.5-.25.752-.25zm-2.006 2.257c.5-.25.752-.25.752-.25.5-.252.752-.252 1.254-.502l-.25.252h1.002c-1.003.25-1.756.5-2.758.5zm-.502-1.254c.252-.25.252-.25 0 0 .752-.252 2.256-.502 2.256-.753.25 0 .5 0 .752-.25-.75.752-1.754 1.002-3.008 1.002z"/><path fill="#6B6957" d="M283.31 118.087c.25.25.5.25.752 0 .25 0 .5-.25.5-.25s-1-.502-1.252.25zm-5.767 4.012c.25.5 2.006-.502 2.006-.753-.252 0-1.506.25-2.007.752.25-.252 0-.252 0 0zm90.51 33.344c0-.5 0 0 0 0zm-12.787-5.014c.5.5 3.01 2.006 3.76 1.254-1.002-.5-1.754-1.003-2.757-1.254-.503 0-.503-.25-1.004 0zm-98.282-.752c0 .25-.25.5-.5.5l.25-.5c-.5 0-.5-.25-.752.25.25.252.5.753.752.753-.5.753.25.753.25.753s-.25-.25-.25-.5c0-.252.25-.503.25-1.255zm-2.256-4.263c-.25.25-.752.25-1.003.5-.5.502 0 1.004.5.753 0 .5 0 .752.252 1.003.5-.25.25-.75.25-1.002 0 0-.25.25-.25 0 0-.5.25-.75.25-1.253zm99.785 143.16c-.25.25-.5.25-.752.5.252 0 1.756-.25 1.756-.75-.5.25-1.003.25-1.504.25h.5z"/><path fill="#6B6957" d="M355.266 288.826c.5-.25 1.755-.5 2.006-1.003-.5.25-1.003.5-1.504.5-.25 0-.502.252-.502.503zm-126.362-94.02c.25-.25.25-.25.25-.5-.25 0-.25 0-.25.25 0 0-.502.25 0 .25zm2.006 2.76c-.25 2.506 1.755-.252 0 0zm-3.008-4.013s0-.25 0 0c-.502.25 0 .752 0 0zm1.755 1.755c.25 0 .5-.25.5-.5h-.5c-.25.25-.25.5 0 .5zm.5.25c0 .252 0 .502.252.502.5 0 .25-.5-.252-.5.25 0 .25 0 0 0zm26.577-48.387c-.5 0-1.003.252-1.003.753.252-.25.252-.25.753-.25-.25.5.25 1.503.752 1.002.25-.502-.75-1.003-.5-1.504z"/><path fill="#6B6957" d="M355.767 288.324c.25-.25-.25 0 0 0zm-16.798-3.51c.75-2.507-2.006-.25 0 0zm-8.776-140.903c-.5.252 0 0 0 0zm-25.323-28.83c0-.252 0 .5 0 0zm-.5-1.255c.5 0 .752.25.752-.25-.5 0-1.003 0-1.504.25 0 .25.502 0 .752 0zm-18.554 2.006c.5-.25 1.003-.25 1.504-.5-.752.25-1.254.5-1.504 1.003 0 .5 1.254.25 1.254.25h.25c.753-.25 3.01-1.253 1.505-1.002.5 0 1.003-.25 1.254-.5-.252 0-1.004 0-2.007.25.752-.25 1.755-.5 2.507-.75-.25-1.006-4.512.248-4.764 1.25zm43.124 4.012c0 .5 2.256 1.003 2.507 1.003h.25c1.004 0 3.51.5 4.012 0-.753-.5-6.77-1.755-6.77-1.003zm-30.336 4.263c-.5.25.75 0 0 0z"/><path fill="#6B6957" d="M320.667 99.785c-56.662 0-102.543 46.132-102.543 102.543 0 35.1 17.8 66.19 44.878 84.742-8.274 4.01-17.3 7.02-26.325 7.02-6.52 0-13.288-1.504-19.054-4.764-7.27-4.262-11.282-11.282-11.533-19.807-.25-8.525 2.256-16.8 5.516-24.57 2.256-5.015 4.764-10.03 7.772-14.793-.25.5-.752.752-1.003 1.254-4.01 5.517-7.522 11.534-10.28 17.802-3.258 7.522-5.765 15.795-5.264 23.818.753 8.023 4.765 15.043 11.283 19.807 6.77 4.764 15.043 7.27 23.317 7.772 12.285.5 24.32-3.01 35.35-8.275 14.292 7.772 30.84 12.034 48.14 12.034 26.324 0 50.393-10.03 68.695-26.326-.752-1.504-1.254-2.758-1.504-3.51-.5-1.003-1.002-2.758-2.005-5.265-16.798 16.296-39.864 26.324-65.186 26.324-13.79 0-26.828-3.01-38.61-8.274 1.503-1.003 3.008-1.755 4.512-2.758 12.536-7.522 24.32-16.798 34.85-27.077l-10.53-9.778c-9.026 10.28-19.055 19.556-30.086 27.58-3.01 2.255-6.268 4.26-9.527 6.267-26.828-15.795-44.63-45.38-44.63-79.227 0-20.308 6.52-39.112 17.55-54.656l.502-.5h-.252c.5-.752 1.003-1.254 1.504-2.006h1.003c1.254-.25 2.256-.752 3.51-1.003 1.003-.25 1.755.502 2.507.252.752-.25.25-.5 1.003-.5.5 0 .752-.252 1.003-.252-1.254 1.504.25.5 1.003.25 0 .502-.5.502-.752 1.004 0 .5 1.255 0 1.505 0 .5.25-.5 1.003.752 1.003.25 0 1.254-.25 1.254.25v1.756c.252.752.753.25 1.255.5.5.252-.25.753.5.753 1.255.25 1.004 1.755 2.508 1.504 0 0 2.256.752 2.507.752.752 0 1.254.25 1.755.5.5.502-.25 1.255-.752 1.004-.25-.25-1.254-.25-1.504 0h-.252c-1.003-.752-3.26-1.504-4.513-.752h.752c0 .25-.25.25-.5.25.25.502 1.754.502 2.005.252-.25 0-.25.25-.5.5.5.252 2.005.502 2.757.502.25.25.5.25.5.5.5.753-.5 2.76-.752 3.51-.25 1.004-.752 2.257-.5 3.26.25.752.25 1.504.25 2.256.25 1.003-.752 1.003 0 2.006.5 1.003 2.256 2.758 2.006 3.51 0 .5.25.752.5 1.254.753.5.502 1.254.753 2.006s3.26 1.504 4.01 2.006c1.255 1.003 1.004 2.006 1.756 3.26.752 1.253.5 2.255 1.504 3.258 1.003.752 3.01 2.758.752 2.758.5.752 1.754.5 2.255 1.254l1.504 1.504c0 .5-.252 1.254.25 1.504.5.5 1.254 1.504 2.006 1.755.5.25 1.003 1.253 1.254 1.253s.5-1.003.25-1.254c-.5-.753-.75-.252-1.503-1.004-1.003-1.254-1.003-3.01-2.006-4.262-1.002-1.254-1.002-3.01-2.255-3.76-1.003-.502-2.758-2.76-1.755-4.263.5.502 1.504.502 2.256 1.004.25.25.25 1.003.5 1.504.502 1.504 1.004 2.256 2.257 3.51.752.5.752.25 1.254 1.003.25.502 1.003.753 1.254 1.255.753.5.502 1.003.753 1.755 0 .752 1.254 1.003 1.755 1.254 1.504 1.003 2.507 3.01 3.26 4.513.25.5.75 1.254.75 2.006s-.75 1.003-.5 2.006c.5 1.002 2.006 1.503 3.01 2.005.5.25 1.002.752 1.503.752 1.004.25 1.505.752 2.508 1.254.752.502 1.504 0 2.256.252.5.25 1.003.5 1.504 1.003 1.003.5 2.256.5 3.26 1.003 1.503.752 1.754-.752 3.008-.752 1.755 0 2.758 1.504 3.76 2.758 1.255 1.504 2.508 1.755 4.263 2.006.75.25 1.253.5 2.005 1.003 1.003.25 1.254 0 2.256 0 .502 0 1.505 1.504 2.508 2.507l4.262.5c0-1.253.25-2.757.5-3.76 0-1.003.502-2.758-.25-3.01-.5-.25-1.003-.75-1.755-1.002-1.003-.25-2.256 0-3.51 0-1.003 0-1.755.25-2.758.25-.752 0-1.003-.75-.5-1.002.75-.5.75-.752.75-1.504v-1.254c0-.752.502-1.003.502-.25.5-.502.75-1.004.75-1.756 0-1.003 1.004-1.755 1.004-2.758s-2.758-.752-3.76-.752c-.753 0-1.505 0-2.007.5-.752.502-.5 1.505-1.003 2.007-.25.5-.752 1.002-1.003 1.503-.5 1.003-1.002.25-1.754.25-1.003 0-1.755.502-2.507.753-.753.25-1.505-.5-2.257-.752-1.003-.5-2.256-2.256-3.01-3.26-.75-1.002-.75-3.008-.75-4.26 0-1.255.25-2.007.5-3.01 0-.5-.25-1.504 0-1.504 0-.5-.25-1.003 0-1.755s.5-1.254 1.003-1.755c.752-.5 1.254-.5 2.006-.5s1.254-1.004 1.755-1.505 1.254-.752 2.006-.752c.5 0 .752.25 1.003.5.752.252.752-.25 1.504-.25 1.504 0 2.507 1.755 4.262 1.003-.752-.5-.25-1.003 0-1.755h-.752c.5-.25.752-.25 1.254-.25-1.504-1.254-2.758-2.006-3.51-2.758-4.01-3.01-8.775-7.27-9.026-13.037 0-2.256.752-5.766 4.262-8.524l.25-.25c1.004-.752 1.505-1.254 5.015-3.76 2.256-1.505 5.014-2.257 8.274-2.257 6.016 0 12.284 2.507 13.538 3.26l14.29 6.016H350c.5 0 1.003 0 1.254-.252.5-.5 0-.5 0-1.003.5 0 1.254.25 1.755.25 1.002 0 1.253-1.002 2.005-1.002 0 .752.25.752.752.752-1.504 0-4.262 1.254-2.006 2.758.252.25 3.01-1.504 3.762-1.504 1.254-.252 3.76-1.255 1.003-1.756-1.003-.25-2.006-.5-2.758-1.003-1.003-.75-1.254-1.754-2.758-2.005.5-.5 1.253-.5 1.754-.752 1.003-.752-.752-1.254-1.254-1.254-1.254-.252-2.256-.252-3.51.25-.752.25-1.755.752-2.507 1.003.5-1.003 2.006-1.003 2.758-1.504 1.004-.753.502-1.255 2.007-1.255 2.758-.25 5.516 1.003 8.524 1.003 1.004 0 1.255-.752 2.257-1.003.752-.25 1.755-.25 2.507-.25 2.758-.502-.25-2.007-.25-3.26-.753.25-4.514 1.003-5.015.25.75-.25 3.51.252 3.76-.75 0-.502-3.01-1.004-3.51-1.255-.25-.25-.752-.5-.752-1.003-1.003 0-1.755-.5-2.507-1.003 2.007-.752-1.503-1.755-1.503-2.507-.25-1.254-1.755-1.755-2.758-2.507-.252.25-.753.25-1.004.5-.25.252.25.502-.25 1.004-.753.25-2.508 1.254-3.26.752-.5-.25-2.006-1.003-2.256-1.504-.25-.752.25-1.755-.752-2.006-1.504-.752-2.758-1.003-4.01-1.755-1.004-.5-2.257-.25-3.26-.5-1.254-.25-2.507-.752-3.76-.5-1.004 0-1.004.5-.252 1.253 1.003.752-.752.752-.5 1.254s1.503.752 1.253 1.504c-.252.753-1.255.753-2.007.753.752.5 1.755.752 2.507 1.254s1.003 2.006.5 2.758c-.75 1.003-3.008 1.755-4.26 2.006 1.503.502 1.253 1.756 1.754 2.76s-1.504 2.005-2.507 1.503c-1.003-.5-2.758-1.504-3.26-2.507-.5-1.254 0-2.006-1.754-2.758-3.76-.752-7.27-1.504-11.032-2.507-.75-.25-1.503-.5-2.255-.25-.5.25-1.254.752-1.504 0-.5-2.006-1.754-1.755-3.258-1.504.5-.752 0-2.006.752-3.01s1.755-1.503 2.507-2.255c.502-.5 2.508-.25 2.508-.75s-2.256-.502-2.758-.502c.25 0 3.76.25 3.76 0 .502-.752 2.508-.5 3.51-1.003 1.505-.752.502-.752-.75-1.003-1.004 0-2.007 0-2.76-.752 1.255 0 2.508.5 3.762.5.25 0 3.51-.25 2.006-1.253 1.254 0 2.507.5 3.76.5-.5-.25 1.255 0 1.505-.25.5 0 2.006-.5 2.256-1.003 0-.25-2.007-.752-1.255-1.254.25-.25 1.254-.25 1.003-.752s-1.003-.5-1.504-.5c1.003 0 2.006 0 3.01.25-.252 1.254 2.506-.25 3.008 0 1.254.25 2.507.752 3.51 1.254-.25 0-1.254 0-1.254.25 1.755.252 3.26.252 5.014 1.004 3.51 1.504-1.254 1.254-1.254 2.006 0 .25.752.5 1.003.5-.75.252-6.267-.5-6.518.502.25 1.254 3.51.5 4.262.5.752.252 1.755 0 2.758.252s2.006.752 2.758 1.003c-.5.5 2.758 1.253 3.01 1.253.5.25 5.013 1.254 5.013 1.254-.25-1.003-3.01-1.504-3.76-2.006.75.252 6.016 2.257 6.016.753-.252-.5-1.756-1.254-2.007-1.254-.5-.252-1.003 0-1.504-.502-.502-.25-1.505-1.003-1.505-1.254h.752c-.25-.5-.5-.25-1.003-.5 1.254-.753 3.26.75 4.262 1.503.25.25 2.006 1.003 2.256.25.25-.75 1.003.252 1.003-.75 3.01.5-.5-1.255-1.504-1.255-1.253 0-1.754-.752-2.757-1.003-1.254-.252-2.006-1.004-3.26-1.255.502-.25 1.004-.25 1.505-.25-.5-.502-1.504-.502-2.256-.502.5-.25 1.254 0 1.504 0-.5-.5-1.003-.752-1.755-.752-.5 0-1.253-.5-1.754-.75-1.254-.502-2.256-1.004-3.76-1.004-1.505 0-2.508-.5-4.012-1.254-1.254-.5-2.507-.5-3.76-.752-.753 0-1.255 0-1.756.25s-1.003-.25-1.755-.25-.752.5-1.003-.25c0-.502-.5-.753-1.003-1.004-1.254-.5-3.01-.25-4.513 0-.5 0-1.254 0-1.755.5-.753.252.25.502.25.753 0 .5-2.006.5-1.504-.252-1.254 0 1.755-1.003 1.755-1.254-.75 0-1.503-.25-2.506-.25s-1.755.25-2.758.5c-.5.25-.5.5-1.003.752-1.003.25-1.254 1.003-.25 1.504.75.25 2.005 0 2.757.25 0 .502-1.755.252-2.256.252.5 1.003 3.01.5 3.76.752.252.25 2.257.25 2.257 1.003 0 .25-1.002.25-1.253.25-.5.252-.752 1.004-1.254 1.255-.5.5-1.504.5-2.006 0s.752-.5.752-.752c-.252-.752-2.508-1.254-2.76-.5-.25.25-1.002 1.253-1.253.5-.25-.752-1.755-.5-.5-1.003-.753-.25-1.756 0-2.508-.25.75-.252 2.005-.753.5-1.004-1.003-.25-1.254-1.254-2.758-1.254.25-.252 1.504-.753.25-.502.502-.5 5.266-.25 5.266-1.504-.5 0-6.268-.25-6.017.25 0 .753-1.253-.25-1.002.753 0 .5.5.25.5 1.003-.5 0-.5.25-.25.5-.5 0-.752 0-1.254.252-.752.25.25.5 0 .752 0 .25-1.254.752-.25 1.003.75.25 4.01-.25 2.506 1.254.25 0 .752-.25 1.003-.25.25.5-3.26 2.006-3.51 1.755-.5-.25.752-.752-.5-1.003-.753 0-1.505-.25-2.257 0-.5.25-.5.752-1.003.752-2.758-.25-5.516.25-8.274 0-1.004-.25-1.505-.752-2.508-.752-.5 0-3.01.25-3.01 1.003 0 .5 3.01-.5 3.26-.5 0 .5-1.254.75-1.755.75-.5.252-1.003 1.255-.5 1.255-1.255 0-2.007-.752-3.26-.5-1.504.25-2.758.5-4.01.75-.252 0-2.007.753-2.508.252-.252-.25 1.503-.5 1.754-.752-.5-.5-1.003-.5-1.755-.5-1.756.5-3.51.75-5.266.75-1.254 0-3.26-.25-4.01.753-.502.752-1.004-.25-1.756.25-.5.252-1.003 1.004-1.755.753-.25 0-.752-.5-1.254-.5-.753.25-.753.75-1.505 1.002-1.254.25-2.256.5-3.51 1.254-.752.5-1.755.752-2.507 1.254-1.003.25-1.003.5-1.003 1.003 0 .25-1.254.5-2.006.75 12.033-11.532 27.327-19.806 44.125-23.817 0 1.254 2.006.752 2.507 1.003 1.504-.25 2.507.5 2.758-1.504-1.755.5-3.26.25-5.014.5 6.52-1.503 13.54-2.255 20.56-2.255 2.005 0 3.76 0 5.766.25 0 0-.25 0-.25.252-1.255.25-2.257-.252-3.51.75-1.255 0-2.76-1.002-4.012-.25-1.003.5-2.256.5-3.26.5-1.253 0-3.51-.25-4.512.753h1.003c.753 0 1.505-.25 2.257-.25-.5 0-1.003.25-1.504.25.25.25.752.25 1.003.25 0 0-.25 0-.25.252h2.255c-.5 0-1.002 0-1.253.25 1.003.502 2.256.502 3.26.252s2.005.25 3.258.25c2.256 0 4.513-.5 6.77-.25 0 0-.252 0-.252.25-1.003 0-1.755 0-2.758.252h-1.504c-.75-.252-1.754-.252-2.506-.252-.752-.25-1.504-.25-2.507 0l.25.25c-.25 0-.75 0-.75.252h-3.01c-.25 0-.25-.25-.5-.25-.753 0-1.756.25-2.508 0-1.505-.753-2.76-.502-4.263-.502 0 .25.25.25.5.25-.5 0-1.253.252-1.754.252.5 0 1.504 0 2.006.25-.502.252-3.01 0-3.01.502s2.006.25 2.256.25c-.752.252-1.755 0-2.758.252.25.752 1.254.752 2.006.5-.25 0-.25 0 .752-.25-.25 0-.5 0-.752.25h.5c-.25.252-.75.252-1.002.252 0 .25.752.25 1.755 0-.25 0-.25 0-.25.25 0 0 .25.252.5.252h-1.003c-1.254 0-3.26-.25-3.26.25 0 .252.252.502.753.502 0 0-.25 0-.25.25s.25.252.75.502h.753c-.25 0-.25 0-.5.25 0 .252 1.754 0 2.005 0 .5 0 1.254 0 1.254-.5 0-.25 0-.25-.252-.25l.25-.252v-.25h1.004c.25 0 .5.25.752.25 0 .5 1.755.25 2.256.25h-.752c.25.502 2.507.252 3.01 0 .25 0 .5-.25.75-.25.252.5 1.505.5 1.756.5-.5.252-3.76 0-3.76.753h2.255v.25s3.008 0 6.518.252c2.256.25 4.764.25 6.268.25 2.006 0 3.51 0 3.51-.25s-.752-.25-1.254-.25c0 0-.25-.252-.5-.252.25-.25 2.005.25 2.005-.25l-.25-.252c1.754.252 3.008-.25 4.512-.25-.502-.25-1.004-.25-1.505-.5.25 0 1.003.25 1.254 0 .5-.252-1.255-.252-1.255-.252 2.256-.25 4.513.25 7.02 0 2.507-.5 5.014.25 7.522 0-1.003-.25-2.256-.25-3.26-.5.502 0 7.02.5 7.02.75-.25-.5-2.255-.5-2.757-.75-.5-.252-.752-.252-1.254-.252-.5-.25-1.254-.25-1.755-.25s-1.253-.252-1.754-.502c.5 0 3.26.25 5.265.5 2.508 1.004 5.015 1.756 7.523 3.01-.752 0-1.504-.25-2.256-.5-1.003-.252-1.755-.252-2.758-.502-.753-.25-.753.5-1.505.25-.5 0-6.268-.5-6.268-.25 0 .5 2.256.5 2.758.752 1.755.25 0 .752-.752.5-.5 0-8.274-.75-8.274-.25.25.5 3.008.752 3.76 1.003 1.755.25 3.26.5 5.014.5-.752 1.004-6.268-1.253-6.52 0 1.255.252 2.508.502 3.51.753-.25.25-.5.25-1.002.25.752.252 1.254.502 2.006.502.25 0 2.507.5 1.254 0 4.513.25 10.03 1.003 13.79 3.76.5.502 1.253 1.255 1.754 1.505 1.755.5-.25.5 0 1.003 0 0 6.017 1.755 5.516 2.507-.25.25-3.01-1.003-3.76-1.003l.75.752c-.75-.25-1.503-.5-1.503 0 .25.5 3.258 1.755 3.51 1.003 0 0-.753-.252-1.255-.502 1.003.25 2.507.5 3.01.752-.252.5-.753.5-1.004 1.003 0 0-1.253-.5-1.253-.25-.5 0-.752.25-1.003.5-.752.5.25.752.752.752-.25 1.003.25 1.003 1.003 1.504.25.25.5.75 1.002 1.002.5.25 1.003 0 1.504.5-1.755.252 3.76 4.012 4.262 4.514.752.25 1.504 0 2.256.25.752.502 1.003 1.255 2.006 1.255.5 0 .752.502 1.254.502.5-.25 0-1.003.752-1.003-1.003-1.756 1.755-1.756.752-2.257-1.003-1.003.752-.752 1.504-.5.5 0 .752-.252 1.254-.252.25.753 1.003.502 1.504.753 2.507.752.752 0 .752-1.254h.25c7.272 7.27 13.29 15.794 17.802 25.07l7.02-5.264c-16.044-35.856-50.643-58.67-90.757-58.67zm30.588 56.16s0-.25-.25-.5c.25 0 .25.25.25.5zm-.25-.5s0-.252-.252-.502c.25.25.25.25.25.5zm-.252-1.004v-.5.5zm-31.34-39.612c-.25 0-.752-.25-1.254-.25.5 0 .75 0 1.253.25.25-.25.25-.25.5-.25-.25.25-.5.25-.5.25zm2.005-1.504h-1.003.25-1.002c.5 0 .752-.25 1.003-.5.252.25.502.25.752.5zm-25.573 4.01c-.5 0 .503 0 0 0z"/><path fill="#6B6957" d="M307.63 116.082c.25 0 3.76.25 3.76-.25 0 0-3.26 0-3.76.25zm3.76-.25c0 .25 0 0 0 0zm-7.773 8.523c-.25 0-.25 0 0 0-.25 0-1.003 0-1.254.25 1.504.753 4.01.502 5.516 0-.502-.5-1.505-.75-2.257-.75-1.002-.252-1.253.25-2.006.5zm-4.513-7.772c.5 0 1.504 0 1.755-.25h-.252c-.5.25-1.253.5-1.504.25zm-2.005 1.003c1.253-.25-.25 0 0 0zm23.315.752c-1.002.25 1.254.25 0 0zm-19.806-1.003c.25.25 1.253 0 1.503 0-.25.752-2.758 0-2.507.5.25.252.5.252 1.003.252-1.255.25-2.257-.5-3.26-.25h-.5c.25 0 0 .5 0 .5 2.255.5 4.26-.25 6.518-.25-.5.25-1.254.25-1.504.75 0 .252 1.504 0 1.755 0 1.002 0 2.005 0 2.255-1.253-.503-.75-4.764-.5-5.266-.25zm-5.265 2.006h1.003c-.25 0 0 0 0 0 .25 0 .5 0 .752-.25 0-.752-1.505 0-1.755.25zm10.78 1.255c0-.25-1.504 0-1.755 0 .5-.25 1.504-.25 1.504-.752s-5.265 0-5.767.5c0 .252 1.254 0 1.504 0 0 1.004-1.503.502-2.255.502-1.003 0-1.003.25 0 .5 1.003.252 1.755.252 2.758.252 1.254.25 3.76.752 4.513-.5l.25-.502h-1.002.25zm-1.755-6.268c0-.502 0 .752 0 0zm2.508 4.01c.752 0 4.01.753 4.01-.25 0-.25 0 0 0 0 .25-1.003-3.51-.5-4.01.25z"/><path fill="#6B6957" d="M303.367 115.83c.25 0 .25-.25.25-.5 0-.752-1.253-.752-1.503-.752 1.254-.5-1.003-1.254-1.504-.752-.752.5-1.254-.5-2.006-.25-.752.5-1.504.5-2.507.5-.25 0-2.507 1.003-2.507 1.254h.752l-.5.5c.5.252 1.253-.25 1.754-.5-.25.25-.25.25 0 .5-.5.252-1.003.502-1.755 1.004.502.25 1.255.25 1.756.25 1.254.252 2.758-.25 3.76-.25.502 0 3.51.5 3.762 0 .75-1.003.5-1.003.25-1.003zm27.077 2.007c-1.254-.752-14.04-.5-14.04-.752h.25c-.5-.25-1.754.25-2.255-.25h2.005c-1.254-.502-2.758-.252-4.01-.252-.753 0-5.517-1.003-5.517 0 0 .5 2.507.25 2.758.5.5 0 1.003 0 1.504-.25.752.25 1.254.5 2.006.752-.752 0-.5.5 0 .752 1.003.25 2.006.25 2.758.25.752 0 1.254-.5 2.006-.25-.25.5 2.256.25 2.507.25h3.26c.5 0 1.754-.25 2.255 0 .25.252 4.512.503 4.512-.75-.25.25-.5.25-.5.25 0-.25.25-.25.5-.25zm-6.017 9.527c0 .25.25.25 1.003.25-.502 0-.502-.5-1.003-.25zm5.517 4.262c.752.5 1.003.25 1.755 0h-.252c-.503-.5-1.504-.5-1.504 0zm-4.513-.752s-.25 0 0 0c-.25.25-.25.25-.25.5.752 0 1.755-.25 2.507-.75-.752-.252-1.505 0-2.256.25zm6.018-6.268c.752 0 1.003-.25 1.254-.5-.753 0-1.757.5-1.254.5zm-30.84-.752c-1.253-.25-2.757-.25-4.01-.5-.5 0-2.256-1.756-1.755-2.007 2.507-1.254-2.006-1.003-2.006-.25-.752 0-3.26.5-1.254 1.754-.5.252-1.254.502-1.254-.25s-2.007-.5-2.508-.25l.25.25c-1.002.25-1.253 0-2.005 0-1.003 0-1.755.25-2.507.752-.5-.5-1.254-.5-2.006-.25.25 0 .25-.252.5-.252 0-.752-9.276 1.254-10.278 1.504 0 .5.752.25 0 1.003-.5.5-1.755 1.003-2.006 1.755 0 0 1.254-.25 1.504-.25 0 0 .25 0 0 0 .5.75 4.01-.502 4.262-1.004.5-1.003 2.507-1.755 3.51-2.006.5-.25 1.254-.25 1.755-.5-.25 0-.25.25-.5.25-.752.25-2.758.752-3.26 1.755 0 .25 2.508-.25 2.76-.25-.502.25-3.01 1.253-.753.75 2.006-.25 3.76-.75 5.766-.75-2.006.5-4.01.5-5.766 1.503.752.5 4.262-.5 4.513 0 .5.752 4.262-.25 5.265-.5 1.504-.502 3.51-1.255 5.265-1.004s4.262.752 5.516-.5c-.25 0-1.254-.252-1.254-.252.25-.25.5-.25.752-.25 0 0 .753 0 1.505-.25zm28.082 5.516c-.752-.25-.752-.5-1.504-.752-.752-.25-3.01-1.003-3.76-.5-.753-.753-2.257-.753-2.508.5-.25.752-1.254.752-1.254 1.254h2.256c-.25.752 3.26.25 3.26-.5 1.754.5 3.258.75 5.013.5h-.25c-.25-.502-.753-.502-1.253-.502zm8.775-3.26c-.25-.752-2.256-.752-2.758-.5-1.254.75 2.758 1.503 2.758.5.25.25.25.25 0 0 0-.25 0-.25 0 0zm.75-.25c0 .25 1.505.25 1.756.25-.5 0-1.754-.752-1.754-.25zm-8.02 19.305c-.502 0 0 0 0 0zm0-1.254c.5 0-.753-.75-1.004-.75-.25.75.503 1.002 1.004.75zm2.757-13.538c.5.25.752.25 1.254 0-.753-.25-.503-.25-1.254 0zm27.58 110.567l-3.762 23.316-14.04 10.78c0 .252-.25.502-.25.502-.753 1.003-2.257 2.006-2.508 3.26 0 .5 0 1.002.25 1.253s-.5.753-.75 1.004c-.252.5-.502 1.254-.502 1.755 0 .25 1.254-.252 1.504-.252 0 .752-2.256 4.513-3.01 4.01-.75-.5-1.503 0-.75.753.5.502-.753.753-.753 1.004-.5.5.502 1.254.252 1.755-.25.5.5.5.752.5 1.003.25-.5.5.25.752-.25.25-.75 0-1.002.5.25.502 4.513.753 4.764.753s.752 0 1.003.25c.25.502 1.503 0 2.005 0 1.254-.25 2.758-.5 3.76-1.002-.75 0-2.757.25-3.258-.5-.25-.502-1.504-1.004-1.003-1.756s1.755-.5 2.256-1.003c.5-.5.5-.752 1.254-1.003.5-.25 1.003-.25 1.254-.75 1.003-1.004-3.01-.502-1.003-1.756.752-.5 1.254-.5 2.256-.25 1.004 0 1.255-1.255 2.007-2.007-.25 0-.5 0-.5-.25.5 0 1.002.25 1.503 0 1.003-.502-.752-.252-.752-.252-.752.25-1.254-1.504-.25-1.504.75-.25 1.503.252 2.255 0s.752-.75 1.003-1.503c.25-.752 1.755-.752 2.507-.752 1.504-.25 4.262-1.254 5.014-2.758.25-.752-1.504-2.507-1.504-2.507 1.504-.752 3.51.5 5.014-.5 1.755-1.004 2.758-3.01 4.01-4.263l2.76-2.758c1.002-1.004 1.253-1.255 1.503-2.508 0-.5 0-1.755.5-1.755.753-.25 1.505-1.254 2.257-1.755.752-.752 1.755-.752 2.507-1.504.5-.5 1.003-.752 1.504-1.003-2.507-6.77-5.767-15.043-9.527-24.57l-10.78 8.274z"/><path fill="#6B6957" d="M428.474 153.188l-39.112 29.835-56.913-23.818s-10.28-4.262-14.292-1.504c-4.01 2.76-4.01 2.76-5.014 3.51-1.003.753-4.01 3.01 4.513 9.027 6.268 4.513 35.853 26.325 45.13 33.345l-21.813 16.547-23.317-2.508-13.037 10.03 25.072 14.54 7.27 28.08 13.29-10.028 3.76-23.317 21.812-16.547c4.262 10.78 17.3 45.13 19.807 52.4 3.51 9.778 6.52 7.522 7.523 6.77 1.003-.753 1.003-.753 4.764-3.762 3.76-3.26 2.507-14.29 2.507-14.29l-8.274-61.677 39.112-29.584c4.513-3.26 8.023-14.29 5.516-17.55s-13.79-2.758-18.304.502zm-181.518 55.408h4.262v20.308h2.256v-20.308h4.262v-1.755h-10.78v1.756zm21.562 8.023h-7.02v-9.78h-2.006v22.064h2.006v-10.78h7.02v10.78h2.006V206.84h-2.006v9.78zm8.022 1.754h4.764v-1.504h-4.764v-8.274h5.767v-1.755h-8.023v22.064h8.023V227.4h-5.767v-9.026zM11.032 181.52l-10.03 49.39h8.525l2.006-11.533h8.524l2.006 11.533h8.274l-10.03-49.39h-9.275zm1.504 32.09l3.26-20.308 3.258 20.308h-6.518zm48.388-11.282c1.003-2.006 1.504-4.513 1.504-7.522 0-2.507-.25-4.513-1.003-6.268s-1.755-3.01-3.01-4.01c-1.503-1.004-3.008-1.756-4.763-2.257s-4.01-.75-6.77-.75h-11.28v49.39h9.026v-22.565h4.01l6.018 22.565h9.026l-6.77-24.32c1.505-1.002 3.01-2.256 4.012-4.262zm-8.775-1.504c-1.004 1.254-3.01 1.755-5.767 1.755h-2.256v-14.793h2.758c2.507 0 4.262.5 5.265 1.755s1.504 3.01 1.504 5.766c.25 2.507-.502 4.513-1.505 5.516zm30.336-19.807c-2.507 0-4.764.25-6.77 1.003-1.754.752-3.258 1.755-4.512 3.26-1.003 1.503-2.006 3.008-2.507 5.013-.5 2.006-.752 4.262-.752 6.77v18.3c0 5.266 1.003 9.278 3.26 12.035 2.255 2.758 5.765 4.262 11.03 4.262 2.508 0 4.765-.25 6.52-1.003 1.755-.752 3.26-1.755 4.513-3.26 1.003-1.503 2.006-3.258 2.507-5.013.5-2.006.752-4.262.752-6.77v-18.3c0-5.266-1.003-9.278-3.26-12.035-2.006-3.01-5.767-4.263-10.78-4.263zM87.5 217.37v2.508c0 .752-.25 1.254-.5 2.006-.252.752-.502 1.254-.753 1.755s-.752.75-1.504 1.002c-.5.25-1.254.5-2.256.5-.752 0-1.504-.25-2.256-.5-.5-.25-1.002-.5-1.503-1.003-.25-.502-.752-1.004-.752-1.756-.25-.752-.25-1.254-.5-2.006v-24.82c0-1.255 0-2.257.25-3.01 0-.752.25-1.504.752-2.256.25-.752.752-1.254 1.504-1.504.753-.25 1.505-.5 2.76-.5 1.002 0 2.005.25 2.757.5.752.25 1.254.752 1.504 1.504l.753 2.256c0 .752.25 1.755.25 3.01v22.313H87.5zm34.35-2.255v3.01c0 .75-.252 1.754-.502 2.506-.25 1.004-.5 1.505-.752 2.257-.25.5-.752 1.003-1.504 1.254s-1.504.502-2.256.502c-1.003 0-1.755-.25-2.256-.5-.752-.252-1.254-.753-1.504-1.255-.25-.5-.752-1.254-.752-2.256-.25-1.002-.25-1.754-.5-2.506V181.52h-8.776v32.843c0 2.256 0 4.262.25 6.017s.753 3.26 1.255 4.764c.752 1.504 1.504 2.758 2.507 3.51 1.003 1.003 2.256 1.755 4.01 2.256 1.505.5 3.51.752 5.767.752s4.01-.25 5.766-.752c1.504-.5 3.01-1.254 4.01-2.256s1.756-2.006 2.508-3.51c.502-1.504 1.004-3.01 1.255-4.764.25-1.755.25-3.76.25-6.017V181.52h-8.774v33.595zm34.095-5.767l-12.034-27.83h-6.267v49.39h7.772v-29.333l12.034 29.334h6.016v-49.39h-7.52v27.828zm38.61-24.07c-1.254-1.253-2.758-2.255-4.764-2.757-2.005-.5-4.512-1.002-7.52-1.002h-11.534v49.39h11.784c2.758 0 5.265-.25 7.27-1.002 2.007-.752 3.51-1.755 4.765-3.01s2.006-3.008 2.507-5.013c.5-2.006.752-4.262.752-7.27V196.81c0-2.757-.25-5.013-.752-7.02-.5-1.753-1.252-3.257-2.507-4.51zm-5.765 29.335v2.758c0 .502 0 1.255-.25 2.257 0 .752-.252 1.504-.252 2.006-.25.5-.5.752-.752 1.254-.25.5-.752.752-1.254 1.003-.5.25-1.003.5-1.755.5-.752.252-1.504.252-2.256.252h-2.506v-36.605h2.507c1.004 0 1.756 0 2.508.25s1.254.252 1.755.753c.5.25.752.752 1.254 1.003.25.5.5 1.003.752 1.755.25.752.25 1.504.25 2.256v20.56zm286.568-1.253l-5.265-31.84h-6.017l-5.265 31.84-4.26-31.84h-7.523l7.02 49.39h7.522l5.515-33.095 5.516 33.095h7.272l7.02-49.39h-7.522l-4.012 31.84zm30.337-32.343c-2.507 0-4.764.25-6.77 1.003-1.754.752-3.258 1.755-4.512 3.26-1.003 1.503-2.006 3.008-2.507 5.013-.5 2.006-.752 4.262-.752 6.77v18.3c0 5.266 1.003 9.278 3.26 12.035 2.255 2.758 5.766 4.262 11.03 4.262 2.508 0 4.765-.25 6.52-1.003 1.755-.752 3.26-1.755 4.513-3.26 1.003-1.503 2.006-3.258 2.507-5.013.5-2.006.752-4.262.752-6.77v-18.3c0-5.266-1.003-9.278-3.26-12.035-2.255-3.01-5.765-4.263-10.78-4.263zm5.016 36.354v2.508c0 .752-.25 1.254-.5 2.006-.25.752-.5 1.254-.752 1.755s-.752.75-1.504 1.002c-.5.25-1.254.5-2.256.5-.752 0-1.504-.25-2.256-.5-.5-.25-1.003-.5-1.504-1.003-.25-.502-.752-1.004-.752-1.756-.25-.752-.25-1.254-.5-2.006v-24.82c0-1.255 0-2.257.25-3.01 0-.752.25-1.504.752-2.256.25-.752.752-1.254 1.504-1.504s1.504-.5 2.758-.5c1.003 0 2.006.25 2.758.5.752.25 1.254.752 1.504 1.504l.752 2.256c0 .752.25 1.755.25 3.01v22.313h-.503zm41.368-15.042c1.003-2.006 1.504-4.513 1.504-7.522 0-2.507-.25-4.513-1.003-6.268s-1.756-3.01-3.01-4.01c-1.504-1.004-3.01-1.756-4.764-2.257s-4.01-.75-6.77-.75h-11.28v49.39h9.025v-22.565h4.013l6.017 22.565h9.026l-6.77-24.32c1.505-1.002 3.01-2.256 4.012-4.262zm-8.774-1.504c-1.003 1.254-3.01 1.755-5.767 1.755h-2.256v-14.793h2.76c2.506 0 4.26.5 5.264 1.755s1.504 3.01 1.504 5.767c.25 2.505-.5 4.51-1.504 5.514zm25.824-19.305h-8.775v49.39h20.81v-6.268H569.13l-.002-43.123zm40.364 3.76c-1.254-1.255-2.758-2.257-4.764-2.76-2.006-.5-4.513-1.002-7.52-1.002h-11.534v49.39h11.784c2.758 0 5.265-.25 7.27-1.002 2.007-.752 3.51-1.755 4.765-3.01 1.254-1.253 2.006-3.008 2.507-5.013.5-2.006.752-4.262.752-7.27V196.81c0-2.757-.25-5.013-.752-7.02-.252-1.753-1.253-3.257-2.508-4.51zm-5.765 29.333v2.758c0 .502 0 1.255-.25 2.257 0 .752-.252 1.504-.252 2.006-.25.5-.5.752-.752 1.254-.25.5-.752.752-1.254 1.003-.502.25-1.004.5-1.756.5-.752.252-1.504.252-2.256.252H594.7v-36.605h2.508c1.003 0 1.755 0 2.507.25s1.254.252 1.755.753c.5.25.752.752 1.254 1.003.25.5.5 1.003.752 1.755.25.752.25 1.504.25 2.256v20.56zm-482.63-105.3c-1.255-.753-2.257-1.505-3.26-2.257-4.764 7.27-9.277 14.792-13.54 22.815 1.255.753 2.508 1.255 3.51 2.007 1.505-2.758 3.01-5.766 4.514-8.274 5.517 3.26 11.033 6.52 16.548 9.527 1.003-1.755 2.006-3.51 3.26-5.265-5.517-3.26-10.782-6.77-16.298-10.03 1.756-3.258 3.51-6.016 5.266-8.523zm9.777-20.31c2.507 2.007 5.014 4.263 7.772 6.27-2.256 3.008-4.764 6.016-7.02 9.025-2.758-2.006-5.265-4.01-8.023-6.017-1.254 1.756-2.507 3.51-3.76 5.517 6.267 4.513 12.535 9.026 19.053 13.288 1.254-1.755 2.256-3.26 3.51-5.014-2.507-1.754-5.014-3.76-7.27-5.515 2.255-3.01 4.512-6.017 6.768-8.775 2.256 2.006 4.764 4.01 7.02 5.767l3.76-4.513c-5.765-5.014-11.783-10.28-17.55-15.294-1.502 1.754-2.755 3.51-4.26 5.264zM158.202 87c-.752.752-1.755 2.006-3.01.752l-2.506-2.507c2.758-3.26 5.766-6.268 8.775-9.277-.75-1.003-1.754-1.755-2.506-2.758-3.26 2.758-6.268 5.767-9.277 9.026l-2.507-2.507c-.5-.5-1.254-1.254.25-3.01 3.01-3.258 6.018-6.267 9.278-9.025-.752-1.003-1.755-1.755-2.507-2.758-2.255 1.755-10.78 10.03-10.78 10.03-2.256 2.255-4.513 6.016-1.504 8.774 3.51 3.01 6.77 6.268 10.28 9.277 3.258 2.758 6.518 0 8.273-2.006 0 0 7.27-7.773 8.774-9.528-.752-1.003-1.755-1.755-2.507-2.758-3.01 2.76-5.767 5.517-8.525 8.274zm27.83-34.348c2.256-2.006 2.006-4.764.752-6.52-1.755-2.757-5.516-4.01-11.032 0-3.51 2.76-7.27 5.517-10.78 8.275 5.013 6.017 9.777 12.285 14.79 18.302l9.78-7.52c5.013-3.51 5.765-7.02 3.258-10.782-1.503-2.256-4.512-2.758-6.768-1.755zm-13.54 1.003c1.756-1.254 3.51-2.758 5.266-4.01 1.254-1.004 3.01-1.505 4.262.25 1.003 1.504.5 2.758-1.254 4.01-1.755 1.255-3.51 2.508-5.265 4.012-1-1.504-2.005-2.758-3.007-4.262zm14.543 8.524c-1.755 1.254-3.51 2.507-5.265 4.01-1.254-1.754-2.507-3.51-4.01-5.013 1.754-1.254 3.51-2.758 5.264-4.01 2.006-1.505 3.76-.753 4.764.75 1.502 1.756.75 3.26-.753 4.263zm17.048-11.533c-1.003.5-2.006 1.254-3.01-.25-.75-1.004-1.253-2.007-2.005-3.26 3.51-2.256 7.02-4.262 10.53-6.268-.5-1.003-1.254-2.256-1.755-3.26-3.76 1.756-7.27 3.762-11.032 6.018-.75-1.003-1.253-2.006-2.005-3.26-.5-.75-1.003-1.503 1.003-2.757 3.51-2.256 7.27-4.262 10.78-6.017-.5-1.003-1.253-2.256-1.754-3.26-2.758 1.004-12.536 6.52-12.536 6.52-2.758 1.504-5.516 4.513-3.26 7.772 2.508 4.01 5.015 8.023 7.522 11.784 2.256 3.76 6.017 1.755 8.274.5 0 0 8.524-5.264 10.53-6.518-.5-1.003-1.003-2.256-1.755-3.26-3.008 2.006-6.268 3.76-9.527 5.516zm30.087-18.302c-1.003-2.507-3.51-5.516-9.026-3.01-1.504.753-3.01 1.255-4.513 2.007-2.255 1.002-3.258 1.002-4.01-.753-.25-.25-.25-.752-.5-1.003-1.004-2.006.5-2.758 2.757-3.76 1.504-.753 7.27-3.01 9.778-3.762-.5-1.003-.752-2.256-1.254-3.26-2.506.502-7.52 2.007-11.783 4.012-4.513 2.006-7.27 5.014-5.014 9.277.25.502.5 1.255 1.003 1.756 1.003 1.755 3.26 5.265 9.778 2.256 1.504-.752 2.758-1.254 4.262-2.006 2.006-1.003 2.758-.25 3.26 1.003.25.5.25.75.5 1.253.752 1.755-1.003 2.758-2.507 3.26-3.51 1.503-8.024 3.51-9.528 4.01.5 1.003 1.003 2.006 1.504 3.26 3.01-.753 6.017-1.756 10.53-3.762 3.51-1.503 7.02-4.01 5.014-9.025 0-1-.25-1.502-.25-1.753zm17.8-23.066c-7.52 2.006-15.042 4.513-22.313 7.52.5 1.255 1.003 2.508 1.504 4.012 2.508-1.003 5.266-2.006 8.024-3.01 2.006 6.27 4.262 12.286 6.268 18.554 1.755-.5 3.51-1.254 5.265-1.755-2.006-6.268-4.01-12.536-5.766-18.804 2.76-1.003 5.517-1.755 8.275-2.507-.502-1.252-1.004-2.756-1.254-4.01zm14.04-3.51c1.504 7.772 3.26 15.544 4.764 23.317 1.755-.5 3.51-.752 5.265-1.003-1.505-7.772-2.76-15.795-4.263-23.567-2.005.5-4.01.752-5.767 1.253zm25.072 5.767c-1.504.25-3.26.5-4.764.5-2.256.252-3.26 0-3.51-1.754 0-.502 0-.753-.25-1.255-.252-2.256 1.253-2.507 3.76-2.758 1.504-.25 7.522-.752 10.28-.752 0-1.254-.252-2.507-.252-3.51-2.507-.25-7.772-.25-12.285.5-4.763.753-8.273 2.76-7.52 7.522 0 .752.25 1.254.25 2.006.25 2.006 1.504 6.017 8.524 5.014 1.504-.25 3.01-.5 4.513-.5 2.256-.252 2.758.5 3.01 2.005 0 .5 0 .752.25 1.254.25 1.755-1.755 2.256-3.26 2.507-3.76.5-8.523 1.003-10.028 1.003.25 1.254.5 2.256.5 3.51 3.01.25 6.268 0 11.032-.5 3.76-.502 7.772-1.756 7.27-7.272V17.55c.002-3.01-1.503-6.77-7.52-6.017zm32.342 0c-1.755-4.01-3.76-7.772-5.766-11.533h-6.52c3.26 5.516 6.52 11.032 9.278 16.547 0 2.507 0 5.014-.25 7.522h5.515c0-2.508.252-5.015.252-7.523 3.51-5.516 7.27-10.78 11.282-16.046-2.256-.25-4.26-.25-6.52-.5-2.505 4.01-5.013 7.772-7.27 11.533zm14.792-5.767c-.5 4.764-1.003 9.527-1.254 14.29-.5 4.514 3.51 5.266 6.017 5.517 0 0 10.028 1.003 12.033 1.003l.752-3.76c-3.76-.502-7.27-1.004-11.032-1.505-1.254-.25-2.507-.25-2.256-2.005.25-1.254.25-2.507.5-3.76 4.012.25 8.024.75 12.035 1.253l.752-3.76c-4.012-.753-8.023-1.505-12.034-2.007.25-1.253.25-2.506.5-3.76 0-1.003.252-1.755 2.508-1.504 4.012.5 8.023 1.003 12.034 1.755l.752-3.76c-2.758-.752-13.79-2.507-13.79-2.507-3.005-.25-7.015.25-7.518 4.513zm22.817 2.006l8.274 1.504-4.513 19.556c1.755.5 3.51.752 5.265 1.254 1.754-6.52 3.258-13.037 5.013-19.305l8.274 2.257c.5-1.254.752-2.758 1.254-4.01-7.52-2.007-15.293-3.762-22.814-5.015-.252 1.002-.503 2.506-.753 3.76zm34.85 8.775c2.757 1.003 5.264 1.755 8.022 2.758-2.507 6.268-5.014 12.536-7.27 18.804 1.754.75 3.51 1.253 5.013 2.005 2.507-6.268 5.265-12.285 7.772-18.553 2.758 1.003 5.265 2.256 8.023 3.51.5-1.254 1.254-2.507 1.755-4.01-7.02-3.01-14.542-6.018-21.812-8.525-.502 1.503-1.002 2.756-1.504 4.01zm37.104 11.032c-6.52-3.51-12.034-4.765-17.05 5.765-4.763 10.03-1.253 12.787 5.266 16.046 6.268 3.26 10.78 4.514 16.547-4.763 6.018-9.778 2.008-13.538-4.763-17.048zm-.5 14.04c-3.26 5.765-5.265 6.016-9.527 4.01-4.513-2.256-5.014-3.76-2.006-9.778 3.51-7.02 5.516-6.52 9.778-4.262 4.513 2.006 5.765 3.51 1.755 10.03zm33.094 6.267c-7.27-5.265-11.783-2.507-16.296 3.76-4.513 6.52-5.014 11.785 1.003 16.298 3.26 2.507 6.268 4.513 8.775 5.766.752-1.002 1.504-2.005 2.507-2.757 0 0-3.762-2.758-7.272-5.516-3.76-2.758-3.01-5.516.25-10.03 4.514-6.016 6.27-5.765 10.03-3.008 3.51 2.506 7.27 6.518 7.27 6.518.753-1.003 1.505-2.006 2.508-2.758-2.757-3.008-5.265-5.516-8.775-8.273zm20.56 17.8c-5.517-5.265-10.782-8.023-18.303.752-7.27 8.523-4.513 12.284 1.003 17.298 5.265 5.014 9.527 7.522 17.55.25 8.524-8.02 5.516-12.785-.25-18.3zm-4.01 13.79c-4.765 4.764-6.77 4.513-10.28 1.003-3.76-3.51-4.01-5.265.5-10.28 5.266-5.765 7.272-4.763 10.782-1.503 3.76 3.51 4.513 5.515-1.003 10.78zm13.788 22.063l9.778-15.043-6.017-6.77c-6.77 4.765-13.54 9.528-20.31 14.543 1.255 1.504 2.508 2.758 3.762 4.262 4.513-3.26 9.277-6.268 13.79-9.527-3.01 5.014-6.018 10.03-9.278 14.792 1.504 1.755 2.758 3.51 4.01 5.265 5.517-2.006 10.782-4.01 16.548-5.767-4.01 3.76-8.023 7.772-12.285 11.533 1.254 1.504 2.256 3.26 3.51 5.014 6.268-5.516 12.536-11.032 18.804-16.798-1.754-2.507-3.51-5.014-5.515-7.522-5.766 2.007-11.28 4.012-16.797 6.018zm21.813 10.28c-4.26 2.757-8.273 5.515-12.535 8.273-3.76 2.507-1.755 6.52-.25 9.026 0 0 6.016 9.526 7.27 11.783 1.254-.5 2.256-1.254 3.51-1.755-2.006-3.76-4.012-7.52-6.268-11.032-.752-1.003-1.504-2.256 0-3.26 1.003-.75 2.256-1.253 3.26-2.005 2.506 3.762 4.763 7.773 7.02 11.785 1.253-.5 2.255-1.254 3.51-1.755-2.007-4.262-4.263-8.274-6.77-12.285 1.003-.752 2.256-1.254 3.26-2.006.75-.502 1.754-1.004 3.008 1.002 2.507 4.01 4.764 8.023 7.02 12.285 1.254-.5 2.256-1.254 3.51-1.755-1.254-3.01-7.27-14.04-7.27-14.04-1.505-3.51-4.515-6.77-8.274-4.263zM108.81 308.882c2.76 4.01 5.767 7.772 8.776 11.533.5-.5 1.003-.752 1.504-1.254-2.507-3.01-4.764-6.017-7.02-9.026 1.755-1.254 3.51-2.758 5.265-4.01 1.755 2.506 3.51 4.763 5.516 7.02.502-.502 1.004-.753 1.505-1.255-1.755-2.255-3.51-4.512-5.516-7.02 1.503-1.253 3.258-2.506 4.763-3.51 2.256 3.01 4.262 5.768 6.52 8.525.5-.5 1.002-.752 1.503-1.254l-8.274-10.53c-4.512 3.512-9.526 7.022-14.54 10.783zm25.323 13.79c.752-3.01 1.504-6.018 2.256-8.776-.753-.752-1.255-1.504-2.007-2.256-1.003 3.51-1.755 7.272-2.758 11.033-3.76.5-7.772.752-11.533 1.003.752.752 1.254 1.755 2.006 2.507 3.26-.25 6.268-.5 9.527-1.003-.752 3.01-1.254 6.268-2.006 9.276l2.255 2.256c.752-3.76 1.504-7.772 2.256-11.533 3.762-.502 7.522-1.004 11.033-1.505-.752-.752-1.254-1.504-2.006-2.256-3.007.5-6.015.75-9.024 1.252zm17.05 6.77l-3.01-3.01-13.288 13.288 2.006 2.007c1.505-1.504 3.01-3.26 4.514-4.764l1.254 1.254c2.006 2.006 4.01 4.01 6.77 4.262 2.255.25 3.76-.502 4.763-1.756 1.004-1.003 1.756-2.758 1.255-5.014-.502-2.508-2.508-4.263-4.263-6.268zm1.002 9.526c-1.003 1.002-2.006 1.253-3.26 1.253-1.754-.25-3.008-1.504-5.013-3.26l-1.254-1.253 5.766-5.766c.25.25.752.752 1.254 1.003 1.755 1.755 3.01 3.01 3.51 4.764.25 1.002 0 2.256-1.003 3.26zm9.277.25c-4.01 4.764-8.274 9.527-12.285 14.29 3.26 2.76 6.52 5.768 10.03 8.275.5-.5.75-1.003 1.253-1.504-2.758-2.005-5.265-4.26-7.772-6.518 3.51-4.262 7.27-8.524 10.78-12.787-.753-.753-1.254-1.254-2.006-1.755zm18.05 14.04c-2.256-1.755-4.764-2.256-7.02-1.755-2.006.5-3.01 2.006-5.014 4.513-2.006 2.758-3.01 4.012-3.01 6.268s1.505 4.513 4.012 6.52c2.507 1.754 5.265 2.506 7.27 1.754s3.01-2.256 4.765-5.014c1.755-2.758 2.758-4.262 2.758-6.268 0-2.257-1.503-4.263-3.76-6.018zm-1.252 10.78c-1.504 2.508-2.507 3.762-4.01 4.263-1.255.5-3.26 0-4.765-1.254-1.755-1.255-2.758-2.76-2.758-4.263s1.003-3.01 2.758-5.265c1.755-2.256 2.758-3.76 4.262-4.01 1.254-.502 3.01 0 4.513 1.253 1.504 1.003 2.507 2.507 2.507 4.01.25 1.505-.753 3.01-2.507 5.266zm15.293-1.253c-1.254-.752-2.507-1.504-3.76-2.507-3.26 5.265-6.77 10.53-10.03 15.795l2.256 1.504c1.253-2.007 2.506-4.012 3.76-6.27.5.252 1.254.753 1.755 1.004 1.504 1.003 2.256 1.254 2.758 1.755-.25 2.757-.25 5.515-.25 8.273.75.5 1.754 1.003 2.506 1.504 0-3.01.25-6.017.25-9.026 2.256.502 4.513-.5 5.766-2.506.752-1.504 1.003-3.26.25-4.764-1-2.005-3.006-3.26-5.263-4.763zm2.758 8.524c-.5 1.004-1.503 1.756-2.506 1.756-1.755.25-3.01-.752-5.265-2.006-.502-.25-1.255-.752-1.756-1.003 1.254-2.256 2.758-4.262 4.01-6.52.502.252 1.255.753 1.756 1.004 2.256 1.255 3.51 2.257 4.01 3.762.504 1.004.252 2.007-.25 3.01zm0 15.044c4.012 2.256 7.773 4.262 11.785 6.017.25-.5.5-1.253.752-1.754-3.26-1.504-6.268-3.26-9.527-4.764l3.01-6.017c2.506 1.254 4.763 2.507 7.27 3.76.25-.5.5-1.253.752-1.754-2.507-1.253-4.764-2.506-7.27-3.76 1.002-1.755 2.005-3.76 2.757-5.516l9.025 4.513c.25-.5.5-1.254.752-1.755-3.76-1.755-7.27-3.76-11.032-5.766-2.256 5.767-5.265 11.283-8.274 16.798zm30.088-4.262c2.006.752 3.76 1.504 5.766 2.507l-6.017 15.794c.752.25 1.755.752 2.507 1.003 2.006-5.265 4.01-10.53 6.017-16.046 2.007.753 4.012 1.505 5.767 2.257.25-.752.5-1.254.752-2.006-4.765-1.754-9.278-3.51-13.79-5.515-.502.754-.752 1.255-1.002 2.007zm22.312 6.017c-1.504-.502-2.758-1.004-4.262-1.255l-6.017 18.052c.753.25 1.756.5 2.508.752.752-2.257 1.504-4.765 2.256-7.02.752.25 1.254.5 2.006.75 1.755.502 2.256.753 3.01 1.004l1.503 8.274c1.003.25 1.755.5 2.758.752-.75-3.01-1.253-6.017-1.754-8.775 2.256-.25 4.262-1.504 5.014-4.01.5-1.756 0-3.51-.752-4.765-1.503-2.256-3.76-2.758-6.268-3.76zm4.765 7.772c-.25 1.003-1.003 2.006-2.006 2.256-1.505.5-3.01.25-5.517-.752-.752-.25-1.254-.5-2.006-.5.752-2.508 1.504-5.015 2.256-7.272.5.25 1.254.5 1.755.5 2.256.753 3.76 1.255 4.764 2.508 1.004 1.003 1.004 2.006.753 3.26zm13.538-2.507c-3.76 5.767-7.772 11.282-12.034 16.547 1.002.25 1.754.5 2.757.752 1.003-1.254 2.006-2.758 3.01-4.01 2.757.75 5.766 1.253 8.523 2.005.25 1.754.5 3.258 1.003 5.013 1.003.25 1.755.25 2.758.5-1.503-6.768-2.757-13.538-3.76-20.307-1.003-.25-1.504-.5-2.257-.5zm-5.264 11.282c2.005-2.758 3.76-5.516 5.515-8.274.5 3.26 1.003 6.52 1.504 10.03-2.258-.503-4.515-1.004-7.02-1.756zm21.06-8.274c-1.255-.25-2.257-.5-3.51-.5-1.004 6.267-2.257 12.535-3.26 18.803l3.76.752c3.01.5 6.018 1.003 8.776-.752 2.507-1.504 2.758-4.01 3.26-7.27.5-3.26.75-5.517-1.255-7.773-2.256-2.257-5.014-2.758-7.77-3.26zm6.517 10.78c-.5 3.01-.5 4.765-2.507 6.018-1.755 1.004-4.01.753-6.77.252-.5 0-.75-.25-1.253-.25.752-5.015 1.755-10.03 2.507-15.044.5 0 .752.25 1.254.25 2.507.502 4.513.753 6.017 2.257 1.253 1.755 1.003 3.51.752 6.52zm6.268 10.28c.752 0 1.755.25 2.507.25.5-6.267 1.254-12.786 1.755-19.054-.752 0-1.504-.252-2.507-.252-.5 6.52-1.254 12.787-1.755 19.055zm7.772-16.296c2.006.25 4.01.25 6.268.5l-.752 17.3c.752 0 1.755 0 2.507.25l.752-17.298c2.006 0 4.262.25 6.268.25v-2.006c-5.014 0-9.778-.5-14.792-.752 0 .25-.25 1.003-.25 1.755zm18.804-1.254v19.305h2.508c0-6.52-.25-12.787-.25-19.305h-2.257zm20.81 2.006c-1.254-1.756-3.76-2.508-6.52-2.508-2.757.25-5.013 1.254-6.267 3.01-1.254 1.754-1.003 3.51-1.003 7.02s.25 5.264 1.504 7.02c1.254 1.754 3.76 2.757 6.77 2.757 3.008-.252 5.264-1.505 6.518-3.26 1.003-1.755 1.003-3.51.752-7.02-.25-3.51-.5-5.517-1.754-7.02zm-1.002 13.036c-.752 1.254-2.256 2.006-4.262 2.006s-3.76-.5-4.513-1.755c-1.003-1.254-1.003-3.01-1.254-6.017 0-3.01-.252-4.764.75-6.017.753-1.254 2.257-2.006 4.012-2.006 1.755 0 3.51.5 4.262 1.504 1.003 1.255 1.003 3.01 1.254 5.767.25 3.51.5 5.266-.25 6.52zm18.553-17.55l2.257 15.043c-4.262-4.514-8.274-9.027-12.034-13.79-.752 0-1.504.25-2.006.25.752 6.52 1.504 12.788 2.006 19.306.752 0 1.755-.25 2.507-.25-.5-5.015-1.254-10.03-1.755-15.044 4.012 4.764 8.023 9.276 12.285 13.79.752 0 1.504-.252 2.256-.252-1.003-6.268-2.256-12.787-3.26-19.055-.75-.25-1.503-.25-2.255 0zm20.56-4.01c-.752 6.768-2.006 13.788-3.26 20.558 1.004-.25 1.756-.25 2.76-.5.25-1.756.5-3.51.75-5.015 2.76-.502 5.767-1.255 8.525-2.007 1.003 1.504 2.006 2.758 3.01 4.262 1.002-.25 1.754-.5 2.757-.752-4.262-5.516-8.524-11.282-12.536-16.798-.754 0-1.255 0-2.006.25zm.5 12.785c.502-3.258.753-6.768 1.255-10.028 2.006 2.758 3.76 5.766 5.766 8.524-2.256.502-4.512 1.004-7.02 1.505zm23.066-19.555c1.755 4.764 3.51 9.527 5.014 14.29-5.014-3.76-9.778-7.52-14.542-11.28-.752.25-1.254.5-2.006.5 1.755 6.268 3.76 12.536 5.516 18.804.752-.252 1.755-.502 2.507-.753-1.504-4.764-3.01-9.778-4.513-14.542 4.764 4.01 9.527 7.772 14.792 11.282l2.256-.752c-2.256-6.017-4.513-12.285-6.77-18.302l-2.254.752zm18.554-5.014c-3.01-1.002-5.516.252-8.274 1.255-1.003.5-2.256.752-3.26 1.254 2.257 6.016 4.765 12.284 7.02 18.3 1.255-.5 2.508-1.002 3.762-1.253 3.01-1.254 5.766-2.256 7.27-5.014 1.505-2.758.252-5.014-1.002-8.023-1.505-3.26-2.507-5.516-5.516-6.52zm4.01 13.79c-1.002 2.006-3.008 2.758-5.766 3.76-.5.252-.752.252-1.254.502-2.006-4.764-3.76-9.527-5.767-14.29.25-.252.752-.252 1.003-.502 2.507-1.003 4.513-1.755 6.52-1.003s2.757 2.256 4.01 5.265c1.507 2.508 2.258 4.263 1.255 6.268zm24.07-9.778c-1.755 1.003-3.26 1.003-4.262.5-1.755-.75-2.507-2.005-4.01-5.013s-2.257-4.514-2.007-6.27c.252-1.253 1.255-2.255 2.76-3.008 1.754-1.003 3.258-1.003 4.512-.752.25-.752.25-1.504.5-2.256-1.754-.25-4.01 0-6.016 1.254-2.256 1.254-3.76 3.01-4.01 4.764-.753 2.507.5 4.513 2.005 7.522 1.756 3.26 2.508 5.014 5.015 6.017 1.755.753 4.262.502 6.77-.75s4.26-3.51 4.763-5.266c-.752 0-1.504-.25-2.256-.5-.754 1.25-1.756 2.755-3.762 3.758zm12.286-28.33c-.752.5-1.504 1.002-2.006 1.503 2.256 3.26 4.262 6.268 6.52 9.527 1.253 2.006 2.255 3.26 2.005 5.014-.25 1.254-1.254 2.256-2.256 3.01-1.255.75-2.508 1.002-3.762 1.002-1.755-.25-2.507-1.755-3.76-3.76l-6.018-9.78c-.752.502-1.504.753-2.256 1.255l6.017 9.778c1.505 2.257 2.508 4.013 5.015 4.514 1.755.25 3.76-.25 5.766-1.254 2.007-1.254 3.26-3.01 3.762-4.764.5-2.507-.752-4.262-2.256-6.52-2.257-3.257-4.514-6.265-6.77-9.525zm16.546 10.028l-10.53-14.29c-.752.5-1.254 1.002-2.006 1.503 3.76 5.265 7.772 10.78 11.533 16.046 3.51-2.508 7.02-5.015 10.278-7.773-.5-.5-.752-1.003-1.254-1.755-2.506 2.257-5.264 4.262-8.022 6.268zm8.775-26.827l-1.504-1.504c-4.012 3.51-7.772 6.768-12.034 9.777.5.5.75 1.003 1.253 1.755 1.755-1.254 3.51-2.758 5.014-4.01 3.76 4.512 7.522 9.276 11.282 13.788.75-.5 1.503-1.254 2.005-1.755-3.76-4.513-7.522-9.026-11.533-13.54 2.256-1.754 3.76-3.258 5.515-4.512zm20.06-6.017c-2.76-2.758-5.517-5.516-8.275-8.023l-1.755 1.755 8.274 8.274c1.756 1.755 3.01 3.01 2.76 4.513 0 1.254-.753 2.507-1.756 3.51s-2.256 1.755-3.51 1.755c-1.755 0-2.758-1.254-4.513-3.01-2.506-2.757-5.264-5.766-7.77-8.523-.753.5-1.255 1.254-2.007 1.755 2.507 2.758 5.265 5.766 7.772 8.524 1.755 2.006 3.26 3.51 5.766 3.51 1.756 0 3.762-1.003 5.517-2.507s2.758-3.51 2.758-5.517c.25-2.758-1.254-4.262-3.26-6.017zm9.525-18.553c-1.504-1.254-3.26-1.504-4.764-1.254-2.758.5-4.262 2.506-6.268 4.512-1.003 1.254-2.006 2.256-3.26 3.51 4.765 4.513 9.78 9.277 14.543 13.79l2.006-2.007c-2.007-1.755-3.762-3.51-5.767-5.265l1.504-1.504c1.254-1.254 1.755-2.006 2.256-2.758 2.758.752 5.767 1.504 8.524 2.006.752-.752 1.254-1.504 2.006-2.256-3.01-.752-6.268-1.254-9.277-2.006 1.004-2.507.5-5.265-1.504-6.77zm-3.51 10.03l-1.504 1.503c-2.006-1.755-4.01-3.76-6.017-5.516l1.505-1.504c1.755-2.006 3.01-3.26 4.513-3.51 1.254-.25 2.256.25 3.26 1.003.75.75 1.503 1.754 1.253 3.008 0 1.754-1 3.008-3.008 5.014zm17.8-8.776c-1.754-1.504-3.76-3.01-5.515-4.513 1.755-2.256 3.76-4.764 5.516-7.02-.5-.5-1.254-.752-1.755-1.254-1.755 2.507-3.51 4.764-5.265 7.02-1.755-1.254-3.51-2.758-5.265-4.01 2.256-2.76 4.513-5.767 6.52-8.525-.502-.5-1.255-.752-1.756-1.254-2.758 3.762-5.265 7.272-8.023 10.53 5.264 4.263 10.278 8.525 15.543 12.537 3.01-3.76 6.017-7.522 8.775-11.533-.5-.5-1.254-.752-1.755-1.254-2.507 3.26-4.764 6.268-7.02 9.277z"/></svg>