<svg xmlns="http://www.w3.org/2000/svg" xmlns:xlink="http://www.w3.org/1999/xlink" viewBox="0 0 770.73 494"><defs><style>.cls-1{fill:none;}.cls-2{opacity:0.1;fill:url(#linear-gradient);}.cls-3{fill:url(#linear-gradient-2);}.cls-4{fill:#fff;}.cls-5{fill:#87a32f;}.cls-10,.cls-12,.cls-5,.cls-8{opacity:0.3;}.cls-6{fill:#a4c639;}.cls-7{clip-path:url(#clip-path);}.cls-8{fill:#3d6fc2;}.cls-9{fill:#4e8ef7;}.cls-10,.cls-11{fill:#3c5afd;}.cls-12{fill:#288696;}.cls-13{fill:#2e98ab;}</style><linearGradient id="linear-gradient" x1="520.87" y1="494" x2="520.87" y2="261.29" gradientUnits="userSpaceOnUse"><stop offset="0" stop-color="#d1742e"/><stop offset="1" stop-color="#c71919"/></linearGradient><linearGradient id="linear-gradient-2" x1="520.87" y1="488.71" x2="520.87" y2="256" gradientUnits="userSpaceOnUse"><stop offset="0" stop-color="#f88a36"/><stop offset="1" stop-color="#fd2020"/></linearGradient><clipPath id="clip-path"><rect class="cls-1" x="180.76" y="293.89" width="133.1" height="156.92"/></clipPath></defs><title>mobilize</title><g id="Layer_2" data-name="Layer 2"><g id="Layer_1-2" data-name="Layer 1"><rect class="cls-2" x="404.52" y="261.29" width="232.71" height="232.71" rx="44.48" ry="44.48"/><rect class="cls-3" x="404.52" y="256" width="232.71" height="232.71" rx="44.48" ry="44.48"/><path class="cls-4" d="M557.72,428.29c-17.07,9.86-40.54,10.87-64.15.75a100.32,100.32,0,0,1-45.15-38.64,76.07,76.07,0,0,0,16.68,10.17c24.38,11.43,48.76,10.65,65.92,0l0,0c-24.4-18.71-45.15-43.11-60.6-63-3.26-3.25-5.7-7.32-8.14-11,18.71,17.08,48.4,38.64,59,44.74-22.37-23.59-42.3-52.88-41.49-52.06,35.39,35.79,68.33,56.13,68.33,56.13,1.09.61,1.93,1.13,2.61,1.58a53.52,53.52,0,0,0,1.87-5.65c5.69-20.74-.81-44.34-15-63.86,32.94,19.93,52.47,57.35,44.33,88.67q-.32,1.27-.69,2.5l.29.35c16.27,20.34,11.79,41.89,9.76,37.83-8.82-17.27-25.16-12-33.47-8.48Z"/><rect class="cls-5" x="130.95" y="261.29" width="232.71" height="232.71" rx="44.48" ry="44.48"/><rect class="cls-6" x="130.95" y="256" width="232.71" height="232.71" rx="44.48" ry="44.48"/><g class="cls-7"><path class="cls-4" d="M190.37,344.23a9.28,9.28,0,0,0-6.81,2.8,9.17,9.17,0,0,0-2.81,6.73v40.16a9.56,9.56,0,0,0,9.62,9.62,9.15,9.15,0,0,0,6.78-2.8,9.38,9.38,0,0,0,2.75-6.82V353.76a9.56,9.56,0,0,0-9.53-9.52Zm0,0"/><path class="cls-4" d="M267.71,308.19,274.33,296a1.23,1.23,0,0,0-.46-1.87,1.3,1.3,0,0,0-1.87.56L265.28,307a46.89,46.89,0,0,0-37.54,0L221,294.64a1.3,1.3,0,0,0-1.87-.56,1.23,1.23,0,0,0-.46,1.87l6.63,12.24a40.87,40.87,0,0,0-16.06,14.33,36.16,36.16,0,0,0-6,20.13h86.38a36.18,36.18,0,0,0-6-20.13,41.05,41.05,0,0,0-16-14.33ZM229.37,326a3.48,3.48,0,0,1-2.57,1.08,3.32,3.32,0,0,1-2.52-1.08,3.73,3.73,0,0,1,0-5.13,3.36,3.36,0,0,1,2.52-1.07,3.63,3.63,0,0,1,2.57,6.21Zm39.37,0a3.35,3.35,0,0,1-2.52,1.08,3.64,3.64,0,0,1,0-7.29,3.37,3.37,0,0,1,2.52,1.07,3.73,3.73,0,0,1,0,5.13Zm0,0"/></g><path class="cls-4" d="M203.64,408.2a10.2,10.2,0,0,0,10.27,10.28h6.91l.09,21.2a9.31,9.31,0,0,0,2.8,6.82,9.19,9.19,0,0,0,6.73,2.8,9.55,9.55,0,0,0,9.62-9.62v-21.2h12.89v21.2a9.62,9.62,0,1,0,19.24,0v-21.2h7a10.19,10.19,0,0,0,10.18-10.27V346H203.64Zm0,0"/><path class="cls-4" d="M302.63,344.23a9.23,9.23,0,0,0-6.72,2.75,9.12,9.12,0,0,0-2.8,6.77v40.16a9.27,9.27,0,0,0,2.8,6.82,9.17,9.17,0,0,0,6.72,2.8,9.56,9.56,0,0,0,9.62-9.62V353.76a9.13,9.13,0,0,0-2.81-6.77,9.35,9.35,0,0,0-6.82-2.75Zm0,0"/><rect class="cls-8" x="538.02" y="5.41" width="232.71" height="232.71" rx="44.48" ry="44.48"/><rect class="cls-9" x="538.02" width="232.71" height="232.71" rx="44.48" ry="44.48"/><circle class="cls-4" cx="654.37" cy="116.35" r="32"/><path class="cls-4" d="M719.68,62.05a11,11,0,0,0-18.21-8.31A78.46,78.46,0,1,0,717,69.25,10.94,10.94,0,0,0,719.68,62.05ZM654.37,192.1A75.75,75.75,0,1,1,699.7,55.7,11,11,0,0,0,715,71,75.71,75.71,0,0,1,654.37,192.1Z"/><rect class="cls-10" x="269.18" y="5.29" width="232.71" height="232.71" rx="44.48" ry="44.48"/><rect class="cls-11" x="269.12" width="232.71" height="232.71" rx="44.48" ry="44.48"/><path class="cls-4" d="M358.72,62.88H345.36A13.31,13.31,0,0,0,332,76.24V103a13.4,13.4,0,0,1-13.4,13.36A13.41,13.41,0,0,1,332,129.72v26.76a13.31,13.31,0,0,0,13.36,13.36h13.36V103l53.51,66.84h13.36A13.31,13.31,0,0,0,439,156.47V129.72a13.41,13.41,0,0,1,13.4-13.36,13.43,13.43,0,0,1-9.46-3.92h0A13.32,13.32,0,0,1,439,103V76.24a13.31,13.31,0,0,0-13.36-13.36H412.24v66.84"/><rect class="cls-12" x="0.58" y="5.29" width="232.71" height="232.71" rx="44.48" ry="44.48"/><rect class="cls-13" width="232.71" height="232.71" rx="44.48" ry="44.48"/><path class="cls-4" d="M96.18,74c-19.41-3.54-34.76.17-40.88,10.76-4.56,7.91-3.26,18.39,3.16,29.6a2,2,0,1,0,3.46-2h0C56.13,102.29,55,93.24,58.75,86.76c5.08-8.8,18.77-12.1,36.72-8.83A2,2,0,0,0,96.24,74h-.06Z"/><path class="cls-4" d="M68.56,128a124.59,124.59,0,0,0,29.68,23.43c28.16,16.26,58.14,20.6,72.92,10.53a2,2,0,0,0-2.24-3.29c-13.22,9-41.7,4.89-68.68-10.69A120.64,120.64,0,0,1,71.5,125.31a2,2,0,0,0-3,2.63l0,0Z"/><path class="cls-4" d="M166.44,125.56c12.71-15,17.15-30.12,11-40.69C173,77.09,163.5,73,150.88,72.82a2,2,0,1,0-.05,4c11.35.15,19.53,3.69,23.21,10.06,5.07,8.78,1.11,22.25-10.64,36.13a2,2,0,1,0,3,2.63l0-.06ZM133.77,74.67A124.34,124.34,0,0,0,98.3,88.73c-29.07,16.78-48,41.53-45.4,59.48a2,2,0,0,0,4-.47l0-.11c-2.34-15.93,15.64-39.39,43.45-55.45a120.43,120.43,0,0,1,34.32-13.62,2,2,0,0,0-.83-3.89Z"/><path class="cls-4" d="M86.67,160.65c6.65,18.56,17.52,30,29.75,30,8.92,0,17.17-6.08,23.6-16.78a2,2,0,0,0-3.35-2.16l-.06.1c-5.78,9.62-12.88,14.85-20.19,14.85-10.15,0-19.85-10.19-26-27.35a2,2,0,1,0-3.78,1.26l0,.08ZM147.39,157a125,125,0,0,0,5.29-36.9c0-33-11.54-61.41-28-68.71a2,2,0,0,0-1.62,3.64c14.66,6.51,25.62,33.49,25.62,65.07a121.12,121.12,0,0,1-5.11,35.71,2,2,0,0,0,3.77,1.28Zm37.49-1.95a9.53,9.53,0,1,0-19.06,0h0a9.53,9.53,0,0,0,19.06,0Zm-4,0a5.55,5.55,0,0,1-11.09,0h0a5.55,5.55,0,0,1,11.09,0ZM57.36,164.6a9.53,9.53,0,1,0,0-19.06h0a9.53,9.53,0,0,0,0,19.06Zm0-4a5.55,5.55,0,1,1,5.55-5.55,5.55,5.55,0,0,1-5.55,5.55Z"/><path class="cls-4" d="M116.42,61.13a9.53,9.53,0,1,0-9.53-9.53A9.53,9.53,0,0,0,116.42,61.13Zm0-4A5.55,5.55,0,1,1,122,51.6a5.55,5.55,0,0,1-5.55,5.55Zm1.46,69.71a6.9,6.9,0,1,1,5.2-8.07,6.9,6.9,0,0,1-5.2,8.07Z"/></g></g></svg>