<svg xmlns="http://www.w3.org/2000/svg" viewBox="0 0 758.81 707.98"><defs><style>.cls-1,.cls-27,.cls-45,.cls-5{isolation:isolate;}.cls-2{fill:#007acc;}.cls-3{fill:#0066ab;}.cls-4{fill:#006fba;}.cls-5{opacity:0.05;}.cls-6{fill:#249360;}.cls-7{fill:#1f8053;}.cls-8{fill:#1d784e;}.cls-9{fill:#fff;}.cls-10{fill:#e8e8e8;}.cls-11{fill:#d1d1d1;}.cls-12{fill:#4dba87;}.cls-13{fill:#435466;}.cls-14{fill:#222;}.cls-15{fill:#3d3d3d;}.cls-16{fill:#303030;}.cls-17,.cls-33,.cls-41,.cls-52{fill:none;}.cls-17,.cls-33{stroke-miterlimit:10;}.cls-17{stroke-width:0.43px;stroke:url(#linear-gradient);}.cls-18{fill:url(#linear-gradient-2);}.cls-19{fill:#f15a24;}.cls-20{fill:#ed1c24;}.cls-21{fill:#c1272d;}.cls-22{fill:url(#linear-gradient-3);}.cls-23{fill:url(#linear-gradient-4);}.cls-24{fill:url(#linear-gradient-5);}.cls-25{fill:aqua;}.cls-26{fill:url(#linear-gradient-6);}.cls-27{opacity:0.49;fill:url(#linear-gradient-7);}.cls-28{fill:url(#linear-gradient-8);}.cls-29{fill:#2db5f9;}.cls-30{fill:#5fd2ff;}.cls-31{fill:#219058;}.cls-32{fill:url(#linear-gradient-9);}.cls-33,.cls-52{stroke:#fff;}.cls-33{stroke-width:1.08px;}.cls-34{fill:#f7b852;}.cls-35{fill:#ff8431;}.cls-36{fill:#fffb69;}.cls-37{fill:#44c688;}.cls-38{fill:#29b36e;}.cls-39{fill:#6fd191;}.cls-40{fill:#c83ad7;}.cls-42{fill:#fba9ff;}.cls-43{fill:#ff737d;}.cls-44{fill:#fff4c0;}.cls-45{opacity:0.1;}.cls-46{fill:#e3d300;}.cls-47{fill:#d9c900;}.cls-48{fill:#d4c500;}.cls-49{fill:#00d8ff;}.cls-50{fill:#00b8d9;}.cls-51{fill:#00aac9;}.cls-52{stroke-width:4.98px;}.cls-53{fill:#c3002f;}.cls-54{fill:#9e0026;}.cls-55{fill:#940024;}.cls-56{fill:#ededed;}</style><linearGradient id="linear-gradient" x1="1783.26" x2="1783.21" y1="-3668.89" y2="-3669.13" gradientTransform="matrix(0.87, 0.5, 1, -0.58, 2356.37, -2718.71)" gradientUnits="userSpaceOnUse"><stop offset="0" stop-color="#ff1d25" stop-opacity=".5"/><stop offset=".06" stop-color="#ff1d25" stop-opacity=".54"/><stop offset=".37" stop-color="#ff1d25" stop-opacity=".74"/><stop offset=".64" stop-color="#ff1d25" stop-opacity=".88"/><stop offset=".86" stop-color="#ff1d25" stop-opacity=".97"/><stop offset="1" stop-color="#ff1d25"/></linearGradient><linearGradient id="linear-gradient-2" x1="1787.29" x2="1787.29" y1="-3677.45" y2="-3668.19" gradientTransform="matrix(0.87, 0.5, 1, -0.58, 2356.37, -2718.71)" gradientUnits="userSpaceOnUse"><stop offset="0" stop-color="#fffa8f"/><stop offset="1" stop-color="#fb784b"/></linearGradient><linearGradient id="linear-gradient-3" x1="1865.62" x2="1869.66" y1="-3635.25" y2="-3631.92" gradientTransform="matrix(0.87, 0.5, 1, -0.58, 2356.37, -2718.71)" gradientUnits="userSpaceOnUse"><stop offset="0" stop-color="#5bcb99"/><stop offset="1" stop-color="#85a8e8"/></linearGradient><linearGradient id="linear-gradient-4" x1="1791.84" x2="1911.81" y1="-3671.18" y2="-3608.92" gradientTransform="matrix(0.87, 0.5, 1, -0.58, 2356.37, -2718.71)" gradientUnits="userSpaceOnUse"><stop offset="0" stop-color="#34e28b"/><stop offset="1"/></linearGradient><linearGradient id="linear-gradient-5" x1="1814.52" x2="1824.19" y1="-3678.95" y2="-3678.95" gradientTransform="matrix(0.87, 0.5, 1, -0.58, 2356.37, -2718.71)" gradientUnits="userSpaceOnUse"><stop offset="0" stop-color="#c297ff"/><stop offset="1" stop-color="#ae31bb"/></linearGradient><linearGradient id="linear-gradient-6" x1="1778.36" x2="1894.81" y1="-3727.4" y2="-3636.58" gradientTransform="matrix(0.87, 0.5, 1, -0.58, 2356.37, -2718.71)" gradientUnits="userSpaceOnUse"><stop offset="0"/><stop offset="1" stop-color="#d23de2"/></linearGradient><linearGradient id="linear-gradient-7" x1="1863.55" x2="1859.09" y1="-3631.06" y2="-3646.09" gradientTransform="matrix(0.87, 0.5, 1, -0.58, 2356.37, -2718.71)" gradientUnits="userSpaceOnUse"><stop offset="0"/><stop offset="1" stop-opacity="0"/></linearGradient><linearGradient id="linear-gradient-8" x1="1820.91" x2="1855.2" y1="-3685.69" y2="-3693.99" gradientTransform="matrix(0.87, 0.5, 1, -0.58, 2356.37, -2718.71)" gradientUnits="userSpaceOnUse"><stop offset="0" stop-color="#2db5f9"/><stop offset="1"/></linearGradient><linearGradient id="linear-gradient-9" x1="1790.44" x2="1770.17" y1="-3611.41" y2="-3667.08" gradientTransform="matrix(0.87, 0.5, 1, -0.58, 2356.37, -2718.71)" gradientUnits="userSpaceOnUse"><stop offset="0"/><stop offset=".21" stop-color="#48080a"/><stop offset=".42" stop-color="#891014"/><stop offset=".61" stop-color="#bc151b"/><stop offset=".78" stop-color="#e01a21"/><stop offset=".91" stop-color="#f71c24"/><stop offset="1" stop-color="#ff1d25"/></linearGradient></defs><g id="Layer_2" data-name="Layer 2"><g id="Layer_1-2" data-name="Layer 1"><g class="cls-1"><path d="M355.02 5.49L173.41 110.34l.59 208.69 181.61-104.85-.59-208.69z" class="cls-2"/><path d="M173.41 110.34l-9.45-5.49.59 208.69 9.45 5.49-.59-208.69z" class="cls-3"/><path d="M345.57 0L163.96 104.85l9.45 5.49L355.02 5.49 345.57 0z" class="cls-4"/></g><path d="M292 447.87l-161.66-93.35L317 246.75l161.66 93.35L292 447.87zm273.4 121.61l-161.66-93.34 186.67-107.76 161.65 93.32L565.4 569.48zM178.23 678.87L16.57 585.52l186.67-107.77L364.9 571.1 178.23 678.87z" class="cls-5"/><path d="M578.07 503.25l-171.28-98.89 171.28-98.9 171.28 98.9-171.28 98.89z" class="cls-6"/><g class="cls-1"><path d="M577.2 299.9L396.77 404.75 578.39 509.6l180.42-104.85L577.2 299.9z" class="cls-6"/><path d="M578.39 509.6l-.03 10.93 180.42-104.85.03-10.93L578.39 509.6z" class="cls-7"/><path d="M396.77 404.75l-.03 10.93 181.62 104.85.03-10.93-181.62-104.85z" class="cls-8"/></g><g id="Components"><g id="intern"><g id="Group-3"><path id="Shape" d="M578.71 419.25l-.5-1.24c-3.65-5.58-11.27-10-20.94-12.09l-2.6-.09-2.31 1.33 1.81.55c9.67 2.11 17.28 6.5 20.94 12.09l.82 1.47z" class="cls-9"/><path id="Oval" d="M548.4 389.21c5.3 3.06 5.26 8-.1 11.14s-14 3.12-19.29.06-5.26-8 .1-11.14 13.99-3.11 19.29-.06z" class="cls-9"/><path id="Shape-2" d="M603.38 414.39c11.16 1.71 19.07 7.39 19.57 14.06l.28.29s59.62-7.46 15.14-16.4c0 0 13.34-46.39-45.47-52.1 0 0 2.39 4.68 1.64 7.26 0 0-26.77-13.77-43.56-8.91 0 0 8.18 3.81 6.2 4.82 0 0-11.15-4.78-24.38 16.72 8.19-1 16.68.29 22.92 3.45s9.53 7.85 8.88 12.67c5.49 2.21 12.8 4.49 19.89 4.63-.01.04 33.63 12.51 18.89 13.51z" class="cls-9"/><path id="Shape-3" d="M557.71 383.86c-10.37-6-27.25-5.93-37.71.12s-10.55 15.79-.19 21.77 27.24 5.94 37.71-.1c5-2.9 7.88-6.83 7.92-10.92s-2.74-8-7.73-10.87zm-34.23 19.44c-8.16-4.72-8.09-12.4.17-17.17s21.57-4.8 29.73-.08 8.1 12.4-.15 17.17a30.68 30.68 0 0 1-14.91 3.6 30.19 30.19 0 0 1-14.84-3.52z" class="cls-9"/><path id="Shape-4" d="M616 417.9c-7.58-4.39-19-5.69-29-3.29s-16.56 8-16.63 14.27 6.38 11.84 16.29 14.21 21.44 1 29.11-3.42c10.41-6.05 10.51-15.78.23-21.77zm-34.25 19.44c-8.16-4.72-8.09-12.4.16-17.17s21.56-4.8 29.73-.09 8.11 12.4-.14 17.16a30.67 30.67 0 0 1-14.9 3.61 30.2 30.2 0 0 1-14.85-3.5z" class="cls-9"/><path id="Oval-2" d="M606.71 423.25c5.3 3.06 5.26 8-.1 11.14s-14 3.12-19.29.06-5.26-8 .1-11.14 13.98-3.12 19.29-.06z" class="cls-9"/><path id="Shape-5" d="M570.66 431l16.23 11s-7.1 19.34-63.7-6.6l-10.91-8.73s50.86 17.99 58.38 4.33z" class="cls-9"/></g></g></g><path d="M535.19 707.98l-161.66-93.34 186.66-107.77 161.66 93.33-186.66 107.78z" class="cls-5"/><g class="cls-1"><path d="M536.01 447.16L355.59 552.02 537.2 656.87l180.43-104.85-181.62-104.86z" class="cls-9"/><path d="M537.2 656.87l-.03 10.93L717.6 562.95l.03-10.93L537.2 656.87z" class="cls-10"/><path d="M355.59 552.02l-.03 10.92L537.17 667.8l.03-10.93-181.61-104.85z" class="cls-11"/></g><path d="M536.6 648.03l-171.29-98.89 171.28-98.89 171.29 98.9-171.28 98.88z" class="cls-9"/><g id="Components-2"><g id="vue"><g id="Group-14"><g id="Vue.js_Logo" data-name="Vue.js Logo"><g id="g10"><g id="g12"><path id="path14" d="M575.02 533.21l-28.96 4.55 7.87-16.73-35.12-20.28-34.09 72.42 125.43-19.68-35.13-20.28z" class="cls-12"/></g><g id="g16"><path id="path18" d="M575.02 533.21l-28.96 4.55 7.87-16.73-16.86-9.73-20.45 43.45 75.26-11.81-16.86-9.73z" class="cls-13"/></g></g></g></g></g></g><path d="M349.57 214.88l-171.28 98.88V115.98l171.28-98.89v197.79z" class="cls-2"/><g id="Components-3"><g id="typescript"><g id="Group-2"><path id="Path" d="M318.71 131.71c4.09-1.18 7.21-.88 10.08.9 1.48 1 3.68 3.06 3.86 3.75 0 .21-7 9.7-11.2 15.2-.15.21-.77-.21-1.46-1-2.07-2.3-4.24-2.55-7.57-.9a13.94 13.94 0 0 0-8 12.14 5.46 5.46 0 0 0 .69 3.1c1.07 2 3.07 2.34 9.33 1.87 11.53-.91 16.47 0 19.54 3.64 3.43 4 4.19 13.18 1.87 21.66-2.56 9.23-8.9 18.17-17.82 25.07a64.57 64.57 0 0 1-12.26 6.95c-6.47 2.4-12.61 2.24-16.39-.43-1.48-1-4.37-4.32-4.19-4.77.08-.16.74-1 1.48-2l6-7.45 4.63-5.78 1 1.1a10.42 10.42 0 0 0 6.11 3.25c5.14.17 12.2-4.35 15.68-10a12.24 12.24 0 0 0 2.1-6.81c0-2.16-.23-3-1.2-4-1.25-1.35-3.81-1.62-11.07-1.07-8.31.65-11.89.14-15.16-2.05a12.66 12.66 0 0 1-4.42-6.77 41.37 41.37 0 0 1-.28-11.74c1.71-10.29 7.77-20.27 16.52-27.25a51.75 51.75 0 0 1 12.13-6.61z" class="cls-9"/><path id="Path-2" d="M284 157.7v7.61l-10.48 6.05-10.48 6.05v69l-7.4 4.29-7.35 4.3v-69l-10.48 6-10.51 6.06v-7.46c0-4.15.08-7.65.18-7.8s12.84-7.59 28.31-16.49l28.15-16.22z" class="cls-9"/></g></g></g><g class="cls-1"><path d="M283.49 203.45L103.06 308.3l181.62 104.85L465.1 308.3 283.49 203.45z" class="cls-14"/><path d="M284.68 413.15l-.04 10.93 180.43-104.85.03-10.93-180.42 104.85z" class="cls-15"/><path d="M103.06 308.3l-.03 10.93 181.61 104.85.04-10.93L103.06 308.3z" class="cls-16"/></g><path d="M287.26 408.1l-171.28-98.9 171.28-98.89 171.28 98.89-171.28 98.9z" class="cls-14"/><path d="M230.79 290.49l-.16.42a14.91 14.91 0 0 0-.55 6c.77 4.41 4.07 8.71 9.93 12.09l1.09.6a65.77 65.77 0 0 0 14.18 4.92 54.89 54.89 0 0 1-5.33-2.56c-5.85-3.37-8.58-7.87-8.2-12.28a35.64 35.64 0 0 1-10.96-9.19z" class="cls-18"/><path d="M288.82 280.87c8.86 5.11 11.89 12.32 9.11 18.86-.33-3.89-3.06-7.72-8.2-10.69a32.19 32.19 0 0 0-6.37-2.76c2.29 3.82 6.76 8.29 14.58 13.47 0 0 7.57-4.85 1.53-13.16-8.45-11.6-11.63-12.1-9.22-17.67 0 0-7.19 2.79-8.66 8.74a39.07 39.07 0 0 1 7.23 3.21z" class="cls-19"/><path d="M299.46 286.6c-2.89-4-5.17-6.64-6.81-8.66a10.27 10.27 0 0 0-1.94 4.15c7.36 5 9.75 11.61 7.18 17.65-.28-3.29-2.29-6.54-6-9.27a37.74 37.74 0 0 0 5.73 9.09l.29.2s7.6-4.85 1.55-13.16z" class="cls-20"/><path d="M297.92 299.75c1-.41 8.88-3.84 7.15-11.82-2.59-11.91-4-13.7.19-16.77 0 0-8.57 1.33-12.66 6.74 1.64 2 3.92 4.69 6.81 8.66 6 8.31-1.53 13.16-1.53 13.16z" class="cls-21"/><path d="M341 315.56c4.54 2.62 7 6 7.44 9.4 3.92 2.56 5.89 5.6 5.94 8.37 0 0 4.42-13.82-18.68-20.35a49.07 49.07 0 0 0-6.56-1.3 33.59 33.59 0 0 1 11.86 3.88z" class="cls-22"/><path d="M341 315.56a33.55 33.55 0 0 0-11.84-3.89l.8.12c-22.09-3.3-64.28 1.38-88.21-12.07-.38 4.42 2.36 8.91 8.2 12.28a54.89 54.89 0 0 0 5.33 2.56c21.7 5.22 51.6 5 65.64 4.63 13-.34 22.13 2.25 27.53 5.76-.45-3.42-2.9-6.77-7.45-9.39z" class="cls-23"/><path d="M256.38 323a18.49 18.49 0 0 0-3.64 1.53 12.06 12.06 0 0 0-3.07 2.41c1-.75 4.58-3.11 10.87-2.87l.35-.11a25.82 25.82 0 0 1 11-.79h-.06q-1.5-.44-3-.76a26.54 26.54 0 0 0-12.45.59z" class="cls-24"/><path d="M345.36 343.43c5-2.86 8-6.43 9-10.14-.07-2.76-2-5.79-5.94-8.33.52 4.14-2 8.39-7.44 11.55a38.6 38.6 0 0 1-26.18 4.29c-15.89-2.87-29.3-13.61-43-17.66h.06a25.82 25.82 0 0 0-11 .79l-.35.11c5.71.22 13.63 2.57 23.83 10.2 7.28 5.45 13.63 9.45 21 11.8A51 51 0 0 0 328 348.6a43.79 43.79 0 0 0 17.36-5.17z" class="cls-26"/><path d="M345.36 343.43c5-2.86 8-6.43 9-10.14-.07-2.76-2-5.79-5.94-8.33.52 4.14-2 8.39-7.44 11.55a38.6 38.6 0 0 1-26.18 4.29c-15.89-2.87-29.3-13.61-43-17.66h.06a25.82 25.82 0 0 0-11 .79l-.35.11c5.71.22 13.63 2.57 23.83 10.2 7.28 5.45 13.63 9.45 21 11.8A51 51 0 0 0 328 348.6a43.79 43.79 0 0 0 17.36-5.17z" class="cls-27"/><path d="M254.45 336.09c-4-4.32-1.21-9.66 6.14-12h-.05c-6.29-.24-9.88 2.11-10.87 2.86a5.9 5.9 0 0 0 0 8.34l.15.15c2.67 2.9 7.64 4.63 12.92 4.85a15.78 15.78 0 0 1-8.29-4.2z" class="cls-28"/><path d="M259.06 337.83c4.46-1.26 13.26-2.09 14.86 1.55 0 0 1.41 2.9 7.16.35 0 0-9.56 8.3-20.75 1.37 0 0 4.52.41 6.45-.74a25.47 25.47 0 0 1-7.72-2.53z" class="cls-29"/><path d="M271 336.27c1.73.33 3.41.61 4.58 2.37.91 1.36 5.81.91 6.57-1.58 0 0-2.51 1.58-4.6.35a10.2 10.2 0 0 0-6.55-1.14z" class="cls-30"/><path d="M320.71 321c-6.56.58-13.8.06-15.06.23a2 2 0 0 0-.75 3.57c1.73 1.2 1.17-.17 1.89-.77s0 .65 2.61 1.77.36-1.15 1.72-1.7 5.87-.44 9-1.17 2.53 1.46 0 2c-1 .2 4.49.39 5-1.59s-.55-2.67-4.41-2.34zm-16.16.22c-.8 0-2.88-.2-2.88-.2a2.2 2.2 0 0 0 1.09 2.48.41.41 0 0 0 .49-.45 3.06 3.06 0 0 1 1.3-1.83z" class="cls-31"/><path d="M283.36 286.29c-2-3.39-2.36-6.25-1.77-8.62-13.19-4.37-30.3-3.31-41.57 3.2-4.76 2.75-7.83 6.1-9.22 9.62a35.64 35.64 0 0 0 11 9.23c.33-3.88 3.06-7.71 8.2-10.68 9-5.21 22.71-6.13 33.36-2.75z" class="cls-32"/><path d="M290.71 282.09c-.48 1.53-.07 4.88 1.18 8.4 3.72 2.72 5.73 6 6 9.26 2.61-6.06.21-12.66-7.18-17.66z" class="cls-34"/><path d="M290.71 282.09c-.61-.41-1.25-.82-1.92-1.21a39.07 39.07 0 0 0-7.24-3.2c-.58 2.36-.26 5.23 1.77 8.62a32.19 32.19 0 0 1 6.39 2.79 24.34 24.34 0 0 1 2.19 1.43c-1.19-3.52-1.64-6.91-1.19-8.43z" class="cls-35"/><path d="M298.71 293.09a9.84 9.84 0 0 0-2.64-6c-1.36 2.61-.96 3.91 2.64 6z" class="cls-36"/><path d="M304.57 281.76a17.43 17.43 0 0 1 1 3.45c.07.28 1.41-1.39.9-2.15a5 5 0 0 0-1.9-1.3zm1.27 4.24a19.33 19.33 0 0 1 1 3.46c.08.28 1.43-1.38.94-2.14a4.91 4.91 0 0 0-1.94-1.32zm1.08 4.09a5.24 5.24 0 0 1-.47 2.45c-.06.2 1.43-.78 1.34-1.35s-.87-1.1-.87-1.1z" class="cls-21"/><path d="M249.44 301.6c.24-.27 2.05.27 2.44.47a5 5 0 0 1 1.28 1.47 15.4 15.4 0 0 1-3.18-1.2 1.62 1.62 0 0 1-.54-.74zm6.1 2.18c.15-.22 1.68.12 2 .26a4.79 4.79 0 0 1 1.24 1.12 13.8 13.8 0 0 1-2.72-.8 1.54 1.54 0 0 1-.52-.58zm5.64 1.5c.09-.19 1.4 0 1.7.11a4.75 4.75 0 0 1 1.19.86 12.48 12.48 0 0 1-2.36-.52 1.53 1.53 0 0 1-.53-.45zm4.77 1.04c.06-.18 1.28 0 1.56 0a4.92 4.92 0 0 1 1.2.77 12 12 0 0 1-2.22-.38 1.59 1.59 0 0 1-.54-.39zm4.76.77c0-.16 1.11-.08 1.36 0a4.66 4.66 0 0 1 1.1.6 10.76 10.76 0 0 1-2-.27 1.52 1.52 0 0 1-.46-.33zM244.1 299c.33-.26 2.09.49 2.44.73a4.16 4.16 0 0 1 .92 1.68 13.47 13.47 0 0 1-3-1.58 1.4 1.4 0 0 1-.36-.83z" class="cls-37"/><path d="M291.16 272.88c-.15 1.32 1.55 3.21 1.55 3.21a10.59 10.59 0 0 1 3.56-2.64c.1 0-3-1.81-1-3.58.44-.33-3.96 1.69-4.11 3.01z" class="cls-21"/><path d="M222.19 300.58a6.56 6.56 0 0 1 3.29-.51h.16a7.62 7.62 0 0 0-.64-.52c-3.13-2.44-6.25-1.71-8.91-.41l-.43.24a9.51 9.51 0 0 1 6.49 1.14z" class="cls-19"/><path d="M227.47 302.71c-1.44-3.39-3.33-4.67-10.36-1.55 0 0 6.89.47 6.7 2.68-.21 2.4 4.49 2.79 4.36 1.24a5.32 5.32 0 0 0-.7-2.37z" class="cls-19"/><path d="M225.23 302.25a12.33 12.33 0 0 0-6.7 1.48s5.83 1 6.81.1a.92.92 0 0 0-.11-1.58zm8.33-24.7a4.69 4.69 0 0 1 2.75 1.16l.06.09a4.4 4.4 0 0 0 .31-.61c1.34-2.94-1.59-3.89-5-4.27h-.59c1.93.8 3 2.2 2.51 3.64z" class="cls-19"/><path d="M233.66 282c3.95-3.81 4.91-5.61-3.84-6.45 0 0 5.62 1.8-.09 5.67-2.7 1.83-.47 3.8 1.4 2.68a10.46 10.46 0 0 0 2.53-1.9z" class="cls-19"/><path d="M234.62 279.31c-1.85-1.73-6.44-1.82-6.44-1.82s3.85 2.08 2 3.64c-.98.87 4.44-1.82 4.44-1.82z" class="cls-19"/><path d="M320.92 319.2a71.67 71.67 0 0 1 15 .93c4.63.83 9.94 2.74 12.41 4.31l.14 1.07-.48-.33a34.71 34.71 0 0 0-12.25-4.74 70.53 70.53 0 0 0-14.82-1.24z" class="cls-38"/><path d="M348.71 324.66a16.35 16.35 0 0 1 4.17 4.07 7.8 7.8 0 0 1 1.52 4.59 8.32 8.32 0 0 0-2-4.46 22.56 22.56 0 0 0-3.85-3.36l-.13-1.07z" class="cls-39"/><path d="M261.51 323.77c.86.08 1.81.21 2.69.37.61.12 1.22.24 1.8.4s1.16.31 1.73.48a41.7 41.7 0 0 1 6.26 2.49 64.44 64.44 0 0 1 10.24 6.4 110.39 110.39 0 0 0 9.55 6.68 54.38 54.38 0 0 0 11.56 5.5 55.91 55.91 0 0 1-11.77-5.37c-3.5-2.08-6.68-4.33-9.79-6.6a65.69 65.69 0 0 0-10.33-6.22 41.5 41.5 0 0 0-6.17-2.36c-.55-.15-1.1-.32-1.67-.44s-1.14-.25-1.72-.36a27.14 27.14 0 0 0-3.56-.38h-.54a16 16 0 0 1 1.72-.59z" class="cls-40"/><path d="M282.44 287.58c-4.17-1.54-6.35.33-6.35.33s2.38-.13 9 2.9a21.65 21.65 0 0 1-2.65-3.23z" class="cls-21"/><path d="M249.71 326.93a11.37 11.37 0 0 1 2.23-1.34 17.68 17.68 0 0 1 2.74-1 22.08 22.08 0 0 1 3.1-.63 25.78 25.78 0 0 1 3.31-.18h.47s-1.42.43-1.73.56c-.54 0-1.31 0-1.9.1a22.11 22.11 0 0 0-3 .45 18.81 18.81 0 0 0-2.8.85 12.79 12.79 0 0 0-2.42 1.19z" class="cls-42"/><path d="M241 299.27c.19-2.35 2-5.26 4.44-7.49a23 23 0 0 1 4.66-3.2l1.35-.69 1.44-.63c.47-.22 1-.39 1.5-.58s1-.37 1.56-.53a40.79 40.79 0 0 1 6.7-1.49c1.16-.18 2.35-.27 3.53-.38l1.79-.08h1.79a47.93 47.93 0 0 1 7.06.56 45 45 0 0 1 6.58 1.55 45.82 45.82 0 0 0-6.63-1.43 47.73 47.73 0 0 0-7-.43H268l-1.75.11c-1.15.12-2.31.23-3.44.43a38.77 38.77 0 0 0-6.45 1.56c-.52.15-1 .35-1.48.54s-1 .36-1.42.58l-1.36.63-1.27.69a21 21 0 0 0-4.31 3.14 11.63 11.63 0 0 0-3.88 7.58v.43s-1.4-.69-1.64-.87z" class="cls-43"/><path d="M255.28 314.57a39.54 39.54 0 0 1-5.94-2.73 20.41 20.41 0 0 1-4.46-3.59 17.27 17.27 0 0 1-2.91-4.11 9.33 9.33 0 0 1-1.05-4.43v-.44l1.63.9a8.82 8.82 0 0 0 .65 3.79 15.39 15.39 0 0 0 2.44 4.06 18.19 18.19 0 0 0 4 3.63 36.74 36.74 0 0 0 5.64 2.92z" class="cls-44"/><path d="M495.48 390.21l115.08-66.44-36.62-21.14-115.08 66.44 36.62 21.14z" class="cls-45"/><g class="cls-1"><path d="M212.34 272.84l-.59 208.69 181.6 104.85.59-208.69-181.6-104.85z" class="cls-46"/><path d="M393.94 377.69l-.59 208.69 9.45-5.49.59-208.69-9.45 5.49z" class="cls-47"/><path d="M221.78 267.35l-9.44 5.49 181.6 104.85 9.45-5.49-181.61-104.85z" class="cls-48"/></g><path d="M388.92 575.2l-171.28-98.89V278.54l171.28 98.89V575.2z" class="cls-46"/><g id="Components-4"><g id="javascript"><path id="Shape-6" d="M332.57 499c3.41 8.43 7.84 15.75 15.69 20.28 6.59 3.8 10.8 2.41 10.8-2.88 0-6.33-4.32-11.08-11.58-19l-4-4.28c-11.48-12.3-19.1-23.82-19.1-38.86 0-13.86 9.09-19.16 23.29-11 10.11 5.84 17.38 14.12 22.62 27.85l-12.38 2.09c-2.73-7.25-5.67-11.19-10.23-13.83s-7.61-1-7.61 3.52c0 5.54 3 9.49 9.78 16.86l4 4.27c13.51 14.53 21.14 25.8 21.14 41.23 0 16.63-11.25 19.25-26.35 10.53-14.77-8.53-24.31-22.21-29-35.62zm-56.18-30.86c2.5 6.59 4.77 12.26 10.23 15.41 5.22 3 8.52 2.54 8.52-6.69V414l15.86 9.2v63.07c0 19.13-9.65 22.26-23.75 14.12-12.72-7.3-20.1-19.3-23.85-30.64z"/></g></g><g class="cls-1"><path d="M180.46 444.43L.03 549.28l181.61 104.86 180.43-104.85-181.61-104.86z" class="cls-49"/><path d="M181.64 654.14l-.03 10.92 180.43-104.85.03-10.92-180.43 104.85z" class="cls-50"/><path d="M.03 549.28L0 560.21l181.61 104.85.03-10.92L.03 549.28z" class="cls-51"/></g><path d="M180.99 647.13L9.71 548.25l171.28-98.88 171.28 98.88-171.28 98.88z" class="cls-49"/><g id="Components-5"><g id="react"><g id="React.js_logo" data-name="React.js logo"><path id="Oval-3" d="M190.71 542.61c5.41 3.12 5.45 8.15.11 11.24s-14.06 3.06-19.46-.06-5.45-8.15-.11-11.24 14.1-3.06 19.46.06z" class="cls-9"/><path id="Shape-7" d="M200.71 536.83c13.14 7.59 23.48 15.71 29.56 22.83 7.32 8.58 8.41 15.82 3.23 18.81-5.4 3.12-18.7 2.45-34.51-2.17a179.18 179.18 0 0 1-37.82-16.65c-12.75-7.37-23.46-15.2-29.46-22.23-7.63-8.9-8.41-16.46-3.11-19.52 5.14-3 17.33-2.49 32 1.65a182.44 182.44 0 0 1 40.11 17.28z" class="cls-52"/><path id="Shape-8" d="M173.54 532.54c17.82-2.71 35.08-3.74 48.74-3.15 16.46.71 27.86 3.85 29.81 8s-5.48 10.61-20.16 16.16c-11.1 4.2-26.59 7.86-43.5 10.43-17.34 2.64-34.31 4-47.81 3.42-17.09-.72-28.82-4.18-30.81-8.39s4.76-9.93 18.16-15.18c11.33-4.46 27.58-8.55 45.57-11.29z" class="cls-52"/><path id="Shape-9" d="M153.77 544a76.61 76.61 0 0 1 19.13-26c9.13-7.87 19.42-12 26.55-10.86 7.43 1.17 13.23 8.14 14.38 18.31.87 7.69-1.22 17.3-5.64 27.07-4.54 10-10.82 19.19-18.28 25.66-9.44 8.18-20.38 12.29-27.67 11.14-7.07-1.11-12.58-7.44-13.89-16.82-1.1-7.92.72-18.13 5.42-28.5z" class="cls-52"/></g></g></g><g class="cls-1"><path d="M494.89 165.83L314.46 270.68l181.62 104.85L676.5 270.68 494.89 165.83z" class="cls-53"/><path d="M496.08 375.53l-.03 10.93 180.42-104.85.03-10.93-180.42 104.85z" class="cls-54"/><path d="M314.46 270.68l-.03 10.93 181.62 104.85.03-10.93-181.62-104.85z" class="cls-55"/></g><path d="M495.47 368.76l-171.28-98.88 171.28-98.89 171.28 98.89-171.28 98.88z" class="cls-53"/><path d="M484.13 276.43l-11.98-6.92-19.82 4.91-10.52-6.09-.05-.02 91.47-20.24-.05.03 10.76-6.2-61.22-16.77-52.79 38.43L447 297.87l37.13-21.44z" class="cls-9"/><path d="M484.61 266.63l8.24 4.75 19.83-11.44-28.07 6.69z" class="cls-9"/><path d="M484.13 276.43l11.97 6.9-8.48 11.46 10.52 6.07.04.02 35.05-52.81-.05.03 10.76-6.2 29.04 35.34-66.56 30.47-59.42-9.84 37.13-21.44z" class="cls-56"/><path d="M501.09 276.14l-8.24-4.76 19.83-11.44-11.59 16.2z" class="cls-9"/></g></g></svg>