<svg xmlns="http://www.w3.org/2000/svg" width="1303.098" height="1869.689" viewBox="0 0 1303.098 1869.689"><path fill="#6B6957" d="M1268.808 1231.093c-67.945 63.513-113.177 103.123-144.117 124.977l-6.48-1.523c-8.116 0-13.74 7.257-14.93 15.262-32.685 18.06-42.324 6.064-50.107-19.918-1.413-94.564-7.257-189.35-7.257-284.44 0-337.37 213.918-469.91 171.733-1015.133-3.048-51.16-51.188-81.353-48.17 0 5.956 316.264-111.43 509.075-195.83 695.85-57.253 132.537-141.513 141.51-253.084 51.16-48.14-39.168-102.458-81.353-159.6-123.456-36.12-27.145-54.208-48.14-72.267-87.307-48.14-99.44-84.4-210.9-39.167-343.438 12.02-42.186-9.085-45.206-33.1 0-30.08 60.272-36.147 108.412-33.128 156.69 3.047 78.333-3.02 120.52-27.145 117.5-114.48-21.105-240.952-240.95-316.265-370.47-30.08-51.187-48.14-18.087-36.147 21.08C63.91 366.696 199.495 523.39 380.285 665.012 600.24 839.737 841.22 1068.585 841.22 1237.27c0 67.087-2.492 120.628-7.92 167.162-6.815 2.936-10.166 9.75-10.166 16.564 0 5.29 2.077 10.61 6.177 14.07l-4.984 28.78c-6.26 1.717-10.165 7.12-10.165 14.376 0 4.875 1.746 8.89 4.765 11.578l-7.562 29.97c-9.196 5.955-15.262 16.232-15.262 27.81 0 4.653.97 9.085 2.798 13.212-4.764 14.376-10.055 29-15.677 44.124-17.2-.083-29.22 12.02-29.22 27.062 0 8.753 4.015 16.453 10.386 21.328-4.32 10.58-8.753 21.633-13.517 32.99-14.93-.223-23.905 8.863-23.905 20.884 0 7.146 3.13 13.295 8.31 16.98l-2.16 5.206c-4.544 2.908-8.31 6.26-11.58 9.722-12.436 3.906-25.426 8.227-39.69 13.212-33.13 11.994-45.122 36.12 0 54.207 3.35 1.19 6.48 2.27 9.832 3.462-.416 1.715-.748 3.682-.748 5.62 0 13.186 6.924 21.745 18.834 23.683.637 1.08 1.385 2.078 2.27 3.047 0 6.26 11.358 12.105 20.22 12.438 7.59 2.604 17.202 4.653 29.223 6.066 2.16 2.908 6.37 5.955 10.692 5.955 1.855 0 4.57-2.08 6.62-4.35 13.405.885 29.11 1.3 47.696 1.3h9.307c.443 3.907 3.352 5.956 8.227 5.956 5.095 0 8.004-2.16 8.78-6.37l27.698-1.303c1.385 3.24 6.592 7.672 11.772 7.672 3.047 0 9.113-6.066 9.113-9.085v-.442l31.91-5.4c2.16 1.716 4.652 2.797 7.256 2.797 4.845 0 9.72-3.878 11.355-8.642 4.958-2.05 9.417-4.32 13.185-6.703 8.56.332 14.626-5.623 14.626-11.69 1.828-4.43 3.24-8.558 4.21-12.546 7.368-1.745 14.82-3.573 22.824-5.512 24.126-6.066 39.166-45.232 0-60.273-.97-.334-1.717-.667-2.687-.97l10.913-33.766c8.005-5.097 12.88-14.07 12.88-25.538 0-5.097-.97-9.75-2.825-13.74l9.198-44.15c5.318-1.192 8.56-3.99 8.56-8.42 0-1.857-2.16-4.765-5.956-6.732l2.937-18.918c3.766-11.163 10.912-25.206 20.773-40.8 10.582-1.302 18.393-9.833 18.393-20.885 0-1.716-.222-3.35-.554-4.985l40.91-52.018c3.99 1.828 8.642 2.798 13.85 2.798 15.04 0 30.08-11.994 30.08-30.08 0-6.15-2.493-12.327-6.62-17.534 41.77-49.774 90.464-107.86 139.16-175.277 18.17-24.015.11-57.115-26.952-30.08h-.002z"/></svg>