<svg xmlns="http://www.w3.org/2000/svg" width="1142.136" height="1525.23" viewBox="0 0 1142.136 1525.23"><path fill="#6B6957" d="M342.798 33.734h.06c13.73.903 26.347 10.89 35.734 27.997 9.933 18.25 14.9 42.236 13.87 67.47-1.9 48.61-26.488 88.266-54.812 88.266l-2.12-.106c-13.728-.93-26.346-10.892-35.733-27.998-10.013-18.434-14.9-42.393-13.93-67.6 1.978-48.477 26.487-88.108 56.93-88.108v.08zm-8.6 217.28l3.47.08c42.356 0 77.605-52.727 80.35-120.17 1.354-32.83-5.35-64.36-18.673-88.85C385.395 16.468 365.812 1.54 344.21.132L340.68 0c-42.355 0-77.604 52.7-80.35 120.14-1.272 32.805 5.35 64.335 18.674 88.825 13.93 25.765 33.593 40.56 55.195 42.02v.028h-.002zM135.14 295.37c7.43-9.934 18.573-15.672 30.383-15.672 19.906 0 40.256 16.31 40.78 52.94l4.44 362.84c.243 16.202-3.39 29.27-10.638 39.046-19.946 26.748-70.356 20.93-71.063-37.267l-4.482-362.84c-.2-16.098 3.333-29.273 10.58-39.047zm34.644 488.48c18.614 0 36.34-9.376 48.492-25.765 12.073-16.203 18.37-37.984 17.968-63.085l-4.4-362.84c-.687-56.445-33.917-85.93-66.3-85.93-18.654 0-36.34 9.35-48.533 25.766-12.07 16.15-18.37 37.984-17.966 63.06l4.482 362.84c.606 56.47 33.795 85.954 66.218 85.954h.04zm87.213 100.06l-88.082 315.028L18.108 1371.99c-22.066 25.42-24.266 69.514-4.946 98.547 10.498 15.804 36.985 51.583 36.985 51.583l198.976-229.816c6.703-7.703 11.75-17.425 14.9-28.422l66.318-237.2L256.98 883.91h.02zm880.253 521.416l-84.55-194.967h37.006c9.49 0 17.04-9.987 17.04-22.445 0-6.11-1.88-11.687-4.947-15.778l-92.263-212.923h29.07c9.49 0 17.04-10.094 17.04-22.42 0-6.215-1.938-11.686-5.007-15.777l-88.727-204.742c-6.157-13.998-23.58-13.998-29.677 0l-90.746 209.5c-3.028 6.96-3.028 15.46.08 22.31 3.07 6.96 8.6 11.21 14.678 11.21h28.546l-94.32 217.678c-2.948 6.96-2.948 15.46.08 22.312 3.03 6.96 8.682 11.21 14.678 11.21h36.178l-86.527 199.64c-2.988 6.96-2.927 15.46.16 22.42 3.03 6.853 8.6 11.21 14.738 11.21H921.54v75.648h51.077v-75.968h152.483c9.388 0 17.04-10.04 17.04-22.392.04-6.27-1.94-11.873-4.927-15.805l.04.08v-.002z"/><path fill="#6B6957" d="M492.252 1053.724L390.745 853.71c.95-5.71 1.494-12.14 1.413-19.39l-.545-183.864-.303-138.84 98.64 129.092c4.14 5.233 18.37 14.264 23.943 15.406l132.133 27.598-153.774 370.012zm234.59-517.618c-8.278-6.003-18.615-1.966-23.117 8.925l-11.265 27.12c-2.12-.85-4.18-1.78-6.54-2.282l-143.68-30.095S423.732 387.04 377.3 323.237c-3.432-4.648-8.6-11.608-11.588-15.247-9.388-11.29-26.507-18.062-43-18.062-34.04 0-68.036 30.2-67.955 89.966l1.21 431.45c.062 24.384 5.896 43.482 14.9 57.8l163.788 323.102-122.2 294.124c-4.482 10.89-1.494 24.437 6.783 30.387 2.625 1.86 5.45 2.79 8.136 2.79 5.976 0 11.83-4.25 14.9-11.688l113.72-273.673 131.77 259.91c10.174 20.24 27.05 31.132 44.212 31.132 10.195 0 20.39-3.853 29.414-11.688 24.49-21.41 42.698-42.367 42.698-42.367L513.59 1095.878l168.675-405.95c23.74-1.648 38.72-26.457 41.628-50.947 1.575-12.43-.08-26.03-4.724-37.982l14.332-34.53c4.643-10.892 1.555-24.438-6.662-30.388v.026h.002z"/></svg>