<svg xmlns="http://www.w3.org/2000/svg" width="619.176" height="1112.063" viewBox="0 0 619.176 1112.063"><path fill="#6B6957" d="M290.825 747.314h53.267l18.147 108.233h-89.56l18.145-108.233zm137.07 108.233L377.858 695.4H252.41l-48.035 160.146H177.54v43.164h273.146v-43.164h-22.792zM242.956 661.618h144.36v30.37h-144.36zM290.825 161.2h41.525l13.74 267.626 24.658 230.16H260.516l20.086-230.747M339.627 158.147h-59.085l-3.338-17.966h65.775M306.852 80.163h6.224l24.145 28.776 1.054 28.19h-56.56l.707-28.19M306.04 0h7.923v77.397h-7.923zM205.85 1062.615c0-54.2 52.967-98.13 118.337-98.13 65.354 0 118.336 43.93 118.336 98.13 0 11.456-2.406 22.49-6.81 32.715h-223.05c-4.347-10.268-6.812-21.26-6.812-32.715zm344.56 32.715l-99.724-193.568h-267.1L87.8 1095.33H0v16.733h619.176v-16.733H550.41z"/></svg>