<svg xmlns="http://www.w3.org/2000/svg" width="1151.004" height="2011.061" viewBox="0 0 1151.004 2011.061"><path fill="#6B6957" d="M982.077 215.097c-93.36 0-168.995 88.2-168.995 196.933 0 8.93.522 17.557 1.498 26.157H492.548L367.248 0 0 109.064l8.33 41.454 336.13-99.83L455.3 438.185H271.844c-9.76 0-17.546 9.592-17.546 21.333l234.526 683.242c0 11.824 7.877 21.306 17.637 21.306h119.17v721.252c0 .33.09.634.09.965l-213.075 48.896c-9.738 0-17.546 9.564-17.546 21.306v33.268c0 11.852 7.877 21.306 17.546 21.306H908.94c9.738 0 17.637-9.563 17.637-21.305v-33.268c0-11.742-7.9-21.306-17.637-21.306l-220.976-50.602V1164.18h130.883c9.738 0 17.546-9.592 17.546-21.333L1021.46 603.56c74.294-20.672 129.544-98.508 129.544-191.53.16-108.734-75.566-196.933-168.927-196.933z"/></svg>