<svg xmlns="http://www.w3.org/2000/svg" width="198" height="198" viewBox="0 0 198 198">
  <g id="_198_198" data-name="198*198" transform="translate(-171 -130)">
    <rect id="Rectangle_3816" data-name="Rectangle 3816" width="198" height="198" transform="translate(171 130)" fill="#eaedef"/>
    <g id="Placeholder_icon" data-name="Placeholder icon" transform="translate(246.375 206.5)">
      <rect id="Rectangle_3548" data-name="Rectangle 3548" width="37.125" height="37.35" transform="translate(4.5 4.5)" fill="#fff"/>
      <g id="_001-insert-picture-icon" data-name="001-insert-picture-icon" transform="translate(0 0)">
        <path id="Path_21712" data-name="Path 21712" d="M41.908,9.35H5.344A5.338,5.338,0,0,0,0,14.673V48.131a5.335,5.335,0,0,0,5.344,5.317H41.908a5.332,5.332,0,0,0,5.342-5.317V14.673A5.335,5.335,0,0,0,41.908,9.35ZM30.555,17.267a5.139,5.139,0,1,1-5.162,5.139,5.139,5.139,0,0,1,5.162-5.139ZM40.233,48.53H7.756a1.455,1.455,0,0,1-1.417-2.295L15.2,28.768a1.494,1.494,0,0,1,2.731-.253L26.836,40.1a2.19,2.19,0,0,0,3.383.213l2.179-2.2a2.08,2.08,0,0,1,3.294.277l5.643,8.025C42.15,47.588,41.658,48.53,40.233,48.53Z" transform="translate(0 -9.35)" fill="#c2cbd2"/>
      </g>
    </g>
  </g>
</svg>
