<?xml version="1.0" encoding="UTF-8"?>
<svg width="1920px" height="960px" viewBox="0 0 1920 960" version="1.1" xmlns="http://www.w3.org/2000/svg" xmlns:xlink="http://www.w3.org/1999/xlink">
    <!-- Generator: Sketch 61.2 (89653) - https://sketch.com -->
    <title>Deploy Nestjs with Prisma to Heroku</title>
    <desc>Created with Sketch.</desc>
    <defs>
        <radialGradient cx="50%" cy="50%" fx="50%" fy="50%" r="74.309%" gradientTransform="translate(0.500000,0.500000),scale(1.000000,0.901198),translate(-0.500000,-0.500000)" id="radialGradient-1">
            <stop stop-color="#844DB8" offset="0%"></stop>
            <stop stop-color="#5B16A3" offset="100%"></stop>
        </radialGradient>
        <linearGradient x1="17.564881%" y1="94.375%" x2="87.2455257%" y2="-0.956%" id="linearGradient-2">
            <stop stop-color="#7673C0" stop-opacity="0.5" offset="0%"></stop>
            <stop stop-color="#7673C0" stop-opacity="0" offset="100%"></stop>
        </linearGradient>
        <linearGradient x1="9.95664319%" y1="94.375%" x2="95.9821304%" y2="-0.956%" id="linearGradient-3">
            <stop stop-color="#7673C0" stop-opacity="0.5" offset="0%"></stop>
            <stop stop-color="#7673C0" stop-opacity="0" offset="100%"></stop>
        </linearGradient>
        <linearGradient x1="50%" y1="100%" x2="50%" y2="3.061617e-15%" id="linearGradient-4">
            <stop stop-color="#55F3DE" offset="0%"></stop>
            <stop stop-color="#55B9F3" offset="82.4236727%"></stop>
            <stop stop-color="#556AF3" offset="100%"></stop>
        </linearGradient>
    </defs>
    <g id="Deploy-Nestjs-with-Prisma-to-Heroku" stroke="none" stroke-width="1" fill="none" fill-rule="evenodd">
        <rect fill="#121212" x="0" y="0" width="1920" height="960"></rect>
        <g id="prisma" transform="translate(570.000000, 521.000000)" fill="#FFFFFF">
            <path d="M257.533592,274.446137 L102.448236,320.398903 C97.7103333,321.804517 93.169394,317.698502 94.165001,312.908602 L149.568239,47.0899618 C150.604318,42.1162507 157.462944,41.3296475 159.626838,45.9330334 L262.209438,264.168125 C264.143991,268.287656 261.936928,273.143241 257.533592,274.446137 Z M284.128442,263.603177 L165.352523,10.9142956 L165.352523,10.9088893 C162.373796,4.59173557 156.157323,0.42355209 149.112526,0.0343045907 C141.884257,-0.387379074 135.408764,3.10502844 131.755507,9.04915387 L2.93628745,218.080204 C-1.05422965,224.597388 -0.97598411,232.631012 3.1629297,239.0644 L66.1317828,336.790525 C69.8821724,342.623823 76.3873447,346 83.1461404,346 C85.061807,346 86.9882662,345.726987 88.8823478,345.164741 L271.663118,291.005352 C277.261721,289.348349 281.840434,285.377489 284.236367,280.119952 C286.624205,274.854306 286.586431,268.833683 284.128442,263.603177 Z" id="Shape"></path>
        </g>
        <g id="nestjs" transform="translate(539.000000, 45.000000)" fill="#E0234E">
            <path d="M204.317583,0 C201.808423,0 199.47849,0.538256964 197.327758,1.25589405 C201.898009,4.30591828 204.407183,8.34275319 205.661805,12.9177895 C205.751668,13.5457275 205.930646,13.994284 206.020371,14.6222012 C206.110235,15.1604582 206.199488,15.6986957 206.199488,16.2369499 C206.55811,24.1311313 204.138341,25.1179045 202.43572,29.7826622 C199.836918,35.7930435 200.553801,42.2519271 203.690286,47.4549376 C203.959141,48.0828589 204.317583,48.800514 204.76568,49.4284701 C201.360326,26.7326351 220.268781,23.3237743 223.763652,16.2369499 C224.032493,10.0471649 218.924559,5.92064891 214.891977,3.05002701 C211.038609,0.717656517 207.54364,0 204.317583,0 L204.317583,0 Z M232.81461,5.11329192 C232.456016,7.17654435 232.724885,6.63830404 232.635535,7.71479714 C232.54581,8.43243561 232.54581,9.32952639 232.456446,10.0471649 C232.277357,10.7648228 232.097824,11.4824612 231.829121,12.2001511 C231.650046,12.9177895 231.381065,13.6354461 231.112238,14.3530831 C230.753616,15.0707744 230.484941,15.6986957 230.126485,16.4163508 C229.857658,16.7753262 229.67843,17.1339893 229.409588,17.4928439 C229.230499,17.761962 229.050994,18.0310815 228.871919,18.3001995 C228.423864,18.9281722 227.975767,19.5560936 227.527725,20.0943297 C226.990014,20.6325867 226.541959,21.2605066 225.914634,21.7090784 C225.914634,21.7988969 225.914634,21.7988969 225.914634,21.7988969 C225.376965,22.2474339 224.839282,22.7856715 224.212012,23.2341919 C222.330121,24.6694855 220.17943,25.7459772 218.207911,27.0915883 C217.580656,27.5401087 216.953317,27.8989648 216.415662,28.4371995 C215.788379,28.8857199 215.250682,29.3342403 214.713026,29.8724945 C214.085702,30.410732 213.637646,30.9489862 213.099949,31.5769409 C212.651894,32.1151965 212.114225,32.7431206 211.755783,33.3710919 C211.307686,33.9990118 210.859644,34.6269693 210.501161,35.2549059 C210.142581,35.972543 209.873878,36.6005157 209.515423,37.3181555 C209.246595,38.0357926 208.977726,38.6637681 208.798526,39.3814038 C208.529684,40.1887788 208.350456,40.9064353 208.171229,41.6241085 C208.081504,41.9830812 208.081504,42.4314475 207.99214,42.790284 C207.902276,43.1492581 207.902276,43.5079225 207.813064,43.8667772 C207.813064,44.5844142 207.72334,45.3917893 207.72334,46.1094277 C207.72334,46.6476819 207.72334,47.1859181 207.813064,47.7241736 C207.813064,48.4418135 207.902789,49.1594534 208.081892,49.9668256 C208.171617,50.6844627 208.350706,51.4021192 208.529989,52.1198104 C208.798831,52.8374475 208.978058,53.555104 209.246872,54.2727425 C209.425989,54.7213157 209.694928,55.1698347 209.874197,55.5286366 L189.26312,47.5447324 C185.76818,46.5579579 182.362909,45.6609184 178.867968,44.8535434 C176.986105,44.4050244 175.104242,43.9564721 173.222351,43.5079336 C167.845533,42.4314586 162.379171,41.6241182 156.912739,41.0858821 C156.733664,41.0858821 156.643912,40.9960497 156.464684,40.9960497 C151.087852,40.4578136 145.800704,40.1886941 140.423914,40.1886941 C136.480904,40.1886941 132.537895,40.3679577 128.684525,40.6372145 C123.21811,40.9961886 117.751687,41.7137063 112.28531,42.6107457 C110.941099,42.7900272 109.596891,43.0593174 108.252679,43.3284383 C105.474678,43.8666397 102.786302,44.4946124 100.187512,45.1225671 C98.8433042,45.4815411 97.4990936,45.8402236 96.1548843,46.1990269 C94.8107181,46.7372616 93.5561379,47.3652371 92.3015134,47.9034732 C91.3157734,48.3519936 90.3300376,48.8005293 89.3442962,49.2490844 C89.1652086,49.3389168 88.9857021,49.3389168 88.8962408,49.428366 C88.0000884,49.876885 87.1935636,50.2356869 86.3870791,50.6842572 C86.1182362,50.7740896 85.9389793,50.8635221 85.7597669,50.9533781 C84.7740283,51.4018999 83.7882925,51.940136 82.9817636,52.3886717 C82.3544527,52.6577911 81.7271834,53.0166277 81.1895017,53.2857638 C80.9206573,53.4650274 80.5621866,53.6447212 80.3829742,53.7342842 C79.5764508,54.1828046 78.7699247,54.6313223 78.0530263,55.0798954 C77.2465002,55.5284144 76.5296018,55.9769348 75.9022909,56.4254552 C75.2750244,56.874027 74.647715,57.2328289 74.1100276,57.6813479 C74.0202474,57.7711802 73.93094,57.7711802 73.8411847,57.8606308 C73.3035029,58.2196035 72.6762336,58.667985 72.1385519,59.1165568 C72.1385519,59.1165568 72.0487855,59.2063753 71.9594628,59.2958356 C71.5114074,59.6548096 71.0633076,60.0134768 70.6152536,60.3722787 C70.4361673,60.4621111 70.2566581,60.6413968 70.0775704,60.7312513 C69.629515,61.0902281 69.1814596,61.5386264 68.7334028,61.8974616 C68.6436363,62.0767417 68.4645626,62.166581 68.3748073,62.256437 C67.8371241,62.7946745 67.2994396,63.2431935 66.7617564,63.7814491 C66.67199,63.7814491 66.67199,63.8712815 66.5826688,63.9607126 C66.0449856,64.4092497 65.5073038,64.9474886 64.9696207,65.4857428 C64.8798543,65.5755751 64.8798543,65.6650049 64.7905316,65.6650049 C64.3424762,66.1135267 63.8944208,66.5620971 63.4463224,67.1002985 C63.2672375,67.2795787 62.998267,67.4592753 62.8190545,67.638536 C62.3709991,68.1767916 61.8333145,68.7150291 61.2956328,69.2532847 C61.2058664,69.4325496 61.0267912,69.5224042 60.9370359,69.7018037 C60.2201361,70.4194949 59.5928252,71.1371334 58.8759282,71.8547885 C58.7861618,71.9446209 58.696842,72.0340479 58.607088,72.123908 C57.173251,73.6489187 55.6498265,75.1739308 54.0368173,76.5195323 C52.4237692,77.9548231 50.7211295,79.3004343 49.0184537,80.4666168 C47.2261876,81.7225483 45.523552,82.7989956 43.6416596,83.8754845 C41.8493935,84.8622244 39.9675025,85.7593263 37.9960253,86.5667069 C36.1141315,87.3740597 34.1426558,88.0917329 32.1711745,88.7196431 C28.407391,89.5269959 24.5540187,91.0520219 21.2383322,91.3211442 C20.5214352,91.3211442 19.7149091,91.500434 18.9980107,91.5902525 C18.1914888,91.7695285 17.4745904,91.9492349 16.7576934,92.1285247 C16.040795,92.3976192 15.3238564,92.6667553 14.6069566,92.9358637 C13.8900582,93.2049859 13.1731612,93.5638295 12.4562628,93.9226591 C11.828952,94.3711684 11.1120563,94.7300119 10.4847427,95.1785351 C9.85747065,95.6270583 9.23015977,96.1652889 8.69247523,96.7035472 C8.06520734,97.152112 7.43789646,97.78005 6.90021192,98.3182667 C6.36252739,98.9462603 5.82484562,99.4844909 5.37678964,100.112401 C4.92873408,100.830047 4.39104995,101.458026 4.03257954,102.175685 C3.58452412,102.803651 3.13646883,103.521283 2.77799842,104.2389 C2.41940222,105.046309 2.06110169,105.76394 1.79225887,106.571321 C1.52341743,107.288966 1.25457585,108.096319 0.985734279,108.9037 C0.806647736,109.621331 0.627138363,110.33899 0.53767913,111.056608 C0.53767913,111.146565 0.44792798,111.235912 0.44792798,111.325744 C0.268840051,112.133153 0.268840051,113.209655 0.179085295,113.747914 C0.0893341447,114.375838 0,114.914055 0,115.542034 C0,115.901003 0,116.349359 0.0897511501,116.708189 C0.1795023,117.336169 0.268836168,117.874399 0.448347204,118.412685 C0.627433747,118.950846 0.806943398,119.489105 1.07561662,120.027363 C1.07561662,120.117182 1.07561662,120.117182 1.07561662,120.117182 C1.34445806,120.655468 1.70292833,121.193684 2.06135631,121.731929 C2.41995236,122.270173 2.77829546,122.808418 3.22635089,123.346676 C3.67440618,123.795199 4.21209072,124.333402 4.74977317,124.781953 C5.28745757,125.320198 5.82514239,125.768721 6.45241028,126.217244 C8.60314427,128.101114 9.14082743,128.729079 11.9188362,130.164356 C12.3668875,130.433492 12.8149887,130.612907 13.3526719,130.882029 C13.4424383,130.882029 13.5317595,130.971848 13.621512,130.971848 C13.621512,131.15111 13.621512,131.240984 13.7112784,131.420427 C13.801031,132.138086 13.9801186,132.855704 14.1593339,133.573377 C14.3384201,134.380743 14.6074323,135.098417 14.8762739,135.726341 C15.1451154,136.264599 15.3243293,136.802816 15.5931722,137.341088 C15.6829248,137.520378 15.7722613,137.700056 15.8620138,137.789611 C16.2206093,138.507243 16.5789108,139.13525 16.9373385,139.763146 C17.3854369,140.391084 17.833491,141.019022 18.281545,141.647016 C18.7296032,142.185233 19.2672878,142.813185 19.8049695,143.351415 C20.3426541,143.889674 20.8803386,144.338211 21.5076509,144.876413 C21.5076509,144.876413 21.5974173,144.966371 21.6867357,144.966371 C22.2244217,145.414936 22.762102,145.863473 23.299788,146.222247 C23.9270572,146.670798 24.5543681,147.0296 25.2712637,147.388457 C25.898576,147.747425 26.6154744,148.106102 27.3323714,148.375238 C27.8700559,148.644361 28.4973238,148.823789 29.1246375,149.00319 C29.2144039,149.093148 29.3037237,149.093148 29.4832344,149.182494 C29.8418299,149.272451 30.2897147,149.361742 30.6481854,149.451589 C30.3793452,154.295747 30.2895885,158.870783 31.0067837,160.485545 C31.8132668,162.279665 35.7562641,156.807555 39.6992642,150.528091 C39.1615824,156.717861 38.8031103,163.984064 39.6992642,166.137084 C40.6850014,168.3797 46.0617954,161.382577 50.7216897,153.667795 C114.257475,138.955932 172.237333,182.912245 178.331006,244.989343 C177.166026,235.300998 165.247466,229.918609 159.78109,231.264234 C157.09266,237.902513 152.522395,246.424648 145.174128,251.717358 C145.801411,245.796696 145.532695,239.696662 144.278003,233.775986 C142.306485,242.029027 138.453103,249.74385 133.165899,256.382129 L133.165899,256.382129 C124.652642,257.010053 116.139364,252.883526 111.658684,246.693798 C111.300087,246.424648 111.210627,245.886418 110.941785,245.527602 C110.672941,244.899594 110.404104,244.271712 110.224887,243.643732 C109.956047,243.015808 109.776833,242.387842 109.687205,241.759918 C109.597439,241.131939 109.597439,240.504001 109.597439,239.786369 C109.597439,239.337804 109.597439,238.889295 109.597439,238.440786 C109.687205,237.812778 109.86628,237.18484 110.045496,236.556888 C110.224582,235.928964 110.40409,235.300998 110.672806,234.673047 C111.031403,234.045136 111.300076,233.417171 111.748174,232.789246 C113.271596,228.483263 113.271596,224.984729 110.493594,222.921487 C109.955909,222.562518 109.418226,222.293507 108.790915,222.024385 C108.432316,221.934566 107.984388,221.755263 107.625963,221.66543 C107.35712,221.575612 107.177908,221.486126 106.909065,221.396294 C106.281752,221.217018 105.65444,221.037312 105.027171,220.947771 C104.39986,220.768509 103.772591,220.678649 103.14528,220.678649 C102.518009,220.588691 101.801068,220.499373 101.1738,220.499373 C100.725746,220.499373 100.277647,220.589191 99.8295906,220.589191 C99.112695,220.589191 98.4853841,220.679148 97.8581121,220.858313 C97.2308012,220.948271 96.6035333,221.037576 95.9762224,221.217254 C95.3489504,221.396544 94.7216381,221.576236 94.0943272,221.845262 C93.4670593,222.11437 92.9293734,222.383492 92.3020653,222.652614 C91.7644238,222.92175 91.2267378,223.280538 90.5994283,223.549661 C69.7195227,237.18509 82.175788,269.12072 96.4242792,278.360528 C91.0474824,279.347296 85.5811036,280.513534 84.0576791,281.679675 C83.9679127,281.769493 83.8785928,281.858965 83.8785928,281.858965 C87.7319638,284.191316 91.7645513,286.164879 95.9763472,287.869292 C101.711613,289.753147 107.805302,291.457574 110.493719,292.175248 C110.493719,292.175248 110.493719,292.265066 110.493719,292.265066 C117.931619,293.790092 125.45915,294.328337 133.076271,293.879813 C172.774975,291.098897 205.304597,260.867666 211.219084,221.037853 C211.398173,221.845234 211.577679,222.562851 211.756768,223.370246 L211.756768,223.370246 C212.025623,224.984924 212.384037,226.689365 212.563251,228.393792 C212.563251,228.393792 212.563251,228.393792 212.563251,228.483749 C212.74234,229.291116 212.832092,230.098468 212.921845,230.816114 C212.921845,230.99539 212.921845,231.085236 212.921845,231.175096 C213.011708,231.982449 213.100948,232.78983 213.100948,233.507461 C213.190673,234.494243 213.280037,235.480996 213.280037,236.46782 C213.280037,236.916343 213.280037,237.36488 213.280037,237.90311 C213.280037,238.351675 213.369762,238.889864 213.369762,239.338429 C213.369762,239.876687 213.280037,240.41489 213.280037,240.953135 C213.280037,241.401713 213.280037,241.850223 213.280037,242.209024 C213.280037,242.837004 213.190173,243.375221 213.190173,244.003173 C213.190173,244.362113 213.190173,244.720832 213.100448,245.169369 C213.100448,245.797349 213.010724,246.425245 213.010724,247.142904 C212.92086,247.412027 212.92086,247.681149 212.92086,247.950285 C212.831135,248.667944 212.741771,249.295896 212.652005,250.013555 C212.652005,250.282692 212.652005,250.551786 212.56228,250.820936 C212.472416,251.717968 212.293452,252.525363 212.203727,253.422395 C212.203727,253.422395 212.203727,253.512353 212.203727,253.512353 L212.203727,253.602171 C212.024638,254.409524 211.845106,255.306584 211.666003,256.113937 C211.666003,256.203756 211.666003,256.293213 211.666003,256.383073 C211.486941,257.190412 211.307409,257.997807 211.128347,258.805132 C211.128347,258.895089 211.038622,259.074268 211.038622,259.164072 C210.859506,259.971467 210.680001,260.77882 210.411353,261.586228 C210.411353,261.676046 210.411353,261.765476 210.411353,261.855322 C210.142512,262.752355 209.873656,263.559735 209.694415,264.367102 C209.60469,264.456921 209.60469,264.546378 209.60469,264.546378 C209.335834,265.443466 209.06702,266.340513 208.798207,267.237573 C208.439613,268.134661 208.17091,268.942014 207.812468,269.839088 C207.453888,270.736162 207.185143,271.633236 206.826702,272.440575 C206.468094,273.337677 206.109777,274.145043 205.751349,275.042076 C205.751349,275.042076 205.661486,275.042076 205.661486,275.042076 C205.302864,275.849429 204.944533,276.746531 204.49645,277.553911 C204.49645,277.553911 204.49645,277.553911 204.49645,277.553911 C204.49645,277.553911 204.49645,277.553911 204.49645,277.553911 C204.406725,277.822992 204.317389,278.002434 204.227636,278.181808 C204.137912,278.271765 204.137912,278.361084 204.048547,278.450958 C198.223702,290.202517 189.620785,300.5188 178.867233,308.59244 L178.867233,308.59244 C178.150336,309.040963 177.433412,309.579221 176.716528,310.117438 C176.716528,310.117438 176.716528,310.117438 176.716528,310.117438 C176.537426,310.296728 176.268431,310.386588 176.089218,310.565961 C175.461907,311.014498 174.834624,311.463007 174.117754,311.911586 L174.386582,312.449831 L174.476307,312.449831 L174.476307,312.449831 C175.730873,312.270569 176.985467,312.090862 178.240061,311.911586 L178.329786,311.911586 C180.659746,311.552618 182.989693,311.104219 185.319653,310.655696 C185.946908,310.565739 186.663861,310.386588 187.291116,310.207131 C187.739172,310.117174 188.097641,310.027869 188.545696,309.938009 C189.173007,309.848052 189.80029,309.668887 190.427615,309.579055 C190.965271,309.399779 191.502968,309.309905 192.040637,309.130518 C201.001953,306.977526 209.69447,304.017181 218.028448,300.518648 C203.779983,319.985003 184.692328,335.683717 162.37863,346 C172.684182,345.282341 182.989693,343.577928 192.936762,340.707318 C229.050925,330.03215 259.429801,305.721636 277.62129,272.978639 C273.947149,293.70094 265.70273,313.436432 253.515342,330.660158 C262.207817,324.918869 270.183395,318.280576 277.442076,310.745209 C297.515441,289.753828 310.688623,263.110935 315.169247,234.494395 C318.216118,248.668083 319.112256,263.29035 317.768049,277.733118 C382.468839,187.398337 323.144839,93.7444104 298.32198,69.0750374 C298.232116,68.8957711 298.142891,68.8059179 298.142891,68.6265156 C298.053027,68.7163341 298.053027,68.7163341 298.053027,68.8057971 C298.053027,68.7159648 298.053027,68.7159648 297.963303,68.6265156 C297.963303,69.7030073 297.873578,70.7794491 297.784214,71.8559422 C297.515358,73.9191987 297.246544,75.8927465 296.888061,77.8663235 C296.44002,79.8398588 295.902323,81.8133663 295.364626,83.7869571 C294.737356,85.6707711 294.020487,87.6443203 293.213935,89.5281898 C292.40741,91.3222964 291.511271,93.206152 290.525533,95.0003142 C289.53978,96.704755 288.464428,98.4988754 287.299475,100.113581 C286.134495,101.81805 284.879901,103.432741 283.625293,104.957726 C282.281072,106.572487 280.847305,108.007806 279.41347,109.44311 C278.517359,110.250477 277.710848,110.968122 276.814668,111.68574 C276.097785,112.31372 275.470501,112.851978 274.753563,113.479874 C273.140541,114.735778 271.527506,115.901974 269.735256,116.978477 C268.032593,118.054938 266.240371,119.131427 264.448094,120.028515 C262.566203,120.925576 260.684312,121.732928 258.802449,122.540309 C256.920558,123.257927 254.94908,123.885892 252.977534,124.424151 C251.006071,124.962368 248.94498,125.410918 246.973475,125.769734 C244.912398,126.128703 242.851279,126.307965 240.879788,126.487407 C239.445966,126.577226 238.012172,126.666697 236.578336,126.666697 C234.517218,126.666697 232.456154,126.487407 230.48465,126.307729 C228.423558,126.128453 226.362426,125.859136 224.390949,125.410613 C222.329844,125.051645 220.358325,124.513525 218.386834,123.885629 L218.297109,123.885629 C220.2686,123.706353 222.240105,123.526632 224.211624,123.167956 C226.272687,122.808987 228.244178,122.360617 230.215697,121.82233 C232.187174,121.2841 234.158665,120.656134 236.040542,119.938503 C238.012019,119.220843 239.893924,118.323811 241.686202,117.426695 C243.568065,116.529607 245.270728,115.542867 247.062978,114.466378 C248.765613,113.300196 250.468277,112.134027 252.081312,110.878096 C253.694362,109.62222 255.217756,108.276636 256.651619,106.841318 C258.175041,105.495679 259.519221,103.97068 260.863429,102.445654 C262.207595,100.830977 263.462203,99.2162432 264.627183,97.6015098 C264.806286,97.3323737 264.985791,96.9735857 265.164894,96.7044496 C266.060991,95.269131 266.957102,93.8338263 267.763613,92.3984938 C268.749379,90.6043595 269.645531,88.8102112 270.452028,86.9264111 C271.258567,85.0425555 271.975478,83.1586859 272.602775,81.1851645 C273.230044,79.301295 273.678113,77.3277736 274.126197,75.3542411 C274.484804,73.2909734 274.84308,71.3173937 275.022321,69.3438611 C275.20141,67.2806129 275.380901,65.2173438 275.380901,63.2438141 C275.380901,61.8084844 275.291038,60.3731908 275.20184,58.9378958 C275.022737,56.8746448 274.753757,54.9010623 274.484929,52.9275284 C274.126321,50.8642621 273.678418,48.8907323 273.140708,46.9171471 C272.513452,45.0333317 271.886127,43.0597644 271.169244,41.1759518 C270.452292,39.2920851 269.556209,37.4082378 268.660028,35.6140881 C267.67429,33.8199566 266.688565,32.025825 265.613213,30.3214119 C264.448246,28.6169989 263.283239,27.0022696 262.028658,25.3875223 C260.684492,23.8625088 259.340284,22.3374981 257.906435,20.812486 C257.189552,20.0948448 256.383013,19.2874711 255.576502,18.569834 C251.54392,15.4300746 247.332083,12.4697314 243.120287,9.77854655 C242.493004,9.41958641 241.95532,9.15059189 241.32801,8.88145578 C238.370752,6.997639 235.59275,6.0108311 232.814762,5.11329192 L232.81461,5.11329192 Z" id="path818"></path>
        </g>
        <g id="Heroku" transform="translate(1060.000000, 45.000000)" fill-rule="nonzero">
            <g id="b-link" fill="url(#radialGradient-1)">
                <path d="M270.9,0 C287.521889,0 301,13.4602 301,30.06 L301,30.06 L301,303.94 C301,320.5398 287.521889,334 270.9,334 L270.9,334 L30.1,334 C13.4781111,334 -2.97046338e-14,320.5398 -2.97046338e-14,303.94 L-2.97046338e-14,303.94 L-2.97046338e-14,30.06 C-2.97046338e-14,13.4602 13.4781111,0 30.1,0 L30.1,0 L270.9,0 Z M75.25,217.1 L75.25,283.9 L112.875,250.5 L75.25,217.1 Z M108.694444,50.1 L75.25,50.1 L75.25,194.9391 L98.8743194,184.2511 L99.1487934,184.129456 C102.662278,182.584623 138.920735,167 171.402778,167 C188.384194,167 192.142514,176.364525 192.305556,184.15925 L192.305556,184.15925 L192.305556,283.9 L225.751301,283.9 L225.751301,183.349011 C225.729896,180.026993 224.97503,162.44925 211.189125,148.525625 C204.450069,141.7162 192.075625,133.6 171.402778,133.6 C148.731625,133.6 125.391583,139.490925 108.694444,144.918425 L108.694444,144.918425 L108.694444,50.1 Z M192.305556,50.1 L192.305556,50.1 L191.841152,52.36766 C187.950286,70.4779011 179.840142,87.842 167.222222,104.375 L167.222222,104.375 L200.666667,104.375 L202.154516,102.659698 C216.299241,86.0442078 223.56775,68.4388265 225.75,50.1 L225.75,50.1 L192.305556,50.1 Z" id="b"></path>
            </g>
            <g id="b-link" fill="url(#linearGradient-3)">
                <path d="M270.9,0 C287.521889,0 301,13.4602 301,30.06 L301,30.06 L301,303.94 C301,320.5398 287.521889,334 270.9,334 L270.9,334 L30.1,334 C13.4781111,334 -2.97046338e-14,320.5398 -2.97046338e-14,303.94 L-2.97046338e-14,303.94 L-2.97046338e-14,30.06 C-2.97046338e-14,13.4602 13.4781111,0 30.1,0 L30.1,0 L270.9,0 Z M75.25,217.1 L75.25,283.9 L112.875,250.5 L75.25,217.1 Z M108.694444,50.1 L75.25,50.1 L75.25,194.9391 L98.8743194,184.2511 L99.1487934,184.129456 C102.662278,182.584623 138.920735,167 171.402778,167 C188.384194,167 192.142514,176.364525 192.305556,184.15925 L192.305556,184.15925 L192.305556,283.9 L225.751301,283.9 L225.751301,183.349011 C225.729896,180.026993 224.97503,162.44925 211.189125,148.525625 C204.450069,141.7162 192.075625,133.6 171.402778,133.6 C148.731625,133.6 125.391583,139.490925 108.694444,144.918425 L108.694444,144.918425 L108.694444,50.1 Z M192.305556,50.1 L192.305556,50.1 L191.841152,52.36766 C187.950286,70.4779011 179.840142,87.842 167.222222,104.375 L167.222222,104.375 L200.666667,104.375 L202.154516,102.659698 C216.299241,86.0442078 223.56775,68.4388265 225.75,50.1 L225.75,50.1 L192.305556,50.1 Z" id="b"></path>
            </g>
        </g>
        <g id="PostgreSQL" transform="translate(1039.000000, 512.000000)">
            <path d="M264.549252,265.348005 C267.005247,244.928115 266.269228,241.933613 281.508881,245.241322 L285.377962,245.580485 C297.096171,246.112591 312.425117,243.699512 321.430721,239.523995 C340.816871,230.546545 352.31228,215.557596 333.196611,219.496046 C289.592946,228.473495 286.595123,213.738054 286.595123,213.738054 C332.638312,145.556678 351.885753,59.0068326 335.272026,37.8212286 C289.957921,-19.9654784 211.520391,7.36054186 210.207869,8.07001647 L209.790011,8.14702042 C201.174523,6.36295134 191.532597,5.297009 180.701251,5.12223599 C160.969199,4.79864635 145.996559,10.2849616 134.63899,18.8825826 C134.63899,18.8825826 -5.28944224,-38.6523474 1.22028838,91.2386102 C2.60476565,118.870051 40.905458,300.321643 86.5862724,245.514729 C103.282357,225.473802 119.417543,208.528607 119.417543,208.528607 C127.429652,213.841014 137.022164,216.550861 147.082814,215.577496 L147.860445,214.915608 C147.616839,217.403961 147.724338,219.837805 148.17167,222.718964 C136.405781,235.841649 139.863073,238.145711 116.335629,242.97879 C92.5325026,247.87503 106.51685,256.59205 115.64469,258.870156 C126.713573,261.632781 152.319901,265.546139 169.6263,241.37209 L168.937096,244.130389 C173.553465,247.816196 173.241372,270.622343 173.8959,286.916899 C174.551294,303.212319 175.644485,318.418437 178.972605,327.383773 C182.300726,336.347379 186.22789,359.439912 217.14846,352.826225 C242.990591,347.299244 262.748651,339.344477 264.549252,265.34714" id="Path" stroke="#000000" stroke-width="37.3953" fill="#000000" fill-rule="nonzero"></path>
            <path d="M333.201491,219.472202 C289.593973,228.448691 286.596184,213.714825 286.596184,213.714825 C332.638864,145.536413 351.886093,58.994089 335.276017,37.8133451 C289.962412,-19.963724 211.522281,7.36110535 210.213241,8.07050412 L209.79192,8.14576959 C201.176527,6.36102611 191.534707,5.29779308 180.69828,5.12130851 C160.966446,4.79861858 145.999172,10.2834822 134.641729,18.8784539 C134.641729,18.8784539 -5.28775847,-38.6477303 1.22016642,91.2284769 C2.60462839,118.858694 40.9040308,300.290889 86.5860745,245.489834 C103.282842,225.451049 119.415248,208.507665 119.415248,208.507665 C127.428136,213.819505 137.020542,216.529062 147.076746,215.555801 L147.857836,214.893984 C147.6151,217.382071 147.726065,219.815655 148.170792,222.696506 C136.402432,235.817787 139.860553,238.121603 116.335102,242.954166 C92.5305051,247.849883 106.514698,256.565971 115.645038,258.843833 C126.713799,261.606163 152.321577,265.519103 169.624318,241.347637 L168.934254,244.105641 C173.545371,247.791054 176.783295,268.078994 176.240607,286.469725 C175.697919,304.86132 175.335549,317.487753 178.968786,327.350126 C182.602023,337.212499 186.223124,359.402839 217.149421,352.789858 C242.991267,347.263469 256.38249,332.942265 258.245489,309.053694 C259.567533,292.070514 262.559254,294.581094 262.748241,279.397365 L265.14786,272.209079 C267.91505,249.187359 265.587385,241.7603 281.508264,245.214726 L285.377302,245.553853 C297.095382,246.085902 312.431961,243.673081 321.433131,239.49801 C340.815598,230.52152 352.310881,215.534173 333.199757,219.472202 L333.201491,219.472202 Z" id="Path" fill="#336791" fill-rule="nonzero"></path>
            <path d="M171.400512,233 C170.198473,275.833358 171.70254,318.965155 175.907507,329.447719 C180.115077,339.930283 189.119521,360.319293 220.083524,353.707787 C245.952096,348.180177 255.364452,337.483083 259.448781,313.871795 C262.456916,296.500047 268.256211,248.254994 269,238.370173" id="Path" stroke="#FFFFFF" stroke-width="12.4651" stroke-linecap="round" stroke-linejoin="round"></path>
            <path d="M135,17.5161721 C135,17.5161721 -5.30196975,-39.644165 1.22057215,90.3424384 C2.6077741,117.996141 40.9855803,299.588617 86.7571641,244.738383 C103.483501,224.679967 118.610691,208.948233 118.610691,208.948233" id="Path" stroke="#FFFFFF" stroke-width="12.4651" stroke-linecap="round" stroke-linejoin="round"></path>
            <path d="M210.203858,7.043499 C205.357051,8.56210182 288.092593,-23.1804222 335.112083,36.8585323 C351.720914,58.068727 332.474123,144.727845 286.433357,213" id="Path" stroke="#FFFFFF" stroke-width="12.4651" stroke-linecap="round" stroke-linejoin="round"></path>
            <path d="M286.588421,213.027405 C286.588421,213.027405 289.589161,227.79499 333.202638,218.79453 C352.311657,214.848648 340.811565,229.867618 321.431169,238.866344 C305.525771,246.24667 269.866295,248.138127 269.28366,237.939686 C267.784591,211.626582 288.051943,219.620634 286.589288,213.027405 C285.267089,207.089511 276.20331,201.261707 270.207899,186.729037 C264.973727,174.044482 198.42249,76.770513 288.664056,91.2173652 C291.969985,90.5334238 265.128055,5.39789671 180.674685,4.01354396 C96.2403888,2.6291912 99.010503,107.828731 99.010503,107.828731" id="Path" stroke="#FFFFFF" stroke-width="12.4651" stroke-linecap="round" stroke-linejoin="bevel"></path>
            <path d="M148.273006,221.815127 C136.430711,234.924405 139.913534,237.226265 116.242028,242.056454 C92.2914067,246.948879 106.363127,255.655839 115.546859,257.930903 C126.683518,260.692617 152.448381,264.602235 169.857262,240.445239 C175.158688,233.090178 169.825861,221.354409 162.543596,218.362769 C159.025011,216.91838 154.320192,215.108356 148.273006,221.815127 L148.273006,221.815127 Z" id="Path" stroke="#FFFFFF" stroke-width="12.4651" stroke-linecap="round" stroke-linejoin="round"></path>
            <path d="M146.608523,222 C145.427345,214.282948 149.138387,205.099855 153.115367,194.356389 C159.092063,178.236862 172.881979,162.11474 161.850737,110.981588 C153.628248,72.877507 98.4780816,103.05164 98.4435442,108.218266 C98.4098703,113.383161 100.938007,134.406221 97.5222594,158.887546 C93.0652093,190.833217 117.802614,217.851122 146.288189,215.086934" id="Path" stroke="#FFFFFF" stroke-width="12.4651" stroke-linecap="round" stroke-linejoin="round"></path>
            <path d="M134.012254,107.147301 C133.769763,108.832721 137.155381,113.330208 141.569903,113.93114 C145.976848,114.534552 149.748937,111.019883 149.98806,109.336116 C150.227184,107.650695 146.845776,105.79417 142.429569,105.190758 C138.020099,104.586519 134.246326,105.466013 134.013096,107.147301 L134.012254,107.147301 Z" id="Path" stroke="#FFFFFF" stroke-width="4.155" fill="#FFFFFF" fill-rule="nonzero"></path>
            <path d="M271.988064,103.147045 C272.227113,104.832528 268.846763,109.330183 264.432782,109.931137 C260.02385,110.534572 256.252943,107.019772 256.011369,105.335942 C255.778212,103.650458 259.159403,101.793863 263.569176,101.190429 C267.97895,100.586994 271.749015,101.465694 271.988064,103.147871 L271.988064,103.147045 Z" id="Path" stroke="#FFFFFF" stroke-width="2.0775" fill="#FFFFFF" fill-rule="nonzero"></path>
            <path d="M287.899164,91 C288.663363,104.907937 284.848567,114.381056 284.367733,129.186392 C283.65578,150.706563 294.815916,175.338064 278,200" id="Path" stroke="#FFFFFF" stroke-width="12.4651" stroke-linecap="round" stroke-linejoin="round"></path>
        </g>
        <g id="notiz" transform="translate(852.000000, 861.000000)">
            <g id="pencil-outline" transform="translate(23.500000, 25.500000) scale(-1, 1) translate(-23.500000, -25.500000) translate(0.000000, 2.000000)" stroke-linecap="round" stroke-linejoin="round" stroke-width="4">
                <polygon id="Path" stroke="url(#linearGradient-4)" points="36.7408965 7.49003984 2.81558198 41.4912527 0 47 5.50752318 44.184418 39.5099602 10.2591035"></polygon>
                <path d="M43.6205597,0.579481573 L40.8207171,3.37876346 L43.6205597,6.17928287 L46.4204024,3.37876346 C47.1931992,2.60561475 47.1931992,1.35263028 46.4204024,0.579481573 L46.4204024,0.579481573 C45.6470988,-0.193160524 44.3938633,-0.193160524 43.6205597,0.579481573 Z" id="Path" stroke="#556AF3"></path>
            </g>
            <path d="M70.2558989,50.8104089 L70.2558989,30.3478255 C70.2558989,26.8900278 71.2399729,24.1427365 73.2081209,22.1059516 C75.1762689,20.0691666 77.8004662,19.0507742 81.0807128,19.0507742 C83.8923528,19.0507742 85.9542221,19.8204894 87.2663208,21.3599199 C88.5784194,22.8993503 89.2344688,25.3269138 89.2344688,28.6426102 L89.2344688,28.6426102 L89.2344688,50.8104089 L94.9280397,50.8104089 L94.9280397,28.3584076 C94.9280397,18.9323564 90.6871494,14.2193309 82.2053688,14.2193309 C79.2062862,14.2193309 76.5586585,14.9653625 74.2624859,16.4574259 C72.4654812,17.6251277 71.0702913,19.220745 70.076916,21.2442779 L69.9610672,21.4862321 L69.4124069,15.0719385 L64,15.0719385 C64.2343033,16.7297867 64.3866005,18.3994767 64.4568915,20.0810084 C64.5271825,21.7625402 64.562328,23.4322301 64.562328,25.0900783 L64.562328,25.0900783 L64.562328,50.8104089 L70.2558989,50.8104089 Z M120.858561,51 C124.224576,51 127.158152,50.236793 129.659289,48.710379 C132.160425,47.183965 134.100559,45.0255202 135.47969,42.2350447 C136.858821,39.4445691 137.548387,36.1413138 137.548387,32.3252788 C137.548387,28.5569443 136.858821,25.2656141 135.47969,22.4512883 C134.100559,19.6369625 132.160425,17.4665926 129.659289,15.9401786 C127.158152,14.4137646 124.224576,13.6505576 120.858561,13.6505576 C117.492545,13.6505576 114.558969,14.4137646 112.057833,15.9401786 C109.556697,17.4665926 107.616563,19.6369625 106.237431,22.4512883 C104.8583,25.2656141 104.168734,28.5569443 104.168734,32.3252788 C104.168734,36.1413138 104.8583,39.4445691 106.237431,42.2350447 C107.616563,45.0255202 109.556697,47.183965 112.057833,48.710379 C114.558969,50.236793 117.492545,51 120.858561,51 Z M120.704842,46.6394052 C117.218131,46.6394052 114.533363,45.4592375 112.650539,43.098902 C110.767715,40.7385666 109.826303,37.2934305 109.826303,32.7634938 C109.826303,28.3289242 110.79096,24.9195508 112.720273,22.5353736 C114.649587,20.1511964 117.31111,18.9591078 120.704842,18.9591078 C124.098575,18.9591078 126.748475,20.1511964 128.654544,22.5353736 C130.560613,24.9195508 131.513648,28.3289242 131.513648,32.7634938 C131.513648,37.2934305 130.572236,40.7385666 128.689411,43.098902 C126.806587,45.4592375 124.145064,46.6394052 120.704842,46.6394052 Z M158.863816,51 C159.80577,51 160.665304,50.9406345 161.442417,50.8219036 C162.21953,50.7031727 163.008417,50.5250762 163.809079,50.2876144 L163.809079,50.2876144 L163.809079,45.3721535 C163.102613,45.6096153 162.466793,45.7758387 161.90162,45.8708234 C161.336447,45.9658082 160.700628,46.0133005 159.994161,46.0133005 C158.816718,46.0133005 157.757018,45.8114579 156.815063,45.4077727 C155.873109,45.0040875 155.131319,44.2798288 154.589695,43.2349965 C154.048071,42.1901643 153.777259,40.7179006 153.777259,38.8182056 L153.777259,38.8182056 L153.777259,19.2276006 L163.950372,19.2276006 L163.950372,14.6683325 L153.777259,14.6693219 L153.777259,3.41263941 L148.054882,5.47855775 L148.054882,14.6693219 L141.131514,14.6683325 L141.131514,19.2276006 L148.054882,19.2276006 L148.054882,39.6018298 C148.054882,43.2655274 148.963602,46.0460121 150.78104,47.9432841 L150.986717,48.1504574 C152.941274,50.0501525 155.566973,51 158.863816,51 Z M177.151365,6.44609665 L177.151365,0 L170.173697,0 L170.173697,6.44609665 L177.151365,6.44609665 Z M176.962779,50.8104089 L176.962779,14.7881041 L171.493797,14.7881041 L171.493797,50.8104089 L176.962779,50.8104089 Z M216,50.8104089 L216,46.227054 L193.076088,46.227054 L215.223915,19.0133844 L215.223915,14.7881041 L186.790974,14.7881041 L186.790974,19.371459 L208.360656,19.371459 L186.014888,46.7999734 L186.014888,50.8104089 L216,50.8104089 Z" fill="#FFFFFF" fill-rule="nonzero"></path>
        </g>
    </g>
</svg>