<svg xmlns="http://www.w3.org/2000/svg" width="96" height="96" viewBox="0 0 96 96">
  <g id="_96_96" data-name="96*96" transform="translate(-171 -130)">
    <rect id="Rectangle_3816" data-name="Rectangle 3816" width="96" height="96" transform="translate(171 130)" fill="#eaedef"/>
    <g id="Placeholder_icon" data-name="Placeholder icon" transform="translate(207.545 167.091)">
      <rect id="Rectangle_3548" data-name="Rectangle 3548" width="18" height="18.109" transform="translate(2.182 2.182)" fill="#fff"/>
      <g id="_001-insert-picture-icon" data-name="001-insert-picture-icon" transform="translate(0 0)">
        <path id="Path_21712" data-name="Path 21712" d="M20.319,9.35H2.591A2.588,2.588,0,0,0,0,11.931V28.153a2.587,2.587,0,0,0,2.591,2.578H20.319a2.585,2.585,0,0,0,2.59-2.578V11.931A2.587,2.587,0,0,0,20.319,9.35Zm-5.5,3.838a2.492,2.492,0,1,1-2.5,2.492,2.492,2.492,0,0,1,2.5-2.492Zm4.692,15.158H3.761a.705.705,0,0,1-.687-1.113l4.295-8.469a.724.724,0,0,1,1.324-.123l4.319,5.619a1.062,1.062,0,0,0,1.64.1L15.708,23.3a1.008,1.008,0,0,1,1.6.135l2.736,3.891C20.437,27.889,20.2,28.347,19.507,28.347Z" transform="translate(0 -9.35)" fill="#c2cbd2"/>
      </g>
    </g>
  </g>
</svg>
