<svg xmlns="http://www.w3.org/2000/svg" viewBox="0 0 810 613.595"><g data-name="403"><path data-name="Path 22617" d="M112.41 585.468c-39.86-23.128-92.2-79.536-67.416-173.814 18.642-70.909 82.278-103.3 63.617-185.481-17.4-76.617 11.313-166.9 134.907-150.468 50.372 6.7 90.1 28.376 143.274 28.376 143.376 0 146.191-53.9 200.361-60.853 131.74-16.922 128.275 165.721 87.621 263.762-28.2 68.012 135.325 64.266 120.6 207.007-5.659 54.863-48.987 72.344-48.987 72.344z" fill="#f8f7ff"/><path data-name="Rectangle 3649" fill="#d9d7f4" d="M294.764 132.601h6.45v453.646h-6.45z"/><g data-name="Group 36282"><path data-name="Path 22618" d="M414.16 599.432z" fill="#ddd6ff"/><path data-name="Rectangle 3650" fill="#9398cc" d="M414.16 598.557h322.504v1.745H414.16z"/></g><g data-name="Group 36283"><path data-name="Path 22619" d="M361.832 599.432z" fill="#ddd6ff"/><path data-name="Rectangle 3651" fill="#9398cc" d="M361.833 598.557h19.204v1.745h-19.204z"/></g><g data-name="Group 36284"><path data-name="Path 22620" d="M644.145 612.723z" fill="#ddd6ff"/><path data-name="Rectangle 3652" fill="#9398cc" d="M644.145 611.85h21.035v1.745h-21.035z"/></g><g data-name="Group 36285"><path data-name="Path 22621" d="M304.836 612.723z" fill="#ddd6ff"/><path data-name="Rectangle 3653" fill="#9398cc" d="M304.836 611.85h328.752v1.745H304.836z"/></g><g data-name="Group 36286"><path data-name="Path 22622" d="M280.992 612.723z" fill="#ddd6ff"/><path data-name="Rectangle 3654" fill="#9398cc" d="M280.992 611.85h12.503v1.745h-12.503z"/></g><g data-name="Group 36287"><path data-name="Path 22623" d="M213.268 599.432z" fill="#ddd6ff"/><path data-name="Rectangle 3655" fill="#9398cc" d="M213.268 598.557h136.553v1.745H213.268z"/></g><g data-name="Group 36288"><path data-name="Path 22624" d="M84.868 599.432z" fill="#ddd6ff"/><path data-name="Rectangle 3656" fill="#9398cc" d="M84.868 598.557h115.315v1.745H84.868z"/></g><path data-name="Rectangle 3657" fill="#9398cc" d="M447.331 585.468h334.031v1.745H447.331z"/><path data-name="Rectangle 3658" fill="#9398cc" d="M23.698 585.468h423.633v1.745H23.698z"/><g data-name="Group 36289"><path data-name="Path 22625" d="M255.292 586.341z" fill="#f8f7ff"/><path data-name="Rectangle 3659" fill="#5158ab" d="M255.292 585.469h134.711v1.745H255.292z"/></g><g data-name="Group 36290"><path data-name="Path 22626" d="M242.208 586.341z" fill="#f8f7ff"/><path data-name="Rectangle 3660" fill="#5158ab" d="M96.607 585.469h145.601v1.745H96.607z"/></g><g data-name="Group 36291"><path data-name="Path 22627" d="M60.707 586.34z" fill="#f8f7ff"/><path data-name="Rectangle 3661" fill="#5158ab" d="M60.707 585.468h8.732v1.745h-8.732z"/></g><g data-name="Group 36292"><path data-name="Path 22628" d="M638.557 586.34h18.209z" fill="#f8f7ff"/><path data-name="Rectangle 3662" fill="#5158ab" d="M638.557 585.469h18.209v1.745h-18.209z"/></g><g data-name="Group 36293"><path data-name="Path 22629" d="M665.707 586.34z" fill="#f8f7ff"/><path data-name="Rectangle 3663" fill="#5158ab" d="M665.707 585.468h61.061v1.745h-61.061z"/></g><g data-name="Group 36294"><path data-name="Path 22630" d="M548.277 586.341z" fill="#f8f7ff"/><path data-name="Rectangle 3664" fill="#5158ab" d="M467.953 585.469h80.324v1.745h-80.324z"/></g><path data-name="Rectangle 3665" fill="#9398cc" d="M0 585.468h8.578v1.745H0z"/><g data-name="Group 36295"><path data-name="Path 22631" d="M400.077 586.34z" fill="#f8f7ff"/><path data-name="Rectangle 3666" fill="#5158ab" d="M400.077 585.468h17.901v1.745h-17.901z"/></g><g data-name="Group 36296"><path data-name="Path 22632" d="M609.166 586.34z" fill="#f8f7ff"/><path data-name="Rectangle 3667" fill="#5158ab" d="M609.166 585.468h9.557v1.745h-9.557z"/></g><g data-name="Group 36299"><path data-name="Path 22633" d="M661.616 508.532c0-20.768-61.217-73.637-61.218-114.655 0-22.689 17.444-40.551 47.1-29.923 0 0-41.022-127.308 37.51-148.014 33.357-8.794 73.772 26.072 32.865 72.2-27.987 31.56-33.462 63.822-16.428 55.628 40.243-19.361 46.424 28.7 2.463 90.063-12.77 17.824-42.3 58.48-42.3 74.7z" fill="#d9d7f4"/><path data-name="Path 22634" d="M624.107 541.051l3.158 16.085 5.565 28.332h57.572l7.153-36.418 1.57-8z" fill="#ccc7f2"/><path data-name="Path 22635" d="M624.107 541.051l3.158 16.085 70.29-8.086 1.57-8z" fill="#989cce"/><g data-name="Group 36297" fill="#5158ab"><path data-name="Path 22636" d="M662.489 534.981h-1.745v-76.367c0-119.941 15.846-182.749 16-183.37l1.69.435c-.16.619-15.951 63.243-15.951 182.934z"/><path data-name="Path 22637" d="M662.489 446.14h-1.745c0-31.868 12.525-56.4 38.293-75l1.021 1.415c-25.28 18.249-37.569 42.318-37.569 73.585z"/></g><g data-name="Group 36298" fill="#5158ab"><path data-name="Rectangle 3668" d="M618.946 540.178h55.827v1.745h-55.827z"/><path data-name="Rectangle 3669" d="M680.334 540.178h4.943v1.745h-4.943z"/><path data-name="Rectangle 3670" d="M690.082 540.178h14.203v1.745h-14.203z"/></g></g><path data-name="Path 22638" d="M477.678 3.489c95.218 35.3-59.179 107.393-128.352 69.453-25.8-14.149-3.7-46.531 44.386-62.738 40.752-13.738 72.402-11.005 83.966-6.715z" fill="#f8f7ff"/><path data-name="Path 22639" d="M156.015 135.365q-2.209-10.922-1.363-17.794a33.957 33.957 0 015.2-13.842q4.544-7.658 5.659-12.189a19.789 19.789 0 00.264-8.742q-2.634-13.029-11.06-11.329a7.546 7.546 0 00-5.517 4.85q-1.773 4.1-.7 10.212l-22.083 4.461q-2.9-15.169 3.722-25.2t20.824-12.9q14.512-2.932 24.182 3.52t12.6 20.967q2.427 12.015-5.149 25.565l-4.994 8.644a24.234 24.234 0 00-2.926 8.834 39.388 39.388 0 00.685 11.029zm2.795 24.286a12.3 12.3 0 1124.11-4.871 12.188 12.188 0 01-1.542 9.245 13.2 13.2 0 01-17.557 3.547 12.177 12.177 0 01-5.011-7.921z" fill="#fff"/><path data-name="Path 22640" d="M170.271 170.426a11.864 11.864 0 01-6.949-2.138 13.072 13.072 0 01-5.368-8.464 13.175 13.175 0 1125.822-5.216 13.082 13.082 0 01-1.66 9.883 12.736 12.736 0 01-8.689 5.6 15.894 15.894 0 01-3.156.335zm1.113-24.661a14.236 14.236 0 00-2.818.3 10.921 10.921 0 00-8.906 13.417 11.239 11.239 0 004.655 7.379 10.813 10.813 0 008.761 1.528 10.922 10.922 0 007.559-4.825 11.247 11.247 0 001.425-8.608 11.063 11.063 0 00-4.729-7.394 10.391 10.391 0 00-5.947-1.797zm-16.055-9.373l-.174-.854c-.62-3.072-1.067-5.943-1.327-8.532l1.736-.174c.23 2.292.611 4.812 1.132 7.5l17.662-3.568a38.858 38.858 0 01-.549-10.441 25.218 25.218 0 013.025-9.15l5.005-8.664c4.917-8.794 6.617-17.194 5.049-24.956-1.746-8.642-5.367-15.154-10.762-19.355l1.072-1.376c5.734 4.464 9.569 11.323 11.4 20.386 1.653 8.183-.111 16.985-5.242 26.165l-5 8.655a23.458 23.458 0 00-2.815 8.5 38.752 38.752 0 00.678 10.777l.148.838zm.017-16.836l-1.741-.1c.04-.693.1-1.363.178-1.991l1.731.214c-.069.589-.13 1.226-.164 1.877zm.7-4.826l-1.7-.4a37.035 37.035 0 014.768-11.064c2.961-4.99 4.832-9.011 5.552-11.935a19.028 19.028 0 00.256-8.361c-.84-4.156-2.136-7.154-3.85-8.91a6.3 6.3 0 00-6.181-1.736 6.669 6.669 0 00-4.89 4.341c-1.107 2.557-1.322 5.825-.639 9.715l.147.837-23.781 4.8-.167-.865c-1.968-10.3-.673-18.991 3.852-25.842s11.72-11.32 21.378-13.271c9.869-1.994 18.223-.765 24.839 3.649l-.967 1.451c-6.218-4.148-14.135-5.288-23.526-3.391-9.187 1.856-16.007 6.069-20.27 12.524-4.138 6.267-5.4 14.232-3.751 23.685l20.39-4.119a18.117 18.117 0 01.891-9.87 8.4 8.4 0 016.145-5.358 8.017 8.017 0 017.775 2.227c1.954 2 3.4 5.292 4.313 9.783a20.761 20.761 0 01-.273 9.124c-.761 3.091-2.7 7.271-5.755 12.425a35.3 35.3 0 00-4.555 10.561z" fill="#8086c3"/><g data-name="Group 36300"><path data-name="Path 22641" d="M83.147 126.566a28.128 28.128 0 01-3.945-7.753 16.544 16.544 0 01-.252-7.2 24.013 24.013 0 00.263-6.545 9.649 9.649 0 00-1.518-3.983q-3.627-5.37-7.1-3.026a3.677 3.677 0 00-1.574 3.216 8.679 8.679 0 001.6 4.725l-9.1 6.144q-4.148-6.282-3.046-12.035t6.954-9.7q5.981-4.038 11.54-2.945t9.6 7.073q3.344 4.952 2.473 12.469l-.633 4.813a11.8 11.8 0 00.338 4.524 19.245 19.245 0 002.374 4.834zm5.809 10.4a6.105 6.105 0 016.154-9.328 5.85 5.85 0 013.781 2.619 5.94 5.94 0 011.038 4.45 6.435 6.435 0 01-7.236 4.885 5.931 5.931 0 01-3.737-2.622z" fill="#d9d7f4"/></g><g data-name="Group 36301"><path data-name="Path 22642" d="M219.825 156.828a4.13 4.13 0 011.819-2.174 3.04 3.04 0 012.725-.076 3.108 3.108 0 011.943 1.943 4.048 4.048 0 01-.161 2.837 3.809 3.809 0 01-1.8 2.08 3.172 3.172 0 01-2.73.024 3.1 3.1 0 01-1.938-1.89 3.882 3.882 0 01.142-2.744zm6.258-14.142a27.264 27.264 0 014.219-7.477 25.246 25.246 0 017.534-5.48 53.078 53.078 0 007.028-4.158 18.147 18.147 0 003.225-3.256 19.262 19.262 0 002.51-4.593q2.155-5.383 1-9.367a8.336 8.336 0 00-5.24-5.618 9.3 9.3 0 00-7.934.244 12.665 12.665 0 00-5.869 6.812l-4.733-1.894q2.909-7.022 8.585-9.669a14.317 14.317 0 0111.827-.184q6.368 2.548 8.234 8.365t-1.081 13.181a22.274 22.274 0 01-5.206 7.834q-3.381 3.27-10.671 6.9-5.6 2.508-8.7 10.259z" fill="#8388c4"/></g><path data-name="Rectangle 3671" fill="#9398cc" d="M792.19 585.47H810v1.745h-17.81z"/><g transform="translate(69.663 126.152)"><path data-name="Rectangle 3672" fill="#989cce" d="M231.55.872h228.543v458.444H231.55z"/><path data-name="Rectangle 3673" fill="#f9c2bb" d="M245.507 14.829h200.63v444.488h-200.63z"/><path data-name="Path 22643" d="M429.564 442.742H262.081V31.402h167.483zm-165.738-1.745h163.993V33.147H263.826z" fill="#fff"/><g data-name="Group 36302"><path data-name="Path 22644" d="M313.447 191.878l-4.362-4.362z" fill="#fff"/><path data-name="Rectangle 3674" fill="#fab4a8" d="M308.468 188.133l1.233-1.233 4.362 4.362-1.233 1.233z"/></g><g data-name="Group 36303"><path data-name="Path 22645" d="M408.936 157.049v4.09l-36.972 36.971h-52.285l-2.779-2.779z" fill="#fff"/><path data-name="Path 22646" d="M372.326 198.982h-53.007l-3.034-3.034 1.233-1.234 2.523 2.523h51.563l36.461-36.46v-3.729h1.745v4.451z" fill="#fab4a8"/></g><g data-name="Group 36304"><path data-name="Path 22647" d="M408.936 131.896z" fill="#fff"/><path data-name="Rectangle 3675" fill="#fab4a8" d="M408.064 131.896h1.745v19.524h-1.745z"/></g><g data-name="Group 36305"><path data-name="Path 22648" d="M408.936 126.082z" fill="#fff"/><path data-name="Rectangle 3676" fill="#fab4a8" d="M408.064 126.082h1.745v2.464h-1.745z"/></g><path data-name="Path 22649" d="M320.041 197.238l-36.461-36.46v-51.56l36.461-36.46h51.563l36.461 36.46v51.56l-36.461 36.46z" fill="#fff"/><path data-name="Path 22650" d="M370.158 76.243h-48.672l-34.417 34.417v48.672l34.417 34.417h48.672l34.417-34.417V110.66z" fill="#ea6a85"/><g data-name="Group 36306" fill="#fff"><path data-name="Path 22651" d="M311.545 142.593a4.006 4.006 0 00-1-2.954 11.513 11.513 0 00-3.634-2.074 16.941 16.941 0 01-6.917-4.272 8.582 8.582 0 01-2.107-5.786 8.11 8.11 0 012.865-6.488 11.911 11.911 0 0112.527-1.209 8.607 8.607 0 013.546 3.5 10.5 10.5 0 011.241 5.139h-6.434a5.3 5.3 0 00-.955-3.415 3.349 3.349 0 00-2.756-1.175 3.45 3.45 0 00-2.635 1 3.753 3.753 0 00-.944 2.689 3.314 3.314 0 001.054 2.383 12.1 12.1 0 003.733 2.206 15.993 15.993 0 016.8 4.151 9.242 9.242 0 012.119 6.258 8.253 8.253 0 01-2.656 6.521 10.519 10.519 0 01-7.225 2.35 12.441 12.441 0 01-5.642-1.274 9.543 9.543 0 01-3.986-3.645 10.59 10.59 0 01-1.438-5.6h6.478a6.115 6.115 0 001.076 4.02 4.405 4.405 0 003.513 1.252q3.377.003 3.377-3.577z"/><path data-name="Path 22652" d="M343.032 124.389h-7.9v26.592h-6.478v-26.592h-7.777v-5.379h22.155z"/><path data-name="Path 22653" d="M368.638 137.872q0 6.434-3.042 9.991a10.515 10.515 0 01-8.443 3.557 10.633 10.633 0 01-8.454-3.525q-3.075-3.524-3.118-9.87v-5.468q0-6.588 3.052-10.288a11.554 11.554 0 0116.886-.065q3.074 3.635 3.119 10.2zm-6.479-5.359q0-4.326-1.23-6.433a4.541 4.541 0 00-7.619-.077 12.474 12.474 0 00-1.274 6.181v5.687q0 4.195 1.253 6.181a4.242 4.242 0 003.864 1.987 4.137 4.137 0 003.754-1.943q1.23-1.944 1.252-6.028z"/><path data-name="Path 22654" d="M379.727 139.738v11.243h-6.456V119.01h10.891a10 10 0 017.565 2.942 10.586 10.586 0 012.821 7.642 9.9 9.9 0 01-2.788 7.422q-2.79 2.723-7.73 2.722zm0-5.379h4.435a3.517 3.517 0 002.855-1.207 5.354 5.354 0 001.01-3.514 6.345 6.345 0 00-1.032-3.81 3.313 3.313 0 00-2.767-1.438h-4.5z"/></g><g data-name="Group 36307" fill="#636ab5"><path data-name="Rectangle 3677" d="M459.221 429.743h1.745v15.576h-1.745z"/><path data-name="Path 22655" d="M232.422 319.991h-1.745V0h230.289v32.275h-1.745V1.745H232.422z"/><path data-name="Rectangle 3678" d="M459.221 399.887h1.745v6.179h-1.745z"/><path data-name="Rectangle 3679" d="M445.265 88.689h1.745v251.579h-1.745z"/><path data-name="Rectangle 3680" d="M445.265 78.214h1.745v4.583h-1.745z"/><path data-name="Path 22656" d="M246.379 401.783h-1.745V13.957h202.375v46.379h-1.745V15.701H246.379z"/><path data-name="Rectangle 3681" d="M230.678 338.162h1.745v99.369h-1.745z"/></g><path data-name="Path 22657" d="M503.679 335.763l-12.217 21.153-175.126-101.105-49.154-28.387-60.82-35.113 12.212-21.153 83.862 48.421 49.154 28.376z" fill="#8388c4"/><circle data-name="Ellipse 15" cx="2.181" cy="2.181" r="2.181" transform="translate(218.743 186.765)" fill="#fff"/><circle data-name="Ellipse 16" cx="2.181" cy="2.181" r="2.181" transform="translate(477.73 333.8)" fill="#fff"/><path data-name="Path 22658" d="M351.594 247.957l-35.258 7.851-8.941-5.164-31.281-18.065 35.258-7.842 31.289 18.065z" fill="#636ab5"/><path data-name="Path 22659" d="M491.786 358.107l-144.781-83.588.872-1.511 143.269 82.716 7.884-13.656 1.511.872z" fill="#636ab5"/><path data-name="Rectangle 3682" fill="#636ab5" d="M220.482 201.471l.873-1.511 118.325 68.315-.873 1.511z"/><g data-name="Group 36308" transform="translate(182.299 185.519)"><path data-name="Path 22660" d="M310.607 23.849L160.363 57.284l-35.267 7.842L5.313 91.783.001 67.943 93.816 47.06l35.258-7.842L305.304 0z" fill="#8388c4"/><circle data-name="Ellipse 17" cx="2.181" cy="2.181" r="2.181" transform="translate(18.999 75.768)" fill="#fff"/><circle data-name="Ellipse 18" cx="2.181" cy="2.181" r="2.181" transform="translate(291.07 13.016)" fill="#fff"/><path data-name="Rectangle 3683" fill="#636ab5" d="M90.953 71.792l196.505-43.643.378 1.702L91.33 73.495z"/><path data-name="Rectangle 3684" fill="#636ab5" d="M27.14 86.019l60.463-13.43.379 1.703-60.464 13.43z"/></g><path data-name="Rectangle 3685" fill="#4f37b3" d="M376.948 332.179l2.609-.4.264 1.724-2.609.4z"/><path data-name="Path 22661" d="M385.942 332.564l-.264-1.724 93.976-14.391-3.017-19.7 1.724-.264 3.281 21.429z" fill="#4f37b3"/><path data-name="Rectangle 3686" fill="#4f37b3" d="M473.614 277.003l1.724-.264 2.103 13.739-1.724.264z"/><path data-name="Rectangle 3687" fill="#fff" d="M538.642 336.084h1.745v2.078h-1.745z"/><path data-name="Rectangle 3688" fill="#fff" d="M443.708 194.949l9.332-2.054.375 1.704-9.332 2.054z"/><path data-name="Rectangle 3689" fill="#fff" d="M218.554 244.492l221.288-48.686.374 1.704-221.287 48.685z"/><path data-name="Rectangle 3690" fill="#fff" d="M278.574 206.809l.872-1.511 32.363 18.684-.872 1.51z"/><path data-name="Rectangle 3691" fill="#fff" d="M254.023 192.634l.872-1.511 18.992 10.964-.873 1.511z"/><path data-name="Rectangle 3692" fill="#fff" d="M361.723 254.813l.873-1.511 47.826 27.613-.872 1.511z"/><g data-name="Group 36310"><path data-name="Path 22662" d="M467.19 283.848l-38.467-35.924-32.215 33.336-1.254-1.212 33.4-34.569 39.721 37.094z" fill="#636ab5"/><path data-name="Rectangle 3693" fill="#636ab5" d="M379.097 296.769l12.093-12.51 1.254 1.213-12.093 12.51z"/><path data-name="Rectangle 3694" fill="#5158ab" d="M370.907 292.732l103.568-15.861 6.173 40.31-103.568 15.861z"/><g data-name="Group 36309" fill="#fff"><path data-name="Path 22663" d="M391.375 304.28a3.4 3.4 0 00-2.7 1.99 7.526 7.526 0 00-.4 4.409q.862 5.628 5.143 4.972a8.877 8.877 0 002.452-.744 25.32 25.32 0 002.307-1.24l.682 4.454a13.672 13.672 0 01-5.356 1.926q-4.413.676-7.16-1.524t-3.487-7.041a11.952 11.952 0 01.325-5.5 8.256 8.256 0 012.741-4.03 10.026 10.026 0 014.846-2 14.04 14.04 0 016.252.448l-.979 4.4a18.43 18.43 0 00-2.292-.523 7.659 7.659 0 00-2.374.003z"/><path data-name="Path 22664" d="M402.783 318.352l-2.985-19.5 5.267-.806 2.335 15.243 7.508-1.15.652 4.255z"/><path data-name="Path 22665" d="M435.428 303.348q.752 4.921-1.268 7.852t-6.677 3.641q-4.587.7-7.428-1.5t-3.6-7.121q-.746-4.867 1.3-7.808t6.682-3.651q4.654-.713 7.445 1.467t3.546 7.12zm-13.417 2.055q.866 5.654 4.8 5.051a3.422 3.422 0 002.757-1.828 10.095 10.095 0 00-1.33-8.594 3.382 3.382 0 00-3.14-.945q-3.965.607-3.087 6.316z"/><path data-name="Path 22666" d="M452.287 304.71a5.812 5.812 0 01-.427 3.362 6.1 6.1 0 01-2.318 2.593 9.944 9.944 0 01-3.949 1.4 16.67 16.67 0 01-3.309.227 12.246 12.246 0 01-2.893-.533l-.719-4.694a15.916 15.916 0 003.318.727 11.78 11.78 0 003.054-.024 2.932 2.932 0 001.658-.67 1.265 1.265 0 00.386-1.13 1.165 1.165 0 00-.327-.667 2.593 2.593 0 00-.8-.5q-.534-.232-2.786-.856a12.579 12.579 0 01-3.118-1.243 5.223 5.223 0 01-1.7-1.65 6.286 6.286 0 01-.842-2.423 5.056 5.056 0 011.317-4.5 8.744 8.744 0 015.157-2.333 15.3 15.3 0 016.39.455l-.991 4.314a11.824 11.824 0 00-4.913-.53 2.484 2.484 0 00-1.438.589 1.1 1.1 0 00-.331.965 1.3 1.3 0 00.751.936 22.907 22.907 0 003.473 1.16 9.021 9.021 0 013.874 1.9 5.349 5.349 0 011.483 3.125z"/><path data-name="Path 22667" d="M467.785 308.398l-11.576 1.776-2.987-19.5 11.576-1.772.647 4.227-6.308.966.469 3.067 5.842-.894.647 4.227-5.842.9.564 3.681 6.308-.967z"/></g></g><g data-name="Group 36311"><path data-name="Path 22668" d="M435.041 247.573z" fill="#47c2e0"/><path data-name="Rectangle 3695" fill="#fff" d="M406.255 245.829h28.786v3.489h-28.786z"/></g><path data-name="Rectangle 3696" fill="#fff" d="M443.009 280.808l10.078-1.54.263 1.723-10.078 1.54z"/><path data-name="Path 22669" d="M373.2 313.458l-3.286-21.456 68.189-10.442.264 1.724-66.465 10.178 3.021 19.732z" fill="#fff"/><g data-name="Group 36312"><path data-name="Rectangle 3697" fill="#ea6a85" d="M0 312.169h83.74v57.572H0z"/><path data-name="Rectangle 3698" fill="#2c305c" d="M75.026 312.169h8.723v57.572h-8.723z"/></g><path data-name="Path 22670" d="M54.092 312.217h-1.745v-8.724H31.412v8.722h-1.745V301.75h24.424z" fill="#2c305c"/><path data-name="Path 22671" d="M66.925 312.167v57.571H40.633l14.43-57.571z" fill="#ea6a85"/><path data-name="Path 22672" d="M124.845 126.366a7.874 7.874 0 01-5.9 9.755l-28.064 6.2-6.793-30.739a17.339 17.339 0 0113.188-20.671 19.258 19.258 0 0113.473 1.925 17.266 17.266 0 017.763 10.276z" fill="#ffd4cc"/><path data-name="Path 22673" d="M121.804 140.327l-19.778 4.371-4.766-21.566 25.189-5.567 4.074 14.956a6.3 6.3 0 01-4.719 7.806z" fill="#2c305c"/><path data-name="Path 22674" d="M117.982 137.406l-28.3 5.026-5.506-31a17.339 17.339 0 0114.039-20.1c9.107-1.617 18.656 4.061 20.712 13.08l5.355 23.49a7.874 7.874 0 01-6.3 9.504z" fill="#ffd4cc"/><path data-name="Path 22675" d="M121.804 140.327l-10.684 2.361-4.765-21.566 16.094-3.557 4.074 14.956a6.3 6.3 0 01-4.719 7.806z" fill="#2c305c"/><path data-name="Path 22676" d="M99.192 164.864a10.9 10.9 0 01-10.9-10.9v-31.225h21.807v31.221a10.9 10.9 0 01-10.907 10.904z" fill="#ffd4cc"/><path data-name="Path 22677" d="M131.146 185.931l47.633-31.638-11.127-20.911-52.821 21.889z" fill="#5158ab"/><circle data-name="Ellipse 19" cx="17.446" cy="17.446" r="17.446" transform="rotate(-24.261 427.6 -147.619)" fill="#5158ab"/><g data-name="Group 36313" transform="translate(32.309 285.031)" fill="#ffd4cc"><circle data-name="Ellipse 20" cx="6.978" cy="6.978" r="6.978" transform="rotate(-60.2 17.039 9.874)"/><path data-name="Path 22678" d="M12.021 10.436a5.234 5.234 0 115.775-4.629 5.233 5.233 0 01-5.775 4.629z"/><path data-name="Path 22679" d="M3.084 14.493l4.68-11.269L17.8 5.806l-1.334 12.13z"/></g><path data-name="Path 22680" d="M88.518 181.471l-30.169-17.2-23.425 52.158a11.907 11.907 0 00-.969 3.561 12.028 12.028 0 00-.026 2.308h-.011l5.027 59.674.436 5.208.3 3.525 10.42.128 7.17-65.176z" fill="#5158ab"/><path data-name="Path 22681" d="M51.189 280.947l-1.087 9.885-10.42-.128-.3-3.525-.436-5.208z" fill="#fff"/><path data-name="Path 22682" d="M39.685 290.706l10.42.128.506-4.6-11.223.942z" fill="#ffd4cc"/><circle data-name="Ellipse 21" cx="17.446" cy="17.446" r="17.446" transform="rotate(-2.479 3603.516 -1218.814)" fill="#5158ab"/><path data-name="Path 22683" d="M129.103 265.606l-3.629 73.918h-20.176l-.009-73.918z" fill="#5158ab"/><circle data-name="Ellipse 22" cx="11.907" cy="11.907" r="11.907" transform="translate(66.657 253.699)" fill="#5158ab"/><circle data-name="Ellipse 23" cx="11.907" cy="11.907" r="11.907" transform="translate(105.287 253.699)" fill="#5158ab"/><path data-name="Path 22684" d="M133.956 166.763l-4.266 86.936H66.083l-4.266-86.936a12.212 12.212 0 0112.2-12.811h47.743a12.212 12.212 0 0112.196 12.811z" fill="#5158ab"/><path data-name="Path 22685" d="M129.69 253.699l-.584 11.907-.029.584a11.907 11.907 0 01-11.893 11.323h-38.6a11.907 11.907 0 01-11.885-11.324l-.029-.584-.584-11.907z" fill="#5158ab"/><circle data-name="Ellipse 24" cx="7.362" cy="7.362" r="7.362" transform="rotate(-13.59 1885.496 7.038)" fill="#5158ab"/><circle data-name="Ellipse 25" cx="7.362" cy="7.362" r="7.362" transform="rotate(-32.54 819.19 48.569)" fill="#5158ab"/><circle data-name="Ellipse 26" cx="10.088" cy="10.088" r="10.088" transform="rotate(-80.8 256.319 112.959)" fill="#5158ab"/><path data-name="Path 22686" d="M105.288 450.593v-111.07h20.172l-5.452 111.07z" fill="#5158ab"/><circle data-name="Ellipse 27" cx="31.804" cy="31.804" r="31.804" transform="translate(66.083 221.895)" fill="#5158ab"/><path data-name="Path 22687" d="M127.427 459.317h-22.139v-8.723h14.732l8.455 4.611a2.19 2.19 0 011.141 1.923 2.19 2.19 0 01-2.189 2.189z" fill="#2c305c"/><path data-name="Path 22688" d="M120.067 88.205l2.02 9.142a8.364 8.364 0 01.2 2.1l-17.2 3.8-4.512-20.407 8.227-1.818a9.447 9.447 0 0111.265 7.183z" fill="#2c305c"/><path data-name="Path 22689" d="M122.449 117.565l-3.936-14.451z" fill="none"/><path data-name="Rectangle 3699" d="M88.877 89.736l.052-.012 6.396 28.944-17.68 3.907-2.5-11.316a18.053 18.053 0 0113.732-21.523z" fill="#2c305c"/><path data-name="Path 22690" d="M119.899 97.921l-18.283 4.04a13.272 13.272 0 01-15.805-10.085 6.3 6.3 0 0112.3-2.718.66.66 0 00.786.5l18.282-4.04z" fill="#2c305c"/><path data-name="Path 22691" d="M112.003 93.214l-9.482 2.1a6.3 6.3 0 11-2.719-12.3l9.483-2.1a6.3 6.3 0 012.718 12.3z" fill="#2c305c"/><path data-name="Path 22692" d="M125.875 94.938a10.631 10.631 0 01-8.085 12.674c-5.733 1.267-12.176-2.183-13.443-7.916s3.122-11.576 8.855-12.843a10.629 10.629 0 0112.673 8.085z" fill="#2c305c"/><path data-name="Rectangle 3700" fill="#2c305c" d="M86.853 100.156l25.629-5.664 2.123 9.61-25.628 5.664z"/><path data-name="Rectangle 3701" fill="#2c305c" d="M89.685 109.476l24.314-5.373 3.717 16.818-24.314 5.373z"/><path data-name="Rectangle 3702" d="M77.135 120.268l36.508-8.08 3.564 16.104-27.698 6.13a9.024 9.024 0 01-10.76-6.861l-1.614-7.293z" fill="#2c305c"/><path data-name="Path 22693" d="M110.058 120.301l2.131-.471-1.447-6.549-2.132.471a3.354 3.354 0 00-2.551 4 3.354 3.354 0 003.999 2.549z" fill="#ffd4cc"/><path data-name="Rectangle 3703" fill="#fff" d="M88.287 149.344h21.807v4.616H88.287z"/><path data-name="Path 22694" d="M66.691 264.695L52.681 450.03l14.645 1.485 23.052-184.418z" fill="#5158ab"/><path data-name="Path 22695" d="M74.8 459.317H52.665v-8.723h14.733l8.454 4.611a2.19 2.19 0 011.142 1.923 2.19 2.19 0 01-2.194 2.189z" fill="#2c305c"/><circle data-name="Ellipse 28" cx="11.899" cy="11.899" r="11.899" transform="rotate(-38.83 279.996 -149.261)" fill="#5158ab"/><g data-name="Group 36316"><g data-name="Group 36314" transform="translate(96.007 90.846)" fill="#ffd4cc"><circle data-name="Ellipse 29" cx="6.978" cy="6.978" r="6.978" transform="rotate(-66.616 9.748 6.405)"/><path data-name="Path 22696" d="M16.31 10.022a5.234 5.234 0 106.752-3.033 5.233 5.233 0 00-6.752 3.033z"/><path data-name="Path 22697" d="M8.625 16.134l12.164.966 2.272-10.111-11.406-4.337z"/></g><g data-name="Group 36315"><path data-name="Path 22698" d="M113.658 106.581l6.3-8.3 58.476 35.972-14.316 18.875-44.017-40.607-3.843-3.542z" fill="#5158ab"/><path data-name="Path 22699" d="M113.658 106.581l6.3-8.3 8.47 5.211-8.323 9.034-3.843-3.542z" fill="#fff"/><path data-name="Path 22700" d="M113.657 106.575l6.3-8.3 3.938 2.422-7.634 8.28z" fill="#ffd4cc"/></g></g><path data-name="Rectangle 3704" fill="#4f37b3" d="M121.843 395.766l.13-2.632 1.743.086-.13 2.632z"/><path data-name="Rectangle 3705" fill="#4f37b3" d="M122.374 385.298l9.247-189.128 1.743.085-9.247 189.128z"/><path data-name="Path 22701" d="M53.548 267.474l-1.734-.191 4.615-41.948 10.359-14.652 1.424 1.008-10.1 14.284z" fill="#4f37b3"/><path data-name="Rectangle 3706" fill="#4f37b3" d="M142.502 177.347l29.214-19.43.967 1.454-29.214 19.43z"/><path data-name="Rectangle 3707" fill="#4f37b3" d="M135.786 181.8l4.17-2.767.964 1.454-4.17 2.766z"/></g></g></svg>