<svg xmlns="http://www.w3.org/2000/svg" width="94.565" height="30.005" viewBox="0 0 94.565 30.005">
  <g id="logo_final" data-name="logo final" transform="translate(367.001 285.644)">
    <path id="Path_22615" data-name="Path 22615" d="M8.933-13.644c-4.6,0-7.979,3.016-7.979,8.214,0,5.177,3.423,8.214,8,8.214,3.808,0,6.8-2.2,7.423-5.84L13.7-3.291A4.541,4.541,0,0,1,8.869.517c-3,0-5.327-2.075-5.327-5.947,0-3.7,2.16-5.947,5.3-5.947A4.585,4.585,0,0,1,13.7-7.419l2.652-.235C15.821-11.377,12.74-13.644,8.933-13.644ZM32.27,2.57v-16H29.725v6.61H22.2v-6.61H19.65v16H22.2V-4.553h7.53V2.57Zm18.311,0-6.781-16H41.64l-6.76,16h2.781L39.158-1H46.3l1.479,3.57ZM40.142-3.269l2.61-6.225L45.34-3.269ZM67.373,2.57l5.583-16H70.218L66.282-1.943,62.368-13.43h-2.1L56.378-1.943,52.421-13.43H49.683l5.583,16h2.16L61.319-8.745,65.234,2.57Zm14.5-9.284,5.84-6.717h-3.27L78.218-6.264V-13.43H75.673v16h2.546V-2.457L80.165-4.7l5.241,7.27h3.123Z" transform="translate(-365.055 -272)" fill="#1d1e1f"/>
    <g id="Group_36277" data-name="Group 36277" transform="translate(-367 -267.24)">
      <path id="Path_22616" data-name="Path 22616" d="M253.827,28.427c-.128-.153-.192-.327-.879-.318.408-.224.66-.416-.01-.592-.1-.027-.091-.113-.139-.17-.145-.172-.11-.391-.884-.4l.529-.179-.845-.2.634-.056a2.2,2.2,0,0,0-.147-.7c-.128-.237.43-.458.007-.733l-1.908-.061c.509-.127.326-.3.269-.447s-.11-.292.248-.43c.543-.209.248-.589-.487-.7-.183-.027-.369-.059-.562-.07-1.173-.062-2.346-.13-3.525-.173-1.1-.04-2.206-.046-3.307-.075-1.995-.054-3.988-.116-5.982-.17-1.544-.041-3.09-.075-4.636-.113a1.085,1.085,0,0,0-.8.173l2.3.129a3.665,3.665,0,0,0-.523.115c.113.227-.315.2-.669.193-.621,0-1.241-.014-1.861-.016-.311,0-.63,0-.931.016a7.291,7.291,0,0,1-1.659-.027,13.656,13.656,0,0,0-1.388-.046l.529.118-3.011.048a4.742,4.742,0,0,1-.9.013,4.154,4.154,0,0,0-1.369-.03c-1.177,0-2.353.066-3.533.079-1.328.014-2.662-.022-3.988,0-2.4.04-4.8.116-7.215.071a2.42,2.42,0,0,0-.335.017,14.952,14.952,0,0,1-2.837.024,4.609,4.609,0,0,0-.5.016,16.264,16.264,0,0,1-1.747.065,26.06,26.06,0,0,0-2.975.087,13.994,13.994,0,0,1-2-.058,12.984,12.984,0,0,0-1.574-.065c-1.126.028-2.252.139-3.366.12-.96-.016-1.908.008-2.86.011a25.974,25.974,0,0,1-3.5-.039,2.565,2.565,0,0,0-.42,0c-.446.018-.889.046-1.335.062-.616.023-1.287-.009-1.839.07a18.586,18.586,0,0,1-3.129-.022,3.386,3.386,0,0,1,1.687-.021l2.385-.224-1.14-.264.521-.107-.053-.04-1.452.093.867.212a29.806,29.806,0,0,1-3.718.053,2.022,2.022,0,0,0-.555.028,11.066,11.066,0,0,1-3.354.1c-.463-.03-.883-.007-1.321-.011-1.2-.014-2.17.415-3.441.223a.242.242,0,0,0-.082,0c-.455.154-1.146.045-1.615.193a1.563,1.563,0,0,1-.4.029c-.421-.005-.842-.021-1.263-.029a.578.578,0,0,0-.124.027l.161.017a.589.589,0,0,1,.079.008c.018,0,.024.014.084.053-.785.03-1.532.058-2.279.089-.815.034-1.187.185-1.038.474a2.138,2.138,0,0,0,.651.825,2.476,2.476,0,0,1,.706.719,3.415,3.415,0,0,0,.312.384,38.032,38.032,0,0,0-4.418.328c-.562.062-.733.162-.616.372a4.1,4.1,0,0,0,.484.653,8.631,8.631,0,0,1,.718.781,5.586,5.586,0,0,0,1.122,1.358.336.336,0,0,1,.138.3c-.022.168.216.257.6.3.6.058,1.21.1,1.822.141.666.041.707.062.832.308a6.827,6.827,0,0,0,.5.744c.188.272.676.516.545.819-.018.04.161.109.293.137a3.923,3.923,0,0,0,.775.121,17.742,17.742,0,0,0,3.943-.077,1.824,1.824,0,0,1,.332,0c.3,0,.6.013.908.016q.756.007,1.513.008c.532,0,1.07.018,1.593-.007a16.2,16.2,0,0,1,2.765.008,15.2,15.2,0,0,0,1.688.031,2.625,2.625,0,0,0,.911-.055l-.77-.2h2.471a2.086,2.086,0,0,1,.622.065,2.985,2.985,0,0,0,1.423.192,3.146,3.146,0,0,1,.854.076c.241.148.647.3.582.477s.131.238.535.283l-.493.168c.232.212.707.183,1.106.174.791-.018,1.579-.056,2.366-.091a3.252,3.252,0,0,0,.636-.056c.13-.04.129-.137.185-.206a4.431,4.431,0,0,1,1.239.072,2.8,2.8,0,0,0,1.742,0A2.691,2.691,0,0,1,193.9,34a6.3,6.3,0,0,0,1.825-.149,3.671,3.671,0,0,1,.688-.025.22.22,0,0,1-.193.111c-.292.042-.209.13-.082.171a1.754,1.754,0,0,0,.5.011c.079-.006.129-.063.19-.1l.868-.5-.3-.186a10.8,10.8,0,0,1,2.913.077l-1.9.171c-.137.184,0,.265.473.255.506-.011,1.014-.02,1.522-.021a5.213,5.213,0,0,1,1.129.067,3.9,3.9,0,0,0,1.6-.035l-.874-.173,1.068-.079-.473-.091a7.229,7.229,0,0,1,1.868-.136l-.562-.129c.664,0,1.33,0,1.989.02a1.82,1.82,0,0,0,.764-.029.637.637,0,0,1,.557.085,5.987,5.987,0,0,1-2.113.011c.254.221.255.235.577.233,1.237-.008,2.474-.025,3.644-.038l.293-.475a4.249,4.249,0,0,0,1.681.029,1.477,1.477,0,0,1,.225.023l-.148.145,1.085.117-.007.062-.668.117a8.19,8.19,0,0,1,2.007.072l-1.214.12c1.241.029,2.452.032,3.663.028,2.746-.008,5.493-.026,8.24-.03q3.226,0,6.452.016c1.782.009,3.565.021,5.345.049,2.349.037,4.7.078,7.044.143,1.864.052,3.721.14,5.58.216A2.907,2.907,0,0,0,250.461,34a2.266,2.266,0,0,1,1.15-.283l-.55-.782h.89c-.065-.081-.119-.144-.168-.208-.113-.147-.177-.295-.8-.246a.757.757,0,0,1-.656-.21l.959.074c.038-.141.069-.251.086-.317l-.413-.218a2.766,2.766,0,0,0,.5-.151c.085-.049.093-.176.017-.191-.379-.076.243-.136-.089-.219-.06-.007-.22-.024-.378-.044-.586-.072-.693-.145-.761-.394a.513.513,0,0,0-.368-.241c-.525-.117-.21-.68-.922-.669v-.379l.406-.084-.212-.646-.663-1.135c-.7.009-3.057,2.4-3.169,2.245-.142-.2,1.99-.635,1.4-.745a3.161,3.161,0,0,1-.7-.125c-.062-.168,1.669-.191,1.609-.375.58-.08-2.174-.1-1.493-.071,2.2.078,4.4.139,6.606.2a4.9,4.9,0,0,0,.5,0C253.789,28.75,253.99,28.623,253.827,28.427ZM173.1,23.838l.05.085-.409.038c-.018-.027-.059-.076-.048-.077C172.823,23.865,172.962,23.853,173.1,23.838Zm-1.545,9.125-.327-.044.091-.053c.088.015.179.027.258.046.016,0-.014.034-.023.051Zm.648-6.94-.027-.046.555-.036.02.036Zm.681,5.154a1.472,1.472,0,0,1,.82,0Zm1.83-5.858-.018-.046.439-.013.008.026Zm16.99-.368a14.939,14.939,0,0,1-2.86.064v-.064Zm-7.286,3.061-.336.043c-.01-.015-.033-.043-.029-.043.109-.014.22-.025.331-.037Zm-.207,2.056-.028.049-.411-.034.027-.045Zm.155-4.61c0,.209-.168.242-1.109.154Zm-1.48,2.942-2.1.081A4.375,4.375,0,0,1,182.886,28.4Zm-.973,2.043v.04H181.3v-.04Zm-2.1-2.058a4.075,4.075,0,0,1-1.825,0Zm-.682,2.071v.05h-.451v-.05Zm-2.286-2c-.31.3-.723.048-1.063.066a1.8,1.8,0,0,1,1.065-.063ZM176.41,30.9l.007-.073.772.038a3.546,3.546,0,0,1-.777.038Zm3.785,1.777v-.04h.516v.04Zm1.378-.825c-.011,0-.021-.03-.045-.068h1.122l.011.069c-.361.005-.723.005-1.086,0Zm1.844.8h-.543l.031-.07.521.029Zm-1.669-1.532c-.752.046-1.522.05-2.272.1A10.765,10.765,0,0,1,177.324,31c-.067-.008-.067-.09-.095-.139.638-.04,1.283-.065,1.906-.123a2.968,2.968,0,0,1,1.186.079,3.237,3.237,0,0,0,1.541.081,8.743,8.743,0,0,1,2.524.021c-.876.077-1.75.152-2.635.206Zm2.1.577.6-.059c-.1.16-.1.16-.591.067Zm.7-6.514-.063-.05.615-.106.069.055Zm.313.52c.294-.218.4-.222,1.756-.082a9.791,9.791,0,0,1-1.751.089Zm4.422,2.926-.143-.031h.144ZM189,28.349c1.628-.034-.054-.144,1.579-.056C188.968,28.377,190.637,28.456,189,28.349Zm-1.474-.755,1.245.053c.656-.023.053-.148.708-.171l.033.084Zm2.008.342c-.462.19-.251.037-.7.04.437-.091.143-.142.7-.041Zm.184.139,1.73-.121a4.256,4.256,0,0,1-1.729.121Zm-2.653-2.45,1.706-.077-.384-.2a3.331,3.331,0,0,1,1.562.12,1.039,1.039,0,0,0,.216-.107.571.571,0,0,1,.519-.06,2.7,2.7,0,0,0,1.1.142,21.4,21.4,0,0,1-4.717.182Zm12.627,8.117-.039-.059.453-.047.045.053ZM251.074,32c-.653.069-.653.069-.963-.065Zm-.151-.191a4.15,4.15,0,0,1-1.41-.1,5.1,5.1,0,0,1,1.41.1ZM240.155,23.36c-.07.015-.139.033-.212.045a1.319,1.319,0,0,1-.123-.072Zm-.976.078-.62-.153c.184-.07.349-.029.619.151Zm-.983-.021c-.283.09-.322.021-.378-.035Zm-3.706-.235c.163-.011.329-.034.49-.03.564.011,1.125.037,1.688.048a3.045,3.045,0,0,1,1.111.175c-.433.023-.866.057-1.3.062-.87.01-1.743,0-2.636,0,.142-.088.783-.06.645-.257Zm-2.774.81v.043h-1.234v-.043ZM228.927,24l-1.014.026A2.263,2.263,0,0,1,228.927,24Zm-.852.209c.124,0,.254.009.382.014l-.015.054-.715.018-.029-.038c.126-.014.248-.04.377-.046Zm-4.6-.26a11.023,11.023,0,0,0,1.8-.031.709.709,0,0,1,.134.052,7.191,7.191,0,0,1-2.2.1,1.277,1.277,0,0,1,.269-.118Zm-2.447.037.026.056-1.63.11-.049-.086ZM224,26.523a9.4,9.4,0,0,0,1.142-.081,4.12,4.12,0,0,1,1.436.012,2.973,2.973,0,0,1-1.372.222c-1.215-.016-2.431-.016-3.646-.03-.672-.008-1.343-.03-2.034-.046.045-.032.066-.06.088-.06C221.076,26.533,222.539,26.536,224,26.523ZM220.6,24.5a1.7,1.7,0,0,1,.236-.025,1.822,1.822,0,0,1,.279.064h-.49Zm.788,1.338c.08,0,.162-.012.239-.008.032,0,.053.031.151.093Zm.42-1.164.656.066v.047a2.068,2.068,0,0,1-.322.021,1.54,1.54,0,0,1-.335-.134Zm5,1.063c-.008,0-.1-.027-.094-.04a.521.521,0,0,1,.085-.117l.249.091c-.078.023-.154.047-.238.067Zm.7.214V26h-.557l-.005-.043Zm2.922,1h-4.521a32.2,32.2,0,0,1,4.523,0Zm3.3-.463c1.184.026,2.365.07,3.546.114q1.637.061,3.269.142c.294.014.579.054.868.082l-.059.086c-.348-.014-.7-.034-1.043-.041a5.165,5.165,0,0,0-.75.016,10.372,10.372,0,0,1-2.576,0,8.479,8.479,0,0,0-2.164.027c-.033-.05-.029-.107-.1-.143a1.169,1.169,0,0,0-.407-.113.967.967,0,0,0-.359.1c-.1.043-.123.117-.238.151-.539.155-1.019.065-1.126-.209-.756,0-1.52.021-2.272-.006-.727-.026-1.442-.1-2.2-.156a4.674,4.674,0,0,1,1.634-.085c1.322-.013,2.647.011,3.975.039Zm-2.857-.843.8.046-.348.241Zm3.5.485-.006.04h-1.784l.006-.04Zm-.14-.294a1.1,1.1,0,0,1,.209-.03c.045,0,.079.038.118.059l-.228.048Zm.723.381.008-.081,2.441.053v.028Zm4.76-.084c.042,0,.09.059.136.1l-1.525.035-.018-.091c.462-.021.931-.038,1.4-.045Zm-.921-.244c0-.02.07-.054.12-.057a1.422,1.422,0,0,1,.267.058,1.583,1.583,0,0,1-.247.048c-.056,0-.145-.033-.146-.05Zm3.05-1.063-1.121-.022v-.03h1.124Zm.417,1.546v.02h-.494l.008-.02Zm-1.5-.263.088.053c-.243.058-.471.13-.735.17-.184.027-.293-.022-.237-.1ZM235.05,27.26h-.334v-.012l.322-.008Zm-1.46.009h-.372v-.018l.372-.008Zm-1.144-.082a9.118,9.118,0,0,1-1.811.1l.012-.063Zm-8.636.624H221.9a5.47,5.47,0,0,1,1.9,0Zm-2.828-.069v.009h-.333v-.009Zm-1.918-3.42v.028h-1.376v-.03Zm-2.243,1.638a4.112,4.112,0,0,1,1.508,0Zm.567.8-.746.024-.02-.057.737-.046ZM217.8,24.6c-.075,0-.149-.008-.224-.014.027-.021.047-.056.081-.058a1.366,1.366,0,0,1,.215.021c-.041.017-.061.048-.082.048Zm.2.292.017.072H217.6l-.018-.04Zm-.089-.917a1.1,1.1,0,0,1,.235.153c-.963-.062-1.772.1-2.614-.011a14.093,14.093,0,0,1,2.372-.148Zm-2.379,2.042a1.748,1.748,0,0,1-.253-.057.5.5,0,0,1,.152-.059,2.746,2.746,0,0,1,.323.056,1,1,0,0,1-.23.054Zm.059.308v.011h-.559v-.011Zm-.382-1.95a.356.356,0,0,1,.1-.035c.063,0,.131.007.268.016a1.133,1.133,0,0,1-.217.056.6.6,0,0,1-.161-.043Zm.27-.434.021.177a.832.832,0,0,1-.614-.037ZM214.257,25.7c.071.174.1.259.149.368a6.926,6.926,0,0,1-1.462-.072,1.859,1.859,0,0,0,1.3-.3Zm-.814,2.469.007.031h-1.391l-.02-.068Zm-1.7-4.067a.791.791,0,0,1-.142.068.689.689,0,0,1-.14-.014v-.042Zm-.281.669a1.755,1.755,0,0,1,.193.046.391.391,0,0,1-.1.033c-.072-.006-.136-.023-.216-.037a.6.6,0,0,1,.123-.044Zm-.837,2.875.452.031v.02H210.6Zm-.584-3.467.007.038-.444.021v-.067Zm-1.44,1.49a.751.751,0,0,1,.2.076c-.161.012-.255.024-.35.024-.021,0-.078-.054-.056-.063A.6.6,0,0,1,208.6,25.667Zm1.437.939a6.933,6.933,0,0,1-2.322.08Zm-2.388-2.4a7.007,7.007,0,0,1-1.432.142l-.014-.091Zm-.73.731c.248-.021.436.021.383.15l-1.638.055-.011-.068c.422-.051.839-.106,1.268-.141Zm-1.081,3.215.032.046-.56.052-.036-.056ZM203.852,25.8c.118-.145.376-.113.633-.056l-.217.21C204.037,25.93,203.74,25.934,203.852,25.8Zm-.446-.806.427.071-.056.05-.444-.057Zm-.147.194.03.044-.385.037-.033-.048Zm-.268.615a.552.552,0,0,1-.311.093,1.077,1.077,0,0,1-.316-.111l.388-.133c.11.06.259.109.238.148Zm-.435,2.6-.857-.032a1.5,1.5,0,0,1,1.126-.123l-.492.053Zm-1.206-1.527-.024-.053.465-.018.017.042Zm.676.7.146-.021c.031.014.093.032.085.041a.429.429,0,0,1-.113.037Zm.009-2.793a2.365,2.365,0,0,1,.284.065l-.173.074-.259-.086a.544.544,0,0,1,.148-.059Zm.129.39a2.035,2.035,0,0,1,.366.076,6.289,6.289,0,0,1-.709.094,16.36,16.36,0,0,1-1.774-.071c.707-.039,1.411-.072,2.118-.1Zm-3.429,1.148h.707l-.017.064-.693-.024Zm-.493-.527.225.049c-.039.02-.075.055-.117.056a.538.538,0,0,1-.192-.036c-.016-.013.048-.045.085-.074Zm-2.5-.921.037.039-.5.066-.051-.061Zm-.831.378c1.042-.012,2.086,0,3.129,0a.122.122,0,0,1,.063.018c.007.008-.014.019-.055.066-1.052.066-2.153.145-3.261.2a3.144,3.144,0,0,1-1.473-.2c.534-.035,1.066-.083,1.6-.09Zm.177,1.827c-.027,0-.043-.031-.064-.048a2.09,2.09,0,0,1,.216-.018c.025,0,.046.032.083.059-.08,0-.158,0-.229,0Zm.057.81-.7.017.11-.253ZM194.2,25.9h1.43a1.946,1.946,0,0,1-1.424-.006ZM192.32,28.39l.446-.048.015.032Zm.534.222.008-.061.639.012a1.064,1.064,0,0,1-.641.043Zm1.222,3.3-.015-.069.337-.008.021.045Zm1.575,1.667-.035-.088.915-.049.025.088Zm-.214-1.69a1.881,1.881,0,0,1,.909-.056c.013,0,.006.03.009.056ZM196.6,29.4l-3.249.064c.337-.126.327-.3.793-.3a1.7,1.7,0,0,1,.331.006,7.544,7.544,0,0,0,2.132.158Zm-1.012-2.944-.016-.071,1.343-.027.009.044Zm1.2,1.328a.2.2,0,0,1,.1-.041.543.543,0,0,1,.123.019l-.124.07c-.049-.023-.109-.04-.1-.049Zm.913,1.548c.389-.051.625-.072.762.078Zm2.764-.27-.738-.031.014-.067.742.014Zm-1.918-.669a10.237,10.237,0,0,0-1.3.034,1.771,1.771,0,0,1-.37-.077l.036-.047c1.273-.021,2.547-.043,3.821-.059a4.509,4.509,0,0,1,.54.079c-.33.034-.5.064-.669.065a13.7,13.7,0,0,1-2.056,0Zm2.238,5.3a4.2,4.2,0,0,1,1.423-.023,5.514,5.514,0,0,1-1.421.023Zm.729-4.363-.024-.059,1-.078.028.1Zm.864,3.952-.021-.062.533.012Zm.578-.049h1.088a3.2,3.2,0,0,1-1.086,0ZM206.2,32.22l-.024-.049.457-.028.022.043Zm2.39-2.688L209,29.46c.065.1-.052.117-.406.073Zm.591.551-.007-.045.6-.012.015.057Zm3.182,3.132c-.04,0-.056-.043-.083-.065a1.3,1.3,0,0,1,.218-.021,1.167,1.167,0,0,1,.23.075,3.513,3.513,0,0,1-.364.013Zm2.067.3a11.159,11.159,0,0,1,1.9.005,4.3,4.3,0,0,1-1.9-.006Zm3.566.029a2.139,2.139,0,0,1-.252-.051c.037-.021.076-.061.109-.061a2.548,2.548,0,0,1,.319.04.747.747,0,0,1-.175.071Zm2.2-.192h-.71v-.043c.207,0,.414.007.621.013a1.144,1.144,0,0,1,.152.018Zm.422.145-.281-.011.009-.037.282.009Zm2.453-.019.007-.05h1.587v.05Zm2.561-.34-.911-.028.293-.134.663.1Zm2.1.347h-2.017v-.039h2.019Zm-.715-.447.043-.05.535.056-.05.059Zm.973-.927.624.017v.032h-.606Zm.548.982-.02-.065,1.146-.035.019.072Zm.977-.36V32.7h1.15l.013.062Zm2.746.438c-.4-.053-.88-.028-1.324-.041-.147,0-.292-.016-.532-.03a6.741,6.741,0,0,1,2.084-.029c.675-.03,1.369,0,2.055,0v.081a10.417,10.417,0,0,1-2.287.018Zm.66-.351a4.085,4.085,0,0,1,1.723,0Zm3.335-.286H235.9v-.006h.352Zm1.861.88V33.1h.567l.083.062c-.234.074-.142.242-.655.254Zm-.326-.839-.457-.136a4.535,4.535,0,0,1,1.6.014Zm-4.123-.66a.684.684,0,0,1,.008-.079c1.26,0,2.528-.03,3.776.015a3.96,3.96,0,0,1,1.5.238c-1.814-.06-3.589.006-5.289-.175Zm5.3-.059a3.049,3.049,0,0,1,1.235.054c-.389.208-.634.2-1.244-.056Zm3.82-2.337a1.747,1.747,0,0,1-.5.1,13.839,13.839,0,0,1-1.607.011,10.172,10.172,0,0,0-1.676,0c-1.212.093-2.425.011-3.634,0a8.108,8.108,0,0,1-1.047-.126c-.426.059-.733.127-1.054.137-.5.016-1.024.011-1.519-.021a3.392,3.392,0,0,0-1.495.064.785.785,0,0,1-.241.022c-.941-.039.541-.96-.525-1.006a22.586,22.586,0,0,1-3.57-.24c-.489-.066-1.634,1.151-2.2,1.161a6.351,6.351,0,0,1-1.832-.072,1.478,1.478,0,0,0-.465.027,5.156,5.156,0,0,1-1.732,0,6.921,6.921,0,0,0-1.011-.061c-.84-.017-1.675-.065-2.515-.084a4.43,4.43,0,0,0-1.563.111,4.518,4.518,0,0,1-.835.037l-.426-.276a5.411,5.411,0,0,1-2.24.248l.4-.05a8.848,8.848,0,0,0-2.5-.049v.005c-.379,0-.763-.01-1.136.008-.5.024-.789-1.177-1.284-1.317-.478-.136-1.3,1.05-1.975,1.11-.482.043-.984.055-1.549.084v-.32l-1.076-.044v-.059l2.225-.088c1.052-.042,2.688,1.06,3.741.945.494-.053.493-1.043,1.03-1.05.5-.006,1-.018,1.5-.027h.5l1.166-.029c.084,0,.173-.023.249-.017,1.6.133,3.107-.134,4.681-.126,1.158.007,2.319-.043,3.479-.058.874-.011,1.749-.009,2.623-.01,1.638,0,3.278-.015,4.914,0,.746.009,1.5.072,2.226.139a5.077,5.077,0,0,0,1.321,0c.234-.039.378-.019.407.094a8.318,8.318,0,0,0-1.677.129c.73-.01,1.274-.015,1.816.027.6.045,1.235.02,1.856.021.584,0,1.158.011,1.751-.026s1.225.006,1.84.018c.594.011,1.187.028,1.807.077l-.94.109h1.774l.021.054c-.228.012-.457.033-.686.035h-1.531c-.208,0-.531.052-.487-.111a2.127,2.127,0,0,0-.392-.035c-.7.017-1.391.042-2.288.07l1.083.022.006.047-2.492.036v.073c.924.009,1.867.065,2.767.014.856-.048,1.693-.028,2.535-.027,1.239,0,2.477.033,3.715.058a1.018,1.018,0,0,1,.4.072c.054.04-.035.12-.138.157Zm-.5-1.689V27.8H243.3v.03Zm2.267,4.2v.024l-.672.014L243.861,32Zm-2.47-5.124a9.027,9.027,0,0,1,2.324,0Zm.861-.438a2.883,2.883,0,0,1,1.31,0Zm2.138-1.557c-.253.009-.51,0-.765,0a1.469,1.469,0,0,1-.67-.088,3.41,3.41,0,0,0-.65-.059c.018-.1.009-.231-.448-.2-.953.071-1.857-.063-2.788-.071-.531,0-1.064.034-1.6.043-.465.008-.931,0-1.513,0l-.172.142h-2.536a1.833,1.833,0,0,1-.483-.035c-.352-.224-.9-.109-1.366-.117-.7-.011-1.394-.011-2.09-.017-.085,0-.169-.007-.254-.006-2.006.018-4.011.042-6.017.054a19.678,19.678,0,0,1-2.075-.09l1.13-.071-.006-.062c-.99-.069-2,.036-3.053.027a7.366,7.366,0,0,1,2.018-.126c.735.006,1.471.012,2.205.006.7-.006,1.4-.027,2.094-.043l.029.074-1.14.059-.018.053c.192.008.385.024.577.024,1.81,0,3.622-.032,5.43-.011A15.744,15.744,0,0,0,233,24.3c-1.222-.074-2.459-.055-3.688-.115h11.062l.008.059h-1.815a1.263,1.263,0,0,0,.733.109c1.128-.015,2.281-.091,3.377-.029,1.2.066,2.414.011,3.593.116a1.376,1.376,0,0,1,.166.038c-.886.04-1.72-.018-2.674.1a3.1,3.1,0,0,0,.493.086,12.607,12.607,0,0,1,2.825.043,13.87,13.87,0,0,0,1.6.046,3.632,3.632,0,0,1,1.1.131l-.037.081c-.348,0-.717.03-1.04,0a26.638,26.638,0,0,0-3.62-.059Zm2.757,3.4-.4-.032.057-.046.366.03Zm.219-.38h.628v.033l-.628-.01Zm.6.4.7.332.54-.355v.024ZM224.04,22.948c.706,0,1.418.06,2.115.04.863-.026,1.694.011,2.534.059.223.012.454.024.676.016a3.227,3.227,0,0,0,.458-.087c-.166-.044-.244-.073-.338-.089a17.711,17.711,0,0,0-2.544-.086c-.444-.011-.889-.019-1.333-.03a10.823,10.823,0,0,0-1.419-.029,16.414,16.414,0,0,1-2.121,0,6.071,6.071,0,0,0-1.589.158c.475.028.75.057,1.026.059.841-.013,1.687-.029,2.532-.022Zm-16.091,10.9h2.136l.04-.071c-.346-.049-.682-.109-1.039-.142C208.415,33.566,208.288,33.6,207.949,33.843ZM183.4,23.821l1.455-.221C183.845,23.461,183.61,23.491,183.4,23.821Zm42.578-.722h-2.469l-.006.024,2.48.076Zm-10.11-.221a5.4,5.4,0,0,0-1.672-.027,4.516,4.516,0,0,0,1.67.027ZM213,22.835l-1.982.032A5.709,5.709,0,0,0,213,22.835Zm-9.238.216a2.67,2.67,0,0,0-1.41.034,3.761,3.761,0,0,0,1.411-.034Zm-4.9.118h-1.185l.008.048Zm32.2-.169a1.1,1.1,0,0,0-.742-.08.8.8,0,0,0,.746.08Zm1.01.219-.72.055.051.08.737-.061Zm-12.314-.389-.961-.053-.025.083h.979Zm-1.809.3-.037-.052-.486.038.037.055ZM201.8,23.049a1.839,1.839,0,0,0-.276-.027.408.408,0,0,0-.138.059,1.347,1.347,0,0,0,.216.028.89.89,0,0,0,.2-.06Zm22.263.364.389-.017-.021-.054-.39.02Zm-36.739.07-.045-.049-.4.046.048.052Zm22.793-.547-.042-.046-.417.052.039.042Zm-17.171.388a1.269,1.269,0,0,0-.177-.041.425.425,0,0,0-.11.032,1.353,1.353,0,0,0,.157.05.92.92,0,0,0,.135-.04Zm33.009.055h-.5a2.582,2.582,0,0,0,.3.043,1.477,1.477,0,0,0,.205-.042Zm-25.232-.224c-.022-.016-.037-.043-.069-.046a.732.732,0,0,0-.144.018l.1.065Zm10.51,10.621.325.008v-.049Zm-6.31-4.713a7.223,7.223,0,0,0,1.655.008,4.927,4.927,0,0,0-1.651-.007ZM216,28.852l.02.072,1.3-.052a3.662,3.662,0,0,0-1.32-.02Zm-.648.325.059.064.806-.107-.051-.054Zm4.254.036v.027h.922l-.006-.027Zm-3.052.046.076.061.308-.071-.055-.036Zm6.431-.057c.025.015.043.04.078.043a.862.862,0,0,0,.146-.014c-.025-.015-.044-.04-.079-.043a.775.775,0,0,0-.143.012Z" transform="translate(-159.318 -22.712)" fill="#e6e6e6" style="mix-blend-mode: multiply;isolation: isolate"/>
      <g id="Group_36276" data-name="Group 36276" transform="translate(6.092 3.046)">
        <path id="Path_22601" data-name="Path 22601" d="M123.8-3.264h.5l-1.4-2.49A1.508,1.508,0,0,0,124-7.327a1.564,1.564,0,0,0-.472-1.214,1.564,1.564,0,0,0-1.228-.435h-2.085v5.712h.451V-5.67H122.3l.137-.008Zm-3.138-2.81v-2.5h1.581a1.188,1.188,0,0,1,.938.327,1.188,1.188,0,0,1,.362.925,1.188,1.188,0,0,1-.362.925,1.188,1.188,0,0,1-.938.327Z" transform="translate(-40.25 8.976)" fill="#212121" stroke="#212121" stroke-width="0.2"/>
        <path id="Path_22602" data-name="Path 22602" d="M94.052-3.264l-2.36-5.712H91.3L88.94-3.264h.5l.68-1.657h2.764l.672,1.657ZM90.28-5.3,91.5-8.281,92.716-5.3Z" transform="translate(-29.542 8.976)" fill="#212121" stroke="#212121" stroke-width="0.2"/>
        <path id="Path_22603" data-name="Path 22603" d="M64.3-8.632v-.344H60.351v.4h3.367l-3.5,4.971v.344h4.139v-.4H60.794Z" transform="translate(-20.612 8.976)" fill="#212121" stroke="#212121" stroke-width="0.2"/>
        <path id="Path_22604" data-name="Path 22604" d="M34.867-3.264l-2.36-5.712h-.389l-2.36,5.712h.5l.68-1.657H33.7l.672,1.657ZM31.1-5.3l1.222-2.978L33.531-5.3Z" transform="translate(-10.72 8.976)" fill="#212121" stroke="#212121" stroke-width="0.2"/>
        <path id="Path_22605" data-name="Path 22605" d="M1.176-8.976v5.712H3.39A1.507,1.507,0,0,0,4.6-3.642,1.507,1.507,0,0,0,5.09-4.806a1.419,1.419,0,0,0-.9-1.42,1.337,1.337,0,0,0,.649-1.268,1.461,1.461,0,0,0-.488-1.125,1.461,1.461,0,0,0-1.174-.357Zm.451.4h1.5a1.1,1.1,0,0,1,.885.265,1.1,1.1,0,0,1,.371.847c0,.779-.428,1.069-1,1.069H1.627ZM1.627-6H3.421a1.109,1.109,0,0,1,.877.305,1.109,1.109,0,0,1,.337.865,1.133,1.133,0,0,1-.374.881,1.133,1.133,0,0,1-.916.28H1.627Z" transform="translate(-1.176 8.976)" fill="#212121" stroke="#212121" stroke-width="0.2"/>
      </g>
    </g>
  </g>
</svg>
