<svg xmlns="http://www.w3.org/2000/svg" viewBox="0 0 270 210">
  <g id="_240px" data-name="240px" transform="translate(1364 -894)">
    <rect id="Rectangle_4" data-name="Rectangle 4" width="270" height="210" rx="5" transform="translate(-1364 894)" fill="#fff"/>
    <g id="Group_64" data-name="Group 64" transform="translate(-1291 954)">
      <path id="Path_75" data-name="Path 75" d="M811.016,783.313H696.584a4.837,4.837,0,0,0-4.831,4.832v80.336a4.838,4.838,0,0,0,4.831,4.832H811.016a4.84,4.84,0,0,0,4.831-4.832V788.144A4.839,4.839,0,0,0,811.016,783.313Zm-114.432,3.54H811.016a1.294,1.294,0,0,1,1.292,1.292v69.931l-26.789-26.788L760.26,856.546l-32.4-32.4-32.566,32.566V788.144A1.294,1.294,0,0,1,696.584,786.853Z" transform="translate(-691.753 -783.313)" fill="#dddfe1"/>
      <path id="Path_76" data-name="Path 76" d="M1074.492,898.63a8.164,8.164,0,1,0-8.164-8.164A8.163,8.163,0,0,0,1074.492,898.63Z" transform="translate(-996.586 -863.871)" fill="#dddfe1"/>
    </g>
  </g>
</svg>
