<svg xmlns="http://www.w3.org/2000/svg" width="42" height="42"><g data-name="Place holder"><g data-name="Rectangle 1" fill="#fff" stroke="#dddfe1"><rect width="42" height="42" rx="5" stroke="none"/><rect x=".5" y=".5" width="41" height="41" rx="4.5" fill="none"/></g><g data-name="Group 50" fill="#dddfe1"><path data-name="Path 75" d="M32.853 12H9.966a.967.967 0 00-.966.966v16.067a.968.968 0 00.966.966h22.886a.968.968 0 00.966-.966V12.966a.968.968 0 00-.965-.966zm-22.886.708h22.886a.259.259 0 01.258.258v13.986l-5.358-5.358-5.052 5.052-6.48-6.48-6.513 6.513V12.966a.259.259 0 01.258-.258z"/><path data-name="Path 76" d="M24.582 18.952a1.633 1.633 0 10-1.633-1.633 1.633 1.633 0 001.633 1.633z"/></g></g></svg>