<svg xmlns="http://www.w3.org/2000/svg" width="109.124" height="18" viewBox="0 0 109.124 18">
  <g id="Group_2829" data-name="Group 2829" transform="translate(182 -388.848)">
    <path id="Path_2690" data-name="Path 2690" d="M-182,397l2.072.026c1.742.021,3.491-.051,5.224.085a5.2,5.2,0,0,1,4.8,4.161,5.222,5.222,0,0,1-4.423,6.484,21.662,21.662,0,0,1-3.422.117c-.393,0-.486.124-.482.5.019,1.7.008,3.406.008,5.109v.534H-182Zm3.832,7.669c.47,0,.9.017,1.318,0a10.449,10.449,0,0,0,1.781-.153,1.944,1.944,0,0,0,1.527-1.95,1.974,1.974,0,0,0-1.293-2.04,10.748,10.748,0,0,0-3.332-.229Z" transform="translate(0 -7.5)" fill="#0d1136"/>
    <path id="Path_2691" data-name="Path 2691" d="M1096.974,464.038a4.269,4.269,0,0,0-2.013-.019,2.521,2.521,0,0,0-1.9,2.431c-.069,1.741-.047,3.485-.063,5.227,0,.2,0,.4,0,.627h-3.581V460.482h3.466v1.425a3.266,3.266,0,0,1,2.349-1.477,10.946,10.946,0,0,1,1.74.013Z" transform="translate(-1169.85 -65.83)" fill="#008d71"/>
    <path id="Path_2692" data-name="Path 2692" d="M429.151,397.27c.2,0,.358,0,.516,0,2.236.02,4.478-.064,6.7.089a4.412,4.412,0,0,1,4.283,3.585,3.876,3.876,0,0,1-2.182,4.425.4.4,0,0,0-.089.06,11.028,11.028,0,0,1,1.515.929,4.339,4.339,0,0,1,.764,5.431,4.761,4.761,0,0,1-4.195,2.425c-2.393.084-4.791.027-7.187.03a.546.546,0,0,1-.13-.038Zm3.663,13.9c.727,0,1.416,0,2.1,0a7.083,7.083,0,0,0,.8-.033,1.932,1.932,0,0,0,1.81-1.8,1.816,1.816,0,0,0-1.406-2c-1.078-.164-2.184-.155-3.305-.222Zm0-7.1c.759,0,1.488.019,2.216-.009a3.119,3.119,0,0,0,.93-.193,1.65,1.65,0,0,0,1.092-1.685,1.567,1.567,0,0,0-1.21-1.634c-.987-.16-2-.159-3.028-.229Z" transform="translate(-562.328 -7.744)" fill="#008d71"/>
    <path id="Path_2693" data-name="Path 2693" d="M257.146,402.656c.848-.935,1.761-1.82,2.525-2.819a2.548,2.548,0,0,1,2.5-1.114c1.025.1,2.066.021,3.208.021l-4.634,4.982,4.734,6.9c-1.3,0-2.519-.03-3.737.014a1.069,1.069,0,0,1-1.08-.577c-.764-1.214-1.583-2.393-2.416-3.639-.4.436-.781.836-1.138,1.258-.071.084-.058.252-.059.382,0,.837,0,1.673,0,2.536h-3.567V393.328h3.554v9.3Z" transform="translate(-400.688 -4.122)" fill="#0d1136"/>
    <path id="Path_2694" data-name="Path 2694" d="M613.558,468.808h-3.195l-.126-1.174a12.43,12.43,0,0,1-1.185.968c-1.41.9-4.459.873-5.757-1.235a3.445,3.445,0,0,1,2.329-5.228c1.069-.258,2.171-.384,3.257-.57.092-.016.183-.033.275-.047a.809.809,0,0,0,.771-.587,1.018,1.018,0,0,0-.295-1.023,2.073,2.073,0,0,0-2.085-.428,1.811,1.811,0,0,0-1.338,1.345c-.016.05-.013.106-.026.157a1.142,1.142,0,0,1-.063.143c-.513-.1-1.03-.2-1.547-.3s-1.011-.209-1.546-.321a3.69,3.69,0,0,1,.859-2.075,4.789,4.789,0,0,1,2.823-1.678,7.23,7.23,0,0,1,4.122.264,3.9,3.9,0,0,1,2.629,3.781c.059,1.648.01,3.3.024,4.95C613.494,466.757,613.532,467.766,613.558,468.808Zm-3.61-5.176c-.423.063-.82.1-1.207.185a14.688,14.688,0,0,0-1.837.468c-.449.161-.557.6-.548,1.059a1.131,1.131,0,0,0,.585,1.021,2.235,2.235,0,0,0,2.658-.719A3.178,3.178,0,0,0,609.948,463.633Z" transform="translate(-722.065 -62.316)" fill="#008d71"/>
    <path id="Path_2695" data-name="Path 2695" d="M927.014,468.379h-3.2c-.041-.4-.081-.794-.125-1.228a.862.862,0,0,0-.154.129c-1.345,1.934-4.918,1.869-6.417.158a3.423,3.423,0,0,1,1.457-5.554,29.724,29.724,0,0,1,3.236-.656c.274-.053.553-.081.826-.138a.888.888,0,0,0,.49-1.563,2.026,2.026,0,0,0-2.031-.486,1.8,1.8,0,0,0-1.411,1.316c-.034.1-.05.2-.086.359l-3.123-.629a3.931,3.931,0,0,1,1.954-3.035,6.527,6.527,0,0,1,6.343-.224,3.675,3.675,0,0,1,2.132,3.409c.064,1.581.021,3.167.037,4.751C926.958,466.1,926.99,467.218,927.014,468.379Zm-3.545-5.182c-.8.125-1.5.213-2.187.349a3.561,3.561,0,0,0-.966.34,1.047,1.047,0,0,0-.5,1.092,1.114,1.114,0,0,0,.635.99,2.1,2.1,0,0,0,2.853-1.3A10.782,10.782,0,0,0,923.469,463.2Z" transform="translate(-1010.505 -61.892)" fill="#008d71"/>
    <path id="Path_2696" data-name="Path 2696" d="M85.828,460.9l-3.058.918a7.023,7.023,0,0,0-1.007-1.227,2.653,2.653,0,0,0-4.147,1.578,4.649,4.649,0,0,0-.006,1.773,2.561,2.561,0,0,0,2.222,2.052,2.5,2.5,0,0,0,2.83-1.444c.053-.1.243-.226.33-.2.969.276,1.931.579,2.956.894a7.773,7.773,0,0,1-.28.792,5.576,5.576,0,0,1-5.253,3.32,6.287,6.287,0,1,1-.163-12.569,5.753,5.753,0,0,1,4.638,2.085A4.625,4.625,0,0,1,85.828,460.9Z" transform="translate(-235.461 -62.508)" fill="#0d1136"/>
    <path id="Path_2697" data-name="Path 2697" d="M766.619,461.354h9.674c.006.126.018.252.018.379,0,.639-.038,1.281.013,1.916a1.424,1.424,0,0,1-.483,1.185c-1.572,1.627-3.123,3.274-4.681,4.914-.088.093-.169.192-.307.351h5.519v3.1h-9.9c-.01-.15-.026-.291-.026-.432,0-.732.022-1.465-.01-2.2a1.241,1.241,0,0,1,.4-.983c1.526-1.6,3.036-3.209,4.551-4.817.08-.085.155-.175.279-.317h-5.053Z" transform="translate(-872.672 -66.714)" fill="#008d71"/>
    <path id="Path_2698" data-name="Path 2698" d="M-.7,473.33V461.509H2.867V473.33Z" transform="translate(-166.815 -66.856)" fill="#0d1136"/>
    <path id="Path_2699" data-name="Path 2699" d="M-.519,390.986a2.1,2.1,0,0,1-2.148,2.1,2.139,2.139,0,0,1-2.078-2.14,2.141,2.141,0,0,1,2.126-2.093A2.082,2.082,0,0,1-.519,390.986Z" transform="translate(-163.095)" fill="#008d71"/>
  </g>
</svg>
