<svg width="44" height="46" viewBox="0 0 44 46" fill="none" xmlns="http://www.w3.org/2000/svg">
<path d="M2.7381 21.9048C2.7381 11.3193 11.3193 2.7381 21.9048 2.7381C32.4902 2.7381 41.0714 11.3193 41.0714 21.9048V26.2857H35.3214C34.5657 26.2857 33.9524 26.899 33.9524 27.6548V42.4405C33.9524 43.1962 34.5657 43.8095 35.3214 43.8095H37.5119C39.1821 43.8095 40.784 43.146 41.965 41.965C43.146 40.784 43.8095 39.1821 43.8095 37.5119V21.9048C43.8095 9.80676 34.0028 0 21.9048 0C9.80676 0 0 9.80676 0 21.9048V37.5119C0 39.1821 0.663497 40.784 1.84453 41.965C3.02556 43.146 4.62739 43.8095 6.29762 43.8095H8.4881C9.24381 43.8095 9.85714 43.1962 9.85714 42.4405V27.6548C9.85714 26.899 9.24381 26.2857 8.4881 26.2857H2.7381V21.9048ZM36.6905 29.0238H41.0714V37.5119C41.0714 38.4559 40.6964 39.3613 40.0289 40.0289C39.3613 40.6964 38.4559 41.0714 37.5119 41.0714H36.6905V29.0238ZM2.7381 29.0238H7.11905V41.0714H6.29762C5.35357 41.0714 4.4482 40.6964 3.78066 40.0289C3.11312 39.3613 2.7381 38.4559 2.7381 37.5119V29.0238ZM20.5357 21.0833V44.631C20.5357 44.994 20.68 45.3423 20.9367 45.599C21.1934 45.8558 21.5417 46 21.9048 46C22.2679 46 22.6161 45.8558 22.8728 45.599C23.1296 45.3423 23.2738 44.994 23.2738 44.631V21.0833C23.2738 20.7202 23.1296 20.372 22.8728 20.1153C22.6161 19.8585 22.2679 19.7143 21.9048 19.7143C21.5417 19.7143 21.1934 19.8585 20.9367 20.1153C20.68 20.372 20.5357 20.7202 20.5357 21.0833V21.0833ZM15.6071 26.2857C16.3629 26.2857 16.9762 26.899 16.9762 27.6548V38.0595C16.9762 38.4226 16.832 38.7708 16.5752 39.0276C16.3185 39.2843 15.9702 39.4286 15.6071 39.4286C15.244 39.4286 14.8958 39.2843 14.6391 39.0276C14.3823 38.7708 14.2381 38.4226 14.2381 38.0595V27.6548C14.2381 26.899 14.8514 26.2857 15.6071 26.2857ZM29.5714 27.6548C29.5714 27.2917 29.4272 26.9434 29.1704 26.6867C28.9137 26.43 28.5655 26.2857 28.2024 26.2857C27.8393 26.2857 27.4911 26.43 27.2343 26.6867C26.9776 26.9434 26.8333 27.2917 26.8333 27.6548V38.0595C26.8333 38.4226 26.9776 38.7708 27.2343 39.0276C27.4911 39.2843 27.8393 39.4286 28.2024 39.4286C28.5655 39.4286 28.9137 39.2843 29.1704 39.0276C29.4272 38.7708 29.5714 38.4226 29.5714 38.0595V27.6548Z" fill="#3C3C3C"/>
</svg>
