<svg width="46" height="42" viewBox="0 0 46 42" fill="none" xmlns="http://www.w3.org/2000/svg">
<path d="M43.5076 16.4999H42.0076V7.49995C42.0076 7.10213 41.8496 6.7206 41.5683 6.4393C41.287 6.15799 40.9055 5.99996 40.5076 5.99996H4.50787C4.15269 6.00575 3.80698 5.88531 3.53229 5.66006C3.2576 5.43482 3.07177 5.1194 3.00788 4.76997V4.22997C3.07177 3.88054 3.2576 3.56512 3.53229 3.33988C3.80698 3.11463 4.15269 2.99419 4.50787 2.99998H39.8776C40.2755 2.99998 40.657 2.84195 40.9383 2.56064C41.2196 2.27934 41.3776 1.89781 41.3776 1.49999C41.3776 1.10217 41.2196 0.72064 40.9383 0.439337C40.657 0.158035 40.2755 0 39.8776 0H4.50787C3.3144 0 2.16982 0.474103 1.32591 1.31801C0.481999 2.16192 0.00789631 3.3065 0.00789631 4.49997C-0.0026321 4.67982 -0.0026321 4.86012 0.00789631 5.03997V35.8948C0.0137842 36.7024 0.178695 37.501 0.493211 38.2449C0.807727 38.9887 1.26569 39.6634 1.84095 40.2303C2.41621 40.7972 3.0975 41.2453 3.84592 41.5488C4.59434 41.8524 5.39523 42.0057 6.20286 41.9997H40.5076C40.9055 41.9997 41.287 41.8417 41.5683 41.5604C41.8496 41.2791 42.0076 40.8976 42.0076 40.4997V31.4998H43.5076C43.9054 31.4998 44.287 31.3418 44.5683 31.0605C44.8496 30.7792 45.0076 30.3976 45.0076 29.9998V17.9999C45.0076 17.6021 44.8496 17.2205 44.5683 16.9392C44.287 16.6579 43.9054 16.4999 43.5076 16.4999ZM39.0076 38.9997H6.20286C5.36856 39.0078 4.56484 38.6861 3.96651 38.1046C3.36818 37.5232 3.02365 36.7289 3.00788 35.8948V8.81994C3.49477 8.96104 4.00141 9.02184 4.50787 8.99994H39.0076V16.4999H28.5077C26.5186 16.4999 24.611 17.2901 23.2044 18.6966C21.7979 20.1031 21.0078 22.0107 21.0078 23.9998C21.0078 25.989 21.7979 27.8966 23.2044 29.3031C24.611 30.7096 26.5186 31.4998 28.5077 31.4998H39.0076V38.9997ZM42.0076 28.4998H28.5077C27.3142 28.4998 26.1697 28.0257 25.3257 27.1818C24.4818 26.3379 24.0077 25.1933 24.0077 23.9998C24.0077 22.8064 24.4818 21.6618 25.3257 20.8179C26.1697 19.974 27.3142 19.4999 28.5077 19.4999H42.0076V28.4998Z" fill="#3C3C3C"/>
<path d="M30.0227 26.2498C31.2653 26.2498 32.2727 25.2425 32.2727 23.9998C32.2727 22.7572 31.2653 21.7498 30.0227 21.7498C28.7801 21.7498 27.7727 22.7572 27.7727 23.9998C27.7727 25.2425 28.7801 26.2498 30.0227 26.2498Z" fill="#3C3C3C"/>
</svg>
