<svg xmlns="http://www.w3.org/2000/svg" width="1919.214" height="1315.133" viewBox="0 742.433 1919.214 1315.133"><path fill="#7D7D7D" d="M1297.83 1369.324l-11.8 8.652c0 .787-.786 2.36-1.572 3.146v1.573l.787 3.933c0 1.573.787 3.146.787 4.72 0 2.36.787 4.718 2.36 7.078 2.36 5.506 4.72 13.372 7.08 19.664-.788 7.08-2.36 13.372-3.147 19.664l7.866 64.498c16.52-38.542 25.17-81.016 25.17-125.85 0-9.44-.786-18.09-1.572-27.53l-25.96 20.452zm-188.776-148.66s0 .786 0 0zm4.72 3.146c-2.36.786 9.438 7.866 8.65 2.36h-.786c-2.36 0-6.292.786-7.865-2.36zm-2.36-13.372c1.572 1.573 9.438 6.292 11.797 3.933-3.145-1.572-5.505-3.145-8.65-3.932h-3.147zm19.663 16.518c0 .787 0-.786 0 0zm.787 3.146c2.36-1.573-1.573-1.573-1.573-2.36 0-.787.788-.787.788-1.573 0-3.147-6.292.785-3.933 3.145h.787c-.787.786-1.573 1.573-.787 2.36.787 1.573 3.933 1.573 5.506 0 2.36-1.573-1.572-1.573-1.572-2.36 0 1.574 0 1.574.786.787zm29.89-5.506c-.788 0-.788.787-1.574.787 0-.787-.786-.787-.786-1.573l1.573-1.573h-1.573v-3.933c-1.573.786-10.225-1.573-7.866-3.146-3.146-.787-3.146-.787-4.72-.787.788-2.36 1.574-3.932.788-3.932.787-2.36 1.573-3.933-1.573-3.146-4.72 1.573-3.933 10.225-9.44 11.798.788 1.573 2.36.787 0 2.36-1.572 1.573-.786 2.36.788 2.36 0 0-.786 0-.786.786-2.36 1.573 0 3.146 1.573 2.36 4.72-.786 10.225.787 14.945 1.573-.787.785-1.573.785-1.573 1.572 0 1.573 4.718-2.36 4.718-2.36.787.787 3.146 3.933 3.146 4.72.786 1.572 2.36.786 3.146-.787 0-.787 0-1.573-.787-2.36 0 0 0-.786.787-.786.787-2.36-.787-2.36-.787-3.934zm-239.902-116.41c-1.573-1.574-13.372 4.718-11.798-1.574-1.573.786-5.506 0-7.08 2.36-3.932.786-9.438 2.36-10.224 3.933 1.573 0 3.146-.786 4.72-.786-2.36.785-3.934 1.572-4.72 2.36-2.36 0-5.506-.787-7.08 0-1.572 0-3.145.786-4.718 1.572 0 .787.786.787.786.787s-1.573.785-2.36 1.572c-.787 0-1.573 0-2.36.786 1.573-.786 2.36-2.36 3.146-3.146l-.787-.786c.787 0 1.573-.787 1.573-1.573 0-.787-8.652 2.36-10.225 3.146-3.146.785-6.293 4.718-9.44 6.29-.785.787-6.29 2.36-7.078 4.72h.787c2.36-.787 8.652-1.573 10.225-3.146.786 0 4.718-3.146 5.505-2.36.786.787 1.573.787 3.146 0-1.572 1.573-3.145 2.36 0 1.573-1.572.787-3.145 1.573.788.787 3.933-.787 8.652-3.146 12.585-2.36-.786 0-3.146 0-3.933 1.573 0 .787 13.372-2.36 15.73-3.146 3.147-.785 7.08-1.572 10.226-2.36.787 0 13.372-3.145 10.225-4.718-.786-.787-8.65 1.573-11.01.786h.786c.787 0 8.652-3.146 10.225-4.72h3.147c.787 0 1.573 0 2.36-.785.788 0-.786 0-3.145-.788.786.787.786 0 0 0zm-49.554 11.01c-.787 0-1.573.788-1.573.788.787-.787 2.36-1.573 1.573-.787zm30.676-7.865h3.146-4.72 1.574zm2.36.788c-.787 0-.787 0 0 0-.787 0-.787 0-2.36.786.787-.786 1.573-.786 2.36-.786zm-6.293 7.08c1.574-.787 2.36-.787 2.36-.787 1.574-.785 2.36-.785 3.934-1.572l-.787.786h3.146c-3.146.787-5.505 1.573-8.652 1.573zm-1.572-3.934c.787-.786.787-.786 0 0 2.36-.787 7.08-1.573 7.08-2.36.786 0 1.572 0 2.36-.786-2.36 2.36-5.507 3.146-9.44 3.146z"/><path fill="#7D7D7D" d="M885.67 1112.905c.787.787 1.573.787 2.36 0 .787 0 1.573-.786 1.573-.786s-3.147-1.575-3.933.785zm-18.09 12.585c.786 1.573 6.292-1.573 6.292-2.36-.787 0-4.72.787-6.293 2.36.785-.787 0-.787 0 0zm283.948 104.612c0-1.573 0 0 0 0zm-40.115-15.73c1.573 1.572 9.44 6.29 11.798 3.932-3.145-1.573-5.505-3.146-8.65-3.933-1.574 0-1.574-.785-3.147 0zm-308.332-2.36c0 .786-.786 1.572-1.572 1.572l.787-1.573c-1.573 0-1.573-.785-2.36.788.786.786 1.573 2.36 2.36 2.36-1.573 2.36.787 2.36.787 2.36s-.787-.787-.787-1.573c0-.787.786-1.574.786-3.934zm-7.078-13.372c-.787.787-2.36.787-3.146 1.573-1.573 1.573 0 3.146 1.573 2.36 0 1.573 0 2.36.785 3.146 1.573-.787.787-2.36.787-3.147 0 0-.787.787-.787 0 0-1.573.786-2.36.787-3.933zm313.052 449.127c-.787.786-1.573.786-2.36 1.573.787 0 5.506-.787 5.506-2.36-1.573.787-3.146.787-4.72.787h1.574z"/><path fill="#7D7D7D" d="M1111.413 1648.554c1.573-.786 5.506-1.573 6.293-3.146-1.573.787-3.146 1.573-4.72 1.573-.786 0-1.573.787-1.573 1.574zm-396.427-294.96c.787-.787.787-.787.787-1.574-.787 0-.787 0-.787.787 0 0-1.573.786 0 .786zm6.292 8.65c-.786 7.867 5.506-.786 0 0zm-9.44-12.584s0-.787 0 0c-1.572.787 0 2.36 0 0zm5.507 5.506c.786 0 1.573-.786 1.573-1.573h-1.573c-.786.786-.786 1.573 0 1.573zm1.573.787c0 .786 0 1.573.787 1.573 1.573 0 .787-1.573-.787-1.573.787 0 .787 0 0 0zm83.376-151.807c-1.573 0-3.146.787-3.146 2.36.786-.787.786-.787 2.36-.787-.787 1.572.787 4.718 2.36 3.145.786-1.573-2.36-3.146-1.574-4.72z"/><path fill="#7D7D7D" d="M1112.986 1646.98c.787-.786-.786 0 0 0zm-52.7-11.01c2.36-7.867-6.292-.788 0 0zm-27.53-442.05c-1.572.787 0 0 0 0zm-79.442-90.454c0-.787 0 1.573 0 0zm-1.573-3.933c1.574 0 2.36.787 2.36-.786-1.572 0-3.145 0-4.718.786 0 .787 1.573 0 2.36 0zm-58.205 6.293c1.573-.787 3.146-.787 4.72-1.573-2.36.787-3.934 1.573-4.72 3.146 0 1.572 3.933.785 3.933.785h.787c2.36-.786 9.44-3.933 4.72-3.146 1.572 0 3.145-.788 3.932-1.574-.787 0-3.146 0-6.293.786 2.36-.786 5.506-1.573 7.866-2.36-.786-3.146-14.158.787-14.945 3.934zm135.29 12.585c0 1.574 7.078 3.147 7.865 3.147h.786c3.146 0 11.012 1.573 12.585 0-2.358-1.573-21.236-5.506-21.236-3.146zm-95.175 13.372c-1.573.787 2.36 0 0 0z"/><path fill="#7D7D7D" d="M1002.868 1055.485c-177.763 0-321.704 144.728-321.704 321.704 0 110.118 55.846 207.652 140.795 265.857-25.958 12.585-54.274 22.024-82.59 22.024-20.45 0-41.688-4.718-59.78-14.944-22.81-13.372-35.394-35.395-36.18-62.14s7.078-52.7 17.303-77.082c7.08-15.73 14.945-31.463 24.383-46.407-.787 1.573-2.36 2.36-3.146 3.933-12.585 17.304-23.597 36.182-32.25 55.846-10.224 23.597-18.09 49.553-16.517 74.723 2.36 25.17 14.945 47.193 35.395 62.138 21.237 14.945 47.194 22.81 73.15 24.383 38.542 1.574 76.297-9.438 110.905-25.956 44.834 24.384 96.747 37.755 151.02 37.755 82.59 0 158.1-31.464 215.518-82.59-2.36-4.72-3.932-8.652-4.718-11.012-1.573-3.146-3.146-8.652-6.292-16.518-52.7 51.127-125.063 82.59-204.506 82.59-43.26 0-84.162-9.44-121.13-25.958 4.718-3.146 9.438-5.506 14.157-8.652 39.33-23.597 76.298-52.7 109.333-84.95l-33.036-30.675c-28.316 32.25-59.78 61.352-94.388 86.522-9.44 7.08-19.665 13.37-29.89 19.664-84.162-49.552-140.008-142.367-140.008-248.553 0-63.712 20.45-122.704 55.06-171.47l1.572-1.574h-.787c1.573-2.36 3.146-3.933 4.72-6.292h3.145c3.933-.785 7.08-2.36 11.012-3.145 3.146-.786 5.506 1.573 7.866.787 2.36-.787.787-1.573 3.146-1.573 1.573 0 2.36-.787 3.146-.787-3.933 4.72.787 1.573 3.146.786 0 1.572-1.573 1.572-2.36 3.145 0 1.573 3.933 0 4.72 0 1.572.786-1.574 3.146 2.36 3.146.786 0 3.932-.786 3.932.787v5.506c.786 2.36 2.36.786 3.933 1.573s-.787 2.36 1.573 2.36c3.933.786 3.146 5.506 7.866 4.72 0 0 7.08 2.36 7.866 2.36 2.36 0 3.933.786 5.506 1.572 1.573 1.573-.786 3.933-2.36 3.146-.787-.786-3.933-.786-4.72 0h-.786c-3.146-2.36-10.225-4.72-14.158-2.36h2.36c0 .786-.787.786-1.573.786.786 1.573 5.506 1.573 6.292.787-.788 0-.788.786-1.574 1.573 1.573.786 6.292 1.573 8.652 1.573.787.786 1.573.786 1.573 1.573 1.574 2.36-1.572 8.652-2.36 11.012-.786 3.146-2.36 7.08-1.572 10.225.787 2.36.787 4.72.787 7.08.787 3.145-2.36 3.145 0 6.29 1.573 3.147 7.08 8.653 6.293 11.013 0 1.573.787 2.36 1.573 3.933 2.36 1.572 1.574 3.932 2.36 6.292.788 2.36 10.226 4.72 12.586 6.292 3.933 3.146 3.146 6.293 5.506 10.225 2.36 3.932 1.573 7.078 4.72 10.224 3.145 2.36 9.438 8.652 2.36 8.652 1.572 2.36 5.505 1.573 7.078 3.933l4.72 4.718c0 1.573-.788 3.933.786 4.72 1.573 1.572 3.933 4.718 6.293 5.505 1.572.786 3.145 3.933 3.932 3.933s1.573-3.146.787-3.933c-1.574-2.36-2.36-.786-4.72-3.146-3.146-3.933-3.146-9.44-6.293-13.372-3.146-3.933-3.146-9.44-7.08-11.798-3.145-1.573-8.65-8.652-5.505-13.37 1.573 1.572 4.72 1.572 7.08 3.145.786.786.786 3.146 1.572 4.72 1.573 4.718 3.146 7.078 7.08 11.01 2.36 1.574 2.36.788 3.932 3.147.787 1.572 3.146 2.36 3.933 3.932 2.36 1.573 1.572 3.146 2.36 5.506 0 2.36 3.932 3.146 5.505 3.933 4.72 3.147 7.866 9.44 10.225 14.16.787 1.572 2.36 3.932 2.36 6.29s-2.36 3.147-1.573 6.293c1.573 3.146 6.293 4.72 9.44 6.293 1.572.786 3.145 2.36 4.718 2.36 3.146.786 4.72 2.36 7.866 3.933 2.36 1.572 4.72 0 7.08.786 1.573.786 3.146 1.573 4.72 3.146 3.145 1.573 7.078 1.573 10.224 3.146 4.72 2.36 5.506-2.36 9.44-2.36 5.505 0 8.65 4.72 11.797 8.652 3.934 4.72 7.867 5.506 13.373 6.292 2.36.787 3.933 1.573 6.292 3.146 3.146.786 3.933 0 7.08 0 1.572 0 4.718 4.72 7.865 7.866l13.372 1.573c0-3.933.787-8.652 1.573-11.798 0-3.147 1.573-8.653-.787-9.44-1.573-.787-3.146-2.36-5.506-3.146-3.146-.786-7.08 0-11.012 0-3.146 0-5.506.787-8.652.787-2.36 0-3.146-2.36-1.573-3.145 2.36-1.573 2.36-2.36 2.36-4.72v-3.932c0-2.36 1.573-3.146 1.573-.786 1.573-1.573 2.36-3.146 2.36-5.506 0-3.145 3.146-5.505 3.146-8.65 0-3.147-8.652-2.36-11.798-2.36-2.36 0-4.72 0-6.292 1.572-2.36 1.573-1.573 4.72-3.146 6.292-.787 1.573-2.36 3.146-3.146 4.72-1.573 3.145-3.146.785-5.506.785-3.146 0-5.506 1.572-7.866 2.36-2.36.786-4.72-1.574-7.08-2.36-3.145-1.574-7.078-7.08-9.438-10.226-2.36-3.146-2.36-9.44-2.36-13.37 0-3.934.787-6.294 1.573-9.44 0-1.573-.787-4.72 0-4.72 0-1.572-.787-3.145 0-5.505s1.573-3.934 3.146-5.507c2.36-1.573 3.934-1.573 6.294-1.573s3.933-3.146 5.506-4.72 3.933-2.36 6.293-2.36c1.573 0 2.36.787 3.146 1.574 2.36.786 2.36-.787 4.718-.787 4.72 0 7.866 5.506 13.372 3.146-2.36-1.573-.787-3.146 0-5.506h-2.36c1.573-.786 2.36-.786 3.933-.786-4.72-3.932-8.652-6.292-11.012-8.65-12.584-9.44-27.53-22.81-28.315-40.902 0-7.08 2.36-18.09 13.372-26.743l.787-.786c3.146-2.36 4.72-3.934 15.73-11.8 7.08-4.718 15.732-7.078 25.958-7.078 18.878 0 38.542 7.866 42.474 10.225l44.834 18.878h.787c1.573 0 3.146 0 3.933-.787 1.573-1.573 0-1.573 0-3.146 1.573 0 3.933.786 5.506.786 3.146 0 3.933-3.146 6.292-3.146 0 2.36.787 2.36 2.36 2.36-4.72 0-13.372 3.933-6.292 8.652.787.787 9.44-4.72 11.798-4.72 3.933-.785 11.798-3.932 3.146-5.505-3.146-.788-6.292-1.574-8.652-3.147-3.146-2.36-3.933-5.506-8.652-6.292 1.573-1.572 3.933-1.572 5.506-2.36 3.146-2.36-2.36-3.932-3.933-3.932-3.934-.786-7.08-.786-11.013.787-2.36.786-5.506 2.36-7.866 3.146 1.574-3.145 6.293-3.145 8.653-4.718 3.146-2.36 1.573-3.933 6.292-3.933 8.652-.787 17.304 3.145 26.743 3.145 3.146 0 3.933-2.36 7.08-3.146 2.36-.787 5.505-.787 7.865-.787 8.652-1.573-.787-6.292-.787-10.225-2.36.786-14.158 3.146-15.73.786 2.36-.786 11.01.787 11.797-2.36 0-1.573-9.44-3.146-11.012-3.933-.786-.785-2.36-1.572-2.36-3.145-3.145 0-5.505-1.573-7.865-3.146 6.292-2.36-4.72-5.507-4.72-7.867-.786-3.933-5.505-5.506-8.65-7.866-.788.787-2.36.787-3.147 1.573-.787.787.787 1.573-.787 3.146-2.36.786-7.865 3.933-10.224 2.36-1.573-.786-6.292-3.146-7.08-4.72-.786-2.36.788-5.505-2.36-6.29-4.718-2.36-8.65-3.147-12.584-5.507-3.146-1.574-7.08-.787-10.225-1.574-3.933-.786-7.866-2.36-11.798-1.573-3.147 0-3.147 1.573-.788 3.933 3.146 2.36-2.36 2.36-1.573 3.933s4.718 2.36 3.932 4.718c-.787 2.36-3.933 2.36-6.293 2.36 2.36 1.573 5.505 2.36 7.865 3.933 2.36 1.574 3.146 6.293 1.573 8.653-2.36 3.146-9.44 5.506-13.37 6.292 4.718 1.573 3.932 5.506 5.505 8.652s-4.72 6.292-7.866 4.72-8.652-4.72-10.225-7.867c-1.573-3.933 0-6.292-5.506-8.652-11.798-2.36-22.81-4.72-34.61-7.866-2.36-.787-4.718-1.573-7.078-.787-1.573.787-3.933 2.36-4.72 0-1.572-6.292-5.505-5.506-10.224-4.72 1.573-2.36 0-6.29 2.36-9.438 2.36-3.146 5.506-4.72 7.866-7.08 1.573-1.572 7.866-.785 7.866-2.36s-7.08-1.572-8.652-1.572c.787 0 11.798.786 11.798 0 1.573-2.36 7.866-1.573 11.012-3.146 4.72-2.36 1.573-2.36-2.36-3.147-3.146 0-6.293 0-8.652-2.36 3.933 0 7.866 1.573 11.798 1.573.787 0 11.012-.787 6.293-3.933 3.933 0 7.866 1.573 11.798 1.573-1.572-.786 3.934 0 4.72-.786 1.573 0 6.293-1.573 7.08-3.146 0-.787-6.294-2.36-3.934-3.933.787-.785 3.933-.785 3.146-2.36-.787-1.572-3.146-1.572-4.72-1.572 3.147 0 6.294 0 9.44.787-.787 3.933 7.866-.787 9.44 0 3.932.786 7.865 2.36 11.01 3.933-.786 0-3.932 0-3.932.786 5.506.786 10.225.786 15.73 3.146 11.013 4.72-3.932 3.933-3.932 6.292 0 .787 2.36 1.573 3.146 1.573-2.36.787-19.664-1.573-20.45 1.573.786 3.933 11.01 1.573 13.37 1.573 2.36.787 5.507 0 8.653.787 3.146.786 6.293 2.36 8.652 3.146-1.574 1.573 8.65 3.933 9.438 3.933 1.573.786 15.73 3.933 15.73 3.933-.786-3.147-9.438-4.72-11.797-6.293 2.36.787 18.878 7.08 18.878 2.36-.787-1.573-5.506-3.933-6.292-3.933-1.573-.786-3.146 0-4.72-1.573-1.572-.785-4.718-3.145-4.718-3.932h2.36c-.786-1.573-1.573-.786-3.146-1.573 3.933-2.36 10.225 2.36 13.37 4.72.788.786 6.294 3.145 7.08.786.787-2.36 3.146.787 3.146-2.36 9.44 1.574-1.573-3.932-4.72-3.932-3.932 0-5.505-2.36-8.65-3.146-3.934-.787-6.294-3.146-10.226-3.933 1.573-.788 3.146-.788 4.72-.788-1.574-1.573-4.72-1.573-7.08-1.573 1.573-.787 3.933 0 4.72 0-1.574-1.574-3.147-2.36-5.507-2.36-1.573 0-3.933-1.574-5.506-2.36-3.934-1.574-7.08-3.147-11.8-3.147-4.718 0-7.865-1.573-12.584-3.933-3.933-1.573-7.866-1.573-11.798-2.36-2.36 0-3.933 0-5.506.786-1.573.787-3.146-.786-5.506-.786s-2.36 1.573-3.146-.786c0-1.573-1.573-2.36-3.146-3.146-3.933-1.573-9.44-.786-14.158 0-1.573 0-3.933 0-5.506 1.573-2.36.787.786 1.574.786 2.36 0 1.574-6.292 1.574-4.72-.785-3.932 0 5.507-3.146 5.507-3.933-2.36 0-4.72-.786-7.866-.786s-5.506.786-8.652 1.573c-1.573.785-1.573 1.572-3.146 2.36-3.147.786-3.934 3.145-.788 4.718 2.36.787 6.293 0 8.652.787 0 1.573-5.506.786-7.08.786 1.574 3.147 9.44 1.574 11.8 2.36.785.787 7.078.787 7.078 3.147 0 .786-3.146.786-3.933.786-1.574.787-2.36 3.146-3.934 3.933-1.573 1.573-4.72 1.573-6.293 0-1.573-1.573 2.36-1.573 2.36-2.36-.787-2.36-7.866-3.933-8.652-1.573-.786.787-3.145 3.933-3.932 1.573-.787-2.36-5.506-1.573-1.573-3.146-2.36-.786-5.506 0-7.866-.786 2.36-.787 6.292-2.36 1.572-3.146-3.146-.786-3.933-3.933-8.652-3.933.787-.787 4.72-2.36.787-1.573 1.573-1.573 16.518-.787 16.518-4.72-1.573 0-19.664-.786-18.878.787 0 2.36-3.933-.787-3.146 2.36 0 1.572 1.574.785 1.574 3.145-1.573 0-1.573.786-.787 1.573-1.573 0-2.36 0-3.933.786-2.36.787.787 1.573 0 2.36 0 .786-3.933 2.36-.787 3.146 2.36.787 12.585-.786 7.866 3.933.787 0 2.36-.787 3.146-.787.786 1.573-10.226 6.292-11.013 5.506-1.573-.786 2.36-2.36-1.573-3.146-2.36 0-4.72-.787-7.08 0-1.572.786-1.572 2.36-3.145 2.36-8.653-.786-17.305.787-25.958 0-3.146-.786-4.72-2.36-7.866-2.36-1.573 0-9.44.786-9.44 3.146 0 1.573 9.44-1.573 10.226-1.573 0 1.572-3.933 2.36-5.506 2.36-1.573.786-3.146 3.932-1.573 3.932-3.933 0-6.293-2.36-10.225-1.573-4.72.785-8.652 1.572-12.585 2.36-.787 0-6.293 2.36-7.866.786-.787-.787 4.72-1.573 5.506-2.36-1.573-1.573-3.146-1.573-5.506-1.573-5.506 1.573-11.012 2.36-16.518 2.36-3.934 0-10.226-.787-12.586 2.36-1.573 2.36-3.146-.786-5.506.787-1.573.786-3.146 3.146-5.506 2.36-.787 0-2.36-1.573-3.933-1.573-2.36.787-2.36 2.36-4.72 3.146-3.933.787-7.08 1.573-11.012 3.933-2.36 1.573-5.506 2.36-7.866 3.933-3.146.785-3.146 1.572-3.146 3.145 0 .786-3.933 1.573-6.293 2.36 37.755-36.182 85.735-62.138 138.435-74.723 0 3.933 6.293 2.36 7.866 3.146 4.72-.787 7.866 1.573 8.652-4.72-5.506 1.574-10.225.787-15.73 1.574 20.45-4.72 42.473-7.08 64.497-7.08 6.293 0 11.798 0 18.09.787 0 0-.786 0-.786.786-3.933.786-7.08-.787-11.012 2.36-3.933 0-8.652-3.146-12.585-.786-3.146 1.573-7.08 1.573-10.225 1.573-3.933 0-11.012-.786-14.158 2.36h3.146c2.36 0 4.72-.787 7.08-.787-1.574 0-3.147.787-4.72.787.787.786 2.36.786 3.146.786 0 0-.788 0-.788.785h7.08c-1.574 0-3.147 0-3.934.787 3.146 1.573 7.08 1.573 10.225.786 3.146-.786 6.293.787 10.225.787 7.08 0 14.158-1.573 21.237-.787 0 0-.787 0-.787.787-3.146 0-5.506 0-8.652.786h-4.72c-2.36-.785-5.505-.785-7.865-.785-2.36-.787-4.718-.787-7.865 0l.787.786c-.787 0-2.36 0-2.36.788h-9.44c-.786 0-.786-.787-1.572-.787-2.36 0-5.506.788-7.866 0-4.72-2.36-8.652-1.572-13.372-1.572 0 .786.787.786 1.573.786-1.573 0-3.933.787-5.506.787 1.572 0 4.718 0 6.292.787-1.573.787-9.44 0-9.44 1.573s6.294.787 7.08.787c-2.36.786-5.506 0-8.652.786.787 2.36 3.933 2.36 6.293 1.573-.787 0-.787 0 2.36-.786-.786 0-1.573 0-2.36.786h1.573c-.787.787-2.36.787-3.146.787 0 .786 2.36.786 5.506 0-.787 0-.787 0-.787.786 0 0 .786.786 1.572.786h-3.146c-3.933 0-10.225-.787-10.225.786 0 .787.787 1.573 2.36 1.573 0 0-.786 0-.786.787 0 .786.787.786 2.36 1.573h2.36c-.786 0-.786 0-1.573.786 0 .788 5.507 0 6.293 0 1.573 0 3.933 0 3.933-1.572 0-.786 0-.786-.787-.786l.786-.787v-.786h3.146c.787 0 1.573.785 2.36.785 0 1.573 5.506.787 7.08.787h-2.36c.785 1.573 7.865.786 9.438 0 .787 0 1.573-.787 2.36-.787.787 1.573 4.72 1.573 5.506 1.573-1.573.787-11.798 0-11.798 2.36h7.08v.786s9.438 0 20.45.787c7.08.787 14.945.787 19.664.787 6.292 0 11.012 0 11.012-.786s-2.36-.786-3.933-.786c0 0-.786-.786-1.572-.786.787-.787 6.293.786 6.293-.787l-.786-.785c5.506.786 9.44-.786 14.158-.786-1.573-.788-3.146-.788-4.72-1.574.788 0 3.147.787 3.934 0 1.573-.786-3.933-.786-3.933-.786 7.08-.786 14.158.786 22.024 0 7.866-1.573 15.73.786 23.597 0-3.146-.786-7.08-.786-10.225-1.573 1.572 0 22.023 1.573 22.023 2.36-.787-1.573-7.08-1.573-8.652-2.36-1.572-.787-2.36-.787-3.932-.787-1.573-.786-3.933-.786-5.506-.786s-3.933-.786-5.506-1.573c1.573 0 10.225.787 16.518 1.574 7.866 3.146 15.73 5.506 23.597 9.44-2.36 0-4.718-.787-7.078-1.574-3.146-.786-5.506-.786-8.652-1.573-2.36-.786-2.36 1.573-4.72.787-1.572 0-19.663-1.573-19.663-.787 0 1.573 7.08 1.573 8.652 2.36 5.505.786 0 2.36-2.36 1.573-1.574 0-25.958-2.36-25.958-.787.787 1.573 9.44 2.36 11.798 3.146 5.506.785 10.225 1.572 15.73 1.572-2.36 3.146-19.663-3.933-20.45 0 3.933.786 7.866 1.573 11.012 2.36-.787.787-1.573.787-3.146.787 2.36.785 3.933 1.572 6.292 1.572.787 0 7.866 1.573 3.933 0 14.16.786 31.464 3.146 43.262 11.798 1.573 1.573 3.933 3.933 5.506 4.72 5.506 1.572-.787 1.572 0 3.145 0 0 18.877 5.506 17.304 7.866-.787.787-9.44-3.145-11.798-3.145l2.36 2.36c-2.36-.786-4.72-1.573-4.72 0 .788 1.573 10.226 5.506 11.013 3.146 0 0-2.36-.786-3.933-1.572 3.146.787 7.866 1.573 9.44 2.36-.788 1.573-2.36 1.573-3.147 3.146 0 0-3.933-1.573-3.933-.786-1.573 0-2.36.786-3.146 1.573-2.36 1.574.787 2.36 2.36 2.36-.787 3.147.787 3.147 3.146 4.72.787.787 1.573 2.36 3.146 3.146s3.146 0 4.72 1.573c-5.507.785 11.797 12.584 13.37 14.157 2.36.786 4.72 0 7.08.786 2.36 1.573 3.146 3.933 6.292 3.933 1.573 0 2.36 1.573 3.933 1.573 1.573-.787 0-3.147 2.36-3.147-3.146-5.506 5.506-5.506 2.36-7.08-3.146-3.145 2.36-2.36 4.72-1.572 1.572 0 2.36-.785 3.932-.785.786 2.36 3.146 1.573 4.72 2.36 7.865 2.36 2.36 0 2.36-3.933h.786c22.81 22.81 41.688 49.553 55.846 78.656l22.023-16.518c-50.34-112.477-158.886-184.055-284.735-184.055zm95.96 176.19s0-.785-.786-1.572c.786 0 .786.786.786 1.573zm-.786-1.573s0-.786-.787-1.573c.787.786.787.786.787 1.572zm-.787-3.146v-1.573 1.573zm-98.32-124.277c-.787 0-2.36-.787-3.933-.787 1.573 0 2.36 0 3.933.786.786-.787.786-.787 1.573-.787-.787.786-1.573.786-1.573.786zm6.292-4.72h-3.146.788-3.146c1.573 0 2.36-.786 3.146-1.573.786.786 1.573.786 2.36 1.573zm-80.23 12.585c-1.572 0 1.574 0 0 0z"/><path fill="#7D7D7D" d="M961.966 1106.612c.787 0 11.798.787 11.798-.786 0 0-10.225 0-11.798.786zm11.8-.786c0 .786 0 0 0 0zm-24.385 26.743c-.785 0-.785 0 0 0-.786 0-3.145 0-3.932.785 4.72 2.36 12.585 1.573 17.304 0-1.573-1.573-4.72-2.36-7.08-2.36-3.144-.786-3.93.787-6.29 1.574zm-14.157-24.385c1.573 0 4.72 0 5.506-.787h-.788c-1.572.787-3.932 1.574-4.72.787zm-6.292 3.147c3.934-.787-.786 0 0 0zm73.15 2.36c-3.145.786 3.934.786 0 0zm-62.137-3.147c.787.787 3.933 0 4.72 0-.788 2.36-8.653 0-7.867 1.573.787.787 1.573.787 3.146.787-3.933.786-7.08-1.573-10.225-.787h-1.573c.787 0 0 1.573 0 1.573 7.08 1.574 13.372-.785 20.45-.785-1.572.786-3.932.786-4.718 2.36 0 .787 4.72 0 5.506 0 3.146 0 6.293 0 7.08-3.933-1.575-2.36-14.946-1.574-16.52-.787zm-16.518 6.292h3.146c-.786 0 0 0 0 0 .788 0 1.574 0 2.36-.786 0-2.36-4.72 0-5.505.787zm33.822 3.933c0-.787-4.72 0-5.506 0 1.574-.787 4.72-.787 4.72-2.36s-16.518 0-18.09 1.573c0 .787 3.932 0 4.718 0 0 3.146-4.72 1.573-7.08 1.573-3.145 0-3.145.786 0 1.573 3.147.785 5.507.785 8.653.785 3.934.786 11.8 2.36 14.16-1.573l.786-1.573h-3.146.787zm-5.506-19.664c0-1.573 0 2.36 0 0zm7.867 12.585c2.36 0 12.585 2.36 12.585-.785 0-.787 0 0 0 0 .786-3.147-11.012-1.573-12.585.786z"/><path fill="#7D7D7D" d="M948.595 1105.826c.787 0 .787-.787.787-1.573 0-2.36-3.933-2.36-4.72-2.36 3.934-1.573-3.145-3.933-4.718-2.36-2.36 1.573-3.933-1.573-6.293-.787-2.36 1.573-4.718 1.573-7.865 1.573-.787 0-7.866 3.145-7.866 3.932h2.36l-1.574 1.573c1.573.786 3.933-.786 5.506-1.573-.787.786-.787.786 0 1.573-1.573.786-3.146 1.573-5.506 3.146 1.573.788 3.933.788 5.506.788 3.933.786 8.652-.787 11.798-.787 1.573 0 11.012 1.574 11.798 0 2.36-3.144 1.573-3.144.787-3.144zm84.95 6.292c-3.934-2.36-44.05-1.573-44.05-2.36h.788c-1.573-.786-5.506.787-7.08-.786h6.293c-3.933-1.573-8.652-.786-12.585-.786-2.36 0-17.303-3.146-17.303 0 0 1.573 7.866.786 8.652 1.573 1.572 0 3.145 0 4.718-.788 2.36.787 3.933 1.573 6.292 2.36-2.36 0-1.573 1.573 0 2.36 3.146.787 6.293.787 8.652.787s3.933-1.574 6.292-.788c-.786 1.573 7.08.787 7.866.787h10.225c1.573 0 5.506-.788 7.08 0 .787.784 14.16 1.57 14.16-2.362-.788.787-1.574.787-1.574.787 0-.787.787-.787 1.574-.787zm-18.88 29.89c0 .785.788.785 3.147.785-1.573 0-1.573-1.572-3.146-.786zm17.305 13.37c2.36 1.574 3.146.787 5.506 0h-.787c-1.573-1.572-4.72-1.572-4.72 0zm-14.158-2.36s-.786 0 0 0c-.787.788-.787.788-.787 1.574 2.36 0 5.506-.786 7.866-2.36-2.358-.786-4.718 0-7.078.787zm18.878-19.663c2.36 0 3.146-.786 3.933-1.573-2.36 0-5.506 1.573-3.933 1.573zm-96.747-2.36c-3.933-.786-8.652-.786-12.585-1.572-1.573 0-7.08-5.506-5.506-6.292 7.866-3.932-6.293-3.145-6.293-.785-2.36 0-10.226 1.573-3.934 5.506-1.573.787-3.933 1.574-3.933-.786 0-2.36-6.292-1.573-7.866-.786l.787.786c-3.146.787-3.933 0-6.293 0-3.145 0-5.505.787-7.865 2.36-1.573-1.573-3.933-1.573-6.293-.787.787 0 .787-.786 1.573-.786 0-2.36-29.103 3.934-32.25 4.72 0 1.573 2.36.786 0 3.146-1.572 1.573-5.505 3.146-6.292 5.506 0 0 3.933-.787 4.72-.787 0 0 .786 0 0 0 1.572 2.36 12.584-1.573 13.37-3.146 1.574-3.147 7.867-5.507 11.013-6.293 1.573-.786 3.933-.786 5.506-1.573-.787 0-.787.786-1.573.786-2.36.787-8.653 2.36-10.226 5.506 0 .787 7.866-.786 8.652-.786-1.573.786-9.44 3.933-2.36 2.36 6.293-.786 11.798-2.36 18.09-2.36-6.292 1.573-12.584 1.573-18.09 4.72 2.36 1.572 13.372-1.574 14.158 0 1.573 2.36 13.372-.788 16.518-1.574 4.72-1.573 11.012-3.933 16.518-3.146 5.506.787 13.372 2.36 17.304-1.573-.787 0-3.933-.786-3.933-.786.787-.785 1.574-.785 2.36-.785.003-.003 2.363-.003 4.723-.79zm88.094 17.305c-2.36-.786-2.36-1.573-4.72-2.36-2.36-.787-9.438-3.146-11.797-1.573-2.36-2.36-7.08-2.36-7.866 1.573-.787 2.36-3.933 2.36-3.933 3.933h7.08c-.787 2.36 10.225.787 10.225-1.573 5.506 1.573 10.225 2.36 15.73 1.573h-.786c-.786-1.573-2.36-1.573-3.933-1.573zm27.53-10.225c-.787-2.36-7.08-2.36-8.652-1.573-3.933 2.36 8.652 4.72 8.652 1.573.787.786.787.786 0 0 0-.787 0-.787 0 0zm2.36-.787c0 .786 4.72.786 5.506.786-1.573 0-5.506-2.36-5.506-.786zm-25.17 60.565c-1.573 0 0 0 0 0zm0-3.932c1.573 0-2.36-2.36-3.146-2.36-.786 2.36 1.574 3.147 3.147 2.36zm8.652-42.474c1.572.787 2.36.787 3.932 0-2.36-.786-1.573-.786-3.933 0zm86.52 346.874l-11.797 73.15-44.048 33.822c0 .786-.787 1.573-.787 1.573-2.36 3.146-7.08 6.292-7.866 10.225 0 1.573 0 3.146.787 3.933.786.787-1.574 2.36-2.36 3.146-.788 1.572-1.574 3.932-1.574 5.505 0 .786 3.933-.787 4.72-.787 0 2.36-7.08 14.158-9.44 12.585-2.36-1.573-4.72 0-2.36 2.36 1.573 1.573-2.36 2.36-2.36 3.146-1.573 1.572 1.573 3.932.787 5.505-.787 1.573 1.573 1.573 2.36 1.573 3.146.786-1.573 1.573.787 2.36-.787.786-2.36 0-3.146 1.573.787 1.574 14.158 2.36 14.945 2.36.786 0 2.36 0 3.145.788.787 1.573 4.72 0 6.293 0 3.933-.787 8.652-1.573 11.798-3.146-2.36 0-8.652.786-10.225-1.573-.786-1.574-4.718-3.147-3.145-5.507s5.506-1.573 7.08-3.146 1.572-2.36 3.932-3.146c1.573-.786 3.146-.786 3.933-2.36 3.146-3.145-9.44-1.572-3.146-5.505 2.36-1.573 3.933-1.573 7.08-.787 3.145 0 3.932-3.933 6.29-6.292-.786 0-1.572 0-1.572-.787 1.573 0 3.146.786 4.72 0 3.145-1.574-2.36-.787-2.36-.787-2.36.786-3.934-4.72-.788-4.72 2.36-.786 4.72.787 7.08 0 2.36-.786 2.36-2.36 3.145-4.718.786-2.36 5.505-2.36 7.865-2.36 4.72-.786 13.37-3.933 15.73-8.652.788-2.36-4.718-7.866-4.718-7.866 4.72-2.36 11.012 1.573 15.73-1.573 5.507-3.146 8.653-9.44 12.586-13.37l8.652-8.653c3.146-3.145 3.933-3.932 4.72-7.865 0-1.573 0-5.506 1.572-5.506 2.36-.787 4.72-3.934 7.08-5.507 2.36-2.36 5.505-2.36 7.865-4.72 1.573-1.572 3.146-2.36 4.72-3.145-7.867-21.237-18.092-47.194-29.89-77.083l-33.82 25.955z"/><path fill="#7D7D7D" d="M1341.09 1223.023l-122.704 93.6-178.55-74.723s-32.25-13.372-44.834-4.72-12.585 8.653-15.73 11.013c-3.147 2.36-12.586 9.44 14.157 28.316 19.663 14.157 112.478 82.588 141.58 104.612l-68.43 51.913-73.15-7.866-40.902 31.462 78.656 45.62 22.81 88.096 41.688-31.463 11.798-73.15 68.43-51.913c13.373 33.822 54.274 141.58 62.14 164.392 11.01 30.676 20.45 23.597 23.596 21.237 3.146-2.36 3.146-2.36 14.945-11.797 11.8-10.225 7.867-44.834 7.867-44.834l-25.956-193.496 122.705-92.814c14.158-10.225 25.17-44.834 17.304-55.06s-43.262-8.652-57.42 1.573zm-569.472 173.83h13.372v63.713h7.08v-63.712h13.37v-5.506h-33.82l-.002 5.506zm67.645 25.17H817.24v-30.675h-6.294v69.218h6.293v-33.822h22.023v33.822h6.293v-69.218h-6.293v30.676zm25.17 5.507h14.945v-4.72h-14.945v-25.956h18.09v-5.506h-25.17v69.218h25.17v-4.72h-18.09v-28.316zm-832.97-115.625L0 1466.858h26.743l6.293-36.182H59.78l6.292 36.182H92.03l-31.464-154.953H31.463zm4.72 100.68l10.224-63.712 10.225 63.712h-20.45zm151.806-35.395c3.145-6.292 4.718-14.158 4.718-23.597 0-7.866-.787-14.158-3.146-19.664-2.36-5.507-5.506-9.44-9.44-12.586-4.718-3.146-9.438-5.506-14.944-7.08-5.506-1.572-12.585-2.36-21.237-2.36h-35.394v154.954h28.316v-70.79h12.585l18.878 70.79h28.316l-21.236-76.297c4.72-3.145 9.438-7.078 12.585-13.37zm-27.53-4.72c-3.147 3.933-9.44 5.506-18.092 5.506h-7.08v-46.407h8.653c7.867 0 13.373 1.572 16.52 5.505 3.145 3.933 4.718 9.44 4.718 18.09.787 7.867-1.573 14.16-4.72 17.305zm95.173-62.138c-7.866 0-14.945.786-21.237 3.146-5.506 2.36-10.225 5.506-14.158 10.225-3.146 4.72-6.292 9.44-7.866 15.73-1.573 6.293-2.36 13.372-2.36 21.238v57.42c0 16.518 3.146 29.103 10.225 37.755 7.08 8.652 18.09 13.372 34.61 13.372 7.865 0 14.944-.786 20.45-3.146 5.506-2.36 10.225-5.505 14.158-10.224 3.146-4.72 6.292-10.225 7.866-15.73 1.574-6.293 2.36-13.372 2.36-21.238v-57.42c0-16.517-3.145-29.102-10.224-37.754-6.293-9.44-18.092-13.372-33.823-13.372zm15.73 114.052v7.866c0 2.36-.786 3.933-1.572 6.292-.786 2.36-1.572 3.933-2.36 5.506-.786 1.573-2.36 2.36-4.718 3.146-1.573.787-3.933 1.573-7.08 1.573-2.36 0-4.718-.786-7.078-1.573-1.573-.786-3.146-1.573-4.72-3.146-.786-1.573-2.36-3.146-2.36-5.506-.786-2.36-.786-3.933-1.572-6.292v-77.87c0-3.933 0-7.08.787-9.44 0-2.36.786-4.718 2.36-7.078.786-2.36 2.36-3.933 4.718-4.72 2.36-.785 4.72-1.572 8.652-1.572 3.146 0 6.292.787 8.652 1.573 2.36.787 3.933 2.36 4.72 4.72l2.36 7.078c0 2.36.786 5.507.786 9.44v70.004h-1.574zm107.76-7.08v9.44c0 2.36-.787 5.505-1.573 7.865-.787 3.145-1.573 4.718-2.36 7.078-.787 1.573-2.36 3.146-4.72 3.933-2.36.787-4.718 1.574-7.078 1.574-3.146 0-5.506-.787-7.08-1.573-2.36-.786-3.932-2.36-4.718-3.932-.787-1.573-2.36-3.933-2.36-7.08-.787-3.145-.787-5.505-1.573-7.865v-114.838h-27.53v103.04c0 7.08 0 13.372.788 18.878.787 5.506 2.36 10.225 3.933 14.945 2.36 4.72 4.72 8.652 7.867 11.012 3.146 3.146 7.08 5.506 12.585 7.08 4.72 1.572 11.012 2.36 18.09 2.36 7.08 0 12.586-.787 18.092-2.36 4.72-1.574 9.44-3.934 12.585-7.08 3.145-3.146 5.505-6.292 7.865-11.012 1.573-4.72 3.146-9.44 3.933-14.945s.787-11.798.787-18.878v-103.04h-27.53l-.002 105.4zm106.973-18.09l-37.755-87.308h-19.663v154.953h24.383v-92.03l37.755 92.03h18.878v-154.954h-23.597v87.308zm121.13-75.51c-3.932-3.934-8.65-7.08-14.944-8.653s-14.158-3.145-23.597-3.145h-36.182v154.953h36.968c8.653 0 16.52-.786 22.81-3.146s11.013-5.506 14.946-9.44 6.293-9.438 7.866-15.73c1.573-6.292 2.36-13.37 2.36-22.81v-55.846c0-8.652-.787-15.73-2.36-22.024-1.573-5.506-3.933-10.226-7.865-14.16zm-18.09 92.027v8.653c0 1.573 0 3.933-.787 7.08 0 2.36-.788 4.718-.788 6.292-.787 1.573-1.573 2.36-2.36 3.933-.786 1.573-2.36 2.36-3.933 3.146-1.574.787-3.147 1.573-5.507 1.573-2.36.787-4.72.787-7.08.787h-7.865v-114.838h7.866c3.146 0 5.506 0 7.866.787 2.36.786 3.933.786 5.506 2.36 1.573.786 2.36 2.36 3.933 3.146.786 1.572 1.572 3.145 2.36 5.505.786 2.36.786 4.72.786 7.08v64.496zm899.04-3.932l-16.517-99.893h-18.878l-16.518 99.893-13.37-99.893h-23.598l22.024 154.953h23.597l17.304-103.826 17.305 103.826h22.81l22.024-154.953h-23.598l-12.585 99.893zm95.175-101.466c-7.865 0-14.944.786-21.236 3.146-5.506 2.36-10.225 5.506-14.158 10.225-3.146 4.72-6.293 9.44-7.866 15.73-1.573 6.294-2.36 13.373-2.36 21.238v57.42c0 16.518 3.146 29.103 10.225 37.755 7.08 8.652 18.09 13.37 34.61 13.37 7.865 0 14.944-.785 20.45-3.145 5.506-2.36 10.225-5.506 14.158-10.225 3.146-4.72 6.292-10.225 7.866-15.73 1.572-6.294 2.36-13.373 2.36-21.238v-57.42c0-16.517-3.147-29.102-10.226-37.754-7.08-9.438-18.09-13.37-33.823-13.37zm15.733 114.05v7.867c0 2.36-.787 3.932-1.573 6.29-.787 2.36-1.573 3.934-2.36 5.507-.787 1.573-2.36 2.36-4.72 3.146-1.572.786-3.932 1.573-7.078 1.573-2.36 0-4.72-.787-7.08-1.573-1.572-.787-3.145-1.573-4.718-3.146-.787-1.573-2.36-3.146-2.36-5.506-.786-2.36-.786-3.932-1.573-6.29v-77.87c0-3.934 0-7.08.788-9.44 0-2.36.786-4.72 2.36-7.08.787-2.36 2.36-3.932 4.72-4.718 2.36-.787 4.718-1.573 8.65-1.573 3.147 0 6.293.785 8.653 1.572 2.36.786 3.934 2.36 4.72 4.72l2.36 7.078c0 2.36.787 5.506.787 9.44v70.003h-1.574zm129.782-47.192c3.146-6.292 4.72-14.158 4.72-23.597 0-7.866-.788-14.158-3.147-19.664-2.36-5.507-5.506-9.44-9.44-12.586-4.718-3.146-9.438-5.506-14.944-7.08-5.506-1.572-12.585-2.36-21.237-2.36h-35.395v154.954h28.316v-70.79h12.585l18.877 70.79h28.316l-21.237-76.297c4.72-3.145 9.44-7.078 12.585-13.37zm-27.53-4.72c-3.145 3.933-9.438 5.506-18.09 5.506h-7.08v-46.407h8.653c7.866 0 13.372 1.572 16.518 5.505 3.146 3.933 4.72 9.44 4.72 18.09.786 7.866-1.574 14.16-4.72 17.305zm81.017-60.565h-27.53v154.953h65.285v-19.664h-37.755v-135.29zm126.636 11.798c-3.933-3.933-8.652-7.08-14.945-8.652-6.293-1.572-14.158-3.145-23.597-3.145h-36.182v154.953h36.968c8.652 0 16.518-.786 22.81-3.146s11.012-5.506 14.945-9.44c3.933-3.932 6.293-9.438 7.866-15.73 1.573-6.292 2.36-13.37 2.36-22.81v-55.846c0-8.652-.787-15.73-2.36-22.024-.786-5.506-3.932-10.226-7.865-14.16zm-18.09 92.028v8.653c0 1.573 0 3.933-.788 7.08 0 2.36-.787 4.718-.787 6.292-.787 1.573-1.573 2.36-2.36 3.933s-2.36 2.36-3.933 3.146c-1.573.787-3.146 1.573-5.506 1.573-2.36.787-4.72.787-7.08.787h-7.865v-114.838h7.865c3.146 0 5.506 0 7.866.787 2.36.786 3.934.786 5.507 2.36 1.573.786 2.36 2.36 3.933 3.146.787 1.572 1.573 3.145 2.36 5.505.787 2.36.787 4.72.787 7.08v64.496zM376.763 1085.376c-3.933-2.36-7.08-4.72-10.225-7.08-14.946 22.81-29.104 46.408-42.475 71.578 3.933 2.36 7.866 3.933 11.012 6.292 4.72-8.652 9.44-18.09 14.158-25.957 17.304 10.225 34.61 20.45 51.913 29.89 3.146-5.507 6.292-11.013 10.225-16.52-17.304-10.224-33.822-21.236-51.127-31.462 5.506-10.223 11.012-18.876 16.518-26.74zm30.676-63.712c7.866 6.292 15.73 13.372 24.383 19.664-7.08 9.44-14.945 18.878-22.024 28.316-8.653-6.293-16.52-12.585-25.17-18.878-3.934 5.506-7.867 11.012-11.8 17.304 19.665 14.157 39.33 28.315 59.78 41.687 3.933-5.506 7.08-10.225 11.012-15.73-7.866-5.507-15.73-11.8-22.81-17.305 7.08-9.44 14.158-18.877 21.237-27.53 7.078 6.292 14.944 12.585 22.023 18.09l11.798-14.157c-18.09-15.73-36.967-32.25-55.058-47.98-4.72 5.506-8.653 11.012-13.372 16.518zm85.735-6.292c-2.36 2.36-5.506 6.294-9.44 2.36l-7.865-7.865c8.652-10.225 18.09-19.664 27.53-29.103-2.36-3.146-5.506-5.506-7.866-8.652-10.225 8.652-19.664 18.09-29.103 28.316l-7.865-7.866c-1.573-1.573-3.933-3.933.787-9.44 9.44-10.224 18.878-19.663 29.103-28.315-2.36-3.146-5.506-5.506-7.866-8.652-7.08 5.506-33.823 31.463-33.823 31.463-7.08 7.08-14.158 18.878-4.72 27.53 11.013 9.44 21.238 19.664 32.25 29.103 10.225 8.65 20.45 0 25.957-6.293 0 0 22.81-24.383 27.53-29.89-2.36-3.145-5.506-5.505-7.866-8.65-9.438 8.65-18.09 17.302-26.743 25.954zm87.308-107.758c7.08-6.292 6.293-14.945 2.36-20.45-5.506-8.653-17.304-12.586-34.61 0-11.01 8.65-22.81 17.303-33.82 25.956 15.73 18.878 30.675 38.542 46.406 57.42l30.675-23.598c15.73-11.012 18.09-22.024 10.225-33.822-4.72-7.08-14.158-8.653-21.237-5.506zm-42.474 3.146c5.505-3.933 11.01-8.652 16.517-12.585 3.933-3.146 9.44-4.72 13.372.787 3.145 4.72 1.572 8.652-3.934 12.585s-11.012 7.866-16.518 12.585c-3.146-4.72-6.293-8.653-9.44-13.372zm45.62 26.743c-5.506 3.934-11.012 7.867-16.518 12.586-3.933-5.506-7.866-11.012-12.585-15.73 5.506-3.934 11.012-8.653 16.518-12.586 6.293-4.72 11.798-2.36 14.945 2.36 4.72 5.505 2.36 10.225-2.36 13.37zm53.486-36.18c-3.146 1.572-6.292 3.932-9.44-.788-2.36-3.146-3.932-6.292-6.292-10.225 11.012-7.08 22.024-13.372 33.036-19.664-1.573-3.146-3.933-7.08-5.506-10.225-11.798 5.506-22.81 11.798-34.61 18.878-2.36-3.146-3.932-6.292-6.292-10.225-1.573-2.36-3.146-4.718 3.146-8.65 11.012-7.08 22.81-13.373 33.822-18.88-1.573-3.145-3.933-7.078-5.506-10.224-8.652 3.146-39.328 20.45-39.328 20.45-8.652 4.72-17.304 14.16-10.225 24.384 7.867 12.585 15.732 25.17 23.598 36.968 7.08 11.798 18.878 5.506 25.957 1.573 0 0 26.743-16.517 33.036-20.45-1.572-3.146-3.145-7.08-5.505-10.225-9.438 6.292-19.664 11.798-29.89 17.304zm94.388-57.42c-3.146-7.866-11.012-17.304-28.316-9.44-4.72 2.36-9.44 3.934-14.158 6.294-7.08 3.146-10.225 3.146-12.585-2.36-.787-.787-.787-2.36-1.573-3.146-3.146-6.293 1.573-8.652 8.652-11.798 4.72-2.36 22.81-9.44 30.676-11.798-1.573-3.146-2.36-7.08-3.933-10.225C702.4 803 686.67 807.72 673.3 814.012c-14.16 6.293-22.81 15.73-15.732 29.103.787 1.573 1.573 3.933 3.146 5.506 3.146 5.507 10.225 16.52 30.676 7.08 4.72-2.36 8.652-3.933 13.372-6.293 6.293-3.146 8.652-.787 10.225 3.146.787 1.573.787 2.36 1.573 3.933 2.36 5.506-3.146 8.652-7.866 10.225-11.012 4.72-25.17 11.013-29.89 12.586 1.574 3.146 3.147 6.292 4.72 10.225 9.44-2.36 18.878-5.505 33.036-11.797 11.012-4.72 22.024-12.585 15.73-28.316 0-3.147-.786-4.72-.786-5.507zm55.845-72.364c-23.598 6.292-47.195 14.158-70.005 23.597 1.573 3.933 3.146 7.866 4.72 12.585 7.865-3.146 16.517-6.292 25.17-9.44 6.292 19.665 13.37 38.543 19.663 58.207 5.506-1.573 11.012-3.933 16.518-5.506-6.293-19.665-12.585-39.33-18.09-58.993 8.65-3.146 17.303-5.506 25.956-7.866-1.573-3.932-3.146-8.65-3.933-12.584zm44.047-11.012c4.72 24.383 10.225 48.767 14.945 73.15 5.506-1.573 11.012-2.36 16.518-3.146-4.72-24.383-8.652-49.553-13.372-73.937-6.293 1.575-12.585 2.36-18.09 3.934zm78.656 18.09c-4.72.788-10.225 1.574-14.945 1.574-7.08.787-10.225 0-11.012-5.506 0-1.573 0-2.36-.787-3.933-.788-7.08 3.932-7.867 11.797-8.653 4.72-.787 23.597-2.36 32.25-2.36 0-3.933-.788-7.866-.788-11.012-7.867-.787-24.384-.787-38.543 1.573-14.945 2.36-25.957 8.652-23.597 23.597 0 2.36.787 3.933.787 6.292.787 6.293 4.72 18.878 26.743 15.73 4.72-.786 9.44-1.572 14.158-1.572 7.08-.787 8.652 1.573 9.44 6.293 0 1.573 0 2.36.786 3.933.787 5.507-5.506 7.08-10.225 7.867-11.8 1.573-26.744 3.146-31.464 3.146.787 3.933 1.573 7.08 1.573 11.012 9.438.787 19.663 0 34.608-1.573 11.798-1.573 24.383-5.506 22.81-22.81v-4.72c.002-9.438-4.717-21.236-23.595-18.877zm101.467 0c-5.506-12.584-11.798-24.382-18.09-36.18h-20.452c10.225 17.303 20.45 34.608 29.103 51.912 0 7.866 0 15.73-.786 23.597h17.304c0-7.866.787-15.73.787-23.597 11.012-17.304 22.81-33.822 35.395-50.34-7.08-.787-13.372-.787-20.45-1.573-7.865 12.585-15.73 24.384-22.81 36.182zm46.407-18.09c-1.573 14.945-3.146 29.89-3.933 44.834-1.573 14.158 11.012 16.518 18.877 17.304 0 0 31.464 3.146 37.756 3.146l2.36-11.798c-11.798-1.573-22.81-3.146-34.61-4.72-3.932-.786-7.865-.786-7.078-6.292.787-3.933.787-7.866 1.573-11.798 12.586.787 25.17 2.36 37.756 3.933l2.36-11.798c-12.585-2.36-25.17-4.72-37.755-6.292.788-3.933.788-7.866 1.574-11.798 0-3.146.787-5.506 7.866-4.72 12.585 1.574 25.17 3.147 37.755 5.507l2.36-11.798c-8.652-2.36-43.26-7.866-43.26-7.866-9.44-.788-22.025.785-23.598 14.156zm71.577 6.293l25.957 4.72-14.157 61.35c5.506 1.574 11.012 2.36 16.518 3.934 5.507-20.45 10.226-40.9 15.732-60.564l25.957 7.08c1.572-3.934 2.36-8.653 3.932-12.586-23.597-6.293-47.98-11.798-71.577-15.73-.788 3.145-1.574 7.864-2.36 11.797zm109.333 27.53c8.652 3.146 16.518 5.506 25.17 8.652-7.866 19.663-15.73 39.327-22.81 58.99 5.506 2.36 11.012 3.934 15.73 6.293 7.867-19.664 16.52-38.542 24.385-58.206 8.652 3.146 16.518 7.08 25.17 11.012 1.573-3.934 3.933-7.867 5.506-12.586-22.024-9.44-45.62-18.878-68.43-26.743-1.575 4.72-3.148 8.654-4.72 12.587zm116.41 34.608c-20.45-11.012-37.754-14.945-53.485 18.09-14.945 31.464-3.933 40.116 16.518 50.34 19.664 10.226 33.822 14.16 51.913-14.944 18.877-30.674 6.292-42.473-14.945-53.485zm-1.572 44.048c-10.225 18.09-16.518 18.878-29.89 12.585-14.158-7.08-15.73-11.798-6.292-30.676 11.012-22.024 17.304-20.45 30.676-13.372 14.157 6.293 18.09 11.012 5.505 31.463zm103.826 19.664c-22.81-16.518-36.967-7.866-51.126 11.798-14.158 20.45-15.73 36.968 3.146 51.127 10.225 7.866 19.664 14.158 27.53 18.09 2.36-3.145 4.72-6.29 7.866-8.65 0 0-11.798-8.653-22.81-17.305-11.798-8.652-9.44-17.304.787-31.463 14.158-18.878 19.664-18.09 31.463-9.44 11.012 7.867 22.81 20.452 22.81 20.452 2.36-3.146 4.72-6.293 7.866-8.652-8.653-9.44-16.52-17.305-27.53-25.957zm64.5 55.846c-17.305-16.518-33.823-25.17-57.42 2.36-22.81 26.743-14.158 38.542 3.146 54.273 16.518 15.73 29.89 23.597 55.06.787 26.743-25.17 17.304-40.116-.787-57.42zm-12.586 43.26c-14.945 14.946-21.237 14.16-32.25 3.147-11.797-11.012-12.584-16.518 1.574-32.25 16.518-18.09 22.81-14.944 33.822-4.718 11.8 11.012 14.16 17.304-3.146 33.822zm43.26 69.218l30.677-47.193-18.876-21.237c-21.237 14.945-42.474 29.89-63.712 45.62 3.933 4.72 7.866 8.653 11.798 13.373 14.158-10.225 29.103-19.664 43.26-29.89-9.438 15.732-18.876 31.464-29.102 46.408 4.72 5.507 8.652 11.013 12.585 16.52 17.304-6.294 33.822-12.586 51.913-18.092-12.585 11.798-25.17 24.383-38.542 36.182 3.933 4.72 7.08 10.225 11.012 15.73 19.664-17.303 39.328-34.608 58.992-52.7-5.506-7.865-11.012-15.73-17.304-23.596-18.09 6.292-35.395 12.585-52.7 18.877zm68.432 32.25c-13.37 8.652-25.957 17.304-39.328 25.957-11.798 7.866-5.506 20.45-.787 28.316 0 0 18.88 29.89 22.81 36.97 3.934-1.574 7.08-3.934 11.013-5.507-6.292-11.798-12.585-23.597-19.664-34.61-2.36-3.145-4.72-7.078 0-10.224 3.145-2.36 7.078-3.933 10.224-6.292 7.866 11.798 14.945 24.383 22.024 36.97 3.933-1.574 7.08-3.934 11.012-5.507-6.293-13.372-13.372-25.957-21.237-38.542 3.146-2.36 7.08-3.932 10.225-6.29 2.36-1.574 5.506-3.147 9.44 3.145 7.865 12.585 14.944 25.17 22.023 38.542 3.934-1.573 7.08-3.933 11.013-5.506-3.933-9.438-22.81-44.046-22.81-44.046-4.72-11.014-14.16-21.24-25.957-13.374zM338.222 1711.48c8.652 12.584 18.09 24.382 27.53 36.18 1.573-1.572 3.146-2.36 4.72-3.932-7.867-9.44-14.946-18.878-22.025-28.316 5.506-3.933 11.012-8.652 16.518-12.585 5.506 7.866 11.012 14.945 17.304 22.024 1.572-1.572 3.145-2.36 4.718-3.932-5.506-7.08-11.012-14.158-17.304-22.024 4.72-3.933 10.225-7.866 14.945-11.012 7.078 9.44 13.37 18.09 20.45 26.743 1.573-1.573 3.146-2.36 4.72-3.933l-25.958-33.036c-14.157 11.013-29.89 22.025-45.62 33.823zm79.443 43.26c2.36-9.44 4.72-18.878 7.08-27.53-2.36-2.36-3.934-4.72-6.294-7.08-3.145 11.013-5.505 22.81-8.65 34.61-11.8 1.573-24.384 2.36-36.183 3.146 2.36 2.36 3.933 5.506 6.292 7.866 10.224-.787 19.663-1.573 29.888-3.146-2.36 9.44-3.933 19.664-6.293 29.103l7.08 7.078c2.36-11.798 4.718-24.384 7.078-36.182 11.798-1.573 23.597-3.146 34.61-4.72-2.36-2.36-3.934-4.718-6.294-7.078-9.438 1.572-18.876 2.36-28.315 3.932zm53.486 21.237l-9.438-9.44-41.688 41.69 6.292 6.29c4.72-4.718 9.44-10.224 14.158-14.944l3.933 3.933c6.293 6.293 12.585 12.585 21.237 13.372 7.08.787 11.798-1.573 14.945-5.506 3.145-3.146 5.505-8.652 3.932-15.73-1.572-7.866-7.865-13.372-13.37-19.665zm3.147 29.89c-3.146 3.145-6.292 3.932-10.225 3.932-5.506-.788-9.44-4.72-15.73-10.226l-3.934-3.933 18.09-18.09c.788.787 2.36 2.36 3.934 3.146 5.506 5.506 9.44 9.44 11.012 14.945.786 3.147 0 7.08-3.147 10.226zm29.103.786c-12.585 14.945-25.957 29.89-38.542 44.834 10.225 8.652 20.45 18.09 31.463 25.957 1.574-1.573 2.36-3.146 3.934-4.72-8.652-6.292-16.518-13.37-24.383-20.45 11.013-13.372 22.81-26.743 33.823-40.115-2.36-2.36-3.933-3.934-6.293-5.507zm56.633 44.048c-7.08-5.505-14.945-7.078-22.024-5.505-6.294 1.573-9.44 6.293-15.732 14.158-6.293 8.652-9.44 12.585-9.44 19.664s4.72 14.158 12.586 20.45c7.866 5.507 16.518 7.867 22.81 5.507 6.292-2.36 9.44-7.08 14.945-15.73s8.65-13.373 8.65-19.665c0-7.08-4.718-13.373-11.797-18.88zm-3.933 33.823c-4.72 7.866-7.866 11.798-12.585 13.372-3.933 1.573-10.225 0-14.945-3.933-5.506-3.933-8.652-8.652-8.652-13.37 0-4.72 3.146-9.44 8.652-16.52 5.506-7.078 8.652-11.797 13.372-12.584 3.933-1.573 9.44 0 14.158 3.933 4.72 3.147 7.866 7.867 7.866 12.586.786 4.718-2.36 9.438-7.866 16.517zm47.98-3.933c-3.933-2.36-7.866-4.72-11.798-7.866-10.225 16.518-21.237 33.036-31.463 49.553l7.078 4.72c3.933-6.293 7.866-12.586 11.798-19.665 1.573.787 3.933 2.36 5.506 3.146 4.72 3.146 7.08 3.933 8.652 5.506-.787 8.652-.787 17.304-.787 25.957 2.36 1.574 5.506 3.147 7.866 4.72 0-9.44.787-18.877.787-28.316 7.08 1.573 14.158-1.573 18.09-7.866 2.36-4.72 3.147-10.225.788-14.945-3.146-6.29-9.44-10.224-16.518-14.943zm8.652 26.743c-1.573 3.146-4.72 5.506-7.866 5.506-5.506.786-9.44-2.36-16.518-6.294-1.573-.787-3.933-2.36-5.506-3.146 3.933-7.08 8.652-13.372 12.585-20.45 1.573.785 3.933 2.36 5.506 3.145 7.08 3.933 11.012 7.08 12.585 11.798 1.574 3.148.788 6.294-.786 9.44zm0 47.194c12.585 7.08 24.383 13.37 36.968 18.877.787-1.573 1.573-3.933 2.36-5.506-10.225-4.72-19.664-10.225-29.89-14.945l9.44-18.877c7.866 3.933 14.945 7.866 22.81 11.798.787-1.573 1.573-3.933 2.36-5.506-7.866-3.933-14.945-7.866-22.81-11.798 3.146-5.506 6.293-11.798 8.652-17.304l28.316 14.158c.787-1.573 1.573-3.933 2.36-5.506-11.798-5.506-22.81-11.798-34.61-18.09-7.078 18.09-16.517 35.395-25.956 52.7zm94.388-13.372c6.292 2.36 11.798 4.72 18.09 7.866l-18.877 49.554c2.36.787 5.506 2.36 7.866 3.146 6.292-16.518 12.584-33.036 18.877-50.34 6.292 2.36 12.585 4.72 18.09 7.08.788-2.36 1.574-3.934 2.36-6.293-14.944-5.506-29.102-11.012-43.26-17.304-1.574 2.36-2.36 3.933-3.147 6.292zm70.004 18.878c-4.72-1.573-8.652-3.146-13.372-3.933l-18.878 56.633c2.36.787 5.506 1.573 7.866 2.36 2.36-7.08 4.72-14.945 7.08-22.024 2.36.786 3.932 1.572 6.292 2.36 5.506 1.572 7.08 2.36 9.44 3.145l4.718 25.957c3.146.787 5.506 1.573 8.652 2.36-2.36-9.44-3.933-18.877-5.506-27.53 7.08-.787 13.372-4.72 15.73-12.585 1.574-5.506 0-11.012-2.36-14.945-4.717-7.08-11.796-8.653-19.662-11.8zm14.945 24.383c-.788 3.146-3.147 6.292-6.294 7.08-4.72 1.572-9.44.786-17.304-2.36-2.36-.788-3.933-1.574-6.293-1.574 2.36-7.866 4.718-15.73 7.078-22.81 1.573.786 3.933 1.573 5.506 1.573 7.08 2.36 11.798 3.933 14.945 7.866 3.145 3.147 3.145 6.294 2.36 10.226zm42.473-7.865c-11.798 18.092-24.383 35.396-37.755 51.914 3.146.787 5.506 1.573 8.652 2.36 3.146-3.933 6.293-8.652 9.44-12.585 8.65 2.36 18.09 3.932 26.742 6.292.787 5.506 1.573 10.225 3.146 15.73 3.146.788 5.506.788 8.652 1.574-4.72-21.237-8.652-42.474-11.798-63.712-3.146-.787-4.72-1.573-7.08-1.573zm-16.518 35.396c6.293-8.652 11.798-17.304 17.304-25.957 1.572 10.224 3.145 20.45 4.718 31.462-7.078-1.573-14.157-3.146-22.023-5.506zm66.072-25.957c-3.933-.787-7.08-1.574-11.012-1.574-3.146 19.664-7.08 39.328-10.225 58.992l11.798 2.36c9.44 1.573 18.878 3.146 27.53-2.36 7.866-4.72 8.652-12.585 10.225-22.81 1.573-10.225 2.36-17.304-3.933-24.384-7.08-7.078-15.73-8.652-24.383-10.225zm20.45 33.822c-1.573 9.44-1.573 14.945-7.866 18.877-5.505 3.145-12.584 2.36-21.236.786-1.573 0-2.36-.787-3.933-.787 2.36-15.732 5.507-31.464 7.867-47.195 1.573 0 2.36.787 3.933.787 7.866 1.573 14.158 2.36 18.878 7.08 3.932 5.505 3.146 11.01 2.36 20.45zm19.664 32.25c2.36 0 5.507.786 7.867.786 1.573-19.664 3.933-40.115 5.506-59.78-2.36 0-4.72-.786-7.866-.786-1.573 20.45-3.933 40.115-5.506 59.78zm24.385-51.128c6.293.787 12.585.787 19.664 1.573l-2.36 54.273c2.36 0 5.505 0 7.865.787l2.36-54.273c6.293 0 13.372.787 19.664.787v-6.292c-15.732 0-30.677-1.573-46.408-2.36 0 .787-.787 3.146-.787 5.506zm58.992-3.933v60.566h7.866c0-20.45-.787-40.115-.787-60.565h-7.08zm65.285 6.294c-3.933-5.506-11.798-7.866-20.45-7.866-8.653.787-15.732 3.933-19.665 9.44-3.933 5.505-3.146 11.01-3.146 22.023s.788 16.52 4.72 22.025c3.933 5.506 11.798 8.652 21.237 8.652 9.44-.787 16.518-4.72 20.45-10.225 3.147-5.506 3.147-11.012 2.36-22.024s-1.572-17.305-5.505-22.024zm-3.146 40.9c-2.36 3.934-7.08 6.294-13.37 6.294-6.294 0-11.8-1.573-14.16-5.506-3.145-3.933-3.145-9.44-3.932-18.878 0-9.44-.787-14.945 2.36-18.877 2.36-3.933 7.08-6.292 12.585-6.292 5.505 0 11.01 1.573 13.37 4.72 3.147 3.932 3.147 9.438 3.934 18.09.785 11.012 1.57 16.518-.788 20.45zm58.205-55.058l7.08 47.194c-13.372-14.158-25.957-28.316-37.755-43.26-2.36 0-4.72.786-6.293.786 2.36 20.45 4.72 40.115 6.293 60.565 2.36 0 5.506-.786 7.866-.786-1.572-15.73-3.932-31.462-5.505-47.194 12.585 14.945 25.17 29.103 38.542 43.26 2.36 0 4.72-.786 7.08-.786-3.147-19.664-7.08-40.115-10.226-59.78-2.36-.785-4.72-.785-7.08.002zm64.5-12.585c-2.36 21.238-6.293 43.262-10.226 64.5 3.146-.788 5.506-.788 8.652-1.574.787-5.506 1.573-11.012 2.36-15.73 8.652-1.574 18.09-3.934 26.743-6.294 3.145 4.72 6.29 8.652 9.438 13.372 3.146-.787 5.506-1.573 8.652-2.36-13.372-17.304-26.743-35.395-39.328-52.7-2.36 0-3.933 0-6.293.787zm1.572 40.115c1.573-10.225 2.36-21.237 3.933-31.462 6.292 8.652 11.798 18.09 18.09 26.743-7.078 1.573-14.157 3.146-22.023 4.72zm72.364-61.352c5.506 14.945 11.012 29.89 15.73 44.834-15.73-11.798-30.675-23.597-45.62-35.395-2.36.786-3.933 1.573-6.292 1.573 5.506 19.664 11.798 39.328 17.304 58.992 2.36-.787 5.506-1.573 7.866-2.36-4.72-14.945-9.44-30.676-14.158-45.62 14.945 12.584 29.89 24.383 46.407 35.394l7.08-2.36c-7.08-18.876-14.16-38.54-21.238-57.418l-7.08 2.36zm58.206-15.73c-9.44-3.147-17.304.786-25.957 3.932-3.146 1.573-7.08 2.36-10.225 3.933 7.08 18.877 14.945 38.542 22.024 57.42 3.933-1.574 7.866-3.147 11.798-3.934 9.44-3.933 18.09-7.08 22.81-15.73 4.72-8.653.787-15.732-3.146-25.17-4.72-10.226-7.866-17.305-17.304-20.452zm12.585 43.26c-3.146 6.292-9.44 8.652-18.09 11.798-1.574.787-2.36.787-3.934 1.574-6.292-14.945-11.798-29.89-18.09-44.834.786-.787 2.36-.787 3.145-1.573 7.866-3.146 14.158-5.506 20.45-3.146 6.293 2.36 8.653 7.08 12.586 16.52 4.72 7.865 7.08 13.37 3.933 19.663zm75.51-30.676c-5.506 3.146-10.225 3.146-13.372 1.573-5.506-2.36-7.866-6.293-12.585-15.73-4.72-9.44-7.08-14.16-6.292-19.665.787-3.933 3.933-7.08 8.652-9.44 5.506-3.145 10.225-3.145 14.158-2.36.787-2.36.787-4.718 1.573-7.078-5.505-.787-12.584 0-18.877 3.933-7.08 3.933-11.798 9.44-12.585 14.945-2.36 7.866 1.573 14.158 6.292 23.597 5.506 10.225 7.866 15.73 15.73 18.877 5.507 2.36 13.373 1.572 21.238-2.36 7.866-3.934 13.372-11.013 14.945-16.52-2.36 0-4.72-.786-7.08-1.572-2.357 3.934-5.504 8.653-11.796 11.8zm38.54-88.88c-2.36 1.572-4.718 3.145-6.29 4.718 7.078 10.225 13.37 19.664 20.45 29.89 3.933 6.29 7.08 10.224 6.292 15.73-.788 3.933-3.934 7.08-7.08 9.44-3.933 2.36-7.866 3.145-11.798 3.145-5.506-.787-7.866-5.506-11.798-11.798l-18.877-30.676c-2.36 1.573-4.72 2.36-7.08 3.933l18.878 30.675c4.72 7.08 7.866 12.585 15.73 14.158 5.507.787 11.8-.787 18.092-3.933 6.293-3.933 10.225-9.44 11.798-14.945 1.573-7.866-2.36-13.37-7.08-20.45-7.078-10.225-14.157-19.664-21.237-29.89zm51.915 31.46l-33.036-44.833c-2.36 1.573-3.933 3.146-6.292 4.72 11.798 16.517 24.383 33.82 36.182 50.34 11.012-7.867 22.024-15.732 32.25-24.384-1.574-1.573-2.36-3.146-3.934-5.506-7.866 7.08-16.518 13.372-25.17 19.664zm27.53-84.16l-4.72-4.72c-12.585 11.012-24.384 21.237-37.755 30.676 1.573 1.573 2.36 3.146 3.933 5.506 5.506-3.934 11.012-8.653 15.73-12.586 11.8 14.158 23.598 29.103 35.396 43.26 2.36-1.572 4.72-3.932 6.292-5.505-11.798-14.16-23.597-28.317-36.182-42.475 7.08-5.507 11.8-10.226 17.305-14.16zm62.924-18.88c-8.652-8.65-17.304-17.303-25.957-25.17l-5.507 5.507L1588.07 1798c5.506 5.507 9.44 9.44 8.652 14.16 0 3.932-2.36 7.865-5.506 11.01-3.146 3.147-7.08 5.507-11.012 5.507-5.506 0-8.652-3.933-14.158-9.44-7.866-8.65-16.518-18.09-24.384-26.742-2.36 1.573-3.933 3.933-6.292 5.506 7.866 8.653 16.518 18.092 24.383 26.744 5.506 6.293 10.225 11.012 18.09 11.012 5.507 0 11.8-3.146 17.305-7.866 5.506-4.72 8.652-11.012 8.652-17.304.79-8.652-3.93-13.372-10.224-18.878zm29.89-58.204c-4.72-3.933-10.225-4.72-14.945-3.933-8.65 1.573-13.37 7.866-19.663 14.158-3.146 3.933-6.293 7.08-10.225 11.012 14.945 14.158 30.676 29.103 45.62 43.26l6.293-6.292c-6.292-5.506-11.798-11.012-18.09-16.518l4.718-4.72c3.933-3.932 5.506-6.292 7.08-8.65 8.65 2.36 18.09 4.718 26.742 6.292 2.36-2.36 3.933-4.72 6.293-7.08-9.44-2.36-19.664-3.932-29.103-6.29 3.146-7.868 1.573-16.52-4.72-21.24zm-11.012 31.462l-4.72 4.72c-6.292-5.507-12.584-11.8-18.876-17.305l4.72-4.72c5.505-6.29 9.438-10.224 14.157-11.01 3.933-.788 7.08.785 10.225 3.145 2.36 2.36 4.72 5.506 3.933 9.44 0 5.505-3.146 9.438-9.44 15.73zm55.846-27.53c-5.506-4.718-11.798-9.438-17.304-14.157 5.506-7.08 11.798-14.945 17.304-22.024-1.573-1.573-3.933-2.36-5.506-3.933-5.506 7.867-11.012 14.946-16.518 22.025-5.506-3.933-11.012-8.652-16.518-12.585 7.08-8.652 14.158-18.09 20.45-26.743-1.572-1.573-3.932-2.36-5.505-3.933-8.652 11.798-16.518 22.81-25.17 33.036 16.518 13.37 32.25 26.743 48.767 39.328 9.44-11.798 18.877-23.597 27.53-36.182-1.573-1.573-3.933-2.36-5.506-3.933-7.866 10.225-14.945 19.664-22.024 29.103z"/></svg>