<svg xmlns="http://www.w3.org/2000/svg" width="611.737" height="303.504" viewBox="0 0 611.737 303.504"><g fill="#6B6957"><path d="M181.578 238.074H426.22v65.43H181.578v-65.43z"/><path d="M202.337 250.424h40.73v40.73h-40.73v-40.73zm54.13 0h40.73v40.73h-40.73v-40.73zm54.133 0h40.73v40.73H310.6v-40.73zm54.13 0h40.73v40.73h-40.73v-40.73z"/><path d="M216.527 255.154h-3.416v31.27h16.293v-3.416h-12.876v-27.854zm64.642 18.13c0 3.943 0 6.57-1.578 8.147-1.05 1.315-2.89 1.84-4.73 1.84-1.84 0-3.416-.526-4.73-1.84-1.577-1.838-1.577-4.466-1.577-8.145v-18.13h-3.416v18.13c0 4.204 0 7.62 2.364 10.51 1.577 1.84 4.467 2.892 7.358 2.892s5.518-1.05 7.358-2.89c2.365-2.892 2.365-6.045 2.365-10.512v-18.13h-3.416v18.13zm51.503 10.25c-2.628 0-4.467-1.052-5.518-2.366-1.577-2.102-1.577-4.73-1.577-10.248s0-8.146 1.577-10.248c1.05-1.577 3.153-2.365 5.518-2.365 2.628 0 4.73 1.05 6.044 2.365l2.102-2.628c-1.84-1.84-4.73-3.153-8.147-3.153-3.68 0-6.57 1.578-8.146 3.68-2.365 2.89-2.365 6.57-2.365 12.35s0 9.197 2.365 12.088c1.577 2.102 4.467 3.68 8.41 3.68 3.678 0 7.094-1.578 8.933-3.68l-2.365-2.365c-1.577 1.577-3.942 2.89-6.832 2.89zm54.656-12.614l-7.096-15.766h-3.942l9.197 19.445v11.824h3.678V274.6l9.197-19.446h-3.68l-7.356 15.766zM0 142.424h15.505v53.87h15.24v-53.87h13.402l1.314-11.562H1.58L0 142.424zm96.44 7.095c0-12.35-6.57-18.658-19.446-18.658H52.556v65.43h14.978v-24.437h4.204l10.774 24.438h16.292l-14.19-28.117c7.883-3.416 11.825-9.723 11.825-18.657zM72 160.554h-4.466v-18.657h4.204c3.153 0 5.255.788 6.57 2.102 1.313 1.577 1.838 3.68 1.838 6.57.264 6.832-2.627 9.985-8.145 9.985zm45.198-28.642l-17.343 64.38h14.978l3.68-16.03h14.19l3.678 16.03h15.242l-17.606-65.956-16.818 1.576zm3.68 37.577l4.73-22.336h1.05l4.204 22.336h-9.985zm59.386 2.89l-1.314 10.774h-.526l-1.314-11.036-10.248-41.78-14.715 2.1 17.606 63.855h16.555l18.13-63.854-13.926-2.103-10.248 42.043zm45.197-3.68h19.183l1.577-11.298h-20.76v-14.978h23.125l1.577-11.562H210.22v65.43h38.628l1.84-11.298H225.46V168.7zm48.088-37.838H258.57v65.43h35.474l1.577-11.298H273.55v-54.132zm40.205 1.05l-17.343 64.38h14.978l3.68-16.028h14.19l3.678 16.03h15.24l-17.605-65.957-16.817 1.576zm3.68 37.578l4.73-22.336h1.05l4.204 22.336h-9.985zm59.648 4.73h8.935v10.774c-1.577.526-3.416.788-5.518.788-4.204 0-7.358-1.577-9.46-4.73-1.84-3.153-2.89-8.41-2.89-15.766s.525-12.876 1.576-16.818c.526-2.365 1.577-3.942 2.89-5.255 1.315-1.05 3.154-1.84 5.52-1.84s3.94.79 4.992 2.366c1.05 1.576 1.314 4.466 1.314 8.67l14.977-1.05c0-7.358-1.577-12.613-4.73-16.292s-8.934-5.518-17.08-5.518-14.453 3.153-18.92 9.197c-4.467 6.044-6.832 13.927-6.832 23.65 0 3.942 0 7.095.263 9.723s.788 5.78 1.84 9.197 2.364 6.044 3.94 8.146c1.84 2.102 4.205 3.942 7.36 5.255 3.152 1.577 7.094 2.102 11.824 2.102s8.41-.526 11.825-1.314c3.416-.788 6.832-2.102 10.774-3.942V163.71h-21.284l-1.315 10.51zm48.352-5.52h19.445l1.577-11.298h-21.022v-14.978h23.124l1.84-11.562h-39.943v65.43h38.628l1.578-11.298h-25.226V168.7zm64.116-9.46l2.102 11.826-.526.263-4.467-11.3-13.4-29.168H458.54v65.43h15.242V168.44l-2.102-11.3.526-.263 3.942 10.248 13.927 29.168h14.453v-65.43H489.55v28.378h-.002zm54.656 26.28c-4.993 0-8.672-1.84-11.036-5.256-2.102-3.416-3.416-8.934-3.416-16.292 0-7.62.526-13.14 1.84-16.818 1.313-3.68 3.415-5.518 7.094-5.518 2.102 0 3.68.788 4.73 2.102 1.05 1.314 1.314 4.467 1.314 8.934l14.978-.788c0-7.883-1.577-13.664-4.467-17.08-2.89-3.416-7.882-5.255-14.452-5.255s-12.088 1.576-16.03 4.73c-3.94 3.152-6.83 7.357-8.67 12.35-1.578 4.992-2.63 10.51-2.63 16.817 0 22.336 8.673 33.635 26.278 33.635 7.095 0 13.927-1.577 20.496-4.993l-3.153-9.724c-5.254 2.365-9.72 3.153-12.876 3.153zm43.096-25.753h-.526l-11.036-29.43-14.453 1.838c11.562 26.54 17.606 40.467 18.13 41.518v22.6h14.98v-22.6l17.342-41.255-13.14-1.84-11.297 29.17zM131.125 46.774c-.526-1.05-1.314-2.365-1.84-3.416-8.67 4.73-17.342 9.723-25.75 14.978.787 1.05 1.313 2.102 2.1 3.153 3.417-2.103 7.096-4.468 10.512-6.57 5.518 9.46 11.036 18.92 16.818 28.38 1.314-.788 2.628-1.577 3.942-2.102-5.518-9.46-10.774-19.182-16.292-28.642 3.415-1.84 7.094-3.942 10.51-5.782zm29.43-12.613c-3.415-2.1-8.67-2.364-13.663 0s-8.146 6.308-8.934 10.25c-.526 3.94 1.05 7.094 3.942 12.875s4.467 8.934 7.883 10.774c3.416 2.1 8.146 2.1 12.613 0 4.467-2.103 7.358-5.52 8.146-9.724.788-3.942-.526-7.095-3.153-13.14-2.104-5.517-3.418-8.67-6.834-11.035zM166.6 58.6c-.526 2.627-2.365 4.992-5.518 6.306s-6.044 1.314-8.41 0c-2.364-1.314-3.94-4.467-6.568-9.46-2.628-4.993-3.942-8.146-3.416-10.774s2.628-5.255 5.78-6.832c3.417-1.577 6.57-1.577 8.935 0s3.68 4.467 6.044 9.723c2.364 4.992 3.678 8.146 3.153 11.036zm22.073-22.337c.526 1.314.788 2.365 1.314 3.68 2.628-.79 5.255-1.84 7.883-2.63 1.314 4.468 1.84 7.096.788 9.724-.788 2.102-2.628 3.942-5.518 4.73-2.89 1.05-5.518.788-7.358-.263-2.89-1.577-3.942-4.73-6.307-10.51-2.102-6.045-3.416-8.935-2.102-12.09.788-2.1 3.153-3.94 6.044-4.992 3.416-1.05 6.57-.788 8.672 0 .525-1.314 1.313-2.628 1.838-3.68-3.153-1.313-7.358-1.576-11.825 0-4.993 1.578-7.883 4.73-9.197 7.884-1.84 4.467-.263 8.41 2.102 14.453 2.628 6.568 3.942 9.984 7.883 12.35 2.892 1.576 6.833 2.1 11.3.525 4.467-1.577 7.095-4.204 8.41-7.358 1.838-4.204.525-7.883-1.84-15.766-3.94 1.316-7.883 2.63-12.087 3.943zm29.167 7.884c-1.05-4.204-2.102-8.41-3.416-12.613 4.73-1.314 9.197-2.365 13.927-3.416-.262-1.314-.525-2.628-.787-3.68-4.73 1.052-9.46 2.103-14.19 3.417-1.05-3.942-2.102-7.883-3.153-11.562 6.044-1.577 12.088-3.153 18.394-4.204 0-1.578-.263-2.892-.526-4.205-7.883 1.577-15.504 3.416-23.124 5.518 3.153 11.825 6.57 23.65 9.723 35.474 6.832-1.84 13.927-3.68 20.76-4.993-.264-1.314-.527-2.628-.79-3.68-5.517 1.052-11.298 2.366-16.817 3.943zm45.986-42.044c-9.46 1.05-19.182 2.365-28.642 4.204.263 1.314.526 2.628.788 3.68 3.942-.79 7.883-1.315 11.825-2.103 1.577 10.774 3.416 21.81 4.993 32.584 1.314-.263 2.89-.526 4.204-.526-1.577-10.774-3.153-21.81-4.73-32.584L264.09 5.78c0-1.05 0-2.363-.264-3.677zM294.57 0c.263 5.256.263 10.512.526 16.03-6.044.263-11.825.526-17.87 1.05-.525-5.254-.787-10.51-1.313-15.765-1.577 0-3.153.263-4.73.263 1.05 12.35 2.102 24.438 3.153 36.788 1.314 0 2.89-.263 4.204-.263-.526-5.78-.788-11.3-1.314-17.08 5.78-.526 11.825-.788 17.606-.788.263 5.78.263 11.3.526 17.08h4.204c-.263-12.35-.263-24.438-.526-36.788C297.724 0 296.146 0 294.57 0zm13.927 36.79c7.095 0 14.19.262 21.285 1.05 0-1.314.263-2.628.263-3.942-5.78-.526-11.562-.788-17.343-.788 0-4.467.263-8.672.263-13.14 4.73 0 9.46.264 14.19.527 0-1.314.263-2.628.263-3.942-4.73-.263-9.723-.526-14.453-.526 0-3.943.263-8.147.263-12.09 6.307.264 12.613.527 18.657 1.052 0-1.314.263-2.628.263-3.942C324.265.524 316.382 0 308.498 0c.262 12.35 0 24.44 0 36.79zm41.52-34.162c-2.892-.263-5.52-.526-8.41-1.05-1.314 12.35-2.365 24.437-3.68 36.787 1.315.263 2.892.263 4.205.526l1.577-14.19c1.05.264 2.364.264 3.415.527 2.89.263 4.204.526 5.518.526 1.577 4.993 2.89 9.985 4.204 14.978 1.577.264 3.153.527 4.467.79-1.314-5.52-2.89-10.775-4.467-16.293 3.942-1.05 7.358-4.204 8.146-8.934.526-3.416-.526-6.57-2.365-8.934-2.89-3.418-7.62-3.943-12.612-4.732zm10.772 13.14c-.264 2.1-1.578 3.94-3.154 4.992-2.628 1.577-5.255 1.05-9.985.526-1.05 0-2.364-.263-3.415-.263.526-4.993 1.05-9.985 1.577-14.715 1.314.263 2.365.263 3.68.526 4.73.526 7.62 1.05 9.722 3.153 1.313 1.313 1.838 3.678 1.575 5.78zm48.35 29.692c-.263-7.095-.526-14.19-1.05-21.547l-3.154-.788c-4.204 5.78-8.41 11.562-12.35 17.606.526-9.984.788-19.97.788-29.955-1.577-.263-3.153-.788-4.73-1.05.263 12.612 0 25.225-.263 37.838 1.052.263 2.103.526 3.417.788 4.204-6.306 8.41-12.35 12.876-18.393.526 7.62.788 14.978 1.05 22.6 1.052.262 2.103.787 3.154 1.05 6.307-10.774 13.14-21.547 19.97-32.058-1.576-.527-2.89-1.052-4.466-1.578-5.255 8.145-10.248 16.817-15.24 25.488zm13.4 12.614l3.943 1.577c4.467-11.56 8.934-22.86 13.4-34.422-1.576-.526-2.89-1.05-4.466-1.577-4.204 11.3-8.67 22.862-12.876 34.424zm22.862-26.54l11.036 4.73-13.4 29.955c1.313.525 2.627 1.313 3.94 1.838 4.73-9.985 9.198-19.97 13.928-29.956 3.68 1.84 7.358 3.416 11.036 5.255.526-1.05 1.05-2.365 1.84-3.416-8.673-4.466-17.607-8.408-26.804-12.35-.524 1.578-1.05 2.892-1.576 3.943zm47.563 37.84c-5.255-3.154-10.51-6.308-16.03-9.198 2.63-4.73 4.994-9.197 7.62-13.927-1.313-.79-2.89-1.578-4.203-2.366-5.78 10.774-11.562 21.81-17.343 32.584 1.313.788 2.627 1.314 3.94 2.102 2.63-4.993 5.52-9.985 8.147-14.978 5.255 2.89 10.51 6.044 15.766 9.197-2.89 4.73-6.044 9.722-8.934 14.452 1.313.788 2.627 1.577 3.678 2.365 6.57-10.248 13.14-20.76 19.708-31.007-1.314-.788-2.89-1.84-4.204-2.628-2.63 4.204-5.257 8.934-8.147 13.4zM79.885 255.94l-6.045-12.088-6.044 12.088-13.4 2.102 9.722 9.46-2.365 13.4L73.84 274.6l12.09 6.307-2.366-13.4 9.985-9.46-13.666-2.103zm55.97 1.84l-4.467-8.672-4.204 8.672-9.723 1.314 7.096 6.832-1.84 9.723 8.673-4.466 8.933 4.467-1.84-9.722 7.096-6.832-9.725-1.314zm-115.095 0l-4.467-8.672-4.204 8.672-9.724 1.314 6.832 6.832-1.577 9.723 8.673-4.466 8.672 4.467-1.577-9.722 7.095-6.832-9.723-1.314zm522.394-1.84l-6.044-12.088-6.044 12.088-13.4 2.102 9.722 9.46-2.365 13.4 12.088-6.306 12.09 6.307-2.366-13.4 9.985-9.46-13.666-2.103zm55.97 1.84l-4.466-8.672-4.204 8.672-9.723 1.314 7.096 6.832-1.84 9.723 8.673-4.466 8.933 4.467-1.84-9.722 7.096-6.832-9.725-1.314zm-115.094 0l-4.467-8.672-4.204 8.672-9.724 1.314 6.832 6.832-1.577 9.723 8.673-4.466 8.672 4.467-1.577-9.722 7.095-6.832-9.723-1.314z"/></g></svg>