<svg xmlns="http://www.w3.org/2000/svg" viewBox="0 0 691.487 570.974"><g data-name="Group 36290"><g data-name="Group 36289"><g data-name="Group 36286"><path data-name="Path 22666" d="M87.231 120.963A12.417 12.417 0 0198 110.563c4.914-.518 7.667.088 9.729-2.194s9.5-6.083 14.549-.306.552 9.248.574 18.751 4.406 33.812-14.833 33.812-21.7-11.8-21.387-22.51c.276-9.526.4-15.837.599-17.153z" fill="#48585e"/><path data-name="Path 22667" d="M90.171 119.004s22 .651 28-1.423c0 0 6.785 28.719-2.539 28.719-2.8 0-1.074-5.648-9.383-5.648-7.777 0-8.691 5.033-10.88 4.815-3.838-.382-5.882-1.486-6.4-7.851s1.202-18.612 1.202-18.612z" fill="#f3ebe2"/><path data-name="Path 22668" d="M108.024 160.621a28.861 28.861 0 01-11.447-1.988l-1.971 12.4c11.258 8.639 23.014 0 23.014 0l-1.763-12.292a15.218 15.218 0 01-7.833 1.88z" fill="#f3ebe2"/><path data-name="Path 22669" d="M161.878 215.103s-2.74-8.38-9.9-21.339-22.606-19-34.37-22.73c0 0-11.756 8.638-23.014 0-12.466 2.46-42.217 9.39-42.217 9.39L49.85 215l11.532 1.818-2.441 62.962h83.32l-2.417-43.118z" fill="#dbdbdb"/><path data-name="Path 22670" d="M91.644 116.914a13.068 13.068 0 00-12.189 17.779l-19.58 9.635.565 1.978 20.845-8.357v-.007a13.067 13.067 0 1010.362-21.028zm0 24.151a11.083 11.083 0 1111.083-11.083 11.083 11.083 0 01-11.083 11.083z" fill="#48585e"/><path data-name="Path 22671" d="M52.381 180.424c-6.358 1.494-12.508 2.791-12.508 2.791s22.065-29.993 25.478-30.893 8.027-2.355 9.616-5.025 4.821-11.7 3.106-12.385-2.071.491-2.071.491-11.231-7.7-11.122-2.958c0 0-3.871-1.279-3.641 1.361 0 0-4.124-1.354-4.11 1.848 0 0-3.868-1.718-3.224 2.966 0 0-40.715 41.5-40.516 53.333s37.182 13.226 37.182 13.226z" fill="#f3ebe2"/><path data-name="Path 22672" d="M161.881 215.104c6.132 15.359 9.1 23.539 9.1 23.539s45.879 1.971 52.835.392 30.42-12.034 30.545-10.263-12.783 8.336-12.783 8.336 17.765-3.292 23.754-6.165c0 0 2.952 12.2-12.982 16.291s-11.673 3.12-20.619 4.854-59.285 11.137-69.3 8.665-20.16-26.455-20.16-26.455z" fill="#f3ebe2"/><path data-name="Path 22673" d="M140.647 279.781l28.819 241.381h-52.343l-15.05-185.326-28.142 185.326h-51.3l39.5-241.381z" fill="#969696"/><path data-name="Path 22674" d="M83.667 310.4a.627.627 0 01-.627.627H72.553L44.316 520.803a.627.627 0 01-.621.544.62.62 0 01-.084-.006.628.628 0 01-.538-.706l28.215-209.608H60.97a.628.628 0 110-1.255h22.071a.628.628 0 01.626.628zm49.037.627h10.354a.628.628 0 100-1.255h-22.073a.628.628 0 000 1.255h10.458L148.7 521.213a.628.628 0 00.625.576h.052a.627.627 0 00.574-.677z" fill="#48585e" stroke="#48585e" stroke-miterlimit="10"/><path data-name="Path 22675" d="M130.18 521.162s-2.048 17.319-3.125 33.41h61.672s-.534-15.2-15.176-19.328-15.66-14.082-15.66-14.082z" fill="#48585e"/><path data-name="Path 22676" d="M127.055 554.573v6.44h15.916l4.443-3.883 2.72 3.883h38.593v-6.44z" fill="#969696"/><path data-name="Path 22677" d="M58.547 521.162s2.048 17.319 3.125 33.41H0s.534-15.2 15.176-19.328 15.66-14.082 15.66-14.082z" fill="#48585e"/><path data-name="Path 22678" d="M61.672 554.573v6.44H45.756l-4.443-3.883-2.72 3.883H0v-6.44z" fill="#969696"/><path data-name="Path 22679" d="M159.043 207.419l-18.563 18.252v10.992a.628.628 0 11-1.255 0v-24.576a.628.628 0 011.255 0v11.823l17.683-17.387a.63.63 0 11.88.9zm-99.1-25.771a.629.629 0 00-.69.558l-3.145 29.816a.627.627 0 00.558.69.613.613 0 00.067 0 .628.628 0 00.624-.562l3.145-29.816a.627.627 0 00-.561-.687zm82.328 97.507h-83.32a.628.628 0 100 1.255h83.32a.628.628 0 100-1.255z" fill="#48585e" stroke="#48585e" stroke-miterlimit="10"/></g><g data-name="Group 36288"><g data-name="Group 36287"><path data-name="Path 22680" d="M355.168 539.507l203.738 13.632a9.433 9.433 0 009.891-7.616L672.268 11.797A9.433 9.433 0 00661.778.649l-213.069 28a9.434 9.434 0 00-8.035 7.58l-94.137 492.092a9.433 9.433 0 008.631 11.186z" fill="#727575" stroke="#48585e" stroke-miterlimit="10"/><path data-name="Path 22681" d="M645.24 27.354l-188.3 24.748-90.017 470.551 179.964 12.041z" fill="#dbdbdb"/><path data-name="Path 22682" d="M355.168 539.507l203.739 13.632a9.432 9.432 0 009.89-7.617L672.265 11.795A9.433 9.433 0 00663.08.567c5.917-.268 29.9-.273 27.771 17.389-2.424 20.132-101.251 518.725-108.4 544.651-2.052 7.438-7.915 8.545-28.918 7.632-79.195-3.443-182.625-11.84-197.713-15.173-10.133-2.239-9.17-16.764-9.309-23.327a9.437 9.437 0 008.657 7.768z" fill="#5a6568" stroke="#48585e" stroke-miterlimit="10"/></g><path data-name="Path 22683" d="M566.112 279.036s.876 32.7 24 32.7 29.567-28.687 29.567-28.687l52.585-271.254C674.196-.551 663.078.567 663.078.567L453.797 28.933s-12.182.859-13.127 7.3l-42.626 222.822-1.554 8.251s-4.823 30.432 19.769 32.167 32.149-28.74 32.149-28.74l4.792.573s-4.823 30.432 19.769 32.167 32.149-28.74 32.149-28.74l4.919.875s-4.823 30.432 19.769 32.167 32.149-28.74 32.149-28.74z" fill="#fff"/><path data-name="Path 22684" d="M510.036 275.608l50.7-261.168 54.116-7.9-52.894 272.494s-7.9 29.785-32.148 28.74-19.774-32.166-19.774-32.166z" fill="#969696"/><path data-name="Path 22685" d="M496.456 23.2l-48.048 247.532s-9.535 31.47-32.149 28.739-19.3-24.07-19.769-32.167l44.18-231.073s.208-5.547 13.127-7.3z" fill="#969696"/><g data-name="Group 36291" fill="none" stroke="#5a6568" stroke-linecap="round" stroke-width="4"><path data-name="Line 5" d="M439.596 383.445l70.318 100.653" stroke-width="3.99844"/><path data-name="Line 6" d="M532.57 393.198l-107.619 83.87" stroke-width="3.99844"/></g></g></g></g></svg>