<svg xmlns="http://www.w3.org/2000/svg" width="2500" height="2500" viewBox="0 0 192.756 192.756"><g fill-rule="evenodd" clip-rule="evenodd"><path fill="#fff" d="M0 0h192.756v192.756H0V0z"/><path d="M137.621 2.835H55.984L2.834 55.984v81l52.725 52.938h81.212l53.15-53.15V55.56l-52.3-52.725zm36.143 126.709l-44.221 44.221H63.212l-44.22-44.008V63.213l44.22-44.008h67.18l43.371 43.583v66.756h.001z"/><path d="M56.656 75.117L45.388 52.156 28.592 67.889v56.339l16.158 16.37V85.747l14.032 31.252L74.726 75.33v87.378h17.858V29.621h-18.92L56.656 75.117zM105.072 29.621v133.087h20.41l38.693-38.48V96.164h-29.764v16.158h11.055c2.977-.426 3.189 2.977 1.062 5.527-2.125 2.551-23.598 23.599-23.598 23.599V50.881l25.086 26.149v6.378h16.158V68.526l-38.268-38.905h-20.834z"/></g></svg>