<?xml version="1.0" encoding="UTF-8" standalone="no"?>
<svg xmlns="http://www.w3.org/2000/svg" width="2500" height="2500" viewBox="0 0 256 256" preserveAspectRatio="xMidYMid"><path d="M78.157 0h148.6C242.908 0 256 13.092 256 29.243v146.314C256 219.983 219.983 256 175.557 256H80.105C35.865 256 0 220.134 0 175.895V78.157C0 34.99 34.99 0 78.157 0" fill="#4FB74C"/><path d="M204.8 48.64v99.22c0 32.86-26.64 59.5-59.5 59.5h-32.74c-33.889 0-61.36-27.471-61.36-61.358V75.384c0-14.77 11.973-26.744 26.744-26.744h9.096v96.466c0 16.002 12.972 28.974 28.974 28.974h24.266c15.839 0 28.68-12.841 28.68-28.68V74.947c0-14.528 11.779-26.307 26.307-26.307h9.533" fill="#FFF"/>
	<metadata>
		<rdf:RDF xmlns:rdf="http://www.w3.org/1999/02/22-rdf-syntax-ns#" xmlns:rdfs="http://www.w3.org/2000/01/rdf-schema#" xmlns:dc="http://purl.org/dc/elements/1.1/">
			<rdf:Description about="https://iconscout.com/legal#licenses" dc:title="udemy" dc:description="udemy" dc:publisher="Iconscout" dc:date="2017-07-12" dc:format="image/svg+xml" dc:language="en">
				<dc:creator>
					<rdf:Bag>
						<rdf:li>Icon Mafia</rdf:li>
					</rdf:Bag>
				</dc:creator>
			</rdf:Description>
		</rdf:RDF>
    </metadata></svg>
