<svg version="1" xmlns="http://www.w3.org/2000/svg" width="66.562" height="67.492" viewBox="0 0 66.562 67.492"><path fill="#5C5E62" d="M13.484 13.305c-1.973-2 1.067-4.61 3.29-2.774 2.706 2.61-1.325 4.778-3.29 2.778zm37.32 34.644c4.4-7.75 16.383-17.726 3.734-28.79-2.672-2.327-5.922-4.585-9.5-6.565-.777 1.496-2.488 2.957-3.98 3.38 1.738-1.244 2.414-3.478 2.633-4.13-.01 0-.02-.004-.03-.008 1.526-4.107 2.01-9.7 1.29-11.84-1.822 2.804-6.213 5.87-10.22 8.1-.013.004-.017-.007-.017-.007-1.835 1.06-5.104 2.673-6.972 3.114 1.118-1.21 2.77-2.016 5.024-3.676C21.794 4.54 9.938 5.41 1.387 14.69.677 15.434.14 15.934 0 16.52c1.76-.618 3.972-.633 5.703.308-1.465.406-3.504.95-4.824 1.88.125.128.253.245.375.343 1.117 1.8 22.968 18.31 45.29 6.098-.685 3.937-8.755 5.96-8.755 5.96C43.38 32.86 49.6 43.21 45.82 49.56c-3.76 6.348-12.07 11.04-15.545 3.477-1.97 5.223 7.047 14.07 14.992 9.602 4.847 6.955 18.104 7.4 21.292-5.07-12.857 9.782-20.154-1.886-15.76-9.62z"/></svg>