<svg version="1" xmlns="http://www.w3.org/2000/svg" width="68.078" height="68.07" viewBox="0 0 68.078 68.07"><g fill="#5C5E62"><path d="M33.168 22.934l.066.046.012.055.063.04-.04.046-.02.05.01.075.04.055.03-.056.065-.05.09.015.008.06-.027.086.007.06.01.07-.014.093.015.084.05-.012.09-.01.07-.013.103-.018.096-.027.008.04-.008.046-.015.09.023.055.067-.02.11.01.004.06-.004.075.013.07-.05.05-.075.087-.06.007-.1-.023-.06-.01-.062.01.046.11.016.09-.008.043-.054.057.035.034.065-.007.05.067-.023.046-.05.04-.066.066-.09.058-.007.043.006.075.04.07.062.016.008-.06.078-.042.08.094.074-.012.067-.023.055-.023.067-.027.1-.012.013.068-.035.05-.1.02-.06.01-.08.023-.06.015-.055.01-.066.06-.033.066-.035.064-.02.075-.023.05-.05.055-.052.032-.004.09.028.053.126-.03.023-.047.03-.097.03-.048.06-.024.08.03.04-.007.06-.003.07-.013.01-.094.04-.03.12.003.076.008.06-.006.05-.055.06-.067.043-.024.054-.004h.117l.04-.014.13.012.08-.013.06-.006.05-.056.07-.01.068-.04.035-.036.008-.06-.034-.036-.07.012-.066-.02.004-.073.012-.05v-.08l.047-.007.058-.008.05-.023.045-.04.02-.06.007-.042-.003-.04.006-.15-.086-.064h-.073l-.08.01-.05.054-.056.08-.036-.044-.062-.047.004-.088-.016-.106-.074-.06.086-.025-.04-.07-.046-.023-.05-.036-.075-.004-.022-.053-.04-.056-.148-.117-.103-.004-.035-.04-.023-.056-.014-.07-.035-.047-.065-.13h-.09l-.016-.038-.04-.056-.06-.004-.05-.008-.002-.063.013-.055-.003-.12-.004-.044.04-.034.034-.062.055-.035-.015-.073.004-.03v-.06l-.003-.027-.004-.02-.044-.078-.07-.004-.063.007-.04.003-.108.048-.06.008-.08.016-.064-.004-.013-.074.004-.09.068-.035-.012-.06.08-.06.007-.13-.01-.045-.077-.016-.09.026-.074.067-.04.002-.044-.024-.054.003.012.056-.007.047-.05.077-.014.07.012.074-.024.064-.07.03.012.07-.02.044.02.078.004.007.023.054-.015.095"/><path d="M33.328 23.88l.016-.075-.067-.07-.035-.032-.035-.04-.05-.038-.055.008-.02.074-.098.047.016-.043.016-.03-.004-.06-.05-.05-.083.07-.075.01-.058-.007-.025.05-.023.048-.01.044.02.044.01.055-.056.022-.047.067-.02.06-.07.02-.057.007-.054.022.012.042.003.04.014.113-.11.036.016.087.01.054.034.043.043-.008.055-.008.055-.04.05-.05.047.035-.04.035-.003.047.007.042-.02.062-.023.04-.05.146-.04.105-.093.088.055.035.024.06.042.02.014.057.04-.01.042-.03.066-.03.05.057.068.02.078-.06.047-.085.047-.058.042-.013.086-.012.008-.045v-.083l.06-.01.05-.052.015-.102.05-.07-.02-.043-.044-.082-.01-.086-.013-.058.008-.058-.01-.063.003-.07.05-.066.067-.043.062-.05-.02-.043M16.575 37.77l-.066-.067-.2-.014-.223.022-.12-.043-.28.1-.096.113-.04.04-.057.09-.043.092.04.06.106-.028.035-.032.06-.12.068-.098.11-.047.116-.036.094.074.043.064.054-.035.07-.013.078.043.065-.038.175.13.042.09.166-.026.128-.004.055.08.03.104.116.02.116.02.067.074-.036.134-.02.07.06.012.206-.05.2-.086.066-.025.11-.004.16-.007-.09-.184-.18.016-.06-.028-.1-.18-.12.022-.163-.035-.04-.047-.116-.046-.393-.078m1.446.952l-.148-.008.02.125.094.043.14-.02.132-.02.157-.022.233.004.04.054.05-.03.036-.075-.02-.11.057.02.1.028.08-.028.11-.074.104-.032.11-.015.093-.027-.11-.14-.25-.02-.17-.082-.177-.043-.23.046-.16.07-.024.212.094.054.016.097-.074.023-.047.012h-.04l-.133-.005m-.8.097l-.384.03-.05.118.136.04.07.03.06.032.066.047.063-.048.1-.064.033-.063-.05-.067"/><path d="M44.605 25.426l.094.058.035.04-.09.113.024.062-.117.03-.125.044-.127.032-.183.026-.074-.027-.078-.044-.014-.07-.073-.027-.062-.027-.034-.054-.085-.043.242-.027.07.004.086-.063.066-.11.11-.05.193-.06.048-.065.098-.06.048-.027.062-.035.012-.005.086-.027.09-.017.067-.004.012.065-.076.048-.055.093-.06.036-.04.03-.02.06h-.003l-.047.01-.093.026.008.06zm-1.777 2.226l-.055.086-.07-.008-.078-.027-.05.03-.13.09-.082.01.055-.1.184-.1.03-.03.044-.04.03-.102-.07-.01-.085-.01-.07-.046-.062-.093-.086-.137.06-.156.05-.16.023-.05.09-.08.008-.007-.015-.076-.035-.18.045-.078.016-.047.104-.04-.032-.15-.064-.09.06-.09.06-.07.122-.13.05-.07.043-.137.16-.023.036-.01.042.03.012.03.055.058.183.03.14-.018.123-.06.016.105-.05.044-.14.06-.034.07-.03.08.08.006h.17l.034.07v.094l-.026.06.05.04h.1l.116-.083.145-.07.132-.067.055-.03.09-.012.035-.078.19-.063.044.05.04.095.085.035.078.035.133.086.05.035.064.05.08.075.094.067.074.023.177.063.136.026.07.062.067.082.024.034.015.046v.003l.007.047-.01.085-.047.137-.086.097-.05.04-.11.08-.07.02-.074-.034-.043-.03h-.005L45.3 27.1l-.03.057v.004l-.063.037-.28.028-.113-.04-.067-.027-.03-.047h-.098l-.057.07-.074-.073-.067-.023-.07-.012h-.09l-.012-.076-.15.008-.387.024-.062.09-.136.106-.054.053-.116.06-.03.065-.05.05-.202.072-.035-.043-.125.01-.082.033.015.132zm-8.785 30.496c-11.297 0-20.777-7.766-23.4-18.25l.048.027.11.13.22.108.19.09.12.035.153.066.22.11.145.007.144.04.16.093.285.017.188.05.185-.11.11-.082.448-.02.086-.004.03-.004.103.097.12.047.087.188.206.056.19.086.087.008.285.16.157-.078.143-.027.265.05.027.173h.146l.14.156.087-.047.04.032.054.04.01.003.155.113.013.085-.078.043-.035.147.117.215.112-.02.13.062.155.094.09.19.136.048.047.016.057.027.03.01.123-.035.213.16.086.016.25-.097-.017-.086-.102-.098.1-.106.144-.02.153.067.086.015.046.105.023.14.047.142.146.006.055.164.025.14.024.17.03.17-.043.115v.207l.13.094-.146.166-.097.13-.07.124.03.173-.132.16-.09.123-.085.113.114.158-.02.07-.04.113v.01l-.004.167-.04.117-.003.178.024.17.046.135.098.016.04.11-.062.125-.105.11-.054.175.056.165.047.137.138.302.16.113.164.094.13.12.075.107.16.117.192.293.02.04.034.077.03.07.127.246.325.58.237.454.094.22.18.054.163.116.087.066.043.03.04.013.23.066.164.116.188.063.106.08.117.084.033.098.09.29.11.183.03.23.013.258.023.344.022.14-.056.212.014.115.118.328.02.168-.036.134-.004.02-.062.125.015.112.054.168-.025.41-.063.18.008.05.013.084v.013l.132.125.027.14-.06.23-.015.068.008.027c.126.074.243.147.365.226 1.08.646 2.204 1.204 3.37 1.68l.006-.01.037-.08.01-.022.11-.42-.053-.164-.124-.07-.02-.16v-.007l-.08-.134-.006-.004-.19-.14-.15-.207.02-.238.094.07.094.215.148.035.102.102.144.003.168-.05.336-.05.094-.17.04-.073.155-.285.045-.083.028-.056.027-.18-.003-.23.17-.23.05-.223.016-.082.164.255.03.043.003-.016.02-.096.023-.1.03-.207.052-.24.12-.137.09-.156-.02-.113-.022-.17-.032-.197-.072-.304.04-.123.09-.138.073-.095.14-.195.197-.19.06-.06.024-.02.21-.093.07-.158.16-.076.292-.19.2-.01.04-.144-.005-.23.085-.356.133-.254.096-.332-.02-.14.028-.152.008-.348-.062-.223.027-.297.005-.05-.008-.028-.063-.25.074-.447.11-.012.03-.007.024-.082.035-.13.027-.17.032-.176.14-.226.223-.235.022-.23.003-.004.017-.086.05-.242-.075-.48-.164-.148-.064-.25-.19-.06-.217.067-.232-.194-.304-.273-.285-.04-.01-.003-.075.013-.153.02-.3-.067-.267-.043-.06.184-.16-.123-.244-.25-.216-.086-.246-.073-.313.012-.147.17-.04-.253-.128-.094-.19.086-.16.284.024.14-.12-.017-.134.082-.027-.196.04-.27.252-.093.008-.144-.02-.148-.136-.12.06-.18-.13-.067-.063-.25-.19-.31-.203-.174-.224-.168-.34-.12-.124-.07-.55.112-.086.015h-.005l-.17-.148-.15-.04-.16.083-.025-.168-.004-.174-.057-.07-.308-.13s-.196.087-.235.005c-.045-.077-.017-.112-.017-.112l.01-.116-.13-.07-.15-.066-.157-.09v-.2l-.11.048-.175.07-.15.066-.067.15-.23.01-.123-.065-.184.024-.17.024-.21.117-.078-.133-.156-.094-.192-.087-.148-.035.02.14-.13.104-.133.11.02.114.006.05.016.02.1.138-.02.11-.008.068-.055.01-.063.004-.11-.152-.027-.2v-.17l-.05-.17.024-.046.06-.11.05-.098-.078.01-.086.016-.007.004-.07.1-.1.097-.132.11-.103.044-.266.152-.064.125-.028.177.055.168-.2.406-.39-.31-.196-.174-.22.094-.143.167-.19.086-.25.02-.216-.207-.12-.168-.137-.195-.097-.242h-.005l.004-.29.004-.5v-.128l-.074-.14-.18-.08-.07-.026h-.03l-.374.008-.196.057-.156.047-.137.047-.04.013-.21-.024.01-.04.015-.066.078-.426-.02-.284.145-.195-.084-.917-.223.038-.272.103-.157.133-.08.215.027.196-.1.273-.157.112-.17.054-.13.078-.09.157-.127.055-.086.035-.142.02-.035.007-.006-.02-.036-.082v-.004l-.242-.104-.578-.723-.047-.276-.032-.258-.113-.44.04-.24.096-.125-.03-.203-.12-.27-.01-.234.107-.242.27-.156.023-.18.115-.188.047-.017.074-.04.094-.038.22-.09.19-.03.267.02.085.155.125-.104.235.023.1-.104-.05-.137v-.205l.227-.035.25-.04.16-.08.19.112.163.026.012.004.07-.008.098-.016.105-.046.137.098.136.152.08.13.14.358.027.168.136.043.02.14.152.144.123.242.114-.016.043-.093.04-.15-.04-.253-.1-.273-.13-.264-.03-.223-.14-.155-.03-.195.015-.266.016-.29.16-.257.095-.13.348-.375.145-.19.148-.165.017-.093.176-.172-.086-.214-.08-.13-.19-.117-.026-.17-.085-.158.003-.15-.02-.167.053-.14.05-.14h.205l-.094.128-.006.028-.032.095.032.194.093.07.156.067.058-.183.044-.13.016-.05-.016-.02-.098-.136.08-.073.134-.047.07-.13.008-.12.01-.087v-.027l.207-.176h-.176l.147-.195.11-.048.13-.06.14-.07.14-.02.012-.116-.048-.103V30.6l-.03-.203.148-.165.164-.058.147-.137.157.06.108-.075.04-.122-.03-.195.22-.066.134-.05.082-.067.04-.093.105-.1.078.16.144.007.07.078-.33.11-.128.11-.13.132.055.164.102.07.16.096.14-.027.125-.13.035-.15.12-.19.163-.05.106-.08.162-.255-.235-.023-.23.036-.172-.15-.098-.1-.117-.215-.116-.183-.298-.067.008-.145.117.008.17-.226.02-.09-.043-.11-.114-.13-.2.032-.32.163-.18.168-.254.22-.165.253.004-.144.1-.3.16-.12.125-.136.086-.152.223-.266.532-.115.253-.065.16-.083.245.105.3-.133.153-.138.25-.24-.025-.14.193-.085.242-.095.17-.23-.023-.137-.036-.223-.188-.086-.145-.035-.245.125-.42.266.13-.104.13-.254.17-.05.097-.102-.05-.137-.1-.1-.12-.01-.394.06-.12-.21-.187-.114-.133-.13-.15-.116.182-.112-.02-.114-.176-.027-.016-.142-.143-.122-.098-.097-.166.05.063-.157-.027-.17-.096-.104-.157-.057-.118-.187-.03-.188-.004-.036-.077.007-.026.143-.008.037-.004.007-.106.215-.136.078-.067.09-.13.137-.15.054-.114.044-.107-.157-.093-.047-.23.012-.066-.254-.004-.146-.003-.078.003-.175.008-.113-.167.027-.04-.08-.1-.1-.16.11-.11.017-.115-.186-.222-.093-.077-.04-.196-.104-.193.172-.297-.036-.288.002-.27.082.036.242.04.235.026.2.13.023.077.274-.06.137-.22.15-.05.216.02.02.06.05.21.177.202.293.13.11.07.063.04.034-.027.375-.082.257-.097.076-.1.082-.056.047-.18.187.075.235.05.08.065.106.004.016.035.23-.017.41-.098.176-.054-.004-.085-.01-.153-.02-.19-.176-.075-.195-.164-.16-.033-.204-.035-.24-.04-.28-.24-.1-.523.076-.278-.094-.087-.026-.24-.082-.19-.17-.066-.033-.08-.035-.124-.058-.25-.047-.257-.083-.228.117-.184-.137-.118-.137c.77-2.084 1.82-4.03 3.102-5.8l.08.05.005-.1.07-.046.082.023.13.094.045-.063.07.1.024.134.14.04-.05.18.045.05.07.08.07-.026.087-.05.067-.086.105-.06.015.118.02.133h.004l.12.054.083.023.016.133.07.162.07.086-.13.034.02.113.027.07.047.055-.066.068-.066.086-.086.125-.085.11.006.138.34.23-.044.104-.308.1-.12.064-.287.002-.225.13-.06.034-.01.023-.1.26.027.15.093.027.09.062.22-.075.13-.156.073-.01.01-.003.084-.01.046-.024.016-.004-.048-.17.06.032.054-.008.114-.04.047.072.113.003.066.063.124.06.043.034.047.046.066.063.04.034.15-.02.062.048-.09.07-.033.023.022.064.005.008.058.01.024.002.15-.003.055-.03.02-.006.167-.027.24-.05.18.01.167-.025.155.016.18-.046-.008-.1-.117.024-.113-.12-.156-.013-.205-.1-.19-.11.07-.027.17-.047.104-.055.132.12.235-.08.22.067-.043-.164.043-.107-.023-.13-.07-.08-.094-.006-.375-.154-.11-.12-.08-.12-.064-.048.036-.258-.016-.13.16-.066.1.14.083.063.09.084.156.015.02.093.09.02.153.15.2.008.127-.02.008-.077.008-.21.13-.056.02-.1-.013-.095.28-.042-.008-.29-.054-.09-.105-.077-.15.02-.19.13-.06-.01-.074.01-.13.024-.15-.227-.098-.16-.09.05-.046.067-.062.086-.164.064-.093-.12-.05-.06-.062-.066-.023-.027-.266-.055-.08-.07-.022-.125.078-.016.078-.105-.06-.126.15-.024-.12-.077-.157.008-.074-.103.086-.075.1-.05v-.136l-.14-.06-.005.08-.135.002-.123-.153-.145-.024-.05-.008-.048.066-.036.154-.01.046-.007-.02-.03-.108-.04-.133-.074-.083-.09-.067-.07-.098s-.14.015-.185.023c-.058.008-.035.027-.035.027l-.188.028-.05-.07-.157.102-.012-.082.004-.055v-.047c.773-.96 1.617-1.862 2.527-2.694l.14-.023.262.05.16.118.035.036.04.047.042-.008.066-.012.114-.047.094.043.044.11.04.08.32.13.18.043.026.003.015.098.008.046-.03.18.147.004.047.135.158.097.024.14.156.09.02.14-.075.07-.034.154v.14l-.02.09.015.083.14.006.107-.048.134-.08.08.004.07.004.024-.006.23-.04.04.083.117.012.15.002.09.043-.043.12.02.11.074.105-.015.087-.14.028-.094-.043-.155-.067-.266-.015-.216.052-.012.007-.112.04-.01.004.093.032.12.03.068.07.236.024.07.076.12.04.122.046.113-.02.08-.043.086-.01.062.07.028.137.047.14-.01.172-.105.015.024.17-.004.142-.113-.008-.12.02-.096.1-.02.09.093.047.23-.035.11-.02.052.106.04.11-.138.046-.145-.004-.12-.035-.137.074-.125.137.023.14.11.125-.074.128.03.166.094.046.04.078.113-.015.16.09.054.195-.006.117-.046.093.074.11.12-.133.02-.09.083-.047.11-.012-.065.153-.102.076-.077.066.083.138.12.066.02.11.047.082.008-.005.09-.015.012-.005.07.106.082.06.02.014.007.063.016.078.196-.135.012-.005.004.004.044.1.11.13.02.14.094.04.043.11.07.107.164-.082.067-.125.103-.074.046.115.104.126.2-.032.14.008.075.08.09.042.09.192.065-.067.082-.07.015-.09-.048-.083-.098-.096.058-.13.094-.182.012-.116.038-.09.004-.203v-.145l.03-.05.048-.075.07-.07.05-.093.04-.09-.02-.117-.004-.23.012-.117.03-.18.013-.082.104-.076.04-.145.245-.066.132-.11.137-.046.042.112.118.007.07-.097.062-.012.082-.01.024-.003.125-.106.094-.15.04-.12.073-.1.1-.076.19-.29.128-.077-.016-.11-.028-.2.097.074.09.013.16-.086.14-.048.056-.013.117.012.137-.05.08-.017.11-.043.077-.042.077-.07.05-.036.118.016.138-.023.063-.18.16-.082.075-.098.116.016.064-.123.194-.06.137-.022.014-.09.068-.125.164-.22-.223.033-.15-.003-.18-.09-.14.024-.183.145-.11.012.048-.234.015-.09-.07-.08.07-.12-.1-.075-.08.01h-.177l-.14.025-.13-.096.086-.012.112-.018.085-.012.08-.012.11-.02.09.02.115.012.094.043.096.07.13.102.046.078.122.04.117.038.12.05.14.01.095.01.075-.066-.015-.116-.047-.134-.16-.096-.106-.126-.276-.103-.125-.093-.12-.035-.1-.07-.09-.047-.107.048-.11.015-.143-.008-.036-.062-.046-.074.008-.01.066-.08.082-.044.102-.078.137-.078.1.133.095.042.074.077h.015l.098.01.04.072.08.14.13.07.09.015.117.04.08-.04-.07-.078-.074-.1.13-.08-.075-.078-.02-.02-.16-.067-.127-.097-.195-.114.21-.032.112.012.173-.027.097-.11.136-.044.067-.155-.11-.13-.273.13v-.207l.223-.06-.02-.11-.023-.173-.168-.148.11-.02.095.015.12.07.066-.155-.02-.113-.214-.255-.134.077-.144.024.074-.097.066-.12-.02-.09-.02-.053-.018-.06.328-.002h.078l.062.046.14-.022.106-.07-.015-.023-.054-.075-.035-.12-.073-.102-.11.043-.17.03-.1-.07.173-.2-.21-.027-.346-.005-.017-.087c-.01-.082.12.012.12.012l.207-.028.035-.12.04-.122.17-.195-.04-.257.353-.168-.01-.086-.25-.11-.197.03-.16.082-.05-.14.13-.103.194-.03.126.06.394-.06.144-.194.09-.087.066-.063.024-.02.094-.098.13-.11.093-.13.214.03.16-.23-.18-.062-.337.054-.094.016-.06.008-.214.032-.477.07-.16.113-.39.064-.146-.008-.164.08-.145.165-.09.133-.19.108-.033.004-.098.015-.126.02-.1-.098.132-.082.1-.07.08-.043.073-.1.093-.132-.097-.065-.173-.004-.196.03-.034.174-.27.094-.187-.085-.153-.082-.008-.002-.11.003-.176.008-.413.125-.257.036-.38.175.01-.066.002-.083.217-.117.073-.03.224-.077.48-.07.405-.074.14-.03.52-.092.347.003.195-.03.125-.13.028-.18-.24-.05-.085.013-.222.007-.07-.03-.027-.015h-.144l-.177-.008-.047-.11-.03-.03-.052-.048c2.338-.756 4.826-1.17 7.416-1.17 5.64 0 10.828 1.942 14.934 5.19l.026.18.078.18-.13.044-.112-.058-.06.195-.112-.034-.066-.098-.043-.106-.186.058-.11.012-.003.14-.194-.05-.117-.035-.134.014-.097.095-.023.08-.02.1-.008.017-.184.027-.11.02-.08-.013-.087-.015.12-.078.045-.087-.138-.004-.07-.103-.086-.016-.265.23-.14.13-.143.024-.098.07-.146.103-.078.044-.102.034.012.028-.067.05-.14.11-.01.137v.163l-.145.128-.073.068-.102.042-.11-.03-.128-.12-.027-.16.07-.096.145-.13-.055-.183-.102-.147L45.2 16l-.32.048-.008.136.062.07-.02.223-.01.11.024.16-.03.194-.026.168-.035.14-.23-.072-.063-.07-.086-.016-.1.09-.063.054-.022.024-.094.12-.08.176.01.083.105.143.094.093-.135.02-.15-.087-.118-.063-.168-.007-.118-.062-.1.016-.01.167.02.16.09.044.134.146-.026.137-.16.05-.13.024-.206-.08-.066-.075-.102-.118-.105-.148-.052-.185-.047-.13-.14-.056-.146-.06-.172-.058-.095-.09-.106-.18-.167-.19.3.174.133-.02.09.067.143.044.222.017.273.008.25.02.144.062.18-.086.132-.183.1-.097.098-.087.062-.06.054-.046-.085-.203-.05-.16-.135-.005-.146-.087-.044-.03-.144-.108-.076-.03-.246-.11-.396-.078-.105.014-.23-.046h-.16l-.215.033-.09-.044-.2-.048.07-.1-.12-.093-.083.015-.133.02-.11.02-.224.112-.097-.094.07-.064.045-.062.15-.08-.195-.186-.086.017-.06-.047-.12-.063-.017.085.016.1-.126.08-.097-.12.086-.16-.04-.07-.09-.042-.067.067-.008.136-.036.138-.01.086-.08.04-.065-.076-.013-.078-.055-.024-.01.115-.06.118-.047.062-.005.035-.008.075-.062.093-.047-.132-.015-.08.062-.09.018-.064.02-.05-.07-.07-.113-.04-.06-.01-.023-.005-.087.01v.14l-.046.06-.106.044-.013.105-.07.07-.102.042-.08.012-.18-.087-.095-.02-.047-.01.055.182-.04.062-.084-.02-.117-.03.05.128-.085.013-.098.042-.094.122-.082-.016-.06.127-.1.068-.065.12-.06.09-.007.17-.056.195-.117.1-.09.106-.07.006-.035.008.047.13.042.105-.005.044-.004.04-.074.09-.082.15-.078.008-.074.07-.034.136-.14.17-.016.022-.036.145-.1.094-.026.142-.102.07-.07.04-.09.01-.105.18-.033.118-.094.07-.012.106.11.04.08-.013-.06.112v.003l-.12.074-.11.012-.027-.07-.016-.036-.08-.01-.083.01-.102.045-.015.02-.05.07.07.07.058.042-.207.093.018.107-.078.016-.106.016-.048.086.013.078-.045.01-.082.065-.035.114-.11.02-.062.084-.124.08-.043.085-.067.12.077.153.022.16.086.177.07.065.204-.055-.022.222-.15.073-.01.11.015.11.11-.017.05.155.022.16.145.06.142.03.32-.046.12-.107.105-.18.18-.08.08-.122.13-.046.105.092.04.13.073.127.008.043.013.082.007.035.118.2.2.11.09.038.038.07-.09.126-.07.068-.13.048.02.136-.132.02-.085-.012.027.16.097.12h.17l.033-.085-.012-.11.04-.112.1-.048.014.078.067.078.18-.054.07-.07.01-.136.06-.117.095-.07.267-.068.082-.176-.047-.12-.026-.188.03-.168v-.168l-.02-.11.017-.08.105-.02.083-.012.125-.07.078-.043.045-.085-.044-.076.082-.176-.133-.146-.097-.096-.113-.01-.084-.048-.085-.035-.115-.555.047-.094-.015-.104.065-.063.1-.1.03-.17.02-.015.05-.048v-.164l.1-.103.254-.09.125-.1.03-.145.125-.098-.077-.126-.098-.12.085-.126.07-.094.087-.12.047-.087.04-.09.185-.03.07.073.294-.043.152.087.02.13v.167l-.148.134-.11.156-.06.14-.087.12-.054.2-.14.16-.013.04-.033.085-.012.035.04.235.022.16.082.183-.068.12.098.093.044.098H40l.102-.044.082.016-.012.086-.07.12.195-.003.04.078.198.075.094-.093.06-.15.064-.065.148-.11.105-.04.16-.025.13-.047.102-.017.136.173.112.04.104-.015.078-.044.09.044-.062.14-.07.097-.156.028-.12-.043-.005.165-.208.06-.14-.032-.14.02-.11-.04-.12.153-.13.024-.103.015-.066.093-.073.066.02.124.003.03.035.04.03.03.088.044.003.386-.094.095-.067.09-.118-.036-.04-.08-.06-.042-.102-.122-.155.05.055.18.004.193-.036.145-.064.12-.043.083.016.11.007.017.063.08.017.11-.013.015-.105.114-.04-.08-.08-.01-.04.14-.014.113-.027.17-.12-.06-.07.036-.063.14-.074-.12-.062-.048-.162.027-.066.094-.25.15-.2.08-.102.047-.11.038h-.155l-.098-.066-.19-.05-.06.006-.102.233-.13.02-.07-.07-.085-.076-.105.02-.11-.094-.038-.155.125-.075.003-.11-.07-.1-.02-.133.05-.2.02-.082-.144-.09-.06-.152.09-.15-.016-.12-.004-.017-.044-.06-.027-.042-.045.06-.07.098-.004.003-.065.118-.082.148-.176.084.144.032-.214.23.077.12.094.1.013.104.048.124.074.1.035.104.07.235.046.13-.134.215-.05.003-.113-.01-.124.05-.187.06-.08.006-.136.018-.007.087-.078.067-.078.18-.004.157v.17l-.012.08-.2.03-.08.013-.167.082-.1.045-.122.1-.003.136-.035.113-.073.094-.158.055-.035.114-.102.048-.13.075-.07-.13-.16-.005-.03.145.04.102.05.156-.098.07-.122-.01-.102.015-.11.02-.18.1-.076.062-.042.094.02.132.113.01.2.02.176.13.23.116.23.12.087.165.044.244.008.1.005.09.008.173.04.27-.102.11-.223-.06-.212.032-.188-.06-.184.02-.18.03-.253.13-.19-.03-.155-.04-.047.07-.076.102-.17.062-.078.1.024.122.113.137.077.14.035.24.03.21-.066.165-.028.216.028.18.055.15.074.073.04.272.02.153.218.026.23-.096.09-.01.108.134.147.102.15.008.168-.117.098-.103.184-.027.152-.02.074-.106.04-.125.16-.15.116-.048.043-.132.013-.124.13-.14.015-.1-.078-.108.016-.125.095-.17.075-.136.045-.066.11-.14.163-.116.168-.112.048-.07.03-.192-.02-.12-.102-.106.048-.102.16-.082.012-.008h.21l.22.06.16.034.082-.106.062-.128.145-.05.105-.138.066-.164.216-.035.145.19.106.108.153.168.054.14.144.165.164.067.168.093.17.063.194.066.202.153.176.13.134.07.055.14.03.21-.01.122-.08.104-.077.048-.12.017-.138.042-.144.082-.085-.017.085.14.195.063.164.07.1.047.002-.156.04-.16.143-.055.073-.1.08-.106.067-.138.004-.18-.01-.09-.075-.08-.028-.153.197-.123.136.098-.156-.218-.114-.1-.137-.072-.104-.078-.137-.132-.095-.016-.35-.067-.117-.167-.047-.117-.13-.07-.204-.126-.105-.105.008-.103.008-.085v-.06l-.082-.202.25-.13.082.37.004.014.023-.016.085-.057.128-.17.176.156.003.043.01.08.005.032.05.14.203.063.19.09.243.18.346.037.15.188.07.45.05.117.15.193.24.148.15.19.13.073.182.006-.16.144.055.145.152.008.203-.09.16-.148V28.9l.02-.087.046-.02.07-.032-.046-.11-.056-.016-.09-.025h-.01l-.157-.008-.076-.11-.047-.112.012-.125-.056-.145-.027-.148.137.093.102-.01.082-.013.046-.1-.05-.115.147-.023.278-.017.078.14.098.2.082.14.074.083.015.12-.067.134.05.148.153.008.044.266.142-.02.113.106.19.066.24.148.11-.05.07-.133.055-.1.18-.028.2.09.162.067.185-.03.137-.115.15-.172.164-.116.073.26.007.05.016.078.02.14.047.298.03.212-.05.254v.184l-.016.125-.065.16-.447.043-.113.075-.13-.043-.19.042-.196.12-.09.048-.148.027-.148-.007-.134-.05-.027.22-.114.047-.09.015-.095-.015-.163-.094-.157-.012-.148.025-.102-.082-.057-.024-.043-.02h-.184l-.12.02-.123.015-.108-.107-.07-.08-.15.025-.12.02-.18.183-.08.1.03.18.023.15-.08.1-.074.107-.185-.004-.098-.016-.125-.043-.16-.065-.2-.064-.222-.09-.172-.12-.246.007-.224-.06-.22-.022-.112-.11-.152-.007-.105-.078-.063-.133-.034-.077-.034-.074.077-.103-.042-.273-.137-.098.047-.22.122-.233-.176.03-.124.014-.143.023-.2.092-.187-.004-.126-.044-.043.098-.147.023-.13-.012-.218-.057-.177.058-.013.013-.074.07-.102.102-.265.032-.184-.028-.124.047-.065.133-.138.11-.204.093-.05.097-.202.063-.15.055-.105.08-.274.042-.113.047-.12.02-.16-.067-.13-.042-.148.024.032.208-.03.188-.103.173-.1.137v.003l-.1.102h-.004l-.16.113-.153.238-.008.34.03.24.023.152.025.18-.082.253-.234.307-.1.14-.132.142-.075.132-.145.056-.11.324-.187.362-.026.188-.12.23-.047.32-.195.305.035.233.086.202.01.035.032.082.023.06.01.302.034.203.11.145.04.267-.02.215-.026.254-.08.29-.056.25.113.135.065.23.087.145.11.102.108.14.12.16.162.066.07.082.18.16.145.16.086.2.083.108.125.194.043.047.026.034.05.043.125.114.31.23.23.113.234.15.16.034.164.04.116-.016.483-.223.175-.093.18-.023.233-.04.153-.02.266-.07.203-.065.164-.087.185-.024.185-.216.137-.11.43-.123.007-.003.082.023.047.015.226.116.05.147.04.24.2.093.29-.075.164-.09.15-.024.28.2.085.146-.01.37-.003.118-.043.188.073.454-.113.293.29.29.327.32.346.436.062.23.148.163.184.214.058.363.05.14.032.08.035.1.05.3.054.172.03.203.035.31-.134.266-.01.147-.005.34-.027.254-.008.03-.028.093-.044.137.013.305.135.258.125.223.18.188.194.466.22.21.26.51.04.27.033.236.12.316.035.09.02.07.042.165.16.215.18.188.176.156.11.29.167.335.01.02.054.157.078.14-.004.337.035.238.077.11.196.06.27-.01.02-.004.11-.03.106-.028.48-.07.13-.145.33-.05.12-.016.31-.17.16-.143.042-.074.03-.06.102-.137.07-.14.105-.105.074-.132.1-.14.07-.134.028-.22.102-.14.07-.164.105-.105.073-.13-.117-.14.27-.07-.055-.358-.07-.234-.11-.138.112-.077.125-.14.172-.087.14-.05.08-.105-.02-.125-.06-.777-.09-.176-.044-.082-.104-.11-.05-.144.004-.147.108-.078.043-.16.08-.258.1-.137.31-.172.285-.172.094-.193.132-.33.047-.31-.04-.235-.027-.19-.012-.08-.015-.124-.036-.16-.02-.073L48 43.9l-.048-.298-.117-.173-.14-.128-.04-.453.06-.228-.137-.098-.152-.133-.023-.21.12-.38-.05-.33.062-.19.096-.173.215-.215.082-.253.195-.345.075-.285.132-.14.22-.183.232-.253.237-.435.2-.31.1-.325v-.212l.08-.32.11-.44.13-.36.02-.246.057-.254-.03-.223-.01-.046-.003-.027-.04-.21-.194.116-.17.085-.17.062-.09.042-.16.145-.056.07-.073.102-.256.013-.075.004-.15.022-.16-.04-.28-.23-.216-.21-.02-.15-.22-.18-.097-.11-.137-.1-.14-.104-.106-.15-.164-.05-.007-.005-.082-.042-.095-.05-.078-.23-.066-.18-.01-.02-.103-.19-.147-.14-.147-.184-.148-.138-.078-.273v-.247l-.055-.116-.16-.218-.234-.17-.19-.42-.1-.14-.14-.39-.107-.155-.193-.173-.027-.203-.146-.136-.02-.167-.026-.157.147.18.18.097.266.12.158.223.11.188.283.243.2.22.31.195.023.16.03.2.027.204.106.144.07.156.176.337.046.027.093.05.21.12.198.213.15.18.126.31.004.007.027.078.047.148.088.31.068.155.285.247.133.06.21.05.267-.164.112-.016.242-.04.375-.222.23-.117.132-.184.165-.11.065-.045V34.7l.3-.17.1-.137.104-.14.02-.02.155-.173.31-.13.093-.176.078-.296.098-.137.16-.306-.03-.2.16-.272-.114-.23-.317-.195-.17-.056-.18-.1-.11-.186-.136-.1-.035-.2-.22.304-.013.02-.028.16-.006.027-.344.132-.157.066-.164-.02-.12-.226-.073-.195-.125-.015-.085.216-.152-.18-.11-.19-.175-.344-.157-.215-.155-.183-.102-.15.013-.204.27-.082.28-.043.19.18.06.153.06.11.15.183.1.105.184.136.138.063.207.05.18-.03.084-.012.02-.003.19-.067.16-.027.164.016.147.18.103.11.16-.027.42.098.22.09.43-.104.633-.18.204.052.086.026.09.024.004.003.06.123.34.11.234.167.18.097.198-.03-.238.363-.102.14.28.2.286.04.164-.024.11-.1-.044-.28.027-.125.13.067.077.228.04.277v.29l.1.354.16.386.028.062.006.008.19.46.22.337.045.32.08.273.013.01.28.272.27.406.083.318.236.17.18-.153.09-.215.15-.1.055.107.05.32.127.265.083.277.21.046.142-.146-.035-.238-.07-.2-.19-.17-.104-.145-.06-.112-.15-.184-.032-.203-.03-.194-.043-.277.043-.255-.055-.357-.04-.234.013-.208.275-.326.172-.23.19-.076.23-.363.106-.14.103-.136.16-.31.074-.057.06-.046c.036.56.064 1.12.064 1.69.008 13.323-10.79 24.12-24.11 24.12zm-7.91-46.898l.004-.008c.11-.04.214-.074.324-.11l-.05.044-.005.004-.078.062-.047.008-.157.02.013-.02zm22.574 15.645l.02.054.012.043.03.03.028-.042.07-.02.016-.002.05-.008.036.008V27l-.032.11.05.097.044.055.03.054.01.012.03.03.02.044.008.04-.027.015-.012.004-.012.066.043.114.004.08.016.093-.01.043v.004l.016.096.023.04v.05l-.02.04-.06.01-.026-.035-.074-.01-.05.01-.06.03-.056.02-.043.058-.05.043-.12.005-.126-.05-.03-.056-.048-.017-.066-.008-.048-.035-.064-.017-.055.016-.054.003-.068-.028-.052-.01-.03-.056-.004-.04-.004-.03-.064-.084-.03-.055-.067-.05-.01-.082.026-.05.043-.09.007-.038.02-.108.012-.062.003-.063.036-.05-.01-.07-.016-.084.005-.06.07-.01.046-.02-.02-.03-.05-.032-.048.008-.055-.05-.047-.063-.016-.027-.056-.08-.02-.022-.05-.027-.083-.07-.05-.027-.043-.043-.016-.094-.062-.043-.086-.09-.063-.25-.053-.046-.016-.086.026-.065-.05-.04-.063-.026-.054.026-.036.032-.02-.055v-.084l.01-.118.027-.22.013-.085.015-.133.062-.053.04-.067.037.027.078.04.09-.11-.047-.017-.02-.045.09-.024.04.017.062.03.038-.044.008-.065.03-.03.157.023.036-.008.053-.106.005-.04.026-.07.027-.028.067-.026.07-.01.03.067.066.04.027.016h.095l.082-.013.047.06.055.034.13.036.11.014.015.094.03.078.048.066.05.036.048.055.01.055-.01.075-.053.058-.078.036-.08-.025-.046-.028-.062-.004-.07-.023-.043-.007-.02-.005h-.087l-.03.062-.024.06-.11.01s-.004-.007-.03.016l-.03.03.006.13.07.05-.01.046-.12.005-.135.03.04.09.09.038.09.043.03.084.03.035.08.06.066.03.05.023h.035l.07.004.048-.003.074.308h.043l.04-.01.017-.005.034-.043.02-.024.017-.02.04.032.05.004.09.07s-.004.04.027.066c.023.033.066.076.066.076l.067.027.06.023-.026.066-.033.015-.005.07-.02.045-.01.03-.05.026-.046-.006-.075-.013-.06-.04-.03-.017-.055-.015-.006.015-.045.076-.03.056.017.07zM34.043 8.81C20.133 8.81 8.82 20.124 8.82 34.03c0 13.908 11.317 25.22 25.223 25.22 13.906 0 25.22-11.312 25.22-25.22.004-13.905-11.314-25.22-25.22-25.22zM19.3 4.566l-.492-.984c.332-.168.668-.328 1.008-.484l.46 1c-.327.148-.65.308-.975.468zm17.692-3.343c-.707-.063-1.422-.102-2.14-.12L34.878 0c.74.02 1.48.06 2.21.125l-.098 1.098zm-6.422.05L30.457.176c.73-.078 1.465-.13 2.21-.16l.044 1.1c-.72.032-1.43.083-2.14.157zm10.657.606c-.695-.16-1.398-.29-2.105-.4L39.29.39c.734.114 1.457.25 2.176.41l-.24 1.08zm-14.88.113L26.09.923c.715-.173 1.44-.32 2.172-.446l.183 1.085c-.707.126-1.406.27-2.097.434zm18.993 1.09c-.672-.247-1.348-.47-2.04-.67l.31-1.06c.71.21 1.414.44 2.105.694l-.375 1.035zm-23.086.183l-.395-1.028c.68-.265 1.39-.508 2.09-.726l.324 1.05c-.683.215-1.36.446-2.023.704zm27.008 1.546c-.633-.328-1.277-.64-1.934-.93l.445-1.007c.68.297 1.344.62 2 .96l-.51.977zm3.664 2.227c-.582-.41-1.184-.805-1.797-1.176l.57-.94c.633.382 1.25.788 1.856 1.21l-.634.902zm3.344 2.68c-.527-.486-1.07-.95-1.63-1.396l.688-.86c.578.462 1.137.942 1.684 1.442l-.742.812zm2.968 3.09c-.46-.548-.938-1.08-1.434-1.595l.797-.763c.516.53 1.008 1.082 1.48 1.645l-.84.71zm2.543 3.45c-.383-.604-.79-1.194-1.21-1.768l.886-.656c.437.593.856 1.202 1.258 1.823l-.93.597zM63.856 20c-.305-.644-.63-1.28-.977-1.905l.965-.536c.356.644.69 1.3 1.01 1.97l-.997.47zm-60.3 1.552l-1.02-.422c.28-.684.58-1.36.905-2.02l.99.485c-.315.644-.608 1.297-.877 1.957zm61.87 2.433c-.22-.683-.46-1.355-.723-2.02l1.027-.402c.27.688.515 1.383.74 2.086l-1.046.335zM2.187 25.62l-1.066-.28c.195-.715.406-1.426.637-2.12l1.047.346c-.226.676-.43 1.36-.613 2.055zm64.27 2.525c-.125-.707-.277-1.403-.45-2.094l1.07-.262c.18.71.333 1.434.466 2.164l-1.086.196zM1.37 29.828l-1.093-.14c.094-.74.21-1.47.352-2.188l1.08.21c-.14.696-.25 1.403-.34 2.118zm65.57 2.574c-.034-.718-.093-1.43-.174-2.136l1.097-.125c.082.73.14 1.468.18 2.21l-1.102.055zM0 34.105v-.074c0-.715.02-1.43.066-2.14l1.102.07c-.043.69-.067 1.38-.067 2.078l-1.1.07zm67.973 2.672l-1.098-.09c.06-.707.09-1.422.102-2.14l1.102.014c-.017.75-.05 1.486-.11 2.22zM.297 38.523C.2 37.79.125 37.047.077 36.32l1.103-.07c.046.715.117 1.426.21 2.13l-1.093.143zm67.04 2.633l-1.08-.23c.15-.695.274-1.398.38-2.11l1.09.16c-.11.735-.24 1.462-.39 2.18zm-66.18 1.71c-.19-.706-.36-1.426-.507-2.154l1.078-.214c.14.703.3 1.398.49 2.086l-1.064.285zm64.976 2.552l-1.04-.367c.24-.67.454-1.35.65-2.04l1.062.3c-.203.71-.426 1.416-.672 2.11zm-63.55 1.64c-.282-.68-.544-1.37-.782-2.073l1.047-.356c.23.68.48 1.344.754 2l-1.016.426zm61.796 2.43l-.988-.5c.324-.637.63-1.28.914-1.94l1.01.437c-.29.68-.605 1.35-.94 2.003zm-59.84 1.54c-.368-.638-.72-1.29-1.044-1.954l.987-.484c.317.64.652 1.27 1.008 1.887l-.952.55zm57.565 2.27l-.91-.626c.4-.59.792-1.19 1.155-1.805l.946.562c-.37.633-.773 1.255-1.19 1.864zM7 54.708c-.45-.588-.88-1.19-1.29-1.803l.92-.61c.397.595.81 1.177 1.245 1.743L7 54.706zm52.37 2.07l-.82-.736c.478-.53.94-1.078 1.384-1.64l.863.683c-.457.574-.934 1.14-1.426 1.69zm-49.46 1.26c-.52-.524-1.023-1.06-1.512-1.617l.832-.724c.47.54.957 1.062 1.46 1.566l-.78.78zm46.293 1.832l-.72-.835c.544-.465 1.07-.95 1.583-1.45l.77.79c-.527.516-1.074 1.016-1.633 1.496zM13.23 60.974c-.586-.453-1.152-.922-1.707-1.414l.73-.83c.536.474 1.087.93 1.653 1.368l-.676.875zm39.434 1.558l-.602-.92c.598-.392 1.184-.802 1.754-1.23l.664.882c-.593.44-1.2.867-1.816 1.27zm-35.762.92c-.64-.376-1.265-.767-1.875-1.18l.613-.915c.594.402 1.2.78 1.817 1.14l-.555.954zm31.91 1.26l-.477-.99c.645-.313 1.277-.642 1.9-.993l.542.954c-.644.363-1.3.707-1.965 1.027zm-27.94.72c-.685-.29-1.356-.594-2.017-.926l.493-.984c.636.32 1.29.617 1.95.895l-.427 1.015zm23.84.937l-.345-1.05c.68-.223 1.352-.47 2.012-.738l.41 1.023c-.688.274-1.38.528-2.08.762zm-19.65.505c-.714-.195-1.422-.414-2.117-.652l.36-1.043c.67.235 1.355.446 2.046.633l-.285 1.063zm15.36.598l-.207-1.082c.707-.135 1.402-.287 2.09-.467l.277 1.066c-.71.184-1.43.35-2.16.485zm-11.024.285c-.734-.103-1.465-.224-2.183-.37l.222-1.08c.696.14 1.4.262 2.11.36l-.15 1.09zm6.633.257l-.062-1.102c.72-.043 1.43-.105 2.137-.19l.133 1.093c-.73.09-1.465.15-2.204.2zm-2.21.054c-.743-.004-1.48-.035-2.21-.086l.076-1.102c.707.05 1.422.078 2.14.082l-.007 1.106zM5.483 17.602l-.953-.55c.19-.325.38-.646.578-.962l.938.583c-.188.308-.375.617-.56.93z"/><path d="M15.648 4.852c.74-.73 1.84.382 1.078 1.128l-3.09 3.06 1.676 6.9-1.14 1.13-2.84-5.71-2.313 2.285.2 1.77-.903.894-1.044-2.016-2-1.063.906-.893 1.753.214 2.313-2.29-5.676-2.9 1.145-1.13 6.824 1.696 3.105-3.074z"/></g></svg>