<svg version="1" xmlns="http://www.w3.org/2000/svg" width="67.502" height="54.645" viewBox="0 0 67.502 54.645"><path fill="#5C5E62" d="M66.92.643L66.854.58c-.867-.866-2.395-.75-3.406.266L46.24 18.048 34.876 6.686 2.816 38.748 1.342 37.27 33.4 5.214c-1.773-1.762-4.636-1.758-6.406.01L1.33 30.886c-1.773 1.773-1.773 4.645 0 6.418l10.23 10.23c.305-.684.74-1.328 1.3-1.887 2.466-2.465 6.458-2.465 8.92 0 .58.582 1.023 1.25 1.33 1.96l26.345-26.343-.004-.004L66.66 4.05c1.012-1.014 1.133-2.543.262-3.41zM14.11 46.896c-1.773 1.77-1.773 4.645 0 6.418 1.774 1.773 4.645 1.773 6.418 0 1.77-1.773 1.77-4.645 0-6.418-1.773-1.773-4.648-1.773-6.418 0z"/></svg>