<svg xmlns="http://www.w3.org/2000/svg" width="430" height="558" viewBox="0 0 430 558">
  <g id="_430_558" data-name="430*558" transform="translate(-1667 -130)">
    <rect id="Rectangle_3821" data-name="Rectangle 3821" width="430" height="558" transform="translate(1667 130)" fill="#eaedef"/>
    <g id="Placeholder_icon" data-name="Placeholder icon" transform="translate(13617 -12607)">
      <rect id="Rectangle_3548" data-name="Rectangle 3548" width="77" height="68.266" transform="translate(-11774 12983)" fill="#fff"/>
      <g id="_001-insert-picture-icon" data-name="001-insert-picture-icon" transform="translate(-11778 12976)">
        <path id="Path_21712" data-name="Path 21712" d="M76.278,9.35H9.727A9.715,9.715,0,0,0,0,19.039v60.9a9.71,9.71,0,0,0,9.727,9.679H76.278A9.706,9.706,0,0,0,86,79.937v-60.9A9.711,9.711,0,0,0,76.278,9.35ZM55.613,23.76a9.354,9.354,0,1,1-9.395,9.354,9.354,9.354,0,0,1,9.395-9.354Zm17.614,56.9H14.118c-2.595,0-3.75-1.869-2.58-4.177L27.66,44.693c1.168-2.306,3.395-2.512,4.972-.46L48.845,65.327A3.986,3.986,0,0,0,55,65.715l3.966-4a3.785,3.785,0,0,1,6,.5l10.27,14.606C76.718,78.947,75.822,80.663,73.228,80.663Z" transform="translate(0 -9.35)" fill="#c2cbd2"/>
      </g>
    </g>
  </g>
</svg>
