<?xml version="1.0" standalone="no"?>
<!DOCTYPE svg PUBLIC "-//W3C//DTD SVG 1.1//EN" "http://www.w3.org/Graphics/SVG/1.1/DTD/svg11.dtd" >
<svg>
<metadata>
Created by FontForge 20090622 at Tue Apr 12 12:19:38 2016
 By deploy user
Copyright 2013 Monotype Imaging Inc. All rights reserved.
</metadata>
<defs>
<font id="TMSans-Bold" horiz-adv-x="408" >
  <font-face 
    font-family="TM Sans"
    font-weight="700"
    font-stretch="normal"
    units-per-em="1000"
    panose-1="2 11 8 2 3 4 2 2 2 4"
    ascent="730"
    descent="-270"
    x-height="495"
    cap-height="682"
    bbox="-190 -260 1288 1011"
    underline-thickness="50"
    underline-position="-50"
    unicode-range="U+0020-U+FB04"
  />
<missing-glyph horiz-adv-x="500" 
d="M12 0v665h475v-665h-475zM88 618l162 -243l161 243h-323zM60 575v-484q0 -1 11.5 16l30.5 46.5l38 58.5l81 121zM440 575l-162 -242l162 -243v485zM411 48l-161 242l-162 -242h323z" />
    <glyph glyph-name="IJ" unicode="IJ" horiz-adv-x="702" 
d="M481 217v465h161v-465q0 -126 -58.5 -182.5t-172.5 -56.5q-65 0 -111 24l35 126q28 -15 62 -15q46 0 65 22.5t19 81.5zM66 0v682h160v-682h-160z" />
    <glyph glyph-name="ij" unicode="ij" horiz-adv-x="552" 
d="M63 0v495h151v-495h-151zM60 585v125h157v-125h-157zM489 495v-516q0 -117 -55 -173.5t-156 -56.5q-59 0 -100 19l35 123q18 -10 49 -10q39 0 58 22t19 77v515h150zM337 585v125h155v-125h-155z" />
    <glyph glyph-name="napostrophe" unicode="&#x27;n" horiz-adv-x="737" 
d="M193 0v495h149v-62h4q45 78 145 78q89 0 139 -58.5t50 -169.5v-283h-151v274q0 51 -23 78t-64 27q-44 0 -70.5 -30t-26.5 -88v-261h-152zM-21 589v155h168v-74q0 -114 -60 -210h-82q37 62 43 129h-69z" />
    <glyph glyph-name="f_f" unicode="ff" horiz-adv-x="668" 
d="M234 368v-368h-150v368h-71v127h71v45q0 189 196 189q54 0 92 -18l-34 -116q-21 8 -39 8q-65 0 -65 -69v-39h176v45q0 189 196 189q54 0 92 -18l-34 -116q-21 8 -39 8q-65 0 -65 -69v-39h106v-127h-106v-368h-150v368h-176z" />
    <glyph glyph-name="fi" unicode="fi" horiz-adv-x="619" 
d="M13 368v127h71v45q0 189 196 189q54 0 92 -18l-34 -116q-21 8 -39 8q-65 0 -65 -69v-39h106v-127h-106v-368h-150v368h-71zM405 0v495h151v-495h-151zM402 585v125h157v-125h-157z" />
    <glyph glyph-name="fl" unicode="fl" horiz-adv-x="619" 
d="M13 368v127h71v45q0 189 196 189q54 0 92 -18l-34 -116q-21 8 -39 8q-65 0 -65 -69v-39h106v-127h-106v-368h-150v368h-71zM405 0v721h151v-721h-151z" />
    <glyph glyph-name="f_f_i" unicode="ffi" horiz-adv-x="945" 
d="M234 368v-368h-150v368h-71v127h71v45q0 189 196 189q54 0 92 -18l-34 -116q-21 8 -39 8q-65 0 -65 -69v-39h176v45q0 189 196 189q54 0 92 -18l-34 -116q-21 8 -39 8q-65 0 -65 -69v-39h106v-127h-106v-368h-150v368h-176zM731 0v495h151v-495h-151zM728 585v125h157
v-125h-157z" />
    <glyph glyph-name="f_f_l" unicode="ffl" horiz-adv-x="945" 
d="M234 368v-368h-150v368h-71v127h71v45q0 189 196 189q54 0 92 -18l-34 -116q-21 8 -39 8q-65 0 -65 -69v-39h176v45q0 189 196 189q54 0 92 -18l-34 -116q-21 8 -39 8q-65 0 -65 -69v-39h106v-127h-106v-368h-150v368h-176zM731 0v721h151v-721h-151z" />
    <glyph glyph-name=".notdef" horiz-adv-x="500" 
d="M12 0v665h475v-665h-475zM88 618l162 -243l161 243h-323zM60 575v-484q0 -1 11.5 16l30.5 46.5l38 58.5l81 121zM440 575l-162 -242l162 -243v485zM411 48l-161 242l-162 -242h323z" />
    <glyph glyph-name=".null" horiz-adv-x="0" 
 />
    <glyph glyph-name="nonmarkingreturn" horiz-adv-x="333" 
 />
    <glyph glyph-name="space" unicode=" " horiz-adv-x="250" 
 />
    <glyph glyph-name="exclam" unicode="!" horiz-adv-x="289" 
d="M66 0v140h157v-140h-157zM62 682h165l-16 -464h-133z" />
    <glyph glyph-name="quotedbl" unicode="&#x22;" horiz-adv-x="463" 
d="M52 721h135l-10 -249h-116zM276 721h135l-10 -249h-116z" />
    <glyph glyph-name="numbersign" unicode="#" horiz-adv-x="618" 
d="M503 492h104l-21 -92h-103l-25 -122h104l-19 -92h-105l-41 -186h-107l40 186h-110l-41 -186h-108l42 186h-102l20 92h100l27 122h-104l20 92h104l41 190h108l-41 -190h110l41 190h107zM376 400h-111l-27 -122h112z" />
    <glyph glyph-name="dollar" unicode="$" horiz-adv-x="576" 
d="M483 578l-109 -85q-32 57 -88 57q-28 0 -47.5 -16.5t-19.5 -41.5t24.5 -42t86.5 -39q97 -36 139.5 -84.5t42.5 -115.5q0 -65 -46.5 -119t-125.5 -69v-93h-117v92q-115 19 -156 111l123 65q26 -64 97 -64q35 0 55.5 18.5t20.5 48.5q0 34 -25.5 55t-90.5 43q-95 33 -136 81
t-41 113q0 63 43 107.5t110 56.5v82h117v-79q95 -15 143 -82z" />
    <glyph glyph-name="percent" unicode="%" horiz-adv-x="835" 
d="M34 511q0 92 52.5 142t119.5 50q65 0 115.5 -47t50.5 -143q0 -54 -16.5 -94.5t-43.5 -61.5t-54.5 -31t-54.5 -10q-66 0 -117.5 48t-51.5 147zM266 510q0 50 -16.5 76.5t-46.5 26.5q-28 0 -45.5 -25.5t-17.5 -76.5q0 -105 64 -105q26 0 44 26.5t18 77.5zM464 174
q0 92 52.5 142t119.5 50q65 0 115.5 -47t50.5 -143q0 -54 -16.5 -94.5t-43.5 -61.5t-54.5 -31t-54.5 -10q-67 0 -118 48t-51 147zM696 173q0 49 -16.5 76t-46.5 27q-28 0 -45.5 -25.5t-17.5 -76.5q0 -105 64 -105q26 0 44 26.5t18 77.5zM603 682h102l-472 -682h-102z" />
    <glyph glyph-name="ampersand" unicode="&#x26;" horiz-adv-x="652" 
d="M468 337v9h135v-8q0 -119 -67 -200q34 -34 66 -34q19 0 28 4l18 -114q-29 -11 -70 -11q-43 0 -73 15t-60 48q-85 -64 -188 -64q-112 0 -168.5 54.5t-56.5 138.5q0 67 33.5 114.5t105.5 86.5q-60 87 -60 161q0 67 50.5 116t150.5 49q85 0 139.5 -43.5t54.5 -114.5
q0 -61 -36 -107.5t-113 -87.5l89 -112q22 42 22 100zM263 96q52 0 95 37l-120 152q-63 -46 -63 -104q0 -36 24 -60.5t64 -24.5zM291 437q43 23 63 45t20 53q0 24 -16.5 40t-46.5 16q-28 0 -42.5 -16.5t-14.5 -38.5q0 -50 37 -99z" />
    <glyph glyph-name="quotesingle" unicode="'" horiz-adv-x="239" 
d="M52 721h135l-10 -249h-116z" />
    <glyph glyph-name="parenleft" unicode="(" horiz-adv-x="372" 
d="M355 -215h-143q-74 97 -112 225t-38 253q0 126 38 253.5t112 226.5h143q-146 -193 -146 -480q0 -129 35.5 -255t110.5 -223z" />
    <glyph glyph-name="parenright" unicode=")" horiz-adv-x="372" 
d="M160 -215h-143q75 97 110.5 223t35.5 255q0 287 -146 480h143q74 -101 112 -227.5t38 -252.5q0 -124 -38.5 -251.5t-111.5 -226.5z" />
    <glyph glyph-name="asterisk" unicode="*" horiz-adv-x="452" 
d="M18 526l30 100l131 -49l-7 144h106l-8 -144l131 49l33 -97l-135 -36l90 -113l-90 -59l-74 118l-75 -118l-91 59l90 113z" />
    <glyph glyph-name="plus" unicode="+" horiz-adv-x="672" 
d="M595 209h-204v-209h-111v209h-203v111h203v210h111v-210h204v-111z" />
    <glyph glyph-name="comma" unicode="," horiz-adv-x="289" 
d="M56 0v164h177v-68q0 -120 -70 -231h-85q43 76 52 135h-74z" />
    <glyph glyph-name="hyphen" unicode="-" horiz-adv-x="463" 
d="M396 208h-322v112h322v-112z" />
    <glyph glyph-name="period" unicode="." horiz-adv-x="289" 
d="M56 0v164h177v-164h-177z" />
    <glyph glyph-name="slash" unicode="/" horiz-adv-x="431" 
d="M291 720h128l-316 -834h-127z" />
    <glyph glyph-name="zero" unicode="0" horiz-adv-x="576" 
d="M30 344q0 94 23.5 166.5t62.5 113t84.5 60.5t94.5 20q36 0 70.5 -10.5t68 -37t58 -66t40 -102t15.5 -141.5q0 -86 -17.5 -153.5t-44.5 -107t-63 -65.5t-68 -35t-65 -9q-47 0 -90 18t-82.5 57.5t-63 114.5t-23.5 177zM390 344q0 112 -27.5 169t-73.5 57q-43 0 -72.5 -55
t-29.5 -168q0 -121 28.5 -178.5t75.5 -57.5q41 0 70 57t29 176z" />
    <glyph glyph-name="one" unicode="1" horiz-adv-x="576" 
d="M222 0v547h-103v135h256v-682h-153z" />
    <glyph glyph-name="two" unicode="2" horiz-adv-x="576" 
d="M65 0v112l200 225q53 61 74.5 95t21.5 70q0 30 -19.5 49t-51.5 19t-53 -20.5t-40 -69.5l-139 51q34 89 90.5 131t145.5 42q103 0 164 -55t61 -142q0 -63 -34.5 -121.5t-118.5 -145.5l-101 -105h265v-135h-465z" />
    <glyph glyph-name="three" unicode="3" horiz-adv-x="576" 
d="M203 501l-142 51q52 152 225 152q107 0 167 -50.5t60 -130.5q0 -54 -31.5 -94t-74.5 -53v-3q61 -17 94.5 -62.5t33.5 -111.5q0 -92 -66 -156t-185 -64q-98 0 -155.5 41t-85.5 122l140 55q15 -50 38.5 -71.5t62.5 -21.5q44 0 69.5 28t25.5 76q0 45 -30.5 70t-85.5 25h-42
v120h48q42 0 65 22.5t23 61.5q0 30 -19 50.5t-55 20.5q-31 0 -50 -18t-30 -59z" />
    <glyph glyph-name="four" unicode="4" horiz-adv-x="576" 
d="M549 116h-88v-116h-148v116h-288v122l286 444h150v-439h88v-127zM259 399l-102 -156h156v192q0 37 1 58h-3q-22 -50 -52 -94z" />
    <glyph glyph-name="five" unicode="5" horiz-adv-x="576" 
d="M257 547l-18 -110q23 7 44 7q110 0 175.5 -62.5t65.5 -167.5q0 -97 -68.5 -166.5t-179.5 -69.5q-92 0 -150 41.5t-78 110.5l144 51q18 -66 85 -66q36 0 60.5 25.5t24.5 67.5q0 49 -23 76t-66 27q-50 0 -71 -37h-147l66 408h356v-135h-220z" />
    <glyph glyph-name="six" unicode="6" horiz-adv-x="576" 
d="M26 228q0 65 27.5 125t79.5 132l136 197h170l-145 -209q6 2 35 2q96 -5 159 -73.5t63 -173.5q0 -106 -74 -178t-191 -72t-188.5 69.5t-71.5 180.5zM182 227q0 -52 30.5 -83.5t74.5 -31.5q46 0 76.5 31.5t30.5 83.5q0 51 -30 84t-77 33q-46 0 -75.5 -32t-29.5 -85z" />
    <glyph glyph-name="seven" unicode="7" horiz-adv-x="576" 
d="M515 682v-126l-248 -556h-170l259 547h-296v135h455z" />
    <glyph glyph-name="eight" unicode="8" horiz-adv-x="576" 
d="M207 498q0 -38 24 -62t56 -24q36 0 58.5 24.5t22.5 61.5q0 38 -22.5 60t-58.5 22q-33 0 -56.5 -22.5t-23.5 -59.5zM194 202q0 -43 27 -71t70 -28q42 0 68.5 27t26.5 72t-26.5 73t-68.5 28t-69.5 -28t-27.5 -73zM540 193q0 -88 -65.5 -151.5t-185.5 -63.5
q-121 0 -187 60.5t-66 149.5q0 129 118 179v2q-98 44 -98 143q0 82 63 137t170 55q104 0 167 -53.5t63 -128.5q0 -57 -27 -97t-72 -56v-2q120 -43 120 -174z" />
    <glyph glyph-name="nine" unicode="9" horiz-adv-x="576" 
d="M551 454q0 -62 -25.5 -119.5t-73.5 -126.5l-145 -208h-170l146 209q-7 -2 -36 -2q-99 4 -160 72.5t-61 174.5t74 178t190 72q118 0 189.5 -69.5t71.5 -180.5zM394 455q0 52 -30.5 83.5t-74.5 31.5q-46 0 -76.5 -31.5t-30.5 -83.5q0 -51 30 -84t77 -33q46 0 75.5 32
t29.5 85z" />
    <glyph glyph-name="colon" unicode=":" horiz-adv-x="305" 
d="M64 311v165h177v-165h-177zM64 0v164h177v-164h-177z" />
    <glyph glyph-name="semicolon" unicode=";" horiz-adv-x="305" 
d="M64 0v164h177v-68q0 -120 -70 -231h-85q43 76 52 135h-74zM64 311v165h177v-165h-177z" />
    <glyph glyph-name="less" unicode="&#x3c;" horiz-adv-x="672" 
d="M584 -8l-496 225v96l496 225v-124l-341 -148v-2l341 -147v-125z" />
    <glyph glyph-name="equal" unicode="=" horiz-adv-x="672" 
d="M595 321h-518v111h518v-111zM595 98h-518v111h518v-111z" />
    <glyph glyph-name="greater" unicode="&#x3e;" horiz-adv-x="672" 
d="M584 217l-496 -225v125l341 147v2l-341 147v125l496 -225v-96z" />
    <glyph glyph-name="question" unicode="?" horiz-adv-x="476" 
d="M343 328q-44 -40 -44 -110h-133q0 60 12.5 96.5t47.5 73.5q40 42 52.5 65.5t12.5 56.5q0 25 -17.5 42.5t-42.5 17.5q-30 0 -48 -20.5t-18 -59.5h-146q2 100 58.5 157t157.5 57q96 0 155 -53t59 -135q0 -53 -24 -96t-82 -92zM154 0v140h157v-140h-157z" />
    <glyph glyph-name="at" unicode="@" horiz-adv-x="931" 
d="M885 356q0 -116 -59 -191t-145 -75q-121 0 -133 96h-3q-24 -48 -63 -72t-82 -24q-75 0 -114 50.5t-39 127.5q0 63 23.5 120t71.5 95.5t111 38.5q67 0 99 -62h4l9 54h116l-34 -229q-6 -39 -6 -56q0 -51 50 -51q42 0 67 48t25 125q0 265 -308 265q-153 0 -240 -96t-87 -232
q0 -131 87 -211t234 -80q127 0 202 36l32 -72q-83 -52 -242 -52q-184 0 -299.5 103.5t-115.5 276.5q0 177 121.5 296t312.5 119q190 0 297.5 -97t107.5 -251zM537 350q0 37 -16 58.5t-47 21.5q-44 0 -74 -46t-30 -109q0 -45 15.5 -68.5t42.5 -23.5q52 0 80.5 48.5
t28.5 118.5z" />
    <glyph glyph-name="A" unicode="A" horiz-adv-x="672" 
d="M503 0l-49 148h-239l-49 -148h-159l262 682h150l246 -682h-162zM304 411l-52 -153h165l-51 154q-15 41 -28 94h-5q-14 -51 -29 -95z" />
    <glyph glyph-name="B" unicode="B" horiz-adv-x="571" 
d="M67 0v682h201q110 0 175 -43.5t65 -128.5q0 -54 -35.5 -92.5t-89.5 -49.5v-2q74 -12 115 -59.5t41 -108.5q0 -92 -68 -145t-174 -53h-230zM378 212q0 40 -28 65t-76 25h-58v-184h60q49 0 75.5 24t26.5 70zM351 495q0 34 -24 53t-68 19h-43v-152h48q87 0 87 80z" />
    <glyph glyph-name="C" unicode="C" horiz-adv-x="682" 
d="M539 213l129 -93q-102 -140 -282 -140q-158 0 -256 103t-98 260q0 156 100 257.5t254 101.5q183 0 281 -138l-129 -91q-22 38 -61.5 61.5t-90.5 23.5q-88 0 -140 -60.5t-52 -155.5q0 -92 52.5 -155t140.5 -63q95 0 152 89z" />
    <glyph glyph-name="D" unicode="D" horiz-adv-x="711" 
d="M67 682h237q177 0 276.5 -97t99.5 -244q0 -144 -102 -242.5t-276 -98.5h-235v682zM227 140h68q110 0 166 56.5t56 144.5q0 92 -56.5 146.5t-164.5 54.5h-69v-402z" />
    <glyph glyph-name="E" unicode="E" horiz-adv-x="549" 
d="M483 682v-138h-257v-127h248v-130h-248v-149h267v-138h-427v682h417z" />
    <glyph glyph-name="F" unicode="F" horiz-adv-x="523" 
d="M484 682v-138h-257v-146h247v-129h-247v-269h-161v682h418z" />
    <glyph glyph-name="G" unicode="G" horiz-adv-x="769" 
d="M390 563q-86 0 -141 -61t-55 -163q0 -104 56 -163.5t149 -59.5q66 0 112.5 40t55.5 99h-211v130h381v-40q0 -65 -20 -127t-60.5 -116.5t-110.5 -88t-159 -33.5q-155 0 -255 102t-100 254q0 160 102 263t257 103q197 0 296 -144l-129 -88q-58 93 -168 93z" />
    <glyph glyph-name="H" unicode="H" horiz-adv-x="698" 
d="M471 0v283h-244v-283h-160v682h160v-261h244v261h160v-682h-160z" />
    <glyph glyph-name="I" unicode="I" horiz-adv-x="292" 
d="M66 0v682h160v-682h-160z" />
    <glyph glyph-name="J" unicode="J" horiz-adv-x="398" 
d="M176 217v465h161v-465q0 -126 -58.5 -182.5t-172.5 -56.5q-65 0 -111 24l35 126q28 -15 62 -15q46 0 65 22.5t19 81.5z" />
    <glyph glyph-name="K" unicode="K" horiz-adv-x="679" 
d="M227 682v-257l243 257h198l-293 -304l326 -378h-201l-273 324v-324h-160v682h160z" />
    <glyph glyph-name="L" unicode="L" horiz-adv-x="499" 
d="M66 0v682h160v-544h267v-138h-427z" />
    <glyph glyph-name="M" unicode="M" horiz-adv-x="825" 
d="M706 682l86 -682h-154l-31 317q-6 46 -13 141h-7l-17.5 -68.5t-19.5 -72.5l-89 -317h-108l-92 320q-22 74 -35 138h-9q-2 -65 -10 -136l-32 -322h-143l81 682h174l87 -289q27 -87 36 -125h3q5 16 17.5 60.5l18.5 64.5l84 289h173z" />
    <glyph glyph-name="N" unicode="N" horiz-adv-x="680" 
d="M202 445h-4q0 -15 2 -63.5t2 -62.5v-319h-136v682h136l181 -283q26 -41 45 -74l32 -57.5l19 -35.5h3q-3 93 -3 117v333h135v-682h-135l-161 250l-57 90t-40.5 70.5t-18.5 34.5z" />
    <glyph glyph-name="O" unicode="O" horiz-adv-x="786" 
d="M194 341q0 -94 57 -156.5t142 -62.5t142 62.5t57 156.5q0 93 -55 156t-143 63q-85 0 -142.5 -62.5t-57.5 -156.5zM32 341q0 149 103.5 256t259.5 107q162 0 261 -107t99 -256q0 -150 -104 -256.5t-257 -106.5q-90 0 -161.5 32.5t-114 86t-64.5 116.5t-22 128z" />
    <glyph glyph-name="P" unicode="P" horiz-adv-x="570" 
d="M390 458q0 42 -26.5 70t-81.5 28h-56v-194h53q111 0 111 96zM66 0v682h224q116 0 188.5 -56.5t72.5 -165.5q0 -106 -67 -165t-198 -59h-60v-236h-160z" />
    <glyph glyph-name="Q" unicode="Q" horiz-adv-x="786" 
d="M32 341q0 149 103.5 256t259.5 107q162 0 261 -107t99 -256q0 -75 -29 -143.5t-80 -116.5l91 -113l-101 -81l-97 121q-68 -30 -145 -30q-90 0 -161.5 32.5t-114 86t-64.5 116.5t-22 128zM457 319l93 -117q42 60 42 139q0 93 -55 156t-143 63q-85 0 -142.5 -62.5
t-57.5 -156.5t57 -156.5t142 -62.5q26 0 50 6l-88 110z" />
    <glyph glyph-name="R" unicode="R" horiz-adv-x="618" 
d="M416 287l209 -287h-187l-180 263h-32v-263h-160v682h217q139 0 202.5 -57.5t63.5 -152.5q0 -70 -37.5 -119t-95.5 -66zM386 464q0 43 -25.5 67.5t-72.5 24.5h-62v-180h65q43 0 69 23.5t26 64.5z" />
    <glyph glyph-name="S" unicode="S" horiz-adv-x="533" 
d="M474 593l-121 -80q-32 62 -88 62q-29 0 -47.5 -18t-18.5 -48q0 -32 26.5 -52t85.5 -40q189 -69 189 -228q0 -83 -60 -147t-175 -64q-178 0 -232 129l138 72q27 -72 96 -72q35 0 56.5 20.5t21.5 52.5q0 37 -25.5 60.5t-90.5 46.5q-184 63 -184 219q0 90 64 144t158 54
q140 0 207 -111z" />
    <glyph glyph-name="T" unicode="T" horiz-adv-x="497" 
d="M168 0v544h-162v138h485v-138h-162v-544h-161z" />
    <glyph glyph-name="U" unicode="U" horiz-adv-x="638" 
d="M319 -22q-120 0 -191.5 70t-71.5 222v412h160v-423q0 -70 26.5 -107.5t76.5 -37.5q104 0 104 145v423h159v-410q0 -152 -70 -223t-193 -71z" />
    <glyph glyph-name="V" unicode="V" horiz-adv-x="635" 
d="M640 682l-253 -682h-143l-247 682h171l110 -338q33 -111 41 -151h4q13 73 41 152l111 337h165z" />
    <glyph glyph-name="W" unicode="W" horiz-adv-x="882" 
d="M541 0l-76 338q-16 75 -20 145h-4q-13 -107 -21 -143l-71 -340h-172l-171 682h157l79 -352q14 -69 23 -127h4q14 76 27 136l73 343h151l81 -350q8 -32 15 -75t9 -54h4q8 59 21 128l72 351h153l-163 -682h-171z" />
    <glyph glyph-name="X" unicode="X" horiz-adv-x="630" 
d="M182 682l88 -137q20 -30 48 -81h3q27 52 48 83l84 135h169l-224 -326l234 -356h-176l-90 145q-10 16 -54 94h-2l-56 -96l-87 -143h-169l232 351l-224 331h176z" />
    <glyph glyph-name="Y" unicode="Y" horiz-adv-x="622" 
d="M232 0v270l-226 412h172l100 -190q19 -36 37 -87h2q16 46 36 86l94 191h169l-224 -411v-271h-160z" />
    <glyph glyph-name="Z" unicode="Z" horiz-adv-x="624" 
d="M54 544v138h517v-130l-332 -414h348v-138h-550v129l332 415h-315z" />
    <glyph glyph-name="bracketleft" unicode="[" horiz-adv-x="379" 
d="M324 728v-118h-105v-692h105v-118h-240v928h240z" />
    <glyph glyph-name="backslash" unicode="\" horiz-adv-x="440" 
d="M459 -114h-127l-322 834h128z" />
    <glyph glyph-name="bracketright" unicode="]" horiz-adv-x="379" 
d="M54 610v118h241v-928h-241v118h106v692h-106z" />
    <glyph glyph-name="asciicircum" unicode="^" horiz-adv-x="664" 
d="M616 326h-129l-154 260h-3l-153 -260h-129l227 378h113z" />
    <glyph glyph-name="underscore" unicode="_" horiz-adv-x="550" 
d="M0 -238v103h550v-103h-550z" />
    <glyph glyph-name="grave" unicode="`" horiz-adv-x="320" 
d="M23 673l68 95l167 -134l-58 -80z" />
    <glyph glyph-name="a" unicode="a" horiz-adv-x="619" 
d="M556 495v-495h-143v65h-4q-57 -82 -160 -82q-36 0 -72.5 15t-70.5 45t-55.5 83.5t-21.5 121.5q0 116 68.5 188.5t162.5 72.5q100 0 149 -78h4v64h143zM183 247q0 -56 30 -94.5t87 -38.5q47 0 80 37.5t33 94.5q0 61 -32 98t-81 37q-56 0 -86.5 -40t-30.5 -94z" />
    <glyph glyph-name="b" unicode="b" horiz-adv-x="619" 
d="M63 0v721h145v-285h2q61 73 159 73q36 0 73 -15.5t71 -45.5t55.5 -83t21.5 -121q0 -117 -69 -189t-163 -72q-96 0 -145 75h-3v-58h-147zM437 245q0 56 -30.5 94.5t-87.5 38.5q-48 0 -81 -37t-33 -96t33 -96.5t81 -37.5q56 0 87 40t31 94z" />
    <glyph glyph-name="c" unicode="c" horiz-adv-x="512" 
d="M399 175l105 -89q-77 -104 -210 -104q-112 0 -188.5 73.5t-76.5 193.5q0 112 72.5 187.5t192.5 75.5q133 0 208 -101l-108 -90q-37 61 -100 61q-53 0 -82 -37t-29 -97q0 -59 30.5 -97t84.5 -38q62 0 101 62z" />
    <glyph glyph-name="d" unicode="d" horiz-adv-x="619" 
d="M556 721v-721h-144v56h-3q-60 -74 -160 -74q-35 0 -71.5 15t-70.5 45t-56 84t-22 122q0 117 69 190.5t164 73.5q96 0 145 -74h2v283h147zM183 247q0 -56 30 -95t87 -39q47 0 80 38t33 95q0 61 -32 99.5t-81 38.5q-56 0 -86.5 -41t-30.5 -96z" />
    <glyph glyph-name="e" unicode="e" horiz-adv-x="573" 
d="M294 93q78 0 120 71l105 -68q-73 -114 -226 -114q-113 0 -188.5 74.5t-75.5 194.5q0 111 69 186t188 75q116 0 185 -74.5t69 -186.5q0 -18 -3 -39h-362q0 -49 35 -84t84 -35zM284 410q-45 0 -73.5 -28.5t-34.5 -69.5h216q-4 42 -33.5 70t-74.5 28z" />
    <glyph glyph-name="f" unicode="f" horiz-adv-x="342" 
d="M13 368v127h71v45q0 189 196 189q54 0 92 -18l-34 -116q-21 8 -39 8q-65 0 -65 -69v-39h106v-127h-106v-368h-150v368h-71z" />
    <glyph glyph-name="g" unicode="g" horiz-adv-x="621" 
d="M558 495v-463q0 -146 -67 -217.5t-210 -71.5q-112 0 -188 48l52 116q61 -42 137 -42q135 0 135 150v47h-2q-55 -72 -156 -72q-97 0 -162.5 71t-65.5 189q0 111 68 185.5t170 74.5q98 0 145 -75h3v60h141zM184 251q0 -53 29.5 -91.5t86.5 -38.5q48 0 81.5 36.5t33.5 92.5
q0 58 -32.5 94.5t-81.5 36.5q-55 0 -86 -39t-31 -91z" />
    <glyph glyph-name="h" unicode="h" horiz-adv-x="606" 
d="M63 0v721h151v-288h2q45 78 146 78q88 0 137.5 -58t49.5 -170v-283h-151v274q0 51 -23 78t-64 27q-44 0 -70.5 -30t-26.5 -87v-262h-151z" />
    <glyph glyph-name="i" unicode="i" horiz-adv-x="277" 
d="M63 0v495h151v-495h-151zM60 585v125h157v-125h-157z" />
    <glyph glyph-name="j" unicode="j" horiz-adv-x="276" 
d="M213 495v-516q0 -117 -55 -173.5t-156 -56.5q-59 0 -100 19l35 123q18 -10 49 -10q39 0 58 22t19 77v515h150zM61 585v125h155v-125h-155z" />
    <glyph glyph-name="k" unicode="k" horiz-adv-x="573" 
d="M579 0h-181l-184 243v-243h-151v721h151v-415l173 189h183l-209 -217z" />
    <glyph glyph-name="l" unicode="l" horiz-adv-x="277" 
d="M63 0v721h151v-721h-151z" />
    <glyph glyph-name="m" unicode="m" horiz-adv-x="901" 
d="M63 0v495h149v-62h2q52 78 142 78q52 0 90 -25.5t53 -61.5q20 35 63.5 61t94.5 26q88 0 137.5 -59t49.5 -169v-283h-151v274q0 47 -19.5 76t-57.5 29q-37 0 -62 -29t-25 -86v-264h-151v277q0 45 -21 73.5t-56 28.5q-41 0 -64 -30t-23 -85v-264h-151z" />
    <glyph glyph-name="n" unicode="n" horiz-adv-x="607" 
d="M63 0v495h149v-62h2q45 78 146 78q89 0 139 -58.5t50 -169.5v-283h-151v274q0 51 -23 78t-64 27q-44 0 -70.5 -30t-26.5 -87v-262h-151z" />
    <glyph glyph-name="o" unicode="o" horiz-adv-x="589" 
d="M29 248q0 114 75.5 189t189.5 75q116 0 190.5 -75.5t74.5 -188.5q0 -111 -75.5 -188.5t-189.5 -77.5q-113 0 -189 77t-76 189zM181 247q0 -57 32 -94t81 -37q52 0 83 37t31 94t-30.5 94.5t-83.5 37.5t-83 -37t-30 -95z" />
    <glyph glyph-name="p" unicode="p" horiz-adv-x="619" 
d="M63 -235v730h145v-59h2q55 73 156 73q36 0 73.5 -15.5t72 -45.5t56.5 -83t22 -121q0 -117 -69 -189t-163 -72q-96 0 -145 75h-3v-293h-147zM437 245q0 56 -30.5 94.5t-87.5 38.5q-48 0 -81 -37t-33 -96t33 -96.5t81 -37.5q56 0 87 40t31 94z" />
    <glyph glyph-name="q" unicode="q" horiz-adv-x="619" 
d="M556 495v-730h-144v291h-3q-57 -74 -160 -74q-35 0 -71.5 15t-70.5 45t-56 84t-22 122q0 117 67.5 190.5t162.5 73.5q99 0 148 -74h2v57h147zM183 247q0 -56 30 -95t87 -39q47 0 80 38t33 95q0 61 -32 99.5t-81 38.5q-56 0 -86.5 -41t-30.5 -96z" />
    <glyph glyph-name="r" unicode="r" horiz-adv-x="422" 
d="M415 504l-19 -144q-28 8 -59 8q-123 0 -123 -132v-236h-151v495h146v-81h3q51 96 148 96q30 0 55 -6z" />
    <glyph glyph-name="s" unicode="s" horiz-adv-x="454" 
d="M43 88l112 65q24 -65 77 -65q45 0 45 39q0 26 -20.5 42.5t-75.5 34.5q-69 23 -101.5 59t-32.5 94q0 70 51 112.5t134 42.5q108 0 158 -79l-100 -73q-28 46 -65 46q-41 0 -41 -39q0 -19 18 -34t73 -33q76 -25 109.5 -63.5t33.5 -94.5q0 -71 -52 -115.5t-145 -44.5
q-133 0 -178 106z" />
    <glyph glyph-name="t" unicode="t" horiz-adv-x="361" 
d="M10 368v127h60v159h150v-159h115v-127h-115v-178q0 -40 13.5 -55t46.5 -15q23 0 46 9l26 -118q-56 -18 -113 -18q-89 0 -129 44t-40 135v196h-60z" />
    <glyph glyph-name="u" unicode="u" horiz-adv-x="596" 
d="M533 495v-495h-149v62h-2q-54 -78 -145 -78q-72 0 -125.5 51t-53.5 165v295h151v-274q0 -50 22 -77t59 -27q44 0 68 29.5t24 87.5v261h151z" />
    <glyph glyph-name="v" unicode="v" horiz-adv-x="483" 
d="M491 495l-183 -495h-133l-184 495h157l62 -201q11 -34 33 -135h4q11 68 32 135l65 201h147z" />
    <glyph glyph-name="w" unicode="w" horiz-adv-x="757" 
d="M442 0l-45 204q-17 70 -20 107h-3q-4 -33 -23 -122l-44 -189h-170l-124 495h147l54 -235q3 -12 19 -97h4q11 70 19 103l58 229h134l57 -234q10 -40 15 -98h4q8 62 16 97l57 235h147l-130 -495h-172z" />
    <glyph glyph-name="x" unicode="x" horiz-adv-x="526" 
d="M2 0l179 249l-169 246h166l60 -97q11 -18 25 -53h4q1 3 9.5 22.5t13.5 28.5l54 99h167l-169 -243l175 -252h-173l-59 101q-17 27 -24 54h-4q-12 -30 -27 -55l-60 -100h-168z" />
    <glyph glyph-name="y" unicode="y" horiz-adv-x="490" 
d="M498 495l-268 -730h-142l89 240l-180 490h156l65 -201q22 -65 34 -125h4q6 37 32 125l63 201h147z" />
    <glyph glyph-name="z" unicode="z" horiz-adv-x="504" 
d="M45 371v124h412v-120l-232 -250h245v-125h-437v121l233 250h-221z" />
    <glyph glyph-name="braceleft" unicode="{" horiz-adv-x="384" 
d="M337 743v-116q-42 -1 -60 -19t-18 -56v-159q0 -46 -23 -81t-64 -48v-2q40 -11 63.5 -44.5t23.5 -85.5v-157q0 -38 18 -56t60 -18v-116q-214 0 -214 173v163q0 35 -21.5 59.5t-61.5 25.5v114q39 1 61 25t22 59v172q0 166 214 167z" />
    <glyph glyph-name="bar" unicode="|" horiz-adv-x="372" 
d="M241 -210h-110v1000h110v-1000z" />
    <glyph glyph-name="braceright" unicode="}" horiz-adv-x="384" 
d="M47 627v116q214 -1 214 -167v-172q0 -35 22 -59t61 -25v-114q-40 -1 -61.5 -25.5t-21.5 -59.5v-163q0 -173 -214 -173v116q42 0 60 18t18 56v157q0 52 23.5 85.5t63.5 44.5v2q-41 13 -64 48t-23 81v159q0 38 -18 56t-60 19z" />
    <glyph glyph-name="asciitilde" unicode="~" horiz-adv-x="664" 
d="M546 351l90 -56q-37 -66 -82.5 -99t-109.5 -33q-68 0 -126 40q-68 47 -102 47q-30 0 -51.5 -18t-46.5 -61l-90 57q34 68 78.5 100t107.5 32q64 0 126 -41q42 -27 64 -37t44 -10q52 0 98 79z" />
    <glyph glyph-name="uni00A0" unicode="&#xa0;" horiz-adv-x="250" 
 />
    <glyph glyph-name="exclamdown" unicode="&#xa1;" horiz-adv-x="289" 
d="M223 682v-140h-157v140h157zM227 0h-165l16 464h133z" />
    <glyph glyph-name="cent" unicode="&#xa2;" horiz-adv-x="576" 
d="M312 216q59 0 86 63l126 -64q-54 -103 -164 -122v-93h-110v95q-86 18 -141.5 85t-55.5 166q0 93 53 161.5t144 86.5v88h110v-87q106 -20 157 -115l-125 -64q-26 58 -83 58q-51 0 -76.5 -36.5t-25.5 -92.5q0 -57 27.5 -93t77.5 -36z" />
    <glyph glyph-name="sterling" unicode="&#xa3;" horiz-adv-x="576" 
d="M37 298v110h57q-14 54 -14 103q0 80 56.5 137t164.5 57q82 0 138.5 -37.5t82.5 -107.5l-141 -52q-23 71 -80 71q-33 0 -51 -23t-18 -61q0 -39 12 -87h170v-110h-139q8 -42 8 -65q0 -54 -35 -86q21 0 60.5 -16t62.5 -16q21 0 33 12.5t18 44.5l143 -32q-19 -86 -62 -124
t-123 -38q-42 0 -113 25.5t-108 25.5q-50 0 -95 -25l-45 105q64 25 91.5 52t27.5 66q0 33 -10 71h-91z" />
    <glyph glyph-name="currency" unicode="&#xa4;" horiz-adv-x="610" 
d="M556 176l-67 -68l-70 67q-49 -32 -114 -32q-64 0 -115 32l-69 -67l-67 65l70 69q-34 58 -34 112q0 61 34 112l-70 67l67 68l69 -67q52 32 115 32q65 0 114 -32l70 67l67 -68l-70 -67q33 -51 33 -112q0 -57 -33 -112zM424 355q0 49 -35.5 83t-83.5 34q-50 0 -84.5 -34.5
t-34.5 -82.5t35 -83t84 -35t84 35t35 83z" />
    <glyph glyph-name="yen" unicode="&#xa5;" horiz-adv-x="576" 
d="M47 272v104h123l-161 306h160l86 -173q23 -45 37 -86h2q10 32 36 85l81 174h157l-161 -306h123v-104h-166v-63h166v-105h-166v-104h-151v104h-166v105h166v63h-166z" />
    <glyph glyph-name="brokenbar" unicode="&#xa6;" horiz-adv-x="372" 
d="M241 390h-110v300h110v-300zM241 -110h-110v300h110v-300z" />
    <glyph glyph-name="section" unicode="&#xa7;" horiz-adv-x="449" 
d="M405 331q0 -79 -68 -115q59 -48 59 -120q0 -65 -44 -107t-130 -42q-135 0 -171 111l110 42q19 -59 64 -59q26 0 41 15t15 38q0 17 -7.5 31t-26 25.5t-28.5 16.5t-34 15q-62 28 -96 63t-34 91q0 80 68 113q-59 45 -59 116q0 60 44.5 99.5t122.5 39.5q123 0 159 -110
l-105 -34q-16 49 -57 49q-22 0 -35.5 -13t-13.5 -32q0 -27 21.5 -43t81.5 -41q59 -24 91 -59t32 -90zM295 322q0 25 -21.5 41t-66.5 32q-18 -5 -30 -18t-12 -31q0 -25 20.5 -41.5t68.5 -34.5q41 16 41 52z" />
    <glyph glyph-name="dieresis" unicode="&#xa8;" horiz-adv-x="320" 
d="M6 590v118h121v-118h-121zM193 590v118h121v-118h-121z" />
    <glyph glyph-name="copyright" unicode="&#xa9;" horiz-adv-x="818" 
d="M408 560q122 0 173 -107l-94 -44q-19 55 -82 55q-48 0 -75 -33.5t-27 -84.5q0 -52 28.5 -85t76.5 -33q29 0 51 17t31 45l94 -43q-53 -114 -176 -114q-93 0 -150.5 61t-57.5 154q0 91 59.5 151.5t148.5 60.5zM46 341q0 150 106.5 256.5t256.5 106.5q151 0 257 -106.5
t106 -256.5t-106 -256.5t-257 -106.5q-150 0 -256.5 106.5t-106.5 256.5zM115 341q0 -122 86.5 -208t207.5 -86q123 0 208.5 86t85.5 208t-85.5 208t-208.5 86q-120 0 -207 -86.5t-87 -207.5z" />
    <glyph glyph-name="ordfeminine" unicode="&#xaa;" horiz-adv-x="394" 
d="M368 413l14 -83q-22 -11 -52 -11t-51 14.5t-26 40.5q-37 -58 -113 -58q-52 0 -84.5 30.5t-32.5 85.5q0 62 43 96.5t123 34.5q25 0 51 -4v15q0 51 -54 51q-48 0 -67 -36l-74 38q41 77 141 77q74 0 114 -35.5t40 -105.5v-114q0 -38 19 -38q5 0 9 2zM240 476v14q-15 3 -36 3
q-78 0 -78 -56q0 -18 11.5 -28.5t29.5 -10.5q35 0 54 20.5t19 57.5z" />
    <glyph glyph-name="guillemotleft" unicode="&#xab;" horiz-adv-x="527" 
d="M259 256l135 220l91 -49l-88 -171l88 -170l-91 -49zM44 256l136 220l90 -49l-87 -171l87 -170l-90 -49z" />
    <glyph glyph-name="logicalnot" unicode="&#xac;" horiz-adv-x="672" 
d="M595 95h-111v188h-408v111h519v-299z" />
    <glyph glyph-name="uni00AD" unicode="&#xad;" horiz-adv-x="463" 
d="M397 208h-322v112h322v-112z" />
    <glyph glyph-name="registered" unicode="&#xae;" horiz-adv-x="515" 
d="M31 477q0 94 67 160.5t160 66.5t159 -66.5t66 -160.5q0 -93 -66 -159t-159 -66t-160 66t-67 159zM84 477q0 -72 51 -122t123 -50q73 0 123 49.5t50 122.5q0 72 -50.5 123t-122.5 51q-71 0 -122.5 -51.5t-51.5 -122.5zM316 448l62 -87h-78l-53 79h-11v-79h-72v239h108
q48 0 72 -22.5t24 -56.5q0 -26 -14 -45.5t-38 -27.5zM294 518q0 29 -38 29h-20v-57h20q38 0 38 28z" />
    <glyph glyph-name="macron" unicode="&#xaf;" horiz-adv-x="320" 
d="M310 590h-300v97h300v-97z" />
    <glyph glyph-name="degree" unicode="&#xb0;" horiz-adv-x="379" 
d="M49 556q0 58 41 99t100 41q58 0 99 -41t41 -99t-41 -99t-99 -41q-59 0 -100 41t-41 99zM115 556q0 -32 21.5 -53.5t53.5 -21.5q31 0 53 21.5t22 53.5t-22 53.5t-53 21.5q-32 0 -53.5 -21.5t-21.5 -53.5z" />
    <glyph glyph-name="plusminus" unicode="&#xb1;" horiz-adv-x="672" 
d="M595 0h-518v110h518v-110zM595 315h-204v-165h-111v165h-203v111h203v166h111v-166h204v-111z" />
    <glyph glyph-name="twosuperior" unicode="&#xb2;" 
d="M53 425v74l132 141q58 62 58 98q0 18 -11.5 29t-28.5 11q-37 0 -52 -51l-103 30q33 115 160 115q68 0 111 -37t43 -94q0 -40 -21.5 -75t-78.5 -92l-52 -53h158v-96h-315z" />
    <glyph glyph-name="threesuperior" unicode="&#xb3;" 
d="M151 744l-98 41q36 87 148 87q75 0 115 -31t40 -83q0 -35 -20 -60.5t-51 -32.5v-3q41 -10 63 -39.5t22 -70.5q0 -59 -44.5 -100t-126.5 -41q-131 0 -162 106l101 32q14 -49 61 -49q24 0 39 16.5t15 43.5q0 24 -16 39t-48 15h-32v85h33q49 0 49 44q0 17 -10.5 28.5
t-29.5 11.5q-32 0 -48 -39z" />
    <glyph glyph-name="acute" unicode="&#xb4;" horiz-adv-x="320" 
d="M62 634l167 134l68 -95l-177 -119z" />
    <glyph glyph-name="mu" unicode="&#xb5;" horiz-adv-x="616" 
d="M63 -235v730h151v-274q0 -104 77 -104q95 0 95 124v254h152v-318q0 -50 31 -50q6 0 20 2l11 -131q-33 -11 -69 -11q-109 0 -132 79h-3q-40 -82 -120 -82q-43 0 -71 21l-3 -2q12 -44 12 -126v-112h-151z" />
    <glyph glyph-name="paragraph" unicode="&#xb6;" horiz-adv-x="553" 
d="M504 590h-57v-590h-105v590h-64v-590h-105v373q-65 2 -107 46t-42 110q0 71 48 112t113 41h319v-92z" />
    <glyph glyph-name="periodcentered" unicode="&#xb7;" horiz-adv-x="295" 
d="M60 280v165h178v-165h-178z" />
    <glyph glyph-name="cedilla" unicode="&#xb8;" horiz-adv-x="320" 
d="M124 0h78l-16 -39q44 -6 69 -35t25 -66q0 -52 -34.5 -82.5t-103.5 -30.5q-47 0 -114 20l28 80q30 -14 75 -14q47 0 47 28q0 38 -93 38z" />
    <glyph glyph-name="onesuperior" unicode="&#xb9;" 
d="M155 425v338h-69v96h183v-434h-114z" />
    <glyph glyph-name="ordmasculine" unicode="&#xba;" horiz-adv-x="448" 
d="M26 511q0 87 57 140t141 53q86 0 142 -54t56 -139q0 -83 -56.5 -138.5t-141.5 -55.5q-84 0 -141 53t-57 141zM133 510q0 -41 26.5 -68.5t64.5 -27.5q40 0 65.5 26.5t25.5 69.5q0 42 -25.5 69.5t-65.5 27.5q-39 0 -65 -25.5t-26 -71.5z" />
    <glyph glyph-name="guillemotright" unicode="&#xbb;" horiz-adv-x="527" 
d="M267 256l-134 -219l-91 49l88 170l-88 170l91 50zM482 256l-135 -219l-91 49l88 170l-88 170l91 50z" />
    <glyph glyph-name="onequarter" unicode="&#xbc;" horiz-adv-x="956" 
d="M155 250v338h-69v96h183v-434h-114zM669 682h102l-472 -682h-103zM931 63h-62v-63h-110v63h-195v81l194 290h111v-288h62v-83zM720 252l-71 -106h110v121q0 10 2 48h-3q-8 -18 -38 -63z" />
    <glyph glyph-name="onehalf" unicode="&#xbd;" horiz-adv-x="990" 
d="M155 250v338h-69v96h183v-434h-114zM669 682h102l-472 -682h-103zM634 0v74l132 141q58 62 58 98q0 18 -11.5 29t-28.5 11q-37 0 -52 -51l-103 30q33 115 160 115q68 0 111 -37t43 -94q0 -40 -21.5 -75t-78.5 -92l-52 -53h158v-96h-315z" />
    <glyph glyph-name="threequarters" unicode="&#xbe;" horiz-adv-x="978" 
d="M691 682h102l-472 -682h-103zM953 63h-62v-63h-110v63h-195v81l194 290h111v-288h62v-83zM742 252l-71 -106h110v121q0 10 2 48h-3q-8 -18 -38 -63zM151 569l-98 41q36 87 148 87q75 0 115 -31t40 -83q0 -35 -20 -60.5t-51 -32.5v-3q41 -10 63 -39.5t22 -70.5
q0 -59 -44.5 -100t-126.5 -41q-131 0 -162 106l101 32q14 -49 61 -49q24 0 39 16.5t15 43.5q0 24 -16 39t-48 15h-32v85h33q49 0 49 44q0 17 -10.5 28.5t-29.5 11.5q-32 0 -48 -39z" />
    <glyph glyph-name="questiondown" unicode="&#xbf;" horiz-adv-x="476" 
d="M132 354q45 39 45 110h133q0 -59 -9.5 -93t-38.5 -66q-34 -36 -45.5 -49.5t-22 -35t-10.5 -46.5q0 -26 17.5 -44t43.5 -18q29 0 47 21t18 59h147q-2 -100 -58.5 -157t-157.5 -57q-96 0 -155 53t-59 135q0 54 25 98t80 90zM322 682v-140h-157v140h157z" />
    <glyph glyph-name="Agrave" unicode="&#xc0;" horiz-adv-x="672" 
d="M503 0l-49 148h-239l-49 -148h-159l262 682h150l246 -682h-162zM304 411l-52 -153h165l-51 154q-15 41 -28 94h-5q-14 -51 -29 -95zM201 807l46 109l193 -94l-40 -91z" />
    <glyph glyph-name="Aacute" unicode="&#xc1;" horiz-adv-x="672" 
d="M503 0l-49 148h-239l-49 -148h-159l262 682h150l246 -682h-162zM304 411l-52 -153h165l-51 154q-15 41 -28 94h-5q-14 -51 -29 -95zM443 916l46 -109l-199 -76l-40 91z" />
    <glyph glyph-name="Acircumflex" unicode="&#xc2;" horiz-adv-x="672" 
d="M503 0l-49 148h-239l-49 -148h-159l262 682h150l246 -682h-162zM304 411l-52 -153h165l-51 154q-15 41 -28 94h-5q-14 -51 -29 -95zM345 911l173 -104l-38 -77l-135 60l-136 -60l-37 77z" />
    <glyph glyph-name="Atilde" unicode="&#xc3;" horiz-adv-x="672" 
d="M503 0l-49 148h-239l-49 -148h-159l262 682h150l246 -682h-162zM304 411l-52 -153h165l-51 154q-15 41 -28 94h-5q-14 -51 -29 -95zM250 766h-84q3 66 31.5 104.5t79.5 38.5q39 0 75 -27q40 -26 59 -26q28 0 29 43h84q-6 -143 -113 -143q-43 0 -80 27q-37 26 -53 26
q-27 0 -28 -43z" />
    <glyph glyph-name="Adieresis" unicode="&#xc4;" horiz-adv-x="672" 
d="M503 0l-49 148h-239l-49 -148h-159l262 682h150l246 -682h-162zM304 411l-52 -153h165l-51 154q-15 41 -28 94h-5q-14 -51 -29 -95zM189 770v118h121v-118h-121zM376 770v118h121v-118h-121z" />
    <glyph glyph-name="Aring" unicode="&#xc5;" horiz-adv-x="672" 
d="M503 0l-49 148h-239l-49 -148h-159l262 682h150l246 -682h-162zM304 411l-52 -153h165l-51 154q-15 41 -28 94h-5q-14 -51 -29 -95zM292 846q0 -22 15.5 -37.5t37.5 -15.5t37 15.5t15 37.5t-15 37t-37 15t-37.5 -15t-15.5 -37zM213 846q0 55 37.5 93t94.5 38q55 0 93 -38
t38 -93t-38 -93.5t-93 -38.5q-57 0 -94.5 38t-37.5 94z" />
    <glyph glyph-name="AE" unicode="&#xc6;" horiz-adv-x="929" 
d="M863 682v-138h-253v-127h244v-130h-244v-149h263v-138h-419v146h-211l-74 -146h-176l371 682h499zM442 544l-148 -288h160v288h-12z" />
    <glyph glyph-name="Ccedilla" unicode="&#xc7;" horiz-adv-x="682" 
d="M539 213l129 -93q-93 -128 -252 -139l-7 -20q43 -6 68 -35t25 -66q0 -52 -34 -82.5t-103 -30.5q-47 0 -114 20l28 80q30 -14 75 -14q47 0 47 28q0 38 -94 38l32 84q-138 15 -222.5 115t-84.5 245q0 156 100 257.5t254 101.5q183 0 281 -138l-129 -91q-22 38 -61.5 61.5
t-90.5 23.5q-88 0 -140 -60.5t-52 -155.5q0 -92 52.5 -155t140.5 -63q95 0 152 89z" />
    <glyph glyph-name="Egrave" unicode="&#xc8;" horiz-adv-x="549" 
d="M483 682v-138h-257v-127h248v-130h-248v-149h267v-138h-427v682h417zM142 807l46 109l193 -94l-40 -91z" />
    <glyph glyph-name="Eacute" unicode="&#xc9;" horiz-adv-x="549" 
d="M483 682v-138h-257v-127h248v-130h-248v-149h267v-138h-427v682h417zM364 916l46 -109l-199 -76l-40 91z" />
    <glyph glyph-name="Ecircumflex" unicode="&#xca;" horiz-adv-x="549" 
d="M483 682v-138h-257v-127h248v-130h-248v-149h267v-138h-427v682h417zM278 911l173 -104l-38 -77l-135 60l-136 -60l-37 77z" />
    <glyph glyph-name="Edieresis" unicode="&#xcb;" horiz-adv-x="549" 
d="M483 682v-138h-257v-127h248v-130h-248v-149h267v-138h-427v682h417zM119 770v118h121v-118h-121zM306 770v118h121v-118h-121z" />
    <glyph glyph-name="Igrave" unicode="&#xcc;" horiz-adv-x="292" 
d="M66 0v682h160v-682h-160zM4 807l46 109l193 -94l-40 -91z" />
    <glyph glyph-name="Iacute" unicode="&#xcd;" horiz-adv-x="292" 
d="M66 0v682h160v-682h-160zM244 916l46 -109l-199 -76l-40 91z" />
    <glyph glyph-name="Icircumflex" unicode="&#xce;" horiz-adv-x="292" 
d="M66 0v682h160v-682h-160zM147 911l173 -104l-38 -77l-135 60l-136 -60l-37 77z" />
    <glyph glyph-name="Idieresis" unicode="&#xcf;" horiz-adv-x="292" 
d="M66 0v682h160v-682h-160zM-8 770v118h121v-118h-121zM179 770v118h121v-118h-121z" />
    <glyph glyph-name="Eth" unicode="&#xd0;" horiz-adv-x="737" 
d="M15 292v116h78v274h237q177 0 276.5 -97t99.5 -244q0 -144 -102 -242.5t-276 -98.5h-235v292h-78zM253 136h69q109 0 165 58t56 147q0 95 -58.5 150t-171.5 55h-60v-138h135v-116h-135v-156z" />
    <glyph glyph-name="Ntilde" unicode="&#xd1;" horiz-adv-x="680" 
d="M202 445h-4q0 -15 2 -63.5t2 -62.5v-319h-136v682h136l181 -283q26 -41 45 -74l32 -57.5l19 -35.5h3q-3 93 -3 117v333h135v-682h-135l-161 250l-57 90t-40.5 70.5t-18.5 34.5zM241 766h-84q3 66 31.5 104.5t79.5 38.5q39 0 75 -27q40 -26 59 -26q28 0 29 43h84
q-6 -143 -113 -143q-42 0 -80 27q-37 26 -53 26q-27 0 -28 -43z" />
    <glyph glyph-name="Ograve" unicode="&#xd2;" horiz-adv-x="786" 
d="M194 341q0 -94 57 -156.5t142 -62.5t142 62.5t57 156.5q0 93 -55 156t-143 63q-85 0 -142.5 -62.5t-57.5 -156.5zM32 341q0 149 103.5 256t259.5 107q162 0 261 -107t99 -256q0 -150 -104 -256.5t-257 -106.5q-90 0 -161.5 32.5t-114 86t-64.5 116.5t-22 128zM272 807
l46 109l193 -94l-40 -91z" />
    <glyph glyph-name="Oacute" unicode="&#xd3;" horiz-adv-x="786" 
d="M194 341q0 -94 57 -156.5t142 -62.5t142 62.5t57 156.5q0 93 -55 156t-143 63q-85 0 -142.5 -62.5t-57.5 -156.5zM32 341q0 149 103.5 256t259.5 107q162 0 261 -107t99 -256q0 -150 -104 -256.5t-257 -106.5q-90 0 -161.5 32.5t-114 86t-64.5 116.5t-22 128zM482 916
l46 -109l-199 -76l-40 91z" />
    <glyph glyph-name="Ocircumflex" unicode="&#xd4;" horiz-adv-x="786" 
d="M194 341q0 -94 57 -156.5t142 -62.5t142 62.5t57 156.5q0 93 -55 156t-143 63q-85 0 -142.5 -62.5t-57.5 -156.5zM32 341q0 149 103.5 256t259.5 107q162 0 261 -107t99 -256q0 -150 -104 -256.5t-257 -106.5q-90 0 -161.5 32.5t-114 86t-64.5 116.5t-22 128zM400 911
l173 -104l-38 -77l-135 60l-136 -60l-37 77z" />
    <glyph glyph-name="Otilde" unicode="&#xd5;" horiz-adv-x="786" 
d="M194 341q0 -94 57 -156.5t142 -62.5t142 62.5t57 156.5q0 93 -55 156t-143 63q-85 0 -142.5 -62.5t-57.5 -156.5zM32 341q0 149 103.5 256t259.5 107q162 0 261 -107t99 -256q0 -150 -104 -256.5t-257 -106.5q-90 0 -161.5 32.5t-114 86t-64.5 116.5t-22 128zM305 766
h-84q3 66 31.5 104.5t79.5 38.5q39 0 75 -27q40 -26 59 -26q28 0 29 43h84q-6 -143 -113 -143q-42 0 -80 27q-37 26 -53 26q-27 0 -28 -43z" />
    <glyph glyph-name="Odieresis" unicode="&#xd6;" horiz-adv-x="786" 
d="M194 341q0 -94 57 -156.5t142 -62.5t142 62.5t57 156.5q0 93 -55 156t-143 63q-85 0 -142.5 -62.5t-57.5 -156.5zM32 341q0 149 103.5 256t259.5 107q162 0 261 -107t99 -256q0 -150 -104 -256.5t-257 -106.5q-90 0 -161.5 32.5t-114 86t-64.5 116.5t-22 128zM246 770
v118h121v-118h-121zM433 770v118h121v-118h-121z" />
    <glyph glyph-name="multiply" unicode="&#xd7;" horiz-adv-x="672" 
d="M590 87l-79 -78l-175 176l-179 -180l-79 79l179 179l-176 176l79 79l175 -176l179 178l79 -78l-179 -179z" />
    <glyph glyph-name="Oslash" unicode="&#xd8;" horiz-adv-x="786" 
d="M32 341q0 149 103.5 256t259.5 107q115 0 204 -59l90 97l83 -73l-93 -100q76 -101 76 -228q0 -150 -104 -256.5t-257 -106.5q-120 0 -206 57l-91 -98l-82 73l92 100q-75 101 -75 231zM186 341q0 -62 28 -115l287 312q-49 30 -107 30q-88 0 -148 -65t-60 -162zM600 341
q0 61 -27 113l-285 -311q47 -29 105 -29q88 0 147.5 65t59.5 162z" />
    <glyph glyph-name="Ugrave" unicode="&#xd9;" horiz-adv-x="638" 
d="M319 -22q-120 0 -191.5 70t-71.5 222v412h160v-423q0 -70 26.5 -107.5t76.5 -37.5q104 0 104 145v423h159v-410q0 -152 -70 -223t-193 -71zM179 807l46 109l193 -94l-40 -91z" />
    <glyph glyph-name="Uacute" unicode="&#xda;" horiz-adv-x="638" 
d="M319 -22q-120 0 -191.5 70t-71.5 222v412h160v-423q0 -70 26.5 -107.5t76.5 -37.5q104 0 104 145v423h159v-410q0 -152 -70 -223t-193 -71zM411 916l46 -109l-199 -76l-40 91z" />
    <glyph glyph-name="Ucircumflex" unicode="&#xdb;" horiz-adv-x="638" 
d="M319 -22q-120 0 -191.5 70t-71.5 222v412h160v-423q0 -70 26.5 -107.5t76.5 -37.5q104 0 104 145v423h159v-410q0 -152 -70 -223t-193 -71zM319 911l173 -104l-38 -77l-135 60l-136 -60l-37 77z" />
    <glyph glyph-name="Udieresis" unicode="&#xdc;" horiz-adv-x="638" 
d="M319 -22q-120 0 -191.5 70t-71.5 222v412h160v-423q0 -70 26.5 -107.5t76.5 -37.5q104 0 104 145v423h159v-410q0 -152 -70 -223t-193 -71zM165 770v118h121v-118h-121zM352 770v118h121v-118h-121z" />
    <glyph glyph-name="Yacute" unicode="&#xdd;" horiz-adv-x="622" 
d="M232 0v270l-226 412h172l100 -190q19 -36 37 -87h2q16 46 36 86l94 191h169l-224 -411v-271h-160zM411 916l46 -109l-199 -76l-40 91z" />
    <glyph glyph-name="Thorn" unicode="&#xde;" horiz-adv-x="569" 
d="M66 0v682h160v-115h62q111 0 180.5 -54t69.5 -160t-64 -162t-190 -56h-58v-135h-160zM377 351q0 40 -24 64.5t-71 24.5h-56v-179h54q97 0 97 90z" />
    <glyph glyph-name="germandbls" unicode="&#xdf;" horiz-adv-x="662" 
d="M541 547q0 -81 -80 -120q-40 -20 -53.5 -33t-13.5 -30q0 -18 19.5 -32.5t76.5 -33.5q79 -27 111 -64t32 -98q0 -66 -50 -110t-146 -44q-135 0 -184 99l116 62q22 -61 71 -61q24 0 38 12t14 29q0 25 -18.5 41t-75.5 37q-79 28 -110.5 64t-31.5 88q0 45 20.5 76t69.5 54
q27 14 37 26.5t10 32.5q0 27 -20 45.5t-60 18.5q-99 0 -99 -125v-481h-151v485q0 118 68 179t186 61q98 0 161 -49.5t63 -128.5z" />
    <glyph glyph-name="agrave" unicode="&#xe0;" horiz-adv-x="619" 
d="M556 495v-495h-143v65h-4q-57 -82 -160 -82q-36 0 -72.5 15t-70.5 45t-55.5 83.5t-21.5 121.5q0 116 68.5 188.5t162.5 72.5q100 0 149 -78h4v64h143zM183 247q0 -56 30 -94.5t87 -38.5q47 0 80 37.5t33 94.5q0 61 -32 98t-81 37q-56 0 -86.5 -40t-30.5 -94zM162 693
l68 95l167 -134l-58 -80z" />
    <glyph glyph-name="aacute" unicode="&#xe1;" horiz-adv-x="619" 
d="M556 495v-495h-143v65h-4q-57 -82 -160 -82q-36 0 -72.5 15t-70.5 45t-55.5 83.5t-21.5 121.5q0 116 68.5 188.5t162.5 72.5q100 0 149 -78h4v64h143zM183 247q0 -56 30 -94.5t87 -38.5q47 0 80 37.5t33 94.5q0 61 -32 98t-81 37q-56 0 -86.5 -40t-30.5 -94zM169 654
l167 134l68 -95l-177 -119z" />
    <glyph glyph-name="acircumflex" unicode="&#xe2;" horiz-adv-x="619" 
d="M556 495v-495h-143v65h-4q-57 -82 -160 -82q-36 0 -72.5 15t-70.5 45t-55.5 83.5t-21.5 121.5q0 116 68.5 188.5t162.5 72.5q100 0 149 -78h4v64h143zM183 247q0 -56 30 -94.5t87 -38.5q47 0 80 37.5t33 94.5q0 61 -32 98t-81 37q-56 0 -86.5 -40t-30.5 -94zM301 772
l171 -127l-50 -75l-121 76l-121 -76l-50 75z" />
    <glyph glyph-name="atilde" unicode="&#xe3;" horiz-adv-x="619" 
d="M556 495v-495h-143v65h-4q-57 -82 -160 -82q-36 0 -72.5 15t-70.5 45t-55.5 83.5t-21.5 121.5q0 116 68.5 188.5t162.5 72.5q100 0 149 -78h4v64h143zM183 247q0 -56 30 -94.5t87 -38.5q47 0 80 37.5t33 94.5q0 61 -32 98t-81 37q-56 0 -86.5 -40t-30.5 -94zM208 607h-84
q3 66 31.5 104.5t79.5 38.5q39 0 75 -27q40 -26 59 -26q28 0 29 43h84q-6 -143 -113 -143q-43 0 -80 27q-37 26 -53 26q-27 0 -28 -43z" />
    <glyph glyph-name="adieresis" unicode="&#xe4;" horiz-adv-x="619" 
d="M556 495v-495h-143v65h-4q-57 -82 -160 -82q-36 0 -72.5 15t-70.5 45t-55.5 83.5t-21.5 121.5q0 116 68.5 188.5t162.5 72.5q100 0 149 -78h4v64h143zM183 247q0 -56 30 -94.5t87 -38.5q47 0 80 37.5t33 94.5q0 61 -32 98t-81 37q-56 0 -86.5 -40t-30.5 -94zM146 610v118
h121v-118h-121zM333 610v118h121v-118h-121z" />
    <glyph glyph-name="aring" unicode="&#xe5;" horiz-adv-x="619" 
d="M556 495v-495h-143v65h-4q-57 -82 -160 -82q-36 0 -72.5 15t-70.5 45t-55.5 83.5t-21.5 121.5q0 116 68.5 188.5t162.5 72.5q100 0 149 -78h4v64h143zM183 247q0 -56 30 -94.5t87 -38.5q47 0 80 37.5t33 94.5q0 61 -32 98t-81 37q-56 0 -86.5 -40t-30.5 -94zM249 681
q0 -22 15.5 -37.5t37.5 -15.5t37 15.5t15 37.5t-15 37t-37 15t-37.5 -15t-15.5 -37zM170 681q0 55 37.5 93t94.5 38q55 0 93 -38t38 -93t-38 -93.5t-93 -38.5q-57 0 -94.5 38t-37.5 94z" />
    <glyph glyph-name="ae" unicode="&#xe6;" horiz-adv-x="890" 
d="M611 512q117 0 181 -77t64 -184q0 -22 -2 -36h-354q0 -50 32 -86t86 -36q76 0 115 71l105 -68q-70 -114 -221 -114q-138 0 -204 97q-79 -97 -197 -97q-93 0 -140 45t-47 115q0 169 261 169h73v19q0 38 -26 59t-71 21q-36 0 -59 -14t-42 -47l-106 58q61 104 206 104
q129 0 172 -72q63 73 174 73zM608 410q-45 0 -74.5 -29t-32.5 -70h209q-4 42 -30 70.5t-72 28.5zM363 215h-72q-65 0 -92 -18t-27 -52q0 -29 16.5 -44.5t44.5 -15.5q53 0 89 36.5t41 93.5z" />
    <glyph glyph-name="ccedilla" unicode="&#xe7;" horiz-adv-x="512" 
d="M399 175l105 -89q-69 -92 -177 -102l-10 -24q45 -7 70.5 -36.5t25.5 -67.5q0 -54 -34.5 -85t-105.5 -31q-55 0 -117 20l29 81q30 -14 77 -14q48 0 48 29q0 40 -97 40l35 90q-96 15 -157.5 85.5t-61.5 177.5q0 112 72.5 187.5t192.5 75.5q133 0 208 -101l-108 -90
q-37 61 -100 61q-53 0 -82 -37t-29 -97q0 -59 30.5 -97t84.5 -38q62 0 101 62z" />
    <glyph glyph-name="egrave" unicode="&#xe8;" horiz-adv-x="573" 
d="M294 93q78 0 120 71l105 -68q-73 -114 -226 -114q-113 0 -188.5 74.5t-75.5 194.5q0 111 69 186t188 75q116 0 185 -74.5t69 -186.5q0 -18 -3 -39h-362q0 -49 35 -84t84 -35zM284 410q-45 0 -73.5 -28.5t-34.5 -69.5h216q-4 42 -33.5 70t-74.5 28zM146 693l68 95
l167 -134l-58 -80z" />
    <glyph glyph-name="eacute" unicode="&#xe9;" horiz-adv-x="573" 
d="M294 93q78 0 120 71l105 -68q-73 -114 -226 -114q-113 0 -188.5 74.5t-75.5 194.5q0 111 69 186t188 75q116 0 185 -74.5t69 -186.5q0 -18 -3 -39h-362q0 -49 35 -84t84 -35zM284 410q-45 0 -73.5 -28.5t-34.5 -69.5h216q-4 42 -33.5 70t-74.5 28zM187 654l167 134
l68 -95l-177 -119z" />
    <glyph glyph-name="ecircumflex" unicode="&#xea;" horiz-adv-x="573" 
d="M294 93q78 0 120 71l105 -68q-73 -114 -226 -114q-113 0 -188.5 74.5t-75.5 194.5q0 111 69 186t188 75q116 0 185 -74.5t69 -186.5q0 -18 -3 -39h-362q0 -49 35 -84t84 -35zM284 410q-45 0 -73.5 -28.5t-34.5 -69.5h216q-4 42 -33.5 70t-74.5 28zM284 772l171 -127
l-50 -75l-121 76l-121 -76l-50 75z" />
    <glyph glyph-name="edieresis" unicode="&#xeb;" horiz-adv-x="573" 
d="M294 93q78 0 120 71l105 -68q-73 -114 -226 -114q-113 0 -188.5 74.5t-75.5 194.5q0 111 69 186t188 75q116 0 185 -74.5t69 -186.5q0 -18 -3 -39h-362q0 -49 35 -84t84 -35zM284 410q-45 0 -73.5 -28.5t-34.5 -69.5h216q-4 42 -33.5 70t-74.5 28zM130 610v118h121v-118
h-121zM317 610v118h121v-118h-121z" />
    <glyph glyph-name="igrave" unicode="&#xec;" horiz-adv-x="277" 
d="M2 693l68 95l167 -134l-58 -80zM63 0v495h151v-495h-151z" />
    <glyph glyph-name="iacute" unicode="&#xed;" horiz-adv-x="277" 
d="M43 654l167 134l68 -95l-177 -119zM63 0v495h151v-495h-151z" />
    <glyph glyph-name="icircumflex" unicode="&#xee;" horiz-adv-x="277" 
d="M63 0v495h151v-495h-151zM140 772l171 -127l-50 -75l-121 76l-121 -76l-50 75z" />
    <glyph glyph-name="idieresis" unicode="&#xef;" horiz-adv-x="277" 
d="M-13 610v118h121v-118h-121zM174 610v118h121v-118h-121zM63 0v495h151v-495h-151z" />
    <glyph glyph-name="eth" unicode="&#xf0;" horiz-adv-x="589" 
d="M178 507l-48 85l81 47q-22 19 -55 42l74 85q56 -38 92 -74l87 51l48 -86l-60 -35q80 -86 121 -172t41 -198q0 -116 -75 -193t-190 -77q-113 0 -189 74.5t-76 183.5q0 110 77 180.5t192 70.5q28 0 48 -9l1 2q-24 36 -68 80zM180 239q0 -54 32 -88.5t82 -34.5q52 0 83 35
t31 88t-30.5 88.5t-83.5 35.5t-83.5 -35t-30.5 -89z" />
    <glyph glyph-name="ntilde" unicode="&#xf1;" horiz-adv-x="607" 
d="M63 0v495h149v-62h2q45 78 146 78q89 0 139 -58.5t50 -169.5v-283h-151v274q0 51 -23 78t-64 27q-44 0 -70.5 -30t-26.5 -87v-262h-151zM212 607h-84q3 66 31.5 104.5t79.5 38.5q39 0 75 -27q40 -26 59 -26q28 0 29 43h84q-6 -143 -113 -143q-43 0 -80 27q-37 26 -53 26
q-27 0 -28 -43z" />
    <glyph glyph-name="ograve" unicode="&#xf2;" horiz-adv-x="589" 
d="M29 248q0 114 75.5 189t189.5 75q116 0 190.5 -75.5t74.5 -188.5q0 -111 -75.5 -188.5t-189.5 -77.5q-113 0 -189 77t-76 189zM181 247q0 -57 32 -94t81 -37q52 0 83 37t31 94t-30.5 94.5t-83.5 37.5t-83 -37t-30 -95zM168 693l68 95l167 -134l-58 -80z" />
    <glyph glyph-name="oacute" unicode="&#xf3;" horiz-adv-x="589" 
d="M29 248q0 114 75.5 189t189.5 75q116 0 190.5 -75.5t74.5 -188.5q0 -111 -75.5 -188.5t-189.5 -77.5q-113 0 -189 77t-76 189zM181 247q0 -57 32 -94t81 -37q52 0 83 37t31 94t-30.5 94.5t-83.5 37.5t-83 -37t-30 -95zM187 654l167 134l68 -95l-177 -119z" />
    <glyph glyph-name="ocircumflex" unicode="&#xf4;" horiz-adv-x="589" 
d="M29 248q0 114 75.5 189t189.5 75q116 0 190.5 -75.5t74.5 -188.5q0 -111 -75.5 -188.5t-189.5 -77.5q-113 0 -189 77t-76 189zM181 247q0 -57 32 -94t81 -37q52 0 83 37t31 94t-30.5 94.5t-83.5 37.5t-83 -37t-30 -95zM295 772l171 -127l-50 -75l-121 76l-121 -76l-50 75
z" />
    <glyph glyph-name="otilde" unicode="&#xf5;" horiz-adv-x="589" 
d="M29 248q0 114 75.5 189t189.5 75q116 0 190.5 -75.5t74.5 -188.5q0 -111 -75.5 -188.5t-189.5 -77.5q-113 0 -189 77t-76 189zM181 247q0 -57 32 -94t81 -37q52 0 83 37t31 94t-30.5 94.5t-83.5 37.5t-83 -37t-30 -95zM201 607h-84q3 66 31.5 104.5t79.5 38.5
q39 0 75 -27q40 -26 59 -26q28 0 29 43h84q-6 -143 -113 -143q-42 0 -80 27q-37 26 -53 26q-27 0 -28 -43z" />
    <glyph glyph-name="odieresis" unicode="&#xf6;" horiz-adv-x="589" 
d="M29 248q0 114 75.5 189t189.5 75q116 0 190.5 -75.5t74.5 -188.5q0 -111 -75.5 -188.5t-189.5 -77.5q-113 0 -189 77t-76 189zM181 247q0 -57 32 -94t81 -37q52 0 83 37t31 94t-30.5 94.5t-83.5 37.5t-83 -37t-30 -95zM141 610v118h121v-118h-121zM328 610v118h121v-118
h-121z" />
    <glyph glyph-name="divide" unicode="&#xf7;" horiz-adv-x="672" 
d="M595 209h-518v110h518v-110zM414 456q0 -35 -23 -56t-54 -21q-32 0 -55 22.5t-23 52.5q0 33 22 56t56 23t55.5 -22t21.5 -55zM414 73q0 -35 -23 -57.5t-54 -22.5q-33 0 -55.5 23.5t-22.5 55.5t22 54.5t56 22.5q33 0 55 -22.5t22 -53.5z" />
    <glyph glyph-name="oslash" unicode="&#xf8;" horiz-adv-x="589" 
d="M29 248q0 114 75.5 189t189.5 75q76 0 137 -35l66 74l71 -64l-63 -74q54 -70 54 -165q0 -111 -75.5 -188.5t-189.5 -77.5q-72 0 -136 36l-64 -73l-74 63l65 74q-56 72 -56 166zM173 247q0 -35 15 -67l166 190q-25 16 -60 16q-57 0 -89 -38.5t-32 -100.5zM416 247
q0 39 -15 67l-166 -189q25 -16 59 -16q56 0 89 38.5t33 99.5z" />
    <glyph glyph-name="ugrave" unicode="&#xf9;" horiz-adv-x="596" 
d="M533 495v-495h-149v62h-2q-54 -78 -145 -78q-72 0 -125.5 51t-53.5 165v295h151v-274q0 -50 22 -77t59 -27q44 0 68 29.5t24 87.5v261h151zM157 693l68 95l167 -134l-58 -80z" />
    <glyph glyph-name="uacute" unicode="&#xfa;" horiz-adv-x="596" 
d="M533 495v-495h-149v62h-2q-54 -78 -145 -78q-72 0 -125.5 51t-53.5 165v295h151v-274q0 -50 22 -77t59 -27q44 0 68 29.5t24 87.5v261h151zM198 654l167 134l68 -95l-177 -119z" />
    <glyph glyph-name="ucircumflex" unicode="&#xfb;" horiz-adv-x="596" 
d="M533 495v-495h-149v62h-2q-54 -78 -145 -78q-72 0 -125.5 51t-53.5 165v295h151v-274q0 -50 22 -77t59 -27q44 0 68 29.5t24 87.5v261h151zM296 772l171 -127l-50 -75l-121 76l-121 -76l-50 75z" />
    <glyph glyph-name="udieresis" unicode="&#xfc;" horiz-adv-x="596" 
d="M533 495v-495h-149v62h-2q-54 -78 -145 -78q-72 0 -125.5 51t-53.5 165v295h151v-274q0 -50 22 -77t59 -27q44 0 68 29.5t24 87.5v261h151zM142 610v118h121v-118h-121zM329 610v118h121v-118h-121z" />
    <glyph glyph-name="yacute" unicode="&#xfd;" horiz-adv-x="490" 
d="M498 495l-268 -730h-142l89 240l-180 490h156l65 -201q22 -65 34 -125h4q6 37 32 125l63 201h147zM158 654l167 134l68 -95l-177 -119z" />
    <glyph glyph-name="thorn" unicode="&#xfe;" horiz-adv-x="619" 
d="M63 -235v956h145v-285h2q55 73 156 73q36 0 73.5 -15.5t72 -45.5t56.5 -83t22 -121q0 -117 -69 -189t-163 -72q-96 0 -145 75h-3v-293h-147zM437 245q0 56 -30.5 94.5t-87.5 38.5q-48 0 -81 -37t-33 -96t33 -96.5t81 -37.5q56 0 87 40t31 94z" />
    <glyph glyph-name="ydieresis" unicode="&#xff;" horiz-adv-x="490" 
d="M498 495l-268 -730h-142l89 240l-180 490h156l65 -201q22 -65 34 -125h4q6 37 32 125l63 201h147zM101 610v118h121v-118h-121zM288 610v118h121v-118h-121z" />
    <glyph glyph-name="Amacron" unicode="&#x100;" horiz-adv-x="672" 
d="M503 0l-49 148h-239l-49 -148h-159l262 682h150l246 -682h-162zM304 411l-52 -153h165l-51 154q-15 41 -28 94h-5q-14 -51 -29 -95zM500 770h-300v97h300v-97z" />
    <glyph glyph-name="amacron" unicode="&#x101;" horiz-adv-x="619" 
d="M556 495v-495h-143v65h-4q-57 -82 -160 -82q-36 0 -72.5 15t-70.5 45t-55.5 83.5t-21.5 121.5q0 116 68.5 188.5t162.5 72.5q100 0 149 -78h4v64h143zM183 247q0 -56 30 -94.5t87 -38.5q47 0 80 37.5t33 94.5q0 61 -32 98t-81 37q-56 0 -86.5 -40t-30.5 -94zM448 611
h-300v97h300v-97z" />
    <glyph glyph-name="Abreve" unicode="&#x102;" horiz-adv-x="672" 
d="M503 0l-49 148h-239l-49 -148h-159l262 682h150l246 -682h-162zM304 411l-52 -153h165l-51 154q-15 41 -28 94h-5q-14 -51 -29 -95zM417 895h96q-3 -69 -51 -108.5t-119 -39.5q-78 0 -122.5 39.5t-47.5 108.5h96q2 -23 22 -37t52 -14q69 0 74 51z" />
    <glyph glyph-name="abreve" unicode="&#x103;" horiz-adv-x="619" 
d="M556 495v-495h-143v65h-4q-57 -82 -160 -82q-36 0 -72.5 15t-70.5 45t-55.5 83.5t-21.5 121.5q0 116 68.5 188.5t162.5 72.5q100 0 149 -78h4v64h143zM183 247q0 -56 30 -94.5t87 -38.5q47 0 80 37.5t33 94.5q0 61 -32 98t-81 37q-56 0 -86.5 -40t-30.5 -94zM366 750h96
q-4 -75 -52 -119t-118 -44q-75 0 -120.5 43t-49.5 120h96q3 -28 22 -45t52 -17t52.5 17.5t21.5 44.5z" />
    <glyph glyph-name="Aogonek" unicode="&#x104;" horiz-adv-x="672" 
d="M304 411l-52 -155h166l-46 136q-26 78 -34 114h-5q-14 -51 -29 -95zM588 -231q-60 0 -91 33t-31 82q0 36 21.5 67t55.5 49h-40l-49 146h-238l-50 -146h-159l262 682h150l246 -682q-35 0 -63 -24t-28 -64q0 -41 47 -41q14 0 26 3l12 -96q-29 -9 -71 -9z" />
    <glyph glyph-name="aogonek" unicode="&#x105;" horiz-adv-x="619" 
d="M556 495v-495h-3q-30 -2 -53.5 -29t-23.5 -63q0 -43 49 -43q15 0 26 3l14 -97q-31 -9 -71 -9q-62 0 -94 33.5t-32 84.5q0 36 22 68.5t57 51.5h-34v65h-4q-57 -82 -160 -82q-36 0 -72.5 15t-70.5 45t-55.5 83.5t-21.5 121.5q0 116 68.5 188.5t162.5 72.5q100 0 149 -78h4
v64h143zM183 247q0 -56 30 -94.5t87 -38.5q47 0 80 37.5t33 94.5q0 61 -32 98t-81 37q-56 0 -86.5 -40t-30.5 -94z" />
    <glyph glyph-name="Cacute" unicode="&#x106;" horiz-adv-x="682" 
d="M539 213l129 -93q-102 -140 -282 -140q-158 0 -256 103t-98 260q0 156 100 257.5t254 101.5q183 0 281 -138l-129 -91q-22 38 -61.5 61.5t-90.5 23.5q-88 0 -140 -60.5t-52 -155.5q0 -92 52.5 -155t140.5 -63q95 0 152 89zM491 916l46 -109l-199 -76l-40 91z" />
    <glyph glyph-name="cacute" unicode="&#x107;" horiz-adv-x="512" 
d="M399 175l105 -89q-77 -104 -210 -104q-112 0 -188.5 73.5t-76.5 193.5q0 112 72.5 187.5t192.5 75.5q133 0 208 -101l-108 -90q-37 61 -100 61q-53 0 -82 -37t-29 -97q0 -59 30.5 -97t84.5 -38q62 0 101 62zM189 654l167 134l68 -95l-177 -119z" />
    <glyph glyph-name="Ccircumflex" unicode="&#x108;" horiz-adv-x="682" 
d="M539 213l129 -93q-102 -140 -282 -140q-158 0 -256 103t-98 260q0 156 100 257.5t254 101.5q183 0 281 -138l-129 -91q-22 38 -61.5 61.5t-90.5 23.5q-88 0 -140 -60.5t-52 -155.5q0 -92 52.5 -155t140.5 -63q95 0 152 89zM388 911l173 -104l-38 -77l-135 60l-136 -60
l-37 77z" />
    <glyph glyph-name="ccircumflex" unicode="&#x109;" horiz-adv-x="512" 
d="M399 175l105 -89q-77 -104 -210 -104q-112 0 -188.5 73.5t-76.5 193.5q0 112 72.5 187.5t192.5 75.5q133 0 208 -101l-108 -90q-37 61 -100 61q-53 0 -82 -37t-29 -97q0 -59 30.5 -97t84.5 -38q62 0 101 62zM292 772l171 -127l-50 -75l-121 76l-121 -76l-50 75z" />
    <glyph glyph-name="Cdotaccent" unicode="&#x10a;" horiz-adv-x="682" 
d="M539 213l129 -93q-102 -140 -282 -140q-158 0 -256 103t-98 260q0 156 100 257.5t254 101.5q183 0 281 -138l-129 -91q-22 38 -61.5 61.5t-90.5 23.5q-88 0 -140 -60.5t-52 -155.5q0 -92 52.5 -155t140.5 -63q95 0 152 89zM325 770v121h126v-121h-126z" />
    <glyph glyph-name="cdotaccent" unicode="&#x10b;" horiz-adv-x="512" 
d="M399 175l105 -89q-77 -104 -210 -104q-112 0 -188.5 73.5t-76.5 193.5q0 112 72.5 187.5t192.5 75.5q133 0 208 -101l-108 -90q-37 61 -100 61q-53 0 -82 -37t-29 -97q0 -59 30.5 -97t84.5 -38q62 0 101 62zM228 606v121h126v-121h-126z" />
    <glyph glyph-name="Ccaron" unicode="&#x10c;" horiz-adv-x="682" 
d="M539 213l129 -93q-102 -140 -282 -140q-158 0 -256 103t-98 260q0 156 100 257.5t254 101.5q183 0 281 -138l-129 -91q-22 38 -61.5 61.5t-90.5 23.5q-88 0 -140 -60.5t-52 -155.5q0 -92 52.5 -155t140.5 -63q95 0 152 89zM390 730l-173 104l38 77l135 -60l136 60l37 -77
z" />
    <glyph glyph-name="ccaron" unicode="&#x10d;" horiz-adv-x="512" 
d="M399 175l105 -89q-77 -104 -210 -104q-112 0 -188.5 73.5t-76.5 193.5q0 112 72.5 187.5t192.5 75.5q133 0 208 -101l-108 -90q-37 61 -100 61q-53 0 -82 -37t-29 -97q0 -59 30.5 -97t84.5 -38q62 0 101 62zM292 570l-171 127l50 75l121 -76l121 76l50 -75z" />
    <glyph glyph-name="Dcaron" unicode="&#x10e;" horiz-adv-x="711" 
d="M62 682h237q177 0 276.5 -97t99.5 -244q0 -144 -102 -242.5t-276 -98.5h-235v682zM222 140h68q110 0 166 56.5t56 144.5q0 92 -56.5 146.5t-164.5 54.5h-69v-402zM310 730l-173 104l38 77l135 -60l136 60l37 -77z" />
    <glyph glyph-name="dcaron" unicode="&#x10f;" horiz-adv-x="753" 
d="M624 619v102h124v-65q0 -78 -39 -133h-68q28 38 28 96h-45zM556 721v-721h-144v56h-3q-60 -74 -160 -74q-35 0 -71.5 15t-70.5 45t-56 84t-22 122q0 117 69 190.5t164 73.5q96 0 145 -74h2v283h147zM183 247q0 -56 30 -95t87 -39q47 0 80 38t33 95q0 61 -32 99.5
t-81 38.5q-56 0 -86.5 -41t-30.5 -96z" />
    <glyph glyph-name="Dcroat" unicode="&#x110;" horiz-adv-x="737" 
d="M15 292v116h78v274h237q177 0 276.5 -97t99.5 -244q0 -144 -102 -242.5t-276 -98.5h-235v292h-78zM253 136h69q109 0 165 58t56 147q0 95 -58.5 150t-171.5 55h-60v-138h135v-116h-135v-156z" />
    <glyph glyph-name="dcroat" unicode="&#x111;" horiz-adv-x="621" 
d="M556 721v-47h65v-97h-65v-577h-144v56h-3q-60 -74 -160 -74q-35 0 -71.5 15t-70.5 45t-56 84t-22 122q0 117 69 190.5t164 73.5q96 0 145 -74h2v139h-154v97h154v47h147zM183 247q0 -56 30 -95t87 -39q47 0 80 38t33 95q0 61 -32 99.5t-81 38.5q-56 0 -86.5 -41
t-30.5 -96z" />
    <glyph glyph-name="Emacron" unicode="&#x112;" horiz-adv-x="549" 
d="M483 682v-138h-257v-127h248v-130h-248v-149h267v-138h-427v682h417zM425 770h-300v97h300v-97z" />
    <glyph glyph-name="emacron" unicode="&#x113;" horiz-adv-x="573" 
d="M294 93q78 0 120 71l105 -68q-73 -114 -226 -114q-113 0 -188.5 74.5t-75.5 194.5q0 111 69 186t188 75q116 0 185 -74.5t69 -186.5q0 -18 -3 -39h-362q0 -49 35 -84t84 -35zM284 410q-45 0 -73.5 -28.5t-34.5 -69.5h216q-4 42 -33.5 70t-74.5 28zM432 611h-300v97h300
v-97z" />
    <glyph glyph-name="Ebreve" unicode="&#x114;" horiz-adv-x="549" 
d="M483 682v-138h-257v-127h248v-130h-248v-149h267v-138h-427v682h417zM343 895h96q-3 -69 -51 -108.5t-119 -39.5q-78 0 -122.5 39.5t-47.5 108.5h96q2 -23 22 -37t52 -14q69 0 74 51z" />
    <glyph glyph-name="ebreve" unicode="&#x115;" horiz-adv-x="573" 
d="M294 93q78 0 120 71l105 -68q-73 -114 -226 -114q-113 0 -188.5 74.5t-75.5 194.5q0 111 69 186t188 75q116 0 185 -74.5t69 -186.5q0 -18 -3 -39h-362q0 -49 35 -84t84 -35zM284 410q-45 0 -73.5 -28.5t-34.5 -69.5h216q-4 42 -33.5 70t-74.5 28zM359 750h96
q-4 -75 -52 -119t-118 -44q-75 0 -120.5 43t-49.5 120h96q3 -28 22 -45t52 -17t52.5 17.5t21.5 44.5z" />
    <glyph glyph-name="Edotaccent" unicode="&#x116;" horiz-adv-x="549" 
d="M483 682v-138h-257v-127h248v-130h-248v-149h267v-138h-427v682h417zM210 770v121h126v-121h-126z" />
    <glyph glyph-name="edotaccent" unicode="&#x117;" horiz-adv-x="573" 
d="M294 93q78 0 120 71l105 -68q-73 -114 -226 -114q-113 0 -188.5 74.5t-75.5 194.5q0 111 69 186t188 75q116 0 185 -74.5t69 -186.5q0 -18 -3 -39h-362q0 -49 35 -84t84 -35zM284 410q-45 0 -73.5 -28.5t-34.5 -69.5h216q-4 42 -33.5 70t-74.5 28zM221 606v121h126v-121
h-126z" />
    <glyph glyph-name="Eogonek" unicode="&#x118;" horiz-adv-x="549" 
d="M407 -231q-60 0 -91 33t-31 82q0 35 21 66.5t56 49.5h-296v682h417v-138h-257v-127h248v-130h-248v-149h267v-138h-17q-31 0 -57.5 -25.5t-26.5 -62.5q0 -41 47 -41q14 0 26 3l13 -96q-31 -9 -71 -9z" />
    <glyph glyph-name="eogonek" unicode="&#x119;" horiz-adv-x="573" 
d="M284 410q-45 0 -73.5 -28.5t-34.5 -69.5h216q-4 42 -33.5 70t-74.5 28zM376 -238q-62 0 -93.5 33.5t-31.5 84.5q0 62 53 103q-2 0 -5 -0.5t-5 -0.5q-114 0 -189.5 74.5t-75.5 194.5q0 111 69 186t188 75q116 0 185 -74.5t69 -186.5q0 -23 -3 -39h-362q0 -49 34.5 -84
t83.5 -35q79 0 121 71l105 -68q-33 -50 -89 -86q-71 -47 -71 -102q0 -43 49 -43q18 0 31 4l12 -98q-32 -9 -75 -9z" />
    <glyph glyph-name="Ecaron" unicode="&#x11a;" horiz-adv-x="549" 
d="M483 682v-138h-257v-127h248v-130h-248v-149h267v-138h-427v682h417zM273 730l-173 104l38 77l135 -60l136 60l37 -77z" />
    <glyph glyph-name="ecaron" unicode="&#x11b;" horiz-adv-x="573" 
d="M294 93q78 0 120 71l105 -68q-73 -114 -226 -114q-113 0 -188.5 74.5t-75.5 194.5q0 111 69 186t188 75q116 0 185 -74.5t69 -186.5q0 -18 -3 -39h-362q0 -49 35 -84t84 -35zM284 410q-45 0 -73.5 -28.5t-34.5 -69.5h216q-4 42 -33.5 70t-74.5 28zM284 570l-171 127
l50 75l121 -76l121 76l50 -75z" />
    <glyph glyph-name="Gcircumflex" unicode="&#x11c;" horiz-adv-x="769" 
d="M390 563q-86 0 -141 -61t-55 -163q0 -104 56 -163.5t149 -59.5q66 0 112.5 40t55.5 99h-211v130h381v-40q0 -65 -20 -127t-60.5 -116.5t-110.5 -88t-159 -33.5q-155 0 -255 102t-100 254q0 160 102 263t257 103q197 0 296 -144l-129 -88q-58 93 -168 93zM391 911
l173 -104l-38 -77l-135 60l-136 -60l-37 77z" />
    <glyph glyph-name="gcircumflex" unicode="&#x11d;" horiz-adv-x="621" 
d="M558 495v-463q0 -146 -67 -217.5t-210 -71.5q-112 0 -188 48l52 116q61 -42 137 -42q135 0 135 150v47h-2q-55 -72 -156 -72q-97 0 -162.5 71t-65.5 189q0 111 68 185.5t170 74.5q98 0 145 -75h3v60h141zM184 251q0 -53 29.5 -91.5t86.5 -38.5q48 0 81.5 36.5t33.5 92.5
q0 58 -32.5 94.5t-81.5 36.5q-55 0 -86 -39t-31 -91zM297 772l171 -127l-50 -75l-121 76l-121 -76l-50 75z" />
    <glyph glyph-name="Gbreve" unicode="&#x11e;" horiz-adv-x="769" 
d="M390 563q-86 0 -141 -61t-55 -163q0 -104 56 -163.5t149 -59.5q66 0 112.5 40t55.5 99h-211v130h381v-40q0 -65 -20 -127t-60.5 -116.5t-110.5 -88t-159 -33.5q-155 0 -255 102t-100 254q0 160 102 263t257 103q197 0 296 -144l-129 -88q-58 93 -168 93zM463 895h96
q-3 -69 -51 -108.5t-119 -39.5q-78 0 -122.5 39.5t-47.5 108.5h96q2 -23 22 -37t52 -14q69 0 74 51z" />
    <glyph glyph-name="gbreve" unicode="&#x11f;" horiz-adv-x="621" 
d="M558 495v-463q0 -146 -67 -217.5t-210 -71.5q-112 0 -188 48l52 116q61 -42 137 -42q135 0 135 150v47h-2q-55 -72 -156 -72q-97 0 -162.5 71t-65.5 189q0 111 68 185.5t170 74.5q98 0 145 -75h3v60h141zM184 251q0 -53 29.5 -91.5t86.5 -38.5q48 0 81.5 36.5t33.5 92.5
q0 58 -32.5 94.5t-81.5 36.5q-55 0 -86 -39t-31 -91zM364 750h96q-4 -75 -52 -119t-118 -44q-75 0 -120.5 43t-49.5 120h96q3 -28 22 -45t52 -17t52.5 17.5t21.5 44.5z" />
    <glyph glyph-name="Gdotaccent" unicode="&#x120;" horiz-adv-x="769" 
d="M390 563q-86 0 -141 -61t-55 -163q0 -104 56 -163.5t149 -59.5q66 0 112.5 40t55.5 99h-211v130h381v-40q0 -65 -20 -127t-60.5 -116.5t-110.5 -88t-159 -33.5q-155 0 -255 102t-100 254q0 160 102 263t257 103q197 0 296 -144l-129 -88q-58 93 -168 93zM326 770v121h126
v-121h-126z" />
    <glyph glyph-name="gdotaccent" unicode="&#x121;" horiz-adv-x="621" 
d="M558 495v-463q0 -146 -67 -217.5t-210 -71.5q-112 0 -188 48l52 116q61 -42 137 -42q135 0 135 150v47h-2q-55 -72 -156 -72q-97 0 -162.5 71t-65.5 189q0 111 68 185.5t170 74.5q98 0 145 -75h3v60h141zM184 251q0 -53 29.5 -91.5t86.5 -38.5q48 0 81.5 36.5t33.5 92.5
q0 58 -32.5 94.5t-81.5 36.5q-55 0 -86 -39t-31 -91zM226 606v121h126v-121h-126z" />
    <glyph glyph-name="Gcommaaccent" unicode="&#x122;" horiz-adv-x="769" 
d="M390 563q-86 0 -141 -61t-55 -163q0 -104 56 -163.5t149 -59.5q66 0 112.5 40t55.5 99h-211v130h381v-40q0 -65 -20 -127t-60.5 -116.5t-110.5 -88t-159 -33.5q-155 0 -255 102t-100 254q0 160 102 263t257 103q197 0 296 -144l-129 -88q-58 93 -168 93zM327 -155v100
h122v-65q0 -76 -38 -129h-67q28 40 28 94h-45z" />
    <glyph glyph-name="gcommaaccent" unicode="&#x123;" horiz-adv-x="621" 
d="M358 678v-102h-124v65q0 77 39 133h68q-29 -41 -29 -96h46zM558 495v-463q0 -146 -67 -217.5t-210 -71.5q-112 0 -188 48l52 116q61 -42 137 -42q135 0 135 150v47h-2q-55 -72 -156 -72q-97 0 -162.5 71t-65.5 189q0 111 68 185.5t170 74.5q98 0 145 -75h3v60h141z
M184 251q0 -53 29.5 -91.5t86.5 -38.5q48 0 81.5 36.5t33.5 92.5q0 58 -32.5 94.5t-81.5 36.5q-55 0 -86 -39t-31 -91z" />
    <glyph glyph-name="Hcircumflex" unicode="&#x124;" horiz-adv-x="698" 
d="M471 0v283h-244v-283h-160v682h160v-261h244v261h160v-682h-160zM350 911l173 -104l-38 -77l-135 60l-136 -60l-37 77z" />
    <glyph glyph-name="hcircumflex" unicode="&#x125;" horiz-adv-x="606" 
d="M63 0v721h151v-288h2q45 78 146 78q88 0 137.5 -58t49.5 -170v-283h-151v274q0 51 -23 78t-64 27q-44 0 -70.5 -30t-26.5 -87v-262h-151zM141 994l171 -127l-50 -75l-121 76l-121 -76l-50 75z" />
    <glyph glyph-name="Hbar" unicode="&#x126;" horiz-adv-x="698" 
d="M471 0v283h-244v-283h-160v508h-61v97h61v77h160v-77h244v77h160v-77h61v-97h-61v-508h-160zM227 421h244v87h-244v-87z" />
    <glyph glyph-name="hbar" unicode="&#x127;" horiz-adv-x="606" 
d="M63 0v577h-63v97h63v47h151v-47h145v-97h-145v-144h2q45 78 146 78q88 0 137.5 -58t49.5 -170v-283h-151v274q0 51 -23 78t-64 27q-44 0 -70.5 -30t-26.5 -87v-262h-151z" />
    <glyph glyph-name="Itilde" unicode="&#x128;" horiz-adv-x="292" 
d="M66 0v682h160v-682h-160zM54 766h-84q3 66 31.5 104.5t79.5 38.5q39 0 75 -27q40 -26 59 -26q28 0 29 43h84q-6 -143 -113 -143q-43 0 -80 27q-37 26 -53 26q-27 0 -28 -43z" />
    <glyph glyph-name="itilde" unicode="&#x129;" horiz-adv-x="277" 
d="M44 607h-84q3 66 31.5 104.5t79.5 38.5q39 0 75 -27q40 -26 59 -26q28 0 29 43h84q-6 -143 -113 -143q-43 0 -80 27q-37 26 -53 26q-27 0 -28 -43zM63 0v495h151v-495h-151z" />
    <glyph glyph-name="Imacron" unicode="&#x12a;" horiz-adv-x="292" 
d="M66 0v682h160v-682h-160zM297 770h-300v97h300v-97z" />
    <glyph glyph-name="imacron" unicode="&#x12b;" horiz-adv-x="277" 
d="M289 611h-300v97h300v-97zM63 0v495h151v-495h-151z" />
    <glyph glyph-name="Ibreve" unicode="&#x12c;" horiz-adv-x="292" 
d="M66 0v682h160v-682h-160zM220 895h96q-3 -69 -51 -108.5t-119 -39.5q-78 0 -122.5 39.5t-47.5 108.5h96q2 -23 22 -37t52 -14q69 0 74 51z" />
    <glyph glyph-name="ibreve" unicode="&#x12d;" horiz-adv-x="277" 
d="M213 750h96q-4 -75 -52 -119t-118 -44q-75 0 -120.5 43t-49.5 120h96q3 -28 22 -45t52 -17t52.5 17.5t21.5 44.5zM63 0v495h151v-495h-151z" />
    <glyph glyph-name="Iogonek" unicode="&#x12e;" horiz-adv-x="292" 
d="M197 -129q14 0 26 3l13 -96q-31 -9 -71 -9q-60 0 -91.5 33t-31.5 82q0 35 21.5 66t56.5 50h-54v682h160v-682q-28 -4 -52 -30t-24 -58q0 -41 47 -41z" />
    <glyph glyph-name="iogonek" unicode="&#x12f;" horiz-adv-x="277" 
d="M63 0v495h151v-495q-32 -5 -55.5 -30t-23.5 -62q0 -43 48 -43q22 0 37 4v-99q-26 -8 -68 -8q-62 0 -94 33.5t-32 84.5q0 36 22 68.5t57 51.5h-42zM61 596v141h156v-141h-156z" />
    <glyph glyph-name="Idotaccent" unicode="&#x130;" horiz-adv-x="292" 
d="M66 0v682h160v-682h-160zM81 770v121h126v-121h-126z" />
    <glyph glyph-name="dotlessi" unicode="&#x131;" horiz-adv-x="277" 
d="M63 0v495h151v-495h-151z" />
    <glyph glyph-name="Jcircumflex" unicode="&#x134;" horiz-adv-x="398" 
d="M176 217v465h161v-465q0 -126 -58.5 -182.5t-172.5 -56.5q-65 0 -111 24l35 126q28 -15 62 -15q46 0 65 22.5t19 81.5zM254 911l173 -104l-38 -77l-135 60l-136 -60l-37 77z" />
    <glyph glyph-name="jcircumflex" unicode="&#x135;" horiz-adv-x="277" 
d="M213 495v-533q0 -222 -194 -222q-58 0 -100 14v128q39 -9 67 -9q40 0 58.5 22.5t18.5 73.5v526h150zM139 776l175 -131l-52 -76l-123 79l-123 -79l-52 76z" />
    <glyph glyph-name="Kcommaaccent" unicode="&#x136;" horiz-adv-x="667" 
d="M227 682v-257l243 257h198l-293 -304l326 -378h-201l-273 324v-324h-160v682h160zM286 -155v100h122v-65q0 -76 -38 -129h-67q28 40 28 94h-45z" />
    <glyph glyph-name="kcommaaccent" unicode="&#x137;" horiz-adv-x="573" 
d="M579 0h-181l-184 243v-243h-151v721h151v-415l173 189h183l-209 -217zM235 -158v100h122v-65q0 -76 -38 -129h-67q28 40 28 94h-45z" />
    <glyph glyph-name="kgreenlandic" unicode="&#x138;" horiz-adv-x="573" 
d="M579 0h-181l-184 238v-238h-151v495h151v-194l173 194h183l-209 -221z" />
    <glyph glyph-name="Lacute" unicode="&#x139;" horiz-adv-x="499" 
d="M66 0v682h160v-544h267v-138h-427zM233 916l46 -109l-199 -76l-40 91z" />
    <glyph glyph-name="lacute" unicode="&#x13a;" horiz-adv-x="277" 
d="M63 0v721h151v-721h-151zM31 877l167 134l68 -95l-177 -119z" />
    <glyph glyph-name="Lcommaaccent" unicode="&#x13b;" horiz-adv-x="499" 
d="M66 0v682h160v-544h267v-138h-427zM211 -155v100h122v-65q0 -76 -38 -129h-67q28 40 28 94h-45z" />
    <glyph glyph-name="lcommaaccent" unicode="&#x13c;" horiz-adv-x="277" 
d="M63 0v721h151v-721h-151zM76 -158v100h122v-65q0 -76 -38 -129h-67q28 40 28 94h-45z" />
    <glyph glyph-name="Lcaron" unicode="&#x13d;" horiz-adv-x="499" 
d="M66 0v682h160v-544h267v-138h-427zM332 582v100h123v-64q0 -75 -39 -130h-66q26 38 28 94h-46z" />
    <glyph glyph-name="lcaron" unicode="&#x13e;" 
d="M63 0v721h151v-721h-151zM279 619v102h124v-65q0 -78 -39 -133h-67q27 40 29 96h-47z" />
    <glyph glyph-name="Ldot" unicode="&#x13f;" horiz-adv-x="539" 
d="M66 0v682h160v-544h267v-138h-427zM353 306v121h126v-121h-126z" />
    <glyph glyph-name="ldot" unicode="&#x140;" horiz-adv-x="432" 
d="M63 0v721h151v-721h-151zM290 325v122h128v-122h-128z" />
    <glyph glyph-name="Lslash" unicode="&#x141;" horiz-adv-x="509" 
d="M11 152v121l65 44v365h159v-268l135 90v-121l-135 -90v-155h268v-138h-427v196z" />
    <glyph glyph-name="lslash" unicode="&#x142;" horiz-adv-x="298" 
d="M1 191v122l72 57v351h151v-244l73 57v-122l-73 -57v-355h-151v247z" />
    <glyph glyph-name="Nacute" unicode="&#x143;" horiz-adv-x="680" 
d="M202 445h-4q0 -15 2 -63.5t2 -62.5v-319h-136v682h136l181 -283q26 -41 45 -74l32 -57.5l19 -35.5h3q-3 93 -3 117v333h135v-682h-135l-161 250l-57 90t-40.5 70.5t-18.5 34.5zM429 916l46 -109l-199 -76l-40 91z" />
    <glyph glyph-name="nacute" unicode="&#x144;" horiz-adv-x="607" 
d="M63 0v495h149v-62h2q45 78 146 78q89 0 139 -58.5t50 -169.5v-283h-151v274q0 51 -23 78t-64 27q-44 0 -70.5 -30t-26.5 -87v-262h-151zM205 654l167 134l68 -95l-177 -119z" />
    <glyph glyph-name="Ncommaaccent" unicode="&#x145;" horiz-adv-x="680" 
d="M202 445h-4q0 -15 2 -63.5t2 -62.5v-319h-136v682h136l181 -283q26 -41 45 -74l32 -57.5l19 -35.5h3q-3 93 -3 117v333h135v-682h-135l-161 250l-57 90t-40.5 70.5t-18.5 34.5zM276 -155v100h122v-65q0 -76 -38 -129h-67q28 40 28 94h-45z" />
    <glyph glyph-name="ncommaaccent" unicode="&#x146;" horiz-adv-x="607" 
d="M63 0v495h149v-62h2q45 78 146 78q89 0 139 -58.5t50 -169.5v-283h-151v274q0 51 -23 78t-64 27q-44 0 -70.5 -30t-26.5 -87v-262h-151zM242 -158v100h122v-65q0 -76 -38 -129h-67q28 40 28 94h-45z" />
    <glyph glyph-name="Ncaron" unicode="&#x147;" horiz-adv-x="680" 
d="M202 445h-4q0 -15 2 -63.5t2 -62.5v-319h-136v682h136l181 -283q26 -41 45 -74l32 -57.5l19 -35.5h3q-3 93 -3 117v333h135v-682h-135l-161 250l-57 90t-40.5 70.5t-18.5 34.5zM339 730l-173 104l38 77l135 -60l136 60l37 -77z" />
    <glyph glyph-name="ncaron" unicode="&#x148;" horiz-adv-x="607" 
d="M63 0v495h149v-62h2q45 78 146 78q89 0 139 -58.5t50 -169.5v-283h-151v274q0 51 -23 78t-64 27q-44 0 -70.5 -30t-26.5 -87v-262h-151zM307 570l-171 127l50 75l121 -76l121 76l50 -75z" />
    <glyph glyph-name="Eng" unicode="&#x14a;" horiz-adv-x="680" 
d="M202 445h-4q0 -15 2 -63.5t2 -62.5v-319h-136v682h136l181 -283q26 -41 45 -74l32 -57.5l19 -35.5h3q-3 93 -3 117v333h135v-687q0 -216 -191 -216q-51 0 -94 13v120q36 -9 69 -9q81 0 81 80v17l-161 250l-57 90t-40.5 70.5t-18.5 34.5z" />
    <glyph glyph-name="eng" unicode="&#x14b;" horiz-adv-x="607" 
d="M398 -20v294q0 51 -23 78t-64 27q-44 0 -70.5 -30t-26.5 -87v-262h-151v495h149v-62h2q45 78 146 78q89 0 139 -58.5t50 -169.5v-304q0 -117 -55.5 -173.5t-156.5 -56.5q-59 0 -100 19l35 123q18 -10 49 -10q39 0 58 22t19 77z" />
    <glyph glyph-name="Omacron" unicode="&#x14c;" horiz-adv-x="786" 
d="M194 341q0 -94 57 -156.5t142 -62.5t142 62.5t57 156.5q0 93 -55 156t-143 63q-85 0 -142.5 -62.5t-57.5 -156.5zM32 341q0 149 103.5 256t259.5 107q162 0 261 -107t99 -256q0 -150 -104 -256.5t-257 -106.5q-90 0 -161.5 32.5t-114 86t-64.5 116.5t-22 128zM547 770
h-300v97h300v-97z" />
    <glyph glyph-name="omacron" unicode="&#x14d;" horiz-adv-x="589" 
d="M29 248q0 114 75.5 189t189.5 75q116 0 190.5 -75.5t74.5 -188.5q0 -111 -75.5 -188.5t-189.5 -77.5q-113 0 -189 77t-76 189zM181 247q0 -57 32 -94t81 -37q52 0 83 37t31 94t-30.5 94.5t-83.5 37.5t-83 -37t-30 -95zM443 611h-300v97h300v-97z" />
    <glyph glyph-name="Obreve" unicode="&#x14e;" horiz-adv-x="786" 
d="M194 341q0 -94 57 -156.5t142 -62.5t142 62.5t57 156.5q0 93 -55 156t-143 63q-85 0 -142.5 -62.5t-57.5 -156.5zM32 341q0 149 103.5 256t259.5 107q162 0 261 -107t99 -256q0 -150 -104 -256.5t-257 -106.5q-90 0 -161.5 32.5t-114 86t-64.5 116.5t-22 128zM469 895h96
q-3 -69 -51 -108.5t-119 -39.5q-78 0 -122.5 39.5t-47.5 108.5h96q2 -23 22 -37t52 -14q69 0 74 51z" />
    <glyph glyph-name="obreve" unicode="&#x14f;" horiz-adv-x="589" 
d="M29 248q0 114 75.5 189t189.5 75q116 0 190.5 -75.5t74.5 -188.5q0 -111 -75.5 -188.5t-189.5 -77.5q-113 0 -189 77t-76 189zM181 247q0 -57 32 -94t81 -37q52 0 83 37t31 94t-30.5 94.5t-83.5 37.5t-83 -37t-30 -95zM368 750h96q-4 -75 -52 -119t-118 -44
q-75 0 -120.5 43t-49.5 120h96q3 -28 22 -45t52 -17t52.5 17.5t21.5 44.5z" />
    <glyph glyph-name="Ohungarumlaut" unicode="&#x150;" horiz-adv-x="786" 
d="M194 341q0 -94 57 -156.5t142 -62.5t142 62.5t57 156.5q0 93 -55 156t-143 63q-85 0 -142.5 -62.5t-57.5 -156.5zM32 341q0 149 103.5 256t259.5 107q162 0 261 -107t99 -256q0 -150 -104 -256.5t-257 -106.5q-90 0 -161.5 32.5t-114 86t-64.5 116.5t-22 128zM382 922
l72 -88l-158 -109l-60 75zM590 922l73 -88l-160 -109l-59 75z" />
    <glyph glyph-name="ohungarumlaut" unicode="&#x151;" horiz-adv-x="589" 
d="M29 248q0 114 75.5 189t189.5 75q116 0 190.5 -75.5t74.5 -188.5q0 -111 -75.5 -188.5t-189.5 -77.5q-113 0 -189 77t-76 189zM181 247q0 -57 32 -94t81 -37q52 0 83 37t31 94t-30.5 94.5t-83.5 37.5t-83 -37t-30 -95zM225 774l98 -58l-111 -157l-82 50zM409 774l98 -58
l-111 -157l-82 50z" />
    <glyph glyph-name="OE" unicode="&#x152;" horiz-adv-x="1052" 
d="M986 682v-138h-258v-127h248v-130h-248v-149h268v-138h-414v71q-88 -93 -208 -93q-86 0 -153.5 32.5t-107.5 86.5t-60.5 116t-20.5 128q0 148 98 255.5t245 107.5q122 0 207 -88v66h404zM194 341q0 -94 56 -156.5t143 -62.5q85 0 141.5 62.5t56.5 156.5q0 93 -54.5 156
t-142.5 63q-87 0 -143.5 -62t-56.5 -157z" />
    <glyph glyph-name="oe" unicode="&#x153;" horiz-adv-x="937" 
d="M180 247q0 -57 32 -94t80 -37q50 0 80.5 37t30.5 94t-29.5 94.5t-81.5 37.5q-53 0 -82.5 -37t-29.5 -95zM656 410q-44 0 -72.5 -29t-33.5 -71h207q-4 43 -31.5 71.5t-69.5 28.5zM781 164l105 -68q-70 -114 -221 -114q-124 0 -192 89q-70 -89 -189 -89q-109 0 -182 77
t-73 189q0 114 72.5 189t182.5 75q119 0 190 -87q67 87 186 87q106 0 175 -74t69 -187q0 -22 -2 -37h-354q0 -49 34 -85t84 -36q76 0 115 71z" />
    <glyph glyph-name="Racute" unicode="&#x154;" horiz-adv-x="618" 
d="M416 287l209 -287h-187l-180 263h-32v-263h-160v682h217q139 0 202.5 -57.5t63.5 -152.5q0 -70 -37.5 -119t-95.5 -66zM386 464q0 43 -25.5 67.5t-72.5 24.5h-62v-180h65q43 0 69 23.5t26 64.5zM361 916l46 -109l-199 -76l-40 91z" />
    <glyph glyph-name="racute" unicode="&#x155;" horiz-adv-x="422" 
d="M415 504l-19 -144q-28 8 -59 8q-123 0 -123 -132v-236h-151v495h146v-81h3q51 96 148 96q30 0 55 -6zM125 654l167 134l68 -95l-177 -119z" />
    <glyph glyph-name="Rcommaaccent" unicode="&#x156;" horiz-adv-x="618" 
d="M416 287l209 -287h-187l-180 263h-32v-263h-160v682h217q139 0 202.5 -57.5t63.5 -152.5q0 -70 -37.5 -119t-95.5 -66zM386 464q0 43 -25.5 67.5t-72.5 24.5h-62v-180h65q43 0 69 23.5t26 64.5zM263 -155v100h122v-65q0 -76 -38 -129h-67q28 40 28 94h-45z" />
    <glyph glyph-name="rcommaaccent" unicode="&#x157;" horiz-adv-x="422" 
d="M415 504l-19 -144q-28 8 -59 8q-123 0 -123 -132v-236h-151v495h146v-81h3q51 96 148 96q30 0 55 -6zM76 -158v100h122v-65q0 -76 -38 -129h-67q28 40 28 94h-45z" />
    <glyph glyph-name="Rcaron" unicode="&#x158;" horiz-adv-x="618" 
d="M416 287l209 -287h-187l-180 263h-32v-263h-160v682h217q139 0 202.5 -57.5t63.5 -152.5q0 -70 -37.5 -119t-95.5 -66zM386 464q0 43 -25.5 67.5t-72.5 24.5h-62v-180h65q43 0 69 23.5t26 64.5zM268 730l-173 104l38 77l135 -60l136 60l37 -77z" />
    <glyph glyph-name="rcaron" unicode="&#x159;" horiz-adv-x="422" 
d="M415 504l-19 -144q-28 8 -59 8q-123 0 -123 -132v-236h-151v495h146v-81h3q51 96 148 96q30 0 55 -6zM236 570l-171 127l50 75l121 -76l121 76l50 -75z" />
    <glyph glyph-name="Sacute" unicode="&#x15a;" horiz-adv-x="533" 
d="M474 593l-121 -80q-32 62 -88 62q-29 0 -47.5 -18t-18.5 -48q0 -32 26.5 -52t85.5 -40q189 -69 189 -228q0 -83 -60 -147t-175 -64q-178 0 -232 129l138 72q27 -72 96 -72q35 0 56.5 20.5t21.5 52.5q0 37 -25.5 60.5t-90.5 46.5q-184 63 -184 219q0 90 64 144t158 54
q140 0 207 -111zM357 916l46 -109l-199 -76l-40 91z" />
    <glyph glyph-name="sacute" unicode="&#x15b;" horiz-adv-x="454" 
d="M43 88l112 65q24 -65 77 -65q45 0 45 39q0 26 -20.5 42.5t-75.5 34.5q-69 23 -101.5 59t-32.5 94q0 70 51 112.5t134 42.5q108 0 158 -79l-100 -73q-28 46 -65 46q-41 0 -41 -39q0 -19 18 -34t73 -33q76 -25 109.5 -63.5t33.5 -94.5q0 -71 -52 -115.5t-145 -44.5
q-133 0 -178 106zM133 654l167 134l68 -95l-177 -119z" />
    <glyph glyph-name="Scircumflex" unicode="&#x15c;" horiz-adv-x="533" 
d="M474 593l-121 -80q-32 62 -88 62q-29 0 -47.5 -18t-18.5 -48q0 -32 26.5 -52t85.5 -40q189 -69 189 -228q0 -83 -60 -147t-175 -64q-178 0 -232 129l138 72q27 -72 96 -72q35 0 56.5 20.5t21.5 52.5q0 37 -25.5 60.5t-90.5 46.5q-184 63 -184 219q0 90 64 144t158 54
q140 0 207 -111zM266 911l173 -104l-38 -77l-135 60l-136 -60l-37 77z" />
    <glyph glyph-name="scircumflex" unicode="&#x15d;" horiz-adv-x="454" 
d="M43 88l112 65q24 -65 77 -65q45 0 45 39q0 26 -20.5 42.5t-75.5 34.5q-69 23 -101.5 59t-32.5 94q0 70 51 112.5t134 42.5q108 0 158 -79l-100 -73q-28 46 -65 46q-41 0 -41 -39q0 -19 18 -34t73 -33q76 -25 109.5 -63.5t33.5 -94.5q0 -71 -52 -115.5t-145 -44.5
q-133 0 -178 106zM234 772l171 -127l-50 -75l-121 76l-121 -76l-50 75z" />
    <glyph glyph-name="Scedilla" unicode="&#x15e;" horiz-adv-x="533" 
d="M474 593l-121 -80q-32 62 -88 62q-29 0 -47.5 -18t-18.5 -48q0 -32 26.5 -52t85.5 -40q189 -69 189 -228q0 -74 -49 -134.5t-142 -73.5l-8 -20q44 -6 69 -35t25 -66q0 -52 -34.5 -82.5t-103.5 -30.5q-47 0 -114 20l28 80q30 -14 75 -14q47 0 47 28q0 38 -93 38l31 81
q-150 12 -198 127l138 72q27 -72 96 -72q35 0 56.5 20.5t21.5 52.5q0 37 -25.5 60.5t-90.5 46.5q-184 63 -184 219q0 90 64 144t158 54q140 0 207 -111z" />
    <glyph glyph-name="scedilla" unicode="&#x15f;" horiz-adv-x="459" 
d="M43 88l112 65q24 -65 77 -65q45 0 45 39q0 26 -20.5 42.5t-75.5 34.5q-69 23 -101.5 59t-32.5 94q0 70 51 112.5t134 42.5q108 0 158 -79l-100 -73q-28 46 -65 46q-41 0 -41 -39q0 -19 18 -34t73 -33q76 -25 109.5 -63.5t33.5 -94.5q0 -62 -41 -104.5t-116 -52.5l-10 -25
q45 -7 70.5 -36.5t25.5 -67.5q0 -54 -34.5 -85t-105.5 -31q-55 0 -117 20l29 81q30 -14 76 -14q49 0 49 29q0 40 -96 40l34 89q-101 14 -139 103z" />
    <glyph glyph-name="Scaron" unicode="&#x160;" horiz-adv-x="533" 
d="M474 593l-121 -80q-32 62 -88 62q-29 0 -47.5 -18t-18.5 -48q0 -32 26.5 -52t85.5 -40q189 -69 189 -228q0 -83 -60 -147t-175 -64q-178 0 -232 129l138 72q27 -72 96 -72q35 0 56.5 20.5t21.5 52.5q0 37 -25.5 60.5t-90.5 46.5q-184 63 -184 219q0 90 64 144t158 54
q140 0 207 -111zM256 730l-173 104l38 77l135 -60l136 60l37 -77z" />
    <glyph glyph-name="scaron" unicode="&#x161;" horiz-adv-x="454" 
d="M43 88l112 65q24 -65 77 -65q45 0 45 39q0 26 -20.5 42.5t-75.5 34.5q-69 23 -101.5 59t-32.5 94q0 70 51 112.5t134 42.5q108 0 158 -79l-100 -73q-28 46 -65 46q-41 0 -41 -39q0 -19 18 -34t73 -33q76 -25 109.5 -63.5t33.5 -94.5q0 -71 -52 -115.5t-145 -44.5
q-133 0 -178 106zM231 570l-171 127l50 75l121 -76l121 76l50 -75z" />
    <glyph glyph-name="uni0162" unicode="&#x162;" horiz-adv-x="497" 
d="M168 0v544h-162v138h485v-138h-162v-544h-161zM186 -155v100h122v-65q0 -76 -38 -129h-67q28 40 28 94h-45z" />
    <glyph glyph-name="uni0163" unicode="&#x163;" horiz-adv-x="361" 
d="M10 368v127h60v159h150v-159h115v-127h-115v-178q0 -40 13.5 -55t46.5 -15q23 0 46 9l26 -118q-44 -15 -100 -18l-13 -32q44 -6 69 -35t25 -66q0 -52 -34.5 -82.5t-103.5 -30.5q-47 0 -114 20l28 80q30 -14 75 -14q47 0 47 28q0 38 -93 38l39 101q-107 26 -107 172v196
h-60z" />
    <glyph glyph-name="Tcaron" unicode="&#x164;" horiz-adv-x="497" 
d="M168 0v544h-162v138h485v-138h-162v-544h-161zM244 730l-173 104l38 77l135 -60l136 60l37 -77z" />
    <glyph glyph-name="tcaron" unicode="&#x165;" horiz-adv-x="391" 
d="M272 633v88h124v-51q0 -77 -40 -131h-67q29 40 29 94h-46zM10 368v127h60v159h150v-159h115v-127h-115v-178q0 -40 13.5 -55t46.5 -15q23 0 46 9l26 -118q-56 -18 -113 -18q-89 0 -129 44t-40 135v196h-60z" />
    <glyph glyph-name="Tbar" unicode="&#x166;" horiz-adv-x="489" 
d="M426 286h-101v-286h-161v286h-101v116h101v142h-158v138h477v-138h-158v-142h101v-116z" />
    <glyph glyph-name="tbar" unicode="&#x167;" horiz-adv-x="361" 
d="M10 368v127h60v159h150v-159h115v-127h-115v-71h106v-90h-106v-17q0 -40 13.5 -55t46.5 -15q23 0 46 9l26 -118q-56 -18 -113 -18q-89 0 -129 44t-40 135v35h-52v90h52v71h-60z" />
    <glyph glyph-name="Utilde" unicode="&#x168;" horiz-adv-x="638" 
d="M319 -22q-120 0 -191.5 70t-71.5 222v412h160v-423q0 -70 26.5 -107.5t76.5 -37.5q104 0 104 145v423h159v-410q0 -152 -70 -223t-193 -71zM223 766h-84q3 66 31.5 104.5t79.5 38.5q39 0 75 -27q40 -26 59 -26q28 0 29 43h84q-6 -143 -113 -143q-42 0 -80 27
q-37 26 -53 26q-27 0 -28 -43z" />
    <glyph glyph-name="utilde" unicode="&#x169;" horiz-adv-x="596" 
d="M533 495v-495h-149v62h-2q-54 -78 -145 -78q-72 0 -125.5 51t-53.5 165v295h151v-274q0 -50 22 -77t59 -27q44 0 68 29.5t24 87.5v261h151zM200 607h-84q3 66 31.5 104.5t79.5 38.5q39 0 75 -27q40 -26 59 -26q28 0 29 43h84q-6 -143 -113 -143q-43 0 -80 27
q-37 26 -53 26q-27 0 -28 -43z" />
    <glyph glyph-name="Umacron" unicode="&#x16a;" horiz-adv-x="638" 
d="M319 -22q-120 0 -191.5 70t-71.5 222v412h160v-423q0 -70 26.5 -107.5t76.5 -37.5q104 0 104 145v423h159v-410q0 -152 -70 -223t-193 -71zM472 770h-300v97h300v-97z" />
    <glyph glyph-name="umacron" unicode="&#x16b;" horiz-adv-x="596" 
d="M533 495v-495h-149v62h-2q-54 -78 -145 -78q-72 0 -125.5 51t-53.5 165v295h151v-274q0 -50 22 -77t59 -27q44 0 68 29.5t24 87.5v261h151zM446 611h-300v97h300v-97z" />
    <glyph glyph-name="Ubreve" unicode="&#x16c;" horiz-adv-x="638" 
d="M319 -22q-120 0 -191.5 70t-71.5 222v412h160v-423q0 -70 26.5 -107.5t76.5 -37.5q104 0 104 145v423h159v-410q0 -152 -70 -223t-193 -71zM393 895h96q-3 -69 -51 -108.5t-119 -39.5q-78 0 -122.5 39.5t-47.5 108.5h96q2 -23 22 -37t52 -14q69 0 74 51z" />
    <glyph glyph-name="ubreve" unicode="&#x16d;" horiz-adv-x="596" 
d="M533 495v-495h-149v62h-2q-54 -78 -145 -78q-72 0 -125.5 51t-53.5 165v295h151v-274q0 -50 22 -77t59 -27q44 0 68 29.5t24 87.5v261h151zM371 750h96q-4 -75 -52 -119t-118 -44q-75 0 -120.5 43t-49.5 120h96q3 -28 22 -45t52 -17t52.5 17.5t21.5 44.5z" />
    <glyph glyph-name="Uring" unicode="&#x16e;" horiz-adv-x="638" 
d="M319 -22q-120 0 -191.5 70t-71.5 222v412h160v-423q0 -70 26.5 -107.5t76.5 -37.5q104 0 104 145v423h159v-410q0 -152 -70 -223t-193 -71zM266 846q0 -22 15.5 -37.5t37.5 -15.5t37 15.5t15 37.5t-15 37t-37 15t-37.5 -15t-15.5 -37zM187 846q0 55 37.5 93t94.5 38
q55 0 93 -38t38 -93t-38 -93.5t-93 -38.5q-57 0 -94.5 38t-37.5 94z" />
    <glyph glyph-name="uring" unicode="&#x16f;" horiz-adv-x="596" 
d="M533 495v-495h-149v62h-2q-54 -78 -145 -78q-72 0 -125.5 51t-53.5 165v295h151v-274q0 -50 22 -77t59 -27q44 0 68 29.5t24 87.5v261h151zM243 681q0 -22 15.5 -37.5t37.5 -15.5t37 15.5t15 37.5t-15 37t-37 15t-37.5 -15t-15.5 -37zM164 681q0 55 37.5 93t94.5 38
q55 0 93 -38t38 -93t-38 -93.5t-93 -38.5q-57 0 -94.5 38t-37.5 94z" />
    <glyph glyph-name="Uhungarumlaut" unicode="&#x170;" horiz-adv-x="638" 
d="M319 -22q-120 0 -191.5 70t-71.5 222v412h160v-423q0 -70 26.5 -107.5t76.5 -37.5q104 0 104 145v423h159v-410q0 -152 -70 -223t-193 -71zM294 922l72 -88l-158 -109l-60 75zM502 922l73 -88l-160 -109l-59 75z" />
    <glyph glyph-name="uhungarumlaut" unicode="&#x171;" horiz-adv-x="596" 
d="M533 495v-495h-149v62h-2q-54 -78 -145 -78q-72 0 -125.5 51t-53.5 165v295h151v-274q0 -50 22 -77t59 -27q44 0 68 29.5t24 87.5v261h151zM224 774l98 -58l-111 -157l-82 50zM408 774l98 -58l-111 -157l-82 50z" />
    <glyph glyph-name="Uogonek" unicode="&#x172;" horiz-adv-x="638" 
d="M465 -126l13 -96q-31 -9 -71 -9q-60 0 -91 33t-31 82q0 53 41 94h-7q-120 0 -191.5 70t-71.5 222v412h160v-423q0 -70 26.5 -107.5t76.5 -37.5q104 0 104 145v423h159v-410q0 -183 -103 -251q-47 -32 -58 -45q-29 -30 -29 -64q0 -41 47 -41q14 0 26 3z" />
    <glyph glyph-name="uogonek" unicode="&#x173;" horiz-adv-x="596" 
d="M528 -132l15 -97q-29 -9 -72 -9q-63 0 -95 33.5t-32 84.5q0 36 22.5 68.5t57.5 51.5h-40v62h-4q-52 -78 -143 -78q-72 0 -125.5 51t-53.5 165v295h151v-274q0 -50 22 -77t59 -27q44 0 68 29.5t24 87.5v261h151v-495q-28 -1 -54 -27t-26 -65q0 -43 49 -43q16 0 26 3z" />
    <glyph glyph-name="Wcircumflex" unicode="&#x174;" horiz-adv-x="882" 
d="M541 0l-76 338q-16 75 -20 145h-4q-13 -107 -21 -143l-71 -340h-172l-171 682h157l79 -352q14 -69 23 -127h4q14 76 27 136l73 343h151l81 -350q8 -32 15 -75t9 -54h4q8 59 21 128l72 351h153l-163 -682h-171zM441 911l173 -104l-38 -77l-135 60l-136 -60l-37 77z" />
    <glyph glyph-name="wcircumflex" unicode="&#x175;" horiz-adv-x="757" 
d="M442 0l-45 204q-17 70 -20 107h-3q-4 -33 -23 -122l-44 -189h-170l-124 495h147l54 -235q3 -12 19 -97h4q11 70 19 103l58 229h134l57 -234q10 -40 15 -98h4q8 62 16 97l57 235h147l-130 -495h-172zM381 772l171 -127l-50 -75l-121 76l-121 -76l-50 75z" />
    <glyph glyph-name="Ycircumflex" unicode="&#x176;" horiz-adv-x="622" 
d="M232 0v270l-226 412h172l100 -190q19 -36 37 -87h2q16 46 36 86l94 191h169l-224 -411v-271h-160zM315 911l173 -104l-38 -77l-135 60l-136 -60l-37 77z" />
    <glyph glyph-name="ycircumflex" unicode="&#x177;" horiz-adv-x="490" 
d="M498 495l-268 -730h-142l89 240l-180 490h156l65 -201q22 -65 34 -125h4q6 37 32 125l63 201h147zM255 772l171 -127l-50 -75l-121 76l-121 -76l-50 75z" />
    <glyph glyph-name="Ydieresis" unicode="&#x178;" horiz-adv-x="622" 
d="M232 0v270l-226 412h172l100 -190q19 -36 37 -87h2q16 46 36 86l94 191h169l-224 -411v-271h-160zM163 770v118h121v-118h-121zM350 770v118h121v-118h-121z" />
    <glyph glyph-name="Zacute" unicode="&#x179;" horiz-adv-x="624" 
d="M54 544v138h517v-130l-332 -414h348v-138h-550v129l332 415h-315zM391 916l46 -109l-199 -76l-40 91z" />
    <glyph glyph-name="zacute" unicode="&#x17a;" horiz-adv-x="504" 
d="M45 371v124h412v-120l-232 -250h245v-125h-437v121l233 250h-221zM149 654l167 134l68 -95l-177 -119z" />
    <glyph glyph-name="Zdotaccent" unicode="&#x17b;" horiz-adv-x="624" 
d="M54 544v138h517v-130l-332 -414h348v-138h-550v129l332 415h-315zM230 770v121h126v-121h-126z" />
    <glyph glyph-name="zdotaccent" unicode="&#x17c;" horiz-adv-x="504" 
d="M45 371v124h412v-120l-232 -250h245v-125h-437v121l233 250h-221zM183 606v121h126v-121h-126z" />
    <glyph glyph-name="Zcaron" unicode="&#x17d;" horiz-adv-x="624" 
d="M54 544v138h517v-130l-332 -414h348v-138h-550v129l332 415h-315zM298 730l-173 104l38 77l135 -60l136 60l37 -77z" />
    <glyph glyph-name="zcaron" unicode="&#x17e;" horiz-adv-x="504" 
d="M45 371v124h412v-120l-232 -250h245v-125h-437v121l233 250h-221zM247 570l-171 127l50 75l121 -76l121 76l50 -75z" />
    <glyph glyph-name="longs" unicode="&#x17f;" horiz-adv-x="286" 
d="M350 707l-34 -116q-21 8 -39 8q-61 0 -61 -65v-534h-152v549q0 87 45.5 132t132.5 45q63 0 108 -19z" />
    <glyph glyph-name="florin" unicode="&#x192;" horiz-adv-x="576" 
d="M138 -63l68 418h-71v127h89l6 46q14 89 57.5 132.5t125.5 43.5q32 0 83 -8v-124q-28 5 -50 5q-55 0 -67 -66l-4 -29h84v-127h-102l-68 -425q-30 -188 -182 -188q-46 0 -86 9v125q26 -7 53 -7q28 0 43 16t21 52z" />
    <glyph glyph-name="Scommaaccent" unicode="&#x218;" horiz-adv-x="533" 
d="M474 593l-121 -80q-32 62 -88 62q-29 0 -47.5 -18t-18.5 -48q0 -32 26.5 -52t85.5 -40q189 -69 189 -228q0 -83 -60 -147t-175 -64q-178 0 -232 129l138 72q27 -72 96 -72q35 0 56.5 20.5t21.5 52.5q0 37 -25.5 60.5t-90.5 46.5q-184 63 -184 219q0 90 64 144t158 54
q140 0 207 -111zM201 -155v100h122v-65q0 -76 -38 -129h-67q28 40 28 94h-45z" />
    <glyph glyph-name="scommaaccent" unicode="&#x219;" horiz-adv-x="454" 
d="M43 88l112 65q24 -65 77 -65q45 0 45 39q0 26 -20.5 42.5t-75.5 34.5q-69 23 -101.5 59t-32.5 94q0 70 51 112.5t134 42.5q108 0 158 -79l-100 -73q-28 46 -65 46q-41 0 -41 -39q0 -19 18 -34t73 -33q76 -25 109.5 -63.5t33.5 -94.5q0 -71 -52 -115.5t-145 -44.5
q-133 0 -178 106zM162 -158v100h122v-65q0 -76 -38 -129h-67q28 40 28 94h-45z" />
    <glyph glyph-name="uni021A" unicode="&#x21a;" horiz-adv-x="497" 
d="M168 0v544h-162v138h485v-138h-162v-544h-161zM186 -155v100h122v-65q0 -76 -38 -129h-67q28 40 28 94h-45z" />
    <glyph glyph-name="uni021B" unicode="&#x21b;" horiz-adv-x="361" 
d="M10 368v127h60v159h150v-159h115v-127h-115v-178q0 -40 13.5 -55t46.5 -15q23 0 46 9l26 -118q-56 -18 -113 -18q-89 0 -129 44t-40 135v196h-60zM149 -156v100h122v-65q0 -76 -38 -129h-67q28 40 28 94h-45z" />
    <glyph glyph-name="dotlessj" unicode="&#x237;" horiz-adv-x="276" 
d="M213 495v-525q0 -117 -51 -173.5t-143 -56.5q-58 0 -100 14v128q29 -9 67 -9q39 0 58 21.5t19 74.5v526h150z" />
    <glyph glyph-name="circumflex" unicode="&#x2c6;" horiz-adv-x="320" 
d="M160 752l171 -127l-50 -75l-121 76l-121 -76l-50 75z" />
    <glyph glyph-name="caron" unicode="&#x2c7;" horiz-adv-x="320" 
d="M160 550l-171 127l50 75l121 -76l121 76l50 -75z" />
    <glyph glyph-name="uni02C9" unicode="&#x2c9;" horiz-adv-x="320" 
d="M310 590h-300v97h300v-97z" />
    <glyph glyph-name="breve" unicode="&#x2d8;" horiz-adv-x="320" 
d="M234 730h96q-4 -75 -52 -119t-118 -44q-75 0 -120.5 43t-49.5 120h96q3 -28 22 -45t52 -17t52.5 17.5t21.5 44.5z" />
    <glyph glyph-name="dotaccent" unicode="&#x2d9;" horiz-adv-x="320" 
d="M97 586v121h126v-121h-126z" />
    <glyph glyph-name="ring" unicode="&#x2da;" horiz-adv-x="320" 
d="M109 661q0 -22 15.5 -37.5t37.5 -15.5t37 15.5t15 37.5t-15 37t-37 15t-37.5 -15t-15.5 -37zM30 661q0 55 37.5 93t94.5 38q55 0 93 -38t38 -93t-38 -93.5t-93 -38.5q-57 0 -94.5 38t-37.5 94z" />
    <glyph glyph-name="ogonek" unicode="&#x2db;" horiz-adv-x="320" 
d="M231 -126l13 -96q-31 -9 -69 -9q-62 0 -93 32.5t-31 82.5q0 35 21 66.5t56 49.5h84q-54 -48 -54 -88q0 -41 47 -41q15 0 26 3z" />
    <glyph glyph-name="tilde" unicode="&#x2dc;" horiz-adv-x="320" 
d="M65 586h-84q3 66 31.5 104.5t79.5 38.5q39 0 75 -27q40 -26 59 -26q28 0 29 43h84q-6 -143 -113 -143q-43 0 -80 27q-37 26 -53 26q-27 0 -28 -43z" />
    <glyph glyph-name="hungarumlaut" unicode="&#x2dd;" horiz-adv-x="320" 
d="M89 753l98 -58l-111 -157l-82 50zM273 753l98 -58l-111 -157l-82 50z" />
    <glyph glyph-name="uni037E" unicode="&#x37e;" horiz-adv-x="305" 
d="M64 0v164h177v-68q0 -120 -70 -231h-85q43 76 52 135h-74zM64 311v165h177v-165h-177z" />
    <glyph glyph-name="tonos" unicode="&#x384;" horiz-adv-x="318" 
d="M86 562l32 191l121 -28l-64 -185z" />
    <glyph glyph-name="dieresistonos" unicode="&#x385;" horiz-adv-x="338" 
d="M-24 570v112h100v-112h-100zM253 570v112h100v-112h-100zM108 569l32 191l112 -28l-65 -183z" />
    <glyph glyph-name="Alphatonos" unicode="&#x386;" horiz-adv-x="672" 
d="M503 0l-49 148h-239l-49 -148h-159l262 682h150l246 -682h-162zM304 411l-52 -153h165l-51 154q-15 41 -28 94h-5q-14 -51 -29 -95zM21 537l32 191l121 -28l-64 -185z" />
    <glyph glyph-name="anoteleia" unicode="&#x387;" horiz-adv-x="295" 
d="M60 280v165h178v-165h-178z" />
    <glyph glyph-name="Epsilontonos" unicode="&#x388;" horiz-adv-x="649" 
d="M583 682v-138h-257v-127h248v-130h-248v-149h267v-138h-427v682h417zM-10 537l32 191l121 -28l-64 -185z" />
    <glyph glyph-name="Etatonos" unicode="&#x389;" horiz-adv-x="798" 
d="M571 0v283h-244v-283h-160v682h160v-261h244v261h160v-682h-160zM-10 537l32 191l121 -28l-64 -185z" />
    <glyph glyph-name="Iotatonos" unicode="&#x38a;" horiz-adv-x="392" 
d="M166 0v682h160v-682h-160zM-10 537l32 191l121 -28l-64 -185z" />
    <glyph glyph-name="Omicrontonos" unicode="&#x38c;" horiz-adv-x="846" 
d="M254 341q0 -94 57 -156.5t142 -62.5t142 62.5t57 156.5q0 93 -55 156t-143 63q-85 0 -142.5 -62.5t-57.5 -156.5zM92 341q0 149 103.5 256t259.5 107q162 0 261 -107t99 -256q0 -150 -104 -256.5t-257 -106.5q-90 0 -161.5 32.5t-114 86t-64.5 116.5t-22 128zM-10 537
l32 191l121 -28l-64 -185z" />
    <glyph glyph-name="Upsilontonos" unicode="&#x38e;" horiz-adv-x="752" 
d="M-10 537l32 191l121 -28l-6 -18h171l100 -190q19 -36 37 -87h2q16 45 36 86l94 191h169l-224 -411v-271h-160v270l-226 411l-57 -166z" />
    <glyph glyph-name="Omegatonos" unicode="&#x38f;" horiz-adv-x="838" 
d="M806 377q0 -72 -31.5 -136.5t-89.5 -98.5v-5h120v-137h-309v161q66 17 107 75t41 133q0 87 -53 143t-137 56q-81 0 -135 -55.5t-54 -143.5q0 -75 41 -133t107 -75v-161h-308v137h118v5q-57 33 -88.5 98t-31.5 137q0 139 100 233t253 94q159 0 254.5 -94t95.5 -233z
M-10 537l32 191l121 -28l-64 -185z" />
    <glyph glyph-name="iotadieresistonos" unicode="&#x390;" horiz-adv-x="308" 
d="M58 495h150v-314q0 -34 9 -47.5t30 -13.5q13 0 37 6l19 -119q-39 -15 -96 -15q-149 0 -149 167v336zM-47 570v112h100v-112h-100zM230 570v112h100v-112h-100zM85 569l32 191l112 -28l-65 -183z" />
    <glyph glyph-name="Alpha" unicode="&#x391;" horiz-adv-x="672" 
d="M503 0l-49 148h-239l-49 -148h-159l262 682h150l246 -682h-162zM304 411l-52 -153h165l-51 154q-15 41 -28 94h-5q-14 -51 -29 -95z" />
    <glyph glyph-name="Beta" unicode="&#x392;" horiz-adv-x="571" 
d="M67 0v682h201q110 0 175 -43.5t65 -128.5q0 -54 -35.5 -92.5t-89.5 -49.5v-2q74 -12 115 -59.5t41 -108.5q0 -92 -68 -145t-174 -53h-230zM378 212q0 40 -28 65t-76 25h-58v-184h60q49 0 75.5 24t26.5 70zM351 495q0 34 -24 53t-68 19h-43v-152h48q87 0 87 80z" />
    <glyph glyph-name="Gamma" unicode="&#x393;" horiz-adv-x="490" 
d="M484 682v-138h-257v-544h-161v682h418z" />
    <glyph glyph-name="uni0394" unicode="&#x394;" horiz-adv-x="672" 
d="M7 0l262 682h150l246 -682h-658zM304 411l-98 -286h257l-101 295q-12 35 -24 86h-5q-14 -51 -29 -95z" />
    <glyph glyph-name="Epsilon" unicode="&#x395;" horiz-adv-x="549" 
d="M483 682v-138h-257v-127h248v-130h-248v-149h267v-138h-427v682h417z" />
    <glyph glyph-name="Zeta" unicode="&#x396;" horiz-adv-x="624" 
d="M54 544v138h517v-130l-332 -414h348v-138h-550v129l332 415h-315z" />
    <glyph glyph-name="Eta" unicode="&#x397;" horiz-adv-x="698" 
d="M471 0v283h-244v-283h-160v682h160v-261h244v261h160v-682h-160z" />
    <glyph glyph-name="Theta" unicode="&#x398;" horiz-adv-x="786" 
d="M255 283v130h276v-130h-276zM194 341q0 -94 57 -156.5t142 -62.5t142 62.5t57 156.5q0 93 -55 156t-143 63q-85 0 -142.5 -62.5t-57.5 -156.5zM32 341q0 149 103.5 256t259.5 107q162 0 261 -107t99 -256q0 -150 -104 -256.5t-257 -106.5q-90 0 -161.5 32.5t-114 86
t-64.5 116.5t-22 128z" />
    <glyph glyph-name="Iota" unicode="&#x399;" horiz-adv-x="292" 
d="M66 0v682h160v-682h-160z" />
    <glyph glyph-name="Kappa" unicode="&#x39a;" horiz-adv-x="679" 
d="M227 682v-257l243 257h198l-293 -304l326 -378h-201l-273 324v-324h-160v682h160z" />
    <glyph glyph-name="Lambda" unicode="&#x39b;" horiz-adv-x="635" 
d="M-5 0l253 682h143l247 -682h-171l-110 338q-29 91 -41 151h-4q-11 -59 -41 -152l-111 -337h-165z" />
    <glyph glyph-name="Mu" unicode="&#x39c;" horiz-adv-x="825" 
d="M706 682l86 -682h-154l-31 317q-6 46 -13 141h-7l-17.5 -68.5t-19.5 -72.5l-89 -317h-108l-92 320q-22 74 -35 138h-9q-2 -65 -10 -136l-32 -322h-143l81 682h174l87 -289q27 -87 36 -125h3q5 16 17.5 60.5l18.5 64.5l84 289h173z" />
    <glyph glyph-name="Nu" unicode="&#x39d;" horiz-adv-x="680" 
d="M202 445h-4q0 -15 2 -63.5t2 -62.5v-319h-136v682h136l181 -283q26 -41 45 -74l32 -57.5l19 -35.5h3q-3 93 -3 117v333h135v-682h-135l-161 250l-57 90t-40.5 70.5t-18.5 34.5z" />
    <glyph glyph-name="Xi" unicode="&#x39e;" horiz-adv-x="548" 
d="M32 138h484v-138h-484v138zM499 544h-450v138h450v-138zM75 287v130h398v-130h-398z" />
    <glyph glyph-name="Omicron" unicode="&#x39f;" horiz-adv-x="786" 
d="M194 341q0 -94 57 -156.5t142 -62.5t142 62.5t57 156.5q0 93 -55 156t-143 63q-85 0 -142.5 -62.5t-57.5 -156.5zM32 341q0 149 103.5 256t259.5 107q162 0 261 -107t99 -256q0 -150 -104 -256.5t-257 -106.5q-90 0 -161.5 32.5t-114 86t-64.5 116.5t-22 128z" />
    <glyph glyph-name="Pi" unicode="&#x3a0;" horiz-adv-x="688" 
d="M461 0v544h-234v-544h-160v682h554v-682h-160z" />
    <glyph glyph-name="Rho" unicode="&#x3a1;" horiz-adv-x="570" 
d="M390 458q0 42 -26.5 70t-81.5 28h-56v-194h53q111 0 111 96zM66 0v682h224q116 0 188.5 -56.5t72.5 -165.5q0 -106 -67 -165t-198 -59h-60v-236h-160z" />
    <glyph glyph-name="Sigma" unicode="&#x3a3;" horiz-adv-x="558" 
d="M409 352l-175 -214h274v-138h-472v116l194 234l-176 214v118h444v-138h-246z" />
    <glyph glyph-name="Tau" unicode="&#x3a4;" horiz-adv-x="497" 
d="M168 0v544h-162v138h485v-138h-162v-544h-161z" />
    <glyph glyph-name="Upsilon" unicode="&#x3a5;" horiz-adv-x="622" 
d="M232 0v270l-226 412h172l100 -190q19 -36 37 -87h2q16 46 36 86l94 191h169l-224 -411v-271h-160z" />
    <glyph glyph-name="Phi" unicode="&#x3a6;" horiz-adv-x="821" 
d="M335 -40v77q-150 19 -225.5 105.5t-75.5 197.5q0 115 81.5 199.5t219.5 105.5v76h151v-75q142 -19 221.5 -104t79.5 -201t-82.5 -199.5t-218.5 -103.5v-78h-151zM191 341q0 -64 38.5 -113t105.5 -61v349q-66 -12 -105 -61.5t-39 -113.5zM630 341q0 64 -38.5 113.5
t-105.5 61.5v-348q65 12 104.5 60.5t39.5 112.5z" />
    <glyph glyph-name="Chi" unicode="&#x3a7;" horiz-adv-x="630" 
d="M182 682l88 -137q20 -30 48 -81h3q27 52 48 83l84 135h169l-224 -326l234 -356h-176l-90 145q-10 16 -54 94h-2l-56 -96l-87 -143h-169l232 351l-224 331h176z" />
    <glyph glyph-name="Psi" unicode="&#x3a8;" horiz-adv-x="815" 
d="M332 0v151q-278 29 -278 289v242h153v-244q0 -65 29 -103t96 -50v397h151v-397q66 12 95.5 50t29.5 103v244h153v-242q0 -258 -278 -289v-151h-151z" />
    <glyph glyph-name="uni03A9" unicode="&#x3a9;" horiz-adv-x="767" 
d="M735 377q0 -72 -31.5 -136.5t-89.5 -98.5v-5h120v-137h-309v161q66 17 107 75t41 133q0 87 -53 143t-137 56q-81 0 -135 -55.5t-54 -143.5q0 -75 41 -133t107 -75v-161h-308v137h118v5q-57 33 -88.5 98t-31.5 137q0 139 100 233t253 94q159 0 254.5 -94t95.5 -233z" />
    <glyph glyph-name="Iotadieresis" unicode="&#x3aa;" horiz-adv-x="292" 
d="M66 0v682h160v-682h-160zM-8 770v118h121v-118h-121zM179 770v118h121v-118h-121z" />
    <glyph glyph-name="Upsilondieresis" unicode="&#x3ab;" horiz-adv-x="622" 
d="M232 0v270l-226 412h172l100 -190q19 -36 37 -87h2q16 46 36 86l94 191h169l-224 -411v-271h-160zM163 770v118h121v-118h-121zM350 770v118h121v-118h-121z" />
    <glyph glyph-name="alphatonos" unicode="&#x3ac;" horiz-adv-x="624" 
d="M411 418h3q3 32 16 77h142q-27 -110 -27 -223v-95q0 -50 31 -50q8 0 20 2l11 -131q-33 -11 -69 -11q-97 0 -124 84h-3q-58 -88 -162 -88q-36 0 -72.5 15t-70.5 45t-55.5 83.5t-21.5 121.5q0 116 68 188.5t162 72.5q103 0 152 -91zM183 247q0 -55 29.5 -94t85.5 -39
q45 0 75 38.5t30 93.5q0 59 -29 97t-76 38q-54 0 -84.5 -40t-30.5 -94zM266 562l32 191l121 -28l-64 -185z" />
    <glyph glyph-name="epsilontonos" unicode="&#x3ad;" horiz-adv-x="477" 
d="M458 464l-56 -104q-66 42 -131 42q-38 0 -58.5 -12.5t-20.5 -33.5q0 -26 26.5 -39.5t70.5 -13.5h52v-102h-64q-50 0 -76.5 -14.5t-26.5 -38.5q0 -26 26.5 -41t66.5 -15q70 0 144 52l59 -97q-84 -66 -214 -66q-108 0 -169.5 44t-61.5 112q0 51 31.5 83t79.5 42v2
q-40 10 -65.5 36t-25.5 70q0 63 58.5 102.5t158.5 39.5q117 0 196 -48zM202 562l32 191l121 -28l-64 -185z" />
    <glyph glyph-name="etatonos" unicode="&#x3ae;" horiz-adv-x="607" 
d="M63 0v272q0 122 -17 223h144q8 -30 12 -81h2q44 97 156 97q89 0 139 -58.5t50 -169.5v-518h-151v509q0 51 -23 78t-64 27q-44 0 -70.5 -30t-26.5 -87v-262h-151zM252 562l32 191l121 -28l-64 -185z" />
    <glyph glyph-name="iotatonos" unicode="&#x3af;" horiz-adv-x="308" 
d="M58 495h150v-314q0 -34 9 -47.5t30 -13.5q13 0 37 6l19 -119q-39 -15 -96 -15q-149 0 -149 167v336zM88 562l32 191l121 -28l-64 -185z" />
    <glyph glyph-name="upsilondieresistonos" unicode="&#x3b0;" horiz-adv-x="593" 
d="M561 267q0 -143 -75 -213t-179 -70q-109 0 -179.5 56.5t-70.5 175.5v279h151v-268q0 -55 26.5 -82.5t71.5 -27.5t74.5 35.5t29.5 104.5q0 54 -14 99.5t-45 106.5l138 56q72 -111 72 -252zM103 570v112h100v-112h-100zM380 570v112h100v-112h-100zM235 569l32 191l112 -28
l-65 -183z" />
    <glyph glyph-name="alpha" unicode="&#x3b1;" horiz-adv-x="623" 
d="M411 418h3q3 32 16 77h142q-27 -110 -27 -223v-95q0 -50 31 -50q8 0 20 2l11 -131q-33 -11 -69 -11q-97 0 -124 84h-3q-58 -88 -162 -88q-36 0 -72.5 15t-70.5 45t-55.5 83.5t-21.5 121.5q0 116 68 188.5t162 72.5q103 0 152 -91zM183 247q0 -55 29.5 -94t85.5 -39
q45 0 75 38.5t30 93.5q0 59 -29 97t-76 38q-54 0 -84.5 -40t-30.5 -94z" />
    <glyph glyph-name="beta" unicode="&#x3b2;" horiz-adv-x="614" 
d="M314 730q99 0 174 -55t75 -152q0 -66 -35.5 -107t-91.5 -53v-2q65 -9 107 -52.5t42 -111.5q0 -94 -58 -154t-162 -60q-103 0 -154 75h-2v-293h-147v713q0 120 70 186t182 66zM410 512q0 39 -27 63t-67 24q-47 0 -77 -32t-30 -93v-240q0 -60 31 -91.5t85 -31.5
q48 0 77.5 22t29.5 66q0 47 -42 70.5t-111 24.5v121h12q56 0 87.5 25t31.5 72z" />
    <glyph glyph-name="gamma" unicode="&#x3b3;" horiz-adv-x="504" 
d="M497 499v-10q0 -133 -48 -257t-124 -215v-252h-147v235l-187 495h156l63 -187q34 -102 47 -155h3q87 125 87 335v11h150z" />
    <glyph glyph-name="delta" unicode="&#x3b4;" horiz-adv-x="586" 
d="M550 721v-124h-247l146 -142q67 -64 88 -123q18 -48 18 -94q0 -107 -77.5 -181.5t-185.5 -74.5q-110 0 -186.5 73.5t-76.5 181.5q0 99 66 165t156 76l1 1l-162 160v82h460zM407 234q0 49 -31 83q-31 36 -84 36q-50 0 -81 -34t-31 -85q0 -50 32 -85t80 -35q50 0 82.5 35
t32.5 85z" />
    <glyph glyph-name="epsilon" unicode="&#x3b5;" horiz-adv-x="477" 
d="M458 464l-56 -104q-66 42 -131 42q-38 0 -58.5 -12.5t-20.5 -33.5q0 -26 26.5 -39.5t70.5 -13.5h52v-102h-64q-50 0 -76.5 -14.5t-26.5 -38.5q0 -26 26.5 -41t66.5 -15q70 0 144 52l59 -97q-84 -66 -214 -66q-108 0 -169.5 44t-61.5 112q0 51 31.5 83t79.5 42v2
q-40 10 -65.5 36t-25.5 70q0 63 58.5 102.5t158.5 39.5q117 0 196 -48z" />
    <glyph glyph-name="zeta" unicode="&#x3b6;" horiz-adv-x="500" 
d="M29 237q0 83 56 161q23 32 83 89l118 110h-228v124h420v-110l-228 -228q-67 -67 -67 -142q0 -53 29.5 -82t90.5 -48q41 -13 69.5 -26t56.5 -35t42.5 -56t14.5 -80q0 -57 -32 -108l-126 43q17 31 17 57q0 47 -87 73q-113 33 -171 91.5t-58 166.5z" />
    <glyph glyph-name="eta" unicode="&#x3b7;" horiz-adv-x="607" 
d="M63 0v272q0 122 -17 223h144q8 -30 12 -81h2q44 97 156 97q89 0 139 -58.5t50 -169.5v-518h-151v509q0 51 -23 78t-64 27q-44 0 -70.5 -30t-26.5 -87v-262h-151z" />
    <glyph glyph-name="theta" unicode="&#x3b8;" horiz-adv-x="599" 
d="M41 360q0 185 76.5 277.5t188.5 92.5q50 0 93 -19.5t80 -60.5t58 -114.5t21 -172.5q0 -87 -16.5 -155.5t-42.5 -110t-61 -68.5t-68.5 -37t-69.5 -10q-40 0 -76 11.5t-70 39t-58.5 69.5t-39.5 108.5t-15 149.5zM302 113q44 0 72 47.5t35 138.5h-219q5 -90 34 -138t78 -48z
M300 600q-46 0 -75 -47.5t-35 -133.5h219q-12 181 -109 181z" />
    <glyph glyph-name="iota" unicode="&#x3b9;" horiz-adv-x="308" 
d="M58 495h150v-314q0 -34 9 -47.5t30 -13.5q13 0 37 6l19 -119q-39 -15 -96 -15q-149 0 -149 167v336z" />
    <glyph glyph-name="kappa" unicode="&#x3ba;" horiz-adv-x="573" 
d="M579 0h-181l-184 232v-232h-151v495h151v-200l173 200h183l-209 -226z" />
    <glyph glyph-name="lambda" unicode="&#x3bb;" horiz-adv-x="512" 
d="M200 492l-13 36q-26 74 -75 74q-18 0 -38 -8l-28 119q39 17 94 17q64 0 106 -35.5t71 -118.5l200 -576h-151l-59 177q-25 74 -39 143h-3q-12 -55 -39 -127l-71 -193h-155z" />
    <glyph glyph-name="uni03BC" unicode="&#x3bc;" horiz-adv-x="616" 
d="M63 -235v730h151v-274q0 -104 77 -104q95 0 95 124v254h152v-318q0 -50 31 -50q6 0 20 2l11 -131q-33 -11 -69 -11q-109 0 -132 79h-3q-40 -82 -120 -82q-43 0 -71 21l-3 -2q12 -44 12 -126v-112h-151z" />
    <glyph glyph-name="nu" unicode="&#x3bd;" horiz-adv-x="504" 
d="M497 499v-10q0 -144 -56.5 -273.5t-144.5 -215.5h-121l-184 495h156l61 -190q6 -19 46 -155h3q90 129 90 338v11h150z" />
    <glyph glyph-name="xi" unicode="&#x3be;" horiz-adv-x="497" 
d="M29 187q0 60 42 110.5t104 63.5v2q-53 15 -88.5 56t-35.5 106q0 95 72.5 150t172.5 55q114 0 183 -47l-60 -123q-63 39 -118 39q-42 0 -69.5 -24.5t-27.5 -62.5q0 -46 35.5 -71.5t101.5 -25.5h81v-121h-84q-73 0 -114.5 -24.5t-41.5 -66.5q0 -37 28.5 -59t88.5 -38
q41 -11 69.5 -23t56.5 -33.5t42.5 -55t14.5 -79.5q0 -58 -32 -109l-126 43q17 31 17 57t-21.5 41t-65.5 27q-59 16 -95 30.5t-68.5 38.5t-47 59t-14.5 85z" />
    <glyph glyph-name="omicron" unicode="&#x3bf;" horiz-adv-x="589" 
d="M29 248q0 114 75.5 189t189.5 75q116 0 190.5 -75.5t74.5 -188.5q0 -111 -75.5 -188.5t-189.5 -77.5q-113 0 -189 77t-76 189zM181 247q0 -57 32 -94t81 -37q52 0 83 37t31 94t-30.5 94.5t-83.5 37.5t-83 -37t-30 -95z" />
    <glyph glyph-name="pi" unicode="&#x3c0;" horiz-adv-x="682" 
d="M150 495h506v-127h-109v-187q0 -34 9 -47.5t30 -13.5q13 0 37 6l19 -119q-39 -15 -96 -15q-149 0 -149 167v209h-117v-179q0 -115 -27 -189h-152q30 103 30 189v179h-15q-41 0 -84 -19l-40 115q59 31 158 31z" />
    <glyph glyph-name="rho" unicode="&#x3c1;" horiz-adv-x="618" 
d="M62 -235v472q0 131 76.5 201.5t185.5 70.5q112 0 188.5 -75t76.5 -190q0 -117 -68 -189t-166 -72q-43 0 -81.5 19t-61.5 56h-3v-293h-147zM436 248q0 54 -30.5 92t-86.5 38q-48 0 -81.5 -36.5t-33.5 -98.5q0 -59 33.5 -95.5t81.5 -36.5q55 0 86 40.5t31 96.5z" />
    <glyph glyph-name="sigma1" unicode="&#x3c2;" horiz-adv-x="507" 
d="M183 248q0 -57 29.5 -87.5t90.5 -49.5q42 -13 70 -26t56.5 -35t42.5 -56t14 -80q0 -57 -32 -108l-126 43q17 31 17 57q0 47 -87 73q-113 33 -171 94t-58 174q0 115 73.5 190t195.5 75q120 0 197 -64l-72 -119q-26 19 -39 27t-37 17t-48 9q-53 0 -84.5 -36t-31.5 -98z" />
    <glyph glyph-name="sigma" unicode="&#x3c3;" horiz-adv-x="621" 
d="M606 368h-105v-2q50 -50 50 -134q0 -107 -71.5 -178.5t-186.5 -71.5q-112 0 -188 69t-76 187q0 111 75 184t198 73h304v-127zM181 241q0 -57 31.5 -91t79.5 -34q51 0 80 36.5t29 91.5q0 62 -41 124h-50q-59 0 -94 -36t-35 -91z" />
    <glyph glyph-name="tau" unicode="&#x3c4;" horiz-adv-x="444" 
d="M129 368h-13q-41 0 -84 -19l-40 115q59 31 158 31h268v-127h-139v-181q0 -39 13.5 -54.5t43.5 -15.5q18 0 47 9l23 -118q-56 -18 -111 -18q-88 0 -127 44t-39 135v199z" />
    <glyph glyph-name="upsilon" unicode="&#x3c5;" horiz-adv-x="593" 
d="M561 267q0 -143 -75 -213t-179 -70q-109 0 -179.5 56.5t-70.5 175.5v279h151v-268q0 -55 26.5 -82.5t71.5 -27.5t74.5 35.5t29.5 104.5q0 54 -14 99.5t-45 106.5l138 56q72 -111 72 -252z" />
    <glyph glyph-name="phi" unicode="&#x3c6;" horiz-adv-x="739" 
d="M501 512q104 0 156 -67t52 -153q0 -133 -76.5 -210.5t-192.5 -91.5v-225h-144v224q-116 14 -191 87t-75 209q0 119 75 236l129 -62q-30 -54 -44 -94t-14 -86q0 -66 33 -113t87 -59v187q0 104 55.5 161t149.5 57zM564 288q0 47 -18 76t-48 29q-29 0 -43.5 -25.5
t-14.5 -67.5v-192q56 11 90 61.5t34 118.5z" />
    <glyph glyph-name="chi" unicode="&#x3c7;" horiz-adv-x="511" 
d="M262 254h3q13 50 24 74l73 167h159l-170 -350l170 -380h-163l-73 180q-17 42 -30 95h-2q-22 -62 -34 -90l-80 -185h-159l188 381l-63 151q-17 41 -31 60.5t-32 19.5q-11 0 -25 -4l-23 120q33 12 73 12q52 0 89 -26t64 -98l21 -55q14 -38 21 -72z" />
    <glyph glyph-name="psi" unicode="&#x3c8;" horiz-adv-x="765" 
d="M320 -235v224q-112 11 -187.5 78t-75.5 189v239h144v-235q0 -65 33.5 -105t85.5 -47v613h144v-613q55 10 89 60.5t34 119.5q0 74 -45 177l131 56q60 -98 60 -224q0 -137 -76 -215.5t-193 -91.5v-225h-144z" />
    <glyph glyph-name="omega" unicode="&#x3c9;" horiz-adv-x="855" 
d="M30 263q0 134 85 255l135 -64q-36 -61 -52.5 -105.5t-16.5 -95.5q0 -68 25 -103t64 -35q38 0 60 28t22 83v94h151v-94q0 -55 22.5 -83t60.5 -28q39 0 63.5 37t24.5 101q0 37 -10 73t-22 59.5t-37 68.5l137 63q83 -117 83 -254q0 -143 -67.5 -212t-164.5 -69
q-117 0 -167 92h-2q-56 -92 -162 -92q-96 0 -164 69t-68 212z" />
    <glyph glyph-name="iotadieresis" unicode="&#x3ca;" horiz-adv-x="308" 
d="M58 495h150v-314q0 -34 9 -47.5t30 -13.5q13 0 37 6l19 -119q-39 -15 -96 -15q-149 0 -149 167v336zM-19 590v118h121v-118h-121zM168 590v118h121v-118h-121z" />
    <glyph glyph-name="upsilondieresis" unicode="&#x3cb;" horiz-adv-x="593" 
d="M561 267q0 -143 -75 -213t-179 -70q-109 0 -179.5 56.5t-70.5 175.5v279h151v-268q0 -55 26.5 -82.5t71.5 -27.5t74.5 35.5t29.5 104.5q0 54 -14 99.5t-45 106.5l138 56q72 -111 72 -252zM139 590v118h121v-118h-121zM326 590v118h121v-118h-121z" />
    <glyph glyph-name="omicrontonos" unicode="&#x3cc;" horiz-adv-x="589" 
d="M29 248q0 114 75.5 189t189.5 75q116 0 190.5 -75.5t74.5 -188.5q0 -111 -75.5 -188.5t-189.5 -77.5q-113 0 -189 77t-76 189zM181 247q0 -57 32 -94t81 -37q52 0 83 37t31 94t-30.5 94.5t-83.5 37.5t-83 -37t-30 -95zM248 562l32 191l121 -28l-64 -185z" />
    <glyph glyph-name="upsilontonos" unicode="&#x3cd;" horiz-adv-x="593" 
d="M561 267q0 -143 -75 -213t-179 -70q-109 0 -179.5 56.5t-70.5 175.5v279h151v-268q0 -55 26.5 -82.5t71.5 -27.5t74.5 35.5t29.5 104.5q0 54 -14 99.5t-45 106.5l138 56q72 -111 72 -252zM243 562l32 191l121 -28l-64 -185z" />
    <glyph glyph-name="omegatonos" unicode="&#x3ce;" horiz-adv-x="859" 
d="M32 263q0 134 85 255l135 -64q-36 -61 -52.5 -105.5t-16.5 -95.5q0 -68 25 -103t64 -35q38 0 60 28t22 83v94h151v-94q0 -55 22.5 -83t60.5 -28q39 0 63.5 37t24.5 101q0 37 -10 73t-22 59.5t-37 68.5l137 63q83 -117 83 -254q0 -143 -67.5 -212t-164.5 -69
q-117 0 -167 92h-2q-56 -92 -162 -92q-96 0 -164 69t-68 212zM378 562l32 191l121 -28l-64 -185z" />
    <glyph glyph-name="uni0400" unicode="&#x400;" horiz-adv-x="549" 
d="M483 682v-138h-257v-127h248v-130h-248v-149h267v-138h-427v682h417zM142 807l46 109l193 -94l-40 -91z" />
    <glyph glyph-name="uni0401" unicode="&#x401;" horiz-adv-x="549" 
d="M483 682v-138h-257v-127h248v-130h-248v-149h267v-138h-427v682h417zM119 770v118h121v-118h-121zM306 770v118h121v-118h-121z" />
    <glyph glyph-name="uni0402" unicode="&#x402;" horiz-adv-x="740" 
d="M544 213q0 58 -30 87t-77 29q-45 0 -76.5 -33.5t-31.5 -89.5v-206h-161v544h-162v138h515v-138h-192v-164h2q27 35 70.5 58t90.5 23q92 0 152.5 -63.5t60.5 -175.5q0 -111 -60 -175.5t-152 -64.5q-55 0 -96 13l20 119q24 -8 48 -8q36 0 57.5 28.5t21.5 78.5z" />
    <glyph glyph-name="uni0403" unicode="&#x403;" horiz-adv-x="490" 
d="M484 682v-138h-257v-544h-161v682h418zM364 916l46 -109l-199 -76l-40 91z" />
    <glyph glyph-name="uni0404" unicode="&#x404;" horiz-adv-x="682" 
d="M550 207l108 -110q-56 -64 -117.5 -91.5t-154.5 -27.5q-158 0 -256 103.5t-98 261.5q0 156 100 258.5t254 102.5q186 0 278 -125l-122 -94q-63 75 -156 75q-69 0 -118 -40.5t-68 -106.5h330v-130h-332q16 -70 67 -115.5t123 -45.5q47 0 84.5 20.5t77.5 64.5z" />
    <glyph glyph-name="uni0405" unicode="&#x405;" horiz-adv-x="533" 
d="M474 593l-121 -80q-32 62 -88 62q-29 0 -47.5 -18t-18.5 -48q0 -32 26.5 -52t85.5 -40q189 -69 189 -228q0 -83 -60 -147t-175 -64q-178 0 -232 129l138 72q27 -72 96 -72q35 0 56.5 20.5t21.5 52.5q0 37 -25.5 60.5t-90.5 46.5q-184 63 -184 219q0 90 64 144t158 54
q140 0 207 -111z" />
    <glyph glyph-name="uni0406" unicode="&#x406;" horiz-adv-x="292" 
d="M66 0v682h160v-682h-160z" />
    <glyph glyph-name="uni0407" unicode="&#x407;" horiz-adv-x="292" 
d="M66 0v682h160v-682h-160zM-8 770v118h121v-118h-121zM179 770v118h121v-118h-121z" />
    <glyph glyph-name="uni0408" unicode="&#x408;" horiz-adv-x="398" 
d="M176 217v465h161v-465q0 -126 -58.5 -182.5t-172.5 -56.5q-65 0 -111 24l35 126q28 -15 62 -15q46 0 65 22.5t19 81.5z" />
    <glyph glyph-name="uni0409" unicode="&#x409;" horiz-adv-x="907" 
d="M5 0l240 682h149l88 -260h131q119 0 191 -50.5t72 -154.5q0 -101 -67.5 -159t-196.5 -58h-154l-100 336q-29 97 -41 154h-4q-12 -57 -41 -155l-103 -335h-164zM715 214q0 37 -27.5 59.5t-82.5 22.5h-79l56 -170h23q110 0 110 88z" />
    <glyph glyph-name="uni040A" unicode="&#x40a;" horiz-adv-x="958" 
d="M457 0v284h-241v-284h-149v682h149v-260h241v260h149v-260h58q120 0 191.5 -50.5t71.5 -154.5q0 -101 -67.5 -159t-196.5 -58h-206zM766 214q0 37 -27 59.5t-83 22.5h-50v-170h50q110 0 110 88z" />
    <glyph glyph-name="uni040B" unicode="&#x40b;" horiz-adv-x="747" 
d="M168 0v544h-162v138h515v-138h-192v-159h2q25 34 66.5 55t89.5 21q95 0 148.5 -57t53.5 -165v-239h-162v227q0 50 -25 76t-69 26q-46 0 -75 -29.5t-29 -83.5v-216h-161z" />
    <glyph glyph-name="uni040C" unicode="&#x40c;" horiz-adv-x="660" 
d="M227 682v-269h36q33 0 53 17.5t38 57.5l30 67q28 63 68 99t107 36q43 0 96 -16l-34 -133q-15 6 -32 6q-23 0 -39 -15.5t-32 -49.5l-14 -31q-34 -73 -81 -103l259 -348h-194l-205 283h-56v-283h-160v682h160zM436 916l46 -109l-199 -76l-40 91z" />
    <glyph glyph-name="uni040D" unicode="&#x40d;" horiz-adv-x="680" 
d="M482 449h-4q-57 -102 -118 -198l-159 -251h-135v682h135v-333q0 -72 -3 -120h3q27 55 100 171l177 282h136v-682h-136v319q0 14 2 64.5t2 65.5zM198 807l46 109l193 -94l-40 -91z" />
    <glyph glyph-name="uni040E" unicode="&#x40e;" horiz-adv-x="597" 
d="M612 682l-259 -561q-62 -137 -197 -137q-50 0 -84 17l33 124q22 -10 46 -10q41 0 68 53l8 17l-242 497h174l110 -249q20 -46 38 -101h3q15 50 32 91l111 259h159zM381 885h103v-5q0 -71 -52 -109.5t-128 -38.5q-82 0 -131 37.5t-49 110.5v5h103v-5q0 -66 77 -66
q38 0 57.5 17t19.5 48v6z" />
    <glyph glyph-name="uni040F" unicode="&#x40f;" horiz-adv-x="688" 
d="M461 138v544h160v-682h-207v-170h-140v170h-207v682h160v-544h234z" />
    <glyph glyph-name="uni0410" unicode="&#x410;" horiz-adv-x="672" 
d="M503 0l-49 148h-239l-49 -148h-159l262 682h150l246 -682h-162zM304 411l-52 -153h165l-51 154q-15 41 -28 94h-5q-14 -51 -29 -95z" />
    <glyph glyph-name="uni0411" unicode="&#x411;" horiz-adv-x="573" 
d="M501 682v-138h-285v-121h62q120 0 191.5 -50.5t71.5 -155.5q0 -101 -67.5 -159t-196.5 -58h-210v682h434zM380 214q0 37 -27 60t-83 23h-54v-171h54q110 0 110 88z" />
    <glyph glyph-name="uni0412" unicode="&#x412;" horiz-adv-x="571" 
d="M67 0v682h201q110 0 175 -43.5t65 -128.5q0 -54 -35.5 -92.5t-89.5 -49.5v-2q74 -12 115 -59.5t41 -108.5q0 -92 -68 -145t-174 -53h-230zM378 212q0 40 -28 65t-76 25h-58v-184h60q49 0 75.5 24t26.5 70zM351 495q0 34 -24 53t-68 19h-43v-152h48q87 0 87 80z" />
    <glyph glyph-name="uni0413" unicode="&#x413;" horiz-adv-x="490" 
d="M484 682v-138h-257v-544h-161v682h418z" />
    <glyph glyph-name="uni0414" unicode="&#x414;" horiz-adv-x="686" 
d="M531 0h-376v-170h-140v308h60l199 544h143l194 -544h60v-308h-140v170zM298 337l-69 -199h222l-68 198q-30 91 -40 152h-4q-14 -67 -41 -151z" />
    <glyph glyph-name="uni0415" unicode="&#x415;" horiz-adv-x="549" 
d="M483 682v-138h-257v-127h248v-130h-248v-149h267v-138h-427v682h417z" />
    <glyph glyph-name="uni0416" unicode="&#x416;" horiz-adv-x="968" 
d="M406 412v270h156v-270h30q32 0 49 17t33 59l25 64q25 65 64 101.5t104 36.5q47 0 95 -16l-32 -133q-15 6 -33 6q-41 0 -66 -65l-12 -31q-15 -41 -29 -63.5t-37 -38.5l230 -349h-189l-180 283h-52v-283h-156v283h-52l-180 -283h-189l231 347q-40 29 -68 103l-12 31
q-26 66 -65 66q-18 0 -33 -6l-32 133q48 16 95 16q68 0 105 -35t63 -102l25 -65q16 -42 33 -59t49 -17h30z" />
    <glyph glyph-name="uni0417" unicode="&#x417;" horiz-adv-x="563" 
d="M152 498l-110 84q35 58 96.5 90t139.5 32q106 0 171 -50.5t65 -128.5q0 -62 -36.5 -103.5t-95.5 -57.5v-2q65 -12 107 -54t42 -114q0 -93 -69.5 -154.5t-194.5 -61.5q-177 0 -252 117l109 88q56 -76 133 -76q55 0 84 25.5t29 64.5q0 87 -143 87h-73v128h87q116 0 116 89
q0 32 -23.5 53t-61.5 21t-65 -20t-55 -57z" />
    <glyph glyph-name="uni0418" unicode="&#x418;" horiz-adv-x="680" 
d="M482 449h-4q-57 -102 -118 -198l-159 -251h-135v682h135v-333q0 -72 -3 -120h3q27 55 100 171l177 282h136v-682h-136v319q0 14 2 64.5t2 65.5z" />
    <glyph glyph-name="uni0419" unicode="&#x419;" horiz-adv-x="680" 
d="M482 449h-4q-57 -102 -118 -198l-159 -251h-135v682h135v-333q0 -72 -3 -120h3q27 55 100 171l177 282h136v-682h-136v319q0 14 2 64.5t2 65.5zM416 885h103v-5q0 -71 -52 -109.5t-128 -38.5q-82 0 -131 37.5t-49 110.5v5h103v-5q0 -66 77 -66q38 0 57.5 17t19.5 48v6z
" />
    <glyph glyph-name="uni041A" unicode="&#x41a;" horiz-adv-x="660" 
d="M227 682v-269h36q33 0 53 17.5t38 57.5l30 67q28 63 68 99t107 36q43 0 96 -16l-34 -133q-15 6 -32 6q-23 0 -39 -15.5t-32 -49.5l-14 -31q-34 -73 -81 -103l259 -348h-194l-205 283h-56v-283h-160v682h160z" />
    <glyph glyph-name="uni041B" unicode="&#x41b;" horiz-adv-x="635" 
d="M-5 0l253 682h143l247 -682h-171l-110 338q-29 91 -41 151h-4q-11 -59 -41 -152l-111 -337h-165z" />
    <glyph glyph-name="uni041C" unicode="&#x41c;" horiz-adv-x="825" 
d="M706 682l86 -682h-154l-31 317q-6 46 -13 141h-7l-17.5 -68.5t-19.5 -72.5l-89 -317h-108l-92 320q-22 74 -35 138h-9q-2 -65 -10 -136l-32 -322h-143l81 682h174l87 -289q27 -87 36 -125h3q5 16 17.5 60.5l18.5 64.5l84 289h173z" />
    <glyph glyph-name="uni041D" unicode="&#x41d;" horiz-adv-x="698" 
d="M471 0v283h-244v-283h-160v682h160v-261h244v261h160v-682h-160z" />
    <glyph glyph-name="uni041E" unicode="&#x41e;" horiz-adv-x="786" 
d="M194 341q0 -94 57 -156.5t142 -62.5t142 62.5t57 156.5q0 93 -55 156t-143 63q-85 0 -142.5 -62.5t-57.5 -156.5zM32 341q0 149 103.5 256t259.5 107q162 0 261 -107t99 -256q0 -150 -104 -256.5t-257 -106.5q-90 0 -161.5 32.5t-114 86t-64.5 116.5t-22 128z" />
    <glyph glyph-name="uni041F" unicode="&#x41f;" horiz-adv-x="688" 
d="M461 0v544h-234v-544h-160v682h554v-682h-160z" />
    <glyph glyph-name="uni0420" unicode="&#x420;" horiz-adv-x="570" 
d="M390 458q0 42 -26.5 70t-81.5 28h-56v-194h53q111 0 111 96zM66 0v682h224q116 0 188.5 -56.5t72.5 -165.5q0 -106 -67 -165t-198 -59h-60v-236h-160z" />
    <glyph glyph-name="uni0421" unicode="&#x421;" horiz-adv-x="682" 
d="M539 213l129 -93q-102 -140 -282 -140q-158 0 -256 103t-98 260q0 156 100 257.5t254 101.5q183 0 281 -138l-129 -91q-22 38 -61.5 61.5t-90.5 23.5q-88 0 -140 -60.5t-52 -155.5q0 -92 52.5 -155t140.5 -63q95 0 152 89z" />
    <glyph glyph-name="uni0422" unicode="&#x422;" horiz-adv-x="497" 
d="M168 0v544h-162v138h485v-138h-162v-544h-161z" />
    <glyph glyph-name="uni0423" unicode="&#x423;" horiz-adv-x="597" 
d="M612 682l-259 -561q-62 -137 -197 -137q-50 0 -84 17l33 124q22 -10 46 -10q41 0 68 53l8 17l-242 497h174l110 -249q20 -46 38 -101h3q15 50 32 91l111 259h159z" />
    <glyph glyph-name="uni0424" unicode="&#x424;" horiz-adv-x="821" 
d="M335 -40v77q-150 19 -225.5 105.5t-75.5 197.5q0 115 81.5 199.5t219.5 105.5v76h151v-75q142 -19 221.5 -104t79.5 -201t-82.5 -199.5t-218.5 -103.5v-78h-151zM191 341q0 -64 38.5 -113t105.5 -61v349q-66 -12 -105 -61.5t-39 -113.5zM630 341q0 64 -38.5 113.5
t-105.5 61.5v-348q65 12 104.5 60.5t39.5 112.5z" />
    <glyph glyph-name="uni0425" unicode="&#x425;" horiz-adv-x="630" 
d="M182 682l88 -137q20 -30 48 -81h3q27 52 48 83l84 135h169l-224 -326l234 -356h-176l-90 145q-10 16 -54 94h-2l-56 -96l-87 -143h-169l232 351l-224 331h176z" />
    <glyph glyph-name="uni0426" unicode="&#x426;" horiz-adv-x="704" 
d="M549 0h-482v682h160v-544h234v544h160v-544h68v-308h-140v170z" />
    <glyph glyph-name="uni0427" unicode="&#x427;" horiz-adv-x="646" 
d="M579 0h-160v272h-2q-56 -74 -157 -74q-99 0 -154 57t-55 165v262h160v-246q0 -50 26.5 -76t72.5 -26q51 0 80 29t29 84v235h160v-682z" />
    <glyph glyph-name="uni0428" unicode="&#x428;" horiz-adv-x="997" 
d="M67 0v682h159v-544h193v544h159v-544h188v544h164v-682h-863z" />
    <glyph glyph-name="uni0429" unicode="&#x429;" horiz-adv-x="1013" 
d="M67 0v682h159v-544h193v544h159v-544h188v544h164v-544h68v-308h-140v170h-791z" />
    <glyph glyph-name="uni042A" unicode="&#x42a;" horiz-adv-x="674" 
d="M6 682h311v-259h63q120 0 191.5 -50.5t71.5 -155.5q0 -101 -67.5 -159t-196.5 -58h-211v544h-162v138zM482 214q0 37 -27 60t-83 23h-55v-171h55q110 0 110 88z" />
    <glyph glyph-name="uni042B" unicode="&#x42b;" horiz-adv-x="860" 
d="M67 682h149v-259h58q120 0 191.5 -50.5t71.5 -155.5q0 -101 -67.5 -159t-196.5 -58h-206v682zM376 214q0 37 -27 60t-83 23h-50v-171h50q110 0 110 88zM634 0v682h160v-682h-160z" />
    <glyph glyph-name="uni042C" unicode="&#x42c;" horiz-adv-x="573" 
d="M67 682h149v-259h63q120 0 191.5 -50.5t71.5 -155.5q0 -101 -67.5 -159t-196.5 -58h-211v682zM381 214q0 37 -27 60t-83 23h-55v-171h55q110 0 110 88z" />
    <glyph glyph-name="uni042D" unicode="&#x42d;" horiz-adv-x="682" 
d="M19 97l109 110q70 -85 162 -85q74 0 127 45.5t68 115.5h-332v130h330q-19 66 -67.5 106.5t-117.5 40.5q-91 0 -154 -75l-119 93q98 126 280 126q155 0 250.5 -100.5t95.5 -260.5q0 -159 -101.5 -262t-256.5 -103q-93 0 -156 28t-118 91z" />
    <glyph glyph-name="uni042E" unicode="&#x42e;" horiz-adv-x="1074" 
d="M226 682v-261h112q27 122 122.5 202.5t227.5 80.5q161 0 258 -107t97 -256q0 -151 -102.5 -257t-253.5 -106q-80 0 -145 26t-107 70t-67 97t-34 112h-108v-283h-159v682h159zM492 341q0 -94 55.5 -156.5t138.5 -62.5t138.5 62.5t55.5 156.5q0 93 -53.5 156t-139.5 63
q-82 0 -138.5 -62.5t-56.5 -156.5z" />
    <glyph glyph-name="uni042F" unicode="&#x42f;" horiz-adv-x="611" 
d="M-15 0l209 286q-58 17 -95.5 66t-37.5 120q0 95 65 152.5t201 57.5h217v-682h-160v263h-33l-180 -263h-186zM224 464q0 -41 26.5 -64.5t68.5 -23.5h65v180h-62q-46 0 -72 -24.5t-26 -67.5z" />
    <glyph glyph-name="uni0430" unicode="&#x430;" horiz-adv-x="619" 
d="M556 495v-495h-143v65h-4q-57 -82 -160 -82q-36 0 -72.5 15t-70.5 45t-55.5 83.5t-21.5 121.5q0 116 68.5 188.5t162.5 72.5q100 0 149 -78h4v64h143zM183 247q0 -56 30 -94.5t87 -38.5q47 0 80 37.5t33 94.5q0 61 -32 98t-81 37q-56 0 -86.5 -40t-30.5 -94z" />
    <glyph glyph-name="uni0431" unicode="&#x431;" horiz-adv-x="584" 
d="M525 609l-145 -38q-86 -23 -129.5 -59.5t-51.5 -90.5l1 -1q56 51 135 51q92 0 155.5 -66.5t63.5 -172.5q0 -103 -76.5 -176.5t-185.5 -73.5q-113 0 -187.5 75t-74.5 205q0 164 63 270q67 113 230 155l169 43zM180 232q0 -47 30.5 -81.5t81.5 -34.5q48 0 79.5 34.5
t31.5 78.5q0 49 -30 81.5t-80 32.5q-48 0 -80.5 -32.5t-32.5 -78.5z" />
    <glyph glyph-name="uni0432" unicode="&#x432;" horiz-adv-x="526" 
d="M63 0v495h225q94 0 140.5 -36.5t46.5 -99.5q0 -35 -21 -60.5t-56 -37.5v-2q47 -8 75 -38t28 -73q0 -66 -54 -107t-166 -41h-218zM280 203h-77v-98h80q33 0 51 14t18 38q0 46 -72 46zM267 391h-64v-96h73q60 0 60 49q0 47 -69 47z" />
    <glyph glyph-name="uni0433" unicode="&#x433;" horiz-adv-x="414" 
d="M404 495v-127h-190v-368h-151v495h341z" />
    <glyph glyph-name="uni0434" unicode="&#x434;" horiz-adv-x="561" 
d="M417 0h-273v-150h-134v278h57l141 372h146l139 -372h58v-278h-134v150zM233 205l-26 -77h142l-25 76q-31 93 -44 146h-4q-13 -58 -43 -145z" />
    <glyph glyph-name="uni0435" unicode="&#x435;" horiz-adv-x="573" 
d="M294 93q78 0 120 71l105 -68q-73 -114 -226 -114q-113 0 -188.5 74.5t-75.5 194.5q0 111 69 186t188 75q116 0 185 -74.5t69 -186.5q0 -18 -3 -39h-362q0 -49 35 -84t84 -35zM284 410q-45 0 -73.5 -28.5t-34.5 -69.5h216q-4 42 -33.5 70t-74.5 28z" />
    <glyph glyph-name="uni0436" unicode="&#x436;" horiz-adv-x="822" 
d="M336 297v198h149v-198h7q23 0 38 17t39 66q30 61 65.5 95t94.5 34q44 0 77 -15l-31 -119q-7 3 -23 3q-31 0 -59 -51q-27 -48 -56 -71l189 -256h-176l-139 198h-26v-198h-149v198h-26l-139 -198h-175l189 255q-32 25 -57 72q-27 51 -59 51q-15 0 -23 -3l-31 119
q33 15 77 15q59 0 94 -33.5t66 -95.5q24 -48 39.5 -65.5t39.5 -17.5h5z" />
    <glyph glyph-name="uni0437" unicode="&#x437;" horiz-adv-x="482" 
d="M85 360l-50 104q79 48 198 48q99 0 156.5 -39.5t57.5 -101.5q0 -42 -26 -69.5t-70 -38.5v-2q47 -10 76.5 -39.5t29.5 -78.5q0 -69 -63 -115.5t-173 -46.5q-134 0 -214 66l59 97q74 -52 150 -52q41 0 66.5 15.5t25.5 39.5q0 53 -103 53h-97v102h98q94 0 94 53
q0 22 -19.5 34.5t-56.5 12.5q-77 0 -139 -42z" />
    <glyph glyph-name="uni0438" unicode="&#x438;" horiz-adv-x="582" 
d="M384 0v184q0 64 4 115h-1q-25 -45 -54 -88l-143 -211h-127v495h135v-165q0 -59 -5 -132h2q29 50 58 92l139 205h127v-495h-135z" />
    <glyph glyph-name="uni0439" unicode="&#x439;" horiz-adv-x="582" 
d="M384 0v184q0 64 4 115h-1q-25 -45 -54 -88l-143 -211h-127v495h135v-165q0 -59 -5 -132h2q29 50 58 92l139 205h127v-495h-135zM364 720h101v-14q0 -72 -50.5 -111t-124.5 -39q-79 0 -127 38.5t-48 111.5v14h101v-14q0 -69 74 -69t74 68v15z" />
    <glyph glyph-name="uni043A" unicode="&#x43a;" horiz-adv-x="572" 
d="M555 495l-29 -120q-8 3 -21 3q-39 0 -66 -50q-28 -50 -56 -72l195 -256h-180l-145 198h-39v-198h-151v495h151v-197h20q26 0 41 17t40 66q31 62 67 95t99 33q41 0 74 -14z" />
    <glyph glyph-name="uni043B" unicode="&#x43b;" horiz-adv-x="493" 
d="M-9 0l188 497h136l186 -497h-156l-65 203q-21 66 -34 133h-4q-15 -81 -33 -134l-68 -202h-150z" />
    <glyph glyph-name="uni043C" unicode="&#x43c;" horiz-adv-x="737" 
d="M273 495l61 -200q24 -78 32 -122h3q15 75 33 133l59 189h171l69 -495h-143l-18 198q-6 66 -10 153h-4q-16 -66 -33 -121l-71 -230h-113l-76 231q-14 43 -30 117h-4q-1 -27 -8 -127l-20 -221h-133l63 495h172z" />
    <glyph glyph-name="uni043D" unicode="&#x43d;" horiz-adv-x="612" 
d="M398 0v186h-184v-186h-151v495h151v-183h184v183h151v-495h-151z" />
    <glyph glyph-name="uni043E" unicode="&#x43e;" horiz-adv-x="589" 
d="M29 248q0 114 75.5 189t189.5 75q116 0 190.5 -75.5t74.5 -188.5q0 -111 -75.5 -188.5t-189.5 -77.5q-113 0 -189 77t-76 189zM181 247q0 -57 32 -94t81 -37q52 0 83 37t31 94t-30.5 94.5t-83.5 37.5t-83 -37t-30 -95z" />
    <glyph glyph-name="uni043F" unicode="&#x43f;" horiz-adv-x="607" 
d="M393 0v368h-179v-368h-151v495h481v-495h-151z" />
    <glyph glyph-name="uni0440" unicode="&#x440;" horiz-adv-x="619" 
d="M63 -235v730h145v-59h2q55 73 156 73q36 0 73.5 -15.5t72 -45.5t56.5 -83t22 -121q0 -117 -69 -189t-163 -72q-96 0 -145 75h-3v-293h-147zM437 245q0 56 -30.5 94.5t-87.5 38.5q-48 0 -81 -37t-33 -96t33 -96.5t81 -37.5q56 0 87 40t31 94z" />
    <glyph glyph-name="uni0441" unicode="&#x441;" horiz-adv-x="512" 
d="M399 175l105 -89q-77 -104 -210 -104q-112 0 -188.5 73.5t-76.5 193.5q0 112 72.5 187.5t192.5 75.5q133 0 208 -101l-108 -90q-37 61 -100 61q-53 0 -82 -37t-29 -97q0 -59 30.5 -97t84.5 -38q62 0 101 62z" />
    <glyph glyph-name="uni0442" unicode="&#x442;" horiz-adv-x="429" 
d="M422 495v-127h-132v-368h-151v368h-132v127h415z" />
    <glyph glyph-name="uni0443" unicode="&#x443;" horiz-adv-x="490" 
d="M498 495l-268 -730h-142l89 240l-180 490h156l65 -201q22 -65 34 -125h4q6 37 32 125l63 201h147z" />
    <glyph glyph-name="uni0444" unicode="&#x444;" horiz-adv-x="738" 
d="M32 247q0 107 72 177t193 87v210h144v-210q118 -13 191.5 -85t73.5 -178q0 -104 -72 -176t-193 -89v-218h-144v218q-120 17 -192.5 88t-72.5 176zM560 247q0 50 -31 91.5t-88 55.5v-295q56 13 87.5 55t31.5 93zM178 246q0 -50 32.5 -92t86.5 -55v295q-57 -14 -88 -55.5
t-31 -92.5z" />
    <glyph glyph-name="uni0445" unicode="&#x445;" horiz-adv-x="526" 
d="M2 0l179 249l-169 246h166l60 -97q11 -18 25 -53h4q1 3 9.5 22.5t13.5 28.5l54 99h167l-169 -243l175 -252h-173l-59 101q-17 27 -24 54h-4q-12 -30 -27 -55l-60 -100h-168z" />
    <glyph glyph-name="uni0446" unicode="&#x446;" horiz-adv-x="618" 
d="M474 -150v150h-411v495h151v-367h178v367h151v-367h65v-278h-134z" />
    <glyph glyph-name="uni0447" unicode="&#x447;" horiz-adv-x="590" 
d="M527 495v-495h-151v188h-2q-43 -78 -141 -78q-85 0 -133 58.5t-48 169.5v157h151v-148q0 -51 21.5 -78t60.5 -27q41 0 66 30t25 87v136h151z" />
    <glyph glyph-name="uni0448" unicode="&#x448;" horiz-adv-x="898" 
d="M835 0h-772v495h150v-367h161v367h150v-367h161v367h150v-495z" />
    <glyph glyph-name="uni0449" unicode="&#x449;" horiz-adv-x="910" 
d="M766 0h-703v495h150v-367h161v367h150v-367h161v367h150v-367h65v-278h-134v150z" />
    <glyph glyph-name="uni044A" unicode="&#x44a;" horiz-adv-x="578" 
d="M7 495h277v-165h55q103 0 159 -40t56 -120q0 -78 -57.5 -124t-159.5 -46h-198v368h-132v127zM405 167q0 55 -83 55h-38v-114h38q44 0 63.5 17t19.5 42z" />
    <glyph glyph-name="uni044B" unicode="&#x44b;" horiz-adv-x="748" 
d="M63 495h145v-165h55q103 0 159 -40t56 -120q0 -78 -57.5 -124t-159.5 -46h-198v495zM329 167q0 55 -83 55h-38v-114h38q44 0 63.5 17t19.5 42zM540 0v495h145v-495h-145z" />
    <glyph glyph-name="uni044C" unicode="&#x44c;" horiz-adv-x="507" 
d="M63 495h145v-165h60q103 0 159 -40t56 -120q0 -78 -57.5 -124t-159.5 -46h-203v495zM334 167q0 55 -83 55h-43v-114h43q44 0 63.5 17t19.5 42z" />
    <glyph glyph-name="uni044D" unicode="&#x44d;" horiz-adv-x="503" 
d="M3 77l89 78q46 -61 111 -61q50 0 82 29t38 78h-191v102h189q-7 42 -36.5 70.5t-71.5 28.5q-32 0 -63 -16.5t-51 -40.5l-82 82q76 85 203 85q120 0 186.5 -73t66.5 -185q0 -129 -74 -200.5t-191 -71.5q-132 0 -205 95z" />
    <glyph glyph-name="uni044E" unicode="&#x44e;" horiz-adv-x="849" 
d="M209 495v-183h92q20 90 89.5 145t165.5 55q115 0 189 -75t74 -189q0 -111 -74.5 -188.5t-188.5 -77.5q-96 0 -165.5 57t-89.5 147h-92v-186h-146v495h146zM446 247q0 -57 31 -94t80 -37q51 0 81 37t30 94t-29.5 94.5t-81.5 37.5t-81.5 -37t-29.5 -95z" />
    <glyph glyph-name="uni044F" unicode="&#x44f;" horiz-adv-x="521" 
d="M458 0h-145v165h-49l-99 -165h-171l128 190q-89 44 -89 138q0 78 57.5 122.5t159.5 44.5h208v-495zM182 329q0 -56 80 -56h51v114h-48q-43 0 -63 -17t-20 -41z" />
    <glyph glyph-name="uni0450" unicode="&#x450;" horiz-adv-x="573" 
d="M294 93q78 0 120 71l105 -68q-73 -114 -226 -114q-113 0 -188.5 74.5t-75.5 194.5q0 111 69 186t188 75q116 0 185 -74.5t69 -186.5q0 -18 -3 -39h-362q0 -49 35 -84t84 -35zM284 410q-45 0 -73.5 -28.5t-34.5 -69.5h216q-4 42 -33.5 70t-74.5 28zM146 693l68 95
l167 -134l-58 -80z" />
    <glyph glyph-name="uni0451" unicode="&#x451;" horiz-adv-x="573" 
d="M294 93q78 0 120 71l105 -68q-73 -114 -226 -114q-113 0 -188.5 74.5t-75.5 194.5q0 111 69 186t188 75q116 0 185 -74.5t69 -186.5q0 -18 -3 -39h-362q0 -49 35 -84t84 -35zM284 410q-45 0 -73.5 -28.5t-34.5 -69.5h216q-4 42 -33.5 70t-74.5 28zM130 610v118h121v-118
h-121zM317 610v118h121v-118h-121z" />
    <glyph glyph-name="uni0452" unicode="&#x452;" horiz-adv-x="606" 
d="M63 0v577h-63v97h63v47h151v-47h145v-97h-145v-144h2q45 78 146 78q88 0 137.5 -58t49.5 -170v-304q0 -117 -55.5 -173.5t-156.5 -56.5q-59 0 -100 19l35 123q18 -10 49 -10q39 0 58 22t19 77v294q0 51 -23 78t-64 27q-44 0 -70.5 -30t-26.5 -87v-262h-151z" />
    <glyph glyph-name="uni0453" unicode="&#x453;" horiz-adv-x="414" 
d="M404 495v-127h-190v-368h-151v495h341zM116 634l167 134l68 -95l-177 -119z" />
    <glyph glyph-name="uni0454" unicode="&#x454;" horiz-adv-x="503" 
d="M409 155l88 -78q-75 -95 -202 -95q-118 0 -191.5 69.5t-73.5 196.5q0 111 71 187.5t191 76.5q124 0 198 -85l-90 -81q-45 56 -108 56q-41 0 -71 -28t-39 -71h189v-102h-191q5 -48 38 -78t81 -30q63 0 110 62z" />
    <glyph glyph-name="uni0455" unicode="&#x455;" horiz-adv-x="454" 
d="M43 88l112 65q24 -65 77 -65q45 0 45 39q0 26 -20.5 42.5t-75.5 34.5q-69 23 -101.5 59t-32.5 94q0 70 51 112.5t134 42.5q108 0 158 -79l-100 -73q-28 46 -65 46q-41 0 -41 -39q0 -19 18 -34t73 -33q76 -25 109.5 -63.5t33.5 -94.5q0 -71 -52 -115.5t-145 -44.5
q-133 0 -178 106z" />
    <glyph glyph-name="uni0456" unicode="&#x456;" horiz-adv-x="277" 
d="M63 0v495h151v-495h-151zM60 585v125h157v-125h-157z" />
    <glyph glyph-name="uni0457" unicode="&#x457;" horiz-adv-x="277" 
d="M63 0v495h151v-495h-151zM-9 610v118h121v-118h-121zM164 610v118h121v-118h-121z" />
    <glyph glyph-name="uni0458" unicode="&#x458;" horiz-adv-x="276" 
d="M213 495v-516q0 -117 -55 -173.5t-156 -56.5q-59 0 -100 19l35 123q18 -10 49 -10q39 0 58 22t19 77v515h150zM61 585v125h155v-125h-155z" />
    <glyph glyph-name="uni0459" unicode="&#x459;" horiz-adv-x="721" 
d="M-9 0l183 497h140l58 -167h110q103 0 159 -40t56 -120q0 -78 -57.5 -124t-159.5 -46h-142l-61 196q-22 73 -35 138h-4q-7 -57 -34 -142l-63 -192h-150zM548 167q0 55 -83 55h-56l38 -114h18q44 0 63.5 17t19.5 42z" />
    <glyph glyph-name="uni045A" unicode="&#x45a;" horiz-adv-x="810" 
d="M372 0v186h-164v-186h-145v495h145v-183h164v183h145v-165h54q103 0 159 -40t56 -120q0 -78 -57.5 -124t-159.5 -46h-197zM637 167q0 55 -83 55h-37v-114h37q44 0 63.5 17t19.5 42z" />
    <glyph glyph-name="uni045B" unicode="&#x45b;" horiz-adv-x="606" 
d="M63 0v577h-63v97h63v47h151v-47h145v-97h-145v-144h2q45 78 146 78q88 0 137.5 -58t49.5 -170v-283h-151v274q0 51 -23 78t-64 27q-44 0 -70.5 -30t-26.5 -87v-262h-151z" />
    <glyph glyph-name="uni045C" unicode="&#x45c;" horiz-adv-x="572" 
d="M555 495l-29 -120q-8 3 -21 3q-39 0 -66 -50q-28 -50 -56 -72l195 -256h-180l-145 198h-39v-198h-151v495h151v-197h20q26 0 41 17t40 66q31 62 67 95t99 33q41 0 74 -14zM204 634l167 134l68 -95l-177 -119z" />
    <glyph glyph-name="uni045D" unicode="&#x45d;" horiz-adv-x="582" 
d="M384 0v184q0 64 4 115h-1q-25 -45 -54 -88l-143 -211h-127v495h135v-165q0 -59 -5 -132h2q29 50 58 92l139 205h127v-495h-135zM146 693l68 95l167 -134l-58 -80z" />
    <glyph glyph-name="uni045E" unicode="&#x45e;" horiz-adv-x="490" 
d="M498 495l-268 -730h-142l89 240l-180 490h156l65 -201q22 -65 34 -125h4q6 37 32 125l63 201h147zM324 720h101v-14q0 -72 -50.5 -111t-124.5 -39q-79 0 -127 38.5t-48 111.5v14h101v-14q0 -69 74 -69t74 68v15z" />
    <glyph glyph-name="uni045F" unicode="&#x45f;" horiz-adv-x="607" 
d="M237 -150v150h-174v495h151v-367h179v367h151v-495h-173v-150h-134z" />
    <glyph glyph-name="uni0490" unicode="&#x490;" horiz-adv-x="490" 
d="M484 812v-268h-257v-544h-161v682h278v130h140z" />
    <glyph glyph-name="uni0491" unicode="&#x491;" horiz-adv-x="414" 
d="M404 608v-240h-190v-368h-151v495h207v113h134z" />
    <glyph glyph-name="Wgrave" unicode="&#x1e80;" horiz-adv-x="882" 
d="M541 0l-76 338q-16 75 -20 145h-4q-13 -107 -21 -143l-71 -340h-172l-171 682h157l79 -352q14 -69 23 -127h4q14 76 27 136l73 343h151l81 -350q8 -32 15 -75t9 -54h4q8 59 21 128l72 351h153l-163 -682h-171zM313 807l46 109l193 -94l-40 -91z" />
    <glyph glyph-name="wgrave" unicode="&#x1e81;" horiz-adv-x="757" 
d="M442 0l-45 204q-17 70 -20 107h-3q-4 -33 -23 -122l-44 -189h-170l-124 495h147l54 -235q3 -12 19 -97h4q11 70 19 103l58 229h134l57 -234q10 -40 15 -98h4q8 62 16 97l57 235h147l-130 -495h-172zM243 693l68 95l167 -134l-58 -80z" />
    <glyph glyph-name="Wacute" unicode="&#x1e82;" horiz-adv-x="882" 
d="M541 0l-76 338q-16 75 -20 145h-4q-13 -107 -21 -143l-71 -340h-172l-171 682h157l79 -352q14 -69 23 -127h4q14 76 27 136l73 343h151l81 -350q8 -32 15 -75t9 -54h4q8 59 21 128l72 351h153l-163 -682h-171zM523 916l46 -109l-199 -76l-40 91z" />
    <glyph glyph-name="wacute" unicode="&#x1e83;" horiz-adv-x="757" 
d="M442 0l-45 204q-17 70 -20 107h-3q-4 -33 -23 -122l-44 -189h-170l-124 495h147l54 -235q3 -12 19 -97h4q11 70 19 103l58 229h134l57 -234q10 -40 15 -98h4q8 62 16 97l57 235h147l-130 -495h-172zM274 654l167 134l68 -95l-177 -119z" />
    <glyph glyph-name="Wdieresis" unicode="&#x1e84;" horiz-adv-x="882" 
d="M541 0l-76 338q-16 75 -20 145h-4q-13 -107 -21 -143l-71 -340h-172l-171 682h157l79 -352q14 -69 23 -127h4q14 76 27 136l73 343h151l81 -350q8 -32 15 -75t9 -54h4q8 59 21 128l72 351h153l-163 -682h-171zM291 770v118h121v-118h-121zM478 770v118h121v-118h-121z
" />
    <glyph glyph-name="wdieresis" unicode="&#x1e85;" horiz-adv-x="757" 
d="M442 0l-45 204q-17 70 -20 107h-3q-4 -33 -23 -122l-44 -189h-170l-124 495h147l54 -235q3 -12 19 -97h4q11 70 19 103l58 229h134l57 -234q10 -40 15 -98h4q8 62 16 97l57 235h147l-130 -495h-172zM226 610v118h121v-118h-121zM413 610v118h121v-118h-121z" />
    <glyph glyph-name="Ygrave" unicode="&#x1ef2;" horiz-adv-x="622" 
d="M232 0v270l-226 412h172l100 -190q19 -36 37 -87h2q16 46 36 86l94 191h169l-224 -411v-271h-160zM148 807l46 109l193 -94l-40 -91z" />
    <glyph glyph-name="ygrave" unicode="&#x1ef3;" horiz-adv-x="490" 
d="M498 495l-268 -730h-142l89 240l-180 490h156l65 -201q22 -65 34 -125h4q6 37 32 125l63 201h147zM110 693l68 95l167 -134l-58 -80z" />
    <glyph glyph-name="uni2010" unicode="&#x2010;" horiz-adv-x="463" 
d="M396 208h-322v112h322v-112z" />
    <glyph glyph-name="endash" unicode="&#x2013;" horiz-adv-x="571" 
d="M494 216h-417v113h417v-113z" />
    <glyph glyph-name="emdash" unicode="&#x2014;" horiz-adv-x="1140" 
d="M1063 216h-986v113h986v-113z" />
    <glyph glyph-name="afii00208" unicode="&#x2015;" horiz-adv-x="800" 
d="M700 216h-600v96h600v-96z" />
    <glyph glyph-name="underscoredbl" unicode="&#x2017;" horiz-adv-x="550" 
d="M0 -235v71h550v-71h-550zM0 -119v71h550v-71h-550z" />
    <glyph glyph-name="quoteleft" unicode="&#x2018;" horiz-adv-x="289" 
d="M228 596v-155h-167v74q0 112 59 205h82q-35 -53 -43 -124h69z" />
    <glyph glyph-name="quoteright" unicode="&#x2019;" horiz-adv-x="289" 
d="M61 566v154h167v-74q0 -110 -59 -205h-82q35 55 43 125h-69z" />
    <glyph glyph-name="quotesinglbase" unicode="&#x201a;" horiz-adv-x="289" 
d="M61 0v154h167v-74q0 -111 -59 -204h-82q35 54 43 124h-69z" />
    <glyph glyph-name="quotereversed" unicode="&#x201b;" horiz-adv-x="289" 
d="M228 720v-154h-69q8 -70 43 -125h-82q-59 95 -59 205v74h167z" />
    <glyph glyph-name="quotedblleft" unicode="&#x201c;" horiz-adv-x="512" 
d="M228 596v-155h-167v74q0 112 59 205h82q-35 -53 -43 -124h69zM451 596v-155h-167v74q0 112 59 205h82q-36 -58 -42 -124h68z" />
    <glyph glyph-name="quotedblright" unicode="&#x201d;" horiz-adv-x="512" 
d="M61 566v154h167v-74q0 -110 -59 -205h-82q35 55 43 125h-69zM284 566v154h167v-74q0 -113 -59 -205h-82q35 55 43 125h-69z" />
    <glyph glyph-name="quotedblbase" unicode="&#x201e;" horiz-adv-x="512" 
d="M61 0v154h167v-74q0 -111 -59 -204h-82q35 54 43 124h-69zM284 0v154h167v-74q0 -113 -59 -204h-82q35 54 43 124h-69z" />
    <glyph glyph-name="dagger" unicode="&#x2020;" horiz-adv-x="476" 
d="M432 402l-142 19l19 -97l-19 -324h-105l-19 324l19 97l-141 -19v143l141 -19l-19 156h143l-19 -156l142 19v-143z" />
    <glyph glyph-name="daggerdbl" unicode="&#x2021;" horiz-adv-x="476" 
d="M301 130l-15 -130h-97l-15 130l15 74l-145 -15v127l145 -15l-15 74l15 74l-145 -15v127l145 -15l-15 136h127l-15 -136l146 15v-127l-146 15l15 -74l-15 -74l146 15v-127l-146 15z" />
    <glyph glyph-name="bullet" unicode="&#x2022;" horiz-adv-x="453" 
d="M67 314q0 66 46.5 113t110.5 47q66 0 114 -47t48 -113t-48 -112.5t-114 -46.5q-64 0 -110.5 46.5t-46.5 112.5z" />
    <glyph glyph-name="ellipsis" unicode="&#x2026;" horiz-adv-x="1002" 
d="M79 0v164h178v-164h-178zM412 0v164h178v-164h-178zM745 0v164h178v-164h-178z" />
    <glyph glyph-name="perthousand" unicode="&#x2030;" horiz-adv-x="1217" 
d="M602 682h103l-471 -682h-103zM34 511q0 92 52.5 142t119.5 50q65 0 115.5 -47t50.5 -143q0 -54 -16.5 -94.5t-43.5 -61.5t-54.5 -31t-54.5 -10q-66 0 -117.5 48t-51.5 147zM266 510q0 50 -16.5 76.5t-46.5 26.5q-28 0 -45.5 -25.5t-17.5 -76.5q0 -105 64 -105
q26 0 44 26.5t18 77.5zM464 174q0 92 52.5 142t119.5 50q65 0 115.5 -47t50.5 -143q0 -54 -16.5 -94.5t-43.5 -61.5t-54.5 -31t-54.5 -10q-67 0 -118 48t-51 147zM696 173q0 49 -16.5 76t-46.5 27q-28 0 -45.5 -25.5t-17.5 -76.5q0 -105 64 -105q26 0 44 26.5t18 77.5z
M846 174q0 92 52.5 142t119.5 50q65 0 115.5 -47t50.5 -143q0 -54 -16.5 -94.5t-43.5 -61.5t-54.5 -31t-54.5 -10q-67 0 -118 48t-51 147zM1078 173q0 49 -16.5 76t-46.5 27q-28 0 -45.5 -25.5t-17.5 -76.5q0 -105 64 -105q26 0 44 26.5t18 77.5z" />
    <glyph glyph-name="minute" unicode="&#x2032;" horiz-adv-x="245" 
d="M115 698l89 -29l-93 -255l-70 20z" />
    <glyph glyph-name="second" unicode="&#x2033;" horiz-adv-x="446" 
d="M115 698l89 -29l-93 -255l-70 20zM316 698l89 -29l-93 -255l-70 20z" />
    <glyph glyph-name="guilsinglleft" unicode="&#x2039;" horiz-adv-x="312" 
d="M44 256l136 220l90 -49l-87 -171l87 -170l-90 -49z" />
    <glyph glyph-name="guilsinglright" unicode="&#x203a;" horiz-adv-x="312" 
d="M267 256l-134 -219l-91 49l88 170l-88 170l91 50z" />
    <glyph glyph-name="exclamdbl" unicode="&#x203c;" horiz-adv-x="578" 
d="M66 0v140h157v-140h-157zM62 682h165l-16 -464h-133zM355 0v140h157v-140h-157zM351 682h165l-16 -464h-133z" />
    <glyph glyph-name="uni203E" unicode="&#x203e;" horiz-adv-x="550" 
d="M0 746v103h550v-103h-550z" />
    <glyph glyph-name="fraction" unicode="&#x2044;" horiz-adv-x="195" 
d="M282 682h103l-472 -682h-103z" />
    <glyph glyph-name="zero.superior" unicode="&#x2070;" 
d="M25 644q0 116 54 172t130 56q71 0 122.5 -54t51.5 -173q0 -67 -17.5 -116t-45.5 -73.5t-56.5 -35t-58.5 -10.5q-74 0 -127 54.5t-53 179.5zM267 643q0 135 -62 135q-26 0 -44 -31t-18 -101q0 -140 63 -140q25 0 43 32.5t18 104.5z" />
    <glyph glyph-name="four.superior" unicode="&#x2074;" 
d="M384 488h-62v-63h-110v63h-195v81l193 290h112v-288h62v-83zM173 677l-72 -106h111v121q0 10 2 48h-3q-4 -10 -38 -63z" />
    <glyph glyph-name="five.superior" unicode="&#x2075;" 
d="M188 763l-8 -53q12 3 24 3q74 0 115.5 -40.5t41.5 -107.5q0 -64 -45 -109t-120 -45q-66 0 -100 24.5t-50 72.5l106 36q12 -36 44 -36q19 0 32 15t13 41t-14 42t-37 16q-22 0 -38 -13h-103l40 250h238v-96h-139z" />
    <glyph glyph-name="six.superior" unicode="&#x2076;" 
d="M28 570q0 79 67 163l99 126h119l-101 -132q4 1 21 1q67 -5 107.5 -48.5t40.5 -109.5q0 -67 -48 -113t-130 -46q-81 0 -128 44.5t-47 114.5zM140 570q0 -30 18.5 -48t45.5 -18q28 0 46.5 18.5t18.5 47.5q0 30 -18.5 48.5t-46.5 18.5q-27 0 -45.5 -19t-18.5 -48z" />
    <glyph glyph-name="seven.superior" unicode="&#x2077;" 
d="M357 859v-86l-158 -348h-127l163 338h-187v96h309z" />
    <glyph glyph-name="eight.superior" unicode="&#x2078;" 
d="M154 740q0 -23 14.5 -37.5t35.5 -14.5q22 0 36.5 14.5t14.5 37.5t-14.5 36.5t-36.5 13.5t-36 -13.5t-14 -36.5zM146 555q0 -26 16.5 -43t43.5 -17q26 0 42 16.5t16 43.5q0 28 -16 45t-42 17t-43 -17t-17 -45zM371 548q0 -57 -42 -97t-124 -40q-83 0 -125 38t-42 96
q0 84 76 114v1q-63 27 -63 89q0 54 40.5 88.5t113.5 34.5q71 0 111.5 -33.5t40.5 -81.5q0 -73 -65 -97v-1q79 -28 79 -111z" />
    <glyph glyph-name="nine.superior" unicode="&#x2079;" 
d="M381 713q0 -72 -68 -162l-99 -126h-119l102 132q-5 -1 -22 -1q-68 4 -107.5 46.5t-39.5 110.5t49.5 113.5t128.5 45.5q80 0 127.5 -43.5t47.5 -115.5zM269 714q0 31 -18.5 48.5t-45.5 17.5q-28 0 -46.5 -17.5t-18.5 -48.5q0 -30 18.5 -48.5t46.5 -18.5t46 17.5t18 49.5z
" />
    <glyph glyph-name="nsuperior" unicode="&#x207f;" horiz-adv-x="452" 
d="M54 328v354h114v-44h2q32 56 101 56q62 0 96.5 -42.5t34.5 -121.5v-202h-115v190q0 34 -14 52t-38 18q-29 0 -47.5 -20t-18.5 -58v-182h-115z" />
    <glyph glyph-name="zero.inferior" unicode="&#x2080;" 
d="M25 44q0 116 54 172t130 56q71 0 122.5 -54t51.5 -173q0 -67 -17.5 -116t-45.5 -73.5t-56.5 -35t-58.5 -10.5q-74 0 -127 54.5t-53 179.5zM267 43q0 135 -62 135q-26 0 -44 -31t-18 -101q0 -140 63 -140q25 0 43 32.5t18 104.5z" />
    <glyph glyph-name="one.inferior" unicode="&#x2081;" 
d="M155 -175v338h-69v96h183v-434h-114z" />
    <glyph glyph-name="two.inferior" unicode="&#x2082;" 
d="M53 -175v74l132 141q58 62 58 98q0 18 -11.5 29t-28.5 11q-37 0 -52 -51l-103 30q33 115 160 115q68 0 111 -37t43 -94q0 -40 -21.5 -75t-78.5 -92l-52 -53h158v-96h-315z" />
    <glyph glyph-name="three.inferior" unicode="&#x2083;" 
d="M151 144l-98 41q36 87 148 87q75 0 115 -31t40 -83q0 -35 -20 -60.5t-51 -32.5v-3q41 -10 63 -39.5t22 -70.5q0 -59 -44.5 -100t-126.5 -41q-131 0 -162 106l101 32q14 -49 61 -49q24 0 39 16.5t15 43.5q0 24 -16 39t-48 15h-32v85h33q49 0 49 44q0 17 -10.5 28.5
t-29.5 11.5q-32 0 -48 -39z" />
    <glyph glyph-name="four.inferior" unicode="&#x2084;" 
d="M384 -112h-62v-63h-110v63h-195v81l193 290h112v-288h62v-83zM173 77l-71 -106h110v121q0 10 2 48h-3q-8 -18 -38 -63z" />
    <glyph glyph-name="five.inferior" unicode="&#x2085;" 
d="M188 163l-8 -53q12 3 24 3q74 0 115.5 -40.5t41.5 -107.5q0 -64 -45 -109t-120 -45q-66 0 -100 24.5t-50 72.5l106 36q12 -36 44 -36q19 0 32 15t13 41t-14 42t-37 16q-22 0 -38 -13h-103l40 250h238v-96h-139z" />
    <glyph glyph-name="six.inferior" unicode="&#x2086;" 
d="M28 -30q0 29 8.5 57.5t30 62t35 52.5t48 61.5l44.5 55.5h119l-101 -132q4 1 21 1q67 -5 107.5 -48.5t40.5 -109.5q0 -67 -48 -113t-130 -46q-81 0 -128 44.5t-47 114.5zM140 -30q0 -30 18.5 -48t45.5 -18q28 0 46.5 18.5t18.5 47.5q0 30 -18.5 48.5t-46.5 18.5
q-27 0 -45.5 -19t-18.5 -48z" />
    <glyph glyph-name="seven.inferior" unicode="&#x2087;" 
d="M357 259v-86l-158 -348h-127l163 338h-187v96h309z" />
    <glyph glyph-name="eight.inferior" unicode="&#x2088;" 
d="M154 140q0 -23 14.5 -37.5t35.5 -14.5q22 0 36.5 14.5t14.5 37.5t-14.5 36.5t-36.5 13.5t-36 -13.5t-14 -36.5zM146 -45q0 -26 16.5 -43t43.5 -17q26 0 42 16.5t16 43.5q0 28 -16 45t-42 17t-43 -17t-17 -45zM371 -52q0 -57 -42 -97t-124 -40q-83 0 -125 38t-42 96
q0 84 76 114v1q-63 27 -63 89q0 54 40.5 88.5t113.5 34.5q71 0 111.5 -33.5t40.5 -81.5q0 -73 -65 -97v-1q79 -28 79 -111z" />
    <glyph glyph-name="nine.inferior" unicode="&#x2089;" 
d="M381 113q0 -72 -68 -162l-99 -126h-119l102 132q-5 -1 -22 -1q-68 4 -107.5 46.5t-39.5 110.5t49.5 113.5t128.5 45.5q80 0 127.5 -43.5t47.5 -115.5zM269 114q0 31 -18.5 48.5t-45.5 17.5q-28 0 -46.5 -17.5t-18.5 -48.5q0 -30 18.5 -48.5t46.5 -18.5t46 17.5t18 49.5z
" />
    <glyph glyph-name="franc" unicode="&#x20a3;" horiz-adv-x="576" 
d="M382 97h-124v-97h-152v97h-80v110h80v475h418v-138h-266v-128h256v-129h-256v-80h124v-110z" />
    <glyph glyph-name="lira" unicode="&#x20a4;" horiz-adv-x="576" 
d="M522 560l-141 -52q-23 71 -80 71q-33 0 -51 -23t-18 -61q0 -18 1 -26h151v-86h-133l8.5 -29t8.5 -28h116v-85h-101v-8q0 -54 -35 -86q21 0 60.5 -16t62.5 -16q21 0 33 12.5t18 44.5l143 -32q-19 -86 -62 -124t-123 -38q-42 0 -113 25.5t-108 25.5q-50 0 -95 -25l-45 105
q64 25 91.5 52t27.5 66q0 9 -1 14h-101v85h83l-18 57h-65v86h46q-2 26 -2 42q0 80 56.5 137t164.5 57q82 0 138.5 -37.5t82.5 -107.5z" />
    <glyph glyph-name="peseta" unicode="&#x20a7;" horiz-adv-x="1307" 
d="M66 0v682h212q111 0 182 -51t78 -152h58v153h151v-153h109v-127h-109v-168q0 -36 12.5 -49.5t43.5 -13.5q24 0 58 8v-122q-51 -14 -99 -14q-88 0 -127 44t-39 129v186h-82q-56 -116 -240 -116h-48v-236h-160zM1268 346h-131q-1 24 -14 37.5t-35 13.5q-20 0 -30.5 -10.5
t-10.5 -24.5q0 -21 18.5 -35t76.5 -34q72 -24 104.5 -61.5t32.5 -91.5q0 -69 -50 -113t-140 -44q-93 0 -140 42.5t-50 118.5h133q3 -63 59 -63q18 0 31 11.5t15 27.5q2 14 -5 27q-14 28 -84 51q-71 24 -105 59t-34 92q0 67 50 106.5t130 39.5q79 0 125.5 -41t53.5 -108z
M378 458q0 42 -26.5 70t-79.5 28h-46v-194h34q118 0 118 96z" />
    <glyph glyph-name="Euro" unicode="&#x20ac;" horiz-adv-x="576" 
d="M535 124l29 -126q-53 -20 -125 -20q-264 0 -327 232h-96l29 104h51q0 5 -0.5 15t-0.5 14q0 12 2 36h-69l29 105h60q34 101 114.5 160.5t198.5 59.5q73 0 130 -18l-35 -125q-44 13 -91 13q-110 0 -155 -90h226l-29 -105h-224q-2 -24 -2 -36q0 -11 2 -29h207l-28 -104h-157
q45 -102 175 -102q44 0 86 16z" />
    <glyph glyph-name="afii61248" unicode="&#x2105;" horiz-adv-x="963" 
d="M665 682h102l-472 -682h-102zM230 702q118 0 174 -101l-93 -53q-29 57 -82 57q-42 0 -65.5 -27t-23.5 -69q0 -40 24 -67.5t65 -27.5q57 0 85 57l90 -49q-54 -105 -174 -105q-83 0 -139.5 53t-56.5 140q0 82 53.5 137t142.5 55zM535 173q0 87 56.5 139.5t140.5 52.5
q86 0 141.5 -53.5t55.5 -138.5q0 -82 -56.5 -137.5t-140.5 -55.5q-83 0 -140 53t-57 140zM641 172q0 -41 26 -68t65 -27q40 0 65.5 26.5t25.5 68.5q0 41 -25.5 68.5t-65.5 27.5t-65.5 -25t-25.5 -71z" />
    <glyph glyph-name="afii61289" unicode="&#x2113;" horiz-adv-x="576" 
d="M434 127l51 -79q-72 -65 -159 -65q-155 0 -155 173v40l-49 -42l-48 55l97 87v178q0 112 43.5 171t123.5 59q64 0 94.5 -40.5t30.5 -93.5q0 -39 -10.5 -74.5t-34.5 -71.5t-46 -62t-62 -69v-107q0 -93 58 -93q34 0 66 34zM383 555q0 43 -32 43q-41 0 -41 -84v-113
q33 34 53 76.5t20 77.5z" />
    <glyph glyph-name="trademark" unicode="&#x2122;" horiz-adv-x="629" 
d="M553 682l18 -236h-79l-6 90q-2 26 -2 48h-3q-8 -30 -12 -42l-32 -96h-51l-27 85q-10 31 -15 53h-3q0 -29 -2 -45l-6 -93h-81l19 236h107l22 -72l13 -42q3 13 13 43l22 71h105zM33 612v70h204v-70h-63v-166h-78v166h-63z" />
    <glyph glyph-name="Omega" unicode="&#x2126;" horiz-adv-x="767" 
d="M735 377q0 -72 -31.5 -136.5t-89.5 -98.5v-5h120v-137h-309v161q66 17 107 75t41 133q0 87 -53 143t-137 56q-81 0 -135 -55.5t-54 -143.5q0 -75 41 -133t107 -75v-161h-308v137h118v5q-57 33 -88.5 98t-31.5 137q0 139 100 233t253 94q159 0 254.5 -94t95.5 -233z" />
    <glyph glyph-name="estimated" unicode="&#x212e;" horiz-adv-x="662" 
d="M627 298h-460v-205q68 -67 163 -67q75 0 127.5 35t93.5 101l37 -23q-50 -75 -109.5 -113t-148.5 -38q-130 0 -210 89t-80 221q0 133 79.5 222t212.5 89q134 0 212.5 -88.5t82.5 -222.5zM496 336v167q-68 68 -165 68q-98 0 -164 -66v-169h329z" />
    <glyph glyph-name="onethird" unicode="&#x2153;" horiz-adv-x="990" 
d="M155 250v338h-69v96h183v-434h-114zM669 682h102l-472 -682h-103zM732 319l-98 41q36 87 148 87q75 0 115 -31t40 -83q0 -35 -20 -60.5t-51 -32.5v-3q41 -10 63 -39.5t22 -70.5q0 -59 -44.5 -100t-126.5 -41q-131 0 -162 106l101 32q14 -49 61 -49q24 0 39 16.5t15 43.5
q0 24 -16 39t-48 15h-32v85h33q49 0 49 44q0 17 -10.5 28.5t-29.5 11.5q-32 0 -48 -39z" />
    <glyph glyph-name="twothirds" unicode="&#x2154;" horiz-adv-x="1028" 
d="M707 682h102l-472 -682h-103zM770 319l-98 41q36 87 148 87q75 0 115 -31t40 -83q0 -35 -20 -60.5t-51 -32.5v-3q41 -10 63 -39.5t22 -70.5q0 -59 -44.5 -100t-126.5 -41q-131 0 -162 106l101 32q14 -49 61 -49q24 0 39 16.5t15 43.5q0 24 -16 39t-48 15h-32v85h33
q49 0 49 44q0 17 -10.5 28.5t-29.5 11.5q-32 0 -48 -39zM53 250v74l132 141q58 62 58 98q0 18 -11.5 29t-28.5 11q-37 0 -52 -51l-103 30q33 115 160 115q68 0 111 -37t43 -94q0 -40 -21.5 -75t-78.5 -92l-52 -53h158v-96h-315z" />
    <glyph glyph-name="oneeighth" unicode="&#x215b;" horiz-adv-x="990" 
d="M155 250v338h-69v96h183v-434h-114zM669 682h102l-472 -682h-103zM735 315q0 -23 14.5 -37.5t35.5 -14.5q22 0 36.5 14.5t14.5 37.5t-14.5 36.5t-36.5 13.5t-36 -13.5t-14 -36.5zM727 130q0 -26 16.5 -43t43.5 -17q26 0 42 16.5t16 43.5q0 28 -16 45t-42 17t-43 -17
t-17 -45zM952 123q0 -57 -42 -97t-124 -40q-83 0 -125 38t-42 96q0 84 76 114v1q-63 27 -63 89q0 54 40.5 88.5t113.5 34.5q71 0 111.5 -33.5t40.5 -81.5q0 -73 -65 -97v-1q79 -28 79 -111z" />
    <glyph glyph-name="threeeighths" unicode="&#x215c;" horiz-adv-x="1012" 
d="M691 682h102l-472 -682h-103zM757 315q0 -23 14.5 -37.5t35.5 -14.5q22 0 36.5 14.5t14.5 37.5t-14.5 36.5t-36.5 13.5t-36 -13.5t-14 -36.5zM749 130q0 -26 16.5 -43t43.5 -17q26 0 42 16.5t16 43.5q0 28 -16 45t-42 17t-43 -17t-17 -45zM974 123q0 -57 -42 -97
t-124 -40q-83 0 -125 38t-42 96q0 84 76 114v1q-63 27 -63 89q0 54 40.5 88.5t113.5 34.5q71 0 111.5 -33.5t40.5 -81.5q0 -73 -65 -97v-1q79 -28 79 -111zM151 569l-98 41q36 87 148 87q75 0 115 -31t40 -83q0 -35 -20 -60.5t-51 -32.5v-3q41 -10 63 -39.5t22 -70.5
q0 -59 -44.5 -100t-126.5 -41q-131 0 -162 106l101 32q14 -49 61 -49q24 0 39 16.5t15 43.5q0 24 -16 39t-48 15h-32v85h33q49 0 49 44q0 17 -10.5 28.5t-29.5 11.5q-32 0 -48 -39z" />
    <glyph glyph-name="fiveeighths" unicode="&#x215d;" horiz-adv-x="1012" 
d="M691 682h102l-472 -682h-103zM757 315q0 -23 14.5 -37.5t35.5 -14.5q22 0 36.5 14.5t14.5 37.5t-14.5 36.5t-36.5 13.5t-36 -13.5t-14 -36.5zM749 130q0 -26 16.5 -43t43.5 -17q26 0 42 16.5t16 43.5q0 28 -16 45t-42 17t-43 -17t-17 -45zM974 123q0 -57 -42 -97
t-124 -40q-83 0 -125 38t-42 96q0 84 76 114v1q-63 27 -63 89q0 54 40.5 88.5t113.5 34.5q71 0 111.5 -33.5t40.5 -81.5q0 -73 -65 -97v-1q79 -28 79 -111zM188 588l-8 -53q12 3 24 3q74 0 115.5 -40.5t41.5 -107.5q0 -64 -45 -109t-120 -45q-66 0 -100 24.5t-50 72.5
l106 36q12 -36 44 -36q19 0 32 15t13 41t-14 42t-37 16q-22 0 -38 -13h-103l40 250h238v-96h-139z" />
    <glyph glyph-name="seveneighths" unicode="&#x215e;" horiz-adv-x="984" 
d="M357 684v-86l-158 -348h-127l163 338h-187v96h309zM655 682h102l-472 -682h-103zM729 315q0 -23 14.5 -37.5t35.5 -14.5q22 0 36.5 14.5t14.5 37.5t-14.5 36.5t-36.5 13.5t-36 -13.5t-14 -36.5zM721 130q0 -26 16.5 -43t43.5 -17q26 0 42 16.5t16 43.5q0 28 -16 45
t-42 17t-43 -17t-17 -45zM946 123q0 -57 -42 -97t-124 -40q-83 0 -125 38t-42 96q0 84 76 114v1q-63 27 -63 89q0 54 40.5 88.5t113.5 34.5q71 0 111.5 -33.5t40.5 -81.5q0 -73 -65 -97v-1q79 -28 79 -111z" />
    <glyph glyph-name="partialdiff" unicode="&#x2202;" horiz-adv-x="650" 
d="M601 457q0 -102 -25 -187q-37 -128 -116 -205t-190 -77q-96 0 -157 58.5t-61 149.5q0 71 23.5 129t62.5 93t85 53.5t93 18.5q102 0 144 -67h2q3 16 3 48q0 72 -35 114t-102 42q-56 0 -107 -31l-29 91q63 44 162 44q119 0 183 -75t64 -199zM444 324q-23 71 -97 71
q-63 0 -108.5 -60t-45.5 -144q0 -44 23 -70.5t62 -26.5q59 0 103 65t63 165z" />
    <glyph glyph-name="Delta" unicode="&#x2206;" horiz-adv-x="672" 
d="M7 0l262 682h150l246 -682h-658zM304 411l-98 -286h257l-101 295q-12 35 -24 86h-5q-14 -51 -29 -95z" />
    <glyph glyph-name="product" unicode="&#x220f;" horiz-adv-x="759" 
d="M686 -235h-156v779h-301v-779h-156v917h613v-917z" />
    <glyph glyph-name="summation" unicode="&#x2211;" horiz-adv-x="664" 
d="M626 -235h-604v115l276 350l-253 332v120h555v-137h-352l236 -313l-259 -330h401v-137z" />
    <glyph glyph-name="minus" unicode="&#x2212;" horiz-adv-x="672" 
d="M595 209h-518v110h518v-110z" />
    <glyph glyph-name="uni2215" unicode="&#x2215;" horiz-adv-x="195" 
d="M282 682h103l-472 -682h-103z" />
    <glyph glyph-name="uni2219" unicode="&#x2219;" horiz-adv-x="289" 
d="M57 268v164h177v-164h-177z" />
    <glyph glyph-name="radical" unicode="&#x221a;" horiz-adv-x="613" 
d="M514 720h94l-230 -732h-96l-143 310l-61 -37l-38 67q93 55 155 96l61.5 -136l72.5 -163z" />
    <glyph glyph-name="infinity" unicode="&#x221e;" horiz-adv-x="896" 
d="M838 294q0 -83 -53 -135.5t-138 -52.5q-59 0 -111.5 29.5t-88.5 81.5h-2q-85 -111 -201 -111q-85 0 -139 50.5t-54 132.5q0 84 54.5 135.5t136.5 51.5q123 0 202 -113h2q82 113 198 113q86 0 140 -51t54 -131zM733 292q0 39 -24 64.5t-72 25.5q-79 0 -139 -91
q60 -92 140 -92q46 0 70.5 27t24.5 66zM391 291q-64 92 -141 92q-43 0 -68.5 -26t-25.5 -67q0 -40 27 -66t70 -26q74 0 138 93z" />
    <glyph glyph-name="integral" unicode="&#x222b;" horiz-adv-x="514" 
d="M477 722l-27 -128q-26 11 -53 11q-36 0 -50 -18t-14 -57v-541q0 -108 -47.5 -163.5t-133.5 -55.5q-70 0 -117 19l28 129q36 -12 56 -12q61 0 61 71v552q0 212 185 212q64 0 112 -19z" />
    <glyph glyph-name="approxequal" unicode="&#x2248;" horiz-adv-x="672" 
d="M541 464l81 -75q-72 -96 -173 -96q-61 0 -123 33q-62 35 -101 35q-51 0 -95 -60l-80 75q74 96 172 96q61 0 121 -32q61 -35 103 -35q52 0 95 59zM541 228l81 -76q-73 -95 -173 -95q-63 0 -123 32q-64 35 -101 35q-51 0 -95 -59l-80 74q72 97 172 97q58 0 121 -33
q63 -35 103 -35q53 0 95 60z" />
    <glyph glyph-name="notequal" unicode="&#x2260;" horiz-adv-x="672" 
d="M417 546h126l-63 -115h115v-109h-165l-61 -113h226v-110h-278l-61 -113h-126l62 113h-115v110h166l61 113h-227v109h277z" />
    <glyph glyph-name="lessequal" unicode="&#x2264;" horiz-adv-x="672" 
d="M595 0h-518v110h518v-110zM595 139l-518 200v95l518 200v-120l-339 -126v-2l339 -125v-122z" />
    <glyph glyph-name="greaterequal" unicode="&#x2265;" horiz-adv-x="672" 
d="M595 0h-518v110h518v-110zM595 339l-518 -200v122l339 125v2l-339 126v120l518 -200v-95z" />
    <glyph glyph-name="lozenge" unicode="&#x25ca;" horiz-adv-x="595" 
d="M313 682l235 -341l-235 -341h-44l-234 340l234 342h44zM291 126l145 215l-145 215l-144 -215z" />
    <glyph glyph-name="commaaccent" unicode="&#xf6c3;" horiz-adv-x="320" 
d="M99 -155v100h122v-65q0 -76 -38 -129h-67q28 40 28 94h-45z" />
    <glyph glyph-name="uniF8FF" unicode="&#xf8ff;" horiz-adv-x="500" 
d="M12 0v665h475v-665h-475zM88 618l162 -243l161 243h-323zM60 575v-484q0 -1 11.5 16l30.5 46.5l38 58.5l81 121zM440 575l-162 -242l162 -243v485zM411 48l-161 242l-162 -242h323z" />
    <glyph glyph-name="CR" horiz-adv-x="250" 
 />
    <glyph glyph-name="cyrillicbreve" horiz-adv-x="350" 
d="M249 720h101v-14q0 -72 -50.5 -111t-124.5 -39q-79 0 -127 38.5t-48 111.5v14h101v-14q0 -69 74 -69t74 68v15z" />
    <glyph glyph-name="grave.cap" horiz-adv-x="320" 
d="M32 807l46 109l193 -94l-40 -91z" />
    <glyph glyph-name="acute.cap" horiz-adv-x="320" 
d="M242 916l46 -109l-199 -76l-40 91z" />
    <glyph glyph-name="dieresis.cap" horiz-adv-x="320" 
d="M6 770v118h121v-118h-121zM193 770v118h121v-118h-121z" />
    <glyph glyph-name="circumflex.cap" horiz-adv-x="320" 
d="M160 911l173 -104l-38 -77l-135 60l-136 -60l-37 77z" />
    <glyph glyph-name="caron.cap" horiz-adv-x="320" 
d="M160 730l-173 104l38 77l135 -60l136 60l37 -77z" />
    <glyph glyph-name="macron.cap" horiz-adv-x="320" 
d="M310 770h-300v97h300v-97z" />
    <glyph glyph-name="breve.cap" horiz-adv-x="320" 
d="M234 895h96q-3 -69 -51 -108.5t-119 -39.5q-78 0 -122.5 39.5t-47.5 108.5h96q2 -23 22 -37t52 -14q69 0 74 51z" />
    <glyph glyph-name="cyrillicbreve.cap" horiz-adv-x="360" 
d="M257 885h103v-5q0 -71 -52 -109.5t-128 -38.5q-82 0 -131 37.5t-49 110.5v5h103v-5q0 -66 77 -66q38 0 57.5 17t19.5 48v6z" />
    <glyph glyph-name="dotaccent.cap" horiz-adv-x="320" 
d="M97 770v121h126v-121h-126z" />
    <glyph glyph-name="ring.cap" horiz-adv-x="320" 
d="M109 846q0 -22 15.5 -37.5t37.5 -15.5t37 15.5t15 37.5t-15 37t-37 15t-37.5 -15t-15.5 -37zM30 846q0 55 37.5 93t94.5 38q55 0 93 -38t38 -93t-38 -93.5t-93 -38.5q-57 0 -94.5 38t-37.5 94z" />
    <glyph glyph-name="tilde.cap" horiz-adv-x="320" 
d="M65 766h-84q3 66 31.5 104.5t79.5 38.5q39 0 75 -27q40 -26 59 -26q28 0 29 43h84q-6 -143 -113 -143q-43 0 -80 27q-37 26 -53 26q-27 0 -28 -43z" />
    <glyph glyph-name="hungarumlaut.cap" horiz-adv-x="320" 
d="M149 922l72 -88l-158 -109l-60 75zM357 922l73 -88l-160 -109l-59 75z" />
    <glyph glyph-name="zero.denominator" 
d="M25 219q0 116 54 172t130 56q71 0 122.5 -54t51.5 -173q0 -67 -17.5 -116t-45.5 -73.5t-56.5 -35t-58.5 -10.5q-74 0 -127 54.5t-53 179.5zM267 218q0 135 -62 135q-26 0 -44 -31t-18 -101q0 -140 63 -140q25 0 43 32.5t18 104.5z" />
    <glyph glyph-name="one.denominator" 
d="M155 0v338h-69v96h183v-434h-114z" />
    <glyph glyph-name="two.denominator" 
d="M53 0v74l132 141q58 62 58 98q0 18 -11.5 29t-28.5 11q-37 0 -52 -51l-103 30q33 115 160 115q68 0 111 -37t43 -94q0 -40 -21.5 -75t-78.5 -92l-52 -53h158v-96h-315z" />
    <glyph glyph-name="three.denominator" 
d="M151 319l-98 41q36 87 148 87q75 0 115 -31t40 -83q0 -35 -20 -60.5t-51 -32.5v-3q41 -10 63 -39.5t22 -70.5q0 -59 -44.5 -100t-126.5 -41q-131 0 -162 106l101 32q14 -49 61 -49q24 0 39 16.5t15 43.5q0 24 -16 39t-48 15h-32v85h33q49 0 49 44q0 17 -10.5 28.5
t-29.5 11.5q-32 0 -48 -39z" />
    <glyph glyph-name="four.denominator" 
d="M384 63h-62v-63h-110v63h-195v81l193 290h112v-288h62v-83zM173 252l-71 -106h110v121q0 10 2 48h-3q-8 -18 -38 -63z" />
    <glyph glyph-name="five.denominator" 
d="M188 338l-8 -53q12 3 24 3q74 0 115.5 -40.5t41.5 -107.5q0 -64 -45 -109t-120 -45q-66 0 -100 24.5t-50 72.5l106 36q12 -36 44 -36q19 0 32 15t13 41t-14 42t-37 16q-22 0 -38 -13h-103l40 250h238v-96h-139z" />
    <glyph glyph-name="six.denominator" 
d="M28 145q0 29 8.5 57.5t30 62t35 52.5t48 61.5l44.5 55.5h119l-101 -132q4 1 21 1q67 -5 107.5 -48.5t40.5 -109.5q0 -67 -48 -113t-130 -46q-81 0 -128 44.5t-47 114.5zM140 145q0 -30 18.5 -48t45.5 -18q28 0 46.5 18.5t18.5 47.5q0 30 -18.5 48.5t-46.5 18.5
q-27 0 -45.5 -19t-18.5 -48z" />
    <glyph glyph-name="seven.denominator" 
d="M357 434v-86l-158 -348h-127l163 338h-187v96h309z" />
    <glyph glyph-name="eight.denominator" 
d="M154 315q0 -23 14.5 -37.5t35.5 -14.5q22 0 36.5 14.5t14.5 37.5t-14.5 36.5t-36.5 13.5t-36 -13.5t-14 -36.5zM146 130q0 -26 16.5 -43t43.5 -17q26 0 42 16.5t16 43.5q0 28 -16 45t-42 17t-43 -17t-17 -45zM371 123q0 -57 -42 -97t-124 -40q-83 0 -125 38t-42 96
q0 84 76 114v1q-63 27 -63 89q0 54 40.5 88.5t113.5 34.5q71 0 111.5 -33.5t40.5 -81.5q0 -73 -65 -97v-1q79 -28 79 -111z" />
    <glyph glyph-name="nine.denominator" 
d="M381 288q0 -72 -68 -162l-99 -126h-119l102 132q-5 -1 -22 -1q-68 4 -107.5 46.5t-39.5 110.5t49.5 113.5t128.5 45.5q80 0 127.5 -43.5t47.5 -115.5zM269 289q0 31 -18.5 48.5t-45.5 17.5q-28 0 -46.5 -17.5t-18.5 -48.5q0 -30 18.5 -48.5t46.5 -18.5t46 17.5t18 49.5z
" />
    <glyph glyph-name="zero.numerator" 
d="M25 469q0 116 54 172t130 56q71 0 122.5 -54t51.5 -173q0 -67 -17.5 -116t-45.5 -73.5t-56.5 -35t-58.5 -10.5q-74 0 -127 54.5t-53 179.5zM267 468q0 135 -62 135q-26 0 -44 -31t-18 -101q0 -140 63 -140q25 0 43 32.5t18 104.5z" />
    <glyph glyph-name="one.numerator" 
d="M155 250v338h-69v96h183v-434h-114z" />
    <glyph glyph-name="two.numerator" 
d="M53 250v74l132 141q58 62 58 98q0 18 -11.5 29t-28.5 11q-37 0 -52 -51l-103 30q33 115 160 115q68 0 111 -37t43 -94q0 -40 -21.5 -75t-78.5 -92l-52 -53h158v-96h-315z" />
    <glyph glyph-name="three.numerator" 
d="M151 569l-98 41q36 87 148 87q75 0 115 -31t40 -83q0 -35 -20 -60.5t-51 -32.5v-3q41 -10 63 -39.5t22 -70.5q0 -59 -44.5 -100t-126.5 -41q-131 0 -162 106l101 32q14 -49 61 -49q24 0 39 16.5t15 43.5q0 24 -16 39t-48 15h-32v85h33q49 0 49 44q0 17 -10.5 28.5
t-29.5 11.5q-32 0 -48 -39z" />
    <glyph glyph-name="four.numerator" 
d="M384 313h-62v-63h-110v63h-195v81l193 290h112v-288h62v-83zM173 502l-72 -106h111v121q0 10 2 48h-3q-4 -10 -38 -63z" />
    <glyph glyph-name="five.numerator" 
d="M188 588l-8 -53q12 3 24 3q74 0 115.5 -40.5t41.5 -107.5q0 -64 -45 -109t-120 -45q-66 0 -100 24.5t-50 72.5l106 36q12 -36 44 -36q19 0 32 15t13 41t-14 42t-37 16q-22 0 -38 -13h-103l40 250h238v-96h-139z" />
    <glyph glyph-name="six.numerator" 
d="M28 395q0 79 67 163l99 126h119l-101 -132q4 1 21 1q67 -5 107.5 -48.5t40.5 -109.5q0 -67 -48 -113t-130 -46q-81 0 -128 44.5t-47 114.5zM140 395q0 -30 18.5 -48t45.5 -18q28 0 46.5 18.5t18.5 47.5q0 30 -18.5 48.5t-46.5 18.5q-27 0 -45.5 -19t-18.5 -48z" />
    <glyph glyph-name="seven.numerator" 
d="M357 684v-86l-158 -348h-127l163 338h-187v96h309z" />
    <glyph glyph-name="eight.numerator" 
d="M154 565q0 -23 14.5 -37.5t35.5 -14.5q22 0 36.5 14.5t14.5 37.5t-14.5 36.5t-36.5 13.5t-36 -13.5t-14 -36.5zM146 380q0 -26 16.5 -43t43.5 -17q26 0 42 16.5t16 43.5q0 28 -16 45t-42 17t-43 -17t-17 -45zM371 373q0 -57 -42 -97t-124 -40q-83 0 -125 38t-42 96
q0 84 76 114v1q-63 27 -63 89q0 54 40.5 88.5t113.5 34.5q71 0 111.5 -33.5t40.5 -81.5q0 -73 -65 -97v-1q79 -28 79 -111z" />
    <glyph glyph-name="nine.numerator" 
d="M381 538q0 -72 -68 -162l-99 -126h-119l102 132q-5 -1 -22 -1q-68 4 -107.5 46.5t-39.5 110.5t49.5 113.5t128.5 45.5q80 0 127.5 -43.5t47.5 -115.5zM269 539q0 31 -18.5 48.5t-45.5 17.5q-28 0 -46.5 -17.5t-18.5 -48.5q0 -30 18.5 -48.5t46.5 -18.5t46 17.5t18 49.5z
" />
    <glyph glyph-name="caron.alt" horiz-adv-x="382" 
d="M96 620v100h123v-64q0 -75 -39 -130h-67q28 38 28 94h-45z" />
    <glyph glyph-name="commaaccent.alt" horiz-adv-x="320" 
d="M230 651v-100h-122v64q0 77 39 130h66q-28 -40 -28 -94h45z" />
    <glyph glyph-name="dollar.oldstyle" horiz-adv-x="535" 
d="M445 457l-115 -56q-24 60 -74 60q-28 0 -43 -14t-15 -33q0 -24 20 -39t84 -37q88 -30 127 -71t39 -101t-39 -104t-111 -57v-78h-117v76q-59 9 -93 35.5t-53 77.5l117 48q25 -67 88 -67q67 0 67 59q0 27 -21.5 44.5t-77.5 35.5q-87 28 -128 68t-41 100q0 59 38.5 98
t103.5 51v72h117v-73q93 -15 127 -95z" />
    <glyph glyph-name="zero.oldstyle" horiz-adv-x="655" 
d="M30 266q0 124 85 205t212 81q131 0 214.5 -81.5t83.5 -204.5q0 -122 -84 -206t-214 -84q-127 0 -212 83.5t-85 206.5zM187 264q0 -67 40 -110.5t101 -43.5q65 0 102.5 43.5t37.5 110.5q0 66 -37.5 110t-102.5 44q-66 0 -103.5 -43t-37.5 -111z" />
    <glyph glyph-name="one.oldstyle" horiz-adv-x="415" 
d="M154 0v394h-116v136h268v-530h-152z" />
    <glyph glyph-name="two.oldstyle" horiz-adv-x="602" 
d="M57 0v110l208 129q56 35 76.5 58.5t20.5 54.5q0 30 -17.5 48t-48.5 18q-27 0 -46 -15.5t-36 -50.5l-135 75q66 125 221 125q101 0 161 -52.5t60 -126.5q0 -60 -28 -103.5t-94 -84.5l-92 -57h242v-128h-492z" />
    <glyph glyph-name="three.oldstyle" horiz-adv-x="586" 
d="M211 356l-144 50q54 145 225 145q106 0 166 -52.5t60 -136.5q0 -54 -29.5 -92t-76.5 -52v-4q135 -39 135 -187q0 -99 -74 -165.5t-183 -66.5q-196 0 -249 168l139 51q27 -93 109 -93q42 0 72 29.5t30 80.5q0 52 -33 82.5t-91 30.5h-41v120h45q41 0 66 22.5t25 61.5
q0 33 -20 54.5t-54 21.5q-56 0 -77 -68z" />
    <glyph glyph-name="four.oldstyle" horiz-adv-x="632" 
d="M593 11h-93v-191h-148v191h-317v122l320 397h145v-392h93v-127zM292 274l-108 -136h168v180q0 13 2 47h-3q-16 -37 -59 -91z" />
    <glyph glyph-name="five.oldstyle" horiz-adv-x="553" 
d="M276 151q-49 0 -80 -36h-145l62 414h373v-135h-243l-19 -129q24 12 65 12q113 0 179.5 -63.5t66.5 -168.5t-71.5 -176.5t-180.5 -71.5q-92 0 -155 44t-90 125l134 56q33 -99 110 -99q39 0 67.5 31.5t28.5 83.5t-27 82.5t-75 30.5z" />
    <glyph glyph-name="six.oldstyle" horiz-adv-x="622" 
d="M41 235q0 66 28 127.5t82 138.5l144 204h169l-152 -217q10 3 36 3q91 0 162 -71t71 -185q0 -109 -76 -183.5t-195 -74.5q-121 0 -195 72t-74 186zM197 234q0 -55 33 -89t81 -34t81 34t33 89q0 54 -32 89.5t-82 35.5t-82 -34.5t-32 -90.5z" />
    <glyph glyph-name="seven.oldstyle" horiz-adv-x="548" 
d="M499 530v-126l-265 -584h-170l276 574h-306v136h465z" />
    <glyph glyph-name="eight.oldstyle" horiz-adv-x="622" 
d="M77 537q0 86 63.5 138.5t170.5 52.5t170.5 -52.5t63.5 -138.5q0 -45 -24 -82.5t-61 -55.5v-2q54 -21 87.5 -71.5t33.5 -113.5q0 -109 -71.5 -172.5t-198.5 -63.5t-198.5 63t-71.5 173q0 63 33 112.5t87 72.5v2q-36 18 -60 55.5t-24 82.5zM199 220q0 -57 33.5 -88
t78.5 -31q46 0 79 31t33 88q0 49 -32.5 81.5t-79.5 32.5q-49 0 -80.5 -33.5t-31.5 -80.5zM229 524q0 -36 22.5 -57t59.5 -21q38 0 60 22t22 57t-23 56.5t-59 21.5q-35 0 -58.5 -22t-23.5 -57z" />
    <glyph glyph-name="nine.oldstyle" horiz-adv-x="622" 
d="M581 294q0 -110 -109 -264l-149 -210h-170l157 221q-7 -2 -40 -2q-102 4 -165.5 75t-63.5 180t76.5 183.5t195.5 74.5q121 0 194.5 -72t73.5 -186zM425 295q0 55 -33 89t-80 34q-49 0 -82 -34t-33 -89q0 -54 32.5 -89.5t82.5 -35.5q49 0 81 34.5t32 90.5z" />
    <glyph glyph-name="cent.oldstyle" horiz-adv-x="554" 
d="M362 212l119 -48q-47 -110 -156 -134v-99h-108v99q-79 17 -127.5 76.5t-48.5 148.5q0 83 47 145t129 77v84h108v-83q100 -19 147 -112l-115 -63q-28 64 -85 64q-44 0 -66 -31.5t-22 -81.5t22 -81.5t66 -31.5q32 0 53.5 16.5t36.5 54.5z" />
    <glyph glyph-name="zero.fitted" horiz-adv-x="589" 
d="M36 344q0 94 23.5 166.5t62.5 113t84.5 60.5t94.5 20q36 0 70.5 -10.5t68 -37t58 -66t40 -102t15.5 -141.5q0 -86 -17.5 -153.5t-44.5 -107t-63 -65.5t-68 -35t-65 -9q-47 0 -90 18t-82.5 57.5t-63 114.5t-23.5 177zM397 344q0 112 -27.5 169t-74.5 57q-43 0 -72.5 -55
t-29.5 -168q0 -121 29 -178.5t75 -57.5q41 0 70.5 57t29.5 176z" />
    <glyph glyph-name="one.fitted" horiz-adv-x="431" 
d="M160 0v547h-105v135h259v-682h-154z" />
    <glyph glyph-name="two.fitted" horiz-adv-x="560" 
d="M59 0v112l200 225q53 61 74.5 95t21.5 70q0 30 -19.5 49t-51.5 19t-53 -20.5t-40 -69.5l-139 51q34 89 90.5 131t145.5 42q103 0 164 -55t61 -142q0 -63 -34.5 -121.5t-118.5 -145.5l-101 -105h265v-135h-465z" />
    <glyph glyph-name="three.fitted" horiz-adv-x="574" 
d="M199 501l-142 51q52 152 225 152q107 0 167 -50.5t60 -130.5q0 -54 -31.5 -94t-74.5 -53v-3q61 -17 94.5 -62.5t33.5 -111.5q0 -92 -66 -156t-185 -64q-98 0 -155.5 41t-85.5 122l140 55q15 -50 38.5 -71.5t62.5 -21.5q44 0 69.5 28t25.5 76q0 45 -30.5 70t-85.5 25h-42
v120h48q42 0 65 22.5t23 61.5q0 30 -19 50.5t-55 20.5q-31 0 -50 -18t-30 -59z" />
    <glyph glyph-name="four.fitted" horiz-adv-x="592" 
d="M561 116h-88v-116h-149v116h-288v122l287 444h150v-439h88v-127zM271 399l-102 -156h155v192q0 12 0.5 30t0.5 28h-3q-21 -48 -51 -94z" />
    <glyph glyph-name="five.fitted" horiz-adv-x="559" 
d="M247 547l-18 -110q23 7 44 7q110 0 175.5 -62.5t65.5 -167.5q0 -97 -68.5 -166.5t-179.5 -69.5q-92 0 -150 41.5t-78 110.5l144 51q18 -66 85 -66q36 0 60.5 25.5t24.5 67.5q0 49 -23 76t-66 27q-50 0 -71 -37h-147l66 408h356v-135h-220z" />
    <glyph glyph-name="six.fitted" horiz-adv-x="591" 
d="M33 228q0 65 27.5 125t79.5 132l136 197h171l-147 -209q16 2 28 2q97 0 163.5 -70.5t66.5 -176.5t-74 -178t-190 -72q-118 0 -189.5 69.5t-71.5 180.5zM189 227q0 -52 30.5 -83.5t74.5 -31.5q46 0 76.5 31.5t30.5 83.5q0 51 -30 84t-77 33q-46 0 -75.5 -32t-29.5 -85z
" />
    <glyph glyph-name="seven.fitted" horiz-adv-x="509" 
d="M481 682v-126l-248 -556h-170l259 547h-296v135h455z" />
    <glyph glyph-name="eight.fitted" horiz-adv-x="584" 
d="M211 498q0 -38 23.5 -62t56.5 -24q36 0 58.5 24.5t22.5 61.5q0 38 -22.5 60t-58.5 22q-34 0 -57 -22.5t-23 -59.5zM198 202q0 -43 27 -71t70 -28q42 0 68 27t26 72t-26 73t-68 28t-69.5 -28t-27.5 -73zM544 193q0 -88 -65.5 -151.5t-185.5 -63.5q-121 0 -187 60.5
t-66 149.5q0 129 118 179v2q-98 44 -98 143q0 82 63 137t170 55q104 0 167 -53.5t63 -128.5q0 -57 -27 -97t-72 -56v-2q120 -43 120 -174z" />
    <glyph glyph-name="nine.fitted" horiz-adv-x="591" 
d="M558 454q0 -62 -25.5 -119.5t-73.5 -126.5l-145 -208h-170l146 209q-7 -2 -36 -2q-99 4 -160 72.5t-61 174.5t74 178t190 72q118 0 189.5 -69.5t71.5 -180.5zM401 455q0 52 -30.5 83.5t-74.5 31.5q-46 0 -76.5 -31.5t-30.5 -83.5q0 -51 30 -84t77 -33q46 0 75.5 32
t29.5 85z" />
    <glyph glyph-name="percent.oldstyle" horiz-adv-x="909" 
d="M613 585h103l-420 -585h-103zM33 433q0 76 52 124.5t128 48.5q75 0 127 -48.5t52 -124.5q0 -78 -51.5 -126.5t-127.5 -48.5q-77 0 -128.5 48t-51.5 127zM142 433q0 -39 20 -60.5t51 -21.5t51 21.5t20 60.5q0 38 -20 60t-51 22t-51 -21.5t-20 -60.5zM518 154
q0 77 51.5 125t127.5 48q75 0 127 -48.5t52 -124.5q0 -78 -52 -126.5t-127 -48.5q-77 0 -128 48.5t-51 126.5zM626 155q0 -39 20 -60.5t51 -21.5t51.5 21.5t20.5 60.5q0 38 -20.5 60t-51.5 22t-51 -22t-20 -60z" />
    <glyph glyph-name="perthousand.oldstyle" horiz-adv-x="1321" 
d="M613 585h103l-420 -585h-103zM33 433q0 76 52 124.5t128 48.5q75 0 127 -48.5t52 -124.5q0 -78 -51.5 -126.5t-127.5 -48.5q-77 0 -128.5 48t-51.5 127zM142 433q0 -39 20 -60.5t51 -21.5t51 21.5t20 60.5q0 38 -20 60t-51 22t-51 -21.5t-20 -60.5zM518 154
q0 77 51.5 125t127.5 48q75 0 127 -48.5t52 -124.5q0 -78 -52 -126.5t-127 -48.5q-77 0 -128 48.5t-51 126.5zM626 155q0 -39 20 -60.5t51 -21.5t51.5 21.5t20.5 60.5q0 38 -20.5 60t-51.5 22t-51 -22t-20 -60zM930 154q0 77 51.5 125t127.5 48q75 0 127 -48.5t52 -124.5
q0 -78 -52 -126.5t-127 -48.5q-76 0 -127.5 48.5t-51.5 126.5zM1038 155q0 -39 20 -60.5t51 -21.5t51.5 21.5t20.5 60.5q0 38 -20.5 60t-51.5 22q-30 0 -50.5 -22t-20.5 -60z" />
    <glyph glyph-name="zero.taboldstyle" horiz-adv-x="596" 
d="M30 266q0 127 76 206.5t192 79.5q119 0 193.5 -80t74.5 -206t-75 -208t-193 -82q-117 0 -192.5 81.5t-75.5 208.5zM187 264q0 -68 31.5 -111t79.5 -43q51 0 81 43t30 111q0 67 -29.5 110.5t-81.5 43.5t-81.5 -42.5t-29.5 -111.5z" />
    <glyph glyph-name="one.taboldstyle" horiz-adv-x="596" 
d="M237 0v394h-117v136h270v-530h-153z" />
    <glyph glyph-name="two.taboldstyle" horiz-adv-x="596" 
d="M214 352l-136 75q34 62 86.5 93.5t135.5 31.5q99 0 157 -50.5t58 -126.5q0 -61 -29.5 -105.5t-92.5 -84.5l-92 -57h242v-128h-479v110l199 129q53 35 73 60.5t20 57.5q0 27 -16 44t-44 17q-52 0 -82 -66z" />
    <glyph glyph-name="three.taboldstyle" horiz-adv-x="596" 
d="M216 356l-144 50q54 145 225 145q106 0 166 -52.5t60 -136.5q0 -54 -29.5 -92t-76.5 -52v-4q135 -39 135 -187q0 -99 -74 -165.5t-183 -66.5q-196 0 -249 168l139 51q27 -93 109 -93q42 0 72 29.5t30 80.5q0 52 -33 82.5t-91 30.5h-41v120h45q41 0 66 22.5t25 61.5
q0 33 -20 54.5t-54 21.5q-56 0 -77 -68z" />
    <glyph glyph-name="four.taboldstyle" horiz-adv-x="596" 
d="M575 11h-82v-191h-148v191h-312v122l320 397h140v-392h82v-127zM286 270l-106 -132h165v180q0 13 2 47h-3q-21 -49 -58 -95z" />
    <glyph glyph-name="five.taboldstyle" horiz-adv-x="596" 
d="M286 151q-49 0 -80 -36h-145l62 414h373v-135h-243l-19 -129q24 12 65 12q113 0 179.5 -63.5t66.5 -168.5t-71.5 -176.5t-180.5 -71.5q-92 0 -155 44t-90 125l134 56q33 -99 110 -99q39 0 67.5 31.5t28.5 83.5t-27 82.5t-75 30.5z" />
    <glyph glyph-name="six.taboldstyle" horiz-adv-x="596" 
d="M27 235q0 66 28.5 127.5t81.5 138.5l144 204h169l-152 -217q24 3 32 3q101 0 169.5 -72.5t68.5 -183.5q0 -109 -76 -183.5t-196 -74.5q-121 0 -195 72t-74 186zM184 234q0 -55 32.5 -89t80.5 -34t81 34t33 89q0 54 -32 89.5t-82 35.5q-49 0 -81 -34.5t-32 -90.5z" />
    <glyph glyph-name="seven.taboldstyle" horiz-adv-x="596" 
d="M521 530v-126l-259 -583h-170l270 573h-303v136h462z" />
    <glyph glyph-name="eight.taboldstyle" horiz-adv-x="596" 
d="M64 537q0 86 63.5 138.5t170.5 52.5t170.5 -52.5t63.5 -138.5q0 -45 -24 -82.5t-61 -55.5v-2q54 -21 87.5 -71.5t33.5 -113.5q0 -109 -71.5 -172.5t-198.5 -63.5q-128 0 -199 63t-71 173q0 63 33 112.5t87 72.5v2q-36 18 -60 55.5t-24 82.5zM186 220q0 -57 33.5 -88
t78.5 -31q46 0 78.5 31t32.5 88q0 49 -32 81.5t-79 32.5q-49 0 -80.5 -33.5t-31.5 -80.5zM216 524q0 -36 22 -57t60 -21q37 0 59.5 22t22.5 57t-23 56.5t-59 21.5t-59 -21.5t-23 -57.5z" />
    <glyph glyph-name="nine.taboldstyle" horiz-adv-x="596" 
d="M568 294q0 -111 -110 -264l-149 -210h-170l157 221q-7 -2 -39 -2q-103 4 -166.5 75t-63.5 180t76.5 183.5t195.5 74.5q121 0 195 -72t74 -186zM411 295q0 55 -32.5 89t-79.5 34q-50 0 -83 -34t-33 -89q0 -54 32.5 -89.5t83.5 -35.5q49 0 80.5 34.5t31.5 90.5z" />
    <glyph glyph-name="parenleft.cap" horiz-adv-x="372" 
d="M355 -161h-143q-74 97 -112 225t-38 253q0 126 38 253.5t112 226.5h143q-146 -193 -146 -480q0 -129 35.5 -255t110.5 -223z" />
    <glyph glyph-name="parenright.cap" horiz-adv-x="372" 
d="M160 -161h-143q75 97 110.5 223t35.5 255q0 287 -146 480h143q74 -101 112 -227.5t38 -252.5q0 -124 -38.5 -251.5t-111.5 -226.5z" />
    <glyph glyph-name="bracketleft.cap" horiz-adv-x="379" 
d="M324 782v-118h-105v-692h105v-118h-240v928h240z" />
    <glyph glyph-name="bracketright.cap" horiz-adv-x="379" 
d="M54 664v118h241v-928h-241v118h106v692h-106z" />
    <glyph glyph-name="braceleft.cap" horiz-adv-x="384" 
d="M337 797v-116q-42 -1 -60 -19t-18 -56v-159q0 -46 -23 -81t-64 -48v-2q40 -11 63.5 -44.5t23.5 -85.5v-157q0 -38 18 -56t60 -19v-115q-96 0 -155 45t-59 120v171q0 35 -21.5 59.5t-61.5 25.5v114q39 1 61 25t22 59v172q0 166 214 167z" />
    <glyph glyph-name="braceright.cap" horiz-adv-x="384" 
d="M47 681v116q214 -1 214 -167v-172q0 -35 22 -59t61 -25v-114q-40 -1 -61.5 -25.5t-21.5 -59.5v-171q0 -75 -59 -120t-155 -45v115q42 1 60 19t18 56v157q0 52 23.5 85.5t63.5 44.5v2q-41 13 -64 48t-23 81v159q0 38 -18 56t-60 19z" />
    <glyph glyph-name="exclamdown.cap" horiz-adv-x="289" 
d="M223 682v-140h-157v140h157zM227 0h-165l16 464h133z" />
    <glyph glyph-name="questiondown.cap" horiz-adv-x="476" 
d="M132 354q45 39 45 110h133q0 -59 -9.5 -93t-38.5 -66q-34 -36 -45.5 -49.5t-22 -35t-10.5 -46.5q0 -26 17.5 -44t43.5 -18q29 0 47 21t18 59h147q-2 -100 -58.5 -157t-157.5 -57q-96 0 -155 53t-59 135q0 54 25 98t80 90zM322 682v-140h-157v140h157z" />
    <glyph glyph-name="guillemotleft.cap" horiz-adv-x="512" 
d="M252 328l131 213l90 -49l-84 -164l84 -164l-90 -49zM42 328l131 213l90 -49l-84 -164l84 -164l-90 -49z" />
    <glyph glyph-name="guillemotright.cap" horiz-adv-x="512" 
d="M260 328l-131 -213l-90 49l84 164l-84 163l90 50zM471 328l-132 -213l-90 49l85 164l-85 163l90 50z" />
    <glyph glyph-name="guilsinglleft.cap" horiz-adv-x="302" 
d="M42 328l131 213l90 -49l-84 -164l84 -164l-90 -49z" />
    <glyph glyph-name="guilsinglright.cap" horiz-adv-x="302" 
d="M260 328l-131 -213l-90 49l84 164l-84 163l90 50z" />
    <glyph glyph-name="hyphen.cap" horiz-adv-x="463" 
d="M396 308h-322v112h322v-112z" />
    <glyph glyph-name="endash.cap" horiz-adv-x="552" 
d="M478 308h-404v112h404v-112z" />
    <glyph glyph-name="emdash.cap" horiz-adv-x="1102" 
d="M1028 308h-954v112h954v-112z" />
    <glyph glyph-name="periodcentered.cap" horiz-adv-x="289" 
d="M57 268v164h177v-164h-177z" />
    <glyph glyph-name="at.cap" horiz-adv-x="931" 
d="M885 380q0 -116 -59 -191t-145 -75q-121 0 -133 96h-3q-24 -48 -63 -72t-82 -24q-75 0 -114 50.5t-39 127.5q0 63 23.5 120t71.5 95.5t111 38.5q67 0 99 -62h4l9 54h116l-34 -229q-6 -39 -6 -56q0 -51 50 -51q42 0 67 48t25 125q0 265 -308 265q-153 0 -240 -96t-87 -232
q0 -131 87 -211t234 -80q127 0 202 36l32 -72q-83 -52 -242 -52q-184 0 -299.5 103.5t-115.5 276.5q0 177 121.5 296t312.5 119q190 0 297.5 -97t107.5 -251zM537 374q0 37 -16 58.5t-47 21.5q-44 0 -74 -46t-30 -109q0 -45 15.5 -68.5t42.5 -23.5q52 0 80.5 48.5
t28.5 118.5z" />
    <glyph glyph-name="sterling.oldstyle" horiz-adv-x="609" 
d="M391 255h-109q2 -10 2 -27q0 -57 -35 -88q27 0 72 -17t66 -17t34 13t20 44l132 -38q-20 -80 -60.5 -114t-113.5 -34q-40 0 -116.5 27t-117.5 27q-53 0 -107 -31l-36 109q68 22 96.5 49t28.5 65q0 5 -0.5 10.5t-1.5 11.5t-1 10h-93v100h70q-7 31 -7 54q0 82 52.5 139.5
t160.5 57.5q161 0 211 -141l-128 -54q-11 35 -29 51.5t-49 16.5q-73 0 -73 -81q0 -13 4 -43h128v-100z" />
    <glyph glyph-name="Euro.oldstyle" horiz-adv-x="539" 
d="M408 174h-141q33 -78 121 -78q58 0 102 21l24 -115q-62 -27 -139 -27q-207 0 -262 199h-84l25 89h45q-1 12 -1 28q0 24 1 36h-68l25 90h60q28 87 94 138t169 51q74 0 131 -22l-28 -111q-35 15 -96 15q-84 0 -119 -71h200l-21 -90h-202q-1 -12 -1 -35q0 -19 1 -29h186z
" />
    <glyph glyph-name="florin.oldstyle" horiz-adv-x="534" 
d="M64 -99q31 0 47 16t22 54l43 262h-74v127h92l10 66q14 91 58.5 135.5t128.5 44.5q41 0 86 -9v-124q-25 7 -52 7q-60 0 -71 -71l-9 -49h87v-127h-105l-43 -267q-16 -94 -60.5 -142.5t-126.5 -48.5q-52 0 -87 8v125q26 -7 54 -7z" />
    <glyph glyph-name="yen.oldstyle" horiz-adv-x="580" 
d="M61 255v89h109l-130 241h160l54 -106q29 -60 38 -89h2q10 31 37 88l52 107h157l-133 -241h111v-89h-153v-62h153v-90h-153v-103h-152v103h-152v90h152v62h-152z" />
    <glyph glyph-name="numbersign.oldstyle" horiz-adv-x="631" 
d="M589 356h-102l-26 -126h104l-19 -93h-105l-29 -137h-103l29 137h-113l-30 -137h-103l30 137h-103l20 93h101l27 126h-103l20 92h104l29 137h103l-29 -137h113l29 137h104l-30 -137h104zM270 356l-27 -126h115l26 126h-114z" />
    </font>
</defs>
</svg>
