<svg xmlns="http://www.w3.org/2000/svg" xmlns:xlink="http://www.w3.org/1999/xlink" width="64" height="64"
  viewBox="0 0 32 32">
  <defs>
    <clipPath id="docker">
      <path
        d="M76 2v46H54v23H35.58l-.206 2c-1.15 12.53 1.036 24.088 6.063 33.97l1.688 3.03c1 1.817 2.2 3.523 3.438 5.188s1.686 2.583 2.47 3.688C62.32 133.8 82.13 141 105 141c50.648 0 93.633-22.438 112.656-72.844C231.153 69.54 244.1 66.08 250 54.563c-9.4-5.424-21.478-3.685-28.437-.187L240 2l-72 46h-23V2z" />
    </clipPath>
  </defs>
  <path
    d="M18.504 11.368h2.868V14.3h1.45a6.291 6.291 0 001.994-.334c.313-.106.662-.253.97-.438-.406-.528-.612-1.195-.68-1.854-.083-.895.098-2.06.704-2.76l.301-.35.36.29c.905.726 1.666 1.742 1.8 2.9 1.09-.32 2.37-.244 3.33.31l.394.228-.207.405c-.807 1.583-2.505 2.074-4.165 1.987-2.484 6.186-7.892 9.115-14.448 9.115-3.388 0-6.495-1.266-8.264-4.271-.104-.187-.193-.382-.287-.574-.598-1.323-.797-2.772-.663-4.212l.041-.434h2.446V11.37h2.869V8.5h5.737V5.633h3.443v5.738"
    fill="#394d54" />
  <g transform="translate(0 5.63) scale(.12546)" clip-path="url(#docker)">
    <g id="d">
      <g id="c" transform="translate(0 -22.866)">
        <path d="M123.86 3.8h19.818v19.817H123.86z" fill="#00acd3" />
        <path d="M123.86 26.676h19.818v19.818H123.86z" fill="#20c2ef" />
        <path id="b"
          d="M126.292 21.977V5.46m2.972 16.516V5.46m3.002 16.516V5.46m3.003 16.516V5.46m3.003 16.516V5.46m2.97 16.516V5.46"
          stroke="#394d54" stroke-width="1.56" />
        <use xlink:href="#b" y="22.866" />
      </g>
      <use xlink:href="#c" transform="matrix(1 0 0 -1 22.866 4.573)" />
    </g>
    <use xlink:href="#d" x="-91.464" y="45.732" />
    <use xlink:href="#d" x="-45.732" y="45.732" />
    <use xlink:href="#d" y="45.732" />
    <path
      d="M221.57 54.38c1.533-11.915-7.384-21.275-12.914-25.718-6.373 7.368-7.363 26.678 2.635 34.807-5.58 4.956-17.337 9.448-29.376 9.448H34C32.83 85.484 34 146 34 146h217l-.987-91.424c-9.4-5.424-21.484-3.694-28.443-.197"
      fill="#17b5eb" />
    <path d="M34 89v57h217V89" fill-opacity=".17" />
    <path d="M111.237 140.9c-13.54-6.425-20.972-15.16-25.107-24.694L45 118l21 28 45.237-5.1" fill="#d4edf1" />
    <path
      d="M222.5 53.938v.03c-20.86 26.9-50.783 50.38-82.906 62.72-28.655 11.008-53.638 11.06-70.875 2.22-1.856-1.048-3.676-2.212-5.5-3.312-12.637-8.832-19.754-23.44-19.156-42.687H34V146h217V50h-25z"
      fill-opacity=".085" />
  </g>
  <path d="M5.724 20.313c1.778.097 3.674.116 5.329-.403" fill="none" stroke="#394d54" stroke-width=".42667576"
    stroke-linecap="round" />
  <path d="M12.818 19.05a.686.686 0 01-.685.685.686.686 0 01-.686-.686.686.686 0 01.686-.686.686.686 0 01.685.686z"
    fill="#d4edf1" />
  <path
    d="M12.318 18.592a.2.2 0 00.1.374c.076 0 .135-.042.176-.104a.496.496 0 01.038.188.491.491 0 11-.492-.491.49.49 0 01.178.033zM0 16.942h31.908c-.695-.178-2.198-.409-1.95-1.326-1.264 1.462-4.31 1.02-5.079.305-.856 1.242-5.84.77-6.188-.204-1.073 1.26-4.399 1.26-5.472 0-.348.967-5.333 1.44-6.183.204-.776.714-3.823 1.158-5.086-.305.248.91-1.256 1.155-1.95 1.325"
    fill="#394d54" />
</svg>
