<svg xmlns="http://www.w3.org/2000/svg" width="1919.176" height="952.168" viewBox="0 924.328 1919.176 952.168"><path fill="#7D7D7D" d="M569.652 1671.224h767.505v205.273H569.652v-205.273z"/><path fill="#7D7D7D" d="M634.78 1709.97h127.78v127.78H634.78v-127.78zm169.823 0h127.78v127.78h-127.78v-127.78zm169.824 0h127.78v127.78h-127.78v-127.78zm169.824 0h127.78v127.78h-127.78v-127.78z"/><path fill="#7D7D7D" d="M679.296 1724.81H668.58v98.1h51.11v-10.716h-40.394v-87.385zm202.8 56.882c0 12.366 0 20.61-4.947 25.556-3.3 4.122-9.07 5.77-14.84 5.77s-10.717-1.648-14.84-5.77c-4.945-5.77-4.945-14.015-4.945-25.556v-56.883h-10.717v56.882c0 13.19 0 23.907 7.42 32.975 4.945 5.77 14.014 9.068 23.082 9.068 9.068 0 17.312-3.298 23.083-9.068 7.42-9.068 7.42-18.96 7.42-32.975v-56.883h-10.718v56.882zm161.58 32.15c-8.245 0-14.016-3.296-17.313-7.418-4.946-6.595-4.946-14.84-4.946-32.15s0-25.557 4.946-32.152c3.298-4.946 9.893-7.42 17.312-7.42 8.244 0 14.84 3.298 18.96 7.42l6.596-8.244c-5.77-5.77-14.838-9.893-25.555-9.893-11.542 0-20.61 4.946-25.556 11.54-7.42 9.07-7.42 20.61-7.42 38.747s0 28.854 7.42 37.922c4.945 6.595 14.014 11.542 26.38 11.542 11.54 0 22.258-4.946 28.028-11.542l-7.42-7.42c-4.945 4.947-12.364 9.07-21.433 9.07zm171.472-39.57l-22.258-49.463h-12.366l28.854 61.004v37.097h11.54v-37.096l28.855-61.005h-11.542l-23.082 49.462zM0 1371.146h48.64v169h47.814v-169h42.044l4.122-36.273H4.946L0 1371.146zm302.55 22.26c0-38.747-20.61-58.532-61.005-58.532h-76.668v205.273h46.99v-76.668h13.19l33.8 76.667h51.112l-44.518-88.21c24.733-10.718 37.098-30.503 37.098-58.532zm-76.668 34.623h-14.015v-58.532h13.19c9.893 0 16.488 2.473 20.61 6.595 4.122 4.946 5.77 11.54 5.77 20.61.826 21.434-8.243 31.326-25.555 31.326zm141.795-89.86l-54.41 201.976h46.99l11.54-50.288h44.518l11.54 50.288h47.815l-55.234-206.92-52.76 4.945zm11.542 117.888l14.838-70.073h3.298l13.19 70.073H379.22zm186.31 9.07l-4.122 33.8h-1.65l-4.12-34.625-32.152-131.078-46.166 6.595 55.234 200.326h51.937l56.884-200.326-43.693-6.595-32.15 131.902zm141.795-11.543h60.18l4.946-35.45h-65.126v-46.99h72.546l4.946-36.272H659.51v205.273h121.185l5.77-35.45h-79.14v-51.11zm150.863-118.712h-46.99v205.273H922.49l4.946-35.45h-69.25v-169.823zm126.132 3.298l-54.41 201.976h46.99l11.54-50.288h44.518l11.54 50.288h47.816l-55.234-206.92-52.76 4.945zm11.54 117.888l14.84-70.073h3.298l13.19 70.073H995.86zm187.137 14.84h28.03v33.8c-4.947 1.648-10.718 2.472-17.313 2.472-13.19 0-23.083-4.946-29.678-14.84-5.77-9.892-9.068-26.38-9.068-49.462 0-23.083 1.65-40.395 4.946-52.76 1.65-7.42 4.946-12.367 9.068-16.49 4.122-3.297 9.893-5.77 17.312-5.77 7.42 0 12.366 2.473 15.663 7.42 3.297 4.946 4.122 14.015 4.122 27.205l46.99-3.297c0-23.083-4.947-39.57-14.84-51.112-9.893-11.542-28.03-17.312-53.585-17.312-25.556 0-45.34 9.893-59.356 28.854-14.016 18.96-21.435 43.693-21.435 74.195 0 12.367 0 22.26.824 30.503.823 8.244 2.472 18.137 5.77 28.854s7.42 18.96 12.366 25.556c5.77 6.595 13.19 12.366 23.083 16.488 9.892 4.947 22.257 6.596 37.097 6.596s26.38-1.65 37.097-4.122 21.434-6.595 33.8-12.366v-87.385h-66.775l-4.123 32.974zm151.688-17.313h61.005l4.946-35.45h-65.95v-46.99h72.545l5.772-36.272h-125.307v205.273h121.185l4.946-35.45h-79.14v-51.11zm201.15-29.678l6.595 37.097-1.65.824-14.014-35.45-42.044-91.506h-46.166v205.273h47.815v-87.385l-6.594-35.45 1.65-.823 12.365 32.15 43.694 91.508h45.34v-205.273h-46.99v89.035zm171.473 82.44c-15.663 0-27.205-5.772-34.624-16.49-6.595-10.716-10.717-28.028-10.717-51.11 0-23.908 1.65-41.22 5.77-52.762 4.123-11.542 10.718-17.312 22.26-17.312 6.594 0 11.54 2.473 14.838 6.595 3.297 4.122 4.122 14.015 4.122 28.03l46.99-2.474c0-24.732-4.946-42.868-14.015-53.585-9.068-10.718-24.732-16.49-45.34-16.49-20.61 0-37.923 4.947-50.29 14.84s-21.433 23.083-27.204 38.746c-4.946 15.663-8.244 32.976-8.244 52.76 0 70.074 27.205 105.523 82.44 105.523 22.257 0 43.692-4.947 64.3-15.664l-9.892-30.502c-16.487 7.42-30.5 9.892-40.394 9.892zm135.2-80.79h-1.65l-34.623-92.333-45.34 5.77c36.272 83.264 55.233 126.957 56.882 130.254v70.897h46.99v-70.897l54.41-129.43-41.22-5.77-35.45 91.508zM411.37 1071.068c-1.65-3.3-4.122-7.42-5.77-10.718-27.206 14.84-54.41 30.502-80.79 46.99 2.472 3.297 4.12 6.595 6.594 9.893 10.717-6.595 22.258-14.015 32.976-20.61 17.312 29.678 34.624 59.356 52.76 89.034 4.123-2.474 8.245-4.947 12.367-6.596-17.312-29.678-33.8-60.18-51.112-89.858 10.716-5.77 22.258-12.366 32.975-18.137zm92.33-39.57c-10.716-6.596-27.204-7.42-42.867 0-15.663 7.418-25.556 19.784-28.03 32.15-1.648 12.366 3.3 22.258 12.367 40.395 9.068 18.136 14.015 28.03 24.732 33.8 10.717 6.595 25.556 6.595 39.57 0s23.084-17.312 25.557-30.502c2.472-12.366-1.65-22.258-9.894-41.22-6.596-17.312-10.718-27.205-21.435-34.624zm18.962 76.667c-1.65 8.244-7.42 15.663-17.312 19.785-9.893 4.122-18.96 4.122-26.38 0s-12.366-14.015-20.61-29.678-12.366-25.556-10.717-33.8 8.244-16.488 18.137-21.434c10.717-4.946 20.61-4.946 28.03 0 7.418 4.946 11.54 14.015 18.96 30.502 7.42 15.664 11.54 25.556 9.892 34.625zm69.25-70.073c1.648 4.122 2.472 7.42 4.12 11.54 8.245-2.472 16.49-5.77 24.733-8.243 4.122 14.016 5.77 22.26 2.473 30.503-2.473 6.595-8.244 12.366-17.312 14.84-9.068 3.296-17.312 2.472-23.083-.825-9.068-4.946-12.366-14.84-19.785-32.975-6.595-18.96-10.717-28.03-6.595-37.922 2.473-6.594 9.893-12.365 18.96-15.662 10.718-3.298 20.61-2.473 27.206 0 1.648-4.122 4.12-8.244 5.77-11.54-9.893-4.123-23.083-4.947-37.097 0-15.663 4.945-24.732 14.838-28.854 24.73-5.772 14.016-.825 26.38 6.594 45.342 8.244 20.61 12.366 31.327 24.732 38.746 9.068 4.946 21.434 6.595 35.45 1.65 14.014-4.947 22.257-13.19 26.38-23.084 5.77-13.19 1.648-24.732-5.772-49.463-12.367 4.12-24.733 8.242-37.923 12.364zm91.506 24.73c-3.298-13.19-6.595-26.38-10.717-39.57 14.84-4.122 28.855-7.42 43.694-10.717-.824-4.122-1.65-8.244-2.473-11.54-14.838 3.297-29.677 6.594-44.516 10.716-3.298-12.366-6.595-24.732-9.893-36.273 18.962-4.946 37.923-9.893 57.708-13.19 0-4.946-.824-9.068-1.65-13.19-24.73 4.946-48.638 10.717-72.545 17.312 9.893 37.097 20.61 74.195 30.502 111.292 21.434-5.77 43.693-11.54 65.127-15.663-.824-4.12-1.65-8.243-2.473-11.54-17.314 3.297-35.45 7.42-52.762 12.365zm144.268-131.9c-29.678 3.297-60.18 7.418-89.858 13.19.824 4.12 1.65 8.243 2.473 11.54 12.367-2.473 24.733-4.122 37.098-6.595 4.946 33.8 10.717 68.423 15.663 102.223 4.123-.824 9.07-1.65 13.19-1.65-4.945-33.8-9.892-68.423-14.838-102.223l37.097-4.946c0-3.297 0-7.42-.824-11.54zm96.453-6.596c.823 16.488.823 32.976 1.648 50.288-18.96.824-37.097 1.65-56.058 3.298-1.65-16.488-2.473-32.976-4.122-49.463-4.946 0-9.893.825-14.84.825 3.3 38.746 6.596 76.668 9.894 115.414 4.122 0 9.068-.825 13.19-.825-1.65-18.136-2.473-35.45-4.122-53.585 18.137-1.65 37.097-2.473 55.234-2.473.824 18.137.824 35.45 1.65 53.585h13.19c-.825-38.746-.825-76.668-1.65-115.414-4.122-1.65-9.07-1.65-14.015-1.65zm43.692 115.414c22.258 0 44.517.824 66.775 3.298 0-4.122.824-8.244.824-12.366-18.136-1.65-36.272-2.473-54.41-2.473 0-14.014.825-27.204.825-41.218 14.84 0 29.678.824 44.517 1.65 0-4.123.824-8.245.824-12.367-14.84-.824-30.502-1.65-45.34-1.65 0-12.365.823-25.555.823-37.92 19.784.823 39.57 1.648 58.53 3.297 0-4.122.825-8.244.825-12.366-24.732-1.65-49.463-3.298-74.195-3.298.826 38.746.002 76.668.002 115.414zm130.253-107.17c-9.068-.824-17.312-1.65-26.38-3.298-4.122 38.746-7.42 76.668-11.54 115.414 4.12.824 9.067.824 13.19 1.65l4.945-44.518c3.297.824 7.42.824 10.717 1.65 9.068.823 13.19 1.648 17.312 1.648 4.945 15.663 9.067 31.327 13.19 46.99 4.945.824 9.892 1.65 14.014 2.473-4.122-17.31-9.068-33.8-14.015-51.11 12.365-3.3 23.082-13.19 25.555-28.03 1.65-10.717-1.65-20.61-7.42-28.03-9.067-10.716-23.906-12.365-39.57-14.838zm33.8 41.22c-.824 6.594-4.946 12.365-9.893 15.662-8.244 4.946-16.488 3.298-31.327 1.65-3.297 0-7.42-.825-10.717-.825 1.65-15.664 3.297-31.328 4.946-46.167 4.122.824 7.42.824 11.54 1.65 14.84 1.648 23.908 3.297 30.503 9.892 4.124 4.122 5.772 11.54 4.948 18.136zm151.687 93.155c-.824-22.258-1.65-44.517-3.297-67.6l-9.893-2.473c-13.19 18.137-26.38 36.273-38.746 55.234 1.65-31.327 2.473-62.654 2.473-93.98-4.947-.824-9.894-2.473-14.84-3.298.824 39.57 0 79.14-.824 118.712 3.297.824 6.595 1.65 10.717 2.473 13.19-19.785 26.38-38.746 40.395-57.707 1.65 23.907 2.473 46.99 3.298 70.897 3.297.824 6.595 2.473 9.893 3.297 19.784-33.8 41.218-67.6 62.653-100.575-4.946-1.65-9.068-3.298-14.015-4.946-16.49 25.558-32.152 52.762-47.816 79.967zm42.044 39.57l12.366 4.947c14.015-36.273 28.03-71.722 42.044-107.995-4.946-1.65-9.068-3.3-14.015-4.947-13.19 35.45-27.203 71.722-40.394 107.995zm71.722-83.262l34.624 14.84-42.044 93.98c4.122 1.648 8.244 4.12 12.366 5.77 14.84-31.327 28.854-62.654 43.693-93.98 11.54 5.77 23.083 10.717 34.624 16.488 1.65-3.297 3.298-7.42 5.772-10.717-27.205-14.015-55.234-26.38-84.088-38.746-1.65 4.945-3.297 9.067-4.946 12.365zm149.214 118.71c-16.488-9.892-32.975-19.784-50.288-28.853 8.244-14.84 15.663-28.854 23.907-43.693-4.12-2.474-9.067-4.947-13.19-7.42-18.135 33.8-36.272 68.424-54.41 102.224 4.123 2.473 8.245 4.122 12.367 6.595 8.244-15.664 17.312-31.328 25.556-46.99 16.488 9.067 32.975 18.96 49.463 28.853-9.068 14.84-18.96 30.502-28.03 45.34 4.123 2.474 8.245 4.947 11.542 7.42 20.61-32.15 41.22-65.127 61.83-97.278-4.123-2.473-9.07-5.77-13.19-8.244-8.244 13.193-16.488 28.032-25.556 42.046zM250.614 1727.283l-18.96-37.922-18.962 37.922-42.044 6.595 30.502 29.678-7.42 42.044 37.923-19.786 37.922 19.785-7.42-42.045 31.328-29.678-42.87-6.595zm175.595 5.77l-14.016-27.204-13.19 27.205-30.502 4.122 22.26 21.434-5.772 30.5 27.205-14.014 28.03 14.015-5.772-30.5 22.258-21.435-30.5-4.122zm-361.083 0l-14.015-27.204-13.19 27.205-30.502 4.122 21.434 21.434-4.946 30.5 27.205-14.014 27.205 14.015-4.946-30.5 22.258-21.435-30.503-4.122zm1638.883-5.77l-18.96-37.922-18.962 37.922-42.044 6.595 30.502 29.678-7.42 42.044 37.922-19.786 37.922 19.785-7.42-42.045 31.328-29.678-42.868-6.595zm175.595 5.77l-14.015-27.204-13.19 27.205-30.502 4.122 22.258 21.434-5.77 30.5 27.204-14.014 28.03 14.015-5.772-30.5 22.258-21.435-30.5-4.122zm-361.082 0l-14.015-27.204-13.19 27.205-30.502 4.122 21.434 21.434-4.946 30.5 27.205-14.014 27.204 14.015-4.946-30.5 22.26-21.435-30.505-4.122z"/></svg>