<svg xmlns="http://www.w3.org/2000/svg" width="138.355" height="29.6" viewBox="0 0 138.355 29.6"><g fill="#FDFDFE"><path d="M16.76 14.95l1.828-1.847c-.55-.62-.885-.99-1.002-1.107-.28-.28-.57-.545-.86-.79-1.782-1.43-3.857-2.146-6.224-2.146-2.754 0-5.11.98-7.066 2.936C1.478 13.953.5 16.314.5 19.08s.978 5.127 2.936 7.084C5.393 28.12 7.748 29.1 10.502 29.1c2.766 0 5.127-.98 7.084-2.936.398-.398 1.043-1.213 1.934-2.443l-3.64-1.3c-.468.564-.78.928-.93 1.09-1.23 1.22-2.714 1.83-4.448 1.83-1.606 0-2.713-.27-3.322-.81l9.58-9.58zM4.72 21.84c-.317-.422-.476-1.342-.476-2.76 0-1.734.612-3.214 1.837-4.438 1.227-1.225 2.7-1.837 4.424-1.837 1.43 0 2.35.158 2.76.475L4.72 21.84z"/><path d="M10.502 29.6c-2.878 0-5.375-1.037-7.42-3.082S0 21.97 0 19.08s1.037-5.393 3.082-7.438 4.542-3.082 7.42-3.082c2.473 0 4.67.76 6.536 2.255.312.262.61.535.902.827.12.12.46.496 1.022 1.13l.31.35-2.157 2.18-9.142 9.142c.474.215 1.252.395 2.53.395 1.61 0 2.95-.554 4.094-1.687.135-.146.44-.502.9-1.055l.222-.27 4.592 1.644-.39.54c-.916 1.263-1.565 2.082-1.986 2.503C15.893 28.56 13.39 29.6 10.5 29.6zm0-20.04c-2.604 0-4.862.94-6.713 2.79C1.935 14.2 1 16.465 1 19.08s.938 4.88 2.79 6.73c1.85 1.85 4.108 2.79 6.712 2.79 2.615 0 4.88-.938 6.73-2.79.318-.317.818-.937 1.488-1.844l-2.68-.958c-.354.422-.596.702-.725.842-1.336 1.324-2.95 1.988-4.814 1.988-1.745 0-2.94-.306-3.65-.935l-.398-.35 11.453-11.468c-.356-.4-.58-.645-.67-.735-.27-.27-.547-.524-.83-.762-1.673-1.343-3.66-2.027-5.9-2.027zM4.665 22.603l-.346-.462c-.395-.52-.578-1.493-.578-3.06 0-1.86.667-3.474 1.983-4.79 1.316-1.316 2.922-1.983 4.774-1.983 1.58 0 2.553.184 3.065.578l.45.348-9.35 9.372zm5.837-9.297c-1.6 0-2.93.553-4.067 1.69-1.137 1.138-1.69 2.474-1.69 4.085 0 .914.067 1.5.15 1.877l7.485-7.5c-.372-.08-.958-.15-1.878-.15zm17.718.994c.763-.728 1.665-1.09 2.708-1.09 1.055 0 1.963.37 2.725 1.115.762.744 1.143 1.638 1.143 2.68v11.62h3.64v-11.76c-.036-2.098-.63-3.84-1.785-5.23-1.15-1.388-2.71-2.082-4.664-2.082-2.297 0-3.826 1.03-4.588 3.094v-2.11H23.74v18.09h3.656v-13.24c.127-.293.403-.657.825-1.09z"/><path d="M38.934 29.125h-4.64v-12.12c0-.91-.323-1.67-.99-2.322-.672-.655-1.45-.974-2.376-.974-.918 0-1.69.31-2.362.95-.386.396-.578.67-.67.842v13.62H23.24V10.038h4.654v.717c.947-1.13 2.315-1.7 4.088-1.7 2.104 0 3.803.76 5.052 2.263 1.224 1.472 1.863 3.336 1.9 5.54v12.268zm-3.64-1h2.64v-11.26c-.033-1.963-.594-3.617-1.67-4.91-1.063-1.28-2.464-1.902-4.28-1.902-2.085 0-3.432.905-4.12 2.767l-.76 2.056c.173-.274.423-.58.76-.925.867-.825 1.894-1.24 3.064-1.24 1.185 0 2.22.426 3.074 1.26.858.84 1.293 1.86 1.293 3.04v11.117zm-11.056 0h2.656V11.037h-2.656v17.088zm18.467-17.588v3.64h3.252v14.448h3.64v-14.45h3.25v-3.638h-3.25V3.752h-3.64v6.785h-3.252z"/><path d="M50.096 29.125h-4.64v-14.45h-3.25v-4.638h3.25V3.252h4.64v6.785h3.252v4.64h-3.252v14.448zm-3.64-1h2.64v-14.45h3.252v-2.638h-3.252V4.252h-2.64v6.785h-3.25v2.64h3.25v14.448zm14.267-17.588h-3.64v18.088h3.64v-9.3c.047-1.616.662-3.01 1.846-4.183.782-.785 1.84-1.213 3.16-1.283v-3.78c-1.98.092-3.65 1.06-5.01 2.9v-2.445z"/><path d="M61.223 29.125h-4.64V10.037h4.64v1.59c1.275-1.278 2.78-1.966 4.486-2.046l.52-.022v4.778l-.472.024c-1.21.063-2.137.436-2.838 1.137-1.1 1.09-1.656 2.347-1.7 3.845v9.785zm-3.64-1h2.64v-8.8c.05-1.756.72-3.278 1.994-4.538.772-.772 1.786-1.238 3.016-1.387v-2.773c-1.606.218-2.954 1.09-4.108 2.65l-.902 1.222v-3.465h-2.64v17.088zm25.675-4.598c-1.23 1.22-2.707 1.828-4.43 1.828-1.734 0-3.214-.612-4.438-1.837-1.225-1.225-1.837-2.698-1.837-4.42 0-1.735.612-3.212 1.837-4.43 1.224-1.22 2.704-1.83 4.438-1.83 1.723 0 3.2.61 4.43 1.83.914.925 1.477 1.956 1.688 3.093v2.675c-.212 1.137-.774 2.17-1.688 3.094zm-4.43-14.43c-2.766 0-5.124.975-7.075 2.926s-2.927 4.31-2.927 7.075.976 5.124 2.927 7.075 4.31 2.927 7.075 2.927c2.32 0 4.36-.908 6.117-2.725v2.268H88.6V10.537h-3.655v1.266c-1.757-1.805-3.797-2.707-6.117-2.707z"/><path d="M78.828 29.6c-2.89 0-5.39-1.034-7.43-3.073-2.038-2.04-3.072-4.538-3.072-7.43s1.034-5.39 3.073-7.428c2.036-2.04 4.536-3.076 7.426-3.076 2.08 0 3.965.693 5.617 2.064v-.624H89.1V29.14h-4.655v-1.62c-1.652 1.38-3.537 2.08-5.617 2.08zm0-20.004c-2.615 0-4.877.936-6.722 2.78-1.845 1.845-2.78 4.106-2.78 6.722s.936 4.877 2.78 6.722c1.845 1.845 4.106 2.78 6.722 2.78 2.2 0 4.083-.842 5.758-2.572l.86-.888v3.003H88.1V11.037h-2.655v1.995l-.858-.88c-1.675-1.72-3.56-2.556-5.76-2.556zm0 16.26c-1.864 0-3.476-.668-4.792-1.984-1.316-1.316-1.983-2.923-1.983-4.774 0-1.864.667-3.474 1.984-4.784 1.316-1.31 2.928-1.974 4.79-1.974 1.852 0 3.46.664 4.782 1.973.982.998 1.596 2.127 1.824 3.358l.008 2.766c-.237 1.322-.85 2.45-1.832 3.445-1.323 1.31-2.932 1.976-4.783 1.976zm0-12.516c-1.612 0-2.948.55-4.086 1.683-1.137 1.132-1.69 2.465-1.69 4.075 0 1.6.553 2.93 1.69 4.067s2.474 1.69 4.085 1.69c1.6 0 2.934-.55 4.078-1.684.834-.842 1.356-1.795 1.548-2.826l-.008-2.58c-.183-.94-.705-1.895-1.543-2.743-1.14-1.13-2.474-1.68-4.074-1.68zm29.057 10.17c-1.22 1.22-2.696 1.828-4.43 1.828-1.735 0-3.214-.61-4.438-1.828-1.225-1.22-1.837-2.695-1.837-4.43 0-1.723.612-3.2 1.837-4.43 1.224-1.23 2.704-1.846 4.438-1.846 1.734 0 3.21.615 4.43 1.846.926.926 1.494 1.957 1.705 3.094v2.69c-.21 1.125-.78 2.15-1.705 3.076zm-4.43-14.45c-2.766 0-5.124.98-7.075 2.937s-2.927 4.318-2.927 7.084.976 5.13 2.927 7.087 4.31 2.936 7.075 2.936c2.332 0 4.377-.907 6.135-2.724v2.25h3.656V.5h-3.656v11.285c-1.758-1.816-3.803-2.724-6.135-2.724z"/><path d="M103.455 29.6c-2.89 0-5.39-1.037-7.43-3.082-2.038-2.046-3.072-4.548-3.072-7.438s1.034-5.392 3.073-7.438c2.04-2.045 4.54-3.082 7.43-3.082 2.09 0 3.98.698 5.634 2.077V0h4.656v29.125h-4.656v-1.603c-1.654 1.38-3.545 2.078-5.635 2.078zm0-20.04c-2.615 0-4.876.94-6.72 2.79-1.846 1.85-2.782 4.115-2.782 6.73s.936 4.88 2.78 6.73c1.846 1.85 4.107 2.79 6.722 2.79 2.21 0 4.1-.843 5.775-2.573l.86-.888v2.982h2.655V1h-2.656v12.02l-.86-.887c-1.677-1.73-3.566-2.572-5.777-2.572zm0 16.278c-1.864 0-3.476-.664-4.79-1.974-1.318-1.31-1.985-2.92-1.985-4.784 0-1.852.667-3.46 1.982-4.782 1.316-1.322 2.928-1.993 4.793-1.993 1.864 0 3.474.67 4.785 1.994.993.99 1.613 2.12 1.842 3.35l.008 2.78c-.237 1.313-.857 2.437-1.852 3.43-1.31 1.31-2.92 1.976-4.783 1.976zm0-12.533c-1.61 0-2.947.556-4.084 1.698-1.135 1.144-1.69 2.478-1.69 4.077 0 1.61.555 2.943 1.69 4.075 1.14 1.132 2.476 1.683 4.088 1.683 1.61 0 2.944-.55 4.076-1.682.85-.85 1.376-1.796 1.567-2.814l-.01-2.598c-.182-.938-.71-1.892-1.56-2.74-1.13-1.144-2.464-1.7-4.074-1.7zM132.512 23.527c-1.23 1.22-2.707 1.828-4.43 1.828-1.734 0-3.214-.612-4.438-1.837-1.225-1.225-1.837-2.698-1.837-4.42 0-1.735.612-3.212 1.837-4.43 1.224-1.22 2.704-1.83 4.438-1.83 1.723 0 3.2.61 4.43 1.83.914.925 1.477 1.956 1.688 3.093v2.675c-.212 1.137-.774 2.17-1.688 3.094zm-4.43-14.43c-2.766 0-5.124.975-7.075 2.926s-2.927 4.31-2.927 7.075.976 5.124 2.927 7.075 4.31 2.927 7.075 2.927c2.32 0 4.36-.908 6.117-2.725v2.268h3.653V10.537H134.2v1.266c-1.76-1.805-3.798-2.707-6.118-2.707z"/><path d="M128.082 29.6c-2.89 0-5.39-1.034-7.43-3.073-2.038-2.04-3.072-4.538-3.072-7.43s1.034-5.39 3.073-7.428c2.04-2.04 4.54-3.076 7.43-3.076 2.08 0 3.964.693 5.616 2.064v-.624h4.653V29.14H133.7v-1.62c-1.653 1.38-3.538 2.08-5.618 2.08zm0-20.004c-2.615 0-4.877.936-6.722 2.78-1.845 1.845-2.78 4.106-2.78 6.722s.936 4.877 2.78 6.722c1.845 1.845 4.106 2.78 6.722 2.78 2.2 0 4.083-.842 5.758-2.572l.86-.888v3.003h2.655V11.037H134.7v1.995l-.86-.88c-1.674-1.72-3.558-2.556-5.758-2.556zm0 16.26c-1.864 0-3.476-.668-4.792-1.984-1.316-1.316-1.983-2.923-1.983-4.774 0-1.864.667-3.474 1.984-4.784 1.32-1.31 2.93-1.974 4.794-1.974 1.85 0 3.46.664 4.78 1.973.986.998 1.6 2.127 1.828 3.358l.01 2.766c-.238 1.322-.85 2.45-1.833 3.445-1.325 1.31-2.934 1.976-4.785 1.976zm0-12.516c-1.612 0-2.948.55-4.086 1.683-1.137 1.132-1.69 2.465-1.69 4.075 0 1.6.553 2.93 1.69 4.067s2.474 1.69 4.085 1.69c1.6 0 2.937-.55 4.08-1.684.835-.842 1.357-1.795 1.55-2.826l-.01-2.58c-.183-.94-.705-1.895-1.543-2.743-1.14-1.13-2.474-1.68-4.074-1.68z"/></g></svg>