<svg xmlns="http://www.w3.org/2000/svg" width="1920" height="893.722" viewBox="0 952.114 1920 893.722"><path fill="#7D7D7D" d="M371.018 1508.982h49.88l-23.916 152.37h35.53l23.915-152.37h51.93l4.782-32.797H375.8l-4.782 32.797zm230.263-34.164c-43.73 0-75.16 4.783-88.825 92.242-13.665 84.726 17.082 96.342 60.81 96.342 45.097 0 75.16-6.833 88.143-88.826 13.667-86.775-16.397-99.758-60.127-99.758zm25.282 94.976c-8.2 49.88-20.498 60.128-48.512 60.128-30.747 0-37.58-8.883-29.38-60.128 9.565-59.445 21.864-62.86 49.195-62.86 25.964.682 37.58 5.465 28.697 62.86zm159.886 12.982c-5.466 32.797-14.35 47.83-41.68 47.83-26.648 0-32.114-12.983-26.648-47.83l17.082-106.59h-35.53l-16.4 102.49c-11.615 71.744 19.133 84.726 56.713 84.726 44.413 0 73.11-15.032 82.676-76.527l16.4-110.69h-35.53l-17.082 106.59zm157.154-106.59h-78.577l-29.38 185.85h35.53l11.615-73.11 28.697 2.05 21.865 71.06h40.313l-26.648-73.11c8.883-1.367 32.114-4.783 38.263-51.246 5.467-45.096-13.664-61.495-41.678-61.495zm5.466 57.394c-2.05 19.815-9.566 26.648-23.23 26.648H886.89l8.2-53.295h38.946c12.982.683 17.765 5.466 15.032 26.647zm41.68 127.772h35.53l29.38-185.167h-35.53l-29.38 185.167zm81.31-142.804l-2.734 19.132c-2.05 15.032-2.733 49.88 41.68 49.88h25.964c15.032 0 15.715 6.832 14.35 17.08l-1.367 10.25c-2.05 13.665-15.03 15.715-25.28 15.715-23.915 0-52.612-1.367-62.86-2.733l-4.1 28.014c17.08 5.466 38.946 7.516 67.643 7.516 23.23 0 56.712-2.05 60.81-45.78l1.368-16.398c2.734-20.498-2.05-49.196-36.896-49.196h-25.964c-13.666 0-19.815-1.367-17.765-17.765l1.366-8.883c2.734-17.082 10.933-18.448 27.332-17.765 8.883 0 45.78 1.367 60.128 2.733l4.1-28.014c-15.715-4.783-42.363-7.516-69.01-7.516-28.7-.683-53.297 5.467-58.763 43.73zm139.387-9.566h50.562l-24.598 152.37h35.53l24.597-152.37h51.245l5.466-32.797H1216.91l-5.465 32.797zm154.42 146.904c-3.416 0-13.666 8.883-30.064 25.964-24.597 25.964-43.045 45.096-56.027 56.028-6.833 0-14.35-.683-23.915-2.05-4.783 0-7.516 2.733-8.2 8.2-.682 2.05 4.1 2.732 12.983.682 4.1-.683 8.884-1.366 14.35-1.366-25.964 23.915-44.413 39.63-56.028 48.512-25.964 19.132-46.463 29.38-61.495 29.38-15.715 0-23.915-7.515-23.915-23.23 0-10.25 4.1-24.598 12.3-43.046 8.198-18.448 19.814-34.164 35.53-46.463s29.38-19.132 40.312-19.132c5.466 0 9.566 2.05 12.3 5.466 2.732 3.417 4.1 8.2 4.1 14.35 0 5.466-2.734 12.3-7.517 20.498l-6.833 11.616s0 .683.683.683h1.367c4.783-2.05 8.883-7.516 12.982-16.4s6.833-16.398 6.833-23.914c0-10.25-6.834-15.715-21.183-15.715-14.35 0-30.747 6.833-48.512 19.815-17.765 12.982-32.114 28.698-43.046 47.146-7.517 13.665-11.617 27.33-11.617 39.63 0 21.18 10.932 32.113 33.48 34.163h2.733c16.4 0 39.63-10.932 68.327-32.114 19.815-14.35 38.947-30.748 58.078-49.88l25.965-.683c-10.932 22.548-16.4 40.996-16.4 56.03 0 6.832 2.05 11.615 5.467 12.298 1.367 0 3.416.683 6.15.683 2.732 0 5.465-.683 9.565-2.733 3.416-2.05 6.15-4.1 6.833-6.833 0-.683 0-1.366-.683-1.366s-2.05.683-4.1 2.733-4.1 2.732-6.15 2.732c-4.1 0-6.148-3.416-6.148-10.25 0-9.565 6.832-27.33 20.497-53.978 21.182-1.366 31.43-3.416 31.43-4.783 0-.682-2.732-1.366-7.515-1.366l-21.182.683c4.1-6.833 8.2-15.715 13.666-26.648s9.566-18.45 12.3-22.55c2.732-4.1 6.148-6.832 9.565-9.565 1.368-1.366 2.734-4.1 4.1-9.566 1.367-5.467 2.05-8.884 2.05-11.617-.682-.68-2.05-2.047-3.415-2.047zm-53.296 82.676h-24.6l55.346-51.93c-16.398 25.966-26.647 43.73-30.747 51.93zm105.907-4.1l-2.733.684s-.683-.683-.683-1.366-.682-2.05-1.365-2.733c-1.367-3.416-4.783-4.783-9.566-4.783-12.3 0-25.965 7.516-40.314 21.865-15.032 14.348-22.548 27.33-22.548 37.58 0 4.782 2.05 8.882 6.15 11.615 3.415 2.733 6.832 4.1 10.93 4.1 4.1 0 10.933-4.783 21.183-15.032l16.4-16.4-10.932 21.182c-7.516 13.666-14.35 24.598-20.498 31.43-9.566 10.933-18.448 16.4-26.648 16.4-2.05 0-4.1-.683-6.15-2.733-2.05-2.05-3.415-4.783-4.1-8.883 0-.684-.682-1.367-1.366-1.367-.683 0-1.366.683-2.05 2.733 0 4.1 2.05 8.2 4.783 11.616 3.415 3.416 6.832 5.466 10.93 5.466 12.3 0 24.6-8.883 38.264-26.648 6.15-8.2 15.032-23.23 26.648-45.096 3.416-6.15 7.516-13.665 12.3-22.548 4.1-6.833 6.148-10.25 6.148-10.932v-2.05c0-.683-.683-1.366-1.366-2.733 0-.684-2.05-1.367-3.417-1.367zm-28.698 34.164c-14.35 18.448-25.965 27.33-34.165 27.33-3.416 0-5.466-2.732-5.466-7.515 0-8.882 7.515-19.814 21.864-33.48 14.35-13.664 26.648-20.497 35.53-20.497 2.733 0 4.783.683 5.466 2.733l-23.23 31.43zm101.124-8.882c-.683 0-2.05.683-3.416 2.733-6.15 8.2-13.666 15.715-22.548 22.548-11.616 9.566-20.498 14.35-28.014 14.35-7.516 0-10.932-4.1-10.932-11.617 0-4.1 1.366-8.2 3.416-12.3.683 0 2.05.684 2.733.684 7.516 0 17.765-3.416 30.064-10.932 12.3-7.516 18.448-15.032 18.448-23.23 0-2.734-1.366-4.784-3.416-6.834s-4.784-2.733-8.2-2.733c-10.25 0-21.865 6.833-34.164 19.815-12.982 13.665-19.132 25.28-19.132 34.847 0 7.516 4.783 12.982 13.666 15.715 1.366.683 2.733.683 4.1.683 7.516 0 17.082-4.1 28.014-11.616 10.932-8.2 20.498-17.082 28.014-27.33 1.367-1.368 2.05-2.734 2.05-3.417.683-.683 0-1.366-.684-1.366zm-36.897-12.3c6.833-5.465 12.3-8.198 15.715-8.198 3.416 0 5.466.683 5.466 2.733 0 .682 0 1.366-.683 2.05-2.05 6.832-8.2 13.665-17.082 19.13-8.883 6.15-16.398 8.884-21.865 8.884-.683 0-2.05 0-2.733-.683 4.784-8.2 11.617-16.4 21.182-23.915z"/><path fill="#7D7D7D" d="M1570.847 1767.26c-.683.683-1.366 1.367-1.366 2.05-15.714 17.765-26.647 25.964-33.48 25.964-2.05 0-2.732-2.05-2.732-6.833 0-4.782 2.05-10.248 6.833-17.08 4.1-6.834 9.567-14.35 16.4-21.866 5.466-6.833 8.2-10.932 8.883-11.616 0-.683.683-1.367.683-2.05 0-3.416-2.05-5.466-6.15-5.466h-2.05c-7.515 0-28.013 17.082-61.494 50.562 2.733-9.566 10.25-23.23 23.23-40.996.684-.683.684-2.05.684-2.733 0-2.733-2.05-4.783-6.15-4.783-1.365 0-2.732.683-4.1 2.733-11.615 13.666-19.13 23.23-23.23 28.014-4.1 4.782-8.883 10.248-13.666 15.714-1.366 1.366-2.05 2.05-2.05 3.416 0 .683.683 1.367 1.367 1.367.683 0 2.733-1.367 6.15-4.783l12.98-13.666c-2.732 6.15-5.465 11.616-6.832 16.4-2.05 4.782-2.733 8.198-2.733 10.93 0 2.734.683 4.784 2.05 6.834s2.733 2.733 4.783 2.733c.683 0 4.783-4.1 10.932-12.3 6.15-8.198 12.982-16.398 21.182-25.28 7.515-8.883 16.398-16.4 25.963-23.915l-13.666 22.548c-5.466 10.25-8.883 19.132-8.883 26.648s3.416 11.616 10.932 11.616 20.498-10.25 38.263-30.747c2.05-2.05 2.732-4.1 2.732-5.466s0-2.05-.683-2.05c-1.366 0-2.733 1.367-4.783 4.1z"/><path fill="#7D7D7D" d="M1638.49 1761.794c-.682 0-2.05.683-2.732 1.367-5.466 7.517-14.35 15.716-24.598 23.916-10.932 8.2-19.815 12.982-26.648 12.982-3.416 0-6.15-.683-7.516-2.733-2.05-2.05-2.733-4.1-2.733-5.466s0-4.1.683-6.834c.683-3.416 1.366-6.15 3.416-8.2l8.2-12.298c2.732-3.416 7.515-8.2 14.348-13.665 6.833-5.466 12.3-8.2 16.4-8.883h.682s-.683 2.05-2.733 5.466c-2.05 3.416-2.734 5.466-2.734 7.516s2.05 3.416 5.466 3.416c4.1 0 6.833-2.05 8.2-4.783 2.05-3.416 2.732-6.833 2.732-9.566 0-3.417-1.366-5.467-3.416-7.517-2.05-2.05-4.783-2.733-8.2-2.733-10.248 0-21.864 6.833-34.163 19.815-12.982 13.666-19.132 25.28-19.132 34.847 0 7.516 4.783 12.982 13.666 15.715 1.365.683 2.732.683 4.1.683 7.515 0 16.398-4.1 28.013-11.616 10.932-8.2 20.498-17.082 28.698-27.33.684-.684 1.368-1.367 1.368-2.05 0-2.05 0-2.05-1.367-2.05z"/><path fill="#7D7D7D" d="M1710.235 1738.562c-3.416 0-6.15 1.366-8.883 4.783-2.733 3.416-5.466 6.833-6.833 8.2-6.834 6.832-17.766 15.714-31.432 26.647-13.666 10.932-23.23 16.4-28.014 16.4-2.733 0-3.416-.684-3.416-2.734 0-4.783 6.15-13.666 19.132-28.014 12.982-13.665 19.132-21.18 19.132-22.548 0-3.416-2.733-4.783-7.516-4.783s-12.982 6.833-23.23 21.182c-10.933 14.35-16.4 24.598-16.4 30.747 0 2.733.684 5.466 2.734 7.516s4.1 3.416 7.516 3.416c6.15 0 13.666-4.1 23.915-11.616l32.115-25.28-8.2 19.814c-6.832 15.032-13.665 27.33-20.497 36.897-9.566 12.98-18.448 19.814-26.648 19.814-4.783 0-10.932-4.1-17.765-12.982 0 4.783 1.366 9.566 4.783 13.666s7.516 6.15 12.3 6.15c14.348 0 28.013-11.617 42.362-34.165 9.566-16.4 16.398-29.38 20.498-38.263 0-.683 3.416-5.466 10.25-15.715 6.832-9.566 9.565-15.032 9.565-15.715-.002-2.05-2.052-3.418-5.468-3.418zm-1613.893 31.43h919.004v22.55H96.342v-22.55zm1664.455 19.816H1920v22.548h-159.203v-22.548zm28.698-529.537c-8.2 8.2-67.644 66.28-73.11 66.962h-5.466l-8.2 6.833 13.665 4.783s7.516-.683 19.132-12.982c11.616-12.3 59.445-64.228 59.445-64.228s2.732-10.25-5.467-1.367z"/><path fill="#7D7D7D" d="M1712.968 1327.23s-226.164-10.93-414.747-27.33c-56.71-4.783-102.49-9.566-138.704-13.666 8.2-8.883 20.498-25.964 10.932-47.83-13.666-31.43-32.797-52.61-54.662-53.294h-10.932c-26.648 0-48.513 21.865-48.513 48.512v2.05l-7.515-.683c9.566-32.115 21.182-110.69 21.182-110.69s3.416-4.1 15.715-9.567c6.15-2.733 8.2-8.2 7.516-17.082 40.996 8.2 245.98 49.197 254.178 49.88 8.883 1.367 17.765 2.05 15.032 0-2.733-2.05-4.1-6.833-29.38-12.3-22.55-4.782-199.517-45.778-244.613-56.027-2.05-4.1-4.1-8.2-6.15-12.982-13.665-23.914-32.796-11.615-34.163-7.515 0 .683-2.05 6.833-4.783 15.715l-189.268 23.915L669.61 976.712c-26.65-15.032-32.798-16.4-47.83-21.18 0 0-14.35-3.417-21.18-3.417-47.147 2.05-112.74 36.214-112.74 105.224 0 22.547 9.565 41.68 24.597 55.344h.683c8.883 8.2 19.132 15.032 30.747 19.132 37.58 23.23 103.174 63.545 170.135 104.54-31.43 0-107.274.684-156.47 0-62.178-.682-183.8-6.832-237.78-10.248-47.828-3.416-196.782-21.182-232.312-25.28L4.783 1112H0l75.843 94.292s122.306 18.448 259.644 39.63c.683 4.783 2.733 11.616 5.466 14.35 4.783 4.782 11.616 7.515 12.3 5.465 0-1.367 2.05-10.25 3.415-16.4 16.4 2.734 32.114 4.784 48.512 7.517 1.367 4.783 2.733 10.25 5.466 12.982 4.783 4.783 11.616 7.516 12.3 5.466 0-1.367 2.05-8.883 3.415-15.032 11.617 2.05 23.232 3.416 34.848 5.466 3.416.683 6.833 1.366 10.25 1.366 1.366 4.783 2.732 10.25 5.465 12.982 4.783 4.783 11.616 7.516 12.3 5.466 0-1.367 2.05-8.883 3.415-15.032 21.18 3.416 41.68 6.833 60.81 9.566.684 4.783 2.734 12.3 5.467 15.715 4.783 4.782 11.616 7.515 12.3 5.465 0-1.366 2.05-10.932 4.1-17.765 40.312 6.15 74.476 12.3 102.49 17.082 0 2.05 2.05 15.032 6.15 19.132 4.782 4.783 11.615 7.516 12.298 5.466 0-1.367 3.416-13.666 4.783-20.498l57.395 9.566 86.777-1.367c19.815 16.4 30.064 23.232 56.712 38.948 12.298 7.516 20.497 12.3 23.914 14.35 27.33 15.03 89.51-2.734 103.858-17.766 5.466-5.466 8.883-9.566 12.3-15.715 24.597-1.367 57.394-2.733 90.19-4.1.684 4.783 2.734 11.616 5.467 15.032 4.782 4.782 7.515 3.415 7.515 1.366 0-1.367-.683-10.932-1.367-17.082 21.182-.683 42.363-.683 60.81-.683h18.45c.682 4.784 2.732 12.3 5.465 15.033 4.783 4.783 7.516 3.416 7.516 1.366 0-1.367-.684-10.25-1.367-16.4 18.448 0 41.68.683 68.327 1.367.683 4.783 2.733 11.616 5.466 15.032 4.783 4.782 6.833 3.415 7.516 1.366 0-1.367-.683-10.25-1.367-15.715 21.865.684 45.78 1.367 71.06 1.367.683 4.783 2.733 11.616 5.466 14.35 4.784 4.782 6.834 3.415 7.517 1.366 0-1.367-.683-10.25-.683-15.715 147.587 3.416 319.772 8.883 319.772 8.883l-4.778-12.3zm-705.14-140.753c-2.05 4.783-6.148 7.516-11.615 8.883l-128.456-84.726 167.402-12.982c-8.882 32.796-22.548 79.26-27.33 88.825z"/><path fill="#7D7D7D" d="M638.86 989.694c-.682-4.1-8.198-5.466-21.864-6.833-13.665-1.366-25.964-4.1-28.014-2.732-1.367 1.367-10.25 18.448-10.932 19.815-.683 1.367 3.416 2.05 10.932 2.733 7.516 0 25.28 3.416 41.68 6.15 11.616 2.05 10.932-2.734 10.932-2.734s-2.05-12.982-2.733-16.398zm34.848 6.15c-4.783-1.368-27.33-7.517-27.33-7.517-1.368 0-.684 4.1.682 13.666 1.367 9.566 4.783 9.566 12.3 11.616 7.515 2.05 20.497 6.148 25.963 8.198 5.466 2.05 4.783.683 2.05-6.833-2.732-7.516-8.2-17.765-13.665-19.132zm-107.274-20.5h-32.797s-8.883 6.834-13.666 11.617c-5.465 4.784-13.664 15.033-13.664 15.033l2.733 1.367s12.98-1.367 26.647-1.367h32.797c2.733 0 12.982-16.4 14.35-19.815 1.365-3.416-.685-6.15-16.4-6.833z"/></svg>