<svg xmlns="http://www.w3.org/2000/svg" width="612" height="284.874" viewBox="0 0 612 284.874"><g fill="#6B6957"><path d="M118.262 177.502h15.9l-7.624 48.568h11.325l7.623-48.568h16.552l1.525-10.454h-43.777l-1.524 10.454zm73.396-10.89c-13.94 0-23.957 1.525-28.313 29.402-4.356 27.006 5.445 30.71 19.384 30.71 14.373 0 23.956-2.18 28.094-28.314 4.356-27.66-5.227-31.798-19.166-31.798zm8.06 30.274c-2.615 15.9-6.535 19.166-15.464 19.166-9.8 0-11.98-2.83-9.365-19.166 3.048-18.948 6.968-20.037 15.68-20.037 8.276.216 11.978 1.74 9.147 20.036zm50.962 4.138c-1.742 10.454-4.574 15.246-13.285 15.246-8.494 0-10.236-4.138-8.494-15.246l5.446-33.976H223.02l-5.226 32.67c-3.702 22.867 6.098 27.005 18.077 27.005 14.158 0 23.305-4.79 26.354-24.393l5.227-35.283h-11.324l-5.446 33.977zm50.093-33.976h-25.046l-9.365 59.24h11.325l3.702-23.304 9.146.653 6.97 22.65h12.85l-8.495-23.303c2.832-.436 10.237-1.525 12.197-16.335 1.744-14.375-4.355-19.602-13.284-19.602zm1.742 18.295c-.653 6.316-3.05 8.494-7.405 8.494h-12.414l2.614-16.988h12.414c4.138.216 5.663 1.74 4.79 8.493zM315.8 226.07h11.326l9.365-59.022h-11.324L315.8 226.07zm25.918-45.52l-.87 6.1c-.654 4.79-.872 15.898 13.284 15.898h8.276c4.79 0 5.01 2.178 4.574 5.445l-.436 3.267c-.653 4.356-4.79 5.01-8.058 5.01-7.623 0-16.77-.437-20.037-.872l-1.306 8.93c5.445 1.742 12.414 2.396 21.562 2.396 7.405 0 18.077-.653 19.384-14.592l.436-5.227c.87-6.534-.653-15.68-11.76-15.68h-8.277c-4.357 0-6.317-.437-5.664-5.664l.436-2.83c.87-5.445 3.485-5.88 8.712-5.663 2.83 0 14.592.436 19.166.87l1.307-8.93c-5.01-1.524-13.503-2.395-21.997-2.395-9.15-.217-16.99 1.743-18.732 13.94zm44.43-3.048h16.117l-7.84 48.568h11.324l7.84-48.568h16.335l1.742-10.454H387.89l-1.742 10.454zm49.22 46.826c-1.088 0-4.355 2.83-9.582 8.276-7.84 8.276-13.72 14.374-17.86 17.86-2.177 0-4.573-.22-7.622-.654-1.525 0-2.396.87-2.614 2.613-.218.653 1.307.87 4.138.218 1.307-.217 2.83-.435 4.574-.435-8.276 7.623-14.157 12.632-17.86 15.463-8.275 6.098-14.81 9.365-19.6 9.365-5.01 0-7.623-2.396-7.623-7.405 0-3.267 1.306-7.84 3.92-13.72 2.612-5.88 6.315-10.89 11.324-14.81 5.01-3.92 9.365-6.1 12.85-6.1 1.742 0 3.05.654 3.92 1.743s1.307 2.614 1.307 4.575c0 1.742-.87 3.92-2.395 6.534l-2.178 3.7s0 .22.218.22h.436c1.526-.654 2.832-2.397 4.14-5.228s2.177-5.227 2.177-7.623c0-3.268-2.178-5.01-6.752-5.01s-9.8 2.178-15.463 6.316c-5.663 4.138-10.236 9.147-13.72 15.028-2.397 4.356-3.703 8.712-3.703 12.632 0 6.752 3.484 10.236 10.67 10.89h.872c5.227 0 12.632-3.485 21.78-10.236 6.315-4.574 12.413-9.8 18.51-15.9l8.277-.217c-3.486 7.187-5.228 13.068-5.228 17.86 0 2.177.653 3.702 1.742 3.92.436 0 1.09.217 1.96.217s1.742-.218 3.05-.87c1.088-.654 1.96-1.308 2.177-2.18 0-.217 0-.435-.217-.435s-.653.218-1.307.87-1.307.872-1.96.872c-1.307 0-1.96-1.09-1.96-3.267 0-3.05 2.178-8.712 6.534-17.206 6.752-.436 10.018-1.09 10.018-1.525 0-.22-.87-.437-2.396-.437l-6.752.218c1.307-2.177 2.614-5.008 4.356-8.493 1.742-3.485 3.05-5.88 3.92-7.187s1.96-2.178 3.05-3.05c.435-.435.87-1.306 1.306-3.048s.653-2.83.653-3.702c-.214-.217-.65-.652-1.086-.652zm-16.986 26.353h-7.84l17.64-16.55c-5.227 8.275-8.494 13.937-9.8 16.55zm33.757-1.306l-.872.218s-.218-.218-.218-.436-.218-.653-.436-.87c-.436-1.09-1.525-1.526-3.05-1.526-3.92 0-8.275 2.396-12.85 6.97-4.79 4.573-7.186 8.71-7.186 11.978 0 1.525.653 2.83 1.96 3.703 1.09.872 2.178 1.308 3.485 1.308s3.485-1.525 6.752-4.792l5.227-5.227-3.485 6.75c-2.396 4.357-4.574 7.842-6.534 10.02-3.05 3.484-5.88 5.226-8.494 5.226-.654 0-1.308-.218-1.96-.87-.654-.654-1.09-1.526-1.308-2.832 0-.218-.218-.436-.436-.436s-.436.218-.653.87c0 1.308.653 2.615 1.525 3.703 1.09 1.09 2.178 1.743 3.485 1.743 3.92 0 7.84-2.83 12.196-8.494 1.96-2.615 4.79-7.406 8.493-14.375 1.09-1.96 2.396-4.356 3.92-7.187 1.307-2.178 1.96-3.267 1.96-3.485v-.653c0-.218-.218-.436-.436-.87 0-.218-.652-.436-1.088-.436zm-9.148 10.89c-4.574 5.88-8.276 8.712-10.89 8.712-1.09 0-1.742-.87-1.742-2.396 0-2.83 2.396-6.316 6.97-10.672 4.573-4.356 8.493-6.534 11.324-6.534.87 0 1.525.218 1.742.87l-7.404 10.02zm32.234-2.832c-.218 0-.653.218-1.09.87-1.96 2.615-4.355 5.01-7.186 7.188-3.702 3.05-6.534 4.574-8.93 4.574s-3.485-1.307-3.485-3.703c0-1.306.436-2.613 1.09-3.92.217 0 .652.22.87.22 2.396 0 5.663-1.09 9.583-3.486s5.88-4.79 5.88-7.405c0-.872-.436-1.526-1.09-2.18s-1.524-.87-2.613-.87c-3.267 0-6.97 2.178-10.89 6.316-4.138 4.356-6.098 8.058-6.098 11.107 0 2.396 1.525 4.138 4.356 5.01.436.217.87.217 1.307.217 2.396 0 5.445-1.307 8.93-3.703 3.485-2.614 6.534-5.445 8.93-8.712.436-.436.653-.87.653-1.09.218-.215 0-.433-.217-.433zm-11.76-3.92c2.177-1.742 3.92-2.614 5.008-2.614s1.742.218 1.742.87c0 .22 0 .437-.218.654-.653 2.178-2.614 4.356-5.445 6.098-2.83 1.96-5.227 2.83-6.97 2.83-.217 0-.652 0-.87-.217 1.525-2.612 3.703-5.225 6.752-7.62z"/><path d="M500.707 259.828c-.218.218-.436.436-.436.653-5.008 5.664-8.493 8.277-10.67 8.277-.654 0-.872-.653-.872-2.178s.653-3.268 2.178-5.446c1.307-2.178 3.05-4.574 5.227-6.97 1.742-2.177 2.614-3.484 2.83-3.7 0-.22.22-.437.22-.654 0-1.09-.654-1.742-1.96-1.742h-.654c-2.397 0-8.93 5.445-19.602 16.117.87-3.05 3.267-7.405 7.405-13.068.218-.218.218-.653.218-.87 0-.872-.652-1.526-1.96-1.526-.435 0-.87.22-1.306.872-3.702 4.356-6.098 7.405-7.405 8.93-1.308 1.525-2.832 3.267-4.357 5.01-.436.435-.653.652-.653 1.088 0 .218.218.436.436.436s.87-.436 1.96-1.525l4.138-4.355c-.87 1.96-1.742 3.702-2.178 5.227-.653 1.525-.87 2.614-.87 3.485s.217 1.525.652 2.178.87.87 1.525.87c.218 0 1.525-1.306 3.485-3.92s4.138-5.226 6.752-8.057c2.396-2.83 5.227-5.227 8.276-7.623l-4.356 7.187c-1.742 3.267-2.83 6.098-2.83 8.494s1.088 3.702 3.484 3.702 6.534-3.267 12.196-9.8c.653-.654.87-1.308.87-1.743s0-.653-.217-.653c-.437 0-.872.435-1.526 1.306z"/><path d="M522.27 258.086c-.22 0-.654.218-.872.436-1.742 2.396-4.574 5.01-7.84 7.623-3.486 2.613-6.317 4.138-8.495 4.138-1.09 0-1.96-.218-2.396-.87-.653-.654-.87-1.308-.87-1.743s0-1.307.217-2.178c.218-1.09.436-1.96 1.09-2.614l2.613-3.92c.87-1.09 2.396-2.614 4.574-4.356 2.18-1.742 3.92-2.614 5.228-2.83h.218s-.218.652-.87 1.74c-.654 1.09-.872 1.743-.872 2.397 0 .653.653 1.088 1.742 1.088 1.307 0 2.178-.653 2.614-1.525.653-1.09.87-2.178.87-3.05 0-1.088-.435-1.74-1.088-2.395s-1.525-.87-2.614-.87c-3.267 0-6.97 2.177-10.89 6.315-4.138 4.356-6.098 8.058-6.098 11.107 0 2.396 1.525 4.138 4.356 5.01.436.217.87.217 1.307.217 2.396 0 5.227-1.307 8.93-3.702 3.485-2.614 6.534-5.445 9.147-8.712.218-.218.436-.436.436-.653 0-.654 0-.654-.437-.654z"/><path d="M545.137 250.68c-1.09 0-1.96.437-2.83 1.526s-1.743 2.178-2.18 2.614c-2.177 2.178-5.662 5.01-10.018 8.494-4.357 3.485-7.406 5.227-8.93 5.227-.872 0-1.09-.217-1.09-.87 0-1.525 1.96-4.356 6.098-8.93 4.138-4.356 6.098-6.752 6.098-7.187 0-1.09-.87-1.525-2.396-1.525s-4.138 2.178-7.405 6.752c-3.485 4.574-5.227 7.84-5.227 9.8 0 .872.218 1.743.87 2.397s1.308 1.09 2.397 1.09c1.96 0 4.356-1.308 7.623-3.704l10.236-8.058-2.614 6.316c-2.178 4.792-4.356 8.713-6.534 11.762-3.05 4.138-5.88 6.316-8.494 6.316-1.525 0-3.485-1.307-5.663-4.138 0 1.525.435 3.05 1.524 4.356 1.09 1.307 2.396 1.96 3.92 1.96 4.574 0 8.93-3.702 13.503-10.89 3.05-5.227 5.227-9.365 6.534-12.196 0-.218 1.09-1.742 3.268-5.01 2.178-3.048 3.05-4.79 3.05-5.008.002-.656-.652-1.09-1.74-1.09zM30.71 260.7h292.93v7.186H30.71V260.7zm530.544 6.315H612v7.187h-50.746v-7.187zm9.147-168.79c-2.613 2.614-21.56 21.126-23.303 21.344h-1.742l-2.613 2.177 4.356 1.525s2.396-.218 6.098-4.138c3.703-3.92 18.948-20.473 18.948-20.473s.87-3.266-1.743-.435z"/><path d="M546.008 119.57s-72.09-3.486-132.2-8.713c-18.078-1.525-32.67-3.05-44.213-4.356 2.614-2.83 6.534-8.275 3.485-15.245-4.356-10.018-10.454-16.77-17.423-16.988h-3.485c-8.494 0-15.463 6.97-15.463 15.463v.653l-2.397-.218c3.05-10.236 6.752-35.283 6.752-35.283s1.09-1.307 5.01-3.05c1.96-.87 2.612-2.613 2.395-5.444 13.068 2.614 78.406 15.68 81.02 15.9 2.83.435 5.662.652 4.79 0-.87-.654-1.307-2.18-9.365-3.92-7.187-1.526-63.596-14.593-77.97-17.86-.653-1.307-1.307-2.614-1.96-4.138-4.356-7.623-10.454-3.702-10.89-2.396 0 .218-.653 2.178-1.525 5.01l-60.33 7.622L213.438 7.84c-8.494-4.792-10.454-5.228-15.246-6.753 0 0-4.573-1.09-6.75-1.09-15.03.654-35.937 11.544-35.937 33.54 0 7.188 3.05 13.286 7.84 17.642h.22c2.83 2.613 6.097 4.79 9.8 6.097 11.98 7.405 32.887 20.255 54.23 33.322-10.018 0-34.193.217-49.874 0-19.82-.22-58.587-2.18-75.793-3.268-15.246-1.09-62.725-6.752-74.05-8.058L1.525 50.964H0L24.175 81.02s38.985 5.88 82.762 12.632c.218 1.525.87 3.702 1.742 4.574 1.524 1.525 3.7 2.396 3.92 1.742 0-.436.652-3.267 1.088-5.227 5.227.872 10.236 1.526 15.463 2.397.437 1.525.872 3.267 1.743 4.138 1.525 1.525 3.702 2.396 3.92 1.742 0-.436.653-2.83 1.09-4.79 3.7.652 7.404 1.088 11.106 1.74 1.088.22 2.177.437 3.266.437.436 1.525.87 3.267 1.742 4.138 1.525 1.525 3.702 2.396 3.92 1.742 0-.436.653-2.83 1.09-4.79 6.75 1.088 13.284 2.177 19.383 3.048.22 1.525.872 3.92 1.743 5.01 1.525 1.524 3.702 2.395 3.92 1.74 0-.435.653-3.484 1.307-5.662 12.85 1.96 23.74 3.92 32.67 5.445 0 .653.652 4.79 1.96 6.098 1.524 1.525 3.7 2.396 3.92 1.742 0-.436 1.088-4.356 1.524-6.534l18.295 3.05 27.66-.436c6.315 5.227 9.582 7.405 18.076 12.414 3.92 2.396 6.534 3.92 7.623 4.574 8.71 4.79 28.53-.87 33.104-5.663 1.742-1.743 2.83-3.05 3.92-5.01 7.84-.436 18.295-.87 28.75-1.307.217 1.525.87 3.702 1.74 4.79 1.526 1.526 2.397 1.09 2.397.437 0-.436-.217-3.485-.435-5.445 6.752-.218 13.503-.218 19.384-.218h5.88c.217 1.525.87 3.92 1.74 4.79 1.526 1.526 2.397 1.09 2.397.437 0-.436-.218-3.267-.436-5.227 5.88 0 13.286.218 21.78.436.218 1.525.87 3.702 1.742 4.79 1.525 1.526 2.178 1.09 2.396.437 0-.436-.218-3.267-.436-5.01 6.97.22 14.592.437 22.65.437.22 1.525.872 3.702 1.743 4.574 1.525 1.526 2.178 1.09 2.396.437 0-.436-.217-3.267-.217-5.01 47.043 1.09 101.927 2.832 101.927 2.832l-1.522-3.92zM321.246 74.702c-.653 1.525-1.96 2.396-3.702 2.83L276.6 50.53l53.358-4.138c-2.832 10.454-7.188 25.264-8.712 28.313z"/><path d="M203.637 11.98c-.218-1.308-2.614-1.743-6.97-2.18-4.355-.435-8.275-1.306-8.93-.87-.435.436-3.266 5.88-3.484 6.316s1.09.653 3.485.87c2.396 0 8.058 1.09 13.285 1.96 3.702.654 3.485-.87 3.485-.87s-.653-4.138-.87-5.227zm11.107 1.96c-1.525-.437-8.712-2.397-8.712-2.397-.436 0-.218 1.307.218 4.356s1.525 3.048 3.92 3.7c2.396.654 6.534 1.96 8.276 2.615s1.525.218.653-2.178c-.87-2.395-2.613-5.662-4.356-6.098zM180.55 7.404h-10.453s-2.83 2.178-4.356 3.703c-1.74 1.525-4.355 4.79-4.355 4.79l.87.437s4.14-.436 8.495-.436h10.454c.87 0 4.138-5.228 4.574-6.317.436-1.09-.218-1.96-5.227-2.178z"/></g></svg>