<svg xmlns="http://www.w3.org/2000/svg" width="200.191" height="162.027" viewBox="0 0 200.191 162.027"><path fill="#7D7D7D" d="M157.038 37.54c-19.677.626-45.658 1.922-52.494 2.27-1.983-3.82-2.894-4.626-4.714-4.99-1.685-.336-3.78-.516-5.14-.604L90.364 6.793c1.604-.597 5.51-1.977 8.648-2.842 3.944-1.085 8.697-1.99 9.786-2.943 1.087-.952-2.076-1.436-7.02-.5C95.938 1.61 92.484 2.59 89.764 3c-2.72.407-3.5.22-9.246 0-6.797-.264-11.152-.953-11.832 0-.68.95.272 1.63 7.614 2.445 5.448.606 9.545 1.21 11.3 1.483l3.81 27.94c-2.027.84-5.114 2.31-6.27 3.896-.61.84-.797 1.678-.784 2.42-3.256.174-29.544 1.563-39.742 1.563-10.88 0-18.643 1.01-18.68 2.226-.1 3.446 2.904 3.61 34.502 2.698 1.86-.05 3.902-.12 6.092-.2.165.72.373 1.795.492 3.11.058.635.11 1.2.16 1.693-.927.19-1.622 1.013-1.622 1.997 0 1.126.912 2.04 2.04 2.04 1.126 0 2.04-.913 2.04-2.04 0-.886-.567-1.63-1.355-1.914-.055-.533-.115-1.152-.18-1.875-.114-1.256-.304-2.303-.47-3.053 2.293-.088 4.735-.19 7.302-.304.157.465.313 1.05.458 1.83.224 1.206.315 2.28.354 3.093-.855.243-1.486 1.02-1.486 1.954 0 1.125.918 2.04 2.04 2.04 1.13 0 2.045-.915 2.045-2.04 0-.94-.64-1.725-1.506-1.96-.04-.857-.136-1.994-.375-3.285-.123-.67-.26-1.22-.397-1.68 3.58-.16 7.388-.343 11.338-.54 1.32 1.66 3.066 3.834 4.833 5.953l-.595.032c-1.155.062-2.038 1.084-1.975 2.285.063 1.2 1.053 2.123 2.21 2.06l3.946-.213c1.184 1.31 2.214 2.366 2.917 2.92 3.266 2.585 7.753 4.897 9.792 3.81 1.452-.775 3.506-2.575 2.672-7.56l1.42-.078c1.157-.062 2.04-1.085 1.977-2.285-.065-1.2-1.055-2.124-2.21-2.06l-2.38.126c-.397-1.07-.875-2.22-1.48-3.49-.437-.924-.835-1.76-1.213-2.557 5.496-.305 11.02-.62 16.41-.937.4.7.736 1.524.86 2.41.103.762.142 1.4.147 1.94-.94.18-1.65 1.006-1.65 2 0 1.125.914 2.04 2.04 2.04s2.04-.915 2.04-2.04c0-.88-.56-1.624-1.34-1.91-.005-.603-.043-1.32-.162-2.178-.114-.83-.4-1.616-.754-2.332 2.395-.14 4.76-.28 7.08-.42.4.747.75 1.557.75 2.19v1.875c-.86.24-1.496 1.02-1.496 1.956 0 1.128.915 2.04 2.04 2.04 1.13 0 2.042-.913 2.042-2.04 0-.937-.636-1.718-1.497-1.957v-1.875c0-.723-.29-1.513-.656-2.263 21.54-1.298 38.876-2.467 39.46-2.634 1.27-.36 7.255-4.53-15.592-3.807h-.004zM6.542 79.303L0 113.845h7.23l1.166-7.334h5.04l1.19 7.338h7.04l-6.5-34.543H6.543v-.002zm2.52 22.646l1.833-13.38 1.855 13.376H9.062v.003zm33.96-20.066c-.89-.916-2.08-1.576-3.573-1.98-1.497-.402-3.376-.603-5.64-.603H25.12v34.544h8.792c2.222 0 4.073-.21 5.553-.626 1.477-.417 2.657-1.094 3.54-2.03.882-.94 1.507-2.085 1.874-3.44.37-1.354.555-3.038.555-5.05V90.24c0-2-.183-3.662-.544-4.99-.36-1.325-.984-2.447-1.873-3.364l.005-.002zm-5.417 21.938c0 .625-.01 1.122-.032 1.49-.02.368-.068.757-.145 1.166-.077.41-.195.722-.354.937-.16.215-.375.42-.646.614-.27.195-.61.33-1.02.407-.41.074-.907.112-1.49.112H32.75V84.635h1.147c.848 0 1.518.073 2.01.22.493.145.865.413 1.115.8.25.39.41.82.48 1.293.068.47.103 1.142.103 2.02v14.852zm20.645-1.23l-3.707-23.29h-6.52l6.25 34.54h8.02l6.334-34.54h-6.94m18 19.06h6.02v-5.31h-6.02V84.51h7.898v-5.207h-15.52v34.542H87.67v-5.167h-7.983m23.92-12.792L96.5 79.303h-5.375v34.542h6.52V95.97l7.125 17.875h5.168V79.303h-6.334m9.27 5.647h5.313v28.895h7.644V84.95h5.25v-5.647h-18.206m33.794 24.792c0 .528-.015.987-.043 1.375-.027.39-.093.806-.197 1.25-.103.445-.247.81-.428 1.094-.18.285-.44.52-.77.708-.335.188-.738.28-1.21.28-.473 0-.878-.093-1.22-.28-.34-.187-.6-.423-.78-.708-.18-.284-.323-.65-.427-1.093-.105-.44-.17-.854-.198-1.24-.028-.38-.042-.84-.042-1.382V79.303h-7.54v23.667c0 1.528.096 2.865.29 4.01.194 1.147.53 2.196 1.01 3.147.48.95 1.104 1.726 1.875 2.323.773.597 1.746 1.06 2.92 1.385 1.173.326 2.545.49 4.114.49 1.96 0 3.604-.24 4.938-.718 1.334-.48 2.383-1.22 3.146-2.22.765-1 1.31-2.173 1.636-3.52s.49-2.98.49-4.896V79.307h-7.562v24.792l-.002-.003zm32.437-10.188c.61-1.375.917-3.194.917-5.458 0-1.43-.18-2.685-.54-3.75-.36-1.07-.86-1.948-1.5-2.63-.64-.68-1.453-1.23-2.44-1.645-.985-.416-2.04-.708-3.166-.875-1.125-.165-2.417-.25-3.875-.25h-9.417v34.544h7.626v-15.46h2.147l3.79 15.46h7.897l-4.75-16.73c1.598-.764 2.702-1.834 3.313-3.21l-.002.003zm-7.145-1.125c-.64.806-1.737 1.21-3.293 1.21h-1.958v-9.564h2.352c1.417 0 2.413.386 2.99 1.156.576.77.864 1.956.864 3.552 0 1.625-.32 2.84-.958 3.646h.002zm20.25 5.583h6.02v-5.312h-6.02V84.51h7.894v-5.207h-15.52v34.542h15.604v-5.167h-7.977M34.08 133.974c-.44-.218-.878-.438-1.314-.66l-5.676 11.14c2.238 1.14 4.498 2.225 6.775 3.255.18-.4.36-.8.542-1.2-1.78-.807-3.55-1.646-5.31-2.52l4.982-10.02v.004zm10.727 4.694c-1.53-.616-3.076-.5-4.207.258-1.1.73-1.578 1.81-2.467 3.84-.885 2.03-1.364 3.112-1.106 4.43.262 1.36 1.362 2.608 3.028 3.28 1.668.67 3.318.532 4.445-.27 1.098-.773 1.5-1.887 2.267-3.964.766-2.08 1.17-3.19.886-4.477-.29-1.33-1.318-2.48-2.846-3.097zm.542 7.045c-.68 1.79-1.08 2.845-1.878 3.404-.737.52-1.83.583-2.93.14-1.103-.443-1.847-1.245-2.02-2.133-.19-.957.255-1.993 1.004-3.754.75-1.762 1.195-2.796 1.988-3.337.733-.504 1.768-.56 2.797-.146 1.03.414 1.733 1.17 1.913 2.042.197.935-.2 1.99-.878 3.78l.004.003zm6.07 6.642c-.068-3.703-.057-7.396.034-11.074-.475-.16-.95-.33-1.424-.5-.09 4.397-.066 8.81.073 13.24.47.157.94.31 1.412.46 2.7-3.516 5.295-7.087 7.782-10.71l-1.442-.42c-2.073 3.036-4.217 6.04-6.435 9.007v-.002zm6.47 4c2.512.685 5.04 1.31 7.576 1.87l.285-1.284c-2.014-.44-4.02-.93-6.02-1.45l1.134-4.32c1.55.405 3.104.787 4.66 1.144.1-.426.196-.853.294-1.28-1.546-.354-3.087-.732-4.62-1.135l1.036-3.96c1.875.49 3.757.946 5.647 1.364l.284-1.283c-2.34-.517-4.672-1.09-6.99-1.724l-3.287 12.062.002-.003zm20.906-8.39c-2.053 3.912-4.225 7.785-6.516 11.612.54.095 1.08.188 1.617.277.534-.958 1.063-1.918 1.585-2.88 1.71.27 3.423.515 5.138.73.235 1.068.475 2.138.72 3.207.543.068 1.086.13 1.628.188-1.13-4.313-2.138-8.637-3.02-12.966-.383-.054-.764-.107-1.15-.164l-.002-.003zm-2.664 7.78c1.015-1.912 2.003-3.833 2.964-5.764.387 2.126.8 4.247 1.242 6.366-1.404-.18-2.807-.38-4.207-.597l.002-.005zm16.5 3.34c-1.91-3.345-3.688-6.723-5.337-10.127-.418-.037-.835-.075-1.252-.115-.4 4.148-.8 8.297-1.198 12.445.515.05 1.03.097 1.546.14l.84-9.706c1.69 3.406 3.51 6.784 5.456 10.127.453.02.907.04 1.36.054l.485-12.493c-.476-.017-.952-.037-1.43-.06l-.47 9.732.002.003zm11.636-8.317c-1.378-1.26-3.027-1.235-4.73-1.245-.703-.003-1.406-.012-2.107-.025l-.24 12.5c.76.014 1.523.023 2.284.027 1.842.01 3.656-.016 5.056-1.35 1.378-1.316 1.312-2.897 1.24-4.997-.073-2.1-.143-3.67-1.503-4.91zm-.878 9.033c-.956.905-2.268.92-3.91.915-.242 0-.485-.003-.728-.005l.095-9.875c.227.003.454.004.682.005 1.542.006 2.765-.01 3.7.854.96.88.997 2.042 1.047 4.032.05 1.99.088 3.155-.886 4.076zm17.667-11.73c-2.88.407-5.767.728-8.657.964l.106 1.31c1.217-.1 2.436-.214 3.65-.343.397 3.707.79 7.416 1.185 11.124.516-.055 1.03-.11 1.544-.17l-1.29-11.114c1.215-.14 2.43-.3 3.642-.47-.06-.435-.123-.868-.183-1.303l.004.004zm10.726 2.02c-.246-1.155-.91-2.01-1.75-2.51-1.334-.784-2.717-.52-4.23-.256-.847.147-1.693.288-2.544.42l1.933 12.37c.513-.08 1.024-.162 1.536-.247-.266-1.586-.528-3.172-.793-4.76.398-.065.794-.132 1.19-.2 1.003-.177 1.445-.26 1.876-.397 1.02 1.457 2.06 2.907 3.125 4.346.55-.11 1.1-.224 1.65-.34-1.172-1.537-2.32-3.084-3.443-4.643 1.14-.778 1.792-2.185 1.452-3.782h-.004zm-4.884 3.52c-.394.07-.784.137-1.178.2l-.83-5c.378-.06.76-.124 1.137-.19 1.445-.254 2.326-.424 3.186.08.59.343.98.99 1.12 1.69.143.7.025 1.45-.4 1.993-.626.793-1.544.97-3.038 1.23v-.002zm9.81-8.61c-.407 4.4-.94 8.81-1.596 13.226.535-.118 1.07-.24 1.602-.363.13-1.09.25-2.18.366-3.267 1.69-.404 3.374-.837 5.054-1.297.628.9 1.26 1.793 1.9 2.686.53-.15 1.057-.3 1.585-.455-2.706-3.55-5.3-7.157-7.78-10.816l-1.13.29V145zm.507 8.21c.21-2.155.393-4.31.547-6.46 1.17 1.81 2.367 3.61 3.592 5.4-1.378.372-2.756.726-4.14 1.06zm11.8-11.89c.087 3.68.096 7.37.025 11.076-2.215-2.97-4.357-5.975-6.43-9.016-.478.142-.96.282-1.44.42 2.483 3.623 5.074 7.197 7.774 10.714.47-.15.94-.3 1.41-.454.142-4.434.17-8.85.08-13.244-.474.17-.948.338-1.423.503h.004zm8.637 8.755c-.533-1.39-1.068-2.78-1.603-4.17 1.51-.58 3.01-1.183 4.5-1.81l-.51-1.213c-1.48.624-2.966 1.223-4.46 1.797l-1.47-3.82c1.826-.7 3.64-1.44 5.445-2.215l-.52-1.208c-2.233.96-4.486 1.865-6.755 2.71l4.37 11.715c2.46-.92 4.9-1.9 7.323-2.94l-.52-1.208c-1.92.825-3.853 1.612-5.8 2.36zm9.953-4.216l-4.71-10.15c-.443.206-.888.41-1.33.61l5.15 11.39c2.276-1.03 4.535-2.116 6.774-3.257l-.596-1.17c-1.75.892-3.512 1.75-5.288 2.574v.002zM99.21 127.383l-2.15-4.362-2.157 4.365-4.813.7 3.482 3.396-.82 4.795 4.307-2.264 4.303 2.265-.824-4.796 3.484-3.398m15.113-.062l-1.55-3.136-1.546 3.136-3.46.503 2.506 2.44-.596 3.448 3.095-1.625 3.095 1.628-.59-3.447 2.505-2.44m-44.524-.504l-1.546-3.135-1.55 3.137-3.46.504 2.502 2.44-.59 3.45 3.095-1.627 3.095 1.628-.592-3.446 2.505-2.44"/></svg>