<svg xmlns="http://www.w3.org/2000/svg" xmlns:xlink="http://www.w3.org/1999/xlink" viewBox="0 0 1073.6 788.33"><defs><style>.cls-1,.cls-37,.cls-53,.cls-65{fill:none;}.cls-2{isolation:isolate;}.cls-23,.cls-3{fill:#b7cdd8;}.cls-3{opacity:0.35;}.cls-4{fill:#e6e6e6;opacity:0.7;}.cls-5,.cls-70,.cls-8{fill:#fff;}.cls-5,.cls-8{stroke:#e6e6e6;}.cls-37,.cls-5,.cls-53,.cls-65,.cls-8{stroke-miterlimit:10;}.cls-5{stroke-width:1.14px;}.cls-6{fill:#4dba87;}.cls-7{fill:#435466;}.cls-8{stroke-width:0.93px;}.cls-9{fill:#759d69;}.cls-10{fill:#333;}.cls-11{fill:url(#linear-gradient);}.cls-12{clip-path:url(#clip-path);}.cls-13{fill:url(#linear-gradient-2);}.cls-14{fill:url(#linear-gradient-3);}.cls-15{fill:url(#linear-gradient-4);}.cls-16{fill:url(#linear-gradient-5);}.cls-17{fill:url(#linear-gradient-6);}.cls-18{fill:url(#linear-gradient-7);}.cls-19{fill:#ce521f;}.cls-20{fill:#ebebeb;}.cls-21{fill:#8e96a3;}.cls-22{fill:#3d4d5c;}.cls-24{fill:#52677a;}.cls-25{fill:url(#linear-gradient-8);}.cls-26{fill:url(#linear-gradient-9);}.cls-27{fill:url(#linear-gradient-10);}.cls-28{fill:url(#linear-gradient-11);}.cls-29{fill:url(#linear-gradient-12);}.cls-30{fill:url(#linear-gradient-13);}.cls-31{fill:url(#linear-gradient-14);}.cls-32{fill:url(#linear-gradient-15);}.cls-33{fill:url(#linear-gradient-16);}.cls-34{fill:url(#linear-gradient-17);}.cls-35{opacity:0.5;}.cls-36{fill:#222;}.cls-37{stroke-width:0.34px;stroke:url(#linear-gradient-18);}.cls-38{fill:url(#linear-gradient-19);}.cls-39{fill:#f15a24;}.cls-40{fill:#ed1c24;}.cls-41{fill:#c1272d;}.cls-42{fill:url(#linear-gradient-20);}.cls-43{fill:url(#linear-gradient-21);}.cls-44{fill:url(#linear-gradient-22);}.cls-45{fill:aqua;}.cls-46{fill:url(#linear-gradient-23);}.cls-47{opacity:0.49;fill:url(#linear-gradient-24);}.cls-48{fill:url(#linear-gradient-25);}.cls-49{fill:#2db5f9;}.cls-49,.cls-50{mix-blend-mode:screen;}.cls-50{fill:#5fd2ff;}.cls-51{fill:#219058;}.cls-52{fill:url(#linear-gradient-26);}.cls-53{stroke:#fff;stroke-width:0.85px;}.cls-54{fill:#f7b852;}.cls-55{fill:#ff8431;}.cls-56{fill:#fffb69;}.cls-57{fill:#44c688;}.cls-58{fill:#29b36e;}.cls-59{fill:#6fd191;}.cls-60{fill:#c83ad7;}.cls-61{fill:#fba9ff;}.cls-62{fill:#ff737d;}.cls-63{fill:#fff4c0;}.cls-64{fill:#00d8ff;}.cls-65{stroke:#00d8ff;stroke-width:5.74px;}.cls-66{fill:#d1bc19;}.cls-67{fill:#f7df1e;}.cls-68{fill:#0069b0;}.cls-69{fill:#007acc;}.cls-71{fill:#9c0025;opacity:0.3;}.cls-72{fill:#c3002f;}.cls-73{opacity:0.9;}</style><linearGradient id="linear-gradient" x1="179.09" x2="168.65" y1="1774.52" y2="1753.23" gradientTransform="matrix(1 0 0 -1 0 1842.25)" gradientUnits="userSpaceOnUse"><stop offset="0" stop-color="#538547"/><stop offset=".33" stop-color="#548946"/><stop offset=".64" stop-color="#589445"/><stop offset=".95" stop-color="#5fa742"/><stop offset="1" stop-color="#60ab41"/></linearGradient><clipPath id="clip-path"><path d="M175.1 62.76a1.4 1.4 0 0 0-1.4 0l-11.56 6.67a1.4 1.4 0 0 0-.71 1.21V84a1.4 1.4 0 0 0 .7 1.21l11.56 6.67a1.4 1.4 0 0 0 1.4 0l11.55-6.67a1.4 1.4 0 0 0 .7-1.21V70.64a1.4 1.4 0 0 0-.7-1.21z" class="cls-1"/></clipPath><linearGradient id="linear-gradient-2" x1="172.64" x2="201.93" y1="1763.37" y2="1785.02" gradientTransform="matrix(1 0 0 -1 0 1842.25)" gradientUnits="userSpaceOnUse"><stop offset=".14" stop-color="#538547"/><stop offset=".4" stop-color="#669d4f"/><stop offset=".71" stop-color="#79b457"/><stop offset=".91" stop-color="#80bd5a"/></linearGradient><linearGradient id="linear-gradient-3" x1="161.04" x2="187.76" y1="1781.89" y2="1781.89" gradientTransform="matrix(1 0 0 -1 0 1842.25)" gradientUnits="userSpaceOnUse"><stop offset=".09" stop-color="#80bd5a"/><stop offset=".29" stop-color="#79b457"/><stop offset=".6" stop-color="#669d4f"/><stop offset=".86" stop-color="#538547"/></linearGradient><linearGradient id="linear-gradient-4" x1="161.04" x2="187.76" y1="1764.94" y2="1764.94" xlink:href="#linear-gradient-3"/><linearGradient id="linear-gradient-5" x1="161.04" x2="187.76" y1="1757.31" y2="1757.31" xlink:href="#linear-gradient-3"/><linearGradient id="linear-gradient-6" x1="161.04" x2="187.76" y1="1753.87" y2="1753.87" xlink:href="#linear-gradient-3"/><linearGradient id="linear-gradient-7" x1="191.64" x2="175.16" y1="1775.16" y2="1741.54" xlink:href="#linear-gradient"/><linearGradient id="linear-gradient-8" x1="294.4" x2="523.6" y1="200.15" y2="200.15" gradientUnits="userSpaceOnUse"><stop offset="0" stop-color="#0bf9cb"/><stop offset="1" stop-color="#21d1e8"/></linearGradient><linearGradient id="linear-gradient-9" x1="404.4" x2="548.54" y1="322.75" y2="322.75" xlink:href="#linear-gradient-8"/><linearGradient id="linear-gradient-10" x1="350.4" x2="494.54" y1="362.41" y2="362.41" xlink:href="#linear-gradient-8"/><linearGradient id="linear-gradient-11" x1="399.73" x2="660.97" y1="402.06" y2="402.06" xlink:href="#linear-gradient-8"/><linearGradient id="linear-gradient-12" x1="291.85" x2="347.33" y1="439.45" y2="439.45" xlink:href="#linear-gradient-8"/><linearGradient id="linear-gradient-13" x1="294.4" x2="514.34" y1="479.64" y2="479.64" xlink:href="#linear-gradient-8"/><linearGradient id="linear-gradient-14" x1="346.99" x2="446.18" y1="242.45" y2="242.45" xlink:href="#linear-gradient-8"/><linearGradient id="linear-gradient-15" x1="534.67" x2="633.86" y1="200.15" y2="200.15" xlink:href="#linear-gradient-8"/><linearGradient id="linear-gradient-16" x1="294.4" x2="393.59" y1="164.14" y2="164.14" xlink:href="#linear-gradient-8"/><linearGradient id="linear-gradient-17" x1="347.33" x2="540.55" y1="283.1" y2="283.1" xlink:href="#linear-gradient-8"/><linearGradient id="linear-gradient-18" x1="412.39" x2="412.31" y1="91.41" y2="91.73" gradientUnits="userSpaceOnUse"><stop offset="0" stop-color="#ff1d25" stop-opacity=".5"/><stop offset=".06" stop-color="#ff1d25" stop-opacity=".54"/><stop offset=".37" stop-color="#ff1d25" stop-opacity=".74"/><stop offset=".64" stop-color="#ff1d25" stop-opacity=".88"/><stop offset=".86" stop-color="#ff1d25" stop-opacity=".97"/><stop offset="1" stop-color="#ff1d25"/></linearGradient><linearGradient id="linear-gradient-19" x1="414.94" x2="414.94" y1="98.65" y2="90.86" gradientUnits="userSpaceOnUse"><stop offset="0" stop-color="#fffa8f"/><stop offset="1" stop-color="#fb784b"/></linearGradient><linearGradient id="linear-gradient-20" x1="473.06" x2="475.93" y1="64.44" y2="62.07" gradientUnits="userSpaceOnUse"><stop offset="0" stop-color="#5bcb99"/><stop offset="1" stop-color="#85a8e8"/></linearGradient><linearGradient id="linear-gradient-21" x1="418.6" x2="508.27" y1="93.03" y2="46.5" gradientUnits="userSpaceOnUse"><stop offset="0" stop-color="#34e28b"/><stop offset="1"/></linearGradient><linearGradient id="linear-gradient-22" x1="435.07" x2="442.12" y1="102.04" y2="102.04" gradientUnits="userSpaceOnUse"><stop offset="0" stop-color="#c297ff"/><stop offset="1" stop-color="#ae31bb"/></linearGradient><linearGradient id="linear-gradient-23" x1="406.32" x2="495.49" y1="136.01" y2="66.48" gradientUnits="userSpaceOnUse"><stop offset="0"/><stop offset="1" stop-color="#d23de2"/></linearGradient><linearGradient id="linear-gradient-24" x1="472.28" x2="468.67" y1="60.51" y2="72.69" gradientUnits="userSpaceOnUse"><stop offset="0"/><stop offset="1" stop-opacity="0"/></linearGradient><linearGradient id="linear-gradient-25" x1="439.28" x2="464.63" y1="107.66" y2="113.8" gradientUnits="userSpaceOnUse"><stop offset="0" stop-color="#2db5f9"/><stop offset="1"/></linearGradient><linearGradient id="linear-gradient-26" x1="419.46" x2="402.71" y1="43.81" y2="89.83" gradientUnits="userSpaceOnUse"><stop offset="0"/><stop offset=".21" stop-color="#48080a"/><stop offset=".42" stop-color="#891014"/><stop offset=".61" stop-color="#bc151b"/><stop offset=".78" stop-color="#e01a21"/><stop offset=".91" stop-color="#f71c24"/><stop offset="1" stop-color="#ff1d25"/></linearGradient></defs><g class="cls-2"><g id="Layer_2" data-name="Layer 2"><g id="Layer_1-2" data-name="Layer 1"><rect width="229.2" height="16.49" x="844.4" y="44.9" class="cls-3" rx="8.25" ry="8.25"/><rect width="150" height="16.49" x="782" y="8.9" class="cls-3" rx="6.67" ry="6.67"/><rect width="229.2" height="16.49" x="62.4" y="226.9" class="cls-3" rx="8.25" ry="8.25"/><rect width="150" height="16.49" y="190.9" class="cls-3" rx="6.67" ry="6.67"/><rect width="150" height="16.49" x="28" y="262.9" class="cls-3" rx="6.67" ry="6.67"/><rect width="132.89" height="132.89" x="888.34" y="27.57" class="cls-4" rx="24.08" ry="24.08"/><rect width="132.89" height="132.89" x="888.34" y="24.45" class="cls-5" rx="24.08" ry="24.08"/><g id="g10"><g id="g12"><path id="path14" d="M964.41 56.36l-9.57 16.58-9.57-16.58h-31.89l41.45 71.8 41.45-71.8z" class="cls-6"/></g><g id="g16"><path id="path18" d="M964.41 56.36l-9.57 16.58-9.57-16.58H930l24.87 43.08 24.87-43.08z" class="cls-7"/></g></g><rect width="164.57" height="164.57" x="108" y="4.32" class="cls-4" rx="29.82" ry="29.82"/><rect width="164.57" height="164.57" x="108" y=".46" class="cls-8" rx="29.82" ry="29.82"/><g id="Layer_2-2" data-name="Layer 2"><g id="Layer_1-2-2" data-name="Layer 1-2"><path d="M189.59 119.9a2.3 2.3 0 0 1-1.15-.31l-3.66-2.16c-.55-.3-.27-.41-.1-.48a7.3 7.3 0 0 0 1.65-.75.27.27 0 0 1 .27 0l2.81 1.66a.36.36 0 0 0 .34 0l11-6.32a.35.35 0 0 0 .17-.3V98.62a.35.35 0 0 0-.17-.3l-11-6.31a.34.34 0 0 0-.34 0l-10.95 6.31a.35.35 0 0 0-.17.3v12.64a.33.33 0 0 0 .17.29l3 1.73c1.63.82 2.62-.15 2.62-1.1V99.7a.32.32 0 0 1 .32-.32h1.39a.32.32 0 0 1 .32.31v12.49c0 2.17-1.18 3.42-3.24 3.42a4.68 4.68 0 0 1-2.52-.69l-2.87-1.65a2.31 2.31 0 0 1-1.15-2V98.63a2.31 2.31 0 0 1 1.15-2l11-6.34a2.4 2.4 0 0 1 2.3 0l11 6.33a2.31 2.31 0 0 1 1.15 2v12.64a2.32 2.32 0 0 1-1.15 2l-11 6.32a2.3 2.3 0 0 1-1.19.32z" class="cls-9"/><path d="M193 111.19c-4.79 0-5.8-2.19-5.8-4a.32.32 0 0 1 .32-.32h1.42a.32.32 0 0 1 .32.27c.21 1.44.85 2.17 3.75 2.17 2.31 0 3.29-.52 3.29-1.75 0-.7-.27-1.23-3.87-1.58-3-.3-4.85-1-4.85-3.36 0-2.21 1.86-3.53 5-3.53 3.51 0 5.25 1.22 5.47 3.84a.32.32 0 0 1-.29.34h-1.45a.32.32 0 0 1-.31-.27c-.34-1.52-1.17-2-3.42-2-2.52 0-2.81.88-2.81 1.54s.35 1 3.75 1.48 5 1.08 5 3.44-2.07 3.73-5.52 3.73zm15.77-13.26a2.11 2.11 0 1 1-2.11-2.11 2.11 2.11 0 0 1 2.11 2.11zm-3.88 0a1.77 1.77 0 1 0 1.78-1.77 1.77 1.77 0 0 0-1.77 1.76zm1-1.18h.82c.27 0 .82 0 .82.63a.55.55 0 0 1-.45.58c.32 0 .35.24.39.55a2.33 2.33 0 0 0 .12.63h-.51c0-.11-.09-.72-.09-.75s-.08-.2-.25-.2h-.41v.95h-.46zm.45 1h.38a.32.32 0 0 0 .36-.33c0-.32-.22-.32-.35-.32h-.38z" class="cls-9"/><path d="M155.66 70.43a1.4 1.4 0 0 0-.7-1.22l-11.62-6.68a1.37 1.37 0 0 0-.64-.18h-.12a1.39 1.39 0 0 0-.64.18l-11.61 6.68a1.41 1.41 0 0 0-.7 1.22v18a.69.69 0 0 0 .37.57.67.67 0 0 0 .7 0l6.9-3.95a1.41 1.41 0 0 0 .7-1.22v-8.37a1.4 1.4 0 0 1 .7-1.22l2.94-1.69a1.4 1.4 0 0 1 .7-.19 1.37 1.37 0 0 1 .7.19l2.94 1.69a1.4 1.4 0 0 1 .7 1.22v8.41a1.42 1.42 0 0 0 .71 1.22l6.9 3.95a.68.68 0 0 0 .7 0 .7.7 0 0 0 .35-.61zm55.89-24.75a.7.7 0 0 0-1 .61v17.83a.49.49 0 0 1-.74.43l-2.9-1.67a1.4 1.4 0 0 0-1.4 0l-11.62 6.71a1.4 1.4 0 0 0-.7 1.22v13.4a1.4 1.4 0 0 0 .7 1.22l11.62 6.71a1.4 1.4 0 0 0 1.4 0l11.62-6.71a1.4 1.4 0 0 0 .7-1.22V50.76a1.4 1.4 0 0 0-.72-1.23zm-1.07 34.12a.35.35 0 0 1-.18.3l-4 2.3a.35.35 0 0 1-.35 0l-4-2.3a.35.35 0 0 1-.18-.3v-4.61a.35.35 0 0 1 .18-.3l4-2.3a.35.35 0 0 1 .35 0l4 2.3a.35.35 0 0 1 .18.3zm39.77-4.73a1.4 1.4 0 0 0 .7-1.21v-3.25a1.4 1.4 0 0 0-.7-1.22l-11.55-6.7a1.4 1.4 0 0 0-1.41 0l-11.61 6.71a1.4 1.4 0 0 0-.7 1.22V84a1.4 1.4 0 0 0 .71 1.22l11.54 6.58a1.4 1.4 0 0 0 1.37 0l7-3.88a.7.7 0 0 0 0-1.22L233.89 80a.7.7 0 0 1-.35-.61v-4.18a.7.7 0 0 1 .35-.61l3.66-2.11a.7.7 0 0 1 .7 0l3.64 2.1a.7.7 0 0 1 .35.61v3.3a.7.7 0 0 0 1.05.61z" class="cls-10"/><path d="M237.83 74.45a.27.27 0 0 1 .27 0l2.23 1.29a.27.27 0 0 1 .13.23v2.58a.27.27 0 0 1-.13.23l-2.23 1.29a.27.27 0 0 1-.27 0l-2.23-1.28a.27.27 0 0 1-.13-.23V76a.27.27 0 0 1 .13-.23z" class="cls-9"/><path id="_Clipping_Path_2" d="M175.1 62.76a1.4 1.4 0 0 0-1.4 0l-11.56 6.67a1.4 1.4 0 0 0-.71 1.21V84a1.4 1.4 0 0 0 .7 1.21l11.56 6.67a1.4 1.4 0 0 0 1.4 0l11.55-6.67a1.4 1.4 0 0 0 .7-1.21V70.64a1.4 1.4 0 0 0-.7-1.21z" data-name="Clipping Path 2" class="cls-11"/><g class="cls-12"><path d="M173.68 62.76l-11.58 6.67a1.44 1.44 0 0 0-.75 1.21V84a1.35 1.35 0 0 0 .36.89l13-22.26a1.42 1.42 0 0 0-1.03.13zM174.79 92a1.39 1.39 0 0 0 .33-.13l11.56-6.67a1.42 1.42 0 0 0 .72-1.2V70.64a1.37 1.37 0 0 0-.42-1z" class="cls-1"/><path d="M186.67 69.43l-11.58-6.67a1.39 1.39 0 0 0-.36-.15l-13 22.26a1.59 1.59 0 0 0 .39.32l11.61 6.67a1.41 1.41 0 0 0 1.08.13L187 69.67a1.52 1.52 0 0 0-.33-.24z" class="cls-13"/><path d="M187.41 84V70.64a1.43 1.43 0 0 0-.74-1.21l-11.58-6.67a1.39 1.39 0 0 0-.43-.16l12.7 21.7a1.28 1.28 0 0 0 .05-.3zM162.1 69.43a1.44 1.44 0 0 0-.75 1.21V84a1.45 1.45 0 0 0 .75 1.21l11.61 6.67a1.41 1.41 0 0 0 .89.17l-12.43-22.66z" class="cls-1"/><path d="M173.32 60.31l-.16.09h.21l-.05-.09z" class="cls-14"/><path d="M186.67 85.19a1.46 1.46 0 0 0 .68-.89l-12.69-21.7a1.42 1.42 0 0 0-1 .16l-11.52 6.63L174.6 92a1.4 1.4 0 0 0 .51-.17z" class="cls-15"/><path d="M187.76 84.98l-.08-.13v.17l.08-.04z" class="cls-16"/><path d="M186.67 85.19l-11.57 6.68a1.4 1.4 0 0 1-.51.17l.23.42L187.67 85v-.18l-.32-.55a1.46 1.46 0 0 1-.68.92z" class="cls-17"/><path d="M186.67 85.19l-11.57 6.68a1.4 1.4 0 0 1-.51.17l.23.42L187.67 85v-.18l-.32-.55a1.46 1.46 0 0 1-.68.92z" class="cls-18"/></g></g></g><path d="M240.15 389.57a2.59 2.59 0 0 1-1.53-3.32l2.1-5.71 4.85 1.79-2.1 5.71a2.59 2.59 0 0 1-3.32 1.53zm27.03 9.96a2.59 2.59 0 0 1-1.53-3.32l2.1-5.71c.14-.38 4.83 1.84 4.83 1.84L270.5 398a2.59 2.59 0 0 1-3.32 1.53z" class="cls-19"/><path d="M239.63 388.46a2.59 2.59 0 0 1-1.53-3.32l2.3-6.25a2.59 2.59 0 0 1 3.32-1.53 2.59 2.59 0 0 1 1.53 3.32l-2.3 6.25a2.59 2.59 0 0 1-3.32 1.53zm26.98 9.93a2.59 2.59 0 0 1-1.53-3.32l2.3-6.25a2.59 2.59 0 0 1 3.32-1.53 2.59 2.59 0 0 1 1.53 3.32l-2.3 6.25a2.59 2.59 0 0 1-3.32 1.53z" class="cls-20"/><path d="M233.09553 448.1197l15.9054 5.85836-3.79842 10.31272-15.9054-5.85836zm7.24322-18.16443l15.9054 5.85835-3.79842 10.31272-15.9054-5.85836z" class="cls-21"/><path d="M1013.06 788.33H152.19c-9.56 0-19.65-4.82-20.68-18.86v-12.9l94.23-174.12a30 30 0 0 1 26.86-16.66h658.79c12.29 0 39.4 24.21 44.9 35.21L1034 759.48v5.69c.22 16.51-10.45 23.16-20.94 23.16z" class="cls-22"/><path d="M1013.14 770.1H152.27c-9.56 0-25.3-8.38-19.38-18.69l92.94-187.19a30 30 0 0 1 26.86-16.66h658.78a32.45 32.45 0 0 1 29 17.94l92 184.09c6.47 11.75-8.85 20.51-19.33 20.51z" class="cls-23"/><rect width="704.99" height="445.48" x="225.68" y="104.47" class="cls-22" rx="12.3" ry="12.3"/><path d="M252.75 128.77h650.6v386.01h-650.6zM707.49 762H453.82a4.57 4.57 0 0 1-4.52-5.3l10.7-66.81a7.43 7.43 0 0 1 7.34-6.26h228.79a6.53 6.53 0 0 1 6.46 5.59l9.8 67.19a5 5 0 0 1-4.9 5.59zM290.94 587.59h-27.53c-3.84 0-6.49-1.13-5.92-2.53l1.68-4.12c.56-1.38 4.09-2.49 7.88-2.49h27.2c3.79 0 6.48 1.11 6 2.49l-1.46 4.12c-.5 1.4-4.02 2.53-7.85 2.53zm46.41 0h-27.52c-3.84 0-6.55-1.13-6.07-2.53l1.44-4.12c.48-1.38 3.94-2.49 7.74-2.49h27.2c3.79 0 6.54 1.11 6.13 2.49l-1.22 4.12c-.41 1.4-3.86 2.53-7.7 2.53zm46.42 0h-27.52c-3.84 0-6.62-1.13-6.22-2.53l1.19-4.12c.4-1.38 3.8-2.49 7.59-2.49H386c3.79 0 6.61 1.11 6.28 2.49l-1 4.12c-.28 1.4-3.67 2.53-7.51 2.53zm46.42 0h-27.53c-3.84 0-6.69-1.13-6.37-2.53l1-4.12c.32-1.38 3.65-2.49 7.44-2.49h27.2c3.79 0 6.67 1.11 6.43 2.49l-.73 4.12c-.29 1.4-3.63 2.53-7.44 2.53zm46.41 0h-27.52c-3.84 0-6.75-1.13-6.52-2.53l.71-4.12c.24-1.38 3.5-2.49 7.3-2.49h27.2c3.79 0 6.74 1.11 6.57 2.49l-.49 4.12c-.16 1.4-3.41 2.53-7.25 2.53zm46.4 0h-27.5c-3.84 0-6.82-1.13-6.66-2.53l.47-4.12c.16-1.38 3.36-2.49 7.15-2.49h27.2c3.79 0 6.8 1.11 6.72 2.49l-.25 4.12c-.13 1.4-3.27 2.53-7.13 2.53zm46.44 0h-27.53c-3.84 0-6.89-1.13-6.81-2.53l.22-4.12c.07-1.38 3.21-2.49 7-2.49h27.2c3.79 0 6.87 1.11 6.87 2.49v4.12c0 1.4-3.12 2.53-6.95 2.53zm46.41 0h-27.52c-3.84 0-7-1.13-7-2.53v-4.12c0-1.38 3.06-2.49 6.86-2.49h27.2c3.79 0 6.93 1.11 7 2.49l.24 4.12c.11 1.4-2.94 2.53-6.78 2.53zm46.42 0h-27.52c-3.84 0-7-1.13-7.11-2.53l-.26-4.12c-.09-1.38 2.92-2.49 6.71-2.49h27.2c3.79 0 7 1.11 7.16 2.49l.48 4.12c.16 1.4-2.82 2.53-6.66 2.53zm46.42 0h-27.53c-3.84 0-7.09-1.13-7.26-2.53l-.5-4.12c-.17-1.38 2.77-2.49 6.57-2.49h27.2c3.79 0 7.06 1.11 7.3 2.49l.72 4.12c.25 1.4-2.67 2.53-6.5 2.53zm46.41 0h-27.52c-3.84 0-7.16-1.13-7.41-2.53l-.75-4.12c-.25-1.38 2.62-2.49 6.42-2.49H753c3.79 0 7.13 1.11 7.45 2.49l1 4.12c.34 1.4-2.51 2.53-6.35 2.53zm46.42 0H774c-3.84 0-7.22-1.13-7.56-2.53l-1-4.12c-.33-1.38 2.48-2.49 6.27-2.49h27.2c3.79 0 7.19 1.11 7.6 2.49l1.21 4.12c.42 1.4-2.36 2.53-6.2 2.53zm46.42 0h-27.53c-3.84 0-7.29-1.13-7.71-2.53l-1.23-4.12c-.41-1.38 2.33-2.49 6.13-2.49h27.2c3.79 0 7.26 1.11 7.74 2.49l1.45 4.12c.5 1.4-2.22 2.53-6.05 2.53zm46.41 0h-27.52c-3.84 0-7.36-1.13-7.85-2.53l-1.47-4.12c-.49-1.38 2.19-2.49 6-2.49h27.2c3.79 0 7.33 1.11 7.89 2.49l1.69 4.12c.55 1.4-2.1 2.53-5.94 2.53zM288.4 603h-35.12c-.87 0-1.48-.26-1.34-.59l5.21-12.85c.13-.31.93-.57 1.79-.57h34.51c.86 0 1.46.26 1.35.57l-4.6 12.85c-.12.32-.92.59-1.8.59zm64.84 16.84h-35.86c-.89 0-1.53-.27-1.42-.61l4.27-13.39c.1-.33.9-.59 1.78-.59h35.22c.88 0 1.52.27 1.43.59L355 619.23c-.07.34-.87.61-1.76.61zm5.86 17.58h-36.62c-.91 0-1.56-.29-1.46-.64l4.28-14c.1-.34.92-.62 1.81-.62h36c.9 0 1.55.28 1.46.62l-3.61 14c-.13.35-.96.64-1.86.64zm20.62 18.35H342.3c-.93 0-1.6-.3-1.5-.67l4-14.57c.1-.36.92-.65 1.83-.65h36.73c.91 0 1.59.29 1.51.65l-3.34 14.57c-.05.37-.88.67-1.81.67zm-118.08 21.32H223.5c-1 0-1.7-.33-1.53-.75l7-17.3c.16-.4 1.09-.72 2.09-.72h37.33c1 0 1.68.32 1.54.72l-6.19 17.3c-.14.41-1.08.75-2.1.75zm50.94 0h-38.14c-1 0-1.72-.33-1.58-.75l6-17.3c.14-.4 1.05-.72 2-.72h37.33c1 0 1.7.32 1.58.72l-5.19 17.3c-.06.41-.99.75-2 .75zm49.42 0h-38.16c-1 0-1.74-.33-1.62-.75l5-17.3c.12-.4 1-.72 2-.72h37.33c1 0 1.72.32 1.62.72l-4.17 17.3c-.1.41-1 .75-2 .75zm62.24 0h-50.33c-1.16 0-2-.38-1.9-.85l4-17.09c.11-.45 1.11-.82 2.24-.82h49.26c1.13 0 2 .37 1.91.82l-2.95 17.09c-.07.47-1.07.85-2.23.85zm309.63 0h-50.33c-1.16 0-2.14-.38-2.2-.85l-2-17.09c-.05-.45.82-.82 2-.82h49.26c1.13 0 2.12.37 2.2.82l3.08 17.09c.02.47-.88.85-2.01.85zm50.96 0h-37.61c-1 0-1.89-.33-2-.74L742 659c-.08-.39.66-.71 1.65-.71h36.8c1 0 1.86.32 2 .71l4.12 17.31c0 .45-.73.78-1.74.78zm-113.83 0H438.74c-2.44 0-4.28-.8-4.12-1.79l2.49-15.3c.16-1 2.21-1.72 4.6-1.72H669c2.38 0 4.4.77 4.51 1.72l1.7 15.25c.1 1.04-1.79 1.84-4.21 1.84zm-242.67-21.32H390.9c-.93 0-1.62-.3-1.54-.67l3.21-14.57c.08-.36.88-.65 1.8-.65h36.73c.91 0 1.61.29 1.55.65l-2.51 14.57c-.08.37-.88.67-1.81.67zm48.6 0H439.5c-.93 0-1.64-.3-1.58-.67l2.38-14.57c.06-.36.85-.65 1.76-.65h36.74c.91 0 1.62.29 1.58.65l-1.69 14.57c-.04.37-.83.67-1.76.67zm48.6 0H488.1c-.93 0-1.66-.3-1.62-.67l1.52-14.58c0-.36.81-.65 1.72-.65h36.78c.91 0 1.64.29 1.62.65l-.86 14.57c-.02.38-.8.68-1.73.68zm48.6 0h-37.42c-.93 0-1.67-.3-1.65-.67l.73-14.57c0-.36.77-.65 1.69-.65h36.72c.91 0 1.66.29 1.65.65v14.57c-.03.37-.78.67-1.72.67zm48.61 0h-37.43c-.93 0-1.69-.3-1.69-.67l-.1-14.57c0-.36.74-.65 1.65-.65h36.73c.91 0 1.67.29 1.69.65l.79 14.57c.03.37-.71.67-1.64.67zm48.6 0h-37.43c-.93 0-1.71-.3-1.73-.67l-.93-14.57c0-.36.7-.65 1.61-.65h36.74c.91 0 1.69.29 1.73.65L673 655.1c0 .37-.73.67-1.66.67zm48.6 0h-37.43c-.93 0-1.72-.3-1.77-.67L679 640.52c0-.36.66-.65 1.58-.65h36.72c.92 0 1.7.29 1.76.65l2.45 14.57c.07.38-.64.68-1.57.68zm48.6 0h-37.42c-.93 0-1.74-.3-1.81-.67l-2.58-14.57c-.06-.36.63-.65 1.54-.65H765c.91 0 1.72.29 1.8.65l3.27 14.57c.09.37-.59.67-1.53.67zm61.35 21.61h-29.17c-3.71 0-7-1.22-7.39-2.72l-1.08-4.37c-.36-1.48 2.31-2.68 6-2.68h28.84c3.67 0 7 1.2 7.43 2.68l1.29 4.37c.43 1.5-2.22 2.72-5.92 2.72zm49.98 0H850.7c-3.71 0-7.09-1.22-7.54-2.72l-1.32-4.37c-.45-1.48 2.16-2.68 5.83-2.68h28.84c3.67 0 7.06 1.2 7.58 2.68l1.54 4.37c.52 1.5-2.05 2.72-5.76 2.72zm-3.76-10.94H847.3c-3.66 0-7-1.19-7.44-2.66l-1.29-4.26c-.44-1.45 2.14-2.61 5.77-2.61h28.49c3.62 0 7 1.17 7.48 2.61l1.5 4.26c.51 1.47-2.04 2.66-5.7 2.66zm53.74 10.94h-29.17c-3.71 0-7.16-1.22-7.7-2.72l-1.57-4.37c-.53-1.48 2-2.68 5.68-2.68h28.84c3.67 0 7.13 1.2 7.73 2.68l1.79 4.37c.62 1.5-1.89 2.72-5.6 2.72zm-522.74-39.96h-36.63c-.91 0-1.58-.29-1.49-.64l3.48-14c.09-.34.88-.62 1.78-.62h36c.9 0 1.57.28 1.5.62l-2.81 14c-.12.35-.94.64-1.83.64zm48 0h-36.63c-.91 0-1.6-.29-1.53-.64l2.68-14c.07-.34.84-.62 1.74-.62h36c.9 0 1.58.28 1.53.62l-2 14c-.1.35-.9.64-1.79.64zm48 0h-36.62c-.91 0-1.61-.29-1.57-.64l1.88-14c0-.34.81-.62 1.7-.62h36c.9 0 1.6.28 1.57.62l-1.21 14c-.07.35-.86.64-1.75.64zm47.71 0h-36.63c-.91 0-1.63-.29-1.6-.64l1.08-14c0-.34.77-.62 1.67-.62h36c.9 0 1.61.28 1.6.62l-.42 14c-.04.35-.79.64-1.7.64zm48 0H562.2c-.91 0-1.65-.29-1.64-.64l.29-14c0-.34.74-.62 1.63-.62h36c.9 0 1.63.28 1.64.62l.38 14c-.03.35-.76.64-1.68.64zm45.95 0h-36.63c-.91 0-1.66-.29-1.67-.64l-.48-14c0-.34.7-.62 1.6-.62h36c.9 0 1.64.28 1.67.62l1.14 14c0 .35-.72.64-1.63.64zm47.56 0h-36.62c-.91 0-1.68-.29-1.71-.64l-1.27-14c0-.34.67-.62 1.56-.62h36c.9 0 1.66.28 1.71.62l1.94 14c0 .35-.7.64-1.61.64zm47.56 0h-36.62c-.91 0-1.69-.29-1.75-.64l-2.06-14c-.05-.34.63-.62 1.53-.62h36c.9 0 1.68.28 1.74.62l2.73 14c.03.35-.65.64-1.57.64zm47.27 0h-36.62c-.91 0-1.71-.29-1.78-.64l-2.85-14c-.07-.34.6-.62 1.5-.62h36c.9 0 1.69.28 1.78.62l3.51 14c.04.35-.62.64-1.54.64zm47.27 0h-36.62c-.91 0-1.73-.29-1.82-.64l-3.64-14c-.09-.34.57-.62 1.46-.62h36c.9 0 1.71.28 1.81.62l4.3 14c.08.35-.58.64-1.49.64zm-17.76 18.35h-37.43c-.93 0-1.76-.3-1.84-.67l-3.4-14.58c-.08-.36.59-.65 1.51-.65h36.73c.91 0 1.74.29 1.84.65l4.09 14.57c.1.38-.57.68-1.5.68zm101.51-18.35h-70.73c-1.25 0-2.39-.39-2.55-.88L840.6 623c-.15-.47.73-.85 2-.85H912c1.23 0 2.38.38 2.57.85l5.51 13.49c.2.51-.65.93-1.9.93zm7.09 18.35h-96.91c-1.48 0-2.81-.47-3-1.06l-4-13.81c-.16-.56.88-1 2.33-1h95.12c1.45 0 2.81.46 3 1l5.64 13.81c.3.58-.71 1.06-2.18 1.06zM311.5 637.42H240c-1.26 0-2.12-.4-1.92-.88l5.47-13.48c.19-.47 1.35-.85 2.58-.85h70.19c1.24 0 2.12.38 2 .85l-4.24 13.48c-.18.46-1.32.88-2.58.88zm19.02 18.35h-98.33c-1.49 0-2.5-.48-2.26-1.07l5.6-13.79c.23-.57 1.6-1 3.06-1h96.5c1.46 0 2.51.46 2.35 1l-3.93 13.79c-.17.59-1.51 1.07-2.99 1.07zM400 619.84h-35.86c-.89 0-1.54-.27-1.46-.61l3.51-13.39c.09-.33.87-.59 1.74-.59h35.22c.88 0 1.53.27 1.46.59l-2.87 13.39c-.07.34-.85.61-1.74.61zm46.47 0h-35.86c-.89 0-1.56-.27-1.49-.61l2.75-13.39c.07-.33.83-.59 1.71-.59h35.22c.88 0 1.55.27 1.49.59l-2.11 13.39c-.05.34-.82.61-1.71.61zm46.75 0h-35.85c-.89 0-1.58-.27-1.53-.61l2-13.39c0-.33.8-.59 1.68-.59h35.22c.88 0 1.56.27 1.53.59l-1.35 13.39c-.05.34-.8.61-1.7.61zm46.78 0h-35.88c-.89 0-1.59-.27-1.56-.61l1.23-13.39c0-.33.77-.59 1.64-.59h35.22c.88 0 1.58.27 1.56.59l-.59 13.39c-.01.34-.75.61-1.62.61zm46.45 0h-35.86c-.89 0-1.61-.27-1.6-.61l.47-13.39c0-.33.73-.59 1.61-.59h35.23c.88 0 1.59.27 1.6.59l.17 13.39c0 .34-.73.61-1.62.61zm45.42 0H596c-.89 0-1.62-.27-1.63-.61l-.27-13.39c0-.33.7-.59 1.58-.59h35.22c.88 0 1.61.27 1.63.59l.91 13.39c.03.34-.68.61-1.57.61zm47.13 0h-35.85c-.89 0-1.64-.27-1.66-.61l-1-13.39c0-.33.66-.59 1.54-.59h35.22c.88 0 1.62.27 1.66.59l1.68 13.39c0 .34-.69.61-1.59.61zm46.57 0h-35.85c-.89 0-1.65-.27-1.7-.61l-1.8-13.39c0-.33.63-.59 1.51-.59h35.22c.88 0 1.64.27 1.7.59l2.44 13.39c.05.34-.62.61-1.52.61zm45.8 0h-35.86c-.89 0-1.67-.27-1.73-.61l-2.55-13.39c-.06-.33.6-.59 1.48-.59h35.22c.88 0 1.65.27 1.73.59l3.18 13.39c.08.34-.57.61-1.47.61zm47.72 0h-35.86c-.89 0-1.69-.27-1.77-.61l-3.32-13.39c-.08-.33.56-.59 1.44-.59h35.22c.88 0 1.67.27 1.76.59l4 13.39c.06.34-.56.61-1.47.61zm45.61 0h-35.86c-.89 0-1.7-.27-1.8-.61L823 605.84c-.1-.33.53-.59 1.41-.59h35.19c.88 0 1.68.27 1.8.59l4.71 13.39c.11.34-.52.61-1.41.61zm46.94 0h-35.85c-.89 0-1.72-.27-1.84-.61l-4.83-13.39c-.12-.33.5-.59 1.37-.59h35.22c.88 0 1.7.27 1.83.59l5.46 13.39c.15.34-.46.61-1.36.61zM334.86 603h-35.13c-.87 0-1.49-.26-1.38-.59l4.47-12.85c.11-.31.89-.57 1.75-.57h34.51c.86 0 1.48.26 1.39.57l-3.85 12.85c-.1.32-.89.59-1.76.59zm45.04 0h-35.12c-.87 0-1.51-.26-1.41-.59l3.75-12.85c.09-.31.86-.57 1.72-.57h34.51c.86 0 1.49.26 1.42.57l-3.13 12.85c-.09.32-.86.59-1.74.59zm46.17 0H391c-.87 0-1.52-.26-1.45-.59l3-12.85c.07-.31.83-.57 1.69-.57h34.51c.86 0 1.51.26 1.45.57l-2.4 12.85c-.09.32-.85.59-1.73.59zm45.03 0H436c-.87 0-1.54-.26-1.48-.59l2.29-12.85c.06-.31.8-.57 1.66-.57H473c.86 0 1.52.26 1.48.57l-1.68 12.85c-.08.32-.8.59-1.7.59zm46.43 0h-35.12c-.87 0-1.55-.26-1.51-.59l1.55-12.85c0-.31.77-.57 1.62-.57h34.51c.86 0 1.54.26 1.51.57l-.94 12.85c-.02.32-.75.59-1.62.59zm44.62 0H527c-.87 0-1.57-.26-1.55-.59l.84-12.85c0-.31.73-.57 1.59-.57h34.51c.86 0 1.55.26 1.55.57l-.22 12.85c.02.32-.72.59-1.57.59zm46.36 0h-35.12c-.87 0-1.58-.26-1.58-.59l.09-12.85c0-.31.7-.57 1.56-.57H608c.86 0 1.57.26 1.58.57l.52 12.85c-.01.32-.71.59-1.59.59zm45.05 0h-35.12c-.87 0-1.6-.26-1.61-.59l-.63-12.85c0-.31.67-.57 1.53-.57h34.51c.86 0 1.58.26 1.61.57l1.24 12.85c.03.32-.65.59-1.53.59zm46.27 0h-35.12c-.87 0-1.61-.26-1.65-.59l-1.36-12.85c0-.31.64-.57 1.5-.57h34.5c.86 0 1.6.26 1.64.57l2 12.85c.03.32-.64.59-1.51.59zm46.17 0h-35.12c-.87 0-1.63-.26-1.68-.59l-2.1-12.85c-.05-.31.6-.57 1.46-.57h34.51c.86 0 1.61.26 1.68.57l2.71 12.85c.07.32-.58.59-1.46.59zm45.7 0h-35.12c-.87 0-1.64-.26-1.71-.59L752 589.55c-.07-.31.57-.57 1.43-.57H788c.86 0 1.62.26 1.71.57l3.44 12.85c.07.33-.57.6-1.45.6zm43.93 0H800.5c-.87 0-1.66-.26-1.75-.59l-3.53-12.85c-.09-.31.54-.57 1.4-.57h34.51c.86 0 1.64.26 1.74.57L837 602.4c.12.33-.5.6-1.37.6zm65.83 0h-52.53c-2.43 0-4.64-.73-4.94-1.63l-3.58-10.79c-.29-.88 1.41-1.58 3.8-1.58h51.62c2.39 0 4.61.71 5 1.58l4.4 10.79c.33.89-1.34 1.63-3.77 1.63zM303 619.84h-53.65c-2.48 0-4.18-.76-3.8-1.7l4.56-11.24c.37-.91 2.64-1.65 5.08-1.65h52.68c2.44 0 4.17.74 3.87 1.65L308 618.14c-.27.94-2.53 1.7-5 1.7z" class="cls-24"/><rect width="229.2" height="16.49" x="294.4" y="191.9" class="cls-25" rx="8.25" ry="8.25"/><rect width="144.14" height="16.49" x="404.4" y="314.51" class="cls-26" rx="8.25" ry="8.25"/><rect width="144.14" height="16.49" x="350.4" y="354.16" class="cls-27" rx="8.25" ry="8.25"/><rect width="261.23" height="16.49" x="399.73" y="393.81" class="cls-28" rx="8.25" ry="8.25"/><rect width="55.47" height="16.49" x="291.85" y="431.2" class="cls-29" rx="8.25" ry="8.25"/><rect width="219.95" height="16.49" x="294.4" y="471.39" class="cls-30" rx="8.25" ry="8.25"/><rect width="99.19" height="16.49" x="346.99" y="234.2" class="cls-31" rx="8.25" ry="8.25"/><rect width="99.19" height="16.49" x="534.67" y="191.9" class="cls-32" rx="8.25" ry="8.25"/><rect width="99.19" height="16.49" x="294.4" y="155.89" class="cls-33" rx="8.25" ry="8.25"/><rect width="193.22" height="16.49" x="347.33" y="274.85" class="cls-34" rx="8.25" ry="8.25"/><rect width="145.14" height="145.14" x="365.86" y="9.6" class="cls-35" rx="26.3" ry="26.3"/><rect width="145.14" height="145.14" x="365.86" y="6.19" class="cls-36" rx="26.3" ry="26.3"/><path d="M401 89.45l.24.37a26.25 26.25 0 0 0 4.18 4.65 20.47 20.47 0 0 0 13 4.64h.89a30.46 30.46 0 0 0 9.56-2.38 30.49 30.49 0 0 1-4.11.37 16.71 16.71 0 0 1-12.42-5.51A30.24 30.24 0 0 1 401 89.45z" class="cls-38"/><path d="M418.42 58A20.54 20.54 0 0 1 436 67.92a16.75 16.75 0 0 0-15.95-3.67c3.75 1.82 8.9 3.2 16 3.69 0 0-.35-6.73-9-10.24-12-4.91-13.72-3.93-16.77-9a13.62 13.62 0 0 0 2.73 10 20.57 20.57 0 0 1 5.41-.7z" class="cls-39"/><path d="M427.08 57.69c-4.12-1.68-7-2.67-9.19-3.45a15.11 15.11 0 0 0 2.23 3.83A20.55 20.55 0 0 1 436 67.92a16.69 16.69 0 0 0-9.29-4.22 49.33 49.33 0 0 0 9 4.22h.27s-.29-6.72-8.9-10.23z" class="cls-40"/><path d="M436 67.93c.13-.73.94-6.55-5.61-11.63-9.78-7.6-11.69-8.3-12.16-12.32a12.58 12.58 0 0 0-.41 10.25c2.16.78 5.07 1.77 9.19 3.45 8.61 3.51 9 10.24 9 10.24z" class="cls-41"/><path d="M465.71 61.32a15.22 15.22 0 0 1 10 3.72 13.49 13.49 0 0 1 8.61 3.6s-8.22-11.94-22.71-7a18.88 18.88 0 0 0-3.71 1.81 15.22 15.22 0 0 1 7.81-2.13z" class="cls-42"/><path d="M465.71 61.32a15.21 15.21 0 0 0-7.82 2.15l.42-.25c-11.71 6.9-26.07 28.08-46 28.35a16.71 16.71 0 0 0 12.42 5.51 30.49 30.49 0 0 0 4.11-.37c12.94-5.33 25.38-18.09 31-24.27 5.23-5.74 11-7.68 15.8-7.39a15.22 15.22 0 0 0-9.93-3.73z" class="cls-43"/><path d="M435.48 102.38a9.48 9.48 0 0 0-.41 2.65 10.07 10.07 0 0 0 .46 3.05 7.5 7.5 0 0 1 2.49-6.67l.06-.23a9.22 9.22 0 0 1 4-5.19 17.13 17.13 0 0 0-1.8.69 9.44 9.44 0 0 0-4.8 5.7z" class="cls-44"/><path d="M487.87 79.82a19.19 19.19 0 0 0-3.59-11.21A13.49 13.49 0 0 0 475.7 65a15.25 15.25 0 0 1 5.3 11.6c0 5.13-1.86 11-7.9 14.16-8.79 4.6-22.27 2.41-31 5.25a9.22 9.22 0 0 0-4 5.19l-.06.23c2.56-2.24 7.62-3.86 17.48-2.59 7 .91 12.64 1.15 17.44-.23a18.64 18.64 0 0 0 11.42-7.69 19.19 19.19 0 0 0 3.49-11.1z" class="cls-46"/><path d="M487.87 79.82a19.19 19.19 0 0 0-3.59-11.21A13.49 13.49 0 0 0 475.7 65a15.25 15.25 0 0 1 5.3 11.6c0 5.13-1.86 11-7.9 14.16-8.79 4.6-22.27 2.41-31 5.25a9.22 9.22 0 0 0-4 5.19l-.06.23c2.56-2.24 7.62-3.86 17.48-2.59 7 .91 12.64 1.15 17.44-.23a18.64 18.64 0 0 0 11.42-7.69 19.19 19.19 0 0 0 3.49-11.1z" class="cls-47"/><path d="M444.22 112.75a9.25 9.25 0 0 1-6.22-11.37 7.49 7.49 0 0 0-2.49 6.67 9.47 9.47 0 0 0 15.22 4.24 9.22 9.22 0 0 1-6.51.46z" class="cls-48"/><path d="M447.44 112.08c1-2.79 4.06-7.11 7.39-5.13 0 0 2.71 1.52 3.27-2.76 0 0 2 10.08-7.74 9.74 0 0 2.2-1.61 2.18-3.26a11.19 11.19 0 0 1-5.1 1.41z" class="cls-49"/><path d="M451.34 105.9a3.56 3.56 0 0 1 3.66-.2c1.38.61 3.11-1.78 1.61-3.92 0 0 .1 2.21-1.68 2.19a4 4 0 0 0-3.59 1.93z" class="cls-50"/><path d="M461.15 73.83c-2.34 3.19-5.77 5.86-6.17 6.51s.68 2.77 2.28 2.92.37-.61.24-1.36.48.48 2.39.19-.69-1-.51-2 2.15-2.79 2.93-4.64 2.13 0 1.44 1.44c-.27.57 2.18-1.6.94-3.26s-2.17-1.63-3.54.2zm-6.67 6.97c-.34.33-1.36 1.07-1.36 1.07a3.26 3.26 0 0 0 2.27 1.35s.27-.13-.12-.54a3.64 3.64 0 0 1-.79-1.88z" class="cls-51"/><path d="M420.07 64.25a18.81 18.81 0 0 1-7-5.54 20.55 20.55 0 0 0-12 30.74 30.24 30.24 0 0 0 11.35 2.11 16.75 16.75 0 0 1 7.72-27.32z" class="cls-52"/><path d="M420.11 58.06a28.58 28.58 0 0 0 6.62 5.63 16.69 16.69 0 0 1 9.27 4.23 20.55 20.55 0 0 0-15.89-9.86z" class="cls-54"/><path d="M420.11 58.06c-.56 0-1.12-.07-1.69-.07a20.57 20.57 0 0 0-5.38.72 18.81 18.81 0 0 0 7 5.54 16.62 16.62 0 0 1 6.66-.55 28.58 28.58 0 0 1-6.59-5.64z" class="cls-55"/><path d="M431.52 62.74a15.07 15.07 0 0 0-5.53-3.3c1.34 2.56 2.48 3.3 5.53 3.3z" class="cls-56"/><path d="M425.71 52a28.58 28.58 0 0 1 3 2.07c.24.18-.42-1.61-1.18-1.95a3.39 3.39 0 0 0-1.82-.12zm3.65 2.59a32 32 0 0 1 2.94 2.1c.24.17-.41-1.61-1.17-2a3.39 3.39 0 0 0-1.77-.1zm3.44 2.53a8.86 8.86 0 0 1 1.59 2c.12.17 0-1.17-.42-1.55a2.39 2.39 0 0 0-1.17-.45z" class="cls-41"/><path d="M417 89.7c-.09-.3 1.06-.67 1.37-.69a5.39 5.39 0 0 1 1.61.54 7.4 7.4 0 0 1-2.21.47 2 2 0 0 1-.77-.32zm4.11-.98c-.1-.23.79-.62 1-.66a4.34 4.34 0 0 1 1.34.29 6 6 0 0 1-1.73.56 1.62 1.62 0 0 1-.61-.19zm3.48-1.28c-.1-.18.6-.58.79-.64a3.59 3.59 0 0 1 1.12.12 4.92 4.92 0 0 1-1.37.61 1.34 1.34 0 0 1-.54-.09zm2.76-1.25c-.11-.16.5-.57.68-.64a3.28 3.28 0 0 1 1 0 4.5 4.5 0 0 1-1.21.66 1.23 1.23 0 0 1-.47-.02zm2.59-1.41c-.1-.13.41-.52.56-.59a2.86 2.86 0 0 1 .9 0 3.92 3.92 0 0 1-1 .63 1.07 1.07 0 0 1-.46-.04zM412.79 90c0-.33 1.24-.53 1.56-.49a5.78 5.78 0 0 1 1.62.84 7.92 7.92 0 0 1-2.42.12 2.16 2.16 0 0 1-.76-.47z" class="cls-57"/><path d="M413.58 51.18a8.19 8.19 0 0 0 3 1.69 8.6 8.6 0 0 1-.42-3.43c0-.08-2.6 0-3-2.18-.16-.42-.48 2.89.42 3.92z" class="cls-41"/><path d="M404.74 100.44a2.48 2.48 0 0 1 1-1.76h.08a6.34 6.34 0 0 0-.65-.11c-3.1-.46-3.89 1.38-4 3.46v.36a3.76 3.76 0 0 1 3.57-1.9z" class="cls-39"/><path d="M408.51 99.76c-3.08-1.87-4.81-2-5.5 3.23 0 0 3.24-2.56 4.77-.87s3.93.14 2.74-.93a8.49 8.49 0 0 0-2.01-1.43z" class="cls-39"/><path d="M407.23 100.37c-1.75 1.16-1.75 3.9-1.75 3.9s3.19-1.73 2.94-2.8a1.33 1.33 0 0 0-1.19-1.1zm-14.51-21.53a2.48 2.48 0 0 1 2-.31h.09a6.34 6.34 0 0 0-.32-.57c-1.58-2.71-3.51-2.17-5.23-1l-.28.21a3.76 3.76 0 0 1 3.71 1.6z" class="cls-39"/><path d="M396 82.06c-1.12-4.45-2-6.16-6.32-3.09 0 0 3.68-1.06 4.1 4.17.2 2.48 2.57 3 2.55 1.37a8.49 8.49 0 0 0-.33-2.45z" class="cls-39"/><path d="M394.46 79.68c-2-.48-4 1.38-4 1.38s3.14-.11 3.52 1.8c.17 1.08.48-3.18.48-3.18z" class="cls-39"/><path d="M459.9 72.43a25.06 25.06 0 0 1 7-5.66 19 19 0 0 1 8.37-2.08l.84.72h-.44a17.08 17.08 0 0 0-8.62 1.7 24.9 24.9 0 0 0-7.15 5.32z" class="cls-58"/><path d="M475.59 64.71a15.61 15.61 0 0 1 4.73 1.21 12.41 12.41 0 0 1 4 2.71 12.24 12.24 0 0 0-4.11-2.4 19.75 19.75 0 0 0-4.08-.83l-.83-.72z" class="cls-59"/><path d="M438.22 100.79a12.41 12.41 0 0 1 1.41-.86 11.47 11.47 0 0 1 1-.47c.35-.15.72-.26 1.08-.38a20.65 20.65 0 0 1 4.45-.82 43.29 43.29 0 0 1 9 .35 87.94 87.94 0 0 0 8.9.85 30 30 0 0 0 8.87-.87 30.06 30.06 0 0 1-8.87 1 88.16 88.16 0 0 1-8.94-.69 42.89 42.89 0 0 0-8.89-.18 20.11 20.11 0 0 0-4.32.88c-.34.12-.69.23-1 .39a10.85 10.85 0 0 0-1 .46 9.68 9.68 0 0 0-1.78 1.22l-.24.21a8.34 8.34 0 0 1 .33-1.09z" class="cls-60"/><path d="M420.63 65.58c-2.88.63-2.43 2.92-2.43 2.92s.91-1.1 5.92-1.69a23.69 23.69 0 0 1-3.49-1.23z" class="cls-41"/><path d="M435.53 108.09a7.42 7.42 0 0 1 0-1.92 8.44 8.44 0 0 1 .41-1.89 8.54 8.54 0 0 1 .85-1.77A9 9 0 0 1 438 101l.21-.19s-.28.91-.32 1.14a8.72 8.72 0 0 0-.73.87 8.07 8.07 0 0 0-1.51 3.39 7.34 7.34 0 0 0-.12 1.88z" class="cls-61"/><path d="M411.68 91.57a16.94 16.94 0 0 1-3.6-7.33 16.65 16.65 0 0 1-.37-4.29l.06-1.08.15-1.07a10.39 10.39 0 0 1 .21-1.05 8.89 8.89 0 0 1 .27-1 16.11 16.11 0 0 1 1.73-3.91 17.85 17.85 0 0 1 1.23-1.84l.69-.81c.23-.27.5-.51.74-.77a16.83 16.83 0 0 1 3.38-2.57 18 18 0 0 1 3.9-1.64 18 18 0 0 0-3.83 1.79 16.64 16.64 0 0 0-3.24 2.63c-.23.26-.49.5-.71.78l-.66.82a17.5 17.5 0 0 0-1.16 1.77 15.67 15.67 0 0 0-1.57 3.86 8.49 8.49 0 0 0-.23 1 9.91 9.91 0 0 0-.17 1l-.11 1v1a16 16 0 0 0 .48 4.11 16.37 16.37 0 0 0 3.9 7.16l.3.32s-1.14.14-1.39.12z" class="cls-62"/><path d="M428.88 96.7a21.33 21.33 0 0 1-4.49.51 16.78 16.78 0 0 1-4.49-.74 21.13 21.13 0 0 1-4.22-1.77 15.65 15.65 0 0 1-3.68-2.79l-.31-.33h1.34a15.19 15.19 0 0 0 3 2.49 20.48 20.48 0 0 0 4 1.93 16.38 16.38 0 0 0 4.34 1 21.62 21.62 0 0 0 4.51-.3z" class="cls-63"/><rect width="185.59" height="185.59" x="109.29" y="289.47" rx="33.63" ry="33.63"/><rect width="185.59" height="185.59" x="109.29" y="285.12" class="cls-36" rx="33.63" ry="33.63"/><circle cx="201.94" cy="377.84" r="12.01" class="cls-64"/><path d="M201.94 353.42c16.12 0 31.1 2.31 42.39 6.2 13.61 4.68 22 11.78 22 18.21 0 6.7-8.87 14.24-23.48 19.08-11 3.66-25.58 5.57-40.89 5.57-15.69 0-30.55-1.79-41.72-5.61-14.13-4.83-22.65-12.47-22.65-19 0-6.38 8-13.42 21.4-18.1 11.33-3.99 26.67-6.35 42.95-6.35z" class="cls-65"/><path d="M180.69 365.7c8.05-14 17.54-25.79 26.55-33.63 10.86-9.45 21.19-13.15 26.75-9.93 5.8 3.35 7.91 14.8 4.8 29.87-2.35 11.4-8 24.94-15.6 38.2-7.84 13.59-16.82 25.57-25.7 33.34-11.25 9.83-22.12 13.39-27.81 10.1-5.52-3.19-7.64-13.62-5-27.58 2.26-11.79 7.88-26.27 16.01-40.37z" class="cls-65"/><path d="M180.71 390.25c-8.08-14-13.58-28.07-15.87-39.8-2.76-14.12-.81-24.92 4.75-28.14 5.8-3.36 16.77.54 28.28 10.76 8.7 7.73 17.64 19.35 25.31 32.59 7.86 13.58 13.75 27.34 16 38.92 2.9 14.65.55 25.85-5.14 29.14-5.52 3.2-15.62-.19-26.39-9.45-9.05-7.84-18.78-19.93-26.94-34.02z" class="cls-65"/><rect width="177.86" height="177.86" x="823.71" y="235.61" class="cls-66" rx="31.39" ry="31.39"/><rect width="177.86" height="177.86" x="823.71" y="231.12" class="cls-67" rx="31.39" ry="31.39"/><path d="M943.18 370.07c3.58 5.85 8.24 10.15 16.49 10.15 6.93 0 11.35-3.46 11.35-8.24 0-5.73-4.55-7.76-12.17-11.09l-4.18-1.79c-12.06-5.14-20.07-11.57-20.07-25.18 0-12.53 9.55-22.08 24.48-22.08 10.63 0 18.27 3.7 23.77 13.38l-13 8.36c-2.87-5.14-6-7.16-10.76-7.16s-8 3.11-8 7.16c0 5 3.11 7 10.28 10.15l4.18 1.79c14.2 6.09 22.22 12.3 22.22 26.25 0 15-11.82 23.29-27.69 23.29-15.52 0-25.55-7.4-30.46-17.09zm-59 1.45c2.63 4.66 5 8.6 10.76 8.6 5.49 0 9-2.15 9-10.5v-56.83h16.71v57.06c0 17.31-10.15 25.18-25 25.18-13.38 0-21.13-6.93-25.07-15.27z"/><path d="M498.26 332.88v66.38a36.21 36.21 0 0 0 36.21 36.21h132.75a36.21 36.21 0 0 0 36.21-36.21V266.5a36.21 36.21 0 0 0-36.21-36.21H534.47a36.21 36.21 0 0 0-36.21 36.21z" class="cls-68"/><path d="M498.26 327.71v66.38a36.21 36.21 0 0 0 36.21 36.21h132.75a36.21 36.21 0 0 0 36.21-36.21V261.33a36.21 36.21 0 0 0-36.21-36.21H534.47a36.21 36.21 0 0 0-36.21 36.21z" class="cls-69"/><path d="M663.26 321.22a25.54 25.54 0 0 1 12.83 7.39c1.89 2 4.69 5.7 4.92 6.58.07.26-8.86 6.25-14.26 9.61-.2.13-1-.72-1.86-2-2.64-3.84-5.41-5.5-9.64-5.8-6.22-.42-10.23 2.83-10.19 8.27a7.52 7.52 0 0 0 .88 3.84c1.37 2.83 3.91 4.53 11.89 8 14.69 6.32 21 10.49 24.88 16.41 4.36 6.61 5.34 17.16 2.38 25-3.26 8.53-11.33 14.33-22.7 16.25a62.9 62.9 0 0 1-15.63-.16c-8.24-1.47-16.06-5.54-20.88-10.88-1.89-2.08-5.57-7.52-5.34-7.91a15.33 15.33 0 0 1 1.89-1.2c.91-.52 4.36-2.51 7.62-4.4l5.89-3.42 1.24 1.82a27.54 27.54 0 0 0 7.78 7.46c6.55 3.45 15.53 3 20-1a8.92 8.92 0 0 0 1.14-11.37c-1.6-2.28-4.85-4.2-14.1-8.21-10.58-4.56-15.14-7.39-19.31-11.89a27.06 27.06 0 0 1-5.69-10.28 41.08 41.08 0 0 1-.36-13.09c2.18-10.23 9.9-17.36 21-19.47a52 52 0 0 1 15.62.45zm-48.16 8.57l.07 8.4h-26.7v75.88h-18.9v-75.88h-26.7V330a80.74 80.74 0 0 1 .23-8.47c.1-.13 16.35-.2 36.05-.16l35.86.1z" class="cls-70"/><rect width="132.48" height="132.48" x="695.49" y="44.76" class="cls-71" rx="24.01" ry="24.01"/><rect width="132.48" height="132.48" x="695.51" y="41.66" class="cls-72" rx="24.01" ry="24.01"/><path d="M761.48 117.92l-10.58-.06-5.08 12.48-9.29-.04h-.05l25.22-55.77v.04l.05-9.51-39.96 14.02 5.82 52.76 33.7 18.89.17-32.81z" class="cls-70"/><path d="M754.45 110.17l7.29.04.08-17.52-7.37 17.48z" class="cls-70"/><g class="cls-73"><path d="M761.45 117.92l10.57.05 4.95 12.53 9.3.05h.04l-24.65-56.02v.04l.05-9.51 39.81 14.42-6.35 52.7-33.89 18.55.17-32.81z" class="cls-70"/><path d="M768.77 110.24l-7.29-.03.09-17.52 7.2 17.55z" class="cls-70"/></g></g></g></g></svg>